<svg width="310" height="270" viewBox="0 0 310 270" fill="none" xmlns="http://www.w3.org/2000/svg">
<circle cx="155.5" cy="136" r="94.5" stroke="#C962AC" stroke-width="25"/>
<circle cx="155.5" cy="136" r="69.5" stroke="#DFACD1" stroke-width="25"/>
<circle cx="155.5" cy="136" r="44.5" stroke="#EEDDE9" stroke-width="25"/>
<path d="M260.902 134.988H49.3182" stroke="white" stroke-width="1.14525" stroke-linecap="round"/>
<path d="M230.917 59.1821L78.9165 211.182" stroke="white" stroke-width="1.14525" stroke-linecap="round"/>
<path d="M231.11 210.988L80.1102 59.9883" stroke="white" stroke-width="1.14525" stroke-linecap="round"/>
<path d="M155.5 28L155.5 242" stroke="white" stroke-width="1.14525" stroke-linecap="round"/>
<path d="M60.0361 216.852V217.701C60.0264 218.8 60.0264 220.025 59.6846 221.871L58.5908 221.754C58.9375 220.035 58.9375 218.78 58.9424 217.721H53.6689V216.852H60.0361ZM52.8291 223.727V222.838H55.7979V219.771H56.8721V222.838H60.876V223.727H52.8291ZM68.8252 216.051V220.943H67.7314V216.051H68.8252ZM61.9209 217.33V216.451H65.9932V219H63.0049V219.889C64.5137 219.879 65.5928 219.85 66.8525 219.635L66.9893 220.514C65.5977 220.743 64.4014 220.777 62.6924 220.777H61.9404V218.17H64.9189V217.33H61.9209ZM62.9756 224.762V221.334H64.0596V222.193H67.7412V221.334H68.8252V224.762H62.9756ZM64.0596 223.883H67.7412V223.033H64.0596V223.883ZM75.251 218.814V219.684H73.6104V220.685C74.3477 220.655 75.0801 220.606 75.7686 220.533L75.8467 221.314C73.9717 221.573 71.9453 221.622 70.2998 221.627L70.1533 220.758C70.8809 220.753 71.6865 220.748 72.5166 220.724V219.684H70.915V216.588H75.1826V217.467H72.0088V218.814H75.251ZM71.5596 224.693V222.184H72.6533V223.814H77.7314V224.693H71.5596ZM76.3838 222.672V216.041H77.4775V222.672H76.3838Z" fill="#464646"/>
<path d="M238.021 54.125C239.97 54.125 241.073 54.5938 241.078 55.4922C241.073 56.4004 239.97 56.8643 238.021 56.8691C236.049 56.8643 234.945 56.4004 234.945 55.4922C234.945 54.5938 236.049 54.125 238.021 54.125ZM234.008 53.6562V52.8262H242.055V53.6562H234.008ZM234.408 49.5547V48.7344H237.484V47.9434H238.568V48.7344H241.615V49.5547H234.408ZM235.092 51.1074C235.092 50.2725 236.151 49.8281 238.021 49.8281C239.911 49.8281 240.956 50.2725 240.961 51.1074C240.956 51.9375 239.911 52.3721 238.021 52.3672C236.151 52.3721 235.092 51.9375 235.092 51.1074ZM236.059 55.4922C236.059 55.8877 236.708 56.0781 238.021 56.0684C239.32 56.0781 239.979 55.8877 239.984 55.4922C239.979 55.1113 239.32 54.9111 238.021 54.9062C236.708 54.9111 236.059 55.1113 236.059 55.4922ZM236.254 51.1074C236.254 51.4541 236.854 51.6201 238.021 51.625C239.208 51.6201 239.794 51.4541 239.799 51.1074C239.794 50.7412 239.208 50.5605 238.021 50.5605C236.854 50.5605 236.254 50.7412 236.254 51.1074ZM247.318 48.8711V54.7207H243.119V48.8711H247.318ZM244.193 53.8516H246.264V49.7207H244.193V53.8516ZM248.9 56.8789V48.041H249.994V56.8789H248.9ZM259.359 54.9453V55.8438H251.293V54.9453H254.77V53.5098H252.25V50.6191H257.328V49.5254H252.23V48.6465H258.402V51.4785H253.334V52.6211H258.607V53.5098H255.844V54.9453H259.359ZM267.992 52.4062V53.2754H264.584V54.8965H263.48V53.2754H259.926V52.4062H267.992ZM260.785 50.043C260.78 48.9346 262.05 48.2363 263.949 48.2363C265.858 48.2363 267.113 48.9346 267.113 50.043C267.113 51.1562 265.858 51.8447 263.949 51.8398C262.05 51.8447 260.78 51.1562 260.785 50.043ZM260.912 56.6934V54.0762H262.006V55.8047H267.104V56.6934H260.912ZM261.957 50.043C261.947 50.6289 262.738 50.9707 263.949 50.9707C265.17 50.9707 265.956 50.6289 265.951 50.043C265.956 49.4375 265.17 49.0957 263.949 49.0957C262.738 49.0957 261.947 49.4375 261.957 50.043Z" fill="#464646"/>
<path d="M36.7129 42.4902C38.5439 42.4902 39.667 43.1104 39.6719 44.1699C39.667 45.2441 38.5439 45.8643 36.7129 45.8691C34.8672 45.8643 33.7246 45.2441 33.7246 44.1699C33.7246 43.1104 34.8672 42.4902 36.7129 42.4902ZM32.9238 41.7188V37.5977H33.998V38.7891H36.0586V37.5977H37.1328V41.7188H32.9238ZM33.998 40.8594H36.0586V39.6387H33.998V40.8594ZM34.8086 44.1699C34.8086 44.7168 35.502 45.0146 36.7129 45.0098C37.9189 45.0146 38.5977 44.7168 38.5977 44.1699C38.5977 43.623 37.9189 43.3447 36.7129 43.3398C35.502 43.3447 34.8086 43.623 34.8086 44.1699ZM38.5 42.2754V37.041H39.584V39.1504H40.8145V40.0586H39.584V42.2754H38.5ZM45.5703 38.4473V39.3164H41.2441V38.4473H42.8848V37.2949H43.959V38.4473H45.5703ZM41.498 41.8359C41.4883 40.6348 42.3037 39.7803 43.4219 39.7852C44.5449 39.7803 45.3457 40.6348 45.3457 41.8359C45.3457 43.0615 44.5449 43.916 43.4219 43.916C42.3037 43.916 41.4883 43.0615 41.498 41.8359ZM42.4551 41.8359C42.4502 42.5488 42.8506 42.9932 43.4219 42.9883C43.9883 42.9932 44.3887 42.5488 44.3887 41.8359C44.3887 41.1426 43.9883 40.6836 43.4219 40.6836C42.8506 40.6836 42.4502 41.1426 42.4551 41.8359ZM45.9414 45.4688V37.2266H46.957V40.6738H47.8164V37.041H48.8516V45.8691H47.8164V41.5527H46.957V45.4688H45.9414ZM55.1602 40.7031V41.582H53.373V43.1201C54.1445 43.0908 54.916 43.0371 55.6484 42.959L55.7363 43.7598C53.793 44.0479 51.7471 44.0674 50.082 44.0723L49.9453 43.1738C50.6729 43.1787 51.4688 43.1738 52.2891 43.1592V41.582H50.5605V37.8516H55.1211V38.7109H51.6348V40.7031H55.1602ZM56.1758 45.8789V37.041H57.2598V45.8789H56.1758ZM65.6973 39.541V40.4004H59.584V37.3633H60.6582V39.541H65.6973ZM58.5391 42.2852V41.4258H66.6055V42.2852H58.5391ZM59.5059 45.6641V43.0664H60.5898V44.7852H65.7559V45.6641H59.5059ZM68.9102 44.3066L68.0898 47.041H67.1621L67.6699 44.3066H68.9102ZM32.2256 53.6309V54.4902H24.1592V53.6309H27.6455V52.9766H25.1943V49.2754H31.2588V50.1152H26.2783V50.7207H31.0439V51.5215H26.2783V52.1465H31.3271V52.9766H28.7295V53.6309H32.2256ZM25.1162 56.4141C25.1162 55.4912 26.2246 54.9736 28.1924 54.9785C30.1309 54.9736 31.2441 55.4912 31.249 56.4141C31.2441 57.3613 30.1309 57.8594 28.1924 57.8594C26.2246 57.8594 25.1162 57.3613 25.1162 56.4141ZM26.2002 56.4141C26.2002 56.8438 26.8643 57.0488 28.1924 57.0488C29.4961 57.0488 30.1553 56.8438 30.165 56.4141C30.1553 55.9941 29.4961 55.7891 28.1924 55.7891C26.8643 55.7891 26.2002 55.9941 26.2002 56.4141ZM40.4189 49.041V57.8691H39.3838V49.041H40.4189ZM32.665 55.3594C33.9395 54.583 34.501 52.9912 34.501 51.4531V50.8672H32.9678V49.9883H36.9717V50.8672H35.5459V51.4531C35.5459 52.9424 36.0781 54.4365 37.3428 55.1641L36.6982 55.9648C35.8828 55.4814 35.3408 54.6416 35.0332 53.6357C34.7207 54.7246 34.1592 55.6523 33.3291 56.1699L32.665 55.3594ZM36.3271 52.9961V52.1172H37.5967V49.207H38.6221V57.4395H37.5967V52.9961H36.3271ZM46.7178 52.7031V53.582H44.9307V55.1201C45.7021 55.0908 46.4736 55.0371 47.2061 54.959L47.2939 55.7598C45.3506 56.0479 43.3047 56.0674 41.6396 56.0723L41.5029 55.1738C42.2305 55.1787 43.0264 55.1738 43.8467 55.1592V53.582H42.1182V49.8516H46.6787V50.7109H43.1924V52.7031H46.7178ZM47.7334 57.8789V49.041H48.8174V57.8789H47.7334ZM53.4365 51.5508C53.4365 52.9961 54.2861 54.5195 55.7119 55.1152L55.1162 55.9746C54.0713 55.5205 53.3096 54.5977 52.9043 53.4746C52.499 54.6855 51.7227 55.7012 50.6924 56.1895L50.0674 55.3398C51.459 54.6953 52.3281 53.0498 52.333 51.5508V50.8086H50.3896V49.9102H55.3701V50.8086H53.4365V51.5508ZM56.3564 57.8691V49.041H57.4502V57.8691H56.3564ZM63.5635 49.5C64.9111 49.4951 65.9023 50.3496 65.9072 51.541C65.9023 52.752 64.9111 53.5967 63.5635 53.6016C62.2256 53.5967 61.2148 52.752 61.2197 51.541C61.2148 50.3496 62.2256 49.4951 63.5635 49.5ZM61.9619 57.625V54.3047H63.0264V56.7412C63.5293 56.7119 64.0518 56.6387 64.5596 56.4727L64.7158 57.3223C63.9346 57.5957 63.1826 57.6299 62.4307 57.625H61.9619ZM62.2842 51.541C62.2744 52.2441 62.8311 52.7129 63.5635 52.7129C64.2959 52.7129 64.8477 52.2441 64.8525 51.541C64.8477 50.8525 64.2959 50.3936 63.5635 50.3887C62.8311 50.3936 62.2744 50.8525 62.2842 51.541ZM64.4131 55.1348V54.3242H66.1123V53.6504H67.1768V54.3242H68.8564V55.1348H64.4131ZM64.9502 56.6191C64.9404 55.8525 65.6289 55.3691 66.6299 55.3691C67.6211 55.3691 68.3145 55.8525 68.3193 56.6191C68.3145 57.3809 67.6211 57.8594 66.6299 57.8594C65.624 57.8594 64.9404 57.3809 64.9502 56.6191ZM65.917 56.6191C65.9121 56.9316 66.2148 57.1074 66.6299 57.1074C67.0449 57.1074 67.3428 56.9316 67.3428 56.6191C67.3428 56.3115 67.0449 56.1309 66.6299 56.1211C66.2148 56.1309 65.9121 56.3115 65.917 56.6191ZM67.001 53.416V49.041H68.085V50.9258H69.3154V51.8242H68.085V53.416H67.001ZM77.8115 53.6016V54.4707H69.7646V53.6016H77.8115ZM70.5947 51.1113C70.5947 49.9932 71.8496 49.3193 73.7783 49.3242C75.7021 49.3193 76.957 49.9932 76.9619 51.1113C76.957 52.2344 75.7021 52.918 73.7783 52.918C71.8496 52.918 70.5947 52.2344 70.5947 51.1113ZM70.7607 57.6934V55.125H71.8447V56.8145H76.9033V57.6934H70.7607ZM71.7275 51.1113C71.7178 51.7119 72.4941 52.0342 73.7783 52.0293C75.0674 52.0342 75.8389 51.7119 75.8389 51.1113C75.8389 50.5303 75.0674 50.1934 73.7783 50.1934C72.4941 50.1934 71.7178 50.5303 71.7275 51.1113Z" fill="#464646"/>
<path d="M149.904 6.55859V7.46094H145.662V8.375C147.596 8.47461 148.732 9.10156 148.744 10.168C148.732 11.3398 147.379 11.9785 145.111 11.9727C142.826 11.9785 141.473 11.3398 141.479 10.168C141.473 9.10156 142.609 8.47461 144.561 8.375V7.46094H140.33V6.55859H149.904ZM141.209 2.78516V1.87109H149.002V2.78516H147.479V4.78906H148.955V5.69141H141.256V4.78906H142.744V2.78516H141.209ZM142.592 10.168C142.592 10.8008 143.506 11.1406 145.111 11.1289C146.693 11.1406 147.607 10.8008 147.607 10.168C147.607 9.55273 146.693 9.20703 145.111 9.20703C143.506 9.20703 142.592 9.55273 142.592 10.168ZM143.846 4.78906H146.365V2.78516H143.846V4.78906ZM160.299 7.67188V8.55078H156.01V11.9961H154.92V8.55078H150.689V7.67188H160.299ZM151.885 6.47656V1.91797H152.986V3.28906H157.979V1.91797H159.092V6.47656H151.885ZM152.986 5.58594H157.979V4.17969H152.986V5.58594ZM169.322 1.50781V4.88281H170.846V5.80859H169.322V9.35938H168.209V1.50781H169.322ZM161.084 3.62891V2.72656H163.662V1.49609H164.775V2.72656H167.342V3.62891H161.084ZM161.658 6.11328C161.652 4.91211 162.689 4.12695 164.213 4.13281C165.719 4.12695 166.756 4.91211 166.756 6.11328C166.756 7.30273 165.719 8.07617 164.213 8.08203C162.689 8.07617 161.652 7.30273 161.658 6.11328ZM162.666 11.7734V8.73828H163.779V10.8711H169.768V11.7734H162.666ZM162.736 6.11328C162.725 6.79883 163.322 7.2207 164.213 7.21484C165.104 7.2207 165.701 6.79883 165.713 6.11328C165.701 5.42188 165.104 4.99414 164.213 4.98828C163.322 4.99414 162.725 5.42188 162.736 6.11328Z" fill="#464646"/>
<path d="M145.064 264.094C147.338 264.094 148.773 264.814 148.779 266.039C148.773 267.258 147.338 267.979 145.064 267.973C142.814 267.979 141.373 267.258 141.373 266.039C141.373 264.814 142.814 264.094 145.064 264.094ZM140.342 263.227V262.324H144.174V260.355H145.264V262.324H149.893V263.227H140.342ZM141.455 258.902V258.012H148.697V258.891C148.703 259.729 148.703 260.596 148.404 261.68L147.314 261.562C147.596 260.49 147.596 259.717 147.596 258.902H141.455ZM142.486 266.039C142.475 266.719 143.477 267.111 145.064 267.117C146.67 267.111 147.666 266.719 147.678 266.039C147.666 265.348 146.67 264.943 145.064 264.938C143.477 264.943 142.475 265.348 142.486 266.039ZM156.936 259.137V260.051H150.713V259.137H153.256V257.637H154.369V259.137H156.936ZM151.322 263.262C151.322 261.844 152.383 260.824 153.83 260.824C155.254 260.824 156.303 261.844 156.303 263.262C156.303 264.674 155.254 265.705 153.83 265.711C152.383 265.705 151.322 264.674 151.322 263.262ZM152.365 263.262C152.359 264.158 152.986 264.762 153.83 264.75C154.656 264.762 155.289 264.158 155.283 263.262C155.289 262.383 154.656 261.773 153.83 261.762C152.986 261.773 152.359 262.383 152.365 263.262ZM156.713 262.734V261.82H158.354V257.496H159.455V267.996H158.354V262.734H156.713ZM169.322 257.508V260.883H170.846V261.809H169.322V265.359H168.209V257.508H169.322ZM161.084 259.629V258.727H163.662V257.496H164.775V258.727H167.342V259.629H161.084ZM161.658 262.113C161.652 260.912 162.689 260.127 164.213 260.133C165.719 260.127 166.756 260.912 166.756 262.113C166.756 263.303 165.719 264.076 164.213 264.082C162.689 264.076 161.652 263.303 161.658 262.113ZM162.666 267.773V264.738H163.779V266.871H169.768V267.773H162.666ZM162.736 262.113C162.725 262.799 163.322 263.221 164.213 263.215C165.104 263.221 165.701 262.799 165.713 262.113C165.701 261.422 165.104 260.994 164.213 260.988C163.322 260.994 162.725 261.422 162.736 262.113Z" fill="#464646"/>
<path d="M282.084 129.496V137.289H280.971V134.395H279.33V133.457H280.971V132.355H279.33V131.441H280.971V129.496H282.084ZM273.342 134.863C273.734 134.863 274.168 134.857 274.619 134.857V131.219H273.635V130.316H279.213V131.219H278.205V134.734C278.65 134.699 279.078 134.664 279.494 134.617L279.541 135.438C277.531 135.754 275.164 135.795 273.482 135.801L273.342 134.863ZM275.24 139.773V136.656H276.365V138.871H282.354V139.773H275.24ZM275.697 134.84C276.172 134.828 276.652 134.811 277.139 134.793V131.219H275.697V134.84ZM291.951 129.484V132.625H293.475V133.562H291.951V137.207H290.838V129.484H291.951ZM283.865 132.824C283.854 131.295 285.072 130.217 286.654 130.211C288.242 130.217 289.443 131.295 289.455 132.824C289.443 134.354 288.242 135.443 286.654 135.438C285.072 135.443 283.854 134.354 283.865 132.824ZM284.955 132.824C284.943 133.803 285.693 134.465 286.654 134.465C287.627 134.465 288.359 133.803 288.365 132.824C288.359 131.846 287.627 131.184 286.654 131.184C285.693 131.184 284.943 131.846 284.955 132.824ZM285.295 139.773V136.398H286.408V138.871H292.396V139.773H285.295ZM302.322 129.508V132.883H303.846V133.809H302.322V137.359H301.209V129.508H302.322ZM294.084 131.629V130.727H296.662V129.496H297.775V130.727H300.342V131.629H294.084ZM294.658 134.113C294.652 132.912 295.689 132.127 297.213 132.133C298.719 132.127 299.756 132.912 299.756 134.113C299.756 135.303 298.719 136.076 297.213 136.082C295.689 136.076 294.652 135.303 294.658 134.113ZM295.666 139.773V136.738H296.779V138.871H302.768V139.773H295.666ZM295.736 134.113C295.725 134.799 296.322 135.221 297.213 135.215C298.104 135.221 298.701 134.799 298.713 134.113C298.701 133.422 298.104 132.994 297.213 132.988C296.322 132.994 295.725 133.422 295.736 134.113Z" fill="#464646"/>
<path d="M19.9766 122.496V126.598H21.3594V127.535H19.9766V132.996H18.8633V122.496H19.9766ZM11.3281 129.973C12.6289 129.006 12.9395 127.037 12.9453 125.473V124.418H11.6914V123.516H14.7383V124.418H14V125.473C14 126.656 14.1406 128.268 14.9551 129.398C15.7461 128.285 15.9043 126.691 15.9102 125.473V124.418H15.1602V123.516H18.0898V124.418H16.9648V125.473C16.9648 127.09 17.2695 129.018 18.582 129.973L17.8672 130.781C17.123 130.207 16.6777 129.287 16.4258 128.25C16.1855 129.311 15.7402 130.283 14.9492 130.875C14.1641 130.277 13.7188 129.305 13.4727 128.256C13.2207 129.281 12.7812 130.207 12.043 130.781L11.3281 129.973ZM31.4609 127.441V128.344H21.8867V127.441H31.4609ZM22.3906 126.012C24.2949 125.807 25.8008 124.951 25.9238 123.926H22.7656V123.012H30.6055V123.926H27.4121C27.541 124.945 29.0234 125.807 30.9688 126.012L30.5703 126.891C28.748 126.68 27.2422 125.912 26.6738 124.805C26.0938 125.912 24.5996 126.68 22.7773 126.891L22.3906 126.012ZM23.0234 131.074C23.0234 129.855 24.3887 129.152 26.668 129.152C28.9297 129.152 30.2832 129.855 30.2891 131.074C30.2832 132.293 28.9297 132.979 26.668 132.973C24.3887 132.979 23.0234 132.293 23.0234 131.074ZM24.1484 131.074C24.1426 131.736 25.0625 132.1 26.668 132.094C28.25 132.1 29.1758 131.736 29.1758 131.074C29.1758 130.395 28.25 130.031 26.668 130.02C25.0625 130.031 24.1426 130.395 24.1484 131.074ZM11.6621 137.984C11.6621 139.695 13.4844 141.312 15.5059 141.676L14.9902 142.602C13.3086 142.238 11.7676 141.137 11.0879 139.66C10.3965 141.131 8.85547 142.227 7.17383 142.602L6.68164 141.676C8.67383 141.301 10.4844 139.695 10.4902 137.984V137.188H11.6621V137.984ZM6.33008 145.613V144.688H15.9395V145.613H6.33008ZM25.4434 136.496V147.02H24.3418V141.371H22.4199V140.445H24.3418V136.496H25.4434ZM17.0645 138.348V137.445H21.7988V141.195H18.2012V143.586C19.877 143.574 21.166 143.521 22.6309 143.258L22.7246 144.172C21.1543 144.447 19.7715 144.512 17.9199 144.523H17.0879V140.293H20.7207V138.348H17.0645ZM36.6699 141.758V142.66H32.5098V144.699H31.3848V142.66H27.0605V141.758H36.6699ZM28.1152 138.875C28.1094 137.562 29.5977 136.748 31.8535 136.742C34.1094 136.748 35.5859 137.562 35.5801 138.875C35.5859 140.182 34.1094 140.996 31.8535 140.996C29.5977 140.996 28.1094 140.182 28.1152 138.875ZM28.2676 146.773V143.691H29.3809V145.859H35.6035V146.773H28.2676ZM29.3105 138.875C29.2988 139.631 30.3184 140.094 31.8535 140.094C33.3945 140.094 34.4023 139.631 34.4082 138.875C34.4023 138.096 33.3945 137.639 31.8535 137.633C30.3184 137.639 29.2988 138.096 29.3105 138.875Z" fill="#464646"/>
<path d="M241.699 216.041V224.869H240.654V220.338H239.707V224.459H238.691V216.275H239.707V219.459H240.654V216.041H241.699ZM234.053 222.271C235.933 221.188 236.729 219.791 236.885 218.023H234.463V217.154H237.939C237.939 219.542 237.188 221.593 234.678 223.023L234.053 222.271ZM250.117 216.051V222.428H249.023V216.051H250.117ZM242.92 218.834C242.92 217.55 243.96 216.632 245.303 216.627C246.646 216.632 247.681 217.55 247.676 218.834C247.681 220.138 246.646 221.051 245.303 221.051C243.96 221.051 242.92 220.138 242.92 218.834ZM243.984 218.834C243.979 219.615 244.546 220.104 245.303 220.104C246.04 220.104 246.611 219.615 246.611 218.834C246.611 218.072 246.04 217.574 245.303 217.574C244.546 217.574 243.979 218.072 243.984 218.834ZM244.277 224.693V221.783H245.371V223.814H250.361V224.693H244.277ZM254.648 217.555C254.648 218.634 255.361 219.713 256.729 220.172L256.182 221.012C255.195 220.689 254.497 220.021 254.111 219.19C253.726 220.113 252.993 220.855 251.943 221.207L251.387 220.348C252.793 219.884 253.545 218.712 253.545 217.564V217.447H251.709V216.578H256.475V217.447H254.648V217.555ZM252.783 222.594V221.725H258.799V224.869H257.715V222.594H252.783ZM256.211 219.117V218.229H257.715V216.041H258.799V221.305H257.715V219.117H256.211ZM267.402 216.051V222.428H266.309V216.051H267.402ZM260.205 218.834C260.205 217.55 261.245 216.632 262.588 216.627C263.931 216.632 264.966 217.55 264.961 218.834C264.966 220.138 263.931 221.051 262.588 221.051C261.245 221.051 260.205 220.138 260.205 218.834ZM261.27 218.834C261.265 219.615 261.831 220.104 262.588 220.104C263.325 220.104 263.896 219.615 263.896 218.834C263.896 218.072 263.325 217.574 262.588 217.574C261.831 217.574 261.265 218.072 261.27 218.834ZM261.562 224.693V221.783H262.656V223.814H267.646V224.693H261.562ZM270.41 223.307L269.59 226.041H268.662L269.17 223.307H270.41ZM247.876 232.631V233.49H239.81V232.631H243.296V231.977H240.845V228.275H246.909V229.115H241.929V229.721H246.694V230.521H241.929V231.146H246.978V231.977H244.38V232.631H247.876ZM240.767 235.414C240.767 234.491 241.875 233.974 243.843 233.979C245.781 233.974 246.895 234.491 246.899 235.414C246.895 236.361 245.781 236.859 243.843 236.859C241.875 236.859 240.767 236.361 240.767 235.414ZM241.851 235.414C241.851 235.844 242.515 236.049 243.843 236.049C245.146 236.049 245.806 235.844 245.815 235.414C245.806 234.994 245.146 234.789 243.843 234.789C242.515 234.789 241.851 234.994 241.851 235.414ZM256.069 228.041V236.869H255.034V228.041H256.069ZM248.315 234.359C249.59 233.583 250.151 231.991 250.151 230.453V229.867H248.618V228.988H252.622V229.867H251.196V230.453C251.196 231.942 251.729 233.437 252.993 234.164L252.349 234.965C251.533 234.481 250.991 233.642 250.684 232.636C250.371 233.725 249.81 234.652 248.979 235.17L248.315 234.359ZM251.978 231.996V231.117H253.247V228.207H254.272V236.439H253.247V231.996H251.978ZM262.251 230.814V231.684H260.61V232.685C261.348 232.655 262.08 232.606 262.769 232.533L262.847 233.314C260.972 233.573 258.945 233.622 257.3 233.627L257.153 232.758C257.881 232.753 258.687 232.748 259.517 232.724V231.684H257.915V228.588H262.183V229.467H259.009V230.814H262.251ZM258.56 236.693V234.184H259.653V235.814H264.731V236.693H258.56ZM263.384 234.672V228.041H264.478V234.672H263.384Z" fill="#464646"/>
<circle cx="155.5" cy="25" r="4" fill="#AB007B"/>
<circle cx="155.5" cy="246" r="4" fill="#AB007B"/>
<circle cx="265.5" cy="135" r="4" fill="#AB007B"/>
<circle cx="44.5" cy="135" r="4" fill="#AB007B"/>
<circle cx="155.5" cy="136" r="28.5" fill="white" stroke="#AB007B"/>
<path d="M149.526 135.531V136.762H144.632V137.801C146.84 137.944 148.152 138.71 148.159 139.988C148.152 141.41 146.539 142.203 143.88 142.203C141.18 142.203 139.573 141.41 139.573 139.988C139.573 138.71 140.886 137.938 143.128 137.794V136.762H138.261V135.531H149.526ZM138.808 133.768C141.077 133.556 142.561 132.633 142.813 131.621H139.286V130.404H148.515V131.621H144.953C145.199 132.64 146.669 133.556 148.993 133.768L148.46 134.971C146.211 134.738 144.55 133.843 143.88 132.592C143.21 133.843 141.569 134.738 139.327 134.971L138.808 133.768ZM141.118 139.988C141.111 140.672 142.082 141.048 143.88 141.041C145.65 141.048 146.628 140.672 146.642 139.988C146.628 139.305 145.65 138.942 143.88 138.936C142.082 138.942 141.111 139.305 141.118 139.988ZM160.655 129.871V136.721H159.124V129.871H160.655ZM150.989 131.662V130.432H156.69V134H152.507V135.244C154.619 135.23 156.13 135.189 157.894 134.889L158.085 136.119C156.137 136.44 154.462 136.488 152.069 136.488H151.017V132.838H155.187V131.662H150.989ZM152.466 142.066V137.268H153.983V138.471H159.138V137.268H160.655V142.066H152.466ZM153.983 140.836H159.138V139.646H153.983V140.836ZM166.999 131.977C166.999 133.487 167.997 134.998 169.911 135.641L169.146 136.816C167.765 136.365 166.787 135.429 166.247 134.267C165.707 135.559 164.682 136.598 163.212 137.09L162.433 135.887C164.401 135.237 165.454 133.597 165.454 131.99V131.826H162.884V130.609H169.556V131.826H166.999V131.977ZM164.388 139.031V137.814H172.81V142.217H171.292V139.031H164.388ZM169.187 134.164V132.92H171.292V129.857H172.81V137.227H171.292V134.164H169.187Z" fill="#464646"/>
</svg>
