<svg width="298" height="273" viewBox="0 0 298 273" fill="none" xmlns="http://www.w3.org/2000/svg">
<circle cx="149" cy="137" r="94.5" stroke="#C962AC" stroke-width="25"/>
<circle cx="149" cy="137" r="69.5" stroke="#DFACD1" stroke-width="25"/>
<circle cx="149" cy="137" r="44.5" stroke="#EEDDE9" stroke-width="25"/>
<path d="M254.402 135.988H42.8182" stroke="white" stroke-width="1.14525" stroke-linecap="round"/>
<path d="M223.416 61.1821L73.4165 211.182" stroke="white" stroke-width="1.14525" stroke-linecap="round"/>
<path d="M223.61 210.988L73.6102 60.9883" stroke="white" stroke-width="1.14525" stroke-linecap="round"/>
<path d="M149 29L149 243" stroke="white" stroke-width="1.14525" stroke-linecap="round"/>
<rect x="79.4661" y="180.08" width="33.2121" height="20.0418" rx="8.58934" fill="white"/>
<path d="M86.7313 188.652C86.7313 190.097 87.5809 191.621 89.0067 192.216L88.411 193.076C87.3661 192.622 86.6044 191.699 86.1991 190.576C85.7938 191.787 85.0174 192.802 83.9872 193.291L83.3622 192.441C84.7538 191.796 85.6229 190.151 85.6278 188.652V187.91H83.6844V187.011H88.6649V187.91H86.7313V188.652ZM89.6512 194.97V186.142H90.745V194.97H89.6512ZM99.1629 186.445V188.955H94.0946V189.833H99.3583V190.703H93.0008V188.134H98.0497V187.324H92.9813V186.445H99.1629ZM92.034 192.324V191.455H100.1V192.324H96.5946V194.98H95.5106V192.324H92.034ZM107.649 186.152V188.925H108.88V189.824H107.649V192.744H106.565V186.152H107.649ZM100.696 187.998V187.128H102.776V186.142H103.86V187.128H105.931V187.998H100.696ZM101.145 190.048C101.145 189.033 102.029 188.359 103.313 188.359C104.588 188.359 105.467 189.033 105.472 190.048C105.467 191.059 104.588 191.718 103.313 191.718C102.029 191.718 101.145 191.059 101.145 190.048ZM101.995 194.794V192.226H103.079V193.916H108.001V194.794H101.995ZM102.2 190.048C102.195 190.581 102.644 190.883 103.313 190.878C103.982 190.883 104.436 190.581 104.436 190.048C104.436 189.511 103.982 189.199 103.313 189.199C102.644 189.199 102.195 189.511 102.2 190.048Z" fill="#464646"/>
<rect x="183.683" y="71.8545" width="33.2121" height="20.0418" rx="8.58934" fill="white"/>
<path d="M194.992 77.9165V86.7446H193.898V77.9165H194.992ZM187.677 84.313C189.992 83.2144 191.056 81.7202 191.251 79.7134H188.126V78.854H192.355C192.355 81.481 191.334 83.7124 188.244 85.1821L187.677 84.313ZM204.318 82.2817V83.1509H200.91V84.772H199.806V83.1509H196.251V82.2817H204.318ZM197.111 79.9185C197.106 78.8101 198.375 78.1118 200.275 78.1118C202.184 78.1118 203.439 78.8101 203.439 79.9185C203.439 81.0317 202.184 81.7202 200.275 81.7153C198.375 81.7202 197.106 81.0317 197.111 79.9185ZM197.238 86.5688V83.9517H198.331V85.6802H203.429V86.5688H197.238ZM198.283 79.9185C198.273 80.5044 199.064 80.8462 200.275 80.8462C201.495 80.8462 202.282 80.5044 202.277 79.9185C202.282 79.313 201.495 78.9712 200.275 78.9712C199.064 78.9712 198.273 79.313 198.283 79.9185ZM208.077 79.9673C208.073 81.0024 208.79 82.0181 210.187 82.4282L209.64 83.2974C208.649 82.9946 207.941 82.3647 207.55 81.564C207.155 82.4282 206.432 83.1069 205.411 83.4438L204.865 82.5845C206.256 82.1548 206.994 81.0854 206.994 79.9673V79.8892H205.148V79.0298H206.994V77.9751H208.087V79.0298H209.923V79.8892H208.077V79.9673ZM206.212 86.5688V83.8735H207.296V85.6899H212.218V86.5688H206.212ZM210.783 84.4497V77.9165H211.867V80.5728H213.097V81.4712H211.867V84.4497H210.783Z" fill="#464646"/>
<rect x="79.4661" y="71.8545" width="33.2121" height="20.0418" rx="8.58934" fill="white"/>
<path d="M91.4481 83.0435V83.9028H83.4012V83.0435H86.8778V82.4819C85.3495 82.394 84.4852 81.9302 84.4852 81.1392C84.4852 80.2651 85.5546 79.8013 87.4149 79.8013C89.2753 79.8013 90.3495 80.2651 90.3544 81.1392C90.3495 81.9302 89.4852 82.394 87.9618 82.4819V83.0435H91.4481ZM83.8016 79.4985V78.6782H86.8778V77.8579H87.9618V78.6782H91.0087V79.4985H83.8016ZM84.3973 86.5688V84.3618H85.4813V85.7095H90.5399V86.5688H84.3973ZM85.5985 81.1392C85.5887 81.5298 86.1893 81.7153 87.4149 81.7153C88.6405 81.7153 89.246 81.5298 89.2411 81.1392C89.246 80.7534 88.6405 80.563 87.4149 80.563C86.1893 80.563 85.5887 80.7534 85.5985 81.1392ZM95.1981 79.3618C95.1932 80.4067 95.9012 81.4224 97.2977 81.8325L96.7801 82.6724C95.7694 82.3696 95.0565 81.7446 94.661 80.9487C94.2704 81.8325 93.5282 82.5259 92.4637 82.8579L91.9169 81.9985C93.3426 81.564 94.0946 80.4946 94.1044 79.3813V79.3228H92.2294V78.4438H97.0243V79.3228H95.1981V79.3618ZM93.284 86.6372V83.1411H94.368V84.0493H97.9227V83.1411H99.0067V86.6372H93.284ZM94.368 85.7583H97.9227V84.8892H94.368V85.7583ZM97.9227 82.77V77.9165H99.0067V79.8501H100.237V80.7485H99.0067V82.77H97.9227ZM107.649 77.9263V80.6997H108.88V81.5981H107.649V84.5181H106.565V77.9263H107.649ZM100.696 79.772V78.9028H102.776V77.9165H103.86V78.9028H105.931V79.772H100.696ZM101.145 81.8228C101.145 80.8071 102.029 80.1333 103.313 80.1333C104.588 80.1333 105.467 80.8071 105.472 81.8228C105.467 82.8335 104.588 83.4927 103.313 83.4927C102.029 83.4927 101.145 82.8335 101.145 81.8228ZM101.995 86.5688V84.0005H103.079V85.6899H108.001V86.5688H101.995ZM102.2 81.8228C102.195 82.355 102.644 82.6577 103.313 82.6528C103.982 82.6577 104.436 82.355 104.436 81.8228C104.436 81.2856 103.982 80.9731 103.313 80.9731C102.644 80.9731 102.195 81.2856 102.2 81.8228Z" fill="#464646"/>
<path d="M142.697 7.87305V8.91211H131.513V7.87305H136.476V6.57422H132.908V2.47266H141.316V3.49805H134.193V5.53516H141.398V6.57422H137.734V7.87305H142.697ZM132.84 11.9336C132.84 10.5117 134.432 9.71191 137.092 9.70508C139.73 9.71191 141.309 10.5117 141.316 11.9336C141.309 13.3555 139.73 14.1553 137.092 14.1621C134.432 14.1553 132.84 13.3555 132.84 11.9336ZM134.152 11.9336C134.145 12.7197 135.219 13.1504 137.092 13.1367C138.937 13.1504 140.017 12.7197 140.017 11.9336C140.017 11.1611 138.937 10.7168 137.092 10.7168C135.219 10.7168 134.145 11.1611 134.152 11.9336ZM148.002 4.08594C147.995 5.63086 149.102 7.1416 150.955 7.77734L150.285 8.78906C148.911 8.31738 147.892 7.33301 147.359 6.12305C146.826 7.46973 145.753 8.5498 144.297 9.0625L143.627 8.03711C145.507 7.39453 146.682 5.76074 146.676 4.09961V3.75781H144.023V2.70508H150.627V3.75781H148.002V4.08594ZM145.527 10.9082V9.85547H153.826V14.1621H152.527V10.9082H145.527ZM150.258 6.0957V5.0293H152.527V1.91211H153.826V9.24023H152.527V6.0957H150.258ZM165.871 1.92578V10.8262H164.572V1.92578H165.871ZM155.959 5.78125C155.966 4.01074 157.374 2.75293 159.226 2.74609C161.072 2.75293 162.48 4.01074 162.48 5.78125C162.48 7.5791 161.072 8.83008 159.226 8.83008C157.374 8.83008 155.966 7.5791 155.959 5.78125ZM157.23 5.78125C157.223 6.93652 158.085 7.69531 159.226 7.69531C160.347 7.69531 161.209 6.93652 161.209 5.78125C161.209 4.65332 160.347 3.88086 159.226 3.88086C158.085 3.88086 157.223 4.65332 157.23 5.78125ZM157.859 13.9023V9.92383H159.172V12.8496H166.24V13.9023H157.859Z" fill="#464646"/>
<path d="M141.743 257.912V265.199H140.444V262.096H138.161V261.029H140.444V257.912H141.743ZM131.53 264.092C133.43 263.429 134.599 261.774 134.593 260.086V259.812H131.94V258.76H138.544V259.812H135.919V260.072C135.912 261.624 137.019 263.135 138.872 263.764L138.202 264.789C136.828 264.317 135.816 263.333 135.283 262.123C134.75 263.49 133.677 264.591 132.214 265.131L131.53 264.092ZM133.499 267.852C133.492 266.396 135.064 265.548 137.641 265.541C140.205 265.548 141.777 266.396 141.784 267.852C141.777 269.308 140.205 270.155 137.641 270.162C135.064 270.155 133.492 269.308 133.499 267.852ZM134.784 267.852C134.777 268.679 135.844 269.15 137.641 269.137C139.426 269.15 140.492 268.679 140.499 267.852C140.492 267.018 139.426 266.546 137.641 266.553C135.844 266.546 134.777 267.018 134.784 267.852ZM148.018 260.086C148.011 261.631 149.119 263.142 150.971 263.777L150.302 264.789C148.927 264.317 147.909 263.333 147.376 262.123C146.843 263.47 145.769 264.55 144.313 265.062L143.643 264.037C145.523 263.395 146.699 261.761 146.692 260.1V259.758H144.04V258.705H150.643V259.758H148.018V260.086ZM145.544 266.908V265.855H153.843V270.162H152.544V266.908H145.544ZM150.274 262.096V261.029H152.544V257.912H153.843V265.24H152.544V262.096H150.274ZM165.887 257.926V266.826H164.589V257.926H165.887ZM155.975 261.781C155.982 260.011 157.39 258.753 159.243 258.746C161.089 258.753 162.497 260.011 162.497 261.781C162.497 263.579 161.089 264.83 159.243 264.83C157.39 264.83 155.982 263.579 155.975 261.781ZM157.247 261.781C157.24 262.937 158.101 263.695 159.243 263.695C160.364 263.695 161.225 262.937 161.225 261.781C161.225 260.653 160.364 259.881 159.243 259.881C158.101 259.881 157.24 260.653 157.247 261.781ZM157.876 269.902V265.924H159.188V268.85H166.257V269.902H157.876Z" fill="#464646"/>
<path d="M272.015 118.157V127.249H270.716V123.872H268.802V122.778H270.716V121.493H268.802V120.427H270.716V118.157H272.015ZM261.815 124.419C262.273 124.419 262.779 124.412 263.306 124.412V120.167H262.157V119.114H268.665V120.167H267.489V124.269C268.009 124.228 268.508 124.187 268.993 124.132L269.048 125.089C266.703 125.458 263.941 125.506 261.979 125.513L261.815 124.419ZM264.03 130.147V126.511H265.343V129.095H272.329V130.147H264.03ZM264.563 124.392C265.117 124.378 265.678 124.357 266.245 124.337V120.167H264.563V124.392ZM283.526 118.144V121.808H285.304V122.901H283.526V127.153H282.228V118.144H283.526ZM274.093 122.04C274.079 120.256 275.501 118.998 277.347 118.991C279.199 118.998 280.601 120.256 280.614 122.04C280.601 123.824 279.199 125.096 277.347 125.089C275.501 125.096 274.079 123.824 274.093 122.04ZM275.364 122.04C275.351 123.182 276.226 123.954 277.347 123.954C278.481 123.954 279.336 123.182 279.343 122.04C279.336 120.898 278.481 120.126 277.347 120.126C276.226 120.126 275.351 120.898 275.364 122.04ZM275.761 130.147V126.21H277.06V129.095H284.046V130.147H275.761ZM295.626 118.171V122.108H297.403V123.188H295.626V127.331H294.327V118.171H295.626ZM286.015 120.646V119.593H289.022V118.157H290.321V119.593H293.315V120.646H286.015ZM286.685 123.544C286.678 122.143 287.888 121.227 289.665 121.233C291.422 121.227 292.632 122.143 292.632 123.544C292.632 124.932 291.422 125.834 289.665 125.841C287.888 125.834 286.678 124.932 286.685 123.544ZM287.86 130.147V126.606H289.159V129.095H296.146V130.147H287.86ZM287.942 123.544C287.929 124.344 288.626 124.836 289.665 124.829C290.704 124.836 291.401 124.344 291.415 123.544C291.401 122.737 290.704 122.238 289.665 122.231C288.626 122.238 287.929 122.737 287.942 123.544Z" fill="#464646"/>
<path d="M3.5498 118.349V119.415H9.22363V118.349H10.5225V122.409H2.26465V118.349H3.5498ZM0.801758 124.351V123.298H11.9717V124.351H7.02246V125.403H10.5635V128.261H3.42676V129.286H10.9053V130.284H2.15527V127.331H9.27832V126.374H2.1416V125.403H5.72363V124.351H0.801758ZM3.5498 121.425H9.22363V120.372H3.5498V121.425ZM23.1143 118.157V127.249H21.8154V123.872H19.9014V122.778H21.8154V121.493H19.9014V120.427H21.8154V118.157H23.1143ZM12.915 124.419C13.373 124.419 13.8789 124.412 14.4053 124.412V120.167H13.2568V119.114H19.7646V120.167H18.5889V124.269C19.1084 124.228 19.6074 124.187 20.0928 124.132L20.1475 125.089C17.8027 125.458 15.041 125.506 13.0791 125.513L12.915 124.419ZM15.1299 130.147V126.511H16.4424V129.095H23.4287V130.147H15.1299ZM15.6631 124.392C16.2168 124.378 16.7773 124.357 17.3447 124.337V120.167H15.6631V124.392ZM34.626 118.171V122.108H36.4033V123.188H34.626V127.331H33.3271V118.171H34.626ZM25.0146 120.646V119.593H28.0225V118.157H29.3213V119.593H32.3154V120.646H25.0146ZM25.6846 123.544C25.6777 122.143 26.8877 121.227 28.665 121.233C30.4219 121.227 31.6318 122.143 31.6318 123.544C31.6318 124.932 30.4219 125.834 28.665 125.841C26.8877 125.834 25.6777 124.932 25.6846 123.544ZM26.8604 130.147V126.606H28.1592V129.095H35.1455V130.147H26.8604ZM26.9424 123.544C26.9287 124.344 27.626 124.836 28.665 124.829C29.7041 124.836 30.4014 124.344 30.415 123.544C30.4014 122.737 29.7041 122.238 28.665 122.231C27.626 122.238 26.9287 122.737 26.9424 123.544Z" fill="#464646"/>
<rect x="183.683" y="180.08" width="33.2121" height="20.0418" rx="8.58934" fill="white"/>
<path d="M190.724 188.945C190.724 190.253 191.461 191.679 192.824 192.324L192.218 193.144C191.261 192.705 190.573 191.826 190.202 190.795C189.816 191.909 189.088 192.846 188.077 193.3L187.482 192.46C188.873 191.835 189.65 190.332 189.65 188.945V188.486H187.765V187.617H189.65V186.328H190.734V187.617H192.589V188.486H190.724V188.945ZM193.449 194.97V186.142H194.533V189.638H195.89V190.546H194.533V194.97H193.449ZM204.318 190.712V191.582H200.91V193.105H199.835V191.582H196.251V190.712H204.318ZM197.228 194.794V192.363H198.302V193.916H203.429V194.794H197.228ZM197.306 190.019V186.425H198.38V187.421H202.189V186.425H203.263V190.019H197.306ZM198.38 189.16H202.189V188.232H198.38V189.16ZM211.867 186.152V188.925H213.097V189.824H211.867V192.744H210.783V186.152H211.867ZM204.913 187.998V187.128H206.994V186.142H208.077V187.128H210.148V187.998H204.913ZM205.363 190.048C205.363 189.033 206.246 188.359 207.531 188.359C208.805 188.359 209.684 189.033 209.689 190.048C209.684 191.059 208.805 191.718 207.531 191.718C206.246 191.718 205.363 191.059 205.363 190.048ZM206.212 194.794V192.226H207.296V193.916H212.218V194.794H206.212ZM206.417 190.048C206.412 190.581 206.862 190.883 207.531 190.878C208.2 190.883 208.654 190.581 208.654 190.048C208.654 189.511 208.2 189.199 207.531 189.199C206.862 189.199 206.412 189.511 206.417 190.048Z" fill="#464646"/>
<circle cx="149" cy="26" r="4" fill="#AB007B"/>
<circle cx="149" cy="247" r="4" fill="#AB007B"/>
<circle cx="259" cy="136" r="4" fill="#AB007B"/>
<circle cx="38" cy="136" r="4" fill="#AB007B"/>
<circle cx="149" cy="137" r="28.5" fill="white" stroke="#AB007B"/>
<path d="M143.026 136.531V137.762H138.132V138.801C140.34 138.944 141.652 139.71 141.659 140.988C141.652 142.41 140.039 143.203 137.38 143.203C134.68 143.203 133.073 142.41 133.073 140.988C133.073 139.71 134.386 138.938 136.628 138.794V137.762H131.761V136.531H143.026ZM132.308 134.768C134.577 134.556 136.061 133.633 136.313 132.621H132.786V131.404H142.015V132.621H138.453C138.699 133.64 140.169 134.556 142.493 134.768L141.96 135.971C139.711 135.738 138.05 134.843 137.38 133.592C136.71 134.843 135.069 135.738 132.827 135.971L132.308 134.768ZM134.618 140.988C134.611 141.672 135.582 142.048 137.38 142.041C139.15 142.048 140.128 141.672 140.142 140.988C140.128 140.305 139.15 139.942 137.38 139.936C135.582 139.942 134.611 140.305 134.618 140.988ZM154.155 130.871V137.721H152.624V130.871H154.155ZM144.489 132.662V131.432H150.19V135H146.007V136.244C148.119 136.23 149.63 136.189 151.394 135.889L151.585 137.119C149.637 137.44 147.962 137.488 145.569 137.488H144.517V133.838H148.687V132.662H144.489ZM145.966 143.066V138.268H147.483V139.471H152.638V138.268H154.155V143.066H145.966ZM147.483 141.836H152.638V140.646H147.483V141.836ZM160.499 132.977C160.499 134.487 161.497 135.998 163.411 136.641L162.646 137.816C161.265 137.365 160.287 136.429 159.747 135.267C159.207 136.559 158.182 137.598 156.712 138.09L155.933 136.887C157.901 136.237 158.954 134.597 158.954 132.99V132.826H156.384V131.609H163.056V132.826H160.499V132.977ZM157.888 140.031V138.814H166.31V143.217H164.792V140.031H157.888ZM162.687 135.164V133.92H164.792V130.857H166.31V138.227H164.792V135.164H162.687Z" fill="#464646"/>
</svg>
