<?xml version="1.0" encoding="UTF-8"?>
<!DOCTYPE svg PUBLIC "-//W3C//DTD SVG 1.1//EN" "http://www.w3.org/Graphics/SVG/1.1/DTD/svg11.dtd">
<svg xmlns="http://www.w3.org/2000/svg" version="1.1" width="300px" height="300px" style="shape-rendering:geometricPrecision; text-rendering:geometricPrecision; image-rendering:optimizeQuality; fill-rule:evenodd; clip-rule:evenodd" xmlns:xlink="http://www.w3.org/1999/xlink">
<g><path style="opacity:0.977" fill="#fefefe" d="M -0.5,-0.5 C 99.5,-0.5 199.5,-0.5 299.5,-0.5C 299.5,99.5 299.5,199.5 299.5,299.5C 283.167,299.5 266.833,299.5 250.5,299.5C 250.5,277.833 250.5,256.167 250.5,234.5C 264.504,234.667 278.504,234.5 292.5,234C 293.756,233.583 294.423,232.75 294.5,231.5C 294.833,231.5 295.167,231.5 295.5,231.5C 296.5,231.5 297.5,231.5 298.5,231.5C 298.5,200.5 298.5,169.5 298.5,138.5C 297.5,138.5 296.5,138.5 295.5,138.5C 295.784,136.585 295.451,134.919 294.5,133.5C 264.338,132.502 234.005,132.169 203.5,132.5C 203.5,122.833 203.5,113.167 203.5,103.5C 210.167,103.5 216.833,103.5 223.5,103.5C 223.5,102.5 223.5,101.5 223.5,100.5C 224.5,100.5 225.5,100.5 226.5,100.5C 226.5,76.8333 226.5,53.1667 226.5,29.5C 226.64,27.8762 225.973,26.7096 224.5,26C 174.665,25.1683 124.998,25.335 75.5,26.5C 75.5,27.5 75.5,28.5 75.5,29.5C 74.5,29.5 73.5,29.5 72.5,29.5C 72.5,53.1667 72.5,76.8333 72.5,100.5C 73.5,100.5 74.5,100.5 75.5,100.5C 75.5,101.5 75.5,102.5 75.5,103.5C 82.1667,103.5 88.8333,103.5 95.5,103.5C 95.5,113.167 95.5,122.833 95.5,132.5C 64.8333,132.5 34.1667,132.5 3.5,132.5C 3.5,133.5 3.5,134.5 3.5,135.5C 2.5,135.5 1.5,135.5 0.5,135.5C 0.5,136.5 0.5,137.5 0.5,138.5C 0.5,169.5 0.5,200.5 0.5,231.5C 1.5,231.5 2.5,231.5 3.5,231.5C 3.5,232.5 3.5,233.5 3.5,234.5C 17.5,234.5 31.5,234.5 45.5,234.5C 45.5,256.167 45.5,277.833 45.5,299.5C 30.1667,299.5 14.8333,299.5 -0.5,299.5C -0.5,199.5 -0.5,99.5 -0.5,-0.5 Z"/></g>
<g><path style="opacity:1" fill="#e9e9e9" d="M 75.5,26.5 C 124.998,25.335 174.665,25.1683 224.5,26C 225.973,26.7096 226.64,27.8762 226.5,29.5C 225.5,29.5 224.5,29.5 223.5,29.5C 223.5,28.5 223.5,27.5 223.5,26.5C 174.167,26.5 124.833,26.5 75.5,26.5 Z"/></g>
<g><path style="opacity:1" fill="#adadad" d="M 75.5,26.5 C 124.833,26.5 174.167,26.5 223.5,26.5C 223.5,27.5 223.5,28.5 223.5,29.5C 174.167,29.5 124.833,29.5 75.5,29.5C 75.5,28.5 75.5,27.5 75.5,26.5 Z"/></g>
<g><path style="opacity:1" fill="#5a5a5a" d="M 75.5,29.5 C 124.833,29.5 174.167,29.5 223.5,29.5C 223.5,30.5 223.5,31.5 223.5,32.5C 222.5,32.5 221.5,32.5 220.5,32.5C 219.791,31.596 218.791,31.2627 217.5,31.5C 217.5,32.8333 217.5,34.1667 217.5,35.5C 172.167,35.5 126.833,35.5 81.5,35.5C 81.5,34.1667 81.5,32.8333 81.5,31.5C 79.5,31.5 77.5,31.5 75.5,31.5C 75.5,30.8333 75.5,30.1667 75.5,29.5 Z"/></g>
<g><path style="opacity:1" fill="#c9c9c9" d="M 81.5,35.5 C 126.833,35.5 172.167,35.5 217.5,35.5C 217.5,36.5 217.5,37.5 217.5,38.5C 216.5,38.5 215.5,38.5 214.5,38.5C 170.167,38.5 125.833,38.5 81.5,38.5C 81.5,37.5 81.5,36.5 81.5,35.5 Z"/></g>
<g><path style="opacity:1" fill="#454545" d="M 220.5,32.5 C 221.5,32.5 222.5,32.5 223.5,32.5C 223.5,55.1667 223.5,77.8333 223.5,100.5C 222.5,100.5 221.5,100.5 220.5,100.5C 220.5,77.8333 220.5,55.1667 220.5,32.5 Z"/></g>
<g><path style="opacity:1" fill="#c1c1c1" d="M 223.5,29.5 C 224.5,29.5 225.5,29.5 226.5,29.5C 226.5,53.1667 226.5,76.8333 226.5,100.5C 225.5,100.5 224.5,100.5 223.5,100.5C 223.5,77.8333 223.5,55.1667 223.5,32.5C 223.5,31.5 223.5,30.5 223.5,29.5 Z"/></g>
<g><path style="opacity:1" fill="#151515" d="M 75.5,32.5 C 76.675,32.281 77.675,32.6143 78.5,33.5C 77.1735,53.9608 77.1735,74.2942 78.5,94.5C 78.5,95.5 78.5,96.5 78.5,97.5C 77.5,97.5 76.5,97.5 75.5,97.5C 75.5,75.8333 75.5,54.1667 75.5,32.5 Z"/></g>
<g><path style="opacity:1" fill="#a5a5a5" d="M 81.5,35.5 C 81.5,36.5 81.5,37.5 81.5,38.5C 81.5,57.1667 81.5,75.8333 81.5,94.5C 80.5,94.5 79.5,94.5 78.5,94.5C 78.5,74.8333 78.5,55.1667 78.5,35.5C 79.5,35.5 80.5,35.5 81.5,35.5 Z"/></g>
<g><path style="opacity:1" fill="#fdfdfd" d="M 81.5,38.5 C 125.833,38.5 170.167,38.5 214.5,38.5C 214.5,57.1667 214.5,75.8333 214.5,94.5C 210.833,94.5 207.167,94.5 203.5,94.5C 203.5,80.5 203.5,66.5 203.5,52.5C 202.5,52.5 201.5,52.5 200.5,52.5C 200.5,51.5 200.5,50.5 200.5,49.5C 166.5,49.5 132.5,49.5 98.5,49.5C 98.5391,51.3588 97.7058,52.6921 96,53.5C 95.5001,67.1626 95.3334,80.8293 95.5,94.5C 90.8333,94.5 86.1667,94.5 81.5,94.5C 81.5,75.8333 81.5,57.1667 81.5,38.5 Z"/></g>
<g><path style="opacity:1" fill="#e2e2e2" d="M 214.5,38.5 C 215.5,38.5 216.5,38.5 217.5,38.5C 217.5,57.1667 217.5,75.8333 217.5,94.5C 216.5,94.5 215.5,94.5 214.5,94.5C 214.5,75.8333 214.5,57.1667 214.5,38.5 Z"/></g>
<g><path style="opacity:1" fill="#393939" d="M 75.5,32.5 C 75.5,32.1667 75.5,31.8333 75.5,31.5C 77.5,31.5 79.5,31.5 81.5,31.5C 81.5,32.8333 81.5,34.1667 81.5,35.5C 80.5,35.5 79.5,35.5 78.5,35.5C 78.5,55.1667 78.5,74.8333 78.5,94.5C 77.1735,74.2942 77.1735,53.9608 78.5,33.5C 77.675,32.6143 76.675,32.281 75.5,32.5 Z"/></g>
<g><path style="opacity:1" fill="#818181" d="M 75.5,29.5 C 75.5,30.1667 75.5,30.8333 75.5,31.5C 75.5,31.8333 75.5,32.1667 75.5,32.5C 75.5,54.1667 75.5,75.8333 75.5,97.5C 75.5,98.5 75.5,99.5 75.5,100.5C 74.5,100.5 73.5,100.5 72.5,100.5C 72.5,76.8333 72.5,53.1667 72.5,29.5C 73.5,29.5 74.5,29.5 75.5,29.5 Z"/></g>
<g><path style="opacity:1" fill="#e3e3e3" d="M 203.5,94.5 C 202.5,94.5 201.5,94.5 200.5,94.5C 200.823,80.5877 200.49,66.7544 199.5,53C 166.167,52.3333 132.833,52.3333 99.5,53C 98.7476,53.6708 98.4142,54.5041 98.5,55.5C 96.5191,68.1237 95.8524,81.1237 96.5,94.5C 96.1667,94.5 95.8333,94.5 95.5,94.5C 95.3334,80.8293 95.5001,67.1626 96,53.5C 97.7058,52.6921 98.5391,51.3588 98.5,49.5C 132.5,49.5 166.5,49.5 200.5,49.5C 200.5,50.5 200.5,51.5 200.5,52.5C 201.5,52.5 202.5,52.5 203.5,52.5C 203.5,66.5 203.5,80.5 203.5,94.5 Z"/></g>
<g><path style="opacity:1" fill="#8f8f8f" d="M 200.5,94.5 C 200.167,94.5 199.833,94.5 199.5,94.5C 200.148,81.1237 199.481,68.1237 197.5,55.5C 181.848,54.1672 165.848,53.5005 149.5,53.5C 133.5,53.8333 117.5,54.1667 101.5,54.5C 100.757,55.1818 100.091,55.8485 99.5,56.5C 99.8287,69.3443 99.4954,82.011 98.5,94.5C 98.5,81.5 98.5,68.5 98.5,55.5C 98.4142,54.5041 98.7476,53.6708 99.5,53C 132.833,52.3333 166.167,52.3333 199.5,53C 200.49,66.7544 200.823,80.5877 200.5,94.5 Z"/></g>
<g><path style="opacity:1" fill="#464646" d="M 197.5,55.5 C 197.5,68.5 197.5,81.5 197.5,94.5C 196.505,82.011 196.171,69.3443 196.5,56.5C 194.219,56.0773 192.552,56.744 191.5,58.5C 163.328,58.1687 135.328,58.502 107.5,59.5C 106.167,59.5 105.5,60.1667 105.5,61.5C 105.167,61.5 104.833,61.5 104.5,61.5C 104.5,60.8333 104.5,60.1667 104.5,59.5C 105.234,58.2921 105.567,56.9587 105.5,55.5C 103.5,55.8333 101.5,56.1667 99.5,56.5C 100.091,55.8485 100.757,55.1818 101.5,54.5C 117.5,54.1667 133.5,53.8333 149.5,53.5C 165.848,53.5005 181.848,54.1672 197.5,55.5 Z"/></g>
<g><path style="opacity:1" fill="#242424" d="M 104.5,59.5 C 103.5,59.5 102.5,59.5 101.5,59.5C 101.5,86.8333 101.5,114.167 101.5,141.5C 99.8212,141.715 98.8212,141.048 98.5,139.5C 99.7813,127.36 99.7813,115.36 98.5,103.5C 98.5,102.5 98.5,101.5 98.5,100.5C 90.8333,100.5 83.1667,100.5 75.5,100.5C 75.5,99.5 75.5,98.5 75.5,97.5C 76.5,97.5 77.5,97.5 78.5,97.5C 78.5,96.5 78.5,95.5 78.5,94.5C 79.5,94.5 80.5,94.5 81.5,94.5C 81.5,95.5 81.5,96.5 81.5,97.5C 87.1667,97.5 92.8333,97.5 98.5,97.5C 98.5,96.5 98.5,95.5 98.5,94.5C 99.4954,82.011 99.8287,69.3443 99.5,56.5C 101.5,56.1667 103.5,55.8333 105.5,55.5C 105.567,56.9587 105.234,58.2921 104.5,59.5 Z"/></g>
<g><path style="opacity:1" fill="#c4c4c4" d="M 107.5,59.5 C 135.52,58.8418 163.187,59.5085 190.5,61.5C 162.167,61.5 133.833,61.5 105.5,61.5C 105.5,60.1667 106.167,59.5 107.5,59.5 Z"/></g>
<g><path style="opacity:1" fill="#353535" d="M 104.5,59.5 C 104.5,60.1667 104.5,60.8333 104.5,61.5C 104.5,61.8333 104.5,62.1667 104.5,62.5C 103.172,67.4558 102.505,72.7891 102.5,78.5C 102.505,84.2109 103.172,89.5442 104.5,94.5C 104.5,97.5 104.5,100.5 104.5,103.5C 102.521,115.12 101.854,127.12 102.5,139.5C 102.672,140.492 102.338,141.158 101.5,141.5C 101.5,114.167 101.5,86.8333 101.5,59.5C 102.5,59.5 103.5,59.5 104.5,59.5 Z"/></g>
<g><path style="opacity:1" fill="#fefefe" d="M 116.5,62.5 C 117.918,64.3079 119.918,64.9746 122.5,64.5C 122.5,65.5 122.5,66.5 122.5,67.5C 121.5,67.5 120.5,67.5 119.5,67.5C 119.5,68.5 119.5,69.5 119.5,70.5C 118.5,70.5 117.5,70.5 116.5,70.5C 116.5,72.5 116.5,74.5 116.5,76.5C 116.5,77.5 116.5,78.5 116.5,79.5C 116.5,80.5 116.5,81.5 116.5,82.5C 115.5,82.5 114.5,82.5 113.5,82.5C 113.5,88.5 113.5,94.5 113.5,100.5C 114.5,100.5 115.5,100.5 116.5,100.5C 116.5,101.5 116.5,102.5 116.5,103.5C 123.5,103.5 130.5,103.5 137.5,103.5C 137.5,106.5 137.5,109.5 137.5,112.5C 138.5,112.5 139.5,112.5 140.5,112.5C 141.5,112.5 142.5,112.5 143.5,112.5C 147.5,112.5 151.5,112.5 155.5,112.5C 156.5,112.5 157.5,112.5 158.5,112.5C 158.5,109.5 158.5,106.5 158.5,103.5C 159.5,103.5 160.5,103.5 161.5,103.5C 167.5,103.5 173.5,103.5 179.5,103.5C 181.5,103.5 183.5,103.5 185.5,103.5C 185.5,96.5 185.5,89.5 185.5,82.5C 184.5,82.5 183.5,82.5 182.5,82.5C 182.5,81.5 182.5,80.5 182.5,79.5C 182.5,78.8333 182.5,78.1667 182.5,77.5C 182.5,77.1667 182.5,76.8333 182.5,76.5C 182.5,74.5 182.5,72.5 182.5,70.5C 181.5,70.5 180.5,70.5 179.5,70.5C 178.5,70.5 177.5,70.5 176.5,70.5C 176.5,69.5 176.5,68.5 176.5,67.5C 176.5,66.5 176.5,65.5 176.5,64.5C 181.266,64.4024 185.933,63.7357 190.5,62.5C 190.192,90.1985 190.525,117.865 191.5,145.5C 192.5,145.5 193.5,145.5 194.5,145.5C 194.881,146.931 195.881,147.764 197.5,148C 226.938,148.457 256.271,148.623 285.5,148.5C 285.5,172.833 285.5,197.167 285.5,221.5C 273.833,221.5 262.167,221.5 250.5,221.5C 250.5,211.833 250.5,202.167 250.5,192.5C 249.5,192.5 248.5,192.5 247.5,192.5C 245.5,192.5 243.5,192.5 241.5,192.5C 241.5,228.167 241.5,263.833 241.5,299.5C 180.167,299.5 118.833,299.5 57.5,299.5C 57.5,263.833 57.5,228.167 57.5,192.5C 56.5,192.5 55.5,192.5 54.5,192.5C 52.5,192.5 50.5,192.5 48.5,192.5C 48.5,193.5 48.5,194.5 48.5,195.5C 47.5,195.5 46.5,195.5 45.5,195.5C 45.5,204.167 45.5,212.833 45.5,221.5C 34.8333,221.5 24.1667,221.5 13.5,221.5C 13.5,197.167 13.5,172.833 13.5,148.5C 42.0712,148.424 70.5712,148.424 99,148.5C 101.275,148.722 102.441,147.722 102.5,145.5C 103.5,145.5 104.5,145.5 105.5,145.5C 105.5,144.5 105.5,143.5 105.5,142.5C 105.5,141.167 105.5,139.833 105.5,138.5C 107.491,113.522 108.157,88.1887 107.5,62.5C 110.5,62.5 113.5,62.5 116.5,62.5 Z"/></g>
<g><path style="opacity:1" fill="#484848" d="M 104.5,62.5 C 104.5,73.1667 104.5,83.8333 104.5,94.5C 103.172,89.5442 102.505,84.2109 102.5,78.5C 102.505,72.7891 103.172,67.4558 104.5,62.5 Z"/></g>
<g><path style="opacity:1" fill="#9e9e9e" d="M 107.5,59.5 C 135.328,58.502 163.328,58.1687 191.5,58.5C 193.478,85.2736 194.144,112.274 193.5,139.5C 191.836,113.683 190.836,87.6827 190.5,61.5C 163.187,59.5085 135.52,58.8418 107.5,59.5 Z"/></g>
<g><path style="opacity:1" fill="#363636" d="M 220.5,32.5 C 220.5,55.1667 220.5,77.8333 220.5,100.5C 213.5,100.5 206.5,100.5 199.5,100.5C 199.5,101.5 199.5,102.5 199.5,103.5C 198.833,103.5 198.167,103.5 197.5,103.5C 196.505,114.321 196.172,125.321 196.5,136.5C 197.5,136.5 198.5,136.5 199.5,136.5C 199.5,138.167 199.5,139.833 199.5,141.5C 197.989,140.498 196.322,139.831 194.5,139.5C 194.5,112.5 194.5,85.5 194.5,58.5C 193.5,58.5 192.5,58.5 191.5,58.5C 192.552,56.744 194.219,56.0773 196.5,56.5C 196.171,69.3443 196.505,82.011 197.5,94.5C 198.167,94.5 198.833,94.5 199.5,94.5C 199.5,95.5 199.5,96.5 199.5,97.5C 205.5,97.5 211.5,97.5 217.5,97.5C 217.5,96.5 217.5,95.5 217.5,94.5C 217.5,75.8333 217.5,57.1667 217.5,38.5C 217.5,37.5 217.5,36.5 217.5,35.5C 217.5,34.1667 217.5,32.8333 217.5,31.5C 218.791,31.2627 219.791,31.596 220.5,32.5 Z"/></g>
<g><path style="opacity:1" fill="#696969" d="M 197.5,55.5 C 199.481,68.1237 200.148,81.1237 199.5,94.5C 198.833,94.5 198.167,94.5 197.5,94.5C 197.5,81.5 197.5,68.5 197.5,55.5 Z"/></g>
<g><path style="opacity:1" fill="#c6c6c6" d="M 98.5,55.5 C 98.5,68.5 98.5,81.5 98.5,94.5C 97.8333,94.5 97.1667,94.5 96.5,94.5C 95.8524,81.1237 96.5191,68.1237 98.5,55.5 Z"/></g>
<g><path style="opacity:1" fill="#e7e7e7" d="M 105.5,61.5 C 133.833,61.5 162.167,61.5 190.5,61.5C 190.836,87.6827 191.836,113.683 193.5,139.5C 193.5,140.5 193.5,141.5 193.5,142.5C 193.557,143.609 193.89,144.609 194.5,145.5C 193.5,145.5 192.5,145.5 191.5,145.5C 190.525,117.865 190.192,90.1985 190.5,62.5C 185.933,63.7357 181.266,64.4024 176.5,64.5C 176.5,65.5 176.5,66.5 176.5,67.5C 171.5,67.5 166.5,67.5 161.5,67.5C 161.5,68.5 161.5,69.5 161.5,70.5C 162.5,70.5 163.5,70.5 164.5,70.5C 164.5,71.5 164.5,72.5 164.5,73.5C 165.5,73.5 166.5,73.5 167.5,73.5C 167.5,74.5 167.5,75.5 167.5,76.5C 169.5,76.5 171.5,76.5 173.5,76.5C 175.5,76.5 177.5,76.5 179.5,76.5C 180.5,76.5 181.5,76.5 182.5,76.5C 182.5,76.8333 182.5,77.1667 182.5,77.5C 175.774,77.7951 169.108,77.4617 162.5,76.5C 161.451,73.8549 160.117,71.3549 158.5,69C 159.707,67.6998 160.374,66.1998 160.5,64.5C 145.93,62.6762 131.264,62.0095 116.5,62.5C 113.5,62.5 110.5,62.5 107.5,62.5C 108.157,88.1887 107.491,113.522 105.5,138.5C 105.5,112.833 105.5,87.1667 105.5,61.5 Z"/></g>
<g><path style="opacity:1" fill="#8e8e8e" d="M 167.5,73.5 C 169.5,73.5 171.5,73.5 173.5,73.5C 173.5,74.5 173.5,75.5 173.5,76.5C 171.5,76.5 169.5,76.5 167.5,76.5C 167.5,75.5 167.5,74.5 167.5,73.5 Z"/></g>
<g><path style="opacity:1" fill="#818181" d="M 131.5,73.5 C 128.983,75.6727 125.983,76.6727 122.5,76.5C 122.5,75.5 122.5,74.5 122.5,73.5C 125.5,73.5 128.5,73.5 131.5,73.5 Z"/></g>
<g><path style="opacity:1" fill="#878787" d="M 179.5,70.5 C 180.5,70.5 181.5,70.5 182.5,70.5C 182.5,72.5 182.5,74.5 182.5,76.5C 181.5,76.5 180.5,76.5 179.5,76.5C 179.5,74.5 179.5,72.5 179.5,70.5 Z"/></g>
<g><path style="opacity:1" fill="#7d7d7d" d="M 119.5,70.5 C 119.5,72.5 119.5,74.5 119.5,76.5C 118.5,76.5 117.5,76.5 116.5,76.5C 116.5,74.5 116.5,72.5 116.5,70.5C 117.5,70.5 118.5,70.5 119.5,70.5 Z"/></g>
<g><path style="opacity:1" fill="#686868" d="M 134.5,70.5 C 134.5,71.5 134.5,72.5 134.5,73.5C 133.5,73.5 132.5,73.5 131.5,73.5C 131.5,72.5 131.5,71.5 131.5,70.5C 132.5,70.5 133.5,70.5 134.5,70.5 Z"/></g>
<g><path style="opacity:1" fill="#343434" d="M 134.5,70.5 C 133.5,70.5 132.5,70.5 131.5,70.5C 131.5,71.5 131.5,72.5 131.5,73.5C 128.5,73.5 125.5,73.5 122.5,73.5C 122.5,74.5 122.5,75.5 122.5,76.5C 121.5,76.5 120.5,76.5 119.5,76.5C 119.5,74.5 119.5,72.5 119.5,70.5C 120.5,70.5 121.5,70.5 122.5,70.5C 125.621,70.4618 128.621,69.7952 131.5,68.5C 133.03,68.6399 134.03,69.3065 134.5,70.5 Z"/></g>
<g><path style="opacity:1" fill="#414141" d="M 176.5,70.5 C 177.5,70.5 178.5,70.5 179.5,70.5C 179.5,72.5 179.5,74.5 179.5,76.5C 177.5,76.5 175.5,76.5 173.5,76.5C 173.5,75.5 173.5,74.5 173.5,73.5C 171.5,73.5 169.5,73.5 167.5,73.5C 166.5,73.5 165.5,73.5 164.5,73.5C 164.5,72.5 164.5,71.5 164.5,70.5C 164.97,69.3065 165.97,68.6399 167.5,68.5C 170.379,69.7952 173.379,70.4618 176.5,70.5 Z"/></g>
<g><path style="opacity:1" fill="#717171" d="M 125.5,67.5 C 129.5,67.5 133.5,67.5 137.5,67.5C 137.5,68.5 137.5,69.5 137.5,70.5C 136.5,70.5 135.5,70.5 134.5,70.5C 134.03,69.3065 133.03,68.6399 131.5,68.5C 128.621,69.7952 125.621,70.4618 122.5,70.5C 123.1,69.1001 124.1,68.1001 125.5,67.5 Z"/></g>
<g><path style="opacity:1" fill="#b7b7b7" d="M 122.5,67.5 C 123.5,67.5 124.5,67.5 125.5,67.5C 124.1,68.1001 123.1,69.1001 122.5,70.5C 121.5,70.5 120.5,70.5 119.5,70.5C 119.5,69.5 119.5,68.5 119.5,67.5C 120.5,67.5 121.5,67.5 122.5,67.5 Z"/></g>
<g><path style="opacity:1" fill="#7e7e7e" d="M 176.5,67.5 C 176.5,68.5 176.5,69.5 176.5,70.5C 173.379,70.4618 170.379,69.7952 167.5,68.5C 165.97,68.6399 164.97,69.3065 164.5,70.5C 163.5,70.5 162.5,70.5 161.5,70.5C 161.5,69.5 161.5,68.5 161.5,67.5C 166.5,67.5 171.5,67.5 176.5,67.5 Z"/></g>
<g><path style="opacity:1" fill="#f7f7f7" d="M 116.5,62.5 C 131.264,62.0095 145.93,62.6762 160.5,64.5C 160.374,66.1998 159.707,67.6998 158.5,69C 160.117,71.3549 161.451,73.8549 162.5,76.5C 169.108,77.4617 175.774,77.7951 182.5,77.5C 182.5,78.1667 182.5,78.8333 182.5,79.5C 174.5,79.5 166.5,79.5 158.5,79.5C 158.5,80.5 158.5,81.5 158.5,82.5C 157.5,82.5 156.5,82.5 155.5,82.5C 155.5,88.5 155.5,94.5 155.5,100.5C 154.5,100.5 153.5,100.5 152.5,100.5C 152.5,101.5 152.5,102.5 152.5,103.5C 150.5,103.5 148.5,103.5 146.5,103.5C 146.5,102.5 146.5,101.5 146.5,100.5C 144.833,100.5 143.167,100.5 141.5,100.5C 141.823,94.31 141.49,88.31 140.5,82.5C 140.5,81.5 140.5,80.5 140.5,79.5C 132.5,79.5 124.5,79.5 116.5,79.5C 116.5,78.5 116.5,77.5 116.5,76.5C 117.5,76.5 118.5,76.5 119.5,76.5C 120.5,76.5 121.5,76.5 122.5,76.5C 125.983,76.6727 128.983,75.6727 131.5,73.5C 132.5,73.5 133.5,73.5 134.5,73.5C 134.5,72.5 134.5,71.5 134.5,70.5C 135.5,70.5 136.5,70.5 137.5,70.5C 137.5,69.5 137.5,68.5 137.5,67.5C 133.5,67.5 129.5,67.5 125.5,67.5C 124.5,67.5 123.5,67.5 122.5,67.5C 122.5,66.5 122.5,65.5 122.5,64.5C 119.918,64.9746 117.918,64.3079 116.5,62.5 Z"/></g>
<g><path style="opacity:1" fill="#afafaf" d="M 116.5,79.5 C 124.5,79.5 132.5,79.5 140.5,79.5C 140.5,80.5 140.5,81.5 140.5,82.5C 139.5,82.5 138.5,82.5 137.5,82.5C 134.913,81.1836 131.913,80.517 128.5,80.5C 125.087,80.517 122.087,81.1836 119.5,82.5C 118.5,82.5 117.5,82.5 116.5,82.5C 116.5,81.5 116.5,80.5 116.5,79.5 Z"/></g>
<g><path style="opacity:1" fill="#b2b2b2" d="M 182.5,79.5 C 182.5,80.5 182.5,81.5 182.5,82.5C 182.167,82.5 181.833,82.5 181.5,82.5C 180.833,82.5 180.167,82.5 179.5,82.5C 176.913,81.1836 173.913,80.517 170.5,80.5C 167.087,80.517 164.087,81.1836 161.5,82.5C 160.5,82.5 159.5,82.5 158.5,82.5C 158.5,81.5 158.5,80.5 158.5,79.5C 166.5,79.5 174.5,79.5 182.5,79.5 Z"/></g>
<g><path style="opacity:1" fill="#8c8c8c" d="M 137.5,82.5 C 131.5,82.5 125.5,82.5 119.5,82.5C 122.087,81.1836 125.087,80.517 128.5,80.5C 131.913,80.517 134.913,81.1836 137.5,82.5 Z"/></g>
<g><path style="opacity:1" fill="#8e8e8e" d="M 179.5,82.5 C 173.5,82.5 167.5,82.5 161.5,82.5C 164.087,81.1836 167.087,80.517 170.5,80.5C 173.913,80.517 176.913,81.1836 179.5,82.5 Z"/></g>
<g><path style="opacity:1" fill="#171717" d="M 119.5,82.5 C 125.5,82.5 131.5,82.5 137.5,82.5C 137.5,84.5 137.5,86.5 137.5,88.5C 136.5,88.5 135.5,88.5 134.5,88.5C 134.5,87.5 134.5,86.5 134.5,85.5C 130.5,85.5 126.5,85.5 122.5,85.5C 122.5,86.5 122.5,87.5 122.5,88.5C 121.5,88.5 120.5,88.5 119.5,88.5C 119.5,87.5 119.5,86.5 119.5,85.5C 119.5,84.5 119.5,83.5 119.5,82.5 Z"/></g>
<g><path style="opacity:1" fill="#c9c9c9" d="M 116.5,82.5 C 116.5,88.5 116.5,94.5 116.5,100.5C 115.5,100.5 114.5,100.5 113.5,100.5C 113.5,94.5 113.5,88.5 113.5,82.5C 114.5,82.5 115.5,82.5 116.5,82.5 Z"/></g>
<g><path style="opacity:1" fill="#666666" d="M 116.5,82.5 C 117.5,82.5 118.5,82.5 119.5,82.5C 119.5,83.5 119.5,84.5 119.5,85.5C 118.206,87.0478 117.539,89.0478 117.5,91.5C 117.539,93.9522 118.206,95.9522 119.5,97.5C 119.5,98.5 119.5,99.5 119.5,100.5C 118.5,100.5 117.5,100.5 116.5,100.5C 116.5,94.5 116.5,88.5 116.5,82.5 Z"/></g>
<g><path style="opacity:1" fill="#515151" d="M 137.5,82.5 C 138.5,82.5 139.5,82.5 140.5,82.5C 140.5,88.5 140.5,94.5 140.5,100.5C 139.5,100.5 138.5,100.5 137.5,100.5C 137.5,98.5 137.5,96.5 137.5,94.5C 136.5,94.5 135.5,94.5 134.5,94.5C 134.5,92.5 134.5,90.5 134.5,88.5C 135.5,88.5 136.5,88.5 137.5,88.5C 137.5,86.5 137.5,84.5 137.5,82.5 Z"/></g>
<g><path style="opacity:1" fill="#7b7b7b" d="M 134.5,88.5 C 134.5,90.5 134.5,92.5 134.5,94.5C 133.5,94.5 132.5,94.5 131.5,94.5C 131.5,93.5 131.5,92.5 131.5,91.5C 129.5,91.5 127.5,91.5 125.5,91.5C 125.5,92.5 125.5,93.5 125.5,94.5C 124.5,94.5 123.5,94.5 122.5,94.5C 122.5,92.5 122.5,90.5 122.5,88.5C 122.5,87.5 122.5,86.5 122.5,85.5C 126.5,85.5 130.5,85.5 134.5,85.5C 134.5,86.5 134.5,87.5 134.5,88.5 Z"/></g>
<g><path style="opacity:1" fill="#777777" d="M 173.5,85.5 C 173.5,87.5 173.5,89.5 173.5,91.5C 171.5,91.5 169.5,91.5 167.5,91.5C 167.5,92.5 167.5,93.5 167.5,94.5C 166.5,94.5 165.5,94.5 164.5,94.5C 164.5,91.5 164.5,88.5 164.5,85.5C 167.5,85.5 170.5,85.5 173.5,85.5 Z"/></g>
<g><path style="opacity:1" fill="#3c3c3c" d="M 119.5,85.5 C 119.5,86.5 119.5,87.5 119.5,88.5C 120.5,88.5 121.5,88.5 122.5,88.5C 122.5,90.5 122.5,92.5 122.5,94.5C 121.5,94.5 120.5,94.5 119.5,94.5C 119.5,95.5 119.5,96.5 119.5,97.5C 118.206,95.9522 117.539,93.9522 117.5,91.5C 117.539,89.0478 118.206,87.0478 119.5,85.5 Z"/></g>
<g><path style="opacity:1" fill="#575757" d="M 158.5,82.5 C 159.5,82.5 160.5,82.5 161.5,82.5C 161.5,88.5 161.5,94.5 161.5,100.5C 160.5,100.5 159.5,100.5 158.5,100.5C 158.5,94.5 158.5,88.5 158.5,82.5 Z"/></g>
<g><path style="opacity:1" fill="#7e7e7e" d="M 181.5,82.5 C 181.833,82.5 182.167,82.5 182.5,82.5C 182.5,88.5 182.5,94.5 182.5,100.5C 181.5,100.5 180.5,100.5 179.5,100.5C 179.5,99.5 179.5,98.5 179.5,97.5C 181.442,92.9443 182.108,87.9443 181.5,82.5 Z"/></g>
<g><path style="opacity:1" fill="#595959" d="M 179.5,82.5 C 180.167,82.5 180.833,82.5 181.5,82.5C 182.108,87.9443 181.442,92.9443 179.5,97.5C 179.5,96.5 179.5,95.5 179.5,94.5C 177.5,94.5 175.5,94.5 173.5,94.5C 173.5,95.5 173.5,96.5 173.5,97.5C 170.5,97.5 167.5,97.5 164.5,97.5C 164.5,96.5 164.5,95.5 164.5,94.5C 165.5,94.5 166.5,94.5 167.5,94.5C 167.5,93.5 167.5,92.5 167.5,91.5C 169.5,91.5 171.5,91.5 173.5,91.5C 173.5,89.5 173.5,87.5 173.5,85.5C 174.5,85.5 175.5,85.5 176.5,85.5C 176.5,86.5 176.5,87.5 176.5,88.5C 177.5,88.5 178.5,88.5 179.5,88.5C 179.5,86.5 179.5,84.5 179.5,82.5 Z"/></g>
<g><path style="opacity:1" fill="#4e4e4e" d="M 134.5,94.5 C 134.5,95.5 134.5,96.5 134.5,97.5C 130.5,97.5 126.5,97.5 122.5,97.5C 122.5,96.5 122.5,95.5 122.5,94.5C 123.5,94.5 124.5,94.5 125.5,94.5C 125.5,93.5 125.5,92.5 125.5,91.5C 127.5,91.5 129.5,91.5 131.5,91.5C 131.5,92.5 131.5,93.5 131.5,94.5C 132.5,94.5 133.5,94.5 134.5,94.5 Z"/></g>
<g><path style="opacity:1" fill="#717171" d="M 81.5,94.5 C 86.1667,94.5 90.8333,94.5 95.5,94.5C 95.8333,94.5 96.1667,94.5 96.5,94.5C 97.1667,94.5 97.8333,94.5 98.5,94.5C 98.5,95.5 98.5,96.5 98.5,97.5C 92.8333,97.5 87.1667,97.5 81.5,97.5C 81.5,96.5 81.5,95.5 81.5,94.5 Z"/></g>
<g><path style="opacity:1" fill="#6d6d6d" d="M 199.5,94.5 C 199.833,94.5 200.167,94.5 200.5,94.5C 201.5,94.5 202.5,94.5 203.5,94.5C 207.167,94.5 210.833,94.5 214.5,94.5C 215.5,94.5 216.5,94.5 217.5,94.5C 217.5,95.5 217.5,96.5 217.5,97.5C 211.5,97.5 205.5,97.5 199.5,97.5C 199.5,96.5 199.5,95.5 199.5,94.5 Z"/></g>
<g><path style="opacity:1" fill="#232323" d="M 122.5,94.5 C 122.5,95.5 122.5,96.5 122.5,97.5C 126.5,97.5 130.5,97.5 134.5,97.5C 134.5,96.5 134.5,95.5 134.5,94.5C 135.5,94.5 136.5,94.5 137.5,94.5C 137.5,96.5 137.5,98.5 137.5,100.5C 131.5,100.5 125.5,100.5 119.5,100.5C 119.5,99.5 119.5,98.5 119.5,97.5C 119.5,96.5 119.5,95.5 119.5,94.5C 120.5,94.5 121.5,94.5 122.5,94.5 Z"/></g>
<g><path style="opacity:1" fill="#c6c6c6" d="M 158.5,82.5 C 158.5,88.5 158.5,94.5 158.5,100.5C 159.5,100.5 160.5,100.5 161.5,100.5C 161.5,101.5 161.5,102.5 161.5,103.5C 160.5,103.5 159.5,103.5 158.5,103.5C 156.5,103.5 154.5,103.5 152.5,103.5C 152.5,102.5 152.5,101.5 152.5,100.5C 153.5,100.5 154.5,100.5 155.5,100.5C 155.5,94.5 155.5,88.5 155.5,82.5C 156.5,82.5 157.5,82.5 158.5,82.5 Z"/></g>
<g><path style="opacity:1" fill="#252525" d="M 161.5,82.5 C 167.5,82.5 173.5,82.5 179.5,82.5C 179.5,84.5 179.5,86.5 179.5,88.5C 178.5,88.5 177.5,88.5 176.5,88.5C 176.5,87.5 176.5,86.5 176.5,85.5C 175.5,85.5 174.5,85.5 173.5,85.5C 170.5,85.5 167.5,85.5 164.5,85.5C 164.5,88.5 164.5,91.5 164.5,94.5C 164.5,95.5 164.5,96.5 164.5,97.5C 167.5,97.5 170.5,97.5 173.5,97.5C 173.5,96.5 173.5,95.5 173.5,94.5C 175.5,94.5 177.5,94.5 179.5,94.5C 179.5,95.5 179.5,96.5 179.5,97.5C 179.5,98.5 179.5,99.5 179.5,100.5C 173.5,100.5 167.5,100.5 161.5,100.5C 161.5,94.5 161.5,88.5 161.5,82.5 Z"/></g>
<g><path style="opacity:1" fill="#9d9d9d" d="M 75.5,100.5 C 83.1667,100.5 90.8333,100.5 98.5,100.5C 98.5,101.5 98.5,102.5 98.5,103.5C 97.8333,103.5 97.1667,103.5 96.5,103.5C 96.1667,103.5 95.8333,103.5 95.5,103.5C 88.8333,103.5 82.1667,103.5 75.5,103.5C 75.5,102.5 75.5,101.5 75.5,100.5 Z"/></g>
<g><path style="opacity:1" fill="#a4a4a4" d="M 116.5,100.5 C 117.5,100.5 118.5,100.5 119.5,100.5C 125.5,100.5 131.5,100.5 137.5,100.5C 137.5,101.5 137.5,102.5 137.5,103.5C 130.5,103.5 123.5,103.5 116.5,103.5C 116.5,102.5 116.5,101.5 116.5,100.5 Z"/></g>
<g><path style="opacity:1" fill="#a3a3a3" d="M 161.5,100.5 C 167.5,100.5 173.5,100.5 179.5,100.5C 179.5,101.5 179.5,102.5 179.5,103.5C 173.5,103.5 167.5,103.5 161.5,103.5C 161.5,102.5 161.5,101.5 161.5,100.5 Z"/></g>
<g><path style="opacity:1" fill="#dcdcdc" d="M 182.5,82.5 C 183.5,82.5 184.5,82.5 185.5,82.5C 185.5,89.5 185.5,96.5 185.5,103.5C 183.5,103.5 181.5,103.5 179.5,103.5C 179.5,102.5 179.5,101.5 179.5,100.5C 180.5,100.5 181.5,100.5 182.5,100.5C 182.5,94.5 182.5,88.5 182.5,82.5 Z"/></g>
<g><path style="opacity:1" fill="#484848" d="M 104.5,103.5 C 105.146,115.88 104.479,127.88 102.5,139.5C 101.854,127.12 102.521,115.12 104.5,103.5 Z"/></g>
<g><path style="opacity:1" fill="#dbdbdb" d="M 140.5,82.5 C 141.49,88.31 141.823,94.31 141.5,100.5C 143.167,100.5 144.833,100.5 146.5,100.5C 146.5,101.5 146.5,102.5 146.5,103.5C 145.5,103.5 144.5,103.5 143.5,103.5C 142.5,103.5 141.5,103.5 140.5,103.5C 140.5,106.5 140.5,109.5 140.5,112.5C 139.5,112.5 138.5,112.5 137.5,112.5C 137.5,109.5 137.5,106.5 137.5,103.5C 137.5,102.5 137.5,101.5 137.5,100.5C 138.5,100.5 139.5,100.5 140.5,100.5C 140.5,94.5 140.5,88.5 140.5,82.5 Z"/></g>
<g><path style="opacity:1" fill="#7b7b7b" d="M 143.5,103.5 C 143.5,105.5 143.5,107.5 143.5,109.5C 143.5,110.5 143.5,111.5 143.5,112.5C 142.5,112.5 141.5,112.5 140.5,112.5C 140.5,109.5 140.5,106.5 140.5,103.5C 141.5,103.5 142.5,103.5 143.5,103.5 Z"/></g>
<g><path style="opacity:1" fill="#1f1f1f" d="M 143.5,103.5 C 144.5,103.5 145.5,103.5 146.5,103.5C 146.5,104.5 146.5,105.5 146.5,106.5C 149.5,106.5 152.5,106.5 155.5,106.5C 155.5,107.5 155.5,108.5 155.5,109.5C 151.5,109.5 147.5,109.5 143.5,109.5C 143.5,107.5 143.5,105.5 143.5,103.5 Z"/></g>
<g><path style="opacity:1" fill="#797979" d="M 146.5,103.5 C 148.5,103.5 150.5,103.5 152.5,103.5C 154.5,103.5 156.5,103.5 158.5,103.5C 158.5,106.5 158.5,109.5 158.5,112.5C 157.5,112.5 156.5,112.5 155.5,112.5C 155.5,111.5 155.5,110.5 155.5,109.5C 155.5,108.5 155.5,107.5 155.5,106.5C 152.5,106.5 149.5,106.5 146.5,106.5C 146.5,105.5 146.5,104.5 146.5,103.5 Z"/></g>
<g><path style="opacity:1" fill="#4a4a4a" d="M 197.5,103.5 C 196.859,113.889 197.526,123.889 199.5,133.5C 199.5,134.5 199.5,135.5 199.5,136.5C 198.5,136.5 197.5,136.5 196.5,136.5C 196.172,125.321 196.505,114.321 197.5,103.5 Z"/></g>
<g><path style="opacity:1" fill="#9c9c9c" d="M 220.5,100.5 C 221.5,100.5 222.5,100.5 223.5,100.5C 223.5,101.5 223.5,102.5 223.5,103.5C 216.833,103.5 210.167,103.5 203.5,103.5C 203.167,103.5 202.833,103.5 202.5,103.5C 200.526,113.111 199.859,123.111 200.5,133.5C 200.782,134.778 201.449,135.778 202.5,136.5C 201.833,136.5 201.167,136.5 200.5,136.5C 200.167,136.5 199.833,136.5 199.5,136.5C 199.5,135.5 199.5,134.5 199.5,133.5C 199.5,123.5 199.5,113.5 199.5,103.5C 199.5,102.5 199.5,101.5 199.5,100.5C 206.5,100.5 213.5,100.5 220.5,100.5 Z"/></g>
<g><path style="opacity:1" fill="#d6d6d6" d="M 202.5,103.5 C 202.5,113.5 202.5,123.5 202.5,133.5C 201.833,133.5 201.167,133.5 200.5,133.5C 199.859,123.111 200.526,113.111 202.5,103.5 Z"/></g>
<g><path style="opacity:1" fill="#686868" d="M 197.5,103.5 C 198.167,103.5 198.833,103.5 199.5,103.5C 199.5,113.5 199.5,123.5 199.5,133.5C 197.526,123.889 196.859,113.889 197.5,103.5 Z"/></g>
<g><path style="opacity:1" fill="#535353" d="M 143.5,109.5 C 147.5,109.5 151.5,109.5 155.5,109.5C 155.5,110.5 155.5,111.5 155.5,112.5C 151.5,112.5 147.5,112.5 143.5,112.5C 143.5,111.5 143.5,110.5 143.5,109.5 Z"/></g>
<g><path style="opacity:1" fill="#a3a3a3" d="M 158.5,121.5 C 159.1,122.9 160.1,123.9 161.5,124.5C 159.5,124.5 157.5,124.5 155.5,124.5C 149.5,124.5 143.5,124.5 137.5,124.5C 138.398,123.842 139.398,123.176 140.5,122.5C 146.463,121.504 152.463,121.171 158.5,121.5 Z"/></g>
<g><path style="opacity:1" fill="#646464" d="M 155.5,124.5 C 157.5,124.5 159.5,124.5 161.5,124.5C 162.5,124.5 163.5,124.5 164.5,124.5C 164.5,125.5 164.5,126.5 164.5,127.5C 161.5,127.5 158.5,127.5 155.5,127.5C 155.5,128.5 155.5,129.5 155.5,130.5C 151.5,130.5 147.5,130.5 143.5,130.5C 142.5,130.5 141.5,130.5 140.5,130.5C 142.265,129.539 144.265,129.205 146.5,129.5C 146.5,128.5 146.5,127.5 146.5,126.5C 150.012,127.055 153.012,126.388 155.5,124.5 Z"/></g>
<g><path style="opacity:1" fill="#464646" d="M 164.5,127.5 C 164.5,128.5 164.5,129.5 164.5,130.5C 162.5,130.5 160.5,130.5 158.5,130.5C 157.5,130.5 156.5,130.5 155.5,130.5C 155.5,129.5 155.5,128.5 155.5,127.5C 158.5,127.5 161.5,127.5 164.5,127.5 Z"/></g>
<g><path style="opacity:1" fill="#4f4f4f" d="M 137.5,124.5 C 143.5,124.5 149.5,124.5 155.5,124.5C 153.012,126.388 150.012,127.055 146.5,126.5C 146.5,127.5 146.5,128.5 146.5,129.5C 144.265,129.205 142.265,129.539 140.5,130.5C 139.5,130.5 138.5,130.5 137.5,130.5C 137.5,131.5 137.5,132.5 137.5,133.5C 136.5,133.5 135.5,133.5 134.5,133.5C 132.857,133.48 131.524,134.147 130.5,135.5C 130.167,134.667 129.833,133.833 129.5,133C 130.378,131.2 131.045,129.367 131.5,127.5C 132.5,127.5 133.5,127.5 134.5,127.5C 134.5,126.5 134.5,125.5 134.5,124.5C 135.5,124.5 136.5,124.5 137.5,124.5 Z"/></g>
<g><path style="opacity:1" fill="#bbbbbb" d="M 140.5,130.5 C 141.5,130.5 142.5,130.5 143.5,130.5C 143.5,131.5 143.5,132.5 143.5,133.5C 141.5,133.5 139.5,133.5 137.5,133.5C 137.5,132.5 137.5,131.5 137.5,130.5C 138.5,130.5 139.5,130.5 140.5,130.5 Z"/></g>
<g><path style="opacity:1" fill="#656565" d="M 164.5,127.5 C 165.5,127.5 166.5,127.5 167.5,127.5C 168.167,129.5 168.833,131.5 169.5,133.5C 167.833,133.5 166.167,133.5 164.5,133.5C 161.784,133.614 159.784,132.614 158.5,130.5C 160.5,130.5 162.5,130.5 164.5,130.5C 164.5,129.5 164.5,128.5 164.5,127.5 Z"/></g>
<g><path style="opacity:1" fill="#ededed" d="M 95.5,103.5 C 95.8333,103.5 96.1667,103.5 96.5,103.5C 96.5,113.5 96.5,123.5 96.5,133.5C 65.8333,133.5 35.1667,133.5 4.5,133.5C 4.5,134.5 4.5,135.5 4.5,136.5C 3.53261,137.806 2.19928,138.473 0.5,138.5C 0.5,137.5 0.5,136.5 0.5,135.5C 1.5,135.5 2.5,135.5 3.5,135.5C 3.5,134.5 3.5,133.5 3.5,132.5C 34.1667,132.5 64.8333,132.5 95.5,132.5C 95.5,122.833 95.5,113.167 95.5,103.5 Z"/></g>
<g><path style="opacity:1" fill="#eeeeee" d="M 202.5,103.5 C 202.833,103.5 203.167,103.5 203.5,103.5C 203.5,113.167 203.5,122.833 203.5,132.5C 234.005,132.169 264.338,132.502 294.5,133.5C 264.167,133.5 233.833,133.5 203.5,133.5C 203.167,133.5 202.833,133.5 202.5,133.5C 202.5,123.5 202.5,113.5 202.5,103.5 Z"/></g>
<g><path style="opacity:1" fill="#cdcdcd" d="M 96.5,103.5 C 97.1667,103.5 97.8333,103.5 98.5,103.5C 98.5,114.167 98.5,124.833 98.5,135.5C 97.209,135.263 96.209,135.596 95.5,136.5C 65.1667,136.5 34.8333,136.5 4.5,136.5C 4.5,135.5 4.5,134.5 4.5,133.5C 35.1667,133.5 65.8333,133.5 96.5,133.5C 96.5,123.5 96.5,113.5 96.5,103.5 Z"/></g>
<g><path style="opacity:1" fill="#929292" d="M 131.5,127.5 C 131.045,129.367 130.378,131.2 129.5,133C 129.833,133.833 130.167,134.667 130.5,135.5C 131.524,134.147 132.857,133.48 134.5,133.5C 134.5,134.5 134.5,135.5 134.5,136.5C 132.5,136.5 130.5,136.5 128.5,136.5C 128.5,133.5 128.5,130.5 128.5,127.5C 129.5,127.5 130.5,127.5 131.5,127.5 Z"/></g>
<g><path style="opacity:1" fill="#989898" d="M 167.5,127.5 C 168.5,127.5 169.5,127.5 170.5,127.5C 170.5,130.5 170.5,133.5 170.5,136.5C 168.5,136.5 166.5,136.5 164.5,136.5C 164.5,135.5 164.5,134.5 164.5,133.5C 166.167,133.5 167.833,133.5 169.5,133.5C 168.833,131.5 168.167,129.5 167.5,127.5 Z"/></g>
<g><path style="opacity:1" fill="#b4b4b4" d="M 200.5,133.5 C 201.167,133.5 201.833,133.5 202.5,133.5C 202.833,133.5 203.167,133.5 203.5,133.5C 232.986,135.164 262.653,136.164 292.5,136.5C 262.833,136.5 233.167,136.5 203.5,136.5C 203.167,136.5 202.833,136.5 202.5,136.5C 201.449,135.778 200.782,134.778 200.5,133.5 Z"/></g>
<g><path style="opacity:1" fill="#7a7a7a" d="M 4.5,136.5 C 34.8333,136.5 65.1667,136.5 95.5,136.5C 66.0141,138.164 36.3474,139.164 6.5,139.5C 5.83333,139.5 5.16667,139.5 4.5,139.5C 4.5,138.5 4.5,137.5 4.5,136.5 Z"/></g>
<g><path style="opacity:1" fill="#7a7a7a" d="M 203.5,136.5 C 233.167,136.5 262.833,136.5 292.5,136.5C 294.048,136.821 294.715,137.821 294.5,139.5C 293.833,139.5 293.167,139.5 292.5,139.5C 262.653,139.164 232.986,138.164 203.5,136.5 Z"/></g>
<g><path style="opacity:1" fill="#666666" d="M 98.5,103.5 C 99.7813,115.36 99.7813,127.36 98.5,139.5C 67.8333,139.5 37.1667,139.5 6.5,139.5C 36.3474,139.164 66.0141,138.164 95.5,136.5C 96.209,135.596 97.209,135.263 98.5,135.5C 98.5,124.833 98.5,114.167 98.5,103.5 Z"/></g>
<g><path style="opacity:1" fill="#e6e6e6" d="M 158.5,121.5 C 163.837,122.225 168.671,124.225 173,127.5C 173.499,131.486 173.666,135.486 173.5,139.5C 167.266,140.317 161.599,138.984 156.5,135.5C 155.548,133.955 155.215,132.288 155.5,130.5C 156.5,130.5 157.5,130.5 158.5,130.5C 159.784,132.614 161.784,133.614 164.5,133.5C 164.5,134.5 164.5,135.5 164.5,136.5C 166.5,136.5 168.5,136.5 170.5,136.5C 170.5,133.5 170.5,130.5 170.5,127.5C 169.5,127.5 168.5,127.5 167.5,127.5C 166.5,127.5 165.5,127.5 164.5,127.5C 164.5,126.5 164.5,125.5 164.5,124.5C 163.5,124.5 162.5,124.5 161.5,124.5C 160.1,123.9 159.1,122.9 158.5,121.5 Z"/></g>
<g><path style="opacity:1" fill="#626262" d="M 200.5,136.5 C 201.167,136.5 201.833,136.5 202.5,136.5C 202.833,136.5 203.167,136.5 203.5,136.5C 232.986,138.164 262.653,139.164 292.5,139.5C 261.833,139.5 231.167,139.5 200.5,139.5C 200.5,138.5 200.5,137.5 200.5,136.5 Z"/></g>
<g><path style="opacity:1" fill="#474747" d="M 6.5,139.5 C 37.1667,139.5 67.8333,139.5 98.5,139.5C 98.8212,141.048 99.8212,141.715 101.5,141.5C 71.3306,142.167 40.9973,142.833 10.5,143.5C 10.1373,144.183 9.80393,144.85 9.5,145.5C 8.5,145.5 7.5,145.5 6.5,145.5C 6.5,143.5 6.5,141.5 6.5,139.5 Z"/></g>
<g><path style="opacity:1" fill="#404040" d="M 199.5,136.5 C 199.833,136.5 200.167,136.5 200.5,136.5C 200.5,137.5 200.5,138.5 200.5,139.5C 231.167,139.5 261.833,139.5 292.5,139.5C 293.167,139.5 293.833,139.5 294.5,139.5C 295.159,169.519 294.492,199.185 292.5,228.5C 278.127,227.851 264.127,228.518 250.5,230.5C 250.5,230.833 250.5,231.167 250.5,231.5C 249.5,231.5 248.5,231.5 247.5,231.5C 247.5,229.5 247.5,227.5 247.5,225.5C 261.5,225.5 275.5,225.5 289.5,225.5C 289.667,198.498 289.5,171.498 289,144.5C 288.583,143.244 287.75,142.577 286.5,142.5C 257.671,141.502 228.671,141.169 199.5,141.5C 199.5,139.833 199.5,138.167 199.5,136.5 Z"/></g>
<g><path style="opacity:1" fill="#646464" d="M 191.5,58.5 C 192.5,58.5 193.5,58.5 194.5,58.5C 194.5,85.5 194.5,112.5 194.5,139.5C 196.322,139.831 197.989,140.498 199.5,141.5C 228.671,141.169 257.671,141.502 286.5,142.5C 256.5,142.5 226.5,142.5 196.5,142.5C 195.5,142.5 194.5,142.5 193.5,142.5C 193.5,141.5 193.5,140.5 193.5,139.5C 194.144,112.274 193.478,85.2736 191.5,58.5 Z"/></g>
<g><path style="opacity:0.749" fill="#cecece" d="M 4.5,136.5 C 4.5,137.5 4.5,138.5 4.5,139.5C 4.16667,139.5 3.83333,139.5 3.5,139.5C 2.1673,153.818 1.50063,168.484 1.5,183.5C 1.50063,198.516 2.1673,213.182 3.5,227.5C 3.5,228.833 3.5,230.167 3.5,231.5C 2.5,231.5 1.5,231.5 0.5,231.5C 0.5,200.5 0.5,169.5 0.5,138.5C 2.19928,138.473 3.53261,137.806 4.5,136.5 Z"/></g>
<g><path style="opacity:1" fill="#b7b7b7" d="M 3.5,139.5 C 3.5,168.833 3.5,198.167 3.5,227.5C 2.1673,213.182 1.50063,198.516 1.5,183.5C 1.50063,168.484 2.1673,153.818 3.5,139.5 Z"/></g>
<g><path style="opacity:1" fill="#989898" d="M 104.5,61.5 C 104.833,61.5 105.167,61.5 105.5,61.5C 105.5,87.1667 105.5,112.833 105.5,138.5C 105.5,139.833 105.5,141.167 105.5,142.5C 74.4468,144.123 43.4468,145.123 12.5,145.5C 11.1675,157.815 10.5009,170.482 10.5,183.5C 10.5009,196.518 11.1675,209.185 12.5,221.5C 12.5,222.167 12.8333,222.5 13.5,222.5C 18.4558,223.828 23.7891,224.495 29.5,224.5C 35.2109,224.495 40.5442,223.828 45.5,222.5C 46.5,222.5 47.5,222.5 48.5,222.5C 48.5,223.5 48.5,224.5 48.5,225.5C 35.5,225.5 22.5,225.5 9.5,225.5C 9.5,224.5 9.5,223.5 9.5,222.5C 9.5,196.833 9.5,171.167 9.5,145.5C 9.80393,144.85 10.1373,144.183 10.5,143.5C 40.9973,142.833 71.3306,142.167 101.5,141.5C 102.338,141.158 102.672,140.492 102.5,139.5C 104.479,127.88 105.146,115.88 104.5,103.5C 104.5,100.5 104.5,97.5 104.5,94.5C 104.5,83.8333 104.5,73.1667 104.5,62.5C 104.5,62.1667 104.5,61.8333 104.5,61.5 Z"/></g>
<g><path style="opacity:1" fill="#979797" d="M 196.5,142.5 C 226.5,142.5 256.5,142.5 286.5,142.5C 287.75,142.577 288.583,143.244 289,144.5C 289.5,171.498 289.667,198.498 289.5,225.5C 275.5,225.5 261.5,225.5 247.5,225.5C 247.5,224.5 247.5,223.5 247.5,222.5C 248.5,222.5 249.5,222.5 250.5,222.5C 255.96,223.829 261.793,224.496 268,224.5C 274.207,224.496 280.04,223.829 285.5,222.5C 285.833,222.5 286.167,222.5 286.5,222.5C 287.833,210.018 288.499,197.185 288.5,184C 288.499,170.815 287.833,157.982 286.5,145.5C 256.319,145.164 226.319,144.164 196.5,142.5 Z"/></g>
<g><path style="opacity:1" fill="#898989" d="M 294.5,139.5 C 295.498,169.995 295.831,200.662 295.5,231.5C 295.167,231.5 294.833,231.5 294.5,231.5C 279.833,231.5 265.167,231.5 250.5,231.5C 250.5,231.167 250.5,230.833 250.5,230.5C 264.873,231.149 278.873,230.482 292.5,228.5C 294.492,199.185 295.159,169.519 294.5,139.5 Z"/></g>
<g><path style="opacity:0.624" fill="#d8d8d8" d="M 203.5,133.5 C 233.833,133.5 264.167,133.5 294.5,133.5C 295.451,134.919 295.784,136.585 295.5,138.5C 296.5,138.5 297.5,138.5 298.5,138.5C 298.5,169.5 298.5,200.5 298.5,231.5C 297.5,231.5 296.5,231.5 295.5,231.5C 295.831,200.662 295.498,169.995 294.5,139.5C 294.715,137.821 294.048,136.821 292.5,136.5C 262.653,136.164 232.986,135.164 203.5,133.5 Z"/></g>
<g><path style="opacity:1" fill="#c8c8c8" d="M 105.5,142.5 C 105.5,143.5 105.5,144.5 105.5,145.5C 104.5,145.5 103.5,145.5 102.5,145.5C 72.5,145.5 42.5,145.5 12.5,145.5C 43.4468,145.123 74.4468,144.123 105.5,142.5 Z"/></g>
<g><path style="opacity:1" fill="#c6c6c6" d="M 193.5,142.5 C 194.5,142.5 195.5,142.5 196.5,142.5C 226.319,144.164 256.319,145.164 286.5,145.5C 255.833,145.5 225.167,145.5 194.5,145.5C 193.89,144.609 193.557,143.609 193.5,142.5 Z"/></g>
<g><path style="opacity:1" fill="#f0f0f0" d="M 12.5,145.5 C 42.5,145.5 72.5,145.5 102.5,145.5C 102.441,147.722 101.275,148.722 99,148.5C 70.5712,148.424 42.0712,148.424 13.5,148.5C 13.5,172.833 13.5,197.167 13.5,221.5C 24.1667,221.5 34.8333,221.5 45.5,221.5C 45.5,212.833 45.5,204.167 45.5,195.5C 46.5,195.5 47.5,195.5 48.5,195.5C 48.5,204.5 48.5,213.5 48.5,222.5C 47.5,222.5 46.5,222.5 45.5,222.5C 34.8333,222.5 24.1667,222.5 13.5,222.5C 12.8333,222.5 12.5,222.167 12.5,221.5C 12.5,196.167 12.5,170.833 12.5,145.5 Z"/></g>
<g><path style="opacity:1" fill="#f2f2f2" d="M 194.5,145.5 C 225.167,145.5 255.833,145.5 286.5,145.5C 286.5,171.167 286.5,196.833 286.5,222.5C 286.167,222.5 285.833,222.5 285.5,222.5C 273.833,222.5 262.167,222.5 250.5,222.5C 250.5,222.167 250.5,221.833 250.5,221.5C 262.167,221.5 273.833,221.5 285.5,221.5C 285.5,197.167 285.5,172.833 285.5,148.5C 256.271,148.623 226.938,148.457 197.5,148C 195.881,147.764 194.881,146.931 194.5,145.5 Z"/></g>
<g><path style="opacity:1" fill="#525252" d="M 4.5,139.5 C 5.16667,139.5 5.83333,139.5 6.5,139.5C 6.5,141.5 6.5,143.5 6.5,145.5C 7.5,145.5 8.5,145.5 9.5,145.5C 9.5,171.167 9.5,196.833 9.5,222.5C 8.5,222.5 7.5,222.5 6.5,222.5C 6.5,224.5 6.5,226.5 6.5,228.5C 4.50787,199.185 3.84121,169.519 4.5,139.5 Z"/></g>
<g><path style="opacity:1" fill="#cccccc" d="M 12.5,145.5 C 12.5,170.833 12.5,196.167 12.5,221.5C 11.1675,209.185 10.5009,196.518 10.5,183.5C 10.5009,170.482 11.1675,157.815 12.5,145.5 Z"/></g>
<g><path style="opacity:1" fill="#cfcfcf" d="M 286.5,145.5 C 287.833,157.982 288.499,170.815 288.5,184C 288.499,197.185 287.833,210.018 286.5,222.5C 286.5,196.833 286.5,171.167 286.5,145.5 Z"/></g>
<g><path style="opacity:1" fill="#858585" d="M 3.5,139.5 C 3.83333,139.5 4.16667,139.5 4.5,139.5C 3.84121,169.519 4.50787,199.185 6.5,228.5C 19.1237,230.481 32.1237,231.148 45.5,230.5C 46.5,230.5 47.5,230.5 48.5,230.5C 48.5,230.833 48.5,231.167 48.5,231.5C 33.5,231.5 18.5,231.5 3.5,231.5C 3.5,230.167 3.5,228.833 3.5,227.5C 3.5,198.167 3.5,168.833 3.5,139.5 Z"/></g>
<g><path style="opacity:1" fill="#8e8e8e" d="M 54.5,192.5 C 54.5,193.5 54.5,194.5 54.5,195.5C 52.5,195.5 50.5,195.5 48.5,195.5C 48.5,194.5 48.5,193.5 48.5,192.5C 50.5,192.5 52.5,192.5 54.5,192.5 Z"/></g>
<g><path style="opacity:1" fill="#a9a9a9" d="M 247.5,192.5 C 248.5,192.5 249.5,192.5 250.5,192.5C 250.5,202.167 250.5,211.833 250.5,221.5C 250.5,221.833 250.5,222.167 250.5,222.5C 249.5,222.5 248.5,222.5 247.5,222.5C 247.5,213.5 247.5,204.5 247.5,195.5C 247.5,194.5 247.5,193.5 247.5,192.5 Z"/></g>
<g><path style="opacity:1" fill="#aaaaaa" d="M 13.5,222.5 C 24.1667,222.5 34.8333,222.5 45.5,222.5C 40.5442,223.828 35.2109,224.495 29.5,224.5C 23.7891,224.495 18.4558,223.828 13.5,222.5 Z"/></g>
<g><path style="opacity:1" fill="#a9a9a9" d="M 250.5,222.5 C 262.167,222.5 273.833,222.5 285.5,222.5C 280.04,223.829 274.207,224.496 268,224.5C 261.793,224.496 255.96,223.829 250.5,222.5 Z"/></g>
<g><path style="opacity:1" fill="#414141" d="M 9.5,222.5 C 9.5,223.5 9.5,224.5 9.5,225.5C 22.5,225.5 35.5,225.5 48.5,225.5C 48.5,227.167 48.5,228.833 48.5,230.5C 47.5,230.5 46.5,230.5 45.5,230.5C 32.8763,228.519 19.8763,227.852 6.5,228.5C 6.5,226.5 6.5,224.5 6.5,222.5C 7.5,222.5 8.5,222.5 9.5,222.5 Z"/></g>
<g><path style="opacity:1" fill="#111111" d="M 48.5,225.5 C 49.5,225.5 50.5,225.5 51.5,225.5C 51.5,227.5 51.5,229.5 51.5,231.5C 50.5,231.5 49.5,231.5 48.5,231.5C 48.5,231.167 48.5,230.833 48.5,230.5C 48.5,228.833 48.5,227.167 48.5,225.5 Z"/></g>
<g><path style="opacity:1" fill="#535353" d="M 6.5,228.5 C 19.8763,227.852 32.8763,228.519 45.5,230.5C 32.1237,231.148 19.1237,230.481 6.5,228.5 Z"/></g>
<g><path style="opacity:1" fill="#525252" d="M 292.5,228.5 C 278.873,230.482 264.873,231.149 250.5,230.5C 264.127,228.518 278.127,227.851 292.5,228.5 Z"/></g>
<g><path style="opacity:1" fill="#e4e4e4" d="M 250.5,231.5 C 265.167,231.5 279.833,231.5 294.5,231.5C 294.423,232.75 293.756,233.583 292.5,234C 278.504,234.5 264.504,234.667 250.5,234.5C 250.5,233.5 250.5,232.5 250.5,231.5 Z"/></g>
<g><path style="opacity:1" fill="#e5e5e5" d="M 3.5,231.5 C 18.5,231.5 33.5,231.5 48.5,231.5C 48.5,254.167 48.5,276.833 48.5,299.5C 47.5,299.5 46.5,299.5 45.5,299.5C 45.5,277.833 45.5,256.167 45.5,234.5C 31.5,234.5 17.5,234.5 3.5,234.5C 3.5,233.5 3.5,232.5 3.5,231.5 Z"/></g>
<g><path style="opacity:1" fill="#464646" d="M 48.5,195.5 C 50.5,195.5 52.5,195.5 54.5,195.5C 54.5,230.167 54.5,264.833 54.5,299.5C 52.5,299.5 50.5,299.5 48.5,299.5C 48.5,276.833 48.5,254.167 48.5,231.5C 49.5,231.5 50.5,231.5 51.5,231.5C 51.5,229.5 51.5,227.5 51.5,225.5C 50.5,225.5 49.5,225.5 48.5,225.5C 48.5,224.5 48.5,223.5 48.5,222.5C 48.5,213.5 48.5,204.5 48.5,195.5 Z"/></g>
<g><path style="opacity:1" fill="#808080" d="M 247.5,192.5 C 247.5,193.5 247.5,194.5 247.5,195.5C 246.5,195.5 245.5,195.5 244.5,195.5C 244.5,230.167 244.5,264.833 244.5,299.5C 243.5,299.5 242.5,299.5 241.5,299.5C 241.5,263.833 241.5,228.167 241.5,192.5C 243.5,192.5 245.5,192.5 247.5,192.5 Z"/></g>
<g><path style="opacity:1" fill="#a8a8a8" d="M 247.5,231.5 C 248.5,231.5 249.5,231.5 250.5,231.5C 250.5,232.5 250.5,233.5 250.5,234.5C 250.5,256.167 250.5,277.833 250.5,299.5C 249.5,299.5 248.5,299.5 247.5,299.5C 247.5,276.833 247.5,254.167 247.5,231.5 Z"/></g>
<g><path style="opacity:1" fill="#b7b7b7" d="M 54.5,192.5 C 55.5,192.5 56.5,192.5 57.5,192.5C 57.5,228.167 57.5,263.833 57.5,299.5C 56.5,299.5 55.5,299.5 54.5,299.5C 54.5,264.833 54.5,230.167 54.5,195.5C 54.5,194.5 54.5,193.5 54.5,192.5 Z"/></g>
<g><path style="opacity:1" fill="#121212" d="M 247.5,195.5 C 247.5,204.5 247.5,213.5 247.5,222.5C 247.5,223.5 247.5,224.5 247.5,225.5C 247.5,227.5 247.5,229.5 247.5,231.5C 247.5,254.167 247.5,276.833 247.5,299.5C 246.5,299.5 245.5,299.5 244.5,299.5C 244.5,264.833 244.5,230.167 244.5,195.5C 245.5,195.5 246.5,195.5 247.5,195.5 Z"/></g>
</svg>
