<?xml version="1.0" encoding="UTF-8"?>
<!DOCTYPE svg PUBLIC "-//W3C//DTD SVG 1.1//EN" "http://www.w3.org/Graphics/SVG/1.1/DTD/svg11.dtd">
<svg xmlns="http://www.w3.org/2000/svg" version="1.1" width="300px" height="300px" style="shape-rendering:geometricPrecision; text-rendering:geometricPrecision; image-rendering:optimizeQuality; fill-rule:evenodd; clip-rule:evenodd" xmlns:xlink="http://www.w3.org/1999/xlink">
<g><path style="opacity:0.987" fill="#fefefe" d="M -0.5,-0.5 C 99.5,-0.5 199.5,-0.5 299.5,-0.5C 299.5,99.5 299.5,199.5 299.5,299.5C 283.5,299.5 267.5,299.5 251.5,299.5C 251.169,277.66 251.503,255.994 252.5,234.5C 267.167,234.5 281.833,234.5 296.5,234.5C 296.5,233.5 296.5,232.5 296.5,231.5C 296.5,201.833 296.5,172.167 296.5,142.5C 296.5,140.5 296.5,138.5 296.5,136.5C 295.5,136.5 294.5,136.5 293.5,136.5C 293.5,136.167 293.5,135.833 293.5,135.5C 263.185,133.508 232.518,132.841 201.5,133.5C 201.5,123.5 201.5,113.5 201.5,103.5C 208.5,103.5 215.5,103.5 222.5,103.5C 222.5,102.5 222.5,101.5 222.5,100.5C 223.5,100.5 224.5,100.5 225.5,100.5C 225.5,76.8333 225.5,53.1667 225.5,29.5C 224.5,29.5 223.5,29.5 222.5,29.5C 222.5,28.5 222.5,27.5 222.5,26.5C 173.003,25.5011 123.336,25.1678 73.5,25.5C 73.5,26.8333 73.5,28.1667 73.5,29.5C 72.5,29.5 71.5,29.5 70.5,29.5C 70.5,53.1667 70.5,76.8333 70.5,100.5C 71.5,100.5 72.5,100.5 73.5,100.5C 73.5,101.5 73.5,102.5 73.5,103.5C 81.5,103.5 89.5,103.5 97.5,103.5C 97.5,113.5 97.5,123.5 97.5,133.5C 66.8333,133.5 36.1667,133.5 5.5,133.5C 5.5,134.5 5.5,135.5 5.5,136.5C 4.5,136.5 3.5,136.5 2.5,136.5C 2.5,137.5 2.5,138.5 2.5,139.5C 1.5,139.5 0.5,139.5 -0.5,139.5C -0.5,92.8333 -0.5,46.1667 -0.5,-0.5 Z"/></g>
<g><path style="opacity:1" fill="#e8e8e8" d="M 222.5,26.5 C 173.833,26.5 125.167,26.5 76.5,26.5C 76.5,27.5 76.5,28.5 76.5,29.5C 75.5,29.5 74.5,29.5 73.5,29.5C 73.5,28.1667 73.5,26.8333 73.5,25.5C 123.336,25.1678 173.003,25.5011 222.5,26.5 Z"/></g>
<g><path style="opacity:1" fill="#adadad" d="M 222.5,26.5 C 222.5,27.5 222.5,28.5 222.5,29.5C 173.833,29.5 125.167,29.5 76.5,29.5C 76.5,28.5 76.5,27.5 76.5,26.5C 125.167,26.5 173.833,26.5 222.5,26.5 Z"/></g>
<g><path style="opacity:1" fill="#535353" d="M 76.5,29.5 C 125.167,29.5 173.833,29.5 222.5,29.5C 222.5,30.5 222.5,31.5 222.5,32.5C 222.167,32.5 221.833,32.5 221.5,32.5C 219.952,32.8212 219.285,33.8212 219.5,35.5C 218.5,35.5 217.5,35.5 216.5,35.5C 171.003,34.5012 125.336,34.1679 79.5,34.5C 79.1788,32.9519 78.1788,32.2852 76.5,32.5C 76.5,31.5 76.5,30.5 76.5,29.5 Z"/></g>
<g><path style="opacity:1" fill="#e5e5e5" d="M 73.5,29.5 C 73.5,53.1667 73.5,76.8333 73.5,100.5C 72.5,100.5 71.5,100.5 70.5,100.5C 70.5,76.8333 70.5,53.1667 70.5,29.5C 71.5,29.5 72.5,29.5 73.5,29.5 Z"/></g>
<g><path style="opacity:1" fill="#7d7d7d" d="M 79.5,34.5 C 125.336,34.1679 171.003,34.5012 216.5,35.5C 171.833,35.5 127.167,35.5 82.5,35.5C 82.5,36.5 82.5,37.5 82.5,38.5C 81.8333,38.5 81.1667,38.5 80.5,38.5C 80.1667,38.5 79.8333,38.5 79.5,38.5C 79.5,37.1667 79.5,35.8333 79.5,34.5 Z"/></g>
<g><path style="opacity:1" fill="#cacaca" d="M 216.5,35.5 C 216.5,36.5 216.5,37.5 216.5,38.5C 171.833,38.5 127.167,38.5 82.5,38.5C 82.5,37.5 82.5,36.5 82.5,35.5C 127.167,35.5 171.833,35.5 216.5,35.5 Z"/></g>
<g><path style="opacity:1" fill="#1f1f1f" d="M 76.5,32.5 C 78.1788,32.2852 79.1788,32.9519 79.5,34.5C 79.5,35.8333 79.5,37.1667 79.5,38.5C 79.5,57.1667 79.5,75.8333 79.5,94.5C 79.5,95.5 79.5,96.5 79.5,97.5C 85.5,97.5 91.5,97.5 97.5,97.5C 97.5,98.5 97.5,99.5 97.5,100.5C 90.5,100.5 83.5,100.5 76.5,100.5C 76.5,99.5 76.5,98.5 76.5,97.5C 76.5,75.8333 76.5,54.1667 76.5,32.5 Z"/></g>
<g><path style="opacity:1" fill="#fdfdfd" d="M 82.5,38.5 C 127.167,38.5 171.833,38.5 216.5,38.5C 216.5,56.1667 216.5,73.8333 216.5,91.5C 216.5,92.5 216.5,93.5 216.5,94.5C 211.5,94.5 206.5,94.5 201.5,94.5C 201.5,80.8333 201.5,67.1667 201.5,53.5C 201.5,52.5 201.5,51.5 201.5,50.5C 167.694,49.1842 134.027,49.1842 100.5,50.5C 100.5,51.5 100.5,52.5 100.5,53.5C 99.5,53.5 98.5,53.5 97.5,53.5C 97.5,67.1667 97.5,80.8333 97.5,94.5C 92.5,94.5 87.5,94.5 82.5,94.5C 82.5,93.5 82.5,92.5 82.5,91.5C 82.5,73.8333 82.5,56.1667 82.5,38.5 Z"/></g>
<g><path style="opacity:1" fill="#151515" d="M 221.5,32.5 C 221.833,54.1769 221.5,75.8436 220.5,97.5C 219.614,96.675 219.281,95.675 219.5,94.5C 219.5,74.8333 219.5,55.1667 219.5,35.5C 219.285,33.8212 219.952,32.8212 221.5,32.5 Z"/></g>
<g><path style="opacity:1" fill="#666666" d="M 73.5,29.5 C 74.5,29.5 75.5,29.5 76.5,29.5C 76.5,30.5 76.5,31.5 76.5,32.5C 75.1678,42.9788 74.5012,53.8121 74.5,65C 74.5012,76.1879 75.1678,87.0212 76.5,97.5C 76.5,98.5 76.5,99.5 76.5,100.5C 75.5,100.5 74.5,100.5 73.5,100.5C 73.5,76.8333 73.5,53.1667 73.5,29.5 Z"/></g>
<g><path style="opacity:1" fill="#a3a3a3" d="M 79.5,38.5 C 79.8333,38.5 80.1667,38.5 80.5,38.5C 79.847,56.5316 80.5137,74.1983 82.5,91.5C 82.5,92.5 82.5,93.5 82.5,94.5C 81.5,94.5 80.5,94.5 79.5,94.5C 79.5,75.8333 79.5,57.1667 79.5,38.5 Z"/></g>
<g><path style="opacity:1" fill="#cecece" d="M 80.5,38.5 C 81.1667,38.5 81.8333,38.5 82.5,38.5C 82.5,56.1667 82.5,73.8333 82.5,91.5C 80.5137,74.1983 79.847,56.5316 80.5,38.5 Z"/></g>
<g><path style="opacity:1" fill="#a0a0a0" d="M 216.5,38.5 C 217.832,46.9738 218.498,55.8071 218.5,65C 218.498,74.1929 217.832,83.0262 216.5,91.5C 216.5,73.8333 216.5,56.1667 216.5,38.5 Z"/></g>
<g><path style="opacity:1" fill="#7b7b7b" d="M 216.5,35.5 C 217.5,35.5 218.5,35.5 219.5,35.5C 219.5,55.1667 219.5,74.8333 219.5,94.5C 218.5,94.5 217.5,94.5 216.5,94.5C 216.5,93.5 216.5,92.5 216.5,91.5C 217.832,83.0262 218.498,74.1929 218.5,65C 218.498,55.8071 217.832,46.9738 216.5,38.5C 216.5,37.5 216.5,36.5 216.5,35.5 Z"/></g>
<g><path style="opacity:1" fill="#767676" d="M 222.5,32.5 C 223.832,42.9788 224.499,53.8121 224.5,65C 224.499,76.1879 223.832,87.0212 222.5,97.5C 222.5,75.8333 222.5,54.1667 222.5,32.5 Z"/></g>
<g><path style="opacity:1" fill="#383838" d="M 76.5,32.5 C 76.5,54.1667 76.5,75.8333 76.5,97.5C 75.1678,87.0212 74.5012,76.1879 74.5,65C 74.5012,53.8121 75.1678,42.9788 76.5,32.5 Z"/></g>
<g><path style="opacity:1" fill="#989898" d="M 222.5,29.5 C 223.5,29.5 224.5,29.5 225.5,29.5C 225.5,53.1667 225.5,76.8333 225.5,100.5C 224.5,100.5 223.5,100.5 222.5,100.5C 222.5,99.5 222.5,98.5 222.5,97.5C 223.832,87.0212 224.499,76.1879 224.5,65C 224.499,53.8121 223.832,42.9788 222.5,32.5C 222.5,31.5 222.5,30.5 222.5,29.5 Z"/></g>
<g><path style="opacity:1" fill="#ececec" d="M 100.5,50.5 C 134.027,49.1842 167.694,49.1842 201.5,50.5C 201.5,51.5 201.5,52.5 201.5,53.5C 200.5,53.5 199.5,53.5 198.5,53.5C 197.602,52.8423 196.602,52.1757 195.5,51.5C 163.84,50.5001 132.174,50.1668 100.5,50.5 Z"/></g>
<g><path style="opacity:1" fill="#c7c7c7" d="M 100.5,50.5 C 132.174,50.1668 163.84,50.5001 195.5,51.5C 196.602,52.1757 197.602,52.8423 198.5,53.5C 165.833,53.5 133.167,53.5 100.5,53.5C 100.5,52.5 100.5,51.5 100.5,50.5 Z"/></g>
<g><path style="opacity:1" fill="#464646" d="M 100.5,53.5 C 133.167,53.5 165.833,53.5 198.5,53.5C 198.5,54.1667 198.5,54.8333 198.5,55.5C 196.5,55.5 194.5,55.5 192.5,55.5C 192.5,56.5 192.5,57.5 192.5,58.5C 163.833,58.5 135.167,58.5 106.5,58.5C 106.5,57.5 106.5,56.5 106.5,55.5C 104.5,55.5 102.5,55.5 100.5,55.5C 100.5,54.8333 100.5,54.1667 100.5,53.5 Z"/></g>
<g><path style="opacity:1" fill="#959595" d="M 106.5,59.5 C 106.5,59.1667 106.5,58.8333 106.5,58.5C 135.167,58.5 163.833,58.5 192.5,58.5C 192.5,58.8333 192.5,59.1667 192.5,59.5C 192.5,60.1667 192.5,60.8333 192.5,61.5C 191.5,61.5 190.5,61.5 189.5,61.5C 162.187,59.5085 134.52,58.8418 106.5,59.5 Z"/></g>
<g><path style="opacity:1" fill="#adadad" d="M 198.5,53.5 C 199.5,53.5 200.5,53.5 201.5,53.5C 201.5,67.1667 201.5,80.8333 201.5,94.5C 200.5,94.5 199.5,94.5 198.5,94.5C 198.5,81.5 198.5,68.5 198.5,55.5C 198.5,54.8333 198.5,54.1667 198.5,53.5 Z"/></g>
<g><path style="opacity:1" fill="#959595" d="M 100.5,53.5 C 100.5,54.1667 100.5,54.8333 100.5,55.5C 100.5,68.5 100.5,81.5 100.5,94.5C 99.5,94.5 98.5,94.5 97.5,94.5C 97.5,80.8333 97.5,67.1667 97.5,53.5C 98.5,53.5 99.5,53.5 100.5,53.5 Z"/></g>
<g><path style="opacity:1" fill="#c4c4c4" d="M 106.5,59.5 C 134.52,58.8418 162.187,59.5085 189.5,61.5C 161.833,61.5 134.167,61.5 106.5,61.5C 106.5,60.8333 106.5,60.1667 106.5,59.5 Z"/></g>
<g><path style="opacity:1" fill="#fefefe" d="M 106.5,62.5 C 134.167,62.5 161.833,62.5 189.5,62.5C 189.5,89.1667 189.5,115.833 189.5,142.5C 190.5,142.5 191.5,142.5 192.5,142.5C 192.5,143.5 192.5,144.5 192.5,145.5C 223.167,145.5 253.833,145.5 284.5,145.5C 284.5,170.833 284.5,196.167 284.5,221.5C 273.833,221.5 263.167,221.5 252.5,221.5C 252.5,211.833 252.5,202.167 252.5,192.5C 251.5,192.5 250.5,192.5 249.5,192.5C 247.5,192.5 245.5,192.5 243.5,192.5C 242.5,192.5 241.5,192.5 240.5,192.5C 240.5,228.167 240.5,263.833 240.5,299.5C 179.833,299.5 119.167,299.5 58.5,299.5C 58.5,263.833 58.5,228.167 58.5,192.5C 57.5,192.5 56.5,192.5 55.5,192.5C 53.5,192.5 51.5,192.5 49.5,192.5C 48.5,192.5 47.5,192.5 46.5,192.5C 46.5,202.167 46.5,211.833 46.5,221.5C 35.4476,222.143 24.7809,221.476 14.5,219.5C 14.5,195.833 14.5,172.167 14.5,148.5C 44.3434,148.36 74.0101,148.36 103.5,148.5C 103.5,147.5 103.5,146.5 103.5,145.5C 104.5,145.5 105.5,145.5 106.5,145.5C 106.5,144.5 106.5,143.5 106.5,142.5C 106.5,115.833 106.5,89.1667 106.5,62.5 Z"/></g>
<g><path style="opacity:1" fill="#6a6a6a" d="M 192.5,59.5 C 193.5,59.5 194.5,59.5 195.5,59.5C 195.5,71.1667 195.5,82.8333 195.5,94.5C 195.5,109.5 195.5,124.5 195.5,139.5C 225.815,141.492 256.482,142.159 287.5,141.5C 287.5,141.833 287.5,142.167 287.5,142.5C 256.833,142.5 226.167,142.5 195.5,142.5C 194.5,142.5 193.5,142.5 192.5,142.5C 192.5,115.5 192.5,88.5 192.5,61.5C 192.5,60.8333 192.5,60.1667 192.5,59.5 Z"/></g>
<g><path style="opacity:1" fill="#313131" d="M 198.5,55.5 C 198.5,68.5 198.5,81.5 198.5,94.5C 197.5,94.5 196.5,94.5 195.5,94.5C 195.5,82.8333 195.5,71.1667 195.5,59.5C 194.5,59.5 193.5,59.5 192.5,59.5C 192.5,59.1667 192.5,58.8333 192.5,58.5C 192.5,57.5 192.5,56.5 192.5,55.5C 194.5,55.5 196.5,55.5 198.5,55.5 Z"/></g>
<g><path style="opacity:1" fill="#eaeaea" d="M 106.5,62.5 C 106.5,62.1667 106.5,61.8333 106.5,61.5C 134.167,61.5 161.833,61.5 189.5,61.5C 190.5,61.5 191.5,61.5 192.5,61.5C 192.5,88.5 192.5,115.5 192.5,142.5C 191.5,142.5 190.5,142.5 189.5,142.5C 189.5,115.833 189.5,89.1667 189.5,62.5C 161.833,62.5 134.167,62.5 106.5,62.5 Z"/></g>
<g><path style="opacity:1" fill="#dcdcdc" d="M 136.5,70.5 C 130.5,70.5 124.5,70.5 118.5,70.5C 118.5,69.5 118.5,68.5 118.5,67.5C 124.176,67.3339 129.843,67.5006 135.5,68C 136.252,68.6708 136.586,69.5041 136.5,70.5 Z"/></g>
<g><path style="opacity:1" fill="#dddddd" d="M 180.5,70.5 C 174.5,70.5 168.5,70.5 162.5,70.5C 162.5,69.5 162.5,68.5 162.5,67.5C 168.5,67.5 174.5,67.5 180.5,67.5C 180.5,68.5 180.5,69.5 180.5,70.5 Z"/></g>
<g><path style="opacity:1" fill="#aeaeae" d="M 118.5,70.5 C 118.5,70.8333 118.5,71.1667 118.5,71.5C 118.5,73.1667 118.5,74.8333 118.5,76.5C 117.5,76.5 116.5,76.5 115.5,76.5C 115.5,74.5 115.5,72.5 115.5,70.5C 116.5,70.5 117.5,70.5 118.5,70.5 Z"/></g>
<g><path style="opacity:1" fill="#5f5f5f" d="M 162.5,70.5 C 168.5,70.5 174.5,70.5 180.5,70.5C 180.5,72.5 180.5,74.5 180.5,76.5C 179.5,76.5 178.5,76.5 177.5,76.5C 177.5,74.8333 177.5,73.1667 177.5,71.5C 173.5,71.5 169.5,71.5 165.5,71.5C 165.5,73.1667 165.5,74.8333 165.5,76.5C 164.5,76.5 163.5,76.5 162.5,76.5C 162.5,74.5 162.5,72.5 162.5,70.5 Z"/></g>
<g><path style="opacity:1" fill="#3f3f3f" d="M 118.5,71.5 C 123.5,71.5 128.5,71.5 133.5,71.5C 133.5,73.1667 133.5,74.8333 133.5,76.5C 128.5,76.5 123.5,76.5 118.5,76.5C 118.5,74.8333 118.5,73.1667 118.5,71.5 Z"/></g>
<g><path style="opacity:1" fill="#6a6a6a" d="M 118.5,71.5 C 118.5,71.1667 118.5,70.8333 118.5,70.5C 124.5,70.5 130.5,70.5 136.5,70.5C 136.5,72.5 136.5,74.5 136.5,76.5C 135.5,76.5 134.5,76.5 133.5,76.5C 133.5,74.8333 133.5,73.1667 133.5,71.5C 128.5,71.5 123.5,71.5 118.5,71.5 Z"/></g>
<g><path style="opacity:1" fill="#cccccc" d="M 162.5,70.5 C 162.5,72.5 162.5,74.5 162.5,76.5C 161.5,76.5 160.5,76.5 159.5,76.5C 159.5,74.5 159.5,72.5 159.5,70.5C 160.5,70.5 161.5,70.5 162.5,70.5 Z"/></g>
<g><path style="opacity:1" fill="#3c3c3c" d="M 177.5,76.5 C 173.5,76.5 169.5,76.5 165.5,76.5C 165.5,74.8333 165.5,73.1667 165.5,71.5C 169.5,71.5 173.5,71.5 177.5,71.5C 177.5,73.1667 177.5,74.8333 177.5,76.5 Z"/></g>
<g><path style="opacity:1" fill="#b2b2b2" d="M 180.5,70.5 C 181.5,70.5 182.5,70.5 183.5,70.5C 183.5,72.5 183.5,74.5 183.5,76.5C 182.5,76.5 181.5,76.5 180.5,76.5C 180.5,74.5 180.5,72.5 180.5,70.5 Z"/></g>
<g><path style="opacity:1" fill="#cacaca" d="M 118.5,76.5 C 123.5,76.5 128.5,76.5 133.5,76.5C 134.5,76.5 135.5,76.5 136.5,76.5C 136.5,77.5 136.5,78.5 136.5,79.5C 130.5,79.5 124.5,79.5 118.5,79.5C 118.5,78.5 118.5,77.5 118.5,76.5 Z"/></g>
<g><path style="opacity:1" fill="#cbcbcb" d="M 162.5,76.5 C 163.5,76.5 164.5,76.5 165.5,76.5C 169.5,76.5 173.5,76.5 177.5,76.5C 178.5,76.5 179.5,76.5 180.5,76.5C 180.5,77.5 180.5,78.5 180.5,79.5C 174.5,79.5 168.5,79.5 162.5,79.5C 162.5,78.5 162.5,77.5 162.5,76.5 Z"/></g>
<g><path style="opacity:1" fill="#8f8f8f" d="M 118.5,79.5 C 124.5,79.5 130.5,79.5 136.5,79.5C 137.551,80.2223 138.218,81.2223 138.5,82.5C 131.833,82.5 125.167,82.5 118.5,82.5C 118.5,81.5 118.5,80.5 118.5,79.5 Z"/></g>
<g><path style="opacity:1" fill="#909090" d="M 162.5,79.5 C 168.5,79.5 174.5,79.5 180.5,79.5C 180.5,80.5 180.5,81.5 180.5,82.5C 173.833,82.5 167.167,82.5 160.5,82.5C 160.167,82.5 159.833,82.5 159.5,82.5C 159.5,81.5 159.5,80.5 159.5,79.5C 160.5,79.5 161.5,79.5 162.5,79.5 Z"/></g>
<g><path style="opacity:1" fill="#2d2d2d" d="M 160.5,82.5 C 167.167,82.5 173.833,82.5 180.5,82.5C 180.5,88.5 180.5,94.5 180.5,100.5C 174.5,100.5 168.5,100.5 162.5,100.5C 160.791,94.6719 160.124,88.6719 160.5,82.5 Z"/></g>
<g><path style="opacity:1" fill="#131313" d="M 174.5,85.5 C 171.5,85.5 168.5,85.5 165.5,85.5C 164.624,85.6309 163.957,85.2975 163.5,84.5C 168.167,83.1667 172.833,83.1667 177.5,84.5C 176.675,85.3857 175.675,85.719 174.5,85.5 Z"/></g>
<g><path style="opacity:1" fill="#929292" d="M 180.5,82.5 C 181.5,82.5 182.5,82.5 183.5,82.5C 183.5,88.5 183.5,94.5 183.5,100.5C 182.5,100.5 181.5,100.5 180.5,100.5C 180.5,94.5 180.5,88.5 180.5,82.5 Z"/></g>
<g><path style="opacity:1" fill="#8d8d8d" d="M 118.5,82.5 C 118.5,88.5 118.5,94.5 118.5,100.5C 117.5,100.5 116.5,100.5 115.5,100.5C 115.5,94.5 115.5,88.5 115.5,82.5C 116.5,82.5 117.5,82.5 118.5,82.5 Z"/></g>
<g><path style="opacity:1" fill="#505050" d="M 138.5,82.5 C 138.833,82.5 139.167,82.5 139.5,82.5C 139.5,88.5 139.5,94.5 139.5,100.5C 138.5,100.5 137.5,100.5 136.5,100.5C 138.209,94.6719 138.876,88.6719 138.5,82.5 Z"/></g>
<g><path style="opacity:1" fill="#909090" d="M 139.5,82.5 C 140.816,85.0866 141.483,88.0866 141.5,91.5C 141.483,94.9134 140.816,97.9134 139.5,100.5C 139.5,94.5 139.5,88.5 139.5,82.5 Z"/></g>
<g><path style="opacity:1" fill="#949494" d="M 159.5,85.5 C 159.5,90.5 159.5,95.5 159.5,100.5C 158.191,98.4294 157.525,95.9294 157.5,93C 157.525,90.0706 158.191,87.5706 159.5,85.5 Z"/></g>
<g><path style="opacity:1" fill="#585858" d="M 159.5,82.5 C 159.833,82.5 160.167,82.5 160.5,82.5C 160.124,88.6719 160.791,94.6719 162.5,100.5C 161.5,100.5 160.5,100.5 159.5,100.5C 159.5,95.5 159.5,90.5 159.5,85.5C 159.5,84.5 159.5,83.5 159.5,82.5 Z"/></g>
<g><path style="opacity:1" fill="#676767" d="M 165.5,85.5 C 168.5,85.5 171.5,85.5 174.5,85.5C 174.5,86.5 174.5,87.5 174.5,88.5C 175.5,88.5 176.5,88.5 177.5,88.5C 177.5,90.5 177.5,92.5 177.5,94.5C 176.5,94.5 175.5,94.5 174.5,94.5C 174.5,95.5 174.5,96.5 174.5,97.5C 171.5,97.5 168.5,97.5 165.5,97.5C 165.5,96.5 165.5,95.5 165.5,94.5C 164.5,94.5 163.5,94.5 162.5,94.5C 162.5,92.5 162.5,90.5 162.5,88.5C 163.5,88.5 164.5,88.5 165.5,88.5C 165.5,87.5 165.5,86.5 165.5,85.5 Z"/></g>
<g><path style="opacity:1" fill="#6d6d6d" d="M 79.5,94.5 C 80.5,94.5 81.5,94.5 82.5,94.5C 87.5,94.5 92.5,94.5 97.5,94.5C 97.5,95.5 97.5,96.5 97.5,97.5C 91.5,97.5 85.5,97.5 79.5,97.5C 79.5,96.5 79.5,95.5 79.5,94.5 Z"/></g>
<g><path style="opacity:1" fill="#3f403f" d="M 97.5,94.5 C 98.5,94.5 99.5,94.5 100.5,94.5C 100.5,95.5 100.5,96.5 100.5,97.5C 99.5,97.5 98.5,97.5 97.5,97.5C 97.5,96.5 97.5,95.5 97.5,94.5 Z"/></g>
<g><path style="opacity:1" fill="#252525" d="M 118.5,82.5 C 125.167,82.5 131.833,82.5 138.5,82.5C 138.876,88.6719 138.209,94.6719 136.5,100.5C 130.5,100.5 124.5,100.5 118.5,100.5C 118.5,94.5 118.5,88.5 118.5,82.5 Z"/></g>
<g><path style="opacity:1" fill="#686868" d="M 124.5,85.5 C 127.5,85.5 130.5,85.5 133.5,85.5C 133.5,86.5 133.5,87.5 133.5,88.5C 134.5,88.5 135.5,88.5 136.5,88.5C 136.5,90.5 136.5,92.5 136.5,94.5C 135.5,94.5 134.5,94.5 133.5,94.5C 133.5,95.5 133.5,96.5 133.5,97.5C 130.5,97.5 127.5,97.5 124.5,97.5C 124.5,96.5 124.5,95.5 124.5,94.5C 123.5,94.5 122.5,94.5 121.5,94.5C 121.5,92.5 121.5,90.5 121.5,88.5C 122.5,88.5 123.5,88.5 124.5,88.5C 124.5,87.5 124.5,86.5 124.5,85.5 Z"/></g>
<g><path style="opacity:1" fill="#a4a4a4" d="M 73.5,100.5 C 74.5,100.5 75.5,100.5 76.5,100.5C 83.5,100.5 90.5,100.5 97.5,100.5C 97.5,101.5 97.5,102.5 97.5,103.5C 89.5,103.5 81.5,103.5 73.5,103.5C 73.5,102.5 73.5,101.5 73.5,100.5 Z"/></g>
<g><path style="opacity:1" fill="#464746" d="M 97.5,100.5 C 98.5,100.5 99.5,100.5 100.5,100.5C 100.5,101.5 100.5,102.5 100.5,103.5C 99.5,103.5 98.5,103.5 97.5,103.5C 97.5,102.5 97.5,101.5 97.5,100.5 Z"/></g>
<g><path style="opacity:1" fill="#101010" d="M 100.5,55.5 C 102.5,55.5 104.5,55.5 106.5,55.5C 106.5,56.5 106.5,57.5 106.5,58.5C 105.5,58.5 104.5,58.5 103.5,58.5C 103.5,85.5 103.5,112.5 103.5,139.5C 102.5,139.5 101.5,139.5 100.5,139.5C 100.5,138.5 100.5,137.5 100.5,136.5C 100.5,125.5 100.5,114.5 100.5,103.5C 100.5,102.5 100.5,101.5 100.5,100.5C 99.5,100.5 98.5,100.5 97.5,100.5C 97.5,99.5 97.5,98.5 97.5,97.5C 98.5,97.5 99.5,97.5 100.5,97.5C 100.5,96.5 100.5,95.5 100.5,94.5C 100.5,81.5 100.5,68.5 100.5,55.5 Z"/></g>
<g><path style="opacity:1" fill="#a3a3a3" d="M 118.5,100.5 C 124.5,100.5 130.5,100.5 136.5,100.5C 136.5,101.5 136.5,102.5 136.5,103.5C 130.5,103.5 124.5,103.5 118.5,103.5C 118.5,102.5 118.5,101.5 118.5,100.5 Z"/></g>
<g><path style="opacity:1" fill="#aaaaaa" d="M 159.5,82.5 C 159.5,83.5 159.5,84.5 159.5,85.5C 158.191,87.5706 157.525,90.0706 157.5,93C 157.525,95.9294 158.191,98.4294 159.5,100.5C 160.5,100.5 161.5,100.5 162.5,100.5C 168.5,100.5 174.5,100.5 180.5,100.5C 180.5,101.5 180.5,102.5 180.5,103.5C 173.5,103.5 166.5,103.5 159.5,103.5C 159.5,106.5 159.5,109.5 159.5,112.5C 158.5,112.5 157.5,112.5 156.5,112.5C 157.055,108.988 156.388,105.988 154.5,103.5C 156.258,96.6652 156.925,89.6652 156.5,82.5C 157.5,82.5 158.5,82.5 159.5,82.5 Z"/></g>
<g><path style="opacity:1" fill="#575857" d="M 201.5,100.5 C 201.5,101.5 201.5,102.5 201.5,103.5C 200.5,103.5 199.5,103.5 198.5,103.5C 198.5,102.5 198.5,101.5 198.5,100.5C 199.5,100.5 200.5,100.5 201.5,100.5 Z"/></g>
<g><path style="opacity:1" fill="#9f9f9f" d="M 201.5,100.5 C 208.5,100.5 215.5,100.5 222.5,100.5C 222.5,101.5 222.5,102.5 222.5,103.5C 215.5,103.5 208.5,103.5 201.5,103.5C 201.5,102.5 201.5,101.5 201.5,100.5 Z"/></g>
<g><path style="opacity:1" fill="#7a7a7a" d="M 106.5,58.5 C 106.5,58.8333 106.5,59.1667 106.5,59.5C 106.5,60.1667 106.5,60.8333 106.5,61.5C 106.5,61.8333 106.5,62.1667 106.5,62.5C 106.5,89.1667 106.5,115.833 106.5,142.5C 105.5,142.5 104.5,142.5 103.5,142.5C 72.8333,142.5 42.1667,142.5 11.5,142.5C 42.3469,142.164 73.0136,141.164 103.5,139.5C 103.5,112.5 103.5,85.5 103.5,58.5C 104.5,58.5 105.5,58.5 106.5,58.5 Z"/></g>
<g><path style="opacity:1" fill="#585858" d="M 142.5,103.5 C 146.5,103.5 150.5,103.5 154.5,103.5C 156.388,105.988 157.055,108.988 156.5,112.5C 151.833,112.5 147.167,112.5 142.5,112.5C 142.5,109.5 142.5,106.5 142.5,103.5 Z"/></g>
<g><path style="opacity:1" fill="#b7b7b7" d="M 136.5,79.5 C 138.5,79.5 140.5,79.5 142.5,79.5C 142.5,87.5 142.5,95.5 142.5,103.5C 142.5,106.5 142.5,109.5 142.5,112.5C 141.5,112.5 140.5,112.5 139.5,112.5C 139.5,109.5 139.5,106.5 139.5,103.5C 138.5,103.5 137.5,103.5 136.5,103.5C 136.5,102.5 136.5,101.5 136.5,100.5C 137.5,100.5 138.5,100.5 139.5,100.5C 140.816,97.9134 141.483,94.9134 141.5,91.5C 141.483,88.0866 140.816,85.0866 139.5,82.5C 139.167,82.5 138.833,82.5 138.5,82.5C 138.218,81.2223 137.551,80.2223 136.5,79.5 Z"/></g>
<g><path style="opacity:1" fill="#2b2b2b" d="M 221.5,32.5 C 221.833,32.5 222.167,32.5 222.5,32.5C 222.5,54.1667 222.5,75.8333 222.5,97.5C 222.5,98.5 222.5,99.5 222.5,100.5C 215.5,100.5 208.5,100.5 201.5,100.5C 200.5,100.5 199.5,100.5 198.5,100.5C 198.5,101.5 198.5,102.5 198.5,103.5C 198.5,114.5 198.5,125.5 198.5,136.5C 198.5,137.5 198.5,138.5 198.5,139.5C 197.5,139.5 196.5,139.5 195.5,139.5C 195.5,124.5 195.5,109.5 195.5,94.5C 196.5,94.5 197.5,94.5 198.5,94.5C 198.5,95.5 198.5,96.5 198.5,97.5C 204.5,97.5 210.5,97.5 216.5,97.5C 216.5,96.5 216.5,95.5 216.5,94.5C 217.5,94.5 218.5,94.5 219.5,94.5C 219.281,95.675 219.614,96.675 220.5,97.5C 221.5,75.8436 221.833,54.1769 221.5,32.5 Z"/></g>
<g><path style="opacity:1" fill="#707070" d="M 198.5,94.5 C 199.5,94.5 200.5,94.5 201.5,94.5C 206.5,94.5 211.5,94.5 216.5,94.5C 216.5,95.5 216.5,96.5 216.5,97.5C 210.5,97.5 204.5,97.5 198.5,97.5C 198.5,96.5 198.5,95.5 198.5,94.5 Z"/></g>
<g><path style="opacity:1" fill="#1d1d1d" d="M 144.5,106.5 C 147.833,106.5 151.167,106.5 154.5,106.5C 154.5,107.5 154.5,108.5 154.5,109.5C 151.167,109.5 147.833,109.5 144.5,109.5C 144.5,108.5 144.5,107.5 144.5,106.5 Z"/></g>
<g><path style="opacity:1" fill="#8f8f8f" d="M 97.5,103.5 C 98.5,103.5 99.5,103.5 100.5,103.5C 100.5,114.5 100.5,125.5 100.5,136.5C 99.5,136.5 98.5,136.5 97.5,136.5C 97.5,135.5 97.5,134.5 97.5,133.5C 97.5,123.5 97.5,113.5 97.5,103.5 Z"/></g>
<g><path style="opacity:1" fill="#e6e6e6" d="M 168.5,124.5 C 166.5,124.5 164.5,124.5 162.5,124.5C 161.602,123.842 160.602,123.176 159.5,122.5C 151.517,121.011 143.851,121.678 136.5,124.5C 134.5,124.5 132.5,124.5 130.5,124.5C 130.5,123.5 130.5,122.5 130.5,121.5C 143.167,120.167 155.833,120.167 168.5,121.5C 168.5,122.5 168.5,123.5 168.5,124.5 Z"/></g>
<g><path style="opacity:1" fill="#adadad" d="M 162.5,124.5 C 153.833,124.5 145.167,124.5 136.5,124.5C 143.851,121.678 151.517,121.011 159.5,122.5C 160.602,123.176 161.602,123.842 162.5,124.5 Z"/></g>
<g><path style="opacity:1" fill="#515151" d="M 136.5,124.5 C 145.167,124.5 153.833,124.5 162.5,124.5C 163.784,126.614 165.784,127.614 168.5,127.5C 168.5,128.5 168.5,129.5 168.5,130.5C 166.5,130.5 164.5,130.5 162.5,130.5C 154.833,130.5 147.167,130.5 139.5,130.5C 136.336,130.558 133.336,131.224 130.5,132.5C 130.5,130.833 130.5,129.167 130.5,127.5C 132.5,127.5 134.5,127.5 136.5,127.5C 136.5,126.5 136.5,125.5 136.5,124.5 Z"/></g>
<g><path style="opacity:1" fill="#767676" d="M 130.5,124.5 C 132.5,124.5 134.5,124.5 136.5,124.5C 136.5,125.5 136.5,126.5 136.5,127.5C 134.5,127.5 132.5,127.5 130.5,127.5C 130.5,126.5 130.5,125.5 130.5,124.5 Z"/></g>
<g><path style="opacity:1" fill="#808080" d="M 162.5,124.5 C 164.5,124.5 166.5,124.5 168.5,124.5C 168.5,125.5 168.5,126.5 168.5,127.5C 165.784,127.614 163.784,126.614 162.5,124.5 Z"/></g>
<g><path style="opacity:1" fill="#c1c1c1" d="M 168.5,124.5 C 169.5,124.5 170.5,124.5 171.5,124.5C 171.5,125.5 171.5,126.5 171.5,127.5C 170.5,127.5 169.5,127.5 168.5,127.5C 168.5,126.5 168.5,125.5 168.5,124.5 Z"/></g>
<g><path style="opacity:1" fill="#dedede" d="M 130.5,124.5 C 130.5,125.5 130.5,126.5 130.5,127.5C 129.5,127.5 128.5,127.5 127.5,127.5C 127.5,129.5 127.5,131.5 127.5,133.5C 126.5,133.5 125.5,133.5 124.5,133.5C 124.192,131.076 124.526,128.743 125.5,126.5C 126.842,124.995 128.508,124.328 130.5,124.5 Z"/></g>
<g><path style="opacity:1" fill="#828282" d="M 168.5,127.5 C 169.5,127.5 170.5,127.5 171.5,127.5C 171.5,129.167 171.5,130.833 171.5,132.5C 167.988,133.055 164.988,132.388 162.5,130.5C 164.5,130.5 166.5,130.5 168.5,130.5C 168.5,129.5 168.5,128.5 168.5,127.5 Z"/></g>
<g><path style="opacity:1" fill="#a4a4a4" d="M 130.5,127.5 C 130.5,129.167 130.5,130.833 130.5,132.5C 133.336,131.224 136.336,130.558 139.5,130.5C 139.5,131.5 139.5,132.5 139.5,133.5C 135.5,133.5 131.5,133.5 127.5,133.5C 127.5,131.5 127.5,129.5 127.5,127.5C 128.5,127.5 129.5,127.5 130.5,127.5 Z"/></g>
<g><path style="opacity:1" fill="#e1e1e1" d="M 171.5,127.5 C 172.5,127.5 173.5,127.5 174.5,127.5C 174.5,129.5 174.5,131.5 174.5,133.5C 173.5,133.5 172.5,133.5 171.5,133.5C 171.5,134.5 171.5,135.5 171.5,136.5C 168.5,136.5 165.5,136.5 162.5,136.5C 162.5,135.5 162.5,134.5 162.5,133.5C 154.833,133.5 147.167,133.5 139.5,133.5C 139.5,132.5 139.5,131.5 139.5,130.5C 147.167,130.5 154.833,130.5 162.5,130.5C 164.988,132.388 167.988,133.055 171.5,132.5C 171.5,130.833 171.5,129.167 171.5,127.5 Z"/></g>
<g><path style="opacity:1" fill="#cecece" d="M 97.5,133.5 C 97.5,134.5 97.5,135.5 97.5,136.5C 96.5,136.5 95.5,136.5 94.5,136.5C 64.8333,136.5 35.1667,136.5 5.5,136.5C 5.5,135.5 5.5,134.5 5.5,133.5C 36.1667,133.5 66.8333,133.5 97.5,133.5 Z"/></g>
<g><path style="opacity:1" fill="#d8d8d8" d="M 201.5,133.5 C 232.518,132.841 263.185,133.508 293.5,135.5C 262.482,136.159 231.815,135.492 201.5,133.5 Z"/></g>
<g><path style="opacity:1" fill="#afafaf" d="M 198.5,103.5 C 199.5,103.5 200.5,103.5 201.5,103.5C 201.5,113.5 201.5,123.5 201.5,133.5C 231.815,135.492 262.482,136.159 293.5,135.5C 293.5,135.833 293.5,136.167 293.5,136.5C 262.833,136.5 232.167,136.5 201.5,136.5C 200.5,136.5 199.5,136.5 198.5,136.5C 198.5,125.5 198.5,114.5 198.5,103.5 Z"/></g>
<g><path style="opacity:1" fill="#bebebe" d="M 5.5,136.5 C 5.5,137.167 5.5,137.833 5.5,138.5C 5.5,138.833 5.5,139.167 5.5,139.5C 4.5,139.5 3.5,139.5 2.5,139.5C 2.5,138.5 2.5,137.5 2.5,136.5C 3.5,136.5 4.5,136.5 5.5,136.5 Z"/></g>
<g><path style="opacity:1" fill="#797979" d="M 5.5,136.5 C 35.1667,136.5 64.8333,136.5 94.5,136.5C 65.1855,138.492 35.5188,139.159 5.5,138.5C 5.5,137.833 5.5,137.167 5.5,136.5 Z"/></g>
<g><path style="opacity:1" fill="#737373" d="M 201.5,136.5 C 232.167,136.5 262.833,136.5 293.5,136.5C 293.5,137.5 293.5,138.5 293.5,139.5C 291.5,139.5 289.5,139.5 287.5,139.5C 258.833,139.5 230.167,139.5 201.5,139.5C 201.5,138.5 201.5,137.5 201.5,136.5 Z"/></g>
<g><path style="opacity:1" fill="#646464" d="M 94.5,136.5 C 95.5,136.5 96.5,136.5 97.5,136.5C 97.5,137.5 97.5,138.5 97.5,139.5C 66.8333,139.5 36.1667,139.5 5.5,139.5C 5.5,139.167 5.5,138.833 5.5,138.5C 35.5188,139.159 65.1855,138.492 94.5,136.5 Z"/></g>
<g><path style="opacity:1" fill="#404040" d="M 198.5,136.5 C 199.5,136.5 200.5,136.5 201.5,136.5C 201.5,137.5 201.5,138.5 201.5,139.5C 230.167,139.5 258.833,139.5 287.5,139.5C 287.5,140.167 287.5,140.833 287.5,141.5C 256.482,142.159 225.815,141.492 195.5,139.5C 196.5,139.5 197.5,139.5 198.5,139.5C 198.5,138.5 198.5,137.5 198.5,136.5 Z"/></g>
<g><path style="opacity:1" fill="#9f9f9f" d="M 293.5,136.5 C 294.5,136.5 295.5,136.5 296.5,136.5C 296.5,138.5 296.5,140.5 296.5,142.5C 295.5,142.5 294.5,142.5 293.5,142.5C 293.5,141.5 293.5,140.5 293.5,139.5C 293.5,138.5 293.5,137.5 293.5,136.5 Z"/></g>
<g><path style="opacity:1" fill="#e7e7e7" d="M -0.5,139.5 C 0.5,139.5 1.5,139.5 2.5,139.5C 2.5,169.167 2.5,198.833 2.5,228.5C 1.5,228.5 0.5,228.5 -0.5,228.5C -0.5,198.833 -0.5,169.167 -0.5,139.5 Z"/></g>
<g><path style="opacity:1" fill="#9a9a9a" d="M 11.5,142.5 C 42.1667,142.5 72.8333,142.5 103.5,142.5C 73.1848,144.492 42.5182,145.159 11.5,144.5C 11.5,143.833 11.5,143.167 11.5,142.5 Z"/></g>
<g><path style="opacity:1" fill="#9a9a9a" d="M 195.5,142.5 C 226.167,142.5 256.833,142.5 287.5,142.5C 287.5,143.167 287.5,143.833 287.5,144.5C 256.482,145.159 225.815,144.492 195.5,142.5 Z"/></g>
<g><path style="opacity:1" fill="#c8c8c8" d="M 103.5,142.5 C 104.5,142.5 105.5,142.5 106.5,142.5C 106.5,143.5 106.5,144.5 106.5,145.5C 105.5,145.5 104.5,145.5 103.5,145.5C 72.8333,145.5 42.1667,145.5 11.5,145.5C 11.5,145.167 11.5,144.833 11.5,144.5C 42.5182,145.159 73.1848,144.492 103.5,142.5 Z"/></g>
<g><path style="opacity:1" fill="#c7c7c7" d="M 192.5,142.5 C 193.5,142.5 194.5,142.5 195.5,142.5C 225.815,144.492 256.482,145.159 287.5,144.5C 287.5,144.833 287.5,145.167 287.5,145.5C 286.5,145.5 285.5,145.5 284.5,145.5C 253.833,145.5 223.167,145.5 192.5,145.5C 192.5,144.5 192.5,143.5 192.5,142.5 Z"/></g>
<g><path style="opacity:1" fill="#707070" d="M 2.5,139.5 C 3.5,139.5 4.5,139.5 5.5,139.5C 5.5,169.167 5.5,198.833 5.5,228.5C 4.5,228.5 3.5,228.5 2.5,228.5C 2.5,198.833 2.5,169.167 2.5,139.5 Z"/></g>
<g><path style="opacity:1" fill="#333333" d="M 287.5,139.5 C 289.5,139.5 291.5,139.5 293.5,139.5C 293.5,140.5 293.5,141.5 293.5,142.5C 293.5,170.833 293.5,199.167 293.5,227.5C 290.918,227.975 288.918,227.308 287.5,225.5C 287.5,224.5 287.5,223.5 287.5,222.5C 288.5,222.5 289.5,222.5 290.5,222.5C 290.5,196.5 290.5,170.5 290.5,144.5C 289.5,144.5 288.5,144.5 287.5,144.5C 287.5,143.833 287.5,143.167 287.5,142.5C 287.5,142.167 287.5,141.833 287.5,141.5C 287.5,140.833 287.5,140.167 287.5,139.5 Z"/></g>
<g><path style="opacity:1" fill="#797979" d="M 293.5,142.5 C 294.5,142.5 295.5,142.5 296.5,142.5C 296.5,172.167 296.5,201.833 296.5,231.5C 281.833,231.5 267.167,231.5 252.5,231.5C 266.364,231.161 280.031,230.161 293.5,228.5C 293.5,228.167 293.5,227.833 293.5,227.5C 293.5,199.167 293.5,170.833 293.5,142.5 Z"/></g>
<g><path style="opacity:1" fill="#8d8d8d" d="M 11.5,144.5 C 11.5,144.833 11.5,145.167 11.5,145.5C 11.5,170.167 11.5,194.833 11.5,219.5C 11.5,220.5 11.5,221.5 11.5,222.5C 10.5,222.5 9.5,222.5 8.5,222.5C 8.5,196.5 8.5,170.5 8.5,144.5C 9.5,144.5 10.5,144.5 11.5,144.5 Z"/></g>
<g><path style="opacity:1" fill="#f7f7f7" d="M 11.5,145.5 C 42.1667,145.5 72.8333,145.5 103.5,145.5C 103.5,146.5 103.5,147.5 103.5,148.5C 74.0101,148.36 44.3434,148.36 14.5,148.5C 14.5,172.167 14.5,195.833 14.5,219.5C 13.5,219.5 12.5,219.5 11.5,219.5C 11.5,194.833 11.5,170.167 11.5,145.5 Z"/></g>
<g><path style="opacity:1" fill="#ececec" d="M 284.5,145.5 C 285.5,145.5 286.5,145.5 287.5,145.5C 287.5,171.167 287.5,196.833 287.5,222.5C 286.5,222.5 285.5,222.5 284.5,222.5C 273.833,222.5 263.167,222.5 252.5,222.5C 252.167,222.5 251.833,222.5 251.5,222.5C 252.138,213.105 251.471,204.105 249.5,195.5C 249.5,194.5 249.5,193.5 249.5,192.5C 250.5,192.5 251.5,192.5 252.5,192.5C 252.5,202.167 252.5,211.833 252.5,221.5C 263.167,221.5 273.833,221.5 284.5,221.5C 284.5,196.167 284.5,170.833 284.5,145.5 Z"/></g>
<g><path style="opacity:1" fill="#919191" d="M 287.5,144.5 C 288.5,144.5 289.5,144.5 290.5,144.5C 290.5,170.5 290.5,196.5 290.5,222.5C 289.5,222.5 288.5,222.5 287.5,222.5C 287.5,196.833 287.5,171.167 287.5,145.5C 287.5,145.167 287.5,144.833 287.5,144.5 Z"/></g>
<g><path style="opacity:1" fill="#404040" d="M 97.5,136.5 C 98.5,136.5 99.5,136.5 100.5,136.5C 100.5,137.5 100.5,138.5 100.5,139.5C 101.5,139.5 102.5,139.5 103.5,139.5C 73.0136,141.164 42.3469,142.164 11.5,142.5C 11.5,143.167 11.5,143.833 11.5,144.5C 10.5,144.5 9.5,144.5 8.5,144.5C 8.5,170.5 8.5,196.5 8.5,222.5C 9.5,222.5 10.5,222.5 11.5,222.5C 11.5,223.5 11.5,224.5 11.5,225.5C 23.5,225.5 35.5,225.5 47.5,225.5C 48.1667,225.5 48.8333,225.5 49.5,225.5C 49.5,227.5 49.5,229.5 49.5,231.5C 48.8333,231.5 48.1667,231.5 47.5,231.5C 33.5406,231.065 19.5406,230.065 5.5,228.5C 5.5,198.833 5.5,169.167 5.5,139.5C 36.1667,139.5 66.8333,139.5 97.5,139.5C 97.5,138.5 97.5,137.5 97.5,136.5 Z"/></g>
<g><path style="opacity:1" fill="#a5a5a5" d="M 49.5,195.5 C 50.1377,204.895 49.4711,213.895 47.5,222.5C 46.8623,213.105 47.5289,204.105 49.5,195.5 Z"/></g>
<g><path style="opacity:1" fill="#d0d0d0" d="M 249.5,195.5 C 251.471,204.105 252.138,213.105 251.5,222.5C 249.529,213.895 248.862,204.895 249.5,195.5 Z"/></g>
<g><path style="opacity:1" fill="#dedede" d="M 49.5,192.5 C 49.5,193.5 49.5,194.5 49.5,195.5C 47.5289,204.105 46.8623,213.105 47.5,222.5C 35.5,222.5 23.5,222.5 11.5,222.5C 11.5,221.5 11.5,220.5 11.5,219.5C 12.5,219.5 13.5,219.5 14.5,219.5C 24.7809,221.476 35.4476,222.143 46.5,221.5C 46.5,211.833 46.5,202.167 46.5,192.5C 47.5,192.5 48.5,192.5 49.5,192.5 Z"/></g>
<g><path style="opacity:1" fill="#a2a2a2" d="M 11.5,222.5 C 23.5,222.5 35.5,222.5 47.5,222.5C 47.5,223.5 47.5,224.5 47.5,225.5C 35.5,225.5 23.5,225.5 11.5,225.5C 11.5,224.5 11.5,223.5 11.5,222.5 Z"/></g>
<g><path style="opacity:1" fill="#878787" d="M 243.5,192.5 C 245.5,192.5 247.5,192.5 249.5,192.5C 249.5,193.5 249.5,194.5 249.5,195.5C 248.862,204.895 249.529,213.895 251.5,222.5C 251.833,222.5 252.167,222.5 252.5,222.5C 257.456,223.828 262.789,224.495 268.5,224.5C 274.211,224.495 279.544,223.828 284.5,222.5C 285.5,222.5 286.5,222.5 287.5,222.5C 287.5,223.5 287.5,224.5 287.5,225.5C 274.833,225.5 262.167,225.5 249.5,225.5C 249.158,215.292 248.158,205.292 246.5,195.5C 245.5,195.5 244.5,195.5 243.5,195.5C 243.5,194.5 243.5,193.5 243.5,192.5 Z"/></g>
<g><path style="opacity:1" fill="#aaaaaa" d="M 252.5,222.5 C 263.167,222.5 273.833,222.5 284.5,222.5C 279.544,223.828 274.211,224.495 268.5,224.5C 262.789,224.495 257.456,223.828 252.5,222.5 Z"/></g>
<g><path style="opacity:1" fill="#404040" d="M 249.5,225.5 C 262.167,225.5 274.833,225.5 287.5,225.5C 288.918,227.308 290.918,227.975 293.5,227.5C 293.5,227.833 293.5,228.167 293.5,228.5C 278.659,227.905 263.993,228.572 249.5,230.5C 249.5,228.833 249.5,227.167 249.5,225.5 Z"/></g>
<g><path style="opacity:1" fill="#555555" d="M 293.5,228.5 C 280.031,230.161 266.364,231.161 252.5,231.5C 251.5,231.5 250.5,231.5 249.5,231.5C 249.5,231.167 249.5,230.833 249.5,230.5C 263.993,228.572 278.659,227.905 293.5,228.5 Z"/></g>
<g><path style="opacity:1" fill="#8a8a8a" d="M 2.5,228.5 C 3.5,228.5 4.5,228.5 5.5,228.5C 19.5406,230.065 33.5406,231.065 47.5,231.5C 33.5,231.5 19.5,231.5 5.5,231.5C 4.5,231.5 3.5,231.5 2.5,231.5C 2.5,230.5 2.5,229.5 2.5,228.5 Z"/></g>
<g><path style="opacity:1" fill="#fefefe" d="M -0.5,228.5 C 0.5,228.5 1.5,228.5 2.5,228.5C 2.5,229.5 2.5,230.5 2.5,231.5C 3.5,231.5 4.5,231.5 5.5,231.5C 5.88066,232.931 6.88066,233.764 8.5,234C 21.1623,234.5 33.8289,234.667 46.5,234.5C 46.5,256.167 46.5,277.833 46.5,299.5C 30.8333,299.5 15.1667,299.5 -0.5,299.5C -0.5,275.833 -0.5,252.167 -0.5,228.5 Z"/></g>
<g><path style="opacity:1" fill="#dedede" d="M 5.5,231.5 C 19.5,231.5 33.5,231.5 47.5,231.5C 47.5,254.167 47.5,276.833 47.5,299.5C 47.1667,299.5 46.8333,299.5 46.5,299.5C 46.5,277.833 46.5,256.167 46.5,234.5C 33.8289,234.667 21.1623,234.5 8.5,234C 6.88066,233.764 5.88066,232.931 5.5,231.5 Z"/></g>
<g><path style="opacity:1" fill="#dfdfdf" d="M 55.5,192.5 C 56.5,192.5 57.5,192.5 58.5,192.5C 58.5,228.167 58.5,263.833 58.5,299.5C 57.5,299.5 56.5,299.5 55.5,299.5C 55.5,263.833 55.5,228.167 55.5,192.5 Z"/></g>
<g><path style="opacity:1" fill="#343434" d="M 243.5,195.5 C 244.5,195.5 245.5,195.5 246.5,195.5C 246.146,230.145 246.146,264.812 246.5,299.5C 245.5,299.5 244.5,299.5 243.5,299.5C 243.5,264.833 243.5,230.167 243.5,195.5 Z"/></g>
<g><path style="opacity:1" fill="#646464" d="M 49.5,192.5 C 51.5,192.5 53.5,192.5 55.5,192.5C 55.5,228.167 55.5,263.833 55.5,299.5C 54.5,299.5 53.5,299.5 52.5,299.5C 52.8332,264.827 52.4999,230.16 51.5,195.5C 50.8333,205.659 50.1666,215.659 49.5,225.5C 48.8333,225.5 48.1667,225.5 47.5,225.5C 47.5,224.5 47.5,223.5 47.5,222.5C 49.4711,213.895 50.1377,204.895 49.5,195.5C 49.5,194.5 49.5,193.5 49.5,192.5 Z"/></g>
<g><path style="opacity:1" fill="#e9e9e9" d="M 252.5,231.5 C 267.167,231.5 281.833,231.5 296.5,231.5C 296.5,232.5 296.5,233.5 296.5,234.5C 281.833,234.5 267.167,234.5 252.5,234.5C 252.5,233.5 252.5,232.5 252.5,231.5 Z"/></g>
<g><path style="opacity:1" fill="#939393" d="M 47.5,231.5 C 48.1667,231.5 48.8333,231.5 49.5,231.5C 50.4975,253.994 50.8308,276.661 50.5,299.5C 49.5,299.5 48.5,299.5 47.5,299.5C 47.5,276.833 47.5,254.167 47.5,231.5 Z"/></g>
<g><path style="opacity:1" fill="#1f1f1f" d="M 52.5,299.5 C 51.8333,299.5 51.1667,299.5 50.5,299.5C 50.8308,276.661 50.4975,253.994 49.5,231.5C 49.5,229.5 49.5,227.5 49.5,225.5C 50.1666,215.659 50.8333,205.659 51.5,195.5C 52.4999,230.16 52.8332,264.827 52.5,299.5 Z"/></g>
<g><path style="opacity:1" fill="#d0d0d0" d="M 243.5,192.5 C 243.5,193.5 243.5,194.5 243.5,195.5C 243.5,230.167 243.5,264.833 243.5,299.5C 242.5,299.5 241.5,299.5 240.5,299.5C 240.5,263.833 240.5,228.167 240.5,192.5C 241.5,192.5 242.5,192.5 243.5,192.5 Z"/></g>
<g><path style="opacity:1" fill="#212121" d="M 246.5,195.5 C 248.158,205.292 249.158,215.292 249.5,225.5C 249.5,227.167 249.5,228.833 249.5,230.5C 249.5,230.833 249.5,231.167 249.5,231.5C 248.503,253.994 248.169,276.661 248.5,299.5C 247.833,299.5 247.167,299.5 246.5,299.5C 246.146,264.812 246.146,230.145 246.5,195.5 Z"/></g>
<g><path style="opacity:1" fill="#b9b9b9" d="M 249.5,231.5 C 250.5,231.5 251.5,231.5 252.5,231.5C 252.5,232.5 252.5,233.5 252.5,234.5C 251.503,255.994 251.169,277.66 251.5,299.5C 250.5,299.5 249.5,299.5 248.5,299.5C 248.169,276.661 248.503,253.994 249.5,231.5 Z"/></g>
</svg>
