<?xml version="1.0" encoding="UTF-8"?>
<!DOCTYPE svg PUBLIC "-//W3C//DTD SVG 1.1//EN" "http://www.w3.org/Graphics/SVG/1.1/DTD/svg11.dtd">
<svg xmlns="http://www.w3.org/2000/svg" version="1.1" width="300px" height="300px" style="shape-rendering:geometricPrecision; text-rendering:geometricPrecision; image-rendering:optimizeQuality; fill-rule:evenodd; clip-rule:evenodd" xmlns:xlink="http://www.w3.org/1999/xlink">
<g><path style="opacity:0.987" fill="#fefefe" d="M -0.5,-0.5 C 99.5,-0.5 199.5,-0.5 299.5,-0.5C 299.5,46.1667 299.5,92.8333 299.5,139.5C 298.5,139.5 297.5,139.5 296.5,139.5C 295.5,139.5 294.5,139.5 293.5,139.5C 293.5,138.5 293.5,137.5 293.5,136.5C 293.5,135.5 293.5,134.5 293.5,133.5C 262.833,133.5 232.167,133.5 201.5,133.5C 201.5,123.5 201.5,113.5 201.5,103.5C 208.5,103.5 215.5,103.5 222.5,103.5C 224.5,103.5 226.5,103.5 228.5,103.5C 228.5,78.8333 228.5,54.1667 228.5,29.5C 227.5,29.5 226.5,29.5 225.5,29.5C 225.5,28.1667 225.5,26.8333 225.5,25.5C 175.664,25.1678 125.997,25.5011 76.5,26.5C 74.5,27.1667 72.5,27.8333 70.5,28.5C 70.5,52.5 70.5,76.5 70.5,100.5C 71.5,100.5 72.5,100.5 73.5,100.5C 73.5,101.5 73.5,102.5 73.5,103.5C 80.5,103.5 87.5,103.5 94.5,103.5C 94.5,113.167 94.5,122.833 94.5,132.5C 64.662,132.169 34.9953,132.502 5.5,133.5C 5.5,134.167 5.5,134.833 5.5,135.5C 5.5,135.833 5.5,136.167 5.5,136.5C 4.5,136.5 3.5,136.5 2.5,136.5C 2.5,138.5 2.5,140.5 2.5,142.5C 2.5,171.167 2.5,199.833 2.5,228.5C 2.5,229.5 2.5,230.5 2.5,231.5C 2.5,232.5 2.5,233.5 2.5,234.5C 17.1667,234.5 31.8333,234.5 46.5,234.5C 47.4973,255.994 47.8307,277.66 47.5,299.5C 31.5,299.5 15.5,299.5 -0.5,299.5C -0.5,199.5 -0.5,99.5 -0.5,-0.5 Z"/></g>
<g><path style="opacity:1" fill="#e8e8e8" d="M 76.5,26.5 C 125.997,25.5011 175.664,25.1678 225.5,25.5C 225.5,26.8333 225.5,28.1667 225.5,29.5C 224.5,29.5 223.5,29.5 222.5,29.5C 222.5,28.5 222.5,27.5 222.5,26.5C 173.833,26.5 125.167,26.5 76.5,26.5 Z"/></g>
<g><path style="opacity:1" fill="#adadad" d="M 76.5,26.5 C 125.167,26.5 173.833,26.5 222.5,26.5C 222.5,27.5 222.5,28.5 222.5,29.5C 173.833,29.5 125.167,29.5 76.5,29.5C 76.5,28.5 76.5,27.5 76.5,26.5 Z"/></g>
<g><path style="opacity:1" fill="#5a5a5a" d="M 76.5,29.5 C 125.167,29.5 173.833,29.5 222.5,29.5C 222.5,30.1667 222.5,30.8333 222.5,31.5C 220.5,31.5 218.5,31.5 216.5,31.5C 216.5,32.8333 216.5,34.1667 216.5,35.5C 171.833,35.5 127.167,35.5 82.5,35.5C 82.5,34.1667 82.5,32.8333 82.5,31.5C 80.5,31.5 78.5,31.5 76.5,31.5C 76.5,30.8333 76.5,30.1667 76.5,29.5 Z"/></g>
<g><path style="opacity:1" fill="#666666" d="M 76.5,32.5 C 76.5,54.1667 76.5,75.8333 76.5,97.5C 75.1678,87.0212 74.5012,76.1879 74.5,65C 74.5012,53.8121 75.1678,42.9788 76.5,32.5 Z"/></g>
<g><path style="opacity:1" fill="#e7e7e7" d="M 225.5,29.5 C 226.5,29.5 227.5,29.5 228.5,29.5C 228.5,54.1667 228.5,78.8333 228.5,103.5C 226.5,103.5 224.5,103.5 222.5,103.5C 222.5,102.5 222.5,101.5 222.5,100.5C 223.5,100.5 224.5,100.5 225.5,100.5C 225.5,76.8333 225.5,53.1667 225.5,29.5 Z"/></g>
<g><path style="opacity:1" fill="#cacaca" d="M 82.5,35.5 C 127.167,35.5 171.833,35.5 216.5,35.5C 216.5,36.5 216.5,37.5 216.5,38.5C 171.833,38.5 127.167,38.5 82.5,38.5C 82.5,37.5 82.5,36.5 82.5,35.5 Z"/></g>
<g><path style="opacity:1" fill="#898989" d="M 82.5,35.5 C 82.5,36.5 82.5,37.5 82.5,38.5C 81.1685,46.9738 80.5018,55.8071 80.5,65C 80.5018,74.1929 81.1685,83.0262 82.5,91.5C 82.5,92.5 82.5,93.5 82.5,94.5C 81.5,94.5 80.5,94.5 79.5,94.5C 79.5,74.8333 79.5,55.1667 79.5,35.5C 80.5,35.5 81.5,35.5 82.5,35.5 Z"/></g>
<g><path style="opacity:1" fill="#fdfdfd" d="M 82.5,38.5 C 127.167,38.5 171.833,38.5 216.5,38.5C 216.5,56.1667 216.5,73.8333 216.5,91.5C 216.5,92.5 216.5,93.5 216.5,94.5C 211.5,94.5 206.5,94.5 201.5,94.5C 201.5,80.5 201.5,66.5 201.5,52.5C 201.5,51.5 201.5,50.5 201.5,49.5C 167.663,49.1684 133.996,49.5017 100.5,50.5C 100.5,51.1667 100.5,51.8333 100.5,52.5C 99.209,52.2627 98.209,52.596 97.5,53.5C 96.5,53.5 95.5,53.5 94.5,53.5C 94.5,67.1667 94.5,80.8333 94.5,94.5C 90.5,94.5 86.5,94.5 82.5,94.5C 82.5,93.5 82.5,92.5 82.5,91.5C 82.5,73.8333 82.5,56.1667 82.5,38.5 Z"/></g>
<g><path style="opacity:1" fill="#353535" d="M 222.5,31.5 C 222.5,31.8333 222.5,32.1667 222.5,32.5C 222.5,54.1667 222.5,75.8333 222.5,97.5C 222.5,98.5 222.5,99.5 222.5,100.5C 215.5,100.5 208.5,100.5 201.5,100.5C 201.5,99.5 201.5,98.5 201.5,97.5C 206.5,97.5 211.5,97.5 216.5,97.5C 216.5,96.5 216.5,95.5 216.5,94.5C 217.5,94.5 218.5,94.5 219.5,94.5C 219.5,74.8333 219.5,55.1667 219.5,35.5C 218.5,35.5 217.5,35.5 216.5,35.5C 216.5,34.1667 216.5,32.8333 216.5,31.5C 218.5,31.5 220.5,31.5 222.5,31.5 Z"/></g>
<g><path style="opacity:1" fill="#848484" d="M 76.5,29.5 C 76.5,30.1667 76.5,30.8333 76.5,31.5C 76.5,31.8333 76.5,32.1667 76.5,32.5C 75.1678,42.9788 74.5012,53.8121 74.5,65C 74.5012,76.1879 75.1678,87.0212 76.5,97.5C 76.5,98.5 76.5,99.5 76.5,100.5C 75.5,100.5 74.5,100.5 73.5,100.5C 73.5,76.8333 73.5,53.1667 73.5,29.5C 74.5,29.5 75.5,29.5 76.5,29.5 Z"/></g>
<g><path style="opacity:1" fill="#494949" d="M 222.5,32.5 C 223.832,42.9788 224.499,53.8121 224.5,65C 224.499,76.1879 223.832,87.0212 222.5,97.5C 222.5,75.8333 222.5,54.1667 222.5,32.5 Z"/></g>
<g><path style="opacity:1" fill="#3a3a3a" d="M 76.5,31.5 C 78.5,31.5 80.5,31.5 82.5,31.5C 82.5,32.8333 82.5,34.1667 82.5,35.5C 81.5,35.5 80.5,35.5 79.5,35.5C 79.5,55.1667 79.5,74.8333 79.5,94.5C 80.5,94.5 81.5,94.5 82.5,94.5C 82.5,95.5 82.5,96.5 82.5,97.5C 81.5,97.5 80.5,97.5 79.5,97.5C 79.5,98.5 79.5,99.5 79.5,100.5C 78.5,100.5 77.5,100.5 76.5,100.5C 76.5,99.5 76.5,98.5 76.5,97.5C 76.5,75.8333 76.5,54.1667 76.5,32.5C 76.5,32.1667 76.5,31.8333 76.5,31.5 Z"/></g>
<g><path style="opacity:1" fill="#b5b5b5" d="M 216.5,38.5 C 217.832,46.9738 218.498,55.8071 218.5,65C 218.498,74.1929 217.832,83.0262 216.5,91.5C 216.5,73.8333 216.5,56.1667 216.5,38.5 Z"/></g>
<g><path style="opacity:1" fill="#929292" d="M 216.5,35.5 C 217.5,35.5 218.5,35.5 219.5,35.5C 219.5,55.1667 219.5,74.8333 219.5,94.5C 218.5,94.5 217.5,94.5 216.5,94.5C 216.5,93.5 216.5,92.5 216.5,91.5C 217.832,83.0262 218.498,74.1929 218.5,65C 218.498,55.8071 217.832,46.9738 216.5,38.5C 216.5,37.5 216.5,36.5 216.5,35.5 Z"/></g>
<g><path style="opacity:1" fill="#727272" d="M 222.5,29.5 C 223.5,29.5 224.5,29.5 225.5,29.5C 225.5,53.1667 225.5,76.8333 225.5,100.5C 224.5,100.5 223.5,100.5 222.5,100.5C 222.5,99.5 222.5,98.5 222.5,97.5C 223.832,87.0212 224.499,76.1879 224.5,65C 224.499,53.8121 223.832,42.9788 222.5,32.5C 222.5,32.1667 222.5,31.8333 222.5,31.5C 222.5,30.8333 222.5,30.1667 222.5,29.5 Z"/></g>
<g><path style="opacity:1" fill="#a7a7a7" d="M 82.5,38.5 C 82.5,56.1667 82.5,73.8333 82.5,91.5C 81.1685,83.0262 80.5018,74.1929 80.5,65C 80.5018,55.8071 81.1685,46.9738 82.5,38.5 Z"/></g>
<g><path style="opacity:1" fill="#d8d8d8" d="M 76.5,26.5 C 76.5,27.5 76.5,28.5 76.5,29.5C 75.5,29.5 74.5,29.5 73.5,29.5C 73.5,53.1667 73.5,76.8333 73.5,100.5C 72.5,100.5 71.5,100.5 70.5,100.5C 70.5,76.5 70.5,52.5 70.5,28.5C 72.5,27.8333 74.5,27.1667 76.5,26.5 Z"/></g>
<g><path style="opacity:1" fill="#ececec" d="M 100.5,50.5 C 133.996,49.5017 167.663,49.1684 201.5,49.5C 201.5,50.5 201.5,51.5 201.5,52.5C 200.5,52.5 199.5,52.5 198.5,52.5C 166.184,50.5071 133.517,49.8405 100.5,50.5 Z"/></g>
<g><path style="opacity:1" fill="#dadada" d="M 100.5,50.5 C 133.517,49.8405 166.184,50.5071 198.5,52.5C 165.833,52.5 133.167,52.5 100.5,52.5C 100.5,51.8333 100.5,51.1667 100.5,50.5 Z"/></g>
<g><path style="opacity:1" fill="#454545" d="M 198.5,55.5 C 196.5,55.5 194.5,55.5 192.5,55.5C 192.5,56.5 192.5,57.5 192.5,58.5C 162.833,58.5 133.167,58.5 103.5,58.5C 103.5,71.5 103.5,84.5 103.5,97.5C 101.5,97.5 99.5,97.5 97.5,97.5C 97.5,96.5 97.5,95.5 97.5,94.5C 98.5,94.5 99.5,94.5 100.5,94.5C 100.5,81.5 100.5,68.5 100.5,55.5C 116.486,54.1672 132.819,53.5005 149.5,53.5C 166.181,53.5005 182.514,54.1672 198.5,55.5 Z"/></g>
<g><path style="opacity:1" fill="#757575" d="M 97.5,55.5 C 98.5,55.5 99.5,55.5 100.5,55.5C 100.5,68.5 100.5,81.5 100.5,94.5C 99.5,94.5 98.5,94.5 97.5,94.5C 97.5,81.5 97.5,68.5 97.5,55.5 Z"/></g>
<g><path style="opacity:1" fill="#8d8d8d" d="M 100.5,52.5 C 133.167,52.5 165.833,52.5 198.5,52.5C 199.5,52.5 200.5,52.5 201.5,52.5C 201.5,66.5 201.5,80.5 201.5,94.5C 200.5,94.5 199.5,94.5 198.5,94.5C 198.5,81.5 198.5,68.5 198.5,55.5C 182.514,54.1672 166.181,53.5005 149.5,53.5C 132.819,53.5005 116.486,54.1672 100.5,55.5C 99.5,55.5 98.5,55.5 97.5,55.5C 97.5,54.8333 97.5,54.1667 97.5,53.5C 98.209,52.596 99.209,52.2627 100.5,52.5 Z"/></g>
<g><path style="opacity:1" fill="#fefefe" d="M 162.5,70.5 C 162.5,71.5 162.5,72.5 162.5,73.5C 171.5,73.5 180.5,73.5 189.5,73.5C 189.5,84.5 189.5,95.5 189.5,106.5C 188.5,106.5 187.5,106.5 186.5,106.5C 184.5,106.5 182.5,106.5 180.5,106.5C 180.5,108.5 180.5,110.5 180.5,112.5C 182.5,112.5 184.5,112.5 186.5,112.5C 188.672,113.206 190.672,114.206 192.5,115.5C 192.5,124.5 192.5,133.5 192.5,142.5C 193.5,142.5 194.5,142.5 195.5,142.5C 195.5,143.167 195.5,143.833 195.5,144.5C 195.5,145.5 195.5,146.5 195.5,147.5C 225.112,148.719 254.779,148.719 284.5,147.5C 284.5,172.167 284.5,196.833 284.5,221.5C 273.833,221.5 263.167,221.5 252.5,221.5C 252.5,211.833 252.5,202.167 252.5,192.5C 251.5,192.5 250.5,192.5 249.5,192.5C 247.5,192.5 245.5,192.5 243.5,192.5C 242.5,192.5 241.5,192.5 240.5,192.5C 240.5,228.167 240.5,263.833 240.5,299.5C 179.833,299.5 119.167,299.5 58.5,299.5C 58.5,263.833 58.5,228.167 58.5,192.5C 57.5,192.5 56.5,192.5 55.5,192.5C 53.5,192.5 51.5,192.5 49.5,192.5C 48.5,192.5 47.5,192.5 46.5,192.5C 46.5,202.167 46.5,211.833 46.5,221.5C 34.8333,221.5 23.1667,221.5 11.5,221.5C 11.5,196.167 11.5,170.833 11.5,145.5C 42.1667,145.5 72.8333,145.5 103.5,145.5C 103.5,144.5 103.5,143.5 103.5,142.5C 104.5,142.5 105.5,142.5 106.5,142.5C 107.5,142.5 108.5,142.5 109.5,142.5C 109.5,132.5 109.5,122.5 109.5,112.5C 110.5,112.5 111.5,112.5 112.5,112.5C 114.5,112.5 116.5,112.5 118.5,112.5C 118.5,110.5 118.5,108.5 118.5,106.5C 116.5,106.5 114.5,106.5 112.5,106.5C 111.5,106.5 110.5,106.5 109.5,106.5C 109.5,95.5 109.5,84.5 109.5,73.5C 118.5,73.5 127.5,73.5 136.5,73.5C 136.5,72.5 136.5,71.5 136.5,70.5C 137.5,70.5 138.5,70.5 139.5,70.5C 139.5,67.8333 139.5,65.1667 139.5,62.5C 146.167,62.5 152.833,62.5 159.5,62.5C 159.5,65.1667 159.5,67.8333 159.5,70.5C 160.5,70.5 161.5,70.5 162.5,70.5 Z"/></g>
<g><path style="opacity:1" fill="#141414" d="M 198.5,55.5 C 198.5,68.5 198.5,81.5 198.5,94.5C 199.5,94.5 200.5,94.5 201.5,94.5C 201.5,95.5 201.5,96.5 201.5,97.5C 201.5,98.5 201.5,99.5 201.5,100.5C 201.5,101.5 201.5,102.5 201.5,103.5C 200.5,103.5 199.5,103.5 198.5,103.5C 198.5,114.5 198.5,125.5 198.5,136.5C 198.5,137.5 198.5,138.5 198.5,139.5C 197.5,139.5 196.5,139.5 195.5,139.5C 195.5,112.5 195.5,85.5 195.5,58.5C 194.5,58.5 193.5,58.5 192.5,58.5C 192.5,57.5 192.5,56.5 192.5,55.5C 194.5,55.5 196.5,55.5 198.5,55.5 Z"/></g>
<g><path style="opacity:1" fill="#e7e7e7" d="M 97.5,53.5 C 97.5,54.1667 97.5,54.8333 97.5,55.5C 97.5,68.5 97.5,81.5 97.5,94.5C 96.5,94.5 95.5,94.5 94.5,94.5C 94.5,80.8333 94.5,67.1667 94.5,53.5C 95.5,53.5 96.5,53.5 97.5,53.5 Z"/></g>
<g><path style="opacity:1" fill="#717171" d="M 82.5,94.5 C 86.5,94.5 90.5,94.5 94.5,94.5C 95.5,94.5 96.5,94.5 97.5,94.5C 97.5,95.5 97.5,96.5 97.5,97.5C 92.5,97.5 87.5,97.5 82.5,97.5C 82.5,96.5 82.5,95.5 82.5,94.5 Z"/></g>
<g><path style="opacity:1" fill="#737373" d="M 201.5,94.5 C 206.5,94.5 211.5,94.5 216.5,94.5C 216.5,95.5 216.5,96.5 216.5,97.5C 211.5,97.5 206.5,97.5 201.5,97.5C 201.5,96.5 201.5,95.5 201.5,94.5 Z"/></g>
<g><path style="opacity:1" fill="#232323" d="M 82.5,97.5 C 87.5,97.5 92.5,97.5 97.5,97.5C 99.5,97.5 101.5,97.5 103.5,97.5C 103.5,98.5 103.5,99.5 103.5,100.5C 101.5,100.5 99.5,100.5 97.5,100.5C 91.5,100.5 85.5,100.5 79.5,100.5C 79.5,99.5 79.5,98.5 79.5,97.5C 80.5,97.5 81.5,97.5 82.5,97.5 Z"/></g>
<g><path style="opacity:1" fill="#a1a1a1" d="M 73.5,100.5 C 74.5,100.5 75.5,100.5 76.5,100.5C 77.5,100.5 78.5,100.5 79.5,100.5C 85.5,100.5 91.5,100.5 97.5,100.5C 97.5,101.5 97.5,102.5 97.5,103.5C 96.5,103.5 95.5,103.5 94.5,103.5C 87.5,103.5 80.5,103.5 73.5,103.5C 73.5,102.5 73.5,101.5 73.5,100.5 Z"/></g>
<g><path style="opacity:1" fill="#a1a1a1" d="M 201.5,100.5 C 208.5,100.5 215.5,100.5 222.5,100.5C 222.5,101.5 222.5,102.5 222.5,103.5C 215.5,103.5 208.5,103.5 201.5,103.5C 201.5,102.5 201.5,101.5 201.5,100.5 Z"/></g>
<g><path style="opacity:1" fill="#8f8f8f" d="M 192.5,58.5 C 193.5,58.5 194.5,58.5 195.5,58.5C 195.5,85.5 195.5,112.5 195.5,139.5C 195.5,140.5 195.5,141.5 195.5,142.5C 194.5,142.5 193.5,142.5 192.5,142.5C 192.5,133.5 192.5,124.5 192.5,115.5C 192.5,97.5 192.5,79.5 192.5,61.5C 164.186,59.5082 135.519,58.8415 106.5,59.5C 106.5,63.1667 106.5,66.8333 106.5,70.5C 106.5,94.5 106.5,118.5 106.5,142.5C 105.5,142.5 104.5,142.5 103.5,142.5C 103.5,141.5 103.5,140.5 103.5,139.5C 103.5,126.5 103.5,113.5 103.5,100.5C 103.5,99.5 103.5,98.5 103.5,97.5C 103.5,84.5 103.5,71.5 103.5,58.5C 133.167,58.5 162.833,58.5 192.5,58.5 Z"/></g>
<g><path style="opacity:1" fill="#eeeeee" d="M 106.5,70.5 C 107.5,70.5 108.5,70.5 109.5,70.5C 117.5,70.5 125.5,70.5 133.5,70.5C 134.5,70.5 135.5,70.5 136.5,70.5C 136.5,71.5 136.5,72.5 136.5,73.5C 127.5,73.5 118.5,73.5 109.5,73.5C 109.5,84.5 109.5,95.5 109.5,106.5C 110.5,106.5 111.5,106.5 112.5,106.5C 112.5,108.5 112.5,110.5 112.5,112.5C 111.5,112.5 110.5,112.5 109.5,112.5C 109.5,122.5 109.5,132.5 109.5,142.5C 108.5,142.5 107.5,142.5 106.5,142.5C 106.5,118.5 106.5,94.5 106.5,70.5 Z"/></g>
<g><path style="opacity:1" fill="#c7c7c7" d="M 159.5,97.5 C 166.5,97.5 173.5,97.5 180.5,97.5C 180.5,98.5 180.5,99.5 180.5,100.5C 173.5,100.5 166.5,100.5 159.5,100.5C 159.5,99.5 159.5,98.5 159.5,97.5 Z"/></g>
<g><path style="opacity:1" fill="#cacaca" d="M 115.5,97.5 C 116.5,97.5 117.5,97.5 118.5,97.5C 124.5,97.5 130.5,97.5 136.5,97.5C 137.5,97.5 138.5,97.5 139.5,97.5C 139.5,98.5 139.5,99.5 139.5,100.5C 131.5,100.5 123.5,100.5 115.5,100.5C 115.5,99.5 115.5,98.5 115.5,97.5 Z"/></g>
<g><path style="opacity:1" fill="#2b2b2b" d="M 159.5,82.5 C 159.833,82.5 160.167,82.5 160.5,82.5C 160.176,86.5546 160.509,90.5546 161.5,94.5C 162.484,91.5719 162.817,88.5719 162.5,85.5C 164.5,85.5 166.5,85.5 168.5,85.5C 168.5,86.5 168.5,87.5 168.5,88.5C 166.833,88.5 165.167,88.5 163.5,88.5C 163.5,89.5 163.5,90.5 163.5,91.5C 168.167,91.5 172.833,91.5 177.5,91.5C 177.5,92.5 177.5,93.5 177.5,94.5C 178.5,94.5 179.5,94.5 180.5,94.5C 180.5,95.5 180.5,96.5 180.5,97.5C 173.5,97.5 166.5,97.5 159.5,97.5C 159.5,92.5 159.5,87.5 159.5,82.5 Z"/></g>
<g><path style="opacity:1" fill="#626262" d="M 115.5,82.5 C 116.5,82.5 117.5,82.5 118.5,82.5C 118.5,87.5 118.5,92.5 118.5,97.5C 117.5,97.5 116.5,97.5 115.5,97.5C 115.5,92.5 115.5,87.5 115.5,82.5 Z"/></g>
<g><path style="opacity:1" fill="#8d8d8d" d="M 180.5,82.5 C 181.5,82.5 182.5,82.5 183.5,82.5C 183.5,87.5 183.5,92.5 183.5,97.5C 182.5,97.5 181.5,97.5 180.5,97.5C 180.5,96.5 180.5,95.5 180.5,94.5C 180.5,90.5 180.5,86.5 180.5,82.5 Z"/></g>
<g><path style="opacity:1" fill="#919191" d="M 156.5,82.5 C 157.5,82.5 158.5,82.5 159.5,82.5C 159.5,87.5 159.5,92.5 159.5,97.5C 158.5,97.5 157.5,97.5 156.5,97.5C 156.5,92.5 156.5,87.5 156.5,82.5 Z"/></g>
<g><path style="opacity:1" fill="#d3d3d3" d="M 139.5,82.5 C 140.5,82.5 141.5,82.5 142.5,82.5C 142.5,87.5 142.5,92.5 142.5,97.5C 141.5,97.5 140.5,97.5 139.5,97.5C 139.5,92.5 139.5,87.5 139.5,82.5 Z"/></g>
<g><path style="opacity:1" fill="#717171" d="M 138.5,82.5 C 138.833,82.5 139.167,82.5 139.5,82.5C 139.5,87.5 139.5,92.5 139.5,97.5C 138.5,97.5 137.5,97.5 136.5,97.5C 138.135,92.6786 138.802,87.6786 138.5,82.5 Z"/></g>
<g><path style="opacity:1" fill="#151515" d="M 160.5,82.5 C 167.167,82.5 173.833,82.5 180.5,82.5C 180.5,86.5 180.5,90.5 180.5,94.5C 179.5,94.5 178.5,94.5 177.5,94.5C 177.5,93.5 177.5,92.5 177.5,91.5C 177.5,89.5 177.5,87.5 177.5,85.5C 175.5,85.5 173.5,85.5 171.5,85.5C 171.5,86.5 171.5,87.5 171.5,88.5C 170.5,88.5 169.5,88.5 168.5,88.5C 168.5,87.5 168.5,86.5 168.5,85.5C 166.5,85.5 164.5,85.5 162.5,85.5C 162.817,88.5719 162.484,91.5719 161.5,94.5C 160.509,90.5546 160.176,86.5546 160.5,82.5 Z"/></g>
<g><path style="opacity:1" fill="#525252" d="M 177.5,91.5 C 172.833,91.5 168.167,91.5 163.5,91.5C 163.5,90.5 163.5,89.5 163.5,88.5C 165.167,88.5 166.833,88.5 168.5,88.5C 169.5,88.5 170.5,88.5 171.5,88.5C 171.5,87.5 171.5,86.5 171.5,85.5C 173.5,85.5 175.5,85.5 177.5,85.5C 177.5,87.5 177.5,89.5 177.5,91.5 Z"/></g>
<g><path style="opacity:1" fill="#e8e8e8" d="M 156.5,82.5 C 156.5,87.5 156.5,92.5 156.5,97.5C 157.5,97.5 158.5,97.5 159.5,97.5C 159.5,98.5 159.5,99.5 159.5,100.5C 158.503,100.47 157.836,100.97 157.5,102C 160.063,105.799 159.73,109.299 156.5,112.5C 156.5,109.5 156.5,106.5 156.5,103.5C 154.833,103.5 153.167,103.5 151.5,103.5C 149.167,103.5 146.833,103.5 144.5,103.5C 143.833,103.5 143.167,103.5 142.5,103.5C 142.5,102.5 142.5,101.5 142.5,100.5C 145.5,100.5 148.5,100.5 151.5,100.5C 151.5,99.5 151.5,98.5 151.5,97.5C 152.5,97.5 153.5,97.5 154.5,97.5C 153.892,92.0557 154.558,87.0557 156.5,82.5 Z"/></g>
<g><path style="opacity:1" fill="#252525" d="M 118.5,82.5 C 124.167,82.5 129.833,82.5 135.5,82.5C 136.5,82.5 137.5,82.5 138.5,82.5C 138.802,87.6786 138.135,92.6786 136.5,97.5C 130.5,97.5 124.5,97.5 118.5,97.5C 118.5,92.5 118.5,87.5 118.5,82.5 Z"/></g>
<g><path style="opacity:1" fill="#5c5c5c" d="M 121.5,88.5 C 125.5,88.5 129.5,88.5 133.5,88.5C 133.5,89.5 133.5,90.5 133.5,91.5C 129.5,91.5 125.5,91.5 121.5,91.5C 121.5,90.5 121.5,89.5 121.5,88.5 Z"/></g>
<g><path style="opacity:1" fill="#949494" d="M 180.5,82.5 C 173.833,82.5 167.167,82.5 160.5,82.5C 160.167,82.5 159.833,82.5 159.5,82.5C 159.5,81.5 159.5,80.5 159.5,79.5C 166.5,79.5 173.5,79.5 180.5,79.5C 180.5,80.5 180.5,81.5 180.5,82.5 Z"/></g>
<g><path style="opacity:1" fill="#b0b0b0" d="M 139.5,82.5 C 139.167,82.5 138.833,82.5 138.5,82.5C 137.5,82.5 136.5,82.5 135.5,82.5C 133.085,81.1858 130.252,80.5191 127,80.5C 123.748,80.5191 120.915,81.1858 118.5,82.5C 117.5,82.5 116.5,82.5 115.5,82.5C 115.5,81.5 115.5,80.5 115.5,79.5C 123.5,79.5 131.5,79.5 139.5,79.5C 139.5,80.5 139.5,81.5 139.5,82.5 Z"/></g>
<g><path style="opacity:1" fill="#8c8c8c" d="M 135.5,82.5 C 129.833,82.5 124.167,82.5 118.5,82.5C 120.915,81.1858 123.748,80.5191 127,80.5C 130.252,80.5191 133.085,81.1858 135.5,82.5 Z"/></g>
<g><path style="opacity:1" fill="#eeeeee" d="M 192.5,61.5 C 192.5,79.5 192.5,97.5 192.5,115.5C 190.672,114.206 188.672,113.206 186.5,112.5C 186.5,110.5 186.5,108.5 186.5,106.5C 187.5,106.5 188.5,106.5 189.5,106.5C 189.5,95.5 189.5,84.5 189.5,73.5C 180.5,73.5 171.5,73.5 162.5,73.5C 162.5,72.5 162.5,71.5 162.5,70.5C 171.5,70.5 180.5,70.5 189.5,70.5C 189.5,69.5 189.5,68.5 189.5,67.5C 189.5,66.5 189.5,65.5 189.5,64.5C 189.5,63.5 189.5,62.5 189.5,61.5C 190.5,61.5 191.5,61.5 192.5,61.5 Z"/></g>
<g><path style="opacity:1" fill="#8b8b8b" d="M 162.5,67.5 C 170.599,68.8129 178.599,68.8129 186.5,67.5C 187.5,67.5 188.5,67.5 189.5,67.5C 189.5,68.5 189.5,69.5 189.5,70.5C 180.5,70.5 171.5,70.5 162.5,70.5C 162.5,69.5 162.5,68.5 162.5,67.5 Z"/></g>
<g><path style="opacity:1" fill="#e0e0e0" d="M 162.5,64.5 C 162.5,65.5 162.5,66.5 162.5,67.5C 162.5,68.5 162.5,69.5 162.5,70.5C 161.5,70.5 160.5,70.5 159.5,70.5C 159.5,67.8333 159.5,65.1667 159.5,62.5C 152.833,62.5 146.167,62.5 139.5,62.5C 139.5,65.1667 139.5,67.8333 139.5,70.5C 138.5,70.5 137.5,70.5 136.5,70.5C 136.5,67.5 136.5,64.5 136.5,61.5C 145.167,61.5 153.833,61.5 162.5,61.5C 162.5,62.5 162.5,63.5 162.5,64.5 Z"/></g>
<g><path style="opacity:1" fill="#525252" d="M 162.5,64.5 C 162.833,64.5 163.167,64.5 163.5,64.5C 171.167,64.5 178.833,64.5 186.5,64.5C 187.5,64.5 188.5,64.5 189.5,64.5C 189.5,65.5 189.5,66.5 189.5,67.5C 188.5,67.5 187.5,67.5 186.5,67.5C 178.599,68.8129 170.599,68.8129 162.5,67.5C 162.5,66.5 162.5,65.5 162.5,64.5 Z"/></g>
<g><path style="opacity:1" fill="#1d1d1d" d="M 186.5,67.5 C 179.468,67.8303 172.468,67.497 165.5,66.5C 169,66.1667 172.5,65.8333 176,65.5C 179.902,65.5123 183.402,66.179 186.5,67.5 Z"/></g>
<g><path style="opacity:1" fill="#bbbbbb" d="M 192.5,61.5 C 191.5,61.5 190.5,61.5 189.5,61.5C 189.5,62.5 189.5,63.5 189.5,64.5C 188.5,64.5 187.5,64.5 186.5,64.5C 186.5,63.5 186.5,62.5 186.5,61.5C 178.833,61.5 171.167,61.5 163.5,61.5C 163.5,62.5 163.5,63.5 163.5,64.5C 163.167,64.5 162.833,64.5 162.5,64.5C 162.5,63.5 162.5,62.5 162.5,61.5C 153.833,61.5 145.167,61.5 136.5,61.5C 136.5,64.5 136.5,67.5 136.5,70.5C 135.5,70.5 134.5,70.5 133.5,70.5C 133.5,69.8333 133.5,69.1667 133.5,68.5C 134.091,67.8485 134.757,67.1818 135.5,66.5C 134.757,65.8182 134.091,65.1515 133.5,64.5C 133.5,63.5 133.5,62.5 133.5,61.5C 125.5,61.5 117.5,61.5 109.5,61.5C 109.5,62.5 109.5,63.5 109.5,64.5C 109.5,65.5 109.5,66.5 109.5,67.5C 109.5,68.5 109.5,69.5 109.5,70.5C 108.5,70.5 107.5,70.5 106.5,70.5C 106.5,66.8333 106.5,63.1667 106.5,59.5C 135.519,58.8415 164.186,59.5082 192.5,61.5 Z"/></g>
<g><path style="opacity:1" fill="#878787" d="M 109.5,67.5 C 110.5,67.5 111.5,67.5 112.5,67.5C 119.313,68.4912 126.313,68.8245 133.5,68.5C 133.5,69.1667 133.5,69.8333 133.5,70.5C 125.5,70.5 117.5,70.5 109.5,70.5C 109.5,69.5 109.5,68.5 109.5,67.5 Z"/></g>
<g><path style="opacity:1" fill="#515151" d="M 109.5,64.5 C 117.5,64.5 125.5,64.5 133.5,64.5C 134.091,65.1515 134.757,65.8182 135.5,66.5C 134.757,67.1818 134.091,67.8485 133.5,68.5C 126.313,68.8245 119.313,68.4912 112.5,67.5C 111.5,67.5 110.5,67.5 109.5,67.5C 109.5,66.5 109.5,65.5 109.5,64.5 Z"/></g>
<g><path style="opacity:1" fill="#1d1d1d" d="M 112.5,67.5 C 115.428,66.1803 118.761,65.5136 122.5,65.5C 125.833,65.8333 129.167,66.1667 132.5,66.5C 125.866,67.4967 119.2,67.83 112.5,67.5 Z"/></g>
<g><path style="opacity:1" fill="#898989" d="M 186.5,64.5 C 178.833,64.5 171.167,64.5 163.5,64.5C 163.5,63.5 163.5,62.5 163.5,61.5C 171.167,61.5 178.833,61.5 186.5,61.5C 186.5,62.5 186.5,63.5 186.5,64.5 Z"/></g>
<g><path style="opacity:1" fill="#8a8a8a" d="M 133.5,64.5 C 125.5,64.5 117.5,64.5 109.5,64.5C 109.5,63.5 109.5,62.5 109.5,61.5C 117.5,61.5 125.5,61.5 133.5,61.5C 133.5,62.5 133.5,63.5 133.5,64.5 Z"/></g>
<g><path style="opacity:1" fill="#767676" d="M 144.5,103.5 C 146.833,103.5 149.167,103.5 151.5,103.5C 151.5,104.5 151.5,105.5 151.5,106.5C 149.167,106.5 146.833,106.5 144.5,106.5C 144.5,105.5 144.5,104.5 144.5,103.5 Z"/></g>
<g><path style="opacity:1" fill="#c5c5c5" d="M 112.5,106.5 C 114.5,106.5 116.5,106.5 118.5,106.5C 118.5,108.5 118.5,110.5 118.5,112.5C 116.5,112.5 114.5,112.5 112.5,112.5C 112.5,110.5 112.5,108.5 112.5,106.5 Z"/></g>
<g><path style="opacity:1" fill="#898989" d="M 142.5,103.5 C 142.5,105.5 142.5,107.5 142.5,109.5C 142.5,110.5 142.5,111.5 142.5,112.5C 141.5,112.5 140.5,112.5 139.5,112.5C 139.5,109.5 139.5,106.5 139.5,103.5C 140.5,103.5 141.5,103.5 142.5,103.5 Z"/></g>
<g><path style="opacity:1" fill="#1f1f1f" d="M 142.5,103.5 C 143.167,103.5 143.833,103.5 144.5,103.5C 144.5,104.5 144.5,105.5 144.5,106.5C 146.833,106.5 149.167,106.5 151.5,106.5C 152.5,106.5 153.5,106.5 154.5,106.5C 154.5,107.5 154.5,108.5 154.5,109.5C 150.5,109.5 146.5,109.5 142.5,109.5C 142.5,107.5 142.5,105.5 142.5,103.5 Z"/></g>
<g><path style="opacity:1" fill="#b4b4b4" d="M 186.5,106.5 C 186.5,108.5 186.5,110.5 186.5,112.5C 184.5,112.5 182.5,112.5 180.5,112.5C 180.5,110.5 180.5,108.5 180.5,106.5C 182.5,106.5 184.5,106.5 186.5,106.5 Z"/></g>
<g><path style="opacity:1" fill="#727272" d="M 97.5,103.5 C 98.5,103.5 99.5,103.5 100.5,103.5C 100.5,114.167 100.5,124.833 100.5,135.5C 99.5,135.5 98.5,135.5 97.5,135.5C 97.5,134.833 97.5,134.167 97.5,133.5C 97.5,123.5 97.5,113.5 97.5,103.5 Z"/></g>
<g><path style="opacity:1" fill="#535353" d="M 151.5,103.5 C 153.167,103.5 154.833,103.5 156.5,103.5C 156.5,106.5 156.5,109.5 156.5,112.5C 151.833,112.5 147.167,112.5 142.5,112.5C 142.5,111.5 142.5,110.5 142.5,109.5C 146.5,109.5 150.5,109.5 154.5,109.5C 154.5,108.5 154.5,107.5 154.5,106.5C 153.5,106.5 152.5,106.5 151.5,106.5C 151.5,105.5 151.5,104.5 151.5,103.5 Z"/></g>
<g><path style="opacity:1" fill="#8e8e8e" d="M 174.5,115.5 C 172.5,115.5 170.5,115.5 168.5,115.5C 168.5,114.5 168.5,113.5 168.5,112.5C 170.5,112.5 172.5,112.5 174.5,112.5C 174.5,113.5 174.5,114.5 174.5,115.5 Z"/></g>
<g><path style="opacity:1" fill="#ababab" d="M 130.5,115.5 C 128.5,115.5 126.5,115.5 124.5,115.5C 124.5,117.5 124.5,119.5 124.5,121.5C 122.327,118.983 121.327,115.983 121.5,112.5C 124.5,112.5 127.5,112.5 130.5,112.5C 130.5,113.5 130.5,114.5 130.5,115.5 Z"/></g>
<g><path style="opacity:1" fill="#dddddd" d="M 130.5,115.5 C 132.5,115.5 134.5,115.5 136.5,115.5C 136.5,117.5 136.5,119.5 136.5,121.5C 135.5,121.5 134.5,121.5 133.5,121.5C 133.5,120.5 133.5,119.5 133.5,118.5C 132.5,118.5 131.5,118.5 130.5,118.5C 130.5,117.5 130.5,116.5 130.5,115.5 Z"/></g>
<g><path style="opacity:1" fill="#9a9a9a" d="M 168.5,115.5 C 168.5,116.5 168.5,117.5 168.5,118.5C 167.5,118.5 166.5,118.5 165.5,118.5C 165.5,117.5 165.5,116.5 165.5,115.5C 166.5,115.5 167.5,115.5 168.5,115.5 Z"/></g>
<g><path style="opacity:1" fill="#848484" d="M 201.5,103.5 C 201.5,113.5 201.5,123.5 201.5,133.5C 201.5,134.5 201.5,135.5 201.5,136.5C 200.5,136.5 199.5,136.5 198.5,136.5C 198.5,125.5 198.5,114.5 198.5,103.5C 199.5,103.5 200.5,103.5 201.5,103.5 Z"/></g>
<g><path style="opacity:1" fill="#b8b8b8" d="M 165.5,118.5 C 165.5,119.5 165.5,120.5 165.5,121.5C 164.5,121.5 163.5,121.5 162.5,121.5C 162.5,120.5 162.5,119.5 162.5,118.5C 163.5,118.5 164.5,118.5 165.5,118.5 Z"/></g>
<g><path style="opacity:1" fill="#828282" d="M 174.5,118.5 C 174.5,119.5 174.5,120.5 174.5,121.5C 173.5,121.5 172.5,121.5 171.5,121.5C 171.5,120.5 171.5,119.5 171.5,118.5C 172.5,118.5 173.5,118.5 174.5,118.5 Z"/></g>
<g><path style="opacity:1" fill="#3c3c3c" d="M 168.5,115.5 C 170.5,115.5 172.5,115.5 174.5,115.5C 174.5,116.5 174.5,117.5 174.5,118.5C 173.5,118.5 172.5,118.5 171.5,118.5C 171.5,119.5 171.5,120.5 171.5,121.5C 171.5,122.5 171.5,123.5 171.5,124.5C 170.5,124.5 169.5,124.5 168.5,124.5C 167.5,124.5 166.5,124.5 165.5,124.5C 165.5,125.5 165.5,126.5 165.5,127.5C 163.535,128.129 161.535,128.796 159.5,129.5C 157.97,129.36 156.97,128.693 156.5,127.5C 156.5,126.5 156.5,125.5 156.5,124.5C 158.5,124.5 160.5,124.5 162.5,124.5C 162.5,123.5 162.5,122.5 162.5,121.5C 163.5,121.5 164.5,121.5 165.5,121.5C 165.5,120.5 165.5,119.5 165.5,118.5C 166.5,118.5 167.5,118.5 168.5,118.5C 168.5,117.5 168.5,116.5 168.5,115.5 Z"/></g>
<g><path style="opacity:1" fill="#cfcfcf" d="M 136.5,121.5 C 140.202,122.586 144.036,123.252 148,123.5C 152.887,123.024 157.72,122.357 162.5,121.5C 162.5,122.5 162.5,123.5 162.5,124.5C 160.5,124.5 158.5,124.5 156.5,124.5C 154.257,125.312 151.924,125.979 149.5,126.5C 146.231,125.407 142.897,124.741 139.5,124.5C 138.5,124.5 137.5,124.5 136.5,124.5C 136.5,123.5 136.5,122.5 136.5,121.5 Z"/></g>
<g><path style="opacity:1" fill="#777777" d="M 168.5,124.5 C 168.5,125.5 168.5,126.5 168.5,127.5C 167.5,127.5 166.5,127.5 165.5,127.5C 165.5,126.5 165.5,125.5 165.5,124.5C 166.5,124.5 167.5,124.5 168.5,124.5 Z"/></g>
<g><path style="opacity:1" fill="#979797" d="M 139.5,124.5 C 142.897,124.741 146.231,125.407 149.5,126.5C 151.924,125.979 154.257,125.312 156.5,124.5C 156.5,125.5 156.5,126.5 156.5,127.5C 150.833,127.5 145.167,127.5 139.5,127.5C 139.5,126.5 139.5,125.5 139.5,124.5 Z"/></g>
<g><path style="opacity:1" fill="#d2d2d2" d="M 127.5,124.5 C 128.5,124.5 129.5,124.5 130.5,124.5C 130.5,125.5 130.5,126.5 130.5,127.5C 131.5,127.5 132.5,127.5 133.5,127.5C 133.5,128.5 133.5,129.5 133.5,130.5C 131.5,130.5 129.5,130.5 127.5,130.5C 127.5,128.5 127.5,126.5 127.5,124.5 Z"/></g>
<g><path style="opacity:1" fill="#4e4e4e" d="M 130.5,115.5 C 130.5,116.5 130.5,117.5 130.5,118.5C 131.5,118.5 132.5,118.5 133.5,118.5C 133.5,119.5 133.5,120.5 133.5,121.5C 134.5,121.5 135.5,121.5 136.5,121.5C 136.5,122.5 136.5,123.5 136.5,124.5C 137.5,124.5 138.5,124.5 139.5,124.5C 139.5,125.5 139.5,126.5 139.5,127.5C 145.167,127.5 150.833,127.5 156.5,127.5C 156.97,128.693 157.97,129.36 159.5,129.5C 161.535,128.796 163.535,128.129 165.5,127.5C 165.5,128.5 165.5,129.5 165.5,130.5C 163.5,130.5 161.5,130.5 159.5,130.5C 153.001,132.244 146.334,132.911 139.5,132.5C 138.817,130.824 137.483,130.157 135.5,130.5C 134.833,130.5 134.167,130.5 133.5,130.5C 133.5,129.5 133.5,128.5 133.5,127.5C 132.5,127.5 131.5,127.5 130.5,127.5C 130.5,126.5 130.5,125.5 130.5,124.5C 129.5,124.5 128.5,124.5 127.5,124.5C 127.5,123.5 127.5,122.5 127.5,121.5C 126.5,121.5 125.5,121.5 124.5,121.5C 124.5,119.5 124.5,117.5 124.5,115.5C 126.5,115.5 128.5,115.5 130.5,115.5 Z"/></g>
<g><path style="opacity:1" fill="#ececec" d="M 94.5,103.5 C 95.5,103.5 96.5,103.5 97.5,103.5C 97.5,113.5 97.5,123.5 97.5,133.5C 96.5,133.5 95.5,133.5 94.5,133.5C 64.8333,133.5 35.1667,133.5 5.5,133.5C 34.9953,132.502 64.662,132.169 94.5,132.5C 94.5,122.833 94.5,113.167 94.5,103.5 Z"/></g>
<g><path style="opacity:1" fill="#838383" d="M 159.5,130.5 C 159.5,131.5 159.5,132.5 159.5,133.5C 158.5,133.5 157.5,133.5 156.5,133.5C 150.642,133.822 144.975,133.489 139.5,132.5C 146.334,132.911 153.001,132.244 159.5,130.5 Z"/></g>
<g><path style="opacity:1" fill="#d8d8d8" d="M 5.5,133.5 C 35.1667,133.5 64.8333,133.5 94.5,133.5C 65.1855,135.492 35.5188,136.159 5.5,135.5C 5.5,134.833 5.5,134.167 5.5,133.5 Z"/></g>
<g><path style="opacity:1" fill="#cfcfcf" d="M 201.5,133.5 C 232.167,133.5 262.833,133.5 293.5,133.5C 293.5,134.5 293.5,135.5 293.5,136.5C 262.833,136.5 232.167,136.5 201.5,136.5C 201.5,135.5 201.5,134.5 201.5,133.5 Z"/></g>
<g><path style="opacity:1" fill="#b3b3b3" d="M 94.5,133.5 C 95.5,133.5 96.5,133.5 97.5,133.5C 97.5,134.167 97.5,134.833 97.5,135.5C 97.5,135.833 97.5,136.167 97.5,136.5C 96.5,136.5 95.5,136.5 94.5,136.5C 64.8333,136.5 35.1667,136.5 5.5,136.5C 5.5,136.167 5.5,135.833 5.5,135.5C 35.5188,136.159 65.1855,135.492 94.5,133.5 Z"/></g>
<g><path style="opacity:1" fill="#d9d9d9" d="M 135.5,130.5 C 137.483,130.157 138.817,130.824 139.5,132.5C 144.975,133.489 150.642,133.822 156.5,133.5C 156.5,134.5 156.5,135.5 156.5,136.5C 149.833,136.5 143.167,136.5 136.5,136.5C 136.167,134.5 135.833,132.5 135.5,130.5 Z"/></g>
<g><path style="opacity:1" fill="#7b7b7b" d="M 5.5,136.5 C 35.1667,136.5 64.8333,136.5 94.5,136.5C 65.0141,138.164 35.3474,139.164 5.5,139.5C 5.5,140.5 5.5,141.5 5.5,142.5C 4.5,142.5 3.5,142.5 2.5,142.5C 2.5,140.5 2.5,138.5 2.5,136.5C 3.5,136.5 4.5,136.5 5.5,136.5 Z"/></g>
<g><path style="opacity:1" fill="#747474" d="M 201.5,136.5 C 232.167,136.5 262.833,136.5 293.5,136.5C 293.5,137.5 293.5,138.5 293.5,139.5C 291.5,139.5 289.5,139.5 287.5,139.5C 258.833,139.5 230.167,139.5 201.5,139.5C 201.5,138.5 201.5,137.5 201.5,136.5 Z"/></g>
<g><path style="opacity:1" fill="#636363" d="M 94.5,136.5 C 95.5,136.5 96.5,136.5 97.5,136.5C 97.5,137.5 97.5,138.5 97.5,139.5C 67.8333,139.5 38.1667,139.5 8.5,139.5C 7.5,139.5 6.5,139.5 5.5,139.5C 35.3474,139.164 65.0141,138.164 94.5,136.5 Z"/></g>
<g><path style="opacity:1" fill="#3f3f3f" d="M 97.5,100.5 C 99.5,100.5 101.5,100.5 103.5,100.5C 103.5,113.5 103.5,126.5 103.5,139.5C 72.7803,141.122 42.1136,142.122 11.5,142.5C 11.5,143.167 11.5,143.833 11.5,144.5C 10.5,144.5 9.5,144.5 8.5,144.5C 8.5,142.833 8.5,141.167 8.5,139.5C 38.1667,139.5 67.8333,139.5 97.5,139.5C 97.5,138.5 97.5,137.5 97.5,136.5C 97.5,136.167 97.5,135.833 97.5,135.5C 98.5,135.5 99.5,135.5 100.5,135.5C 100.5,124.833 100.5,114.167 100.5,103.5C 99.5,103.5 98.5,103.5 97.5,103.5C 97.5,102.5 97.5,101.5 97.5,100.5 Z"/></g>
<g><path style="opacity:1" fill="#484848" d="M 198.5,136.5 C 199.5,136.5 200.5,136.5 201.5,136.5C 201.5,137.5 201.5,138.5 201.5,139.5C 230.167,139.5 258.833,139.5 287.5,139.5C 287.5,140.5 287.5,141.5 287.5,142.5C 256.833,142.5 226.167,142.5 195.5,142.5C 195.5,141.5 195.5,140.5 195.5,139.5C 196.5,139.5 197.5,139.5 198.5,139.5C 198.5,138.5 198.5,137.5 198.5,136.5 Z"/></g>
<g><path style="opacity:1" fill="#626262" d="M 103.5,139.5 C 103.5,140.5 103.5,141.5 103.5,142.5C 102.5,142.5 101.5,142.5 100.5,142.5C 70.8333,142.5 41.1667,142.5 11.5,142.5C 42.1136,142.122 72.7803,141.122 103.5,139.5 Z"/></g>
<g><path style="opacity:1" fill="#9a9a9a" d="M 11.5,142.5 C 41.1667,142.5 70.8333,142.5 100.5,142.5C 71.1855,144.492 41.5188,145.159 11.5,144.5C 11.5,143.833 11.5,143.167 11.5,142.5 Z"/></g>
<g><path style="opacity:1" fill="#9a9a9a" d="M 195.5,142.5 C 226.167,142.5 256.833,142.5 287.5,142.5C 287.5,143.167 287.5,143.833 287.5,144.5C 256.833,144.5 226.167,144.5 195.5,144.5C 195.5,143.833 195.5,143.167 195.5,142.5 Z"/></g>
<g><path style="opacity:0.749" fill="#f2f2f2" d="M 296.5,139.5 C 297.5,139.5 298.5,139.5 299.5,139.5C 299.5,169.167 299.5,198.833 299.5,228.5C 298.5,228.5 297.5,228.5 296.5,228.5C 296.5,198.833 296.5,169.167 296.5,139.5 Z"/></g>
<g><path style="opacity:1" fill="#c6c6c6" d="M 100.5,142.5 C 101.5,142.5 102.5,142.5 103.5,142.5C 103.5,143.5 103.5,144.5 103.5,145.5C 72.8333,145.5 42.1667,145.5 11.5,145.5C 11.5,145.167 11.5,144.833 11.5,144.5C 41.5188,145.159 71.1855,144.492 100.5,142.5 Z"/></g>
<g><path style="opacity:1" fill="#a7a7a7" d="M 293.5,139.5 C 294.5,139.5 295.5,139.5 296.5,139.5C 296.5,169.167 296.5,198.833 296.5,228.5C 295.5,228.5 294.5,228.5 293.5,228.5C 293.5,198.833 293.5,169.167 293.5,139.5 Z"/></g>
<g><path style="opacity:1" fill="#6a6a6a" d="M 2.5,142.5 C 3.5,142.5 4.5,142.5 5.5,142.5C 5.5,171.167 5.5,199.833 5.5,228.5C 4.5,228.5 3.5,228.5 2.5,228.5C 2.5,199.833 2.5,171.167 2.5,142.5 Z"/></g>
<g><path style="opacity:1" fill="#181818" d="M 5.5,139.5 C 6.5,139.5 7.5,139.5 8.5,139.5C 8.5,141.167 8.5,142.833 8.5,144.5C 8.5,170.5 8.5,196.5 8.5,222.5C 8.5,223.5 8.5,224.5 8.5,225.5C 8.5,226.5 8.5,227.5 8.5,228.5C 7.5,228.5 6.5,228.5 5.5,228.5C 5.5,199.833 5.5,171.167 5.5,142.5C 5.5,141.5 5.5,140.5 5.5,139.5 Z"/></g>
<g><path style="opacity:1" fill="#353535" d="M 287.5,139.5 C 289.5,139.5 291.5,139.5 293.5,139.5C 293.5,169.167 293.5,198.833 293.5,228.5C 292.5,228.5 291.5,228.5 290.5,228.5C 277.124,227.852 264.124,228.519 251.5,230.5C 249.5,230.833 247.5,231.167 245.5,231.5C 245.5,228.5 245.5,225.5 245.5,222.5C 246.5,222.5 247.5,222.5 248.5,222.5C 248.5,223.5 248.5,224.5 248.5,225.5C 261.5,225.5 274.5,225.5 287.5,225.5C 287.5,224.5 287.5,223.5 287.5,222.5C 288.5,222.5 289.5,222.5 290.5,222.5C 290.5,196.5 290.5,170.5 290.5,144.5C 289.5,144.5 288.5,144.5 287.5,144.5C 287.5,143.833 287.5,143.167 287.5,142.5C 287.5,141.5 287.5,140.5 287.5,139.5 Z"/></g>
<g><path style="opacity:1" fill="#a9a9a9" d="M 8.5,144.5 C 9.5,144.5 10.5,144.5 11.5,144.5C 11.5,144.833 11.5,145.167 11.5,145.5C 11.5,170.833 11.5,196.167 11.5,221.5C 11.5,221.833 11.5,222.167 11.5,222.5C 10.5,222.5 9.5,222.5 8.5,222.5C 8.5,196.5 8.5,170.5 8.5,144.5 Z"/></g>
<g><path style="opacity:1" fill="#636363" d="M 287.5,144.5 C 288.5,144.5 289.5,144.5 290.5,144.5C 290.5,170.5 290.5,196.5 290.5,222.5C 289.5,222.5 288.5,222.5 287.5,222.5C 287.5,196.5 287.5,170.5 287.5,144.5 Z"/></g>
<g><path style="opacity:1" fill="#ebebeb" d="M 195.5,144.5 C 226.167,144.5 256.833,144.5 287.5,144.5C 287.5,170.5 287.5,196.5 287.5,222.5C 286.5,222.5 285.5,222.5 284.5,222.5C 273.833,222.5 263.167,222.5 252.5,222.5C 252.167,222.5 251.833,222.5 251.5,222.5C 252.138,213.105 251.471,204.105 249.5,195.5C 249.5,194.5 249.5,193.5 249.5,192.5C 250.5,192.5 251.5,192.5 252.5,192.5C 252.5,202.167 252.5,211.833 252.5,221.5C 263.167,221.5 273.833,221.5 284.5,221.5C 284.5,196.833 284.5,172.167 284.5,147.5C 254.779,148.719 225.112,148.719 195.5,147.5C 195.5,146.5 195.5,145.5 195.5,144.5 Z"/></g>
<g><path style="opacity:1" fill="#818181" d="M 49.5,192.5 C 51.5,192.5 53.5,192.5 55.5,192.5C 55.5,193.5 55.5,194.5 55.5,195.5C 53.8333,195.5 52.1667,195.5 50.5,195.5C 50.5,205.5 50.5,215.5 50.5,225.5C 49.1667,225.5 47.8333,225.5 46.5,225.5C 33.8333,225.5 21.1667,225.5 8.5,225.5C 8.5,224.5 8.5,223.5 8.5,222.5C 9.5,222.5 10.5,222.5 11.5,222.5C 16.9597,223.829 22.793,224.496 29,224.5C 35.207,224.496 41.0403,223.829 46.5,222.5C 46.8333,222.5 47.1667,222.5 47.5,222.5C 49.4711,213.895 50.1377,204.895 49.5,195.5C 49.5,194.5 49.5,193.5 49.5,192.5 Z"/></g>
<g><path style="opacity:1" fill="#c6c6c6" d="M 49.5,195.5 C 50.1377,204.895 49.4711,213.895 47.5,222.5C 46.8623,213.105 47.5289,204.105 49.5,195.5 Z"/></g>
<g><path style="opacity:1" fill="#b4b4b4" d="M 249.5,195.5 C 251.471,204.105 252.138,213.105 251.5,222.5C 249.529,213.895 248.862,204.895 249.5,195.5 Z"/></g>
<g><path style="opacity:1" fill="#e3e3e3" d="M 49.5,192.5 C 49.5,193.5 49.5,194.5 49.5,195.5C 47.5289,204.105 46.8623,213.105 47.5,222.5C 47.1667,222.5 46.8333,222.5 46.5,222.5C 34.8333,222.5 23.1667,222.5 11.5,222.5C 11.5,222.167 11.5,221.833 11.5,221.5C 23.1667,221.5 34.8333,221.5 46.5,221.5C 46.5,211.833 46.5,202.167 46.5,192.5C 47.5,192.5 48.5,192.5 49.5,192.5 Z"/></g>
<g><path style="opacity:1" fill="#aaaaaa" d="M 11.5,222.5 C 23.1667,222.5 34.8333,222.5 46.5,222.5C 41.0403,223.829 35.207,224.496 29,224.5C 22.793,224.496 16.9597,223.829 11.5,222.5 Z"/></g>
<g><path style="opacity:1" fill="#898989" d="M 243.5,192.5 C 245.5,192.5 247.5,192.5 249.5,192.5C 249.5,193.5 249.5,194.5 249.5,195.5C 248.862,204.895 249.529,213.895 251.5,222.5C 251.833,222.5 252.167,222.5 252.5,222.5C 257.456,223.828 262.789,224.495 268.5,224.5C 274.211,224.495 279.544,223.828 284.5,222.5C 285.5,222.5 286.5,222.5 287.5,222.5C 287.5,223.5 287.5,224.5 287.5,225.5C 274.5,225.5 261.5,225.5 248.5,225.5C 248.5,224.5 248.5,223.5 248.5,222.5C 248.5,213.5 248.5,204.5 248.5,195.5C 246.833,195.5 245.167,195.5 243.5,195.5C 243.5,194.5 243.5,193.5 243.5,192.5 Z"/></g>
<g><path style="opacity:1" fill="#aaaaaa" d="M 252.5,222.5 C 263.167,222.5 273.833,222.5 284.5,222.5C 279.544,223.828 274.211,224.495 268.5,224.5C 262.789,224.495 257.456,223.828 252.5,222.5 Z"/></g>
<g><path style="opacity:1" fill="#464646" d="M 8.5,225.5 C 21.1667,225.5 33.8333,225.5 46.5,225.5C 46.6287,227.216 46.962,228.883 47.5,230.5C 33.1267,231.149 19.1267,230.482 5.5,228.5C 6.5,228.5 7.5,228.5 8.5,228.5C 8.5,227.5 8.5,226.5 8.5,225.5 Z"/></g>
<g><path style="opacity:1" fill="#525252" d="M 290.5,228.5 C 277.876,230.481 264.876,231.148 251.5,230.5C 264.124,228.519 277.124,227.852 290.5,228.5 Z"/></g>
<g><path style="opacity:0.983" fill="#fdfdfd" d="M 293.5,228.5 C 294.5,228.5 295.5,228.5 296.5,228.5C 297.5,228.5 298.5,228.5 299.5,228.5C 299.5,252.167 299.5,275.833 299.5,299.5C 283.5,299.5 267.5,299.5 251.5,299.5C 251.169,277.66 251.503,255.994 252.5,234.5C 266.167,234.5 279.833,234.5 293.5,234.5C 293.5,233.5 293.5,232.5 293.5,231.5C 293.5,230.5 293.5,229.5 293.5,228.5 Z"/></g>
<g><path style="opacity:1" fill="#8a8a8a" d="M 2.5,228.5 C 3.5,228.5 4.5,228.5 5.5,228.5C 19.1267,230.482 33.1267,231.149 47.5,230.5C 48.4916,230.328 49.1583,230.662 49.5,231.5C 48.5,231.5 47.5,231.5 46.5,231.5C 31.8333,231.5 17.1667,231.5 2.5,231.5C 2.5,230.5 2.5,229.5 2.5,228.5 Z"/></g>
<g><path style="opacity:1" fill="#888888" d="M 290.5,228.5 C 291.5,228.5 292.5,228.5 293.5,228.5C 293.5,229.5 293.5,230.5 293.5,231.5C 279.833,231.5 266.167,231.5 252.5,231.5C 252.167,231.5 251.833,231.5 251.5,231.5C 251.5,231.167 251.5,230.833 251.5,230.5C 264.876,231.148 277.876,230.481 290.5,228.5 Z"/></g>
<g><path style="opacity:1" fill="#e4e4e4" d="M 2.5,231.5 C 17.1667,231.5 31.8333,231.5 46.5,231.5C 46.5,232.5 46.5,233.5 46.5,234.5C 31.8333,234.5 17.1667,234.5 2.5,234.5C 2.5,233.5 2.5,232.5 2.5,231.5 Z"/></g>
<g><path style="opacity:1" fill="#bbbbbb" d="M 243.5,192.5 C 243.5,193.5 243.5,194.5 243.5,195.5C 243.5,230.167 243.5,264.833 243.5,299.5C 242.5,299.5 241.5,299.5 240.5,299.5C 240.5,263.833 240.5,228.167 240.5,192.5C 241.5,192.5 242.5,192.5 243.5,192.5 Z"/></g>
<g><path style="opacity:1" fill="#e4e4e4" d="M 252.5,231.5 C 266.167,231.5 279.833,231.5 293.5,231.5C 293.5,232.5 293.5,233.5 293.5,234.5C 279.833,234.5 266.167,234.5 252.5,234.5C 252.5,233.5 252.5,232.5 252.5,231.5 Z"/></g>
<g><path style="opacity:1" fill="#cecece" d="M 55.5,192.5 C 56.5,192.5 57.5,192.5 58.5,192.5C 58.5,228.167 58.5,263.833 58.5,299.5C 57.5,299.5 56.5,299.5 55.5,299.5C 55.5,264.833 55.5,230.167 55.5,195.5C 55.5,194.5 55.5,193.5 55.5,192.5 Z"/></g>
<g><path style="opacity:1" fill="#575757" d="M 243.5,195.5 C 245.167,195.5 246.833,195.5 248.5,195.5C 248.5,204.5 248.5,213.5 248.5,222.5C 247.5,222.5 246.5,222.5 245.5,222.5C 245.5,225.5 245.5,228.5 245.5,231.5C 247.5,231.167 249.5,230.833 251.5,230.5C 251.5,230.833 251.5,231.167 251.5,231.5C 249.51,253.809 248.844,276.475 249.5,299.5C 247.5,299.5 245.5,299.5 243.5,299.5C 243.5,264.833 243.5,230.167 243.5,195.5 Z"/></g>
<g><path style="opacity:1" fill="#b4b4b4" d="M 251.5,231.5 C 251.833,231.5 252.167,231.5 252.5,231.5C 252.5,232.5 252.5,233.5 252.5,234.5C 251.503,255.994 251.169,277.66 251.5,299.5C 250.833,299.5 250.167,299.5 249.5,299.5C 248.844,276.475 249.51,253.809 251.5,231.5 Z"/></g>
<g><path style="opacity:1" fill="#353535" d="M 55.5,195.5 C 55.5,230.167 55.5,264.833 55.5,299.5C 53.8333,299.5 52.1667,299.5 50.5,299.5C 50.8308,276.661 50.4975,253.994 49.5,231.5C 49.1583,230.662 48.4916,230.328 47.5,230.5C 46.962,228.883 46.6287,227.216 46.5,225.5C 47.8333,225.5 49.1667,225.5 50.5,225.5C 50.5,215.5 50.5,205.5 50.5,195.5C 52.1667,195.5 53.8333,195.5 55.5,195.5 Z"/></g>
<g><path style="opacity:1" fill="#b3b3b3" d="M 46.5,231.5 C 47.5,231.5 48.5,231.5 49.5,231.5C 50.4975,253.994 50.8308,276.661 50.5,299.5C 49.5,299.5 48.5,299.5 47.5,299.5C 47.8307,277.66 47.4973,255.994 46.5,234.5C 46.5,233.5 46.5,232.5 46.5,231.5 Z"/></g>
</svg>
