<?xml version="1.0" encoding="UTF-8"?>
<!DOCTYPE svg PUBLIC "-//W3C//DTD SVG 1.1//EN" "http://www.w3.org/Graphics/SVG/1.1/DTD/svg11.dtd">
<svg xmlns="http://www.w3.org/2000/svg" version="1.1" width="300px" height="300px" style="shape-rendering:geometricPrecision; text-rendering:geometricPrecision; image-rendering:optimizeQuality; fill-rule:evenodd; clip-rule:evenodd" xmlns:xlink="http://www.w3.org/1999/xlink">
<g><path style="opacity:0.987" fill="#fefefe" d="M -0.5,-0.5 C 99.5,-0.5 199.5,-0.5 299.5,-0.5C 299.5,46.1667 299.5,92.8333 299.5,139.5C 298.5,139.5 297.5,139.5 296.5,139.5C 296.5,137.5 296.5,135.5 296.5,133.5C 295.5,133.5 294.5,133.5 293.5,133.5C 264.005,132.502 234.338,132.169 204.5,132.5C 204.5,122.833 204.5,113.167 204.5,103.5C 210.5,103.5 216.5,103.5 222.5,103.5C 224.5,103.5 226.5,103.5 228.5,103.5C 228.5,78.8333 228.5,54.1667 228.5,29.5C 227.5,29.5 226.5,29.5 225.5,29.5C 225.5,28.5 225.5,27.5 225.5,26.5C 175.833,26.5 126.167,26.5 76.5,26.5C 76.5,27.5 76.5,28.5 76.5,29.5C 75.5,29.5 74.5,29.5 73.5,29.5C 72.5,29.5 71.5,29.5 70.5,29.5C 70.5,53.1667 70.5,76.8333 70.5,100.5C 71.5,100.5 72.5,100.5 73.5,100.5C 74.5,100.5 75.5,100.5 76.5,100.5C 76.5,101.5 76.5,102.5 76.5,103.5C 83.5,103.5 90.5,103.5 97.5,103.5C 97.5,113.5 97.5,123.5 97.5,133.5C 66.8333,133.5 36.1667,133.5 5.5,133.5C 5.5,134.5 5.5,135.5 5.5,136.5C 5.5,137.5 5.5,138.5 5.5,139.5C 4.5,139.5 3.5,139.5 2.5,139.5C 1.5,139.5 0.5,139.5 -0.5,139.5C -0.5,92.8333 -0.5,46.1667 -0.5,-0.5 Z"/></g>
<g><path style="opacity:1" fill="#adadad" d="M 225.5,29.5 C 225.5,30.5 225.5,31.5 225.5,32.5C 225.167,32.5 224.833,32.5 224.5,32.5C 223.833,32.5 223.167,32.5 222.5,32.5C 222.5,32.1667 222.5,31.8333 222.5,31.5C 174.178,29.5047 125.511,28.838 76.5,29.5C 76.5,28.5 76.5,27.5 76.5,26.5C 126.167,26.5 175.833,26.5 225.5,26.5C 225.5,27.5 225.5,28.5 225.5,29.5 Z"/></g>
<g><path style="opacity:1" fill="#595959" d="M 76.5,29.5 C 125.511,28.838 174.178,29.5047 222.5,31.5C 220.5,31.5 218.5,31.5 216.5,31.5C 216.5,32.8333 216.5,34.1667 216.5,35.5C 171.833,35.5 127.167,35.5 82.5,35.5C 81.5,35.5 80.5,35.5 79.5,35.5C 79.5,34.5 79.5,33.5 79.5,32.5C 78.5,32.5 77.5,32.5 76.5,32.5C 76.5,31.5 76.5,30.5 76.5,29.5 Z"/></g>
<g><path style="opacity:1" fill="#848484" d="M 73.5,29.5 C 74.5,29.5 75.5,29.5 76.5,29.5C 76.5,30.5 76.5,31.5 76.5,32.5C 75.1678,42.9788 74.5012,53.8121 74.5,65C 74.5012,76.1879 75.1678,87.0212 76.5,97.5C 76.5,98.5 76.5,99.5 76.5,100.5C 75.5,100.5 74.5,100.5 73.5,100.5C 73.5,76.8333 73.5,53.1667 73.5,29.5 Z"/></g>
<g><path style="opacity:1" fill="#c9c9c9" d="M 82.5,35.5 C 127.167,35.5 171.833,35.5 216.5,35.5C 216.5,36.5 216.5,37.5 216.5,38.5C 171.833,38.5 127.167,38.5 82.5,38.5C 82.5,37.5 82.5,36.5 82.5,35.5 Z"/></g>
<g><path style="opacity:1" fill="#e9e9e9" d="M 73.5,29.5 C 73.5,53.1667 73.5,76.8333 73.5,100.5C 72.5,100.5 71.5,100.5 70.5,100.5C 70.5,76.8333 70.5,53.1667 70.5,29.5C 71.5,29.5 72.5,29.5 73.5,29.5 Z"/></g>
<g><path style="opacity:1" fill="#fcfcfc" d="M 82.5,38.5 C 127.167,38.5 171.833,38.5 216.5,38.5C 216.5,56.1667 216.5,73.8333 216.5,91.5C 216.5,92.5 216.5,93.5 216.5,94.5C 212.5,94.5 208.5,94.5 204.5,94.5C 204.5,80.5 204.5,66.5 204.5,52.5C 202.42,51.9556 200.42,51.1223 198.5,50C 165.835,49.5 133.168,49.3334 100.5,49.5C 100.5,50.5 100.5,51.5 100.5,52.5C 99.5,52.5 98.5,52.5 97.5,52.5C 97.5,66.5 97.5,80.5 97.5,94.5C 92.5,94.5 87.5,94.5 82.5,94.5C 82.5,93.5 82.5,92.5 82.5,91.5C 82.5,73.8333 82.5,56.1667 82.5,38.5 Z"/></g>
<g><path style="opacity:1" fill="#3b3b3b" d="M 222.5,31.5 C 222.5,31.8333 222.5,32.1667 222.5,32.5C 222.5,54.1667 222.5,75.8333 222.5,97.5C 222.5,98.5 222.5,99.5 222.5,100.5C 222.167,100.5 221.833,100.5 221.5,100.5C 221.975,97.9179 221.308,95.9179 219.5,94.5C 219.5,74.8333 219.5,55.1667 219.5,35.5C 218.5,35.5 217.5,35.5 216.5,35.5C 216.5,34.1667 216.5,32.8333 216.5,31.5C 218.5,31.5 220.5,31.5 222.5,31.5 Z"/></g>
<g><path style="opacity:1" fill="#929292" d="M 79.5,35.5 C 80.5,35.5 81.5,35.5 82.5,35.5C 82.5,36.5 82.5,37.5 82.5,38.5C 81.1685,46.9738 80.5018,55.8071 80.5,65C 80.5018,74.1929 81.1685,83.0262 82.5,91.5C 82.5,92.5 82.5,93.5 82.5,94.5C 81.5,94.5 80.5,94.5 79.5,94.5C 79.5,74.8333 79.5,55.1667 79.5,35.5 Z"/></g>
<g><path style="opacity:1" fill="#9b9b9b" d="M 216.5,35.5 C 217.5,35.5 218.5,35.5 219.5,35.5C 219.5,55.1667 219.5,74.8333 219.5,94.5C 218.5,94.5 217.5,94.5 216.5,94.5C 216.5,93.5 216.5,92.5 216.5,91.5C 217.832,83.0262 218.498,74.1929 218.5,65C 218.498,55.8071 217.832,46.9738 216.5,38.5C 216.5,37.5 216.5,36.5 216.5,35.5 Z"/></g>
<g><path style="opacity:1" fill="#bfbfbf" d="M 216.5,38.5 C 217.832,46.9738 218.498,55.8071 218.5,65C 218.498,74.1929 217.832,83.0262 216.5,91.5C 216.5,73.8333 216.5,56.1667 216.5,38.5 Z"/></g>
<g><path style="opacity:1" fill="#d9d9d9" d="M 225.5,29.5 C 226.5,29.5 227.5,29.5 228.5,29.5C 228.5,54.1667 228.5,78.8333 228.5,103.5C 226.5,103.5 224.5,103.5 222.5,103.5C 222.5,102.5 222.5,101.5 222.5,100.5C 223.5,100.5 224.5,100.5 225.5,100.5C 225.5,99.5 225.5,98.5 225.5,97.5C 226.832,87.0212 227.499,76.1879 227.5,65C 227.499,53.8121 226.832,42.9788 225.5,32.5C 225.5,31.5 225.5,30.5 225.5,29.5 Z"/></g>
<g><path style="opacity:1" fill="#383838" d="M 76.5,32.5 C 77.5,32.5 78.5,32.5 79.5,32.5C 79.5,33.5 79.5,34.5 79.5,35.5C 79.5,55.1667 79.5,74.8333 79.5,94.5C 80.5,94.5 81.5,94.5 82.5,94.5C 82.5,95.5 82.5,96.5 82.5,97.5C 81.5,97.5 80.5,97.5 79.5,97.5C 79.5,98.5 79.5,99.5 79.5,100.5C 78.5,100.5 77.5,100.5 76.5,100.5C 76.5,99.5 76.5,98.5 76.5,97.5C 76.5,75.8333 76.5,54.1667 76.5,32.5 Z"/></g>
<g><path style="opacity:1" fill="#b4b4b4" d="M 82.5,38.5 C 82.5,56.1667 82.5,73.8333 82.5,91.5C 81.1685,83.0262 80.5018,74.1929 80.5,65C 80.5018,55.8071 81.1685,46.9738 82.5,38.5 Z"/></g>
<g><path style="opacity:1" fill="#636363" d="M 222.5,32.5 C 223.167,32.5 223.833,32.5 224.5,32.5C 225.156,54.5258 224.489,76.1924 222.5,97.5C 222.5,75.8333 222.5,54.1667 222.5,32.5 Z"/></g>
<g><path style="opacity:1" fill="#7c7c7c" d="M 224.5,32.5 C 224.833,32.5 225.167,32.5 225.5,32.5C 225.5,54.1667 225.5,75.8333 225.5,97.5C 225.5,98.5 225.5,99.5 225.5,100.5C 224.5,100.5 223.5,100.5 222.5,100.5C 222.5,99.5 222.5,98.5 222.5,97.5C 224.489,76.1924 225.156,54.5258 224.5,32.5 Z"/></g>
<g><path style="opacity:1" fill="#c7c7c7" d="M 225.5,32.5 C 226.832,42.9788 227.499,53.8121 227.5,65C 227.499,76.1879 226.832,87.0212 225.5,97.5C 225.5,75.8333 225.5,54.1667 225.5,32.5 Z"/></g>
<g><path style="opacity:1" fill="#5d5d5d" d="M 76.5,32.5 C 76.5,54.1667 76.5,75.8333 76.5,97.5C 75.1678,87.0212 74.5012,76.1879 74.5,65C 74.5012,53.8121 75.1678,42.9788 76.5,32.5 Z"/></g>
<g><path style="opacity:1" fill="#444444" d="M 198.5,53.5 C 198.5,67.1667 198.5,80.8333 198.5,94.5C 197.5,94.5 196.5,94.5 195.5,94.5C 195.5,82.5 195.5,70.5 195.5,58.5C 165.833,58.5 136.167,58.5 106.5,58.5C 106.5,57.5 106.5,56.5 106.5,55.5C 104.5,55.5 102.5,55.5 100.5,55.5C 132.816,53.5071 165.483,52.8405 198.5,53.5 Z"/></g>
<g><path style="opacity:1" fill="#bfbfbf" d="M 106.5,59.5 C 135.519,58.8415 164.186,59.5082 192.5,61.5C 185.5,61.5 178.5,61.5 171.5,61.5C 171.5,62.5 171.5,63.5 171.5,64.5C 168.518,64.1044 165.851,64.7711 163.5,66.5C 164.853,67.5237 165.52,68.857 165.5,70.5C 163.821,70.7148 162.821,70.0481 162.5,68.5C 162.5,66.1667 162.5,63.8333 162.5,61.5C 154.5,61.5 146.5,61.5 138.5,61.5C 138.975,64.0821 138.308,66.0821 136.5,67.5C 136.5,66.5 136.5,65.5 136.5,64.5C 134.5,64.5 132.5,64.5 130.5,64.5C 130.5,63.5 130.5,62.5 130.5,61.5C 122.5,61.5 114.5,61.5 106.5,61.5C 106.5,60.8333 106.5,60.1667 106.5,59.5 Z"/></g>
<g><path style="opacity:1" fill="#646464" d="M 198.5,53.5 C 199.5,53.5 200.5,53.5 201.5,53.5C 201.5,67.1667 201.5,80.8333 201.5,94.5C 200.5,94.5 199.5,94.5 198.5,94.5C 198.5,80.8333 198.5,67.1667 198.5,53.5 Z"/></g>
<g><path style="opacity:1" fill="#e2e2e2" d="M 162.5,68.5 C 161.5,68.5 160.5,68.5 159.5,68.5C 159.5,66.5 159.5,64.5 159.5,62.5C 152.833,62.5 146.167,62.5 139.5,62.5C 139.5,65.1667 139.5,67.8333 139.5,70.5C 138.5,70.5 137.5,70.5 136.5,70.5C 136.5,69.5 136.5,68.5 136.5,67.5C 138.308,66.0821 138.975,64.0821 138.5,61.5C 146.5,61.5 154.5,61.5 162.5,61.5C 162.5,63.8333 162.5,66.1667 162.5,68.5 Z"/></g>
<g><path style="opacity:1" fill="#e0e0e0" d="M 204.5,94.5 C 203.5,94.5 202.5,94.5 201.5,94.5C 201.5,80.8333 201.5,67.1667 201.5,53.5C 200.5,53.5 199.5,53.5 198.5,53.5C 166.004,52.5017 133.338,52.1684 100.5,52.5C 100.5,51.5 100.5,50.5 100.5,49.5C 133.168,49.3334 165.835,49.5 198.5,50C 200.42,51.1223 202.42,51.9556 204.5,52.5C 204.5,66.5 204.5,80.5 204.5,94.5 Z"/></g>
<g><path style="opacity:1" fill="#fefefe" d="M 106.5,62.5 C 111.111,63.4851 115.778,64.1518 120.5,64.5C 119.833,66.5 119.167,68.5 118.5,70.5C 117.5,70.5 116.5,70.5 115.5,70.5C 115.11,73.4658 115.777,76.1324 117.5,78.5C 116.147,79.5237 115.48,80.857 115.5,82.5C 115.5,88.5 115.5,94.5 115.5,100.5C 116.5,100.5 117.5,100.5 118.5,100.5C 118.5,101.5 118.5,102.5 118.5,103.5C 125.5,103.5 132.5,103.5 139.5,103.5C 139.327,106.983 140.327,109.983 142.5,112.5C 147.167,112.5 151.833,112.5 156.5,112.5C 157.833,112.5 159.167,112.5 160.5,112.5C 159.945,108.988 160.612,105.988 162.5,103.5C 168.5,103.5 174.5,103.5 180.5,103.5C 182.5,103.5 184.5,103.5 186.5,103.5C 186.5,96.5 186.5,89.5 186.5,82.5C 185.5,82.5 184.5,82.5 183.5,82.5C 183.5,81.5 183.5,80.5 183.5,79.5C 175.5,79.5 167.5,79.5 159.5,79.5C 159.5,80.5 159.5,81.5 159.5,82.5C 158.5,82.5 157.5,82.5 156.5,82.5C 156.5,88.5 156.5,94.5 156.5,100.5C 155.5,100.5 154.5,100.5 153.5,100.5C 153.5,101.5 153.5,102.5 153.5,103.5C 151.833,103.5 150.167,103.5 148.5,103.5C 148.5,102.5 148.5,101.5 148.5,100.5C 146.5,100.5 144.5,100.5 142.5,100.5C 142.823,94.31 142.49,88.31 141.5,82.5C 140.833,82.5 140.167,82.5 139.5,82.5C 139.5,81.5 139.5,80.5 139.5,79.5C 133.5,79.5 127.5,79.5 121.5,79.5C 122.1,78.1001 123.1,77.1001 124.5,76.5C 127.875,76.2179 131.042,75.2179 134,73.5C 135.31,72.8699 136.144,71.8699 136.5,70.5C 137.5,70.5 138.5,70.5 139.5,70.5C 139.5,67.8333 139.5,65.1667 139.5,62.5C 146.167,62.5 152.833,62.5 159.5,62.5C 159.5,64.5 159.5,66.5 159.5,68.5C 160.5,68.5 161.5,68.5 162.5,68.5C 162.821,70.0481 163.821,70.7148 165.5,70.5C 166.5,70.5 167.5,70.5 168.5,70.5C 168.5,71.5 168.5,72.5 168.5,73.5C 169.5,73.5 170.5,73.5 171.5,73.5C 172.5,73.5 173.5,73.5 174.5,73.5C 174.5,74.5 174.5,75.5 174.5,76.5C 175.5,76.5 176.5,76.5 177.5,76.5C 178.5,76.5 179.5,76.5 180.5,76.5C 181.5,76.5 182.5,76.5 183.5,76.5C 183.5,74.5 183.5,72.5 183.5,70.5C 183.5,69.5 183.5,68.5 183.5,67.5C 182.5,67.5 181.5,67.5 180.5,67.5C 180.5,65.8333 180.5,64.1667 180.5,62.5C 184.5,62.5 188.5,62.5 192.5,62.5C 192.5,89.1667 192.5,115.833 192.5,142.5C 193.5,142.5 194.5,142.5 195.5,142.5C 195.5,143.5 195.5,144.5 195.5,145.5C 226.167,145.5 256.833,145.5 287.5,145.5C 287.5,170.833 287.5,196.167 287.5,221.5C 275.833,221.5 264.167,221.5 252.5,221.5C 252.5,211.833 252.5,202.167 252.5,192.5C 251.5,192.5 250.5,192.5 249.5,192.5C 247.5,192.5 245.5,192.5 243.5,192.5C 242.5,192.5 241.5,192.5 240.5,192.5C 240.5,228.167 240.5,263.833 240.5,299.5C 180.167,299.5 119.833,299.5 59.5,299.5C 59.5,263.833 59.5,228.167 59.5,192.5C 58.1667,192.5 56.8333,192.5 55.5,192.5C 53.5,192.5 51.5,192.5 49.5,192.5C 48.5,192.5 47.5,192.5 46.5,192.5C 46.5,202.167 46.5,211.833 46.5,221.5C 35.8333,221.5 25.1667,221.5 14.5,221.5C 14.5,196.833 14.5,172.167 14.5,147.5C 43.9859,145.836 73.6526,144.836 103.5,144.5C 103.5,143.833 103.5,143.167 103.5,142.5C 104.5,142.5 105.5,142.5 106.5,142.5C 106.5,115.833 106.5,89.1667 106.5,62.5 Z"/></g>
<g><path style="opacity:1" fill="#e9e9e9" d="M 106.5,62.5 C 106.5,62.1667 106.5,61.8333 106.5,61.5C 114.5,61.5 122.5,61.5 130.5,61.5C 130.5,62.5 130.5,63.5 130.5,64.5C 129.5,64.5 128.5,64.5 127.5,64.5C 127.5,65.5 127.5,66.5 127.5,67.5C 125.5,67.5 123.5,67.5 121.5,67.5C 121.5,68.5 121.5,69.5 121.5,70.5C 120.5,70.5 119.5,70.5 118.5,70.5C 119.167,68.5 119.833,66.5 120.5,64.5C 115.778,64.1518 111.111,63.4851 106.5,62.5 Z"/></g>
<g><path style="opacity:1" fill="#e4e4e4" d="M 192.5,61.5 C 192.5,61.8333 192.5,62.1667 192.5,62.5C 188.5,62.5 184.5,62.5 180.5,62.5C 180.5,64.1667 180.5,65.8333 180.5,67.5C 181.5,67.5 182.5,67.5 183.5,67.5C 183.5,68.5 183.5,69.5 183.5,70.5C 182.5,70.5 181.5,70.5 180.5,70.5C 179.5,70.5 178.5,70.5 177.5,70.5C 177.5,69.5 177.5,68.5 177.5,67.5C 175.5,67.5 173.5,67.5 171.5,67.5C 171.5,66.5 171.5,65.5 171.5,64.5C 171.5,63.5 171.5,62.5 171.5,61.5C 178.5,61.5 185.5,61.5 192.5,61.5 Z"/></g>
<g><path style="opacity:1" fill="#727272" d="M 130.5,64.5 C 132.5,64.5 134.5,64.5 136.5,64.5C 136.5,65.5 136.5,66.5 136.5,67.5C 136.5,68.5 136.5,69.5 136.5,70.5C 135.5,70.5 134.5,70.5 133.5,70.5C 134.502,68.9891 135.169,67.3224 135.5,65.5C 132.692,65.6933 130.025,66.36 127.5,67.5C 127.5,66.5 127.5,65.5 127.5,64.5C 128.5,64.5 129.5,64.5 130.5,64.5 Z"/></g>
<g><path style="opacity:1" fill="#979797" d="M 106.5,59.5 C 106.5,59.1667 106.5,58.8333 106.5,58.5C 136.167,58.5 165.833,58.5 195.5,58.5C 195.5,70.5 195.5,82.5 195.5,94.5C 195.5,97.5 195.5,100.5 195.5,103.5C 195.5,115.5 195.5,127.5 195.5,139.5C 195.5,140.5 195.5,141.5 195.5,142.5C 194.5,142.5 193.5,142.5 192.5,142.5C 192.5,115.833 192.5,89.1667 192.5,62.5C 192.5,62.1667 192.5,61.8333 192.5,61.5C 164.186,59.5082 135.519,58.8415 106.5,59.5 Z"/></g>
<g><path style="opacity:1" fill="#323232" d="M 133.5,70.5 C 132.5,70.5 131.5,70.5 130.5,70.5C 129.5,70.5 128.5,70.5 127.5,70.5C 127.5,71.5 127.5,72.5 127.5,73.5C 126.5,73.5 125.5,73.5 124.5,73.5C 123.5,73.5 122.5,73.5 121.5,73.5C 121.5,72.5 121.5,71.5 121.5,70.5C 123.784,69.9708 125.784,68.9708 127.5,67.5C 130.025,66.36 132.692,65.6933 135.5,65.5C 135.169,67.3224 134.502,68.9891 133.5,70.5 Z"/></g>
<g><path style="opacity:1" fill="#5f5f5f" d="M 171.5,64.5 C 171.5,65.5 171.5,66.5 171.5,67.5C 169.857,67.5198 168.524,66.8532 167.5,65.5C 167.167,66 166.833,66.5 166.5,67C 167.429,68.0769 168.096,69.2436 168.5,70.5C 167.5,70.5 166.5,70.5 165.5,70.5C 165.52,68.857 164.853,67.5237 163.5,66.5C 165.851,64.7711 168.518,64.1044 171.5,64.5 Z"/></g>
<g><path style="opacity:1" fill="#787878" d="M 127.5,67.5 C 125.784,68.9708 123.784,69.9708 121.5,70.5C 121.5,69.5 121.5,68.5 121.5,67.5C 123.5,67.5 125.5,67.5 127.5,67.5 Z"/></g>
<g><path style="opacity:1" fill="#7e7e7e" d="M 130.5,70.5 C 130.5,71.5 130.5,72.5 130.5,73.5C 129.5,73.5 128.5,73.5 127.5,73.5C 127.5,72.5 127.5,71.5 127.5,70.5C 128.5,70.5 129.5,70.5 130.5,70.5 Z"/></g>
<g><path style="opacity:1" fill="#9a9a9a" d="M 168.5,70.5 C 169.5,70.5 170.5,70.5 171.5,70.5C 171.5,71.5 171.5,72.5 171.5,73.5C 171.5,72.5 171.5,71.5 171.5,70.5C 170.5,70.5 169.5,70.5 168.5,70.5 Z"/></g>
<g><path style="opacity:1" fill="#444444" d="M 171.5,67.5 C 173.5,67.5 175.5,67.5 177.5,67.5C 177.5,68.5 177.5,69.5 177.5,70.5C 178.5,70.5 179.5,70.5 180.5,70.5C 180.5,72.5 180.5,74.5 180.5,76.5C 179.5,76.5 178.5,76.5 177.5,76.5C 176.5,76.5 175.5,76.5 174.5,76.5C 174.5,75.5 174.5,74.5 174.5,73.5C 173.5,73.5 172.5,73.5 171.5,73.5C 171.5,72.5 171.5,71.5 171.5,70.5C 170.5,70.5 169.5,70.5 168.5,70.5C 168.096,69.2436 167.429,68.0769 166.5,67C 166.833,66.5 167.167,66 167.5,65.5C 168.524,66.8532 169.857,67.5198 171.5,67.5 Z"/></g>
<g><path style="opacity:1" fill="#515151" d="M 118.5,70.5 C 119.5,70.5 120.5,70.5 121.5,70.5C 121.5,71.5 121.5,72.5 121.5,73.5C 122.5,73.5 123.5,73.5 124.5,73.5C 124.5,74.5 124.5,75.5 124.5,76.5C 122.5,76.5 120.5,76.5 118.5,76.5C 118.5,74.5 118.5,72.5 118.5,70.5 Z"/></g>
<g><path style="opacity:1" fill="#767676" d="M 180.5,70.5 C 181.5,70.5 182.5,70.5 183.5,70.5C 183.5,72.5 183.5,74.5 183.5,76.5C 182.5,76.5 181.5,76.5 180.5,76.5C 180.5,74.5 180.5,72.5 180.5,70.5 Z"/></g>
<g><path style="opacity:1" fill="#d8d8d8" d="M 130.5,70.5 C 131.5,70.5 132.5,70.5 133.5,70.5C 134.5,70.5 135.5,70.5 136.5,70.5C 136.144,71.8699 135.31,72.8699 134,73.5C 131.042,75.2179 127.875,76.2179 124.5,76.5C 124.5,75.5 124.5,74.5 124.5,73.5C 125.5,73.5 126.5,73.5 127.5,73.5C 128.5,73.5 129.5,73.5 130.5,73.5C 130.5,72.5 130.5,71.5 130.5,70.5 Z"/></g>
<g><path style="opacity:1" fill="#8f8f8f" d="M 174.5,73.5 C 175.5,73.5 176.5,73.5 177.5,73.5C 177.5,74.5 177.5,75.5 177.5,76.5C 177.5,75.5 177.5,74.5 177.5,73.5C 176.5,73.5 175.5,73.5 174.5,73.5 Z"/></g>
<g><path style="opacity:1" fill="#909090" d="M 100.5,52.5 C 133.338,52.1684 166.004,52.5017 198.5,53.5C 165.483,52.8405 132.816,53.5071 100.5,55.5C 100.5,68.5 100.5,81.5 100.5,94.5C 99.5,94.5 98.5,94.5 97.5,94.5C 97.5,80.5 97.5,66.5 97.5,52.5C 98.5,52.5 99.5,52.5 100.5,52.5 Z"/></g>
<g><path style="opacity:1" fill="#aeaeae" d="M 183.5,82.5 C 182.5,82.5 181.5,82.5 180.5,82.5C 177.913,81.1836 174.913,80.517 171.5,80.5C 168.087,80.517 165.087,81.1836 162.5,82.5C 161.833,82.5 161.167,82.5 160.5,82.5C 160.167,82.5 159.833,82.5 159.5,82.5C 159.5,81.5 159.5,80.5 159.5,79.5C 167.5,79.5 175.5,79.5 183.5,79.5C 183.5,80.5 183.5,81.5 183.5,82.5 Z"/></g>
<g><path style="opacity:1" fill="#cacaca" d="M 118.5,70.5 C 118.5,72.5 118.5,74.5 118.5,76.5C 120.5,76.5 122.5,76.5 124.5,76.5C 123.1,77.1001 122.1,78.1001 121.5,79.5C 120.5,79.5 119.5,79.5 118.5,79.5C 118.5,80.5 118.5,81.5 118.5,82.5C 117.5,82.5 116.5,82.5 115.5,82.5C 115.48,80.857 116.147,79.5237 117.5,78.5C 115.777,76.1324 115.11,73.4658 115.5,70.5C 116.5,70.5 117.5,70.5 118.5,70.5 Z"/></g>
<g><path style="opacity:1" fill="#929292" d="M 121.5,79.5 C 127.5,79.5 133.5,79.5 139.5,79.5C 139.5,80.5 139.5,81.5 139.5,82.5C 132.5,82.5 125.5,82.5 118.5,82.5C 118.5,81.5 118.5,80.5 118.5,79.5C 119.5,79.5 120.5,79.5 121.5,79.5 Z"/></g>
<g><path style="opacity:1" fill="#8c8c8c" d="M 180.5,82.5 C 174.5,82.5 168.5,82.5 162.5,82.5C 165.087,81.1836 168.087,80.517 171.5,80.5C 174.913,80.517 177.913,81.1836 180.5,82.5 Z"/></g>
<g><path style="opacity:1" fill="#dbdbdb" d="M 183.5,82.5 C 184.5,82.5 185.5,82.5 186.5,82.5C 186.5,89.5 186.5,96.5 186.5,103.5C 184.5,103.5 182.5,103.5 180.5,103.5C 180.5,102.5 180.5,101.5 180.5,100.5C 181.5,100.5 182.5,100.5 183.5,100.5C 183.5,94.5 183.5,88.5 183.5,82.5 Z"/></g>
<g><path style="opacity:1" fill="#8f8f8f" d="M 115.5,82.5 C 116.5,82.5 117.5,82.5 118.5,82.5C 118.5,88.5 118.5,94.5 118.5,100.5C 117.5,100.5 116.5,100.5 115.5,100.5C 115.5,94.5 115.5,88.5 115.5,82.5 Z"/></g>
<g><path style="opacity:1" fill="#818181" d="M 139.5,82.5 C 140.167,82.5 140.833,82.5 141.5,82.5C 142.12,88.9262 141.453,94.9262 139.5,100.5C 139.5,94.5 139.5,88.5 139.5,82.5 Z"/></g>
<g><path style="opacity:1" fill="#6f6f6f" d="M 159.5,82.5 C 159.833,82.5 160.167,82.5 160.5,82.5C 159.892,87.9443 160.558,92.9443 162.5,97.5C 162.5,98.5 162.5,99.5 162.5,100.5C 161.5,100.5 160.5,100.5 159.5,100.5C 159.5,94.5 159.5,88.5 159.5,82.5 Z"/></g>
<g><path style="opacity:1" fill="#404040" d="M 160.5,82.5 C 161.167,82.5 161.833,82.5 162.5,82.5C 162.5,87.5 162.5,92.5 162.5,97.5C 160.558,92.9443 159.892,87.9443 160.5,82.5 Z"/></g>
<g><path style="opacity:1" fill="#4f4f4f" d="M 180.5,82.5 C 181.5,82.5 182.5,82.5 183.5,82.5C 183.5,88.5 183.5,94.5 183.5,100.5C 182.5,100.5 181.5,100.5 180.5,100.5C 180.5,98.5 180.5,96.5 180.5,94.5C 179.5,94.5 178.5,94.5 177.5,94.5C 177.5,92.5 177.5,90.5 177.5,88.5C 178.5,88.5 179.5,88.5 180.5,88.5C 180.5,86.5 180.5,84.5 180.5,82.5 Z"/></g>
<g><path style="opacity:1" fill="#7a7a7a" d="M 177.5,88.5 C 177.5,90.5 177.5,92.5 177.5,94.5C 173.5,94.5 169.5,94.5 165.5,94.5C 165.5,91.5 165.5,88.5 165.5,85.5C 169.5,85.5 173.5,85.5 177.5,85.5C 177.5,86.5 177.5,87.5 177.5,88.5 Z"/></g>
<g><path style="opacity:1" fill="#b9b9b9" d="M 166.5,88.5 C 169.167,88.5 171.833,88.5 174.5,88.5C 174.5,89.5 174.5,90.5 174.5,91.5C 171.833,91.5 169.167,91.5 166.5,91.5C 166.5,90.5 166.5,89.5 166.5,88.5 Z"/></g>
<g><path style="opacity:1" fill="#737373" d="M 82.5,94.5 C 87.5,94.5 92.5,94.5 97.5,94.5C 97.5,95.5 97.5,96.5 97.5,97.5C 92.5,97.5 87.5,97.5 82.5,97.5C 82.5,96.5 82.5,95.5 82.5,94.5 Z"/></g>
<g><path style="opacity:1" fill="#282828" d="M 118.5,82.5 C 125.5,82.5 132.5,82.5 139.5,82.5C 139.5,88.5 139.5,94.5 139.5,100.5C 132.5,100.5 125.5,100.5 118.5,100.5C 118.5,94.5 118.5,88.5 118.5,82.5 Z"/></g>
<g><path style="opacity:1" fill="#7e7e7e" d="M 124.5,88.5 C 124.5,89.5 124.5,90.5 124.5,91.5C 127.5,91.5 130.5,91.5 133.5,91.5C 133.5,90.5 133.5,89.5 133.5,88.5C 135.308,89.9179 135.975,91.9179 135.5,94.5C 130.833,94.5 126.167,94.5 121.5,94.5C 121.5,92.5 121.5,90.5 121.5,88.5C 122.5,88.5 123.5,88.5 124.5,88.5 Z"/></g>
<g><path style="opacity:1" fill="#b9b9b9" d="M 124.5,88.5 C 127.5,88.5 130.5,88.5 133.5,88.5C 133.5,89.5 133.5,90.5 133.5,91.5C 130.5,91.5 127.5,91.5 124.5,91.5C 124.5,90.5 124.5,89.5 124.5,88.5 Z"/></g>
<g><path style="opacity:1" fill="#787878" d="M 124.5,85.5 C 127.5,85.5 130.5,85.5 133.5,85.5C 133.5,86.5 133.5,87.5 133.5,88.5C 130.5,88.5 127.5,88.5 124.5,88.5C 124.5,87.5 124.5,86.5 124.5,85.5 Z"/></g>
<g><path style="opacity:1" fill="#101010" d="M 133.5,85.5 C 130.5,85.5 127.5,85.5 124.5,85.5C 123.325,85.719 122.325,85.3857 121.5,84.5C 127.128,83.5046 132.794,83.1712 138.5,83.5C 138.827,88.2137 138.493,92.8804 137.5,97.5C 136.509,93.5546 136.176,89.5546 136.5,85.5C 135.5,85.5 134.5,85.5 133.5,85.5 Z"/></g>
<g><path style="opacity:1" fill="#272727" d="M 97.5,94.5 C 98.5,94.5 99.5,94.5 100.5,94.5C 100.5,97.5 100.5,100.5 100.5,103.5C 99.5,103.5 98.5,103.5 97.5,103.5C 97.5,102.5 97.5,101.5 97.5,100.5C 91.5,100.5 85.5,100.5 79.5,100.5C 79.5,99.5 79.5,98.5 79.5,97.5C 80.5,97.5 81.5,97.5 82.5,97.5C 87.5,97.5 92.5,97.5 97.5,97.5C 97.5,96.5 97.5,95.5 97.5,94.5 Z"/></g>
<g><path style="opacity:1" fill="#c7c7c7" d="M 159.5,82.5 C 159.5,88.5 159.5,94.5 159.5,100.5C 160.5,100.5 161.5,100.5 162.5,100.5C 162.5,101.5 162.5,102.5 162.5,103.5C 160.612,105.988 159.945,108.988 160.5,112.5C 159.167,112.5 157.833,112.5 156.5,112.5C 156.5,111.5 156.5,110.5 156.5,109.5C 157.5,109.5 158.5,109.5 159.5,109.5C 159.5,107.5 159.5,105.5 159.5,103.5C 158.5,103.5 157.5,103.5 156.5,103.5C 155.833,103.5 155.167,103.5 154.5,103.5C 154.167,103.5 153.833,103.5 153.5,103.5C 153.5,102.5 153.5,101.5 153.5,100.5C 154.5,100.5 155.5,100.5 156.5,100.5C 156.5,94.5 156.5,88.5 156.5,82.5C 157.5,82.5 158.5,82.5 159.5,82.5 Z"/></g>
<g><path style="opacity:1" fill="#232323" d="M 162.5,82.5 C 168.5,82.5 174.5,82.5 180.5,82.5C 180.5,84.5 180.5,86.5 180.5,88.5C 179.5,88.5 178.5,88.5 177.5,88.5C 177.5,87.5 177.5,86.5 177.5,85.5C 173.5,85.5 169.5,85.5 165.5,85.5C 165.5,88.5 165.5,91.5 165.5,94.5C 169.5,94.5 173.5,94.5 177.5,94.5C 178.5,94.5 179.5,94.5 180.5,94.5C 180.5,96.5 180.5,98.5 180.5,100.5C 174.5,100.5 168.5,100.5 162.5,100.5C 162.5,99.5 162.5,98.5 162.5,97.5C 162.5,92.5 162.5,87.5 162.5,82.5 Z"/></g>
<g><path style="opacity:1" fill="#252525" d="M 195.5,94.5 C 196.5,94.5 197.5,94.5 198.5,94.5C 199.5,94.5 200.5,94.5 201.5,94.5C 201.5,95.5 201.5,96.5 201.5,97.5C 206.5,97.5 211.5,97.5 216.5,97.5C 216.5,96.5 216.5,95.5 216.5,94.5C 217.5,94.5 218.5,94.5 219.5,94.5C 221.308,95.9179 221.975,97.9179 221.5,100.5C 214.833,100.5 208.167,100.5 201.5,100.5C 201.5,101.5 201.5,102.5 201.5,103.5C 200.5,103.5 199.5,103.5 198.5,103.5C 197.5,103.5 196.5,103.5 195.5,103.5C 195.5,100.5 195.5,97.5 195.5,94.5 Z"/></g>
<g><path style="opacity:1" fill="#707070" d="M 201.5,94.5 C 202.5,94.5 203.5,94.5 204.5,94.5C 208.5,94.5 212.5,94.5 216.5,94.5C 216.5,95.5 216.5,96.5 216.5,97.5C 211.5,97.5 206.5,97.5 201.5,97.5C 201.5,96.5 201.5,95.5 201.5,94.5 Z"/></g>
<g><path style="opacity:1" fill="#a1a1a1" d="M 76.5,100.5 C 77.5,100.5 78.5,100.5 79.5,100.5C 85.5,100.5 91.5,100.5 97.5,100.5C 97.5,101.5 97.5,102.5 97.5,103.5C 90.5,103.5 83.5,103.5 76.5,103.5C 76.5,102.5 76.5,101.5 76.5,100.5 Z"/></g>
<g><path style="opacity:1" fill="#a4a4a4" d="M 118.5,100.5 C 125.5,100.5 132.5,100.5 139.5,100.5C 139.5,101.5 139.5,102.5 139.5,103.5C 132.5,103.5 125.5,103.5 118.5,103.5C 118.5,102.5 118.5,101.5 118.5,100.5 Z"/></g>
<g><path style="opacity:1" fill="#c3c3c3" d="M 141.5,82.5 C 142.49,88.31 142.823,94.31 142.5,100.5C 144.5,100.5 146.5,100.5 148.5,100.5C 148.5,101.5 148.5,102.5 148.5,103.5C 148.167,103.5 147.833,103.5 147.5,103.5C 145.833,103.5 144.167,103.5 142.5,103.5C 142.5,106.5 142.5,109.5 142.5,112.5C 140.327,109.983 139.327,106.983 139.5,103.5C 139.5,102.5 139.5,101.5 139.5,100.5C 141.453,94.9262 142.12,88.9262 141.5,82.5 Z"/></g>
<g><path style="opacity:1" fill="#a4a4a4" d="M 162.5,100.5 C 168.5,100.5 174.5,100.5 180.5,100.5C 180.5,101.5 180.5,102.5 180.5,103.5C 174.5,103.5 168.5,103.5 162.5,103.5C 162.5,102.5 162.5,101.5 162.5,100.5 Z"/></g>
<g><path style="opacity:1" fill="#9b9b9b" d="M 221.5,100.5 C 221.833,100.5 222.167,100.5 222.5,100.5C 222.5,101.5 222.5,102.5 222.5,103.5C 216.5,103.5 210.5,103.5 204.5,103.5C 203.5,103.5 202.5,103.5 201.5,103.5C 201.5,102.5 201.5,101.5 201.5,100.5C 208.167,100.5 214.833,100.5 221.5,100.5 Z"/></g>
<g><path style="opacity:1" fill="#888888" d="M 106.5,58.5 C 106.5,58.8333 106.5,59.1667 106.5,59.5C 106.5,60.1667 106.5,60.8333 106.5,61.5C 106.5,61.8333 106.5,62.1667 106.5,62.5C 106.5,89.1667 106.5,115.833 106.5,142.5C 105.5,142.5 104.5,142.5 103.5,142.5C 103.5,142.167 103.5,141.833 103.5,141.5C 103.5,140.833 103.5,140.167 103.5,139.5C 103.5,112.5 103.5,85.5 103.5,58.5C 104.5,58.5 105.5,58.5 106.5,58.5 Z"/></g>
<g><path style="opacity:1" fill="#777777" d="M 147.5,103.5 C 147.833,103.5 148.167,103.5 148.5,103.5C 150.167,103.5 151.833,103.5 153.5,103.5C 153.833,103.5 154.167,103.5 154.5,103.5C 154.5,104.5 154.5,105.5 154.5,106.5C 152.167,106.5 149.833,106.5 147.5,106.5C 147.5,105.5 147.5,104.5 147.5,103.5 Z"/></g>
<g><path style="opacity:1" fill="#7c7c7c" d="M 156.5,103.5 C 157.5,103.5 158.5,103.5 159.5,103.5C 159.5,105.5 159.5,107.5 159.5,109.5C 158.5,109.5 157.5,109.5 156.5,109.5C 156.5,107.5 156.5,105.5 156.5,103.5 Z"/></g>
<g><path style="opacity:1" fill="#1d1d1d" d="M 154.5,103.5 C 155.167,103.5 155.833,103.5 156.5,103.5C 156.5,105.5 156.5,107.5 156.5,109.5C 152.833,109.5 149.167,109.5 145.5,109.5C 145.285,107.821 145.952,106.821 147.5,106.5C 149.833,106.5 152.167,106.5 154.5,106.5C 154.5,105.5 154.5,104.5 154.5,103.5 Z"/></g>
<g><path style="opacity:1" fill="#616161" d="M 198.5,103.5 C 199.5,103.5 200.5,103.5 201.5,103.5C 201.5,113.5 201.5,123.5 201.5,133.5C 200.5,133.5 199.5,133.5 198.5,133.5C 198.5,123.5 198.5,113.5 198.5,103.5 Z"/></g>
<g><path style="opacity:1" fill="#525252" d="M 147.5,103.5 C 147.5,104.5 147.5,105.5 147.5,106.5C 145.952,106.821 145.285,107.821 145.5,109.5C 149.167,109.5 152.833,109.5 156.5,109.5C 156.5,110.5 156.5,111.5 156.5,112.5C 151.833,112.5 147.167,112.5 142.5,112.5C 142.5,109.5 142.5,106.5 142.5,103.5C 144.167,103.5 145.833,103.5 147.5,103.5 Z"/></g>
<g><path style="opacity:1" fill="#101010" d="M 100.5,55.5 C 102.5,55.5 104.5,55.5 106.5,55.5C 106.5,56.5 106.5,57.5 106.5,58.5C 105.5,58.5 104.5,58.5 103.5,58.5C 103.5,85.5 103.5,112.5 103.5,139.5C 102.5,139.5 101.5,139.5 100.5,139.5C 100.5,138.5 100.5,137.5 100.5,136.5C 100.5,125.5 100.5,114.5 100.5,103.5C 100.5,100.5 100.5,97.5 100.5,94.5C 100.5,81.5 100.5,68.5 100.5,55.5 Z"/></g>
<g><path style="opacity:1" fill="#8a8a8a" d="M 97.5,103.5 C 98.5,103.5 99.5,103.5 100.5,103.5C 100.5,114.5 100.5,125.5 100.5,136.5C 99.5,136.5 98.5,136.5 97.5,136.5C 97.5,135.5 97.5,134.5 97.5,133.5C 97.5,123.5 97.5,113.5 97.5,103.5 Z"/></g>
<g><path style="opacity:1" fill="#bebebe" d="M 156.5,127.5 C 156.5,128.5 156.5,129.5 156.5,130.5C 150.833,130.5 145.167,130.5 139.5,130.5C 140.398,129.842 141.398,129.176 142.5,128.5C 147.12,127.507 151.786,127.173 156.5,127.5 Z"/></g>
<g><path style="opacity:1" fill="#e0e0e0" d="M 156.5,127.5 C 159.658,128.876 162.991,129.542 166.5,129.5C 166.527,131.199 167.194,132.533 168.5,133.5C 167.5,133.5 166.5,133.5 165.5,133.5C 162.983,131.327 159.983,130.327 156.5,130.5C 156.5,129.5 156.5,128.5 156.5,127.5 Z"/></g>
<g><path style="opacity:1" fill="#565656" d="M 139.5,130.5 C 145.167,130.5 150.833,130.5 156.5,130.5C 157.784,132.614 159.784,133.614 162.5,133.5C 156.25,135.459 149.584,136.126 142.5,135.5C 142.5,136.5 142.5,137.5 142.5,138.5C 141.041,138.433 139.708,138.766 138.5,139.5C 137.833,139.5 137.167,139.5 136.5,139.5C 137.091,138.849 137.757,138.182 138.5,137.5C 138.043,136.702 137.376,136.369 136.5,136.5C 136.5,135.5 136.5,134.5 136.5,133.5C 137.9,132.9 138.9,131.9 139.5,130.5 Z"/></g>
<g><path style="opacity:1" fill="#949494" d="M 156.5,130.5 C 159.983,130.327 162.983,131.327 165.5,133.5C 164.5,133.5 163.5,133.5 162.5,133.5C 159.784,133.614 157.784,132.614 156.5,130.5 Z"/></g>
<g><path style="opacity:1" fill="#eaeaea" d="M 201.5,103.5 C 202.5,103.5 203.5,103.5 204.5,103.5C 204.5,113.167 204.5,122.833 204.5,132.5C 234.338,132.169 264.005,132.502 293.5,133.5C 263.833,133.5 234.167,133.5 204.5,133.5C 203.5,133.5 202.5,133.5 201.5,133.5C 201.5,123.5 201.5,113.5 201.5,103.5 Z"/></g>
<g><path style="opacity:1" fill="#cecece" d="M 97.5,133.5 C 97.5,134.5 97.5,135.5 97.5,136.5C 96.5,136.5 95.5,136.5 94.5,136.5C 64.8333,136.5 35.1667,136.5 5.5,136.5C 5.5,135.5 5.5,134.5 5.5,133.5C 36.1667,133.5 66.8333,133.5 97.5,133.5 Z"/></g>
<g><path style="opacity:1" fill="#dadada" d="M 139.5,130.5 C 138.9,131.9 137.9,132.9 136.5,133.5C 132.96,133.377 130.96,135.043 130.5,138.5C 130.5,138.833 130.5,139.167 130.5,139.5C 129.5,139.5 128.5,139.5 127.5,139.5C 127.884,137.071 128.551,134.737 129.5,132.5C 132.734,131.424 136.068,130.757 139.5,130.5 Z"/></g>
<g><path style="opacity:1" fill="#d7d7d7" d="M 204.5,133.5 C 234.167,133.5 263.833,133.5 293.5,133.5C 294.5,133.5 295.5,133.5 296.5,133.5C 296.5,135.5 296.5,137.5 296.5,139.5C 295.5,139.5 294.5,139.5 293.5,139.5C 293.5,139.167 293.5,138.833 293.5,138.5C 293.5,137.833 293.5,137.167 293.5,136.5C 263.653,136.164 233.986,135.164 204.5,133.5 Z"/></g>
<g><path style="opacity:1" fill="#6a6a6a" d="M 162.5,133.5 C 163.5,133.5 164.5,133.5 165.5,133.5C 166.5,133.5 167.5,133.5 168.5,133.5C 168.5,134.5 168.5,135.5 168.5,136.5C 166.396,136.201 164.396,136.534 162.5,137.5C 165.139,138.498 167.139,140.164 168.5,142.5C 167.5,142.5 166.5,142.5 165.5,142.5C 164.077,140.455 162.077,139.455 159.5,139.5C 154.081,135.991 148.414,135.658 142.5,138.5C 142.5,137.5 142.5,136.5 142.5,135.5C 149.584,136.126 156.25,135.459 162.5,133.5 Z"/></g>
<g><path style="opacity:1" fill="#b3b3b3" d="M 201.5,133.5 C 202.5,133.5 203.5,133.5 204.5,133.5C 233.986,135.164 263.653,136.164 293.5,136.5C 263.833,136.5 234.167,136.5 204.5,136.5C 203.5,136.5 202.5,136.5 201.5,136.5C 201.5,135.5 201.5,134.5 201.5,133.5 Z"/></g>
<g><path style="opacity:1" fill="#7a7a7a" d="M 5.5,136.5 C 35.1667,136.5 64.8333,136.5 94.5,136.5C 66.0146,138.164 37.3479,139.164 8.5,139.5C 7.5,139.5 6.5,139.5 5.5,139.5C 5.5,138.5 5.5,137.5 5.5,136.5 Z"/></g>
<g><path style="opacity:1" fill="#7d7d7d" d="M 136.5,133.5 C 136.5,134.5 136.5,135.5 136.5,136.5C 134.282,136.614 132.282,137.28 130.5,138.5C 130.96,135.043 132.96,133.377 136.5,133.5 Z"/></g>
<g><path style="opacity:1" fill="#787878" d="M 204.5,136.5 C 234.167,136.5 263.833,136.5 293.5,136.5C 293.5,137.167 293.5,137.833 293.5,138.5C 263.481,139.159 233.815,138.492 204.5,136.5 Z"/></g>
<g><path style="opacity:1" fill="#646464" d="M 94.5,136.5 C 95.5,136.5 96.5,136.5 97.5,136.5C 97.5,137.5 97.5,138.5 97.5,139.5C 68.8333,139.5 40.1667,139.5 11.5,139.5C 10.5,139.5 9.5,139.5 8.5,139.5C 37.3479,139.164 66.0146,138.164 94.5,136.5 Z"/></g>
<g><path style="opacity:1" fill="#c9c9c9" d="M 159.5,139.5 C 153.833,139.5 148.167,139.5 142.5,139.5C 142.5,140.5 142.5,141.5 142.5,142.5C 140.5,142.5 138.5,142.5 136.5,142.5C 137.551,141.778 138.218,140.778 138.5,139.5C 139.708,138.766 141.041,138.433 142.5,138.5C 148.414,135.658 154.081,135.991 159.5,139.5 Z"/></g>
<g><path style="opacity:1" fill="#aaaaaa" d="M 168.5,136.5 C 172.5,136.5 174.5,138.5 174.5,142.5C 174.5,138.5 172.5,136.5 168.5,136.5 Z"/></g>
<g><path style="opacity:1" fill="#626262" d="M 201.5,136.5 C 202.5,136.5 203.5,136.5 204.5,136.5C 233.815,138.492 263.481,139.159 293.5,138.5C 293.5,138.833 293.5,139.167 293.5,139.5C 292.5,139.5 291.5,139.5 290.5,139.5C 260.833,139.5 231.167,139.5 201.5,139.5C 201.5,138.5 201.5,137.5 201.5,136.5 Z"/></g>
<g><path style="opacity:0.749" fill="#f4f4f4" d="M -0.5,139.5 C 0.5,139.5 1.5,139.5 2.5,139.5C 2.5,169.167 2.5,198.833 2.5,228.5C 1.5,228.5 0.5,228.5 -0.5,228.5C -0.5,198.833 -0.5,169.167 -0.5,139.5 Z"/></g>
<g><path style="opacity:1" fill="#3f3f3f" d="M 97.5,136.5 C 98.5,136.5 99.5,136.5 100.5,136.5C 100.5,137.5 100.5,138.5 100.5,139.5C 101.5,139.5 102.5,139.5 103.5,139.5C 103.5,140.167 103.5,140.833 103.5,141.5C 72.8333,141.5 42.1667,141.5 11.5,141.5C 11.5,140.833 11.5,140.167 11.5,139.5C 40.1667,139.5 68.8333,139.5 97.5,139.5C 97.5,138.5 97.5,137.5 97.5,136.5 Z"/></g>
<g><path style="opacity:1" fill="#414141" d="M 168.5,136.5 C 168.5,137.5 168.5,138.5 168.5,139.5C 169.5,139.5 170.5,139.5 171.5,139.5C 171.5,140.5 171.5,141.5 171.5,142.5C 172.5,142.5 173.5,142.5 174.5,142.5C 174.5,144.5 174.5,146.5 174.5,148.5C 171.911,148.539 169.911,147.539 168.5,145.5C 168.5,144.5 168.5,143.5 168.5,142.5C 167.139,140.164 165.139,138.498 162.5,137.5C 164.396,136.534 166.396,136.201 168.5,136.5 Z"/></g>
<g><path style="opacity:1" fill="#3f3f3f" d="M 195.5,103.5 C 196.5,103.5 197.5,103.5 198.5,103.5C 198.5,113.5 198.5,123.5 198.5,133.5C 199.5,133.5 200.5,133.5 201.5,133.5C 201.5,134.5 201.5,135.5 201.5,136.5C 201.5,137.5 201.5,138.5 201.5,139.5C 231.167,139.5 260.833,139.5 290.5,139.5C 290.5,140.5 290.5,141.5 290.5,142.5C 289.5,142.5 288.5,142.5 287.5,142.5C 256.886,142.122 226.22,141.122 195.5,139.5C 195.5,127.5 195.5,115.5 195.5,103.5 Z"/></g>
<g><path style="opacity:1" fill="#efefef" d="M 296.5,139.5 C 297.5,139.5 298.5,139.5 299.5,139.5C 299.5,170.167 299.5,200.833 299.5,231.5C 298.5,231.5 297.5,231.5 296.5,231.5C 296.5,230.5 296.5,229.5 296.5,228.5C 296.5,198.833 296.5,169.167 296.5,139.5 Z"/></g>
<g><path style="opacity:1" fill="#636363" d="M 11.5,141.5 C 42.1667,141.5 72.8333,141.5 103.5,141.5C 103.5,141.833 103.5,142.167 103.5,142.5C 73.4812,141.841 43.8145,142.508 14.5,144.5C 13.5,144.5 12.5,144.5 11.5,144.5C 11.5,143.5 11.5,142.5 11.5,141.5 Z"/></g>
<g><path style="opacity:1" fill="#676767" d="M 127.5,139.5 C 128.5,139.5 129.5,139.5 130.5,139.5C 130.5,140.5 130.5,141.5 130.5,142.5C 129.5,142.5 128.5,142.5 127.5,142.5C 127.5,141.5 127.5,140.5 127.5,139.5 Z"/></g>
<g><path style="opacity:1" fill="#3b3b3b" d="M 136.5,136.5 C 137.376,136.369 138.043,136.702 138.5,137.5C 137.757,138.182 137.091,138.849 136.5,139.5C 135.5,140.5 134.5,141.5 133.5,142.5C 132.759,144.354 131.759,146.021 130.5,147.5C 129.5,147.5 128.5,147.5 127.5,147.5C 127.5,145.833 127.5,144.167 127.5,142.5C 128.5,142.5 129.5,142.5 130.5,142.5C 130.5,141.5 130.5,140.5 130.5,139.5C 130.5,139.167 130.5,138.833 130.5,138.5C 132.282,137.28 134.282,136.614 136.5,136.5 Z"/></g>
<g><path style="opacity:1" fill="#818181" d="M 136.5,139.5 C 137.167,139.5 137.833,139.5 138.5,139.5C 138.218,140.778 137.551,141.778 136.5,142.5C 135.5,142.5 134.5,142.5 133.5,142.5C 134.5,141.5 135.5,140.5 136.5,139.5 Z"/></g>
<g><path style="opacity:1" fill="#c3c3c3" d="M 159.5,139.5 C 162.077,139.455 164.077,140.455 165.5,142.5C 163.5,142.5 161.5,142.5 159.5,142.5C 159.5,141.5 159.5,140.5 159.5,139.5 Z"/></g>
<g><path style="opacity:1" fill="#616161" d="M 195.5,139.5 C 226.22,141.122 256.886,142.122 287.5,142.5C 257.833,142.5 228.167,142.5 198.5,142.5C 197.5,142.5 196.5,142.5 195.5,142.5C 195.5,141.5 195.5,140.5 195.5,139.5 Z"/></g>
<g><path style="opacity:1" fill="#9b9b9b" d="M 103.5,142.5 C 103.5,143.167 103.5,143.833 103.5,144.5C 73.8333,144.5 44.1667,144.5 14.5,144.5C 43.8145,142.508 73.4812,141.841 103.5,142.5 Z"/></g>
<g><path style="opacity:1" fill="#999999" d="M 198.5,142.5 C 228.167,142.5 257.833,142.5 287.5,142.5C 288.5,142.5 289.5,142.5 290.5,142.5C 290.5,144.167 290.5,145.833 290.5,147.5C 289.222,147.218 288.222,146.551 287.5,145.5C 257.653,145.164 227.986,144.164 198.5,142.5 Z"/></g>
<g><path style="opacity:1" fill="#656565" d="M 293.5,139.5 C 294.5,139.5 295.5,139.5 296.5,139.5C 296.5,169.167 296.5,198.833 296.5,228.5C 295.5,228.5 294.5,228.5 293.5,228.5C 293.5,228.167 293.5,227.833 293.5,227.5C 293.5,198.167 293.5,168.833 293.5,139.5 Z"/></g>
<g><path style="opacity:1" fill="#c6c6c6" d="M 11.5,144.5 C 12.5,144.5 13.5,144.5 14.5,144.5C 44.1667,144.5 73.8333,144.5 103.5,144.5C 73.6526,144.836 43.9859,145.836 14.5,147.5C 13.5,147.5 12.5,147.5 11.5,147.5C 11.5,146.833 11.5,146.167 11.5,145.5C 11.5,145.167 11.5,144.833 11.5,144.5 Z"/></g>
<g><path style="opacity:1" fill="#a0a0a0" d="M 165.5,142.5 C 166.5,142.5 167.5,142.5 168.5,142.5C 168.5,143.5 168.5,144.5 168.5,145.5C 167.5,145.5 166.5,145.5 165.5,145.5C 165.5,144.5 165.5,143.5 165.5,142.5 Z"/></g>
<g><path style="opacity:1" fill="#c6c6c6" d="M 195.5,142.5 C 196.5,142.5 197.5,142.5 198.5,142.5C 227.986,144.164 257.653,145.164 287.5,145.5C 256.833,145.5 226.167,145.5 195.5,145.5C 195.5,144.5 195.5,143.5 195.5,142.5 Z"/></g>
<g><path style="opacity:1" fill="#363636" d="M 5.5,139.5 C 6.5,139.5 7.5,139.5 8.5,139.5C 9.5,139.5 10.5,139.5 11.5,139.5C 11.5,140.167 11.5,140.833 11.5,141.5C 11.5,142.5 11.5,143.5 11.5,144.5C 11.5,144.833 11.5,145.167 11.5,145.5C 10.5,145.5 9.5,145.5 8.5,145.5C 8.5,171.167 8.5,196.833 8.5,222.5C 9.5,222.5 10.5,222.5 11.5,222.5C 11.5,223.5 11.5,224.5 11.5,225.5C 11.5,226.5 11.5,227.5 11.5,228.5C 10.5,228.5 9.5,228.5 8.5,228.5C 7.5,228.5 6.5,228.5 5.5,228.5C 5.5,198.833 5.5,169.167 5.5,139.5 Z"/></g>
<g><path style="opacity:1" fill="#1d1d1d" d="M 290.5,139.5 C 291.5,139.5 292.5,139.5 293.5,139.5C 293.5,168.833 293.5,198.167 293.5,227.5C 291.821,227.715 290.821,227.048 290.5,225.5C 290.5,224.5 290.5,223.5 290.5,222.5C 290.5,197.5 290.5,172.5 290.5,147.5C 290.5,145.833 290.5,144.167 290.5,142.5C 290.5,141.5 290.5,140.5 290.5,139.5 Z"/></g>
<g><path style="opacity:1" fill="#bcbcbc" d="M 2.5,139.5 C 3.5,139.5 4.5,139.5 5.5,139.5C 5.5,169.167 5.5,198.833 5.5,228.5C 4.5,228.5 3.5,228.5 2.5,228.5C 2.5,198.833 2.5,169.167 2.5,139.5 Z"/></g>
<g><path style="opacity:1" fill="#696969" d="M 127.5,142.5 C 127.5,144.167 127.5,145.833 127.5,147.5C 128.5,147.5 129.5,147.5 130.5,147.5C 130.5,147.833 130.5,148.167 130.5,148.5C 128.5,148.5 126.5,148.5 124.5,148.5C 124.5,146.5 124.5,144.5 124.5,142.5C 125.5,142.5 126.5,142.5 127.5,142.5 Z"/></g>
<g><path style="opacity:1" fill="#c2c2c2" d="M 133.5,142.5 C 134.5,142.5 135.5,142.5 136.5,142.5C 136.5,143.5 136.5,144.5 136.5,145.5C 135.5,145.5 134.5,145.5 133.5,145.5C 133.5,146.5 133.5,147.5 133.5,148.5C 132.5,148.5 131.5,148.5 130.5,148.5C 130.5,148.167 130.5,147.833 130.5,147.5C 131.759,146.021 132.759,144.354 133.5,142.5 Z"/></g>
<g><path style="opacity:1" fill="#e6e6e6" d="M 11.5,147.5 C 12.5,147.5 13.5,147.5 14.5,147.5C 14.5,172.167 14.5,196.833 14.5,221.5C 25.1667,221.5 35.8333,221.5 46.5,221.5C 46.5,211.833 46.5,202.167 46.5,192.5C 47.5,192.5 48.5,192.5 49.5,192.5C 49.5,193.5 49.5,194.5 49.5,195.5C 47.5289,204.105 46.8623,213.105 47.5,222.5C 47.1667,222.5 46.8333,222.5 46.5,222.5C 35.8333,222.5 25.1667,222.5 14.5,222.5C 13.5,222.5 12.5,222.5 11.5,222.5C 11.5,197.5 11.5,172.5 11.5,147.5 Z"/></g>
<g><path style="opacity:1" fill="#bebebe" d="M 174.5,142.5 C 175.5,142.5 176.5,142.5 177.5,142.5C 177.5,145.5 177.5,148.5 177.5,151.5C 174.5,151.5 171.5,151.5 168.5,151.5C 168.5,150.5 168.5,149.5 168.5,148.5C 167.5,148.5 166.5,148.5 165.5,148.5C 165.5,147.5 165.5,146.5 165.5,145.5C 166.5,145.5 167.5,145.5 168.5,145.5C 169.911,147.539 171.911,148.539 174.5,148.5C 174.5,146.5 174.5,144.5 174.5,142.5 Z"/></g>
<g><path style="opacity:1" fill="#c4c4c4" d="M 287.5,145.5 C 288.222,146.551 289.222,147.218 290.5,147.5C 290.5,172.5 290.5,197.5 290.5,222.5C 289.5,222.5 288.5,222.5 287.5,222.5C 287.5,222.167 287.5,221.833 287.5,221.5C 287.5,196.167 287.5,170.833 287.5,145.5 Z"/></g>
<g><path style="opacity:1" fill="#b6b6b6" d="M 127.5,139.5 C 127.5,140.5 127.5,141.5 127.5,142.5C 126.5,142.5 125.5,142.5 124.5,142.5C 124.5,144.5 124.5,146.5 124.5,148.5C 126.5,148.5 128.5,148.5 130.5,148.5C 130.5,149.5 130.5,150.5 130.5,151.5C 128.208,151.756 126.041,151.423 124,150.5C 123.502,147.518 123.335,144.518 123.5,141.5C 125.199,141.473 126.533,140.806 127.5,139.5 Z"/></g>
<g><path style="opacity:1" fill="#5c5c5c" d="M 11.5,145.5 C 11.5,146.167 11.5,146.833 11.5,147.5C 11.5,172.5 11.5,197.5 11.5,222.5C 10.5,222.5 9.5,222.5 8.5,222.5C 8.5,196.833 8.5,171.167 8.5,145.5C 9.5,145.5 10.5,145.5 11.5,145.5 Z"/></g>
<g><path style="opacity:1" fill="#c8c8c8" d="M 49.5,195.5 C 50.1377,204.895 49.4711,213.895 47.5,222.5C 46.8623,213.105 47.5289,204.105 49.5,195.5 Z"/></g>
<g><path style="opacity:1" fill="#8b8b8b" d="M 49.5,192.5 C 51.5,192.5 53.5,192.5 55.5,192.5C 55.5,193.5 55.5,194.5 55.5,195.5C 53.8333,195.5 52.1667,195.5 50.5,195.5C 50.5,205.5 50.5,215.5 50.5,225.5C 49.1667,225.5 47.8333,225.5 46.5,225.5C 34.8333,225.5 23.1667,225.5 11.5,225.5C 11.5,224.5 11.5,223.5 11.5,222.5C 12.5,222.5 13.5,222.5 14.5,222.5C 19.4558,223.828 24.7891,224.495 30.5,224.5C 36.2109,224.495 41.5442,223.828 46.5,222.5C 46.8333,222.5 47.1667,222.5 47.5,222.5C 49.4711,213.895 50.1377,204.895 49.5,195.5C 49.5,194.5 49.5,193.5 49.5,192.5 Z"/></g>
<g><path style="opacity:1" fill="#c7c7c7" d="M 249.5,195.5 C 251.471,204.105 252.138,213.105 251.5,222.5C 249.529,213.895 248.862,204.895 249.5,195.5 Z"/></g>
<g><path style="opacity:1" fill="#e3e3e3" d="M 249.5,192.5 C 250.5,192.5 251.5,192.5 252.5,192.5C 252.5,202.167 252.5,211.833 252.5,221.5C 264.167,221.5 275.833,221.5 287.5,221.5C 287.5,221.833 287.5,222.167 287.5,222.5C 275.833,222.5 264.167,222.5 252.5,222.5C 252.167,222.5 251.833,222.5 251.5,222.5C 252.138,213.105 251.471,204.105 249.5,195.5C 249.5,194.5 249.5,193.5 249.5,192.5 Z"/></g>
<g><path style="opacity:1" fill="#aaaaaa" d="M 14.5,222.5 C 25.1667,222.5 35.8333,222.5 46.5,222.5C 41.5442,223.828 36.2109,224.495 30.5,224.5C 24.7891,224.495 19.4558,223.828 14.5,222.5 Z"/></g>
<g><path style="opacity:1" fill="#858585" d="M 243.5,192.5 C 245.5,192.5 247.5,192.5 249.5,192.5C 249.5,193.5 249.5,194.5 249.5,195.5C 248.862,204.895 249.529,213.895 251.5,222.5C 251.833,222.5 252.167,222.5 252.5,222.5C 257.96,223.829 263.793,224.496 270,224.5C 276.207,224.496 282.04,223.829 287.5,222.5C 288.5,222.5 289.5,222.5 290.5,222.5C 290.5,223.5 290.5,224.5 290.5,225.5C 277.5,225.5 264.5,225.5 251.5,225.5C 250.5,225.5 249.5,225.5 248.5,225.5C 248.5,215.5 248.5,205.5 248.5,195.5C 247.5,195.5 246.5,195.5 245.5,195.5C 244.833,195.5 244.167,195.5 243.5,195.5C 243.5,194.5 243.5,193.5 243.5,192.5 Z"/></g>
<g><path style="opacity:1" fill="#aaaaaa" d="M 252.5,222.5 C 264.167,222.5 275.833,222.5 287.5,222.5C 282.04,223.829 276.207,224.496 270,224.5C 263.793,224.496 257.96,223.829 252.5,222.5 Z"/></g>
<g><path style="opacity:1" fill="#414141" d="M 11.5,225.5 C 23.1667,225.5 34.8333,225.5 46.5,225.5C 46.5,226.5 46.5,227.5 46.5,228.5C 34.8333,228.5 23.1667,228.5 11.5,228.5C 11.5,227.5 11.5,226.5 11.5,225.5 Z"/></g>
<g><path style="opacity:1" fill="#414141" d="M 251.5,225.5 C 264.5,225.5 277.5,225.5 290.5,225.5C 290.821,227.048 291.821,227.715 293.5,227.5C 293.5,227.833 293.5,228.167 293.5,228.5C 279.459,227.851 265.792,228.518 252.5,230.5C 252.167,230.5 251.833,230.5 251.5,230.5C 251.5,228.833 251.5,227.167 251.5,225.5 Z"/></g>
<g><path style="opacity:0.983" fill="#fefefe" d="M -0.5,228.5 C 0.5,228.5 1.5,228.5 2.5,228.5C 3.5,228.5 4.5,228.5 5.5,228.5C 5.5,229.5 5.5,230.5 5.5,231.5C 5.5,232.5 5.5,233.5 5.5,234.5C 19.1667,234.5 32.8333,234.5 46.5,234.5C 47.4973,255.994 47.8307,277.66 47.5,299.5C 31.5,299.5 15.5,299.5 -0.5,299.5C -0.5,275.833 -0.5,252.167 -0.5,228.5 Z"/></g>
<g><path style="opacity:1" fill="#525252" d="M 8.5,228.5 C 9.5,228.5 10.5,228.5 11.5,228.5C 23.1667,228.5 34.8333,228.5 46.5,228.5C 47.5,229.5 48.5,230.5 49.5,231.5C 48.5,231.5 47.5,231.5 46.5,231.5C 33.6337,231.16 20.9671,230.16 8.5,228.5 Z"/></g>
<g><path style="opacity:1" fill="#282828" d="M 46.5,225.5 C 47.8333,225.5 49.1667,225.5 50.5,225.5C 51.5,225.5 52.5,225.5 53.5,225.5C 53.5,227.5 53.5,229.5 53.5,231.5C 52.1667,231.5 50.8333,231.5 49.5,231.5C 48.5,230.5 47.5,229.5 46.5,228.5C 46.5,227.5 46.5,226.5 46.5,225.5 Z"/></g>
<g><path style="opacity:1" fill="#535353" d="M 293.5,228.5 C 280.208,230.482 266.541,231.149 252.5,230.5C 265.792,228.518 279.459,227.851 293.5,228.5 Z"/></g>
<g><path style="opacity:1" fill="#898989" d="M 5.5,228.5 C 6.5,228.5 7.5,228.5 8.5,228.5C 20.9671,230.16 33.6337,231.16 46.5,231.5C 32.8333,231.5 19.1667,231.5 5.5,231.5C 5.5,230.5 5.5,229.5 5.5,228.5 Z"/></g>
<g><path style="opacity:1" fill="#8b8b8b" d="M 293.5,228.5 C 294.5,228.5 295.5,228.5 296.5,228.5C 296.5,229.5 296.5,230.5 296.5,231.5C 295.5,231.5 294.5,231.5 293.5,231.5C 279.833,231.5 266.167,231.5 252.5,231.5C 251.5,231.5 250.5,231.5 249.5,231.5C 249.842,230.662 250.508,230.328 251.5,230.5C 251.833,230.5 252.167,230.5 252.5,230.5C 266.541,231.149 280.208,230.482 293.5,228.5 Z"/></g>
<g><path style="opacity:1" fill="#e4e4e4" d="M 5.5,231.5 C 19.1667,231.5 32.8333,231.5 46.5,231.5C 46.5,232.5 46.5,233.5 46.5,234.5C 32.8333,234.5 19.1667,234.5 5.5,234.5C 5.5,233.5 5.5,232.5 5.5,231.5 Z"/></g>
<g><path style="opacity:1" fill="#aaaaaa" d="M 55.5,195.5 C 56.5,195.5 57.5,195.5 58.5,195.5C 58.5,230.167 58.5,264.833 58.5,299.5C 57.5,299.5 56.5,299.5 55.5,299.5C 55.5,264.833 55.5,230.167 55.5,195.5 Z"/></g>
<g><path style="opacity:1" fill="#e1e1e1" d="M 55.5,192.5 C 56.8333,192.5 58.1667,192.5 59.5,192.5C 59.5,228.167 59.5,263.833 59.5,299.5C 59.1667,299.5 58.8333,299.5 58.5,299.5C 58.5,264.833 58.5,230.167 58.5,195.5C 57.5,195.5 56.5,195.5 55.5,195.5C 55.5,194.5 55.5,193.5 55.5,192.5 Z"/></g>
<g><path style="opacity:1" fill="#d0d0d0" d="M 243.5,192.5 C 243.5,193.5 243.5,194.5 243.5,195.5C 243.5,230.167 243.5,264.833 243.5,299.5C 242.5,299.5 241.5,299.5 240.5,299.5C 240.5,263.833 240.5,228.167 240.5,192.5C 241.5,192.5 242.5,192.5 243.5,192.5 Z"/></g>
<g><path style="opacity:1" fill="#e4e4e4" d="M 252.5,231.5 C 266.167,231.5 279.833,231.5 293.5,231.5C 293.5,232.5 293.5,233.5 293.5,234.5C 279.833,234.5 266.167,234.5 252.5,234.5C 252.5,233.5 252.5,232.5 252.5,231.5 Z"/></g>
<g><path style="opacity:1" fill="#fdfdfd" d="M 293.5,231.5 C 294.5,231.5 295.5,231.5 296.5,231.5C 297.5,231.5 298.5,231.5 299.5,231.5C 299.5,254.167 299.5,276.833 299.5,299.5C 283.5,299.5 267.5,299.5 251.5,299.5C 251.169,277.66 251.503,255.994 252.5,234.5C 266.167,234.5 279.833,234.5 293.5,234.5C 293.5,233.5 293.5,232.5 293.5,231.5 Z"/></g>
<g><path style="opacity:1" fill="#585858" d="M 55.5,195.5 C 55.5,230.167 55.5,264.833 55.5,299.5C 53.5,299.5 51.5,299.5 49.5,299.5C 49.5,276.833 49.5,254.167 49.5,231.5C 50.8333,231.5 52.1667,231.5 53.5,231.5C 53.5,229.5 53.5,227.5 53.5,225.5C 52.5,225.5 51.5,225.5 50.5,225.5C 50.5,215.5 50.5,205.5 50.5,195.5C 52.1667,195.5 53.8333,195.5 55.5,195.5 Z"/></g>
<g><path style="opacity:1" fill="#4d4d4d" d="M 243.5,195.5 C 244.167,195.5 244.833,195.5 245.5,195.5C 245.5,230.167 245.5,264.833 245.5,299.5C 244.833,299.5 244.167,299.5 243.5,299.5C 243.5,264.833 243.5,230.167 243.5,195.5 Z"/></g>
<g><path style="opacity:1" fill="#c8c8c8" d="M 46.5,231.5 C 47.5,231.5 48.5,231.5 49.5,231.5C 49.5,254.167 49.5,276.833 49.5,299.5C 48.8333,299.5 48.1667,299.5 47.5,299.5C 47.8307,277.66 47.4973,255.994 46.5,234.5C 46.5,233.5 46.5,232.5 46.5,231.5 Z"/></g>
<g><path style="opacity:1" fill="#b4b4b4" d="M 249.5,231.5 C 250.5,231.5 251.5,231.5 252.5,231.5C 252.5,232.5 252.5,233.5 252.5,234.5C 251.503,255.994 251.169,277.66 251.5,299.5C 250.5,299.5 249.5,299.5 248.5,299.5C 248.169,276.661 248.503,253.994 249.5,231.5 Z"/></g>
<g><path style="opacity:1" fill="#383838" d="M 245.5,195.5 C 246.5,195.5 247.5,195.5 248.5,195.5C 248.5,205.5 248.5,215.5 248.5,225.5C 249.5,225.5 250.5,225.5 251.5,225.5C 251.5,227.167 251.5,228.833 251.5,230.5C 250.508,230.328 249.842,230.662 249.5,231.5C 248.503,253.994 248.169,276.661 248.5,299.5C 247.5,299.5 246.5,299.5 245.5,299.5C 245.5,264.833 245.5,230.167 245.5,195.5 Z"/></g>
</svg>
