<?xml version="1.0" encoding="UTF-8"?>
<!DOCTYPE svg PUBLIC "-//W3C//DTD SVG 1.1//EN" "http://www.w3.org/Graphics/SVG/1.1/DTD/svg11.dtd">
<svg xmlns="http://www.w3.org/2000/svg" version="1.1" width="300px" height="300px" style="shape-rendering:geometricPrecision; text-rendering:geometricPrecision; image-rendering:optimizeQuality; fill-rule:evenodd; clip-rule:evenodd" xmlns:xlink="http://www.w3.org/1999/xlink">
<g><path style="opacity:0.987" fill="#fefefe" d="M -0.5,-0.5 C 99.5,-0.5 199.5,-0.5 299.5,-0.5C 299.5,45.1667 299.5,90.8333 299.5,136.5C 297.5,136.5 295.5,136.5 293.5,136.5C 293.5,136.167 293.5,135.833 293.5,135.5C 264.185,133.508 234.519,132.841 204.5,133.5C 203.5,133.5 202.5,133.5 201.5,133.5C 201.5,123.5 201.5,113.5 201.5,103.5C 209.5,103.5 217.5,103.5 225.5,103.5C 225.5,102.5 225.5,101.5 225.5,100.5C 226.5,100.5 227.5,100.5 228.5,100.5C 228.5,76.8333 228.5,53.1667 228.5,29.5C 227.5,29.5 226.5,29.5 225.5,29.5C 225.5,28.5 225.5,27.5 225.5,26.5C 224.5,26.5 223.5,26.5 222.5,26.5C 173.003,25.5011 123.336,25.1678 73.5,25.5C 73.5,26.8333 73.5,28.1667 73.5,29.5C 73.5,53.1667 73.5,76.8333 73.5,100.5C 74.5,100.5 75.5,100.5 76.5,100.5C 76.5,101.5 76.5,102.5 76.5,103.5C 83.5,103.5 90.5,103.5 97.5,103.5C 97.5,113.5 97.5,123.5 97.5,133.5C 66.4818,132.841 35.8152,133.508 5.5,135.5C 5.5,135.833 5.5,136.167 5.5,136.5C 4.5,136.5 3.5,136.5 2.5,136.5C 2.5,168.167 2.5,199.833 2.5,231.5C 3.5,231.5 4.5,231.5 5.5,231.5C 5.5,232.5 5.5,233.5 5.5,234.5C 19.5,234.5 33.5,234.5 47.5,234.5C 47.5,256.167 47.5,277.833 47.5,299.5C 31.5,299.5 15.5,299.5 -0.5,299.5C -0.5,199.5 -0.5,99.5 -0.5,-0.5 Z"/></g>
<g><path style="opacity:1" fill="#e8e8e8" d="M 222.5,26.5 C 173.833,26.5 125.167,26.5 76.5,26.5C 76.5,27.5 76.5,28.5 76.5,29.5C 75.5,29.5 74.5,29.5 73.5,29.5C 73.5,28.1667 73.5,26.8333 73.5,25.5C 123.336,25.1678 173.003,25.5011 222.5,26.5 Z"/></g>
<g><path style="opacity:1" fill="#aeaeae" d="M 222.5,26.5 C 223.5,26.5 224.5,26.5 225.5,26.5C 225.5,27.5 225.5,28.5 225.5,29.5C 224.5,29.5 223.5,29.5 222.5,29.5C 173.833,29.5 125.167,29.5 76.5,29.5C 76.5,28.5 76.5,27.5 76.5,26.5C 125.167,26.5 173.833,26.5 222.5,26.5 Z"/></g>
<g><path style="opacity:1" fill="#535353" d="M 76.5,29.5 C 125.167,29.5 173.833,29.5 222.5,29.5C 222.5,30.5 222.5,31.5 222.5,32.5C 221.5,32.5 220.5,32.5 219.5,32.5C 219.5,33.5 219.5,34.5 219.5,35.5C 218.5,35.5 217.5,35.5 216.5,35.5C 172.003,34.5013 127.336,34.1679 82.5,34.5C 81.4479,32.744 79.7812,32.0773 77.5,32.5C 77.1667,32.5 76.8333,32.5 76.5,32.5C 76.5,31.5 76.5,30.5 76.5,29.5 Z"/></g>
<g><path style="opacity:1" fill="#9c9c9c" d="M 73.5,29.5 C 74.5,29.5 75.5,29.5 76.5,29.5C 76.5,30.5 76.5,31.5 76.5,32.5C 75.1678,42.9788 74.5012,53.8121 74.5,65C 74.5012,76.1879 75.1678,87.0212 76.5,97.5C 76.5,98.5 76.5,99.5 76.5,100.5C 75.5,100.5 74.5,100.5 73.5,100.5C 73.5,76.8333 73.5,53.1667 73.5,29.5 Z"/></g>
<g><path style="opacity:1" fill="#7b7b7b" d="M 82.5,34.5 C 127.336,34.1679 172.003,34.5013 216.5,35.5C 171.833,35.5 127.167,35.5 82.5,35.5C 82.5,36.5 82.5,37.5 82.5,38.5C 81.1685,46.9738 80.5018,55.8071 80.5,65C 80.5018,74.1929 81.1685,83.0262 82.5,91.5C 82.5,92.5 82.5,93.5 82.5,94.5C 81.5,94.5 80.5,94.5 79.5,94.5C 79.5,74.5 79.5,54.5 79.5,34.5C 80.5,34.5 81.5,34.5 82.5,34.5 Z"/></g>
<g><path style="opacity:1" fill="#cacaca" d="M 216.5,35.5 C 216.5,36.5 216.5,37.5 216.5,38.5C 171.833,38.5 127.167,38.5 82.5,38.5C 82.5,37.5 82.5,36.5 82.5,35.5C 127.167,35.5 171.833,35.5 216.5,35.5 Z"/></g>
<g><path style="opacity:1" fill="#111111" d="M 77.5,32.5 C 79.7812,32.0773 81.4479,32.744 82.5,34.5C 81.5,34.5 80.5,34.5 79.5,34.5C 79.5,54.5 79.5,74.5 79.5,94.5C 79.719,95.675 79.3857,96.675 78.5,97.5C 77.5003,75.8436 77.167,54.1769 77.5,32.5 Z"/></g>
<g><path style="opacity:1" fill="#fdfdfd" d="M 82.5,38.5 C 127.167,38.5 171.833,38.5 216.5,38.5C 216.5,56.1667 216.5,73.8333 216.5,91.5C 216.5,92.5 216.5,93.5 216.5,94.5C 211.5,94.5 206.5,94.5 201.5,94.5C 201.5,80.5 201.5,66.5 201.5,52.5C 200.5,52.5 199.5,52.5 198.5,52.5C 198.5,51.8333 198.5,51.1667 198.5,50.5C 166.004,49.5017 133.338,49.1684 100.5,49.5C 100.5,50.5 100.5,51.5 100.5,52.5C 99.5,52.5 98.5,52.5 97.5,52.5C 97.5,66.5 97.5,80.5 97.5,94.5C 92.5,94.5 87.5,94.5 82.5,94.5C 82.5,93.5 82.5,92.5 82.5,91.5C 82.5,73.8333 82.5,56.1667 82.5,38.5 Z"/></g>
<g><path style="opacity:1" fill="#323232" d="M 222.5,32.5 C 223.832,42.9788 224.499,53.8121 224.5,65C 224.437,76.9509 223.77,88.7843 222.5,100.5C 215.5,100.5 208.5,100.5 201.5,100.5C 201.5,99.5 201.5,98.5 201.5,97.5C 207.5,97.5 213.5,97.5 219.5,97.5C 219.5,96.5 219.5,95.5 219.5,94.5C 219.5,74.8333 219.5,55.1667 219.5,35.5C 219.5,34.5 219.5,33.5 219.5,32.5C 220.5,32.5 221.5,32.5 222.5,32.5 Z"/></g>
<g><path style="opacity:1" fill="#999999" d="M 82.5,38.5 C 82.5,56.1667 82.5,73.8333 82.5,91.5C 81.1685,83.0262 80.5018,74.1929 80.5,65C 80.5018,55.8071 81.1685,46.9738 82.5,38.5 Z"/></g>
<g><path style="opacity:1" fill="#e6e6e6" d="M 225.5,29.5 C 226.5,29.5 227.5,29.5 228.5,29.5C 228.5,53.1667 228.5,76.8333 228.5,100.5C 227.5,100.5 226.5,100.5 225.5,100.5C 225.5,76.8333 225.5,53.1667 225.5,29.5 Z"/></g>
<g><path style="opacity:1" fill="#a8a8a8" d="M 216.5,35.5 C 217.5,35.5 218.5,35.5 219.5,35.5C 219.5,55.1667 219.5,74.8333 219.5,94.5C 218.5,94.5 217.5,94.5 216.5,94.5C 216.5,93.5 216.5,92.5 216.5,91.5C 217.832,83.0262 218.498,74.1929 218.5,65C 218.498,55.8071 217.832,46.9738 216.5,38.5C 216.5,37.5 216.5,36.5 216.5,35.5 Z"/></g>
<g><path style="opacity:1" fill="#7c7c7c" d="M 76.5,32.5 C 76.5,54.1667 76.5,75.8333 76.5,97.5C 75.1678,87.0212 74.5012,76.1879 74.5,65C 74.5012,53.8121 75.1678,42.9788 76.5,32.5 Z"/></g>
<g><path style="opacity:1" fill="#d4d4d4" d="M 216.5,38.5 C 217.832,46.9738 218.498,55.8071 218.5,65C 218.498,74.1929 217.832,83.0262 216.5,91.5C 216.5,73.8333 216.5,56.1667 216.5,38.5 Z"/></g>
<g><path style="opacity:1" fill="#676767" d="M 222.5,29.5 C 223.5,29.5 224.5,29.5 225.5,29.5C 225.5,53.1667 225.5,76.8333 225.5,100.5C 224.5,100.5 223.5,100.5 222.5,100.5C 223.77,88.7843 224.437,76.9509 224.5,65C 224.499,53.8121 223.832,42.9788 222.5,32.5C 222.5,31.5 222.5,30.5 222.5,29.5 Z"/></g>
<g><path style="opacity:1" fill="#ececec" d="M 198.5,50.5 C 166.482,49.8407 134.816,50.5074 103.5,52.5C 102.5,52.5 101.5,52.5 100.5,52.5C 100.5,51.5 100.5,50.5 100.5,49.5C 133.338,49.1684 166.004,49.5017 198.5,50.5 Z"/></g>
<g><path style="opacity:1" fill="#dadada" d="M 198.5,50.5 C 198.5,51.1667 198.5,51.8333 198.5,52.5C 166.833,52.5 135.167,52.5 103.5,52.5C 134.816,50.5074 166.482,49.8407 198.5,50.5 Z"/></g>
<g><path style="opacity:1" fill="#919191" d="M 100.5,53.5 C 100.5,53.1667 100.5,52.8333 100.5,52.5C 101.5,52.5 102.5,52.5 103.5,52.5C 135.167,52.5 166.833,52.5 198.5,52.5C 199.5,52.5 200.5,52.5 201.5,52.5C 201.5,66.5 201.5,80.5 201.5,94.5C 200.5,94.5 199.5,94.5 198.5,94.5C 198.5,81.5 198.5,68.5 198.5,55.5C 166.184,53.5071 133.517,52.8405 100.5,53.5 Z"/></g>
<g><path style="opacity:1" fill="#464646" d="M 100.5,53.5 C 133.517,52.8405 166.184,53.5071 198.5,55.5C 196.5,55.5 194.5,55.5 192.5,55.5C 192.5,56.5 192.5,57.5 192.5,58.5C 163.833,58.5 135.167,58.5 106.5,58.5C 106.5,57.5 106.5,56.5 106.5,55.5C 104.5,55.5 102.5,55.5 100.5,55.5C 100.5,54.8333 100.5,54.1667 100.5,53.5 Z"/></g>
<g><path style="opacity:1" fill="#adadad" d="M 100.5,52.5 C 100.5,52.8333 100.5,53.1667 100.5,53.5C 100.5,54.1667 100.5,54.8333 100.5,55.5C 100.5,68.5 100.5,81.5 100.5,94.5C 99.5,94.5 98.5,94.5 97.5,94.5C 97.5,80.5 97.5,66.5 97.5,52.5C 98.5,52.5 99.5,52.5 100.5,52.5 Z"/></g>
<g><path style="opacity:1" fill="#fefefe" d="M 192.5,64.5 C 192.5,90.5 192.5,116.5 192.5,142.5C 193.5,142.5 194.5,142.5 195.5,142.5C 195.5,143.167 195.5,143.833 195.5,144.5C 195.5,145.5 195.5,146.5 195.5,147.5C 225.063,148.363 254.73,148.697 284.5,148.5C 284.5,172.833 284.5,197.167 284.5,221.5C 273.833,221.5 263.167,221.5 252.5,221.5C 252.826,212.651 252.493,203.984 251.5,195.5C 251.5,194.5 251.5,193.5 251.5,192.5C 248.5,192.5 245.5,192.5 242.5,192.5C 242.5,193.5 242.5,194.5 242.5,195.5C 240.507,229.817 239.84,264.484 240.5,299.5C 179.833,299.5 119.167,299.5 58.5,299.5C 59.16,264.484 58.4933,229.817 56.5,195.5C 56.5,194.5 56.5,193.5 56.5,192.5C 54.1667,192.5 51.8333,192.5 49.5,192.5C 48.5,192.5 47.5,192.5 46.5,192.5C 46.5,202.167 46.5,211.833 46.5,221.5C 35.8333,221.5 25.1667,221.5 14.5,221.5C 14.5,196.167 14.5,170.833 14.5,145.5C 45.1667,145.5 75.8333,145.5 106.5,145.5C 106.5,144.5 106.5,143.5 106.5,142.5C 107.5,142.5 108.5,142.5 109.5,142.5C 109.5,115.833 109.5,89.1667 109.5,62.5C 137.287,61.8864 164.954,62.5531 192.5,64.5 Z"/></g>
<g><path style="opacity:1" fill="#e7e7e7" d="M 106.5,61.5 C 107.5,61.5 108.5,61.5 109.5,61.5C 137.167,61.5 164.833,61.5 192.5,61.5C 192.5,62.5 192.5,63.5 192.5,64.5C 164.954,62.5531 137.287,61.8864 109.5,62.5C 109.5,89.1667 109.5,115.833 109.5,142.5C 108.5,142.5 107.5,142.5 106.5,142.5C 106.5,115.5 106.5,88.5 106.5,61.5 Z"/></g>
<g><path style="opacity:1" fill="#969696" d="M 106.5,58.5 C 135.167,58.5 163.833,58.5 192.5,58.5C 193.5,58.5 194.5,58.5 195.5,58.5C 195.5,85.5 195.5,112.5 195.5,139.5C 195.5,140.5 195.5,141.5 195.5,142.5C 194.5,142.5 193.5,142.5 192.5,142.5C 192.5,116.5 192.5,90.5 192.5,64.5C 192.5,63.5 192.5,62.5 192.5,61.5C 179.017,60.1674 165.183,59.5007 151,59.5C 136.817,59.5007 122.983,60.1674 109.5,61.5C 108.5,61.5 107.5,61.5 106.5,61.5C 106.5,60.5 106.5,59.5 106.5,58.5 Z"/></g>
<g><path style="opacity:1" fill="#c4c4c4" d="M 192.5,61.5 C 164.833,61.5 137.167,61.5 109.5,61.5C 122.983,60.1674 136.817,59.5007 151,59.5C 165.183,59.5007 179.017,60.1674 192.5,61.5 Z"/></g>
<g><path style="opacity:1" fill="#dddddd" d="M 136.5,70.5 C 130.5,70.5 124.5,70.5 118.5,70.5C 118.5,69.5 118.5,68.5 118.5,67.5C 124.5,67.5 130.5,67.5 136.5,67.5C 136.5,68.5 136.5,69.5 136.5,70.5 Z"/></g>
<g><path style="opacity:1" fill="#b4b4b4" d="M 118.5,70.5 C 118.5,72.5 118.5,74.5 118.5,76.5C 117.5,76.5 116.5,76.5 115.5,76.5C 115.5,74.5 115.5,72.5 115.5,70.5C 116.5,70.5 117.5,70.5 118.5,70.5 Z"/></g>
<g><path style="opacity:1" fill="#5f5f5f" d="M 118.5,70.5 C 124.5,70.5 130.5,70.5 136.5,70.5C 136.5,72.5 136.5,74.5 136.5,76.5C 135.5,76.5 134.5,76.5 133.5,76.5C 133.5,74.8333 133.5,73.1667 133.5,71.5C 129.5,71.5 125.5,71.5 121.5,71.5C 121.5,73.1667 121.5,74.8333 121.5,76.5C 120.5,76.5 119.5,76.5 118.5,76.5C 118.5,74.5 118.5,72.5 118.5,70.5 Z"/></g>
<g><path style="opacity:1" fill="#3d3d3d" d="M 133.5,76.5 C 129.5,76.5 125.5,76.5 121.5,76.5C 121.5,74.8333 121.5,73.1667 121.5,71.5C 125.5,71.5 129.5,71.5 133.5,71.5C 133.5,73.1667 133.5,74.8333 133.5,76.5 Z"/></g>
<g><path style="opacity:1" fill="#c8c8c8" d="M 136.5,70.5 C 137.5,70.5 138.5,70.5 139.5,70.5C 139.5,72.5 139.5,74.5 139.5,76.5C 138.5,76.5 137.5,76.5 136.5,76.5C 136.5,74.5 136.5,72.5 136.5,70.5 Z"/></g>
<g><path style="opacity:1" fill="#494949" d="M 180.5,70.5 C 180.5,72.5 180.5,74.5 180.5,76.5C 174.833,76.5 169.167,76.5 163.5,76.5C 163.141,74.2341 163.808,72.4007 165.5,71C 170.489,70.5007 175.489,70.3341 180.5,70.5 Z"/></g>
<g><path style="opacity:1" fill="#ababab" d="M 180.5,70.5 C 181.5,70.5 182.5,70.5 183.5,70.5C 183.5,72.5 183.5,74.5 183.5,76.5C 182.5,76.5 181.5,76.5 180.5,76.5C 180.5,74.5 180.5,72.5 180.5,70.5 Z"/></g>
<g><path style="opacity:1" fill="#cccccc" d="M 118.5,76.5 C 119.5,76.5 120.5,76.5 121.5,76.5C 125.5,76.5 129.5,76.5 133.5,76.5C 134.5,76.5 135.5,76.5 136.5,76.5C 136.5,77.5 136.5,78.5 136.5,79.5C 130.5,79.5 124.5,79.5 118.5,79.5C 118.5,78.5 118.5,77.5 118.5,76.5 Z"/></g>
<g><path style="opacity:1" fill="#cdcdcd" d="M 180.5,70.5 C 175.489,70.3341 170.489,70.5007 165.5,71C 163.808,72.4007 163.141,74.2341 163.5,76.5C 169.167,76.5 174.833,76.5 180.5,76.5C 180.5,77.5 180.5,78.5 180.5,79.5C 174.5,79.5 168.5,79.5 162.5,79.5C 162.5,75.5 162.5,71.5 162.5,67.5C 168.5,67.5 174.5,67.5 180.5,67.5C 180.5,68.5 180.5,69.5 180.5,70.5 Z"/></g>
<g><path style="opacity:1" fill="#919191" d="M 118.5,79.5 C 124.5,79.5 130.5,79.5 136.5,79.5C 137.5,79.5 138.5,79.5 139.5,79.5C 139.5,80.5 139.5,81.5 139.5,82.5C 139.167,82.5 138.833,82.5 138.5,82.5C 131.833,82.5 125.167,82.5 118.5,82.5C 118.5,81.5 118.5,80.5 118.5,79.5 Z"/></g>
<g><path style="opacity:1" fill="#919191" d="M 162.5,79.5 C 168.5,79.5 174.5,79.5 180.5,79.5C 180.5,80.5 180.5,81.5 180.5,82.5C 173.833,82.5 167.167,82.5 160.5,82.5C 160.167,82.5 159.833,82.5 159.5,82.5C 159.5,81.5 159.5,80.5 159.5,79.5C 160.5,79.5 161.5,79.5 162.5,79.5 Z"/></g>
<g><path style="opacity:1" fill="#969696" d="M 118.5,82.5 C 118.5,87.5 118.5,92.5 118.5,97.5C 117.5,97.5 116.5,97.5 115.5,97.5C 115.5,92.5 115.5,87.5 115.5,82.5C 116.5,82.5 117.5,82.5 118.5,82.5 Z"/></g>
<g><path style="opacity:1" fill="#595959" d="M 159.5,82.5 C 159.833,82.5 160.167,82.5 160.5,82.5C 160.198,87.6786 160.865,92.6786 162.5,97.5C 161.5,97.5 160.5,97.5 159.5,97.5C 159.5,92.5 159.5,87.5 159.5,82.5 Z"/></g>
<g><path style="opacity:1" fill="#8b8b8b" d="M 180.5,82.5 C 181.5,82.5 182.5,82.5 183.5,82.5C 183.5,87.5 183.5,92.5 183.5,97.5C 182.5,97.5 181.5,97.5 180.5,97.5C 180.5,92.5 180.5,87.5 180.5,82.5 Z"/></g>
<g><path style="opacity:1" fill="#adadad" d="M 159.5,82.5 C 159.5,87.5 159.5,92.5 159.5,97.5C 158.5,97.5 157.5,97.5 156.5,97.5C 156.5,92.5 156.5,87.5 156.5,82.5C 157.5,82.5 158.5,82.5 159.5,82.5 Z"/></g>
<g><path style="opacity:1" fill="#4e4e4e" d="M 138.5,82.5 C 138.833,82.5 139.167,82.5 139.5,82.5C 139.5,87.5 139.5,92.5 139.5,97.5C 138.5,97.5 137.5,97.5 136.5,97.5C 137.167,95.5 137.833,93.5 138.5,91.5C 133.833,91.5 129.167,91.5 124.5,91.5C 124.5,89.5 124.5,87.5 124.5,85.5C 127.5,85.5 130.5,85.5 133.5,85.5C 133.5,86.5 133.5,87.5 133.5,88.5C 135.167,88.5 136.833,88.5 138.5,88.5C 138.5,86.5 138.5,84.5 138.5,82.5 Z"/></g>
<g><path style="opacity:1" fill="#9c9c9c" d="M 139.5,82.5 C 140.5,82.5 141.5,82.5 142.5,82.5C 142.5,87.5 142.5,92.5 142.5,97.5C 141.5,97.5 140.5,97.5 139.5,97.5C 139.5,92.5 139.5,87.5 139.5,82.5 Z"/></g>
<g><path style="opacity:1" fill="#242424" d="M 160.5,82.5 C 167.167,82.5 173.833,82.5 180.5,82.5C 180.5,87.5 180.5,92.5 180.5,97.5C 174.5,97.5 168.5,97.5 162.5,97.5C 160.865,92.6786 160.198,87.6786 160.5,82.5 Z"/></g>
<g><path style="opacity:1" fill="#505050" d="M 165.5,85.5 C 169.5,85.5 173.5,85.5 177.5,85.5C 177.5,87.5 177.5,89.5 177.5,91.5C 172.5,91.5 167.5,91.5 162.5,91.5C 162.5,90.5 162.5,89.5 162.5,88.5C 163.5,88.5 164.5,88.5 165.5,88.5C 165.5,87.5 165.5,86.5 165.5,85.5 Z"/></g>
<g><path style="opacity:1" fill="#262626" d="M 118.5,82.5 C 125.167,82.5 131.833,82.5 138.5,82.5C 138.5,84.5 138.5,86.5 138.5,88.5C 136.833,88.5 135.167,88.5 133.5,88.5C 133.5,87.5 133.5,86.5 133.5,85.5C 134.376,85.6309 135.043,85.2975 135.5,84.5C 130.833,83.1667 126.167,83.1667 121.5,84.5C 122.325,85.3857 123.325,85.719 124.5,85.5C 124.5,87.5 124.5,89.5 124.5,91.5C 129.167,91.5 133.833,91.5 138.5,91.5C 137.833,93.5 137.167,95.5 136.5,97.5C 130.5,97.5 124.5,97.5 118.5,97.5C 118.5,92.5 118.5,87.5 118.5,82.5 Z"/></g>
<g><path style="opacity:1" fill="#141414" d="M 133.5,85.5 C 130.5,85.5 127.5,85.5 124.5,85.5C 123.325,85.719 122.325,85.3857 121.5,84.5C 126.167,83.1667 130.833,83.1667 135.5,84.5C 135.043,85.2975 134.376,85.6309 133.5,85.5 Z"/></g>
<g><path style="opacity:1" fill="#6e6e6e" d="M 201.5,94.5 C 206.5,94.5 211.5,94.5 216.5,94.5C 217.5,94.5 218.5,94.5 219.5,94.5C 219.5,95.5 219.5,96.5 219.5,97.5C 213.5,97.5 207.5,97.5 201.5,97.5C 201.5,96.5 201.5,95.5 201.5,94.5 Z"/></g>
<g><path style="opacity:1" fill="#292929" d="M 76.5,32.5 C 76.8333,32.5 77.1667,32.5 77.5,32.5C 77.167,54.1769 77.5003,75.8436 78.5,97.5C 79.3857,96.675 79.719,95.675 79.5,94.5C 80.5,94.5 81.5,94.5 82.5,94.5C 82.5,95.5 82.5,96.5 82.5,97.5C 88.5,97.5 94.5,97.5 100.5,97.5C 100.5,96.5 100.5,95.5 100.5,94.5C 100.5,81.5 100.5,68.5 100.5,55.5C 102.5,55.5 104.5,55.5 106.5,55.5C 106.5,56.5 106.5,57.5 106.5,58.5C 106.5,59.5 106.5,60.5 106.5,61.5C 106.167,61.5 105.833,61.5 105.5,61.5C 103.509,86.8116 102.843,112.478 103.5,138.5C 103.5,138.833 103.5,139.167 103.5,139.5C 102.5,139.5 101.5,139.5 100.5,139.5C 100.5,138.5 100.5,137.5 100.5,136.5C 100.5,125.5 100.5,114.5 100.5,103.5C 100.5,102.5 100.5,101.5 100.5,100.5C 99.5,100.5 98.5,100.5 97.5,100.5C 90.5,100.5 83.5,100.5 76.5,100.5C 76.5,99.5 76.5,98.5 76.5,97.5C 76.5,75.8333 76.5,54.1667 76.5,32.5 Z"/></g>
<g><path style="opacity:1" fill="#6f6f6f" d="M 82.5,94.5 C 87.5,94.5 92.5,94.5 97.5,94.5C 98.5,94.5 99.5,94.5 100.5,94.5C 100.5,95.5 100.5,96.5 100.5,97.5C 94.5,97.5 88.5,97.5 82.5,97.5C 82.5,96.5 82.5,95.5 82.5,94.5 Z"/></g>
<g><path style="opacity:1" fill="#c9c9c9" d="M 118.5,97.5 C 124.5,97.5 130.5,97.5 136.5,97.5C 137.5,97.5 138.5,97.5 139.5,97.5C 139.5,98.5 139.5,99.5 139.5,100.5C 132.5,100.5 125.5,100.5 118.5,100.5C 118.5,99.5 118.5,98.5 118.5,97.5 Z"/></g>
<g><path style="opacity:1" fill="#a1a1a1" d="M 76.5,100.5 C 83.5,100.5 90.5,100.5 97.5,100.5C 97.5,101.5 97.5,102.5 97.5,103.5C 90.5,103.5 83.5,103.5 76.5,103.5C 76.5,102.5 76.5,101.5 76.5,100.5 Z"/></g>
<g><path style="opacity:1" fill="#575857" d="M 97.5,100.5 C 98.5,100.5 99.5,100.5 100.5,100.5C 100.5,101.5 100.5,102.5 100.5,103.5C 99.5,103.5 98.5,103.5 97.5,103.5C 97.5,102.5 97.5,101.5 97.5,100.5 Z"/></g>
<g><path style="opacity:1" fill="#d6d6d6" d="M 156.5,97.5 C 157.5,97.5 158.5,97.5 159.5,97.5C 160.5,97.5 161.5,97.5 162.5,97.5C 168.5,97.5 174.5,97.5 180.5,97.5C 180.5,98.5 180.5,99.5 180.5,100.5C 173.5,100.5 166.5,100.5 159.5,100.5C 159.5,101.5 159.5,102.5 159.5,103.5C 158.5,103.5 157.5,103.5 156.5,103.5C 151.833,103.5 147.167,103.5 142.5,103.5C 142.5,102.5 142.5,101.5 142.5,100.5C 147.167,100.5 151.833,100.5 156.5,100.5C 156.5,99.5 156.5,98.5 156.5,97.5 Z"/></g>
<g><path style="opacity:1" fill="#454645" d="M 201.5,100.5 C 201.5,101.5 201.5,102.5 201.5,103.5C 200.5,103.5 199.5,103.5 198.5,103.5C 198.5,102.5 198.5,101.5 198.5,100.5C 199.5,100.5 200.5,100.5 201.5,100.5 Z"/></g>
<g><path style="opacity:1" fill="#a6a6a6" d="M 201.5,100.5 C 208.5,100.5 215.5,100.5 222.5,100.5C 223.5,100.5 224.5,100.5 225.5,100.5C 225.5,101.5 225.5,102.5 225.5,103.5C 217.5,103.5 209.5,103.5 201.5,103.5C 201.5,102.5 201.5,101.5 201.5,100.5 Z"/></g>
<g><path style="opacity:1" fill="#535353" d="M 105.5,61.5 C 106.157,87.5217 105.491,113.188 103.5,138.5C 102.843,112.478 103.509,86.8116 105.5,61.5 Z"/></g>
<g><path style="opacity:1" fill="#5f5f5f" d="M 142.5,103.5 C 147.167,103.5 151.833,103.5 156.5,103.5C 156.5,104.5 156.5,105.5 156.5,106.5C 151.833,106.5 147.167,106.5 142.5,106.5C 142.5,105.5 142.5,104.5 142.5,103.5 Z"/></g>
<g><path style="opacity:1" fill="#151515" d="M 198.5,55.5 C 198.5,68.5 198.5,81.5 198.5,94.5C 199.5,94.5 200.5,94.5 201.5,94.5C 201.5,95.5 201.5,96.5 201.5,97.5C 201.5,98.5 201.5,99.5 201.5,100.5C 200.5,100.5 199.5,100.5 198.5,100.5C 198.5,101.5 198.5,102.5 198.5,103.5C 198.5,114.5 198.5,125.5 198.5,136.5C 198.5,137.5 198.5,138.5 198.5,139.5C 197.5,139.5 196.5,139.5 195.5,139.5C 195.5,112.5 195.5,85.5 195.5,58.5C 194.5,58.5 193.5,58.5 192.5,58.5C 192.5,57.5 192.5,56.5 192.5,55.5C 194.5,55.5 196.5,55.5 198.5,55.5 Z"/></g>
<g><path style="opacity:1" fill="#acacac" d="M 139.5,103.5 C 140.5,103.5 141.5,103.5 142.5,103.5C 142.5,104.5 142.5,105.5 142.5,106.5C 142.5,107.5 142.5,108.5 142.5,109.5C 141.5,109.5 140.5,109.5 139.5,109.5C 139.5,107.5 139.5,105.5 139.5,103.5 Z"/></g>
<g><path style="opacity:1" fill="#a1a1a1" d="M 156.5,103.5 C 157.5,103.5 158.5,103.5 159.5,103.5C 160.055,107.012 159.388,110.012 157.5,112.5C 157.167,112.5 156.833,112.5 156.5,112.5C 156.5,111.5 156.5,110.5 156.5,109.5C 156.5,108.5 156.5,107.5 156.5,106.5C 156.5,105.5 156.5,104.5 156.5,103.5 Z"/></g>
<g><path style="opacity:1" fill="#222222" d="M 142.5,106.5 C 147.167,106.5 151.833,106.5 156.5,106.5C 156.5,107.5 156.5,108.5 156.5,109.5C 151.833,109.5 147.167,109.5 142.5,109.5C 142.5,108.5 142.5,107.5 142.5,106.5 Z"/></g>
<g><path style="opacity:1" fill="#595959" d="M 142.5,109.5 C 147.167,109.5 151.833,109.5 156.5,109.5C 156.5,110.5 156.5,111.5 156.5,112.5C 151.833,112.5 147.167,112.5 142.5,112.5C 142.5,111.5 142.5,110.5 142.5,109.5 Z"/></g>
<g><path style="opacity:1" fill="#8b8b8b" d="M 198.5,103.5 C 199.5,103.5 200.5,103.5 201.5,103.5C 201.5,113.5 201.5,123.5 201.5,133.5C 201.5,134.5 201.5,135.5 201.5,136.5C 200.5,136.5 199.5,136.5 198.5,136.5C 198.5,125.5 198.5,114.5 198.5,103.5 Z"/></g>
<g><path style="opacity:1" fill="#e6e6e6" d="M 139.5,103.5 C 139.5,105.5 139.5,107.5 139.5,109.5C 140.5,109.5 141.5,109.5 142.5,109.5C 142.5,110.5 142.5,111.5 142.5,112.5C 147.167,112.5 151.833,112.5 156.5,112.5C 156.833,112.5 157.167,112.5 157.5,112.5C 157.5,113.5 157.5,114.5 157.5,115.5C 152.167,115.5 146.833,115.5 141.5,115.5C 141.5,114.5 141.5,113.5 141.5,112.5C 140.5,112.5 139.5,112.5 138.5,112.5C 138.19,109.287 138.523,106.287 139.5,103.5 Z"/></g>
<g><path style="opacity:1" fill="#acacac" d="M 133.5,118.5 C 134.1,119.9 135.1,120.9 136.5,121.5C 134.5,121.5 132.5,121.5 130.5,121.5C 130.5,122.5 130.5,123.5 130.5,124.5C 130.5,125.5 130.5,126.5 130.5,127.5C 129.5,127.5 128.5,127.5 127.5,127.5C 127.5,124.5 127.5,121.5 127.5,118.5C 129.5,118.5 131.5,118.5 133.5,118.5 Z"/></g>
<g><path style="opacity:1" fill="#dddddd" d="M 133.5,118.5 C 138.773,119.428 144.106,120.095 149.5,120.5C 154.894,120.095 160.227,119.428 165.5,118.5C 165.5,119.5 165.5,120.5 165.5,121.5C 164.5,121.5 163.5,121.5 162.5,121.5C 161.5,121.5 160.5,121.5 159.5,121.5C 154.5,121.5 149.5,121.5 144.5,121.5C 141.833,121.5 139.167,121.5 136.5,121.5C 135.1,120.9 134.1,119.9 133.5,118.5 Z"/></g>
<g><path style="opacity:1" fill="#afafaf" d="M 165.5,118.5 C 167.5,118.5 169.5,118.5 171.5,118.5C 171.5,119.5 171.5,120.5 171.5,121.5C 169.5,121.5 167.5,121.5 165.5,121.5C 165.5,120.5 165.5,119.5 165.5,118.5 Z"/></g>
<g><path style="opacity:1" fill="#868686" d="M 136.5,121.5 C 139.167,121.5 141.833,121.5 144.5,121.5C 146.571,122.809 149.071,123.475 152,123.5C 154.929,123.475 157.429,122.809 159.5,121.5C 160.5,121.5 161.5,121.5 162.5,121.5C 162.5,122.5 162.5,123.5 162.5,124.5C 153.833,124.5 145.167,124.5 136.5,124.5C 136.5,123.5 136.5,122.5 136.5,121.5 Z"/></g>
<g><path style="opacity:1" fill="#a6a6a6" d="M 144.5,121.5 C 149.5,121.5 154.5,121.5 159.5,121.5C 157.429,122.809 154.929,123.475 152,123.5C 149.071,123.475 146.571,122.809 144.5,121.5 Z"/></g>
<g><path style="opacity:1" fill="#464646" d="M 136.5,121.5 C 136.5,122.5 136.5,123.5 136.5,124.5C 145.167,124.5 153.833,124.5 162.5,124.5C 163.043,124.56 163.376,124.893 163.5,125.5C 152.373,127.022 141.373,126.689 130.5,124.5C 130.5,123.5 130.5,122.5 130.5,121.5C 132.5,121.5 134.5,121.5 136.5,121.5 Z"/></g>
<g><path style="opacity:1" fill="#a4a4a4" d="M 171.5,124.5 C 171.5,125.5 171.5,126.5 171.5,127.5C 170.5,127.5 169.5,127.5 168.5,127.5C 168.5,126.5 168.5,125.5 168.5,124.5C 169.5,124.5 170.5,124.5 171.5,124.5 Z"/></g>
<g><path style="opacity:1" fill="#595959" d="M 162.5,121.5 C 163.5,121.5 164.5,121.5 165.5,121.5C 167.5,121.5 169.5,121.5 171.5,121.5C 171.5,122.5 171.5,123.5 171.5,124.5C 170.5,124.5 169.5,124.5 168.5,124.5C 168.5,125.5 168.5,126.5 168.5,127.5C 163.227,128.428 157.894,129.095 152.5,129.5C 147.106,129.095 141.773,128.428 136.5,127.5C 134.5,127.5 132.5,127.5 130.5,127.5C 130.5,126.5 130.5,125.5 130.5,124.5C 141.373,126.689 152.373,127.022 163.5,125.5C 163.376,124.893 163.043,124.56 162.5,124.5C 162.5,123.5 162.5,122.5 162.5,121.5 Z"/></g>
<g><path style="opacity:1" fill="#929292" d="M 136.5,127.5 C 141.773,128.428 147.106,129.095 152.5,129.5C 157.894,129.095 163.227,128.428 168.5,127.5C 168.5,128.5 168.5,129.5 168.5,130.5C 157.833,130.5 147.167,130.5 136.5,130.5C 136.5,129.5 136.5,128.5 136.5,127.5 Z"/></g>
<g><path style="opacity:1" fill="#d8d8d8" d="M 97.5,133.5 C 67.1848,135.492 36.5182,136.159 5.5,135.5C 35.8152,133.508 66.4818,132.841 97.5,133.5 Z"/></g>
<g><path style="opacity:1" fill="#d8d8d8" d="M 204.5,133.5 C 234.519,132.841 264.185,133.508 293.5,135.5C 263.481,136.159 233.815,135.492 204.5,133.5 Z"/></g>
<g><path style="opacity:1" fill="#b0b0b0" d="M 97.5,103.5 C 98.5,103.5 99.5,103.5 100.5,103.5C 100.5,114.5 100.5,125.5 100.5,136.5C 99.5,136.5 98.5,136.5 97.5,136.5C 66.8333,136.5 36.1667,136.5 5.5,136.5C 5.5,136.167 5.5,135.833 5.5,135.5C 36.5182,136.159 67.1848,135.492 97.5,133.5C 97.5,123.5 97.5,113.5 97.5,103.5 Z"/></g>
<g><path style="opacity:1" fill="#b4b4b4" d="M 201.5,133.5 C 202.5,133.5 203.5,133.5 204.5,133.5C 233.815,135.492 263.481,136.159 293.5,135.5C 293.5,135.833 293.5,136.167 293.5,136.5C 263.833,136.5 234.167,136.5 204.5,136.5C 203.5,136.5 202.5,136.5 201.5,136.5C 201.5,135.5 201.5,134.5 201.5,133.5 Z"/></g>
<g><path style="opacity:1" fill="#797979" d="M 204.5,136.5 C 234.167,136.5 263.833,136.5 293.5,136.5C 293.5,137.167 293.5,137.833 293.5,138.5C 263.481,139.159 233.815,138.492 204.5,136.5 Z"/></g>
<g><path style="opacity:1" fill="#636363" d="M 201.5,136.5 C 202.5,136.5 203.5,136.5 204.5,136.5C 233.815,138.492 263.481,139.159 293.5,138.5C 293.5,138.833 293.5,139.167 293.5,139.5C 262.833,139.5 232.167,139.5 201.5,139.5C 201.5,138.5 201.5,137.5 201.5,136.5 Z"/></g>
<g><path style="opacity:1" fill="#404040" d="M 97.5,136.5 C 98.5,136.5 99.5,136.5 100.5,136.5C 100.5,137.5 100.5,138.5 100.5,139.5C 101.5,139.5 102.5,139.5 103.5,139.5C 73.1848,141.492 42.5182,142.159 11.5,141.5C 11.5,140.833 11.5,140.167 11.5,139.5C 40.1667,139.5 68.8333,139.5 97.5,139.5C 97.5,138.5 97.5,137.5 97.5,136.5 Z"/></g>
<g><path style="opacity:1" fill="#646464" d="M 105.5,61.5 C 105.833,61.5 106.167,61.5 106.5,61.5C 106.5,88.5 106.5,115.5 106.5,142.5C 105.5,142.5 104.5,142.5 103.5,142.5C 72.8333,142.5 42.1667,142.5 11.5,142.5C 11.5,142.167 11.5,141.833 11.5,141.5C 42.5182,142.159 73.1848,141.492 103.5,139.5C 103.5,139.167 103.5,138.833 103.5,138.5C 105.491,113.188 106.157,87.5217 105.5,61.5 Z"/></g>
<g><path style="opacity:1" fill="#797979" d="M 5.5,136.5 C 36.1667,136.5 66.8333,136.5 97.5,136.5C 97.5,137.5 97.5,138.5 97.5,139.5C 68.8333,139.5 40.1667,139.5 11.5,139.5C 9.5,139.5 7.5,139.5 5.5,139.5C 5.5,169.167 5.5,198.833 5.5,228.5C 19.1267,230.482 33.1267,231.149 47.5,230.5C 48.4916,230.328 49.1583,230.662 49.5,231.5C 34.8333,231.5 20.1667,231.5 5.5,231.5C 4.5,231.5 3.5,231.5 2.5,231.5C 2.5,199.833 2.5,168.167 2.5,136.5C 3.5,136.5 4.5,136.5 5.5,136.5 Z"/></g>
<g><path style="opacity:1" fill="#9a9a9a" d="M 11.5,142.5 C 42.1667,142.5 72.8333,142.5 103.5,142.5C 73.1848,144.492 42.5182,145.159 11.5,144.5C 11.5,143.833 11.5,143.167 11.5,142.5 Z"/></g>
<g><path style="opacity:1" fill="#9a9a9a" d="M 195.5,142.5 C 226.518,141.841 257.185,142.508 287.5,144.5C 256.833,144.5 226.167,144.5 195.5,144.5C 195.5,143.833 195.5,143.167 195.5,142.5 Z"/></g>
<g><path style="opacity:1" fill="#c7c7c7" d="M 103.5,142.5 C 104.5,142.5 105.5,142.5 106.5,142.5C 106.5,143.5 106.5,144.5 106.5,145.5C 75.8333,145.5 45.1667,145.5 14.5,145.5C 13.5,145.5 12.5,145.5 11.5,145.5C 11.5,145.167 11.5,144.833 11.5,144.5C 42.5182,145.159 73.1848,144.492 103.5,142.5 Z"/></g>
<g><path style="opacity:1" fill="#303030" d="M 11.5,139.5 C 11.5,140.167 11.5,140.833 11.5,141.5C 11.5,141.833 11.5,142.167 11.5,142.5C 11.5,143.167 11.5,143.833 11.5,144.5C 10.5,144.5 9.5,144.5 8.5,144.5C 8.5,170.5 8.5,196.5 8.5,222.5C 9.5,222.5 10.5,222.5 11.5,222.5C 11.5,223.5 11.5,224.5 11.5,225.5C 11.5,226.5 11.5,227.5 11.5,228.5C 9.5,228.5 7.5,228.5 5.5,228.5C 5.5,198.833 5.5,169.167 5.5,139.5C 7.5,139.5 9.5,139.5 11.5,139.5 Z"/></g>
<g><path style="opacity:1" fill="#464646" d="M 198.5,136.5 C 199.5,136.5 200.5,136.5 201.5,136.5C 201.5,137.5 201.5,138.5 201.5,139.5C 232.167,139.5 262.833,139.5 293.5,139.5C 293.5,169.167 293.5,198.833 293.5,228.5C 279.793,230.062 266.127,231.062 252.5,231.5C 252.167,231.5 251.833,231.5 251.5,231.5C 250.833,231.5 250.167,231.5 249.5,231.5C 251.075,229.886 251.741,227.886 251.5,225.5C 263.5,225.5 275.5,225.5 287.5,225.5C 287.5,224.5 287.5,223.5 287.5,222.5C 288.5,222.5 289.5,222.5 290.5,222.5C 290.5,196.5 290.5,170.5 290.5,144.5C 289.5,144.5 288.5,144.5 287.5,144.5C 257.185,142.508 226.518,141.841 195.5,142.5C 195.5,141.5 195.5,140.5 195.5,139.5C 196.5,139.5 197.5,139.5 198.5,139.5C 198.5,138.5 198.5,137.5 198.5,136.5 Z"/></g>
<g><path style="opacity:1" fill="#707070" d="M 293.5,139.5 C 294.5,139.5 295.5,139.5 296.5,139.5C 296.5,169.167 296.5,198.833 296.5,228.5C 295.5,228.5 294.5,228.5 293.5,228.5C 293.5,198.833 293.5,169.167 293.5,139.5 Z"/></g>
<g><path style="opacity:1" fill="#8f8f8f" d="M 11.5,144.5 C 11.5,144.833 11.5,145.167 11.5,145.5C 11.5,171.167 11.5,196.833 11.5,222.5C 10.5,222.5 9.5,222.5 8.5,222.5C 8.5,196.5 8.5,170.5 8.5,144.5C 9.5,144.5 10.5,144.5 11.5,144.5 Z"/></g>
<g><path style="opacity:1" fill="#e9e9e9" d="M 11.5,145.5 C 12.5,145.5 13.5,145.5 14.5,145.5C 14.5,170.833 14.5,196.167 14.5,221.5C 25.1667,221.5 35.8333,221.5 46.5,221.5C 46.5,211.833 46.5,202.167 46.5,192.5C 47.5,192.5 48.5,192.5 49.5,192.5C 49.5,193.5 49.5,194.5 49.5,195.5C 49.5,204.5 49.5,213.5 49.5,222.5C 37.8333,222.5 26.1667,222.5 14.5,222.5C 13.5,222.5 12.5,222.5 11.5,222.5C 11.5,196.833 11.5,171.167 11.5,145.5 Z"/></g>
<g><path style="opacity:1" fill="#ececec" d="M 195.5,144.5 C 226.167,144.5 256.833,144.5 287.5,144.5C 287.5,170.5 287.5,196.5 287.5,222.5C 275.5,222.5 263.5,222.5 251.5,222.5C 251.5,213.5 251.5,204.5 251.5,195.5C 252.493,203.984 252.826,212.651 252.5,221.5C 263.167,221.5 273.833,221.5 284.5,221.5C 284.5,197.167 284.5,172.833 284.5,148.5C 254.73,148.697 225.063,148.363 195.5,147.5C 195.5,146.5 195.5,145.5 195.5,144.5 Z"/></g>
<g><path style="opacity:1" fill="#8d8d8d" d="M 287.5,144.5 C 288.5,144.5 289.5,144.5 290.5,144.5C 290.5,170.5 290.5,196.5 290.5,222.5C 289.5,222.5 288.5,222.5 287.5,222.5C 287.5,196.5 287.5,170.5 287.5,144.5 Z"/></g>
<g><path style="opacity:1" fill="#e8e8e8" d="M 293.5,136.5 C 295.5,136.5 297.5,136.5 299.5,136.5C 299.5,167.167 299.5,197.833 299.5,228.5C 298.5,228.5 297.5,228.5 296.5,228.5C 296.5,198.833 296.5,169.167 296.5,139.5C 295.5,139.5 294.5,139.5 293.5,139.5C 293.5,139.167 293.5,138.833 293.5,138.5C 293.5,137.833 293.5,137.167 293.5,136.5 Z"/></g>
<g><path style="opacity:1" fill="#ababab" d="M 251.5,195.5 C 251.5,204.5 251.5,213.5 251.5,222.5C 249.844,213.713 248.844,204.713 248.5,195.5C 247.833,195.5 247.167,195.5 246.5,195.5C 245.5,195.5 244.5,195.5 243.5,195.5C 243.5,230.167 243.5,264.833 243.5,299.5C 243.167,299.5 242.833,299.5 242.5,299.5C 242.5,264.833 242.5,230.167 242.5,195.5C 242.5,194.5 242.5,193.5 242.5,192.5C 245.5,192.5 248.5,192.5 251.5,192.5C 251.5,193.5 251.5,194.5 251.5,195.5 Z"/></g>
<g><path style="opacity:1" fill="#5b5b5b" d="M 248.5,195.5 C 248.844,204.713 249.844,213.713 251.5,222.5C 251.5,223.5 251.5,224.5 251.5,225.5C 250.5,225.5 249.5,225.5 248.5,225.5C 248.5,215.5 248.5,205.5 248.5,195.5 Z"/></g>
<g><path style="opacity:1" fill="#1a1a1a" d="M 50.5,222.5 C 51.5,222.5 52.5,222.5 53.5,222.5C 53.5,225.5 53.5,228.5 53.5,231.5C 52.5,231.5 51.5,231.5 50.5,231.5C 50.5,229.5 50.5,227.5 50.5,225.5C 50.5,224.5 50.5,223.5 50.5,222.5 Z"/></g>
<g><path style="opacity:1" fill="#a1a1a1" d="M 251.5,222.5 C 263.5,222.5 275.5,222.5 287.5,222.5C 287.5,223.5 287.5,224.5 287.5,225.5C 275.5,225.5 263.5,225.5 251.5,225.5C 251.5,224.5 251.5,223.5 251.5,222.5 Z"/></g>
<g><path style="opacity:1" fill="#8a8a8a" d="M 49.5,195.5 C 49.8333,195.5 50.1667,195.5 50.5,195.5C 50.5,204.5 50.5,213.5 50.5,222.5C 50.5,223.5 50.5,224.5 50.5,225.5C 37.5,225.5 24.5,225.5 11.5,225.5C 11.5,224.5 11.5,223.5 11.5,222.5C 12.5,222.5 13.5,222.5 14.5,222.5C 19.9597,223.829 25.793,224.496 32,224.5C 38.207,224.496 44.0403,223.829 49.5,222.5C 49.5,213.5 49.5,204.5 49.5,195.5 Z"/></g>
<g><path style="opacity:1" fill="#a7a7a7" d="M 14.5,222.5 C 26.1667,222.5 37.8333,222.5 49.5,222.5C 44.0403,223.829 38.207,224.496 32,224.5C 25.793,224.496 19.9597,223.829 14.5,222.5 Z"/></g>
<g><path style="opacity:1" fill="#515151" d="M 11.5,225.5 C 24.5,225.5 37.5,225.5 50.5,225.5C 50.5,227.5 50.5,229.5 50.5,231.5C 50.5,254.167 50.5,276.833 50.5,299.5C 50.1667,299.5 49.8333,299.5 49.5,299.5C 49.5,276.833 49.5,254.167 49.5,231.5C 49.1583,230.662 48.4916,230.328 47.5,230.5C 35.8799,228.521 23.8799,227.854 11.5,228.5C 11.5,227.5 11.5,226.5 11.5,225.5 Z"/></g>
<g><path style="opacity:1" fill="#535353" d="M 5.5,228.5 C 7.5,228.5 9.5,228.5 11.5,228.5C 23.8799,227.854 35.8799,228.521 47.5,230.5C 33.1267,231.149 19.1267,230.482 5.5,228.5 Z"/></g>
<g><path style="opacity:1" fill="#8d8d8d" d="M 293.5,228.5 C 294.5,228.5 295.5,228.5 296.5,228.5C 296.5,229.5 296.5,230.5 296.5,231.5C 281.833,231.5 267.167,231.5 252.5,231.5C 266.127,231.062 279.793,230.062 293.5,228.5 Z"/></g>
<g><path style="opacity:1" fill="#fefefe" d="M 296.5,228.5 C 297.5,228.5 298.5,228.5 299.5,228.5C 299.5,252.167 299.5,275.833 299.5,299.5C 283.833,299.5 268.167,299.5 252.5,299.5C 252.5,277.833 252.5,256.167 252.5,234.5C 267.167,234.5 281.833,234.5 296.5,234.5C 296.5,233.5 296.5,232.5 296.5,231.5C 296.5,230.5 296.5,229.5 296.5,228.5 Z"/></g>
<g><path style="opacity:1" fill="#363636" d="M 50.5,195.5 C 52.1667,195.5 53.8333,195.5 55.5,195.5C 55.5,230.167 55.5,264.833 55.5,299.5C 53.8333,299.5 52.1667,299.5 50.5,299.5C 50.5,276.833 50.5,254.167 50.5,231.5C 51.5,231.5 52.5,231.5 53.5,231.5C 53.5,228.5 53.5,225.5 53.5,222.5C 52.5,222.5 51.5,222.5 50.5,222.5C 50.5,213.5 50.5,204.5 50.5,195.5 Z"/></g>
<g><path style="opacity:1" fill="#dedede" d="M 251.5,231.5 C 251.833,231.5 252.167,231.5 252.5,231.5C 267.167,231.5 281.833,231.5 296.5,231.5C 296.5,232.5 296.5,233.5 296.5,234.5C 281.833,234.5 267.167,234.5 252.5,234.5C 252.5,256.167 252.5,277.833 252.5,299.5C 252.167,299.5 251.833,299.5 251.5,299.5C 251.5,276.833 251.5,254.167 251.5,231.5 Z"/></g>
<g><path style="opacity:1" fill="#e1e1e1" d="M 56.5,195.5 C 58.4933,229.817 59.16,264.484 58.5,299.5C 57.8333,299.5 57.1667,299.5 56.5,299.5C 56.5,264.833 56.5,230.167 56.5,195.5 Z"/></g>
<g><path style="opacity:1" fill="#656565" d="M 246.5,195.5 C 246.5,230.167 246.5,264.833 246.5,299.5C 245.5,299.5 244.5,299.5 243.5,299.5C 243.5,264.833 243.5,230.167 243.5,195.5C 244.5,195.5 245.5,195.5 246.5,195.5 Z"/></g>
<g><path style="opacity:1" fill="#1b1b1b" d="M 246.5,195.5 C 247.167,195.5 247.833,195.5 248.5,195.5C 248.5,205.5 248.5,215.5 248.5,225.5C 249.5,225.5 250.5,225.5 251.5,225.5C 251.741,227.886 251.075,229.886 249.5,231.5C 248.503,253.994 248.169,276.661 248.5,299.5C 247.833,299.5 247.167,299.5 246.5,299.5C 246.5,264.833 246.5,230.167 246.5,195.5 Z"/></g>
<g><path style="opacity:1" fill="#d9d9d9" d="M 5.5,231.5 C 20.1667,231.5 34.8333,231.5 49.5,231.5C 49.5,254.167 49.5,276.833 49.5,299.5C 48.8333,299.5 48.1667,299.5 47.5,299.5C 47.5,277.833 47.5,256.167 47.5,234.5C 33.5,234.5 19.5,234.5 5.5,234.5C 5.5,233.5 5.5,232.5 5.5,231.5 Z"/></g>
<g><path style="opacity:1" fill="#a0a0a0" d="M 49.5,192.5 C 51.8333,192.5 54.1667,192.5 56.5,192.5C 56.5,193.5 56.5,194.5 56.5,195.5C 56.5,230.167 56.5,264.833 56.5,299.5C 56.1667,299.5 55.8333,299.5 55.5,299.5C 55.5,264.833 55.5,230.167 55.5,195.5C 53.8333,195.5 52.1667,195.5 50.5,195.5C 50.1667,195.5 49.8333,195.5 49.5,195.5C 49.5,194.5 49.5,193.5 49.5,192.5 Z"/></g>
<g><path style="opacity:1" fill="#8e8e8e" d="M 249.5,231.5 C 250.167,231.5 250.833,231.5 251.5,231.5C 251.5,254.167 251.5,276.833 251.5,299.5C 250.5,299.5 249.5,299.5 248.5,299.5C 248.169,276.661 248.503,253.994 249.5,231.5 Z"/></g>
<g><path style="opacity:1" fill="#ededed" d="M 242.5,195.5 C 242.5,230.167 242.5,264.833 242.5,299.5C 241.833,299.5 241.167,299.5 240.5,299.5C 239.84,264.484 240.507,229.817 242.5,195.5 Z"/></g>
</svg>
