<?xml version="1.0" encoding="UTF-8"?>
<!DOCTYPE svg PUBLIC "-//W3C//DTD SVG 1.1//EN" "http://www.w3.org/Graphics/SVG/1.1/DTD/svg11.dtd">
<svg xmlns="http://www.w3.org/2000/svg" version="1.1" width="300px" height="300px" style="shape-rendering:geometricPrecision; text-rendering:geometricPrecision; image-rendering:optimizeQuality; fill-rule:evenodd; clip-rule:evenodd" xmlns:xlink="http://www.w3.org/1999/xlink">
<g><path style="opacity:0.976" fill="#fefefe" d="M -0.5,-0.5 C 99.5,-0.5 199.5,-0.5 299.5,-0.5C 299.5,99.5 299.5,199.5 299.5,299.5C 283.833,299.5 268.167,299.5 252.5,299.5C 252.5,277.833 252.5,256.167 252.5,234.5C 266.167,234.5 279.833,234.5 293.5,234.5C 293.5,233.5 293.5,232.5 293.5,231.5C 293.5,231.167 293.5,230.833 293.5,230.5C 293.5,229.833 293.5,229.167 293.5,228.5C 294.5,228.5 295.5,228.5 296.5,228.5C 296.5,198.833 296.5,169.167 296.5,139.5C 295.5,139.5 294.5,139.5 293.5,139.5C 293.5,139.167 293.5,138.833 293.5,138.5C 293.5,137.833 293.5,137.167 293.5,136.5C 293.5,136.167 293.5,135.833 293.5,135.5C 263.185,133.508 232.518,132.841 201.5,133.5C 201.5,123.5 201.5,113.5 201.5,103.5C 208.5,103.5 215.5,103.5 222.5,103.5C 222.5,102.5 222.5,101.5 222.5,100.5C 223.5,100.5 224.5,100.5 225.5,100.5C 226.5,100.5 227.5,100.5 228.5,100.5C 228.5,77.5 228.5,54.5 228.5,31.5C 227.5,31.5 226.5,31.5 225.5,31.5C 225.179,29.9519 224.179,29.2852 222.5,29.5C 222.5,28.5 222.5,27.5 222.5,26.5C 172.833,26.5 123.167,26.5 73.5,26.5C 73.5,27.5 73.5,28.5 73.5,29.5C 72.5,29.5 71.5,29.5 70.5,29.5C 70.5,53.1667 70.5,76.8333 70.5,100.5C 71.5,100.5 72.5,100.5 73.5,100.5C 73.5,101.5 73.5,102.5 73.5,103.5C 80.5,103.5 87.5,103.5 94.5,103.5C 94.5,113.167 94.5,122.833 94.5,132.5C 63.8333,132.5 33.1667,132.5 2.5,132.5C 2.5,134.833 2.5,137.167 2.5,139.5C 1.5,139.5 0.5,139.5 -0.5,139.5C -0.5,92.8333 -0.5,46.1667 -0.5,-0.5 Z"/></g>
<g><path style="opacity:1" fill="#adadad" d="M 222.5,29.5 C 172.833,29.5 123.167,29.5 73.5,29.5C 73.5,28.5 73.5,27.5 73.5,26.5C 123.167,26.5 172.833,26.5 222.5,26.5C 222.5,27.5 222.5,28.5 222.5,29.5 Z"/></g>
<g><path style="opacity:1" fill="#525252" d="M 73.5,29.5 C 123.167,29.5 172.833,29.5 222.5,29.5C 222.5,30.5 222.5,31.5 222.5,32.5C 222.5,54.1667 222.5,75.8333 222.5,97.5C 222.5,98.5 222.5,99.5 222.5,100.5C 221.5,100.5 220.5,100.5 219.5,100.5C 221.435,77.9576 222.101,55.2909 221.5,32.5C 219.219,32.0773 217.552,32.744 216.5,34.5C 170.833,34.5 125.167,34.5 79.5,34.5C 78.4479,32.744 76.7812,32.0773 74.5,32.5C 73.8988,55.2909 74.5655,77.9576 76.5,100.5C 75.5,100.5 74.5,100.5 73.5,100.5C 73.5,76.8333 73.5,53.1667 73.5,29.5 Z"/></g>
<g><path style="opacity:1" fill="#969696" d="M 222.5,32.5 C 223.832,42.9788 224.499,53.8121 224.5,65C 224.499,76.1879 223.832,87.0212 222.5,97.5C 222.5,75.8333 222.5,54.1667 222.5,32.5 Z"/></g>
<g><path style="opacity:1" fill="#f1f1f1" d="M 225.5,31.5 C 226.5,31.5 227.5,31.5 228.5,31.5C 228.5,54.5 228.5,77.5 228.5,100.5C 227.5,100.5 226.5,100.5 225.5,100.5C 225.5,77.5 225.5,54.5 225.5,31.5 Z"/></g>
<g><path style="opacity:1" fill="#c2c2c2" d="M 73.5,29.5 C 73.5,53.1667 73.5,76.8333 73.5,100.5C 72.5,100.5 71.5,100.5 70.5,100.5C 70.5,76.8333 70.5,53.1667 70.5,29.5C 71.5,29.5 72.5,29.5 73.5,29.5 Z"/></g>
<g><path style="opacity:1" fill="#7d7d7d" d="M 79.5,34.5 C 125.167,34.5 170.833,34.5 216.5,34.5C 216.5,34.8333 216.5,35.1667 216.5,35.5C 171.167,35.5 125.833,35.5 80.5,35.5C 80.5,36.5 80.5,37.5 80.5,38.5C 80.1667,38.5 79.8333,38.5 79.5,38.5C 79.5,37.5 79.5,36.5 79.5,35.5C 79.5,35.1667 79.5,34.8333 79.5,34.5 Z"/></g>
<g><path style="opacity:1" fill="#c4c4c4" d="M 216.5,35.5 C 216.5,36.1667 216.5,36.8333 216.5,37.5C 171.664,37.1679 126.997,37.5013 82.5,38.5C 81.8333,38.5 81.1667,38.5 80.5,38.5C 80.5,37.5 80.5,36.5 80.5,35.5C 125.833,35.5 171.167,35.5 216.5,35.5 Z"/></g>
<g><path style="opacity:1" fill="#afafaf" d="M 222.5,29.5 C 224.179,29.2852 225.179,29.9519 225.5,31.5C 225.5,54.5 225.5,77.5 225.5,100.5C 224.5,100.5 223.5,100.5 222.5,100.5C 222.5,99.5 222.5,98.5 222.5,97.5C 223.832,87.0212 224.499,76.1879 224.5,65C 224.499,53.8121 223.832,42.9788 222.5,32.5C 222.5,31.5 222.5,30.5 222.5,29.5 Z"/></g>
<g><path style="opacity:1" fill="#dcdcdc" d="M 82.5,38.5 C 126.997,37.5013 171.664,37.1679 216.5,37.5C 216.5,37.8333 216.5,38.1667 216.5,38.5C 216.5,56.1667 216.5,73.8333 216.5,91.5C 216.5,92.5 216.5,93.5 216.5,94.5C 215.5,94.5 214.5,94.5 213.5,94.5C 215.419,75.9623 216.086,57.2956 215.5,38.5C 171.167,38.5 126.833,38.5 82.5,38.5 Z"/></g>
<g><path style="opacity:1" fill="#fcfcfc" d="M 82.5,38.5 C 126.833,38.5 171.167,38.5 215.5,38.5C 216.086,57.2956 215.419,75.9623 213.5,94.5C 209.5,94.5 205.5,94.5 201.5,94.5C 201.5,80.5 201.5,66.5 201.5,52.5C 200.5,52.5 199.5,52.5 198.5,52.5C 198.5,51.5 198.5,50.5 198.5,49.5C 164.833,49.5 131.167,49.5 97.5,49.5C 97.5,50.5 97.5,51.5 97.5,52.5C 97.5,53.5 97.5,54.5 97.5,55.5C 97.5,68.5 97.5,81.5 97.5,94.5C 92.5,94.5 87.5,94.5 82.5,94.5C 82.5,93.5 82.5,92.5 82.5,91.5C 82.5,73.8333 82.5,56.1667 82.5,38.5 Z"/></g>
<g><path style="opacity:1" fill="#6e6e6e" d="M 216.5,38.5 C 217.832,46.9738 218.498,55.8071 218.5,65C 218.498,74.1929 217.832,83.0262 216.5,91.5C 216.5,73.8333 216.5,56.1667 216.5,38.5 Z"/></g>
<g><path style="opacity:1" fill="#595959" d="M 216.5,35.5 C 217.5,35.5 218.5,35.5 219.5,35.5C 219.5,55.1667 219.5,74.8333 219.5,94.5C 218.5,94.5 217.5,94.5 216.5,94.5C 216.5,93.5 216.5,92.5 216.5,91.5C 217.832,83.0262 218.498,74.1929 218.5,65C 218.498,55.8071 217.832,46.9738 216.5,38.5C 216.5,38.1667 216.5,37.8333 216.5,37.5C 216.5,36.8333 216.5,36.1667 216.5,35.5 Z"/></g>
<g><path style="opacity:1" fill="#dedede" d="M 80.5,38.5 C 81.1667,38.5 81.8333,38.5 82.5,38.5C 82.5,56.1667 82.5,73.8333 82.5,91.5C 80.5137,74.1983 79.847,56.5316 80.5,38.5 Z"/></g>
<g><path style="opacity:1" fill="#bcbcbc" d="M 79.5,38.5 C 79.8333,38.5 80.1667,38.5 80.5,38.5C 79.847,56.5316 80.5137,74.1983 82.5,91.5C 82.5,92.5 82.5,93.5 82.5,94.5C 81.5,94.5 80.5,94.5 79.5,94.5C 79.5,75.8333 79.5,57.1667 79.5,38.5 Z"/></g>
<g><path style="opacity:1" fill="#515151" d="M 79.5,35.5 C 79.5,36.5 79.5,37.5 79.5,38.5C 79.5,57.1667 79.5,75.8333 79.5,94.5C 78.5,94.5 77.5,94.5 76.5,94.5C 76.5,74.8333 76.5,55.1667 76.5,35.5C 77.5,35.5 78.5,35.5 79.5,35.5 Z"/></g>
<g><path style="opacity:1" fill="#ececec" d="M 198.5,52.5 C 197.5,52.5 196.5,52.5 195.5,52.5C 180.014,51.1672 164.181,50.5005 148,50.5C 131.819,50.5005 115.986,51.1672 100.5,52.5C 99.5,52.5 98.5,52.5 97.5,52.5C 97.5,51.5 97.5,50.5 97.5,49.5C 131.167,49.5 164.833,49.5 198.5,49.5C 198.5,50.5 198.5,51.5 198.5,52.5 Z"/></g>
<g><path style="opacity:1" fill="#dadada" d="M 195.5,52.5 C 163.833,52.5 132.167,52.5 100.5,52.5C 115.986,51.1672 131.819,50.5005 148,50.5C 164.181,50.5005 180.014,51.1672 195.5,52.5 Z"/></g>
<g><path style="opacity:1" fill="#919191" d="M 97.5,52.5 C 98.5,52.5 99.5,52.5 100.5,52.5C 132.167,52.5 163.833,52.5 195.5,52.5C 196.5,52.5 197.5,52.5 198.5,52.5C 198.5,53.5 198.5,54.5 198.5,55.5C 181.78,54.2095 164.946,53.5428 148,53.5C 131.819,53.5005 115.986,54.1672 100.5,55.5C 99.5,55.5 98.5,55.5 97.5,55.5C 97.5,54.5 97.5,53.5 97.5,52.5 Z"/></g>
<g><path style="opacity:1" fill="#454545" d="M 198.5,55.5 C 198.5,68.5 198.5,81.5 198.5,94.5C 197.5,94.5 196.5,94.5 195.5,94.5C 195.832,83.4798 195.499,72.4798 194.5,61.5C 193.818,60.7573 193.151,60.0906 192.5,59.5C 163.005,58.5019 133.338,58.1686 103.5,58.5C 103.5,57.5 103.5,56.5 103.5,55.5C 102.5,55.5 101.5,55.5 100.5,55.5C 115.986,54.1672 131.819,53.5005 148,53.5C 164.946,53.5428 181.78,54.2095 198.5,55.5 Z"/></g>
<g><path style="opacity:1" fill="#929292" d="M 103.5,58.5 C 133.338,58.1686 163.005,58.5019 192.5,59.5C 192.5,60.1667 192.5,60.8333 192.5,61.5C 191.5,61.5 190.5,61.5 189.5,61.5C 176.017,60.1674 162.183,59.5007 148,59.5C 133.817,59.5007 119.983,60.1674 106.5,61.5C 105.5,61.5 104.5,61.5 103.5,61.5C 103.5,60.5 103.5,59.5 103.5,58.5 Z"/></g>
<g><path style="opacity:1" fill="#c2c2c2" d="M 189.5,61.5 C 182.5,61.5 175.5,61.5 168.5,61.5C 168.5,62.5 168.5,63.5 168.5,64.5C 166.5,64.5 164.5,64.5 162.5,64.5C 162.5,66.5 162.5,68.5 162.5,70.5C 161.5,70.5 160.5,70.5 159.5,70.5C 159.5,67.5 159.5,64.5 159.5,61.5C 151.833,61.5 144.167,61.5 136.5,61.5C 136.5,62.5 136.5,63.5 136.5,64.5C 134.167,64.5 131.833,64.5 129.5,64.5C 129.5,63.5 129.5,62.5 129.5,61.5C 121.833,61.5 114.167,61.5 106.5,61.5C 119.983,60.1674 133.817,59.5007 148,59.5C 162.183,59.5007 176.017,60.1674 189.5,61.5 Z"/></g>
<g><path style="opacity:1" fill="#f8f8f8" d="M 162.5,70.5 C 163.5,70.5 164.5,70.5 165.5,70.5C 166.5,70.5 167.5,70.5 168.5,70.5C 168.5,71.5 168.5,72.5 168.5,73.5C 169.5,73.5 170.5,73.5 171.5,73.5C 171.5,74.5 171.5,75.5 171.5,76.5C 172.5,76.5 173.5,76.5 174.5,76.5C 176.5,76.5 178.5,76.5 180.5,76.5C 181.5,76.5 182.5,76.5 183.5,76.5C 183.5,78.5 183.5,80.5 183.5,82.5C 182.5,82.5 181.5,82.5 180.5,82.5C 180.5,81.5 180.5,80.5 180.5,79.5C 173.5,79.5 166.5,79.5 159.5,79.5C 159.5,80.5 159.5,81.5 159.5,82.5C 158.833,82.5 158.167,82.5 157.5,82.5C 156.51,88.31 156.177,94.31 156.5,100.5C 154.833,100.5 153.167,100.5 151.5,100.5C 151.5,101.5 151.5,102.5 151.5,103.5C 150.167,103.5 148.833,103.5 147.5,103.5C 147.5,102.5 147.5,101.5 147.5,100.5C 145.833,100.5 144.167,100.5 142.5,100.5C 142.5,94.5 142.5,88.5 142.5,82.5C 141.5,82.5 140.5,82.5 139.5,82.5C 139.5,81.5 139.5,80.5 139.5,79.5C 133.5,79.5 127.5,79.5 121.5,79.5C 122.1,78.1001 123.1,77.1001 124.5,76.5C 124.5,75.5 124.5,74.5 124.5,73.5C 125.5,73.5 126.5,73.5 127.5,73.5C 130.167,73.5 132.833,73.5 135.5,73.5C 135.833,71.5 136.167,69.5 136.5,67.5C 136.5,66.5 136.5,65.5 136.5,64.5C 136.5,63.5 136.5,62.5 136.5,61.5C 144.167,61.5 151.833,61.5 159.5,61.5C 159.5,64.5 159.5,67.5 159.5,70.5C 160.5,70.5 161.5,70.5 162.5,70.5 Z"/></g>
<g><path style="opacity:1" fill="#fefefe" d="M 106.5,61.5 C 114.167,61.5 121.833,61.5 129.5,61.5C 129.5,62.5 129.5,63.5 129.5,64.5C 128.833,64.5 128.167,64.5 127.5,64.5C 126.5,64.5 125.5,64.5 124.5,64.5C 124.5,65.5 124.5,66.5 124.5,67.5C 122.5,67.5 120.5,67.5 118.5,67.5C 118.5,68.5 118.5,69.5 118.5,70.5C 117.5,70.5 116.5,70.5 115.5,70.5C 115.5,72.5 115.5,74.5 115.5,76.5C 115.5,78.5 115.5,80.5 115.5,82.5C 115.5,88.5 115.5,94.5 115.5,100.5C 116.5,100.5 117.5,100.5 118.5,100.5C 118.5,101.5 118.5,102.5 118.5,103.5C 124.5,103.5 130.5,103.5 136.5,103.5C 138.388,105.988 139.055,108.988 138.5,112.5C 139.833,112.5 141.167,112.5 142.5,112.5C 147.167,112.5 151.833,112.5 156.5,112.5C 156.5,111.5 156.5,110.5 156.5,109.5C 157.5,109.5 158.5,109.5 159.5,109.5C 159.5,107.5 159.5,105.5 159.5,103.5C 166.5,103.5 173.5,103.5 180.5,103.5C 180.5,102.5 180.5,101.5 180.5,100.5C 181.5,100.5 182.5,100.5 183.5,100.5C 183.5,94.5 183.5,88.5 183.5,82.5C 183.5,80.5 183.5,78.5 183.5,76.5C 183.5,74.5 183.5,72.5 183.5,70.5C 182.5,70.5 181.5,70.5 180.5,70.5C 179.833,68.5 179.167,66.5 178.5,64.5C 182.121,63.6275 185.788,62.9608 189.5,62.5C 189.5,89.1667 189.5,115.833 189.5,142.5C 190.5,142.5 191.5,142.5 192.5,142.5C 192.5,143.5 192.5,144.5 192.5,145.5C 193.5,145.5 194.5,145.5 195.5,145.5C 196.315,147.302 197.815,148.302 200,148.5C 228.116,148.818 256.283,148.485 284.5,147.5C 284.5,172.167 284.5,196.833 284.5,221.5C 273.833,221.5 263.167,221.5 252.5,221.5C 252.5,212.833 252.5,204.167 252.5,195.5C 251.5,195.5 250.5,195.5 249.5,195.5C 249.5,194.5 249.5,193.5 249.5,192.5C 247.5,192.5 245.5,192.5 243.5,192.5C 242.5,192.5 241.5,192.5 240.5,192.5C 240.5,228.167 240.5,263.833 240.5,299.5C 179.833,299.5 119.167,299.5 58.5,299.5C 58.5,263.833 58.5,228.167 58.5,192.5C 57.5,192.5 56.5,192.5 55.5,192.5C 53.8333,192.5 52.1667,192.5 50.5,192.5C 49.1667,192.5 47.8333,192.5 46.5,192.5C 46.5,202.5 46.5,212.5 46.5,222.5C 34.8333,222.5 23.1667,222.5 11.5,222.5C 11.5,196.833 11.5,171.167 11.5,145.5C 42.1667,145.5 72.8333,145.5 103.5,145.5C 103.5,144.5 103.5,143.5 103.5,142.5C 104.5,142.5 105.5,142.5 106.5,142.5C 106.5,115.5 106.5,88.5 106.5,61.5 Z"/></g>
<g><path style="opacity:1" fill="#202020" d="M 79.5,34.5 C 79.5,34.8333 79.5,35.1667 79.5,35.5C 78.5,35.5 77.5,35.5 76.5,35.5C 76.5,55.1667 76.5,74.8333 76.5,94.5C 77.5,94.5 78.5,94.5 79.5,94.5C 79.5,95.5 79.5,96.5 79.5,97.5C 85.5,97.5 91.5,97.5 97.5,97.5C 97.5,96.5 97.5,95.5 97.5,94.5C 98.5,94.5 99.5,94.5 100.5,94.5C 100.5,81.5 100.5,68.5 100.5,55.5C 101.5,55.5 102.5,55.5 103.5,55.5C 103.5,56.5 103.5,57.5 103.5,58.5C 103.5,59.5 103.5,60.5 103.5,61.5C 103.5,87.5 103.5,113.5 103.5,139.5C 101.5,140.167 99.5,140.833 97.5,141.5C 97.5,140.833 97.5,140.167 97.5,139.5C 97.5,138.5 97.5,137.5 97.5,136.5C 98.5,136.5 99.5,136.5 100.5,136.5C 100.5,125.5 100.5,114.5 100.5,103.5C 99.5,103.5 98.5,103.5 97.5,103.5C 97.5,102.5 97.5,101.5 97.5,100.5C 90.5,100.5 83.5,100.5 76.5,100.5C 74.5655,77.9576 73.8988,55.2909 74.5,32.5C 76.7812,32.0773 78.4479,32.744 79.5,34.5 Z"/></g>
<g><path style="opacity:1" fill="#b6b6b6" d="M 127.5,64.5 C 127.5,65.5 127.5,66.5 127.5,67.5C 126.5,67.5 125.5,67.5 124.5,67.5C 124.5,66.5 124.5,65.5 124.5,64.5C 125.5,64.5 126.5,64.5 127.5,64.5 Z"/></g>
<g><path style="opacity:1" fill="#696969" d="M 127.5,64.5 C 128.167,64.5 128.833,64.5 129.5,64.5C 131.833,64.5 134.167,64.5 136.5,64.5C 136.5,65.5 136.5,66.5 136.5,67.5C 136.167,67.5 135.833,67.5 135.5,67.5C 135.209,66.3509 134.376,65.6842 133,65.5C 131.2,66.3784 129.367,67.045 127.5,67.5C 127.5,66.5 127.5,65.5 127.5,64.5 Z"/></g>
<g><path style="opacity:1" fill="#818181" d="M 168.5,64.5 C 169.5,64.5 170.5,64.5 171.5,64.5C 171.5,65.5 171.5,66.5 171.5,67.5C 169.633,67.045 167.8,66.3784 166,65.5C 165.167,65.8333 164.333,66.1667 163.5,66.5C 164.853,67.5237 165.52,68.857 165.5,70.5C 164.5,70.5 163.5,70.5 162.5,70.5C 162.5,68.5 162.5,66.5 162.5,64.5C 164.5,64.5 166.5,64.5 168.5,64.5 Z"/></g>
<g><path style="opacity:1" fill="#565656" d="M 97.5,55.5 C 98.5,55.5 99.5,55.5 100.5,55.5C 100.5,68.5 100.5,81.5 100.5,94.5C 99.5,94.5 98.5,94.5 97.5,94.5C 97.5,81.5 97.5,68.5 97.5,55.5 Z"/></g>
<g><path style="opacity:1" fill="#a6a6a6" d="M 124.5,67.5 C 122.784,68.9708 120.784,69.9708 118.5,70.5C 118.5,69.5 118.5,68.5 118.5,67.5C 120.5,67.5 122.5,67.5 124.5,67.5 Z"/></g>
<g><path style="opacity:1" fill="#393939" d="M 171.5,67.5 C 173.216,68.9708 175.216,69.9708 177.5,70.5C 177.5,71.5 177.5,72.5 177.5,73.5C 176.5,73.5 175.5,73.5 174.5,73.5C 173.5,73.5 172.5,73.5 171.5,73.5C 170.5,73.5 169.5,73.5 168.5,73.5C 168.5,72.5 168.5,71.5 168.5,70.5C 167.5,70.5 166.5,70.5 165.5,70.5C 165.52,68.857 164.853,67.5237 163.5,66.5C 164.333,66.1667 165.167,65.8333 166,65.5C 167.8,66.3784 169.633,67.045 171.5,67.5 Z"/></g>
<g><path style="opacity:1" fill="#767676" d="M 171.5,67.5 C 173.5,67.5 175.5,67.5 177.5,67.5C 177.5,68.5 177.5,69.5 177.5,70.5C 175.216,69.9708 173.216,68.9708 171.5,67.5 Z"/></g>
<g><path style="opacity:1" fill="#3a3a3a" d="M 135.5,67.5 C 133.952,67.8212 133.285,68.8212 133.5,70.5C 131.5,70.5 129.5,70.5 127.5,70.5C 127.5,71.5 127.5,72.5 127.5,73.5C 126.5,73.5 125.5,73.5 124.5,73.5C 123.5,73.5 122.5,73.5 121.5,73.5C 121.5,74.5 121.5,75.5 121.5,76.5C 120.5,76.5 119.5,76.5 118.5,76.5C 118.5,74.5 118.5,72.5 118.5,70.5C 120.784,69.9708 122.784,68.9708 124.5,67.5C 125.5,67.5 126.5,67.5 127.5,67.5C 129.367,67.045 131.2,66.3784 133,65.5C 134.376,65.6842 135.209,66.3509 135.5,67.5 Z"/></g>
<g><path style="opacity:1" fill="#c0c0c0" d="M 135.5,67.5 C 135.833,67.5 136.167,67.5 136.5,67.5C 136.167,69.5 135.833,71.5 135.5,73.5C 132.833,73.5 130.167,73.5 127.5,73.5C 127.5,72.5 127.5,71.5 127.5,70.5C 129.5,70.5 131.5,70.5 133.5,70.5C 133.285,68.8212 133.952,67.8212 135.5,67.5 Z"/></g>
<g><path style="opacity:1" fill="#858585" d="M 168.5,70.5 C 169.5,70.5 170.5,70.5 171.5,70.5C 171.5,71.5 171.5,72.5 171.5,73.5C 171.5,72.5 171.5,71.5 171.5,70.5C 170.5,70.5 169.5,70.5 168.5,70.5 Z"/></g>
<g><path style="opacity:1" fill="#8f8f8f" d="M 118.5,70.5 C 118.5,72.5 118.5,74.5 118.5,76.5C 117.5,76.5 116.5,76.5 115.5,76.5C 115.5,74.5 115.5,72.5 115.5,70.5C 116.5,70.5 117.5,70.5 118.5,70.5 Z"/></g>
<g><path style="opacity:1" fill="#aaaaaa" d="M 180.5,70.5 C 181.5,70.5 182.5,70.5 183.5,70.5C 183.5,72.5 183.5,74.5 183.5,76.5C 182.5,76.5 181.5,76.5 180.5,76.5C 180.5,74.5 180.5,72.5 180.5,70.5 Z"/></g>
<g><path style="opacity:1" fill="#a9a9a9" d="M 198.5,52.5 C 199.5,52.5 200.5,52.5 201.5,52.5C 201.5,66.5 201.5,80.5 201.5,94.5C 200.5,94.5 199.5,94.5 198.5,94.5C 198.5,81.5 198.5,68.5 198.5,55.5C 198.5,54.5 198.5,53.5 198.5,52.5 Z"/></g>
<g><path style="opacity:1" fill="#808080" d="M 124.5,73.5 C 124.5,74.5 124.5,75.5 124.5,76.5C 123.5,76.5 122.5,76.5 121.5,76.5C 121.5,75.5 121.5,74.5 121.5,73.5C 122.5,73.5 123.5,73.5 124.5,73.5 Z"/></g>
<g><path style="opacity:1" fill="#b0b0b0" d="M 171.5,73.5 C 172.5,73.5 173.5,73.5 174.5,73.5C 174.5,74.5 174.5,75.5 174.5,76.5C 173.5,76.5 172.5,76.5 171.5,76.5C 171.5,75.5 171.5,74.5 171.5,73.5 Z"/></g>
<g><path style="opacity:1" fill="#616161" d="M 177.5,70.5 C 178.5,70.5 179.5,70.5 180.5,70.5C 180.5,72.5 180.5,74.5 180.5,76.5C 178.5,76.5 176.5,76.5 174.5,76.5C 174.5,75.5 174.5,74.5 174.5,73.5C 175.5,73.5 176.5,73.5 177.5,73.5C 177.5,72.5 177.5,71.5 177.5,70.5 Z"/></g>
<g><path style="opacity:1" fill="#cecece" d="M 115.5,76.5 C 116.5,76.5 117.5,76.5 118.5,76.5C 119.5,76.5 120.5,76.5 121.5,76.5C 122.5,76.5 123.5,76.5 124.5,76.5C 123.1,77.1001 122.1,78.1001 121.5,79.5C 120.209,79.2627 119.209,79.596 118.5,80.5C 118.5,81.1667 118.5,81.8333 118.5,82.5C 117.5,82.5 116.5,82.5 115.5,82.5C 115.5,80.5 115.5,78.5 115.5,76.5 Z"/></g>
<g><path style="opacity:1" fill="#a9a9a9" d="M 118.5,80.5 C 119.209,79.596 120.209,79.2627 121.5,79.5C 127.5,79.5 133.5,79.5 139.5,79.5C 139.5,80.5 139.5,81.5 139.5,82.5C 139.167,82.5 138.833,82.5 138.5,82.5C 137.833,82.5 137.167,82.5 136.5,82.5C 130.926,80.5467 124.926,79.88 118.5,80.5 Z"/></g>
<g><path style="opacity:1" fill="#a8a8a8" d="M 180.5,82.5 C 179.5,82.5 178.5,82.5 177.5,82.5C 175.429,81.1914 172.929,80.5248 170,80.5C 167.071,80.5248 164.571,81.1914 162.5,82.5C 161.833,82.5 161.167,82.5 160.5,82.5C 160.167,82.5 159.833,82.5 159.5,82.5C 159.5,81.5 159.5,80.5 159.5,79.5C 166.5,79.5 173.5,79.5 180.5,79.5C 180.5,80.5 180.5,81.5 180.5,82.5 Z"/></g>
<g><path style="opacity:1" fill="#898989" d="M 118.5,80.5 C 124.926,79.88 130.926,80.5467 136.5,82.5C 130.5,82.5 124.5,82.5 118.5,82.5C 118.5,81.8333 118.5,81.1667 118.5,80.5 Z"/></g>
<g><path style="opacity:1" fill="#8b8b8b" d="M 177.5,82.5 C 172.5,82.5 167.5,82.5 162.5,82.5C 164.571,81.1914 167.071,80.5248 170,80.5C 172.929,80.5248 175.429,81.1914 177.5,82.5 Z"/></g>
<g><path style="opacity:1" fill="#c4c4c4" d="M 139.5,82.5 C 140.5,82.5 141.5,82.5 142.5,82.5C 142.5,88.5 142.5,94.5 142.5,100.5C 144.167,100.5 145.833,100.5 147.5,100.5C 147.5,101.5 147.5,102.5 147.5,103.5C 145.5,103.5 143.5,103.5 141.5,103.5C 141.205,105.735 141.539,107.735 142.5,109.5C 142.5,110.5 142.5,111.5 142.5,112.5C 141.167,112.5 139.833,112.5 138.5,112.5C 139.055,108.988 138.388,105.988 136.5,103.5C 136.5,102.5 136.5,101.5 136.5,100.5C 137.5,100.5 138.5,100.5 139.5,100.5C 139.5,94.5 139.5,88.5 139.5,82.5 Z"/></g>
<g><path style="opacity:1" fill="#969696" d="M 157.5,82.5 C 158.167,82.5 158.833,82.5 159.5,82.5C 159.5,88.5 159.5,94.5 159.5,100.5C 157.547,94.9262 156.88,88.9262 157.5,82.5 Z"/></g>
<g><path style="opacity:1" fill="#494949" d="M 124.5,85.5 C 124.5,86.5 124.5,87.5 124.5,88.5C 123.5,88.5 122.5,88.5 121.5,88.5C 121.5,87.5 121.5,86.5 121.5,85.5C 122.5,85.5 123.5,85.5 124.5,85.5 Z"/></g>
<g><path style="opacity:1" fill="#717171" d="M 124.5,85.5 C 127.5,85.5 130.5,85.5 133.5,85.5C 133.5,86.5 133.5,87.5 133.5,88.5C 134.5,88.5 135.5,88.5 136.5,88.5C 136.5,90.5 136.5,92.5 136.5,94.5C 132.5,94.5 128.5,94.5 124.5,94.5C 124.5,93.5 124.5,92.5 124.5,91.5C 127.167,91.5 129.833,91.5 132.5,91.5C 132.5,90.5 132.5,89.5 132.5,88.5C 129.833,88.5 127.167,88.5 124.5,88.5C 124.5,87.5 124.5,86.5 124.5,85.5 Z"/></g>
<g><path style="opacity:1" fill="#787878" d="M 174.5,85.5 C 174.5,86.5 174.5,87.5 174.5,88.5C 171.5,88.5 168.5,88.5 165.5,88.5C 165.5,87.5 165.5,86.5 165.5,85.5C 168.5,85.5 171.5,85.5 174.5,85.5 Z"/></g>
<g><path style="opacity:1" fill="#606060" d="M 115.5,82.5 C 116.5,82.5 117.5,82.5 118.5,82.5C 118.5,82.8333 118.5,83.1667 118.5,83.5C 118.5,88.1667 118.5,92.8333 118.5,97.5C 118.5,98.5 118.5,99.5 118.5,100.5C 117.5,100.5 116.5,100.5 115.5,100.5C 115.5,94.5 115.5,88.5 115.5,82.5 Z"/></g>
<g><path style="opacity:1" fill="#181818" d="M 118.5,83.5 C 124.206,83.1712 129.872,83.5046 135.5,84.5C 135.043,85.2975 134.376,85.6309 133.5,85.5C 130.5,85.5 127.5,85.5 124.5,85.5C 123.5,85.5 122.5,85.5 121.5,85.5C 121.5,86.5 121.5,87.5 121.5,88.5C 121.5,90.5 121.5,92.5 121.5,94.5C 121.5,95.5 121.5,96.5 121.5,97.5C 120.5,97.5 119.5,97.5 118.5,97.5C 118.5,92.8333 118.5,88.1667 118.5,83.5 Z"/></g>
<g><path style="opacity:1" fill="#999999" d="M 121.5,88.5 C 122.5,88.5 123.5,88.5 124.5,88.5C 127.167,88.5 129.833,88.5 132.5,88.5C 132.5,89.5 132.5,90.5 132.5,91.5C 129.833,91.5 127.167,91.5 124.5,91.5C 124.5,92.5 124.5,93.5 124.5,94.5C 123.5,94.5 122.5,94.5 121.5,94.5C 121.5,92.5 121.5,90.5 121.5,88.5 Z"/></g>
<g><path style="opacity:1" fill="#949494" d="M 165.5,88.5 C 168.5,88.5 171.5,88.5 174.5,88.5C 174.5,89.5 174.5,90.5 174.5,91.5C 172.5,91.5 170.5,91.5 168.5,91.5C 168.5,92.5 168.5,93.5 168.5,94.5C 167.5,94.5 166.5,94.5 165.5,94.5C 165.5,92.5 165.5,90.5 165.5,88.5 Z"/></g>
<g><path style="opacity:1" fill="#4f4f4f" d="M 159.5,82.5 C 159.833,82.5 160.167,82.5 160.5,82.5C 160.124,88.6719 160.791,94.6719 162.5,100.5C 161.5,100.5 160.5,100.5 159.5,100.5C 159.5,94.5 159.5,88.5 159.5,82.5 Z"/></g>
<g><path style="opacity:1" fill="#949494" d="M 180.5,82.5 C 181.5,82.5 182.5,82.5 183.5,82.5C 183.5,88.5 183.5,94.5 183.5,100.5C 182.5,100.5 181.5,100.5 180.5,100.5C 180.5,94.5 180.5,88.5 180.5,82.5 Z"/></g>
<g><path style="opacity:1" fill="#616161" d="M 165.5,88.5 C 165.5,90.5 165.5,92.5 165.5,94.5C 164.5,94.5 163.5,94.5 162.5,94.5C 162.5,92.5 162.5,90.5 162.5,88.5C 163.5,88.5 164.5,88.5 165.5,88.5 Z"/></g>
<g><path style="opacity:1" fill="#696969" d="M 174.5,88.5 C 175.5,88.5 176.5,88.5 177.5,88.5C 177.5,90.5 177.5,92.5 177.5,94.5C 174.5,94.5 171.5,94.5 168.5,94.5C 168.5,93.5 168.5,92.5 168.5,91.5C 170.5,91.5 172.5,91.5 174.5,91.5C 174.5,90.5 174.5,89.5 174.5,88.5 Z"/></g>
<g><path style="opacity:1" fill="#707070" d="M 79.5,94.5 C 80.5,94.5 81.5,94.5 82.5,94.5C 87.5,94.5 92.5,94.5 97.5,94.5C 97.5,95.5 97.5,96.5 97.5,97.5C 91.5,97.5 85.5,97.5 79.5,97.5C 79.5,96.5 79.5,95.5 79.5,94.5 Z"/></g>
<g><path style="opacity:1" fill="#595959" d="M 138.5,82.5 C 138.833,82.5 139.167,82.5 139.5,82.5C 139.5,88.5 139.5,94.5 139.5,100.5C 138.5,100.5 137.5,100.5 136.5,100.5C 138.209,94.6719 138.876,88.6719 138.5,82.5 Z"/></g>
<g><path style="opacity:1" fill="#333333" d="M 177.5,82.5 C 178.5,82.5 179.5,82.5 180.5,82.5C 180.5,88.5 180.5,94.5 180.5,100.5C 179.5,100.5 178.5,100.5 177.5,100.5C 177.5,99.5 177.5,98.5 177.5,97.5C 173.5,97.5 169.5,97.5 165.5,97.5C 165.5,96.5 165.5,95.5 165.5,94.5C 166.5,94.5 167.5,94.5 168.5,94.5C 171.5,94.5 174.5,94.5 177.5,94.5C 177.5,92.5 177.5,90.5 177.5,88.5C 176.5,88.5 175.5,88.5 174.5,88.5C 174.5,87.5 174.5,86.5 174.5,85.5C 175.5,85.5 176.5,85.5 177.5,85.5C 177.5,84.5 177.5,83.5 177.5,82.5 Z"/></g>
<g><path style="opacity:1" fill="#282828" d="M 118.5,83.5 C 118.5,83.1667 118.5,82.8333 118.5,82.5C 124.5,82.5 130.5,82.5 136.5,82.5C 137.167,82.5 137.833,82.5 138.5,82.5C 138.876,88.6719 138.209,94.6719 136.5,100.5C 130.5,100.5 124.5,100.5 118.5,100.5C 118.5,99.5 118.5,98.5 118.5,97.5C 119.5,97.5 120.5,97.5 121.5,97.5C 121.5,96.5 121.5,95.5 121.5,94.5C 122.5,94.5 123.5,94.5 124.5,94.5C 128.5,94.5 132.5,94.5 136.5,94.5C 136.5,92.5 136.5,90.5 136.5,88.5C 135.5,88.5 134.5,88.5 133.5,88.5C 133.5,87.5 133.5,86.5 133.5,85.5C 134.376,85.6309 135.043,85.2975 135.5,84.5C 129.872,83.5046 124.206,83.1712 118.5,83.5 Z"/></g>
<g><path style="opacity:1" fill="#222222" d="M 160.5,82.5 C 161.167,82.5 161.833,82.5 162.5,82.5C 167.5,82.5 172.5,82.5 177.5,82.5C 177.5,83.5 177.5,84.5 177.5,85.5C 176.5,85.5 175.5,85.5 174.5,85.5C 171.5,85.5 168.5,85.5 165.5,85.5C 165.5,86.5 165.5,87.5 165.5,88.5C 164.5,88.5 163.5,88.5 162.5,88.5C 162.5,90.5 162.5,92.5 162.5,94.5C 163.5,94.5 164.5,94.5 165.5,94.5C 165.5,95.5 165.5,96.5 165.5,97.5C 169.5,97.5 173.5,97.5 177.5,97.5C 177.5,98.5 177.5,99.5 177.5,100.5C 172.5,100.5 167.5,100.5 162.5,100.5C 160.791,94.6719 160.124,88.6719 160.5,82.5 Z"/></g>
<g><path style="opacity:1" fill="#242424" d="M 219.5,100.5 C 213.5,100.5 207.5,100.5 201.5,100.5C 200.5,100.5 199.5,100.5 198.5,100.5C 198.5,101.5 198.5,102.5 198.5,103.5C 197.5,103.5 196.5,103.5 195.5,103.5C 195.5,100.5 195.5,97.5 195.5,94.5C 196.5,94.5 197.5,94.5 198.5,94.5C 198.5,95.5 198.5,96.5 198.5,97.5C 204.5,97.5 210.5,97.5 216.5,97.5C 216.5,96.5 216.5,95.5 216.5,94.5C 217.5,94.5 218.5,94.5 219.5,94.5C 219.5,74.8333 219.5,55.1667 219.5,35.5C 218.5,35.5 217.5,35.5 216.5,35.5C 216.5,35.1667 216.5,34.8333 216.5,34.5C 217.552,32.744 219.219,32.0773 221.5,32.5C 222.101,55.2909 221.435,77.9576 219.5,100.5 Z"/></g>
<g><path style="opacity:1" fill="#6d6d6d" d="M 198.5,94.5 C 199.5,94.5 200.5,94.5 201.5,94.5C 205.5,94.5 209.5,94.5 213.5,94.5C 214.5,94.5 215.5,94.5 216.5,94.5C 216.5,95.5 216.5,96.5 216.5,97.5C 210.5,97.5 204.5,97.5 198.5,97.5C 198.5,96.5 198.5,95.5 198.5,94.5 Z"/></g>
<g><path style="opacity:1" fill="#9f9f9f" d="M 73.5,100.5 C 74.5,100.5 75.5,100.5 76.5,100.5C 83.5,100.5 90.5,100.5 97.5,100.5C 97.5,101.5 97.5,102.5 97.5,103.5C 96.5,103.5 95.5,103.5 94.5,103.5C 87.5,103.5 80.5,103.5 73.5,103.5C 73.5,102.5 73.5,101.5 73.5,100.5 Z"/></g>
<g><path style="opacity:1" fill="#a1a1a1" d="M 118.5,100.5 C 124.5,100.5 130.5,100.5 136.5,100.5C 136.5,101.5 136.5,102.5 136.5,103.5C 130.5,103.5 124.5,103.5 118.5,103.5C 118.5,102.5 118.5,101.5 118.5,100.5 Z"/></g>
<g><path style="opacity:1" fill="#bfbfbf" d="M 157.5,82.5 C 156.88,88.9262 157.547,94.9262 159.5,100.5C 159.5,101.5 159.5,102.5 159.5,103.5C 159.5,105.5 159.5,107.5 159.5,109.5C 158.5,109.5 157.5,109.5 156.5,109.5C 156.5,108.5 156.5,107.5 156.5,106.5C 156.5,105.5 156.5,104.5 156.5,103.5C 154.833,103.5 153.167,103.5 151.5,103.5C 151.5,102.5 151.5,101.5 151.5,100.5C 153.167,100.5 154.833,100.5 156.5,100.5C 156.177,94.31 156.51,88.31 157.5,82.5 Z"/></g>
<g><path style="opacity:1" fill="#a6a6a6" d="M 159.5,100.5 C 160.5,100.5 161.5,100.5 162.5,100.5C 167.5,100.5 172.5,100.5 177.5,100.5C 178.5,100.5 179.5,100.5 180.5,100.5C 180.5,101.5 180.5,102.5 180.5,103.5C 173.5,103.5 166.5,103.5 159.5,103.5C 159.5,102.5 159.5,101.5 159.5,100.5 Z"/></g>
<g><path style="opacity:1" fill="#585958" d="M 201.5,100.5 C 201.5,101.5 201.5,102.5 201.5,103.5C 200.5,103.5 199.5,103.5 198.5,103.5C 198.5,102.5 198.5,101.5 198.5,100.5C 199.5,100.5 200.5,100.5 201.5,100.5 Z"/></g>
<g><path style="opacity:1" fill="#a0a0a0" d="M 201.5,100.5 C 207.5,100.5 213.5,100.5 219.5,100.5C 220.5,100.5 221.5,100.5 222.5,100.5C 222.5,101.5 222.5,102.5 222.5,103.5C 215.5,103.5 208.5,103.5 201.5,103.5C 201.5,102.5 201.5,101.5 201.5,100.5 Z"/></g>
<g><path style="opacity:1" fill="#bcbcbc" d="M 103.5,61.5 C 104.5,61.5 105.5,61.5 106.5,61.5C 106.5,88.5 106.5,115.5 106.5,142.5C 105.5,142.5 104.5,142.5 103.5,142.5C 103.5,141.5 103.5,140.5 103.5,139.5C 103.5,113.5 103.5,87.5 103.5,61.5 Z"/></g>
<g><path style="opacity:1" fill="#d9d9d9" d="M 189.5,61.5 C 190.5,61.5 191.5,61.5 192.5,61.5C 192.5,88.5 192.5,115.5 192.5,142.5C 191.5,142.5 190.5,142.5 189.5,142.5C 189.5,115.833 189.5,89.1667 189.5,62.5C 185.788,62.9608 182.121,63.6275 178.5,64.5C 179.167,66.5 179.833,68.5 180.5,70.5C 179.5,70.5 178.5,70.5 177.5,70.5C 177.5,69.5 177.5,68.5 177.5,67.5C 175.5,67.5 173.5,67.5 171.5,67.5C 171.5,66.5 171.5,65.5 171.5,64.5C 170.5,64.5 169.5,64.5 168.5,64.5C 168.5,63.5 168.5,62.5 168.5,61.5C 175.5,61.5 182.5,61.5 189.5,61.5 Z"/></g>
<g><path style="opacity:1" fill="#5f5f5f" d="M 147.5,103.5 C 148.833,103.5 150.167,103.5 151.5,103.5C 153.167,103.5 154.833,103.5 156.5,103.5C 156.5,104.5 156.5,105.5 156.5,106.5C 151.833,106.5 147.167,106.5 142.5,106.5C 142.5,107.5 142.5,108.5 142.5,109.5C 141.539,107.735 141.205,105.735 141.5,103.5C 143.5,103.5 145.5,103.5 147.5,103.5 Z"/></g>
<g><path style="opacity:1" fill="#212121" d="M 156.5,106.5 C 156.5,107.5 156.5,108.5 156.5,109.5C 151.833,109.5 147.167,109.5 142.5,109.5C 142.5,108.5 142.5,107.5 142.5,106.5C 147.167,106.5 151.833,106.5 156.5,106.5 Z"/></g>
<g><path style="opacity:1" fill="#545454" d="M 142.5,109.5 C 147.167,109.5 151.833,109.5 156.5,109.5C 156.5,110.5 156.5,111.5 156.5,112.5C 151.833,112.5 147.167,112.5 142.5,112.5C 142.5,111.5 142.5,110.5 142.5,109.5 Z"/></g>
<g><path style="opacity:1" fill="#535353" d="M 97.5,103.5 C 98.5,103.5 99.5,103.5 100.5,103.5C 100.5,114.5 100.5,125.5 100.5,136.5C 99.5,136.5 98.5,136.5 97.5,136.5C 97.5,135.5 97.5,134.5 97.5,133.5C 97.5,123.5 97.5,113.5 97.5,103.5 Z"/></g>
<g><path style="opacity:1" fill="#a8a8a8" d="M 198.5,103.5 C 199.5,103.5 200.5,103.5 201.5,103.5C 201.5,113.5 201.5,123.5 201.5,133.5C 231.815,135.492 262.482,136.159 293.5,135.5C 293.5,135.833 293.5,136.167 293.5,136.5C 263.833,136.5 234.167,136.5 204.5,136.5C 203.5,136.5 202.5,136.5 201.5,136.5C 200.5,136.5 199.5,136.5 198.5,136.5C 198.5,125.5 198.5,114.5 198.5,103.5 Z"/></g>
<g><path style="opacity:1" fill="#a6a6a6" d="M 159.5,127.5 C 153.5,127.5 147.5,127.5 141.5,127.5C 139.833,127.5 138.167,127.5 136.5,127.5C 137.398,126.842 138.398,126.176 139.5,125.5C 145.167,124.167 150.833,124.167 156.5,125.5C 157.602,126.176 158.602,126.842 159.5,127.5 Z"/></g>
<g><path style="opacity:1" fill="#7a7a7a" d="M 136.5,127.5 C 138.167,127.5 139.833,127.5 141.5,127.5C 140.198,129.028 138.531,130.028 136.5,130.5C 135.5,130.5 134.5,130.5 133.5,130.5C 134.5,129.5 135.5,128.5 136.5,127.5 Z"/></g>
<g><path style="opacity:1" fill="#bcbcbc" d="M 159.5,127.5 C 163.104,127.049 166.104,128.049 168.5,130.5C 166.473,130.662 164.473,130.495 162.5,130C 160.881,129.764 159.881,128.931 159.5,127.5 Z"/></g>
<g><path style="opacity:1" fill="#afafaf" d="M 130.5,130.5 C 130.5,131.5 130.5,132.5 130.5,133.5C 129.5,133.5 128.5,133.5 127.5,133.5C 127.5,132.5 127.5,131.5 127.5,130.5C 128.5,130.5 129.5,130.5 130.5,130.5 Z"/></g>
<g><path style="opacity:1" fill="#ededed" d="M 94.5,103.5 C 95.5,103.5 96.5,103.5 97.5,103.5C 97.5,113.5 97.5,123.5 97.5,133.5C 96.5,133.5 95.5,133.5 94.5,133.5C 64.4812,132.841 34.8145,133.508 5.5,135.5C 5.5,135.833 5.5,136.167 5.5,136.5C 5.5,137.167 5.5,137.833 5.5,138.5C 5.5,138.833 5.5,139.167 5.5,139.5C 4.5,139.5 3.5,139.5 2.5,139.5C 2.5,137.167 2.5,134.833 2.5,132.5C 33.1667,132.5 63.8333,132.5 94.5,132.5C 94.5,122.833 94.5,113.167 94.5,103.5 Z"/></g>
<g><path style="opacity:1" fill="#525252" d="M 141.5,127.5 C 147.5,127.5 153.5,127.5 159.5,127.5C 159.881,128.931 160.881,129.764 162.5,130C 164.473,130.495 166.473,130.662 168.5,130.5C 168.5,131.5 168.5,132.5 168.5,133.5C 169.5,133.5 170.5,133.5 171.5,133.5C 171.5,134.5 171.5,135.5 171.5,136.5C 171.5,137.5 171.5,138.5 171.5,139.5C 170.5,139.5 169.5,139.5 168.5,139.5C 167.5,139.5 166.5,139.5 165.5,139.5C 162.79,135.924 159.123,133.924 154.5,133.5C 150.702,132.517 146.702,132.183 142.5,132.5C 141.082,130.692 139.082,130.025 136.5,130.5C 138.531,130.028 140.198,129.028 141.5,127.5 Z"/></g>
<g><path style="opacity:1" fill="#d8d8d8" d="M 94.5,133.5 C 65.1855,135.492 35.5188,136.159 5.5,135.5C 34.8145,133.508 64.4812,132.841 94.5,133.5 Z"/></g>
<g><path style="opacity:1" fill="#9b9b9b" d="M 142.5,132.5 C 146.702,132.183 150.702,132.517 154.5,133.5C 150.5,133.5 146.5,133.5 142.5,133.5C 142.5,134.5 142.5,135.5 142.5,136.5C 140.5,136.5 138.5,136.5 136.5,136.5C 136.5,135.5 136.5,134.5 136.5,133.5C 138.5,133.167 140.5,132.833 142.5,132.5 Z"/></g>
<g><path style="opacity:1" fill="#d8d8d8" d="M 201.5,133.5 C 232.518,132.841 263.185,133.508 293.5,135.5C 262.482,136.159 231.815,135.492 201.5,133.5 Z"/></g>
<g><path style="opacity:1" fill="#b4b4b4" d="M 94.5,133.5 C 95.5,133.5 96.5,133.5 97.5,133.5C 97.5,134.5 97.5,135.5 97.5,136.5C 96.5,136.5 95.5,136.5 94.5,136.5C 64.8333,136.5 35.1667,136.5 5.5,136.5C 5.5,136.167 5.5,135.833 5.5,135.5C 35.5188,136.159 65.1855,135.492 94.5,133.5 Z"/></g>
<g><path style="opacity:1" fill="#969696" d="M 127.5,133.5 C 127.5,134.5 127.5,135.5 127.5,136.5C 126.5,136.5 125.5,136.5 124.5,136.5C 124.5,135.5 124.5,134.5 124.5,133.5C 125.5,133.5 126.5,133.5 127.5,133.5 Z"/></g>
<g><path style="opacity:1" fill="#3b3b3b" d="M 130.5,130.5 C 131.5,130.5 132.5,130.5 133.5,130.5C 134.5,130.5 135.5,130.5 136.5,130.5C 139.082,130.025 141.082,130.692 142.5,132.5C 140.5,132.833 138.5,133.167 136.5,133.5C 136.5,134.5 136.5,135.5 136.5,136.5C 135.5,136.5 134.5,136.5 133.5,136.5C 131.318,139.015 129.318,139.015 127.5,136.5C 127.5,135.5 127.5,134.5 127.5,133.5C 128.5,133.5 129.5,133.5 130.5,133.5C 130.5,132.5 130.5,131.5 130.5,130.5 Z"/></g>
<g><path style="opacity:1" fill="#d6d6d6" d="M 154.5,133.5 C 159.123,133.924 162.79,135.924 165.5,139.5C 163.5,139.5 161.5,139.5 159.5,139.5C 159.5,138.5 159.5,137.5 159.5,136.5C 153.833,136.5 148.167,136.5 142.5,136.5C 142.5,135.5 142.5,134.5 142.5,133.5C 146.5,133.5 150.5,133.5 154.5,133.5 Z"/></g>
<g><path style="opacity:1" fill="#797979" d="M 5.5,136.5 C 35.1667,136.5 64.8333,136.5 94.5,136.5C 65.1855,138.492 35.5188,139.159 5.5,138.5C 5.5,137.833 5.5,137.167 5.5,136.5 Z"/></g>
<g><path style="opacity:1" fill="#5a5a5a" d="M 124.5,136.5 C 125.5,136.5 126.5,136.5 127.5,136.5C 129.318,139.015 131.318,139.015 133.5,136.5C 133.5,137.5 133.5,138.5 133.5,139.5C 132.5,139.5 131.5,139.5 130.5,139.5C 130.5,140.5 130.5,141.5 130.5,142.5C 128.5,142.5 126.5,142.5 124.5,142.5C 124.5,140.5 124.5,138.5 124.5,136.5 Z"/></g>
<g><path style="opacity:1" fill="#797979" d="M 204.5,136.5 C 234.167,136.5 263.833,136.5 293.5,136.5C 293.5,137.167 293.5,137.833 293.5,138.5C 263.481,139.159 233.815,138.492 204.5,136.5 Z"/></g>
<g><path style="opacity:1" fill="#636363" d="M 94.5,136.5 C 95.5,136.5 96.5,136.5 97.5,136.5C 97.5,137.5 97.5,138.5 97.5,139.5C 68.8333,139.5 40.1667,139.5 11.5,139.5C 9.5,139.5 7.5,139.5 5.5,139.5C 5.5,139.167 5.5,138.833 5.5,138.5C 35.5188,139.159 65.1855,138.492 94.5,136.5 Z"/></g>
<g><path style="opacity:1" fill="#636363" d="M 201.5,136.5 C 202.5,136.5 203.5,136.5 204.5,136.5C 233.815,138.492 263.481,139.159 293.5,138.5C 293.5,138.833 293.5,139.167 293.5,139.5C 262.833,139.5 232.167,139.5 201.5,139.5C 201.5,138.5 201.5,137.5 201.5,136.5 Z"/></g>
<g><path style="opacity:1" fill="#e3e3e3" d="M -0.5,139.5 C 0.5,139.5 1.5,139.5 2.5,139.5C 2.5,169.167 2.5,198.833 2.5,228.5C 1.5,228.5 0.5,228.5 -0.5,228.5C -0.5,198.833 -0.5,169.167 -0.5,139.5 Z"/></g>
<g><path style="opacity:1" fill="#414141" d="M 11.5,139.5 C 40.1667,139.5 68.8333,139.5 97.5,139.5C 97.5,140.167 97.5,140.833 97.5,141.5C 68.8333,141.5 40.1667,141.5 11.5,141.5C 11.5,140.833 11.5,140.167 11.5,139.5 Z"/></g>
<g><path style="opacity:1" fill="#717171" d="M 171.5,136.5 C 172.5,136.5 173.5,136.5 174.5,136.5C 174.5,138.5 174.5,140.5 174.5,142.5C 172.5,142.5 170.5,142.5 168.5,142.5C 168.5,141.5 168.5,140.5 168.5,139.5C 169.5,139.5 170.5,139.5 171.5,139.5C 171.5,138.5 171.5,137.5 171.5,136.5 Z"/></g>
<g><path style="opacity:1" fill="#3f3f3f" d="M 195.5,103.5 C 196.5,103.5 197.5,103.5 198.5,103.5C 198.5,114.5 198.5,125.5 198.5,136.5C 199.5,136.5 200.5,136.5 201.5,136.5C 201.5,137.5 201.5,138.5 201.5,139.5C 232.167,139.5 262.833,139.5 293.5,139.5C 293.5,140.167 293.5,140.833 293.5,141.5C 292.5,141.5 291.5,141.5 290.5,141.5C 290.5,142.5 290.5,143.5 290.5,144.5C 289.5,144.5 288.5,144.5 287.5,144.5C 287.5,143.833 287.5,143.167 287.5,142.5C 257.005,141.502 226.338,141.169 195.5,141.5C 195.5,128.833 195.5,116.167 195.5,103.5 Z"/></g>
<g><path style="opacity:1" fill="#626262" d="M 103.5,139.5 C 103.5,140.5 103.5,141.5 103.5,142.5C 102.5,142.5 101.5,142.5 100.5,142.5C 70.8333,142.5 41.1667,142.5 11.5,142.5C 11.5,142.167 11.5,141.833 11.5,141.5C 40.1667,141.5 68.8333,141.5 97.5,141.5C 99.5,140.833 101.5,140.167 103.5,139.5 Z"/></g>
<g><path style="opacity:1" fill="#646464" d="M 192.5,59.5 C 193.151,60.0906 193.818,60.7573 194.5,61.5C 195.499,72.4798 195.832,83.4798 195.5,94.5C 195.5,97.5 195.5,100.5 195.5,103.5C 195.5,116.167 195.5,128.833 195.5,141.5C 226.338,141.169 257.005,141.502 287.5,142.5C 256.833,142.5 226.167,142.5 195.5,142.5C 194.5,142.5 193.5,142.5 192.5,142.5C 192.5,115.5 192.5,88.5 192.5,61.5C 192.5,60.8333 192.5,60.1667 192.5,59.5 Z"/></g>
<g><path style="opacity:1" fill="#767676" d="M 2.5,139.5 C 3.5,139.5 4.5,139.5 5.5,139.5C 5.5,168.833 5.5,198.167 5.5,227.5C 5.5,227.833 5.5,228.167 5.5,228.5C 4.5,228.5 3.5,228.5 2.5,228.5C 2.5,198.833 2.5,169.167 2.5,139.5 Z"/></g>
<g><path style="opacity:1" fill="#9a9a9a" d="M 11.5,142.5 C 41.1667,142.5 70.8333,142.5 100.5,142.5C 71.1855,144.492 41.5188,145.159 11.5,144.5C 11.5,143.833 11.5,143.167 11.5,142.5 Z"/></g>
<g><path style="opacity:1" fill="#d6d6d6" d="M 124.5,136.5 C 124.5,138.5 124.5,140.5 124.5,142.5C 126.5,142.5 128.5,142.5 130.5,142.5C 130.5,143.5 130.5,144.5 130.5,145.5C 127.5,145.5 124.5,145.5 121.5,145.5C 121.5,142.5 121.5,139.5 121.5,136.5C 122.5,136.5 123.5,136.5 124.5,136.5 Z"/></g>
<g><path style="opacity:1" fill="#d8d8d8" d="M 171.5,133.5 C 173.492,133.328 175.158,133.995 176.5,135.5C 177.487,138.768 177.82,142.102 177.5,145.5C 173.5,145.5 169.5,145.5 165.5,145.5C 165.5,143.5 165.5,141.5 165.5,139.5C 166.5,139.5 167.5,139.5 168.5,139.5C 168.5,140.5 168.5,141.5 168.5,142.5C 170.5,142.5 172.5,142.5 174.5,142.5C 174.5,140.5 174.5,138.5 174.5,136.5C 173.5,136.5 172.5,136.5 171.5,136.5C 171.5,135.5 171.5,134.5 171.5,133.5 Z"/></g>
<g><path style="opacity:1" fill="#9a9a9a" d="M 195.5,142.5 C 226.167,142.5 256.833,142.5 287.5,142.5C 287.5,143.167 287.5,143.833 287.5,144.5C 256.482,145.159 225.815,144.492 195.5,142.5 Z"/></g>
<g><path style="opacity:1" fill="#9f9f9f" d="M 293.5,139.5 C 294.5,139.5 295.5,139.5 296.5,139.5C 296.5,169.167 296.5,198.833 296.5,228.5C 295.5,228.5 294.5,228.5 293.5,228.5C 293.5,228.167 293.5,227.833 293.5,227.5C 293.5,198.833 293.5,170.167 293.5,141.5C 293.5,140.833 293.5,140.167 293.5,139.5 Z"/></g>
<g><path style="opacity:1" fill="#c6c6c6" d="M 100.5,142.5 C 101.5,142.5 102.5,142.5 103.5,142.5C 103.5,143.5 103.5,144.5 103.5,145.5C 72.8333,145.5 42.1667,145.5 11.5,145.5C 11.5,145.167 11.5,144.833 11.5,144.5C 41.5188,145.159 71.1855,144.492 100.5,142.5 Z"/></g>
<g><path style="opacity:1" fill="#c8c8c8" d="M 192.5,142.5 C 193.5,142.5 194.5,142.5 195.5,142.5C 225.815,144.492 256.482,145.159 287.5,144.5C 287.5,144.833 287.5,145.167 287.5,145.5C 256.833,145.5 226.167,145.5 195.5,145.5C 194.5,145.5 193.5,145.5 192.5,145.5C 192.5,144.5 192.5,143.5 192.5,142.5 Z"/></g>
<g><path style="opacity:1" fill="#303030" d="M 5.5,139.5 C 7.5,139.5 9.5,139.5 11.5,139.5C 11.5,140.167 11.5,140.833 11.5,141.5C 11.5,141.833 11.5,142.167 11.5,142.5C 11.5,143.167 11.5,143.833 11.5,144.5C 10.5,144.5 9.5,144.5 8.5,144.5C 8.5,170.5 8.5,196.5 8.5,222.5C 8.5,223.5 8.5,224.5 8.5,225.5C 9.5,225.5 10.5,225.5 11.5,225.5C 10.0821,227.308 8.08209,227.975 5.5,227.5C 5.5,198.167 5.5,168.833 5.5,139.5 Z"/></g>
<g><path style="opacity:1" fill="#181818" d="M 293.5,141.5 C 293.5,170.167 293.5,198.833 293.5,227.5C 290.918,227.975 288.918,227.308 287.5,225.5C 287.5,224.5 287.5,223.5 287.5,222.5C 288.5,222.5 289.5,222.5 290.5,222.5C 290.5,196.5 290.5,170.5 290.5,144.5C 290.5,143.5 290.5,142.5 290.5,141.5C 291.5,141.5 292.5,141.5 293.5,141.5 Z"/></g>
<g><path style="opacity:1" fill="#979797" d="M 11.5,144.5 C 11.5,144.833 11.5,145.167 11.5,145.5C 11.5,171.167 11.5,196.833 11.5,222.5C 10.5,222.5 9.5,222.5 8.5,222.5C 8.5,196.5 8.5,170.5 8.5,144.5C 9.5,144.5 10.5,144.5 11.5,144.5 Z"/></g>
<g><path style="opacity:1" fill="#f0f0f0" d="M 195.5,145.5 C 226.167,145.5 256.833,145.5 287.5,145.5C 287.5,171.167 287.5,196.833 287.5,222.5C 286.5,222.5 285.5,222.5 284.5,222.5C 272.833,222.5 261.167,222.5 249.5,222.5C 249.5,213.5 249.5,204.5 249.5,195.5C 250.5,195.5 251.5,195.5 252.5,195.5C 252.5,204.167 252.5,212.833 252.5,221.5C 263.167,221.5 273.833,221.5 284.5,221.5C 284.5,196.833 284.5,172.167 284.5,147.5C 256.283,148.485 228.116,148.818 200,148.5C 197.815,148.302 196.315,147.302 195.5,145.5 Z"/></g>
<g><path style="opacity:1" fill="#797979" d="M 287.5,144.5 C 288.5,144.5 289.5,144.5 290.5,144.5C 290.5,170.5 290.5,196.5 290.5,222.5C 289.5,222.5 288.5,222.5 287.5,222.5C 287.5,196.833 287.5,171.167 287.5,145.5C 287.5,145.167 287.5,144.833 287.5,144.5 Z"/></g>
<g><path style="opacity:1" fill="#7f7f7f" d="M 49.5,195.5 C 50.1377,204.895 49.4711,213.895 47.5,222.5C 46.8623,213.105 47.5289,204.105 49.5,195.5 Z"/></g>
<g><path style="opacity:1" fill="#383838" d="M 245.5,195.5 C 245.833,195.5 246.167,195.5 246.5,195.5C 245.862,204.895 246.529,213.895 248.5,222.5C 248.5,223.5 248.5,224.5 248.5,225.5C 247.5,225.5 246.5,225.5 245.5,225.5C 245.5,215.5 245.5,205.5 245.5,195.5 Z"/></g>
<g><path style="opacity:1" fill="#b9b9b9" d="M 50.5,192.5 C 50.5,193.5 50.5,194.5 50.5,195.5C 50.1667,195.5 49.8333,195.5 49.5,195.5C 47.5289,204.105 46.8623,213.105 47.5,222.5C 47.1667,222.5 46.8333,222.5 46.5,222.5C 46.5,212.5 46.5,202.5 46.5,192.5C 47.8333,192.5 49.1667,192.5 50.5,192.5 Z"/></g>
<g><path style="opacity:1" fill="#444444" d="M 49.5,195.5 C 49.8333,195.5 50.1667,195.5 50.5,195.5C 52.3102,204.111 53.1436,213.111 53,222.5C 53.5,248.165 53.6666,273.831 53.5,299.5C 53.1667,299.5 52.8333,299.5 52.5,299.5C 52.5,276.833 52.5,254.167 52.5,231.5C 52.5,229.5 52.5,227.5 52.5,225.5C 50.8333,225.5 49.1667,225.5 47.5,225.5C 47.5,224.5 47.5,223.5 47.5,222.5C 49.4711,213.895 50.1377,204.895 49.5,195.5 Z"/></g>
<g><path style="opacity:1" fill="#5d5d5d" d="M 246.5,195.5 C 248.471,204.105 249.138,213.105 248.5,222.5C 246.529,213.895 245.862,204.895 246.5,195.5 Z"/></g>
<g><path style="opacity:1" fill="#555555" d="M 8.5,222.5 C 9.5,222.5 10.5,222.5 11.5,222.5C 11.5,223.5 11.5,224.5 11.5,225.5C 10.5,225.5 9.5,225.5 8.5,225.5C 8.5,224.5 8.5,223.5 8.5,222.5 Z"/></g>
<g><path style="opacity:1" fill="#a2a2a2" d="M 11.5,222.5 C 23.1667,222.5 34.8333,222.5 46.5,222.5C 46.8333,222.5 47.1667,222.5 47.5,222.5C 47.5,223.5 47.5,224.5 47.5,225.5C 35.5,225.5 23.5,225.5 11.5,225.5C 11.5,224.5 11.5,223.5 11.5,222.5 Z"/></g>
<g><path style="opacity:1" fill="#939393" d="M 243.5,192.5 C 245.5,192.5 247.5,192.5 249.5,192.5C 249.5,193.5 249.5,194.5 249.5,195.5C 249.5,204.5 249.5,213.5 249.5,222.5C 254.96,223.829 260.793,224.496 267,224.5C 273.207,224.496 279.04,223.829 284.5,222.5C 285.5,222.5 286.5,222.5 287.5,222.5C 287.5,223.5 287.5,224.5 287.5,225.5C 274.5,225.5 261.5,225.5 248.5,225.5C 248.5,224.5 248.5,223.5 248.5,222.5C 249.138,213.105 248.471,204.105 246.5,195.5C 246.167,195.5 245.833,195.5 245.5,195.5C 244.833,195.5 244.167,195.5 243.5,195.5C 243.5,194.5 243.5,193.5 243.5,192.5 Z"/></g>
<g><path style="opacity:1" fill="#a9a9a9" d="M 249.5,222.5 C 261.167,222.5 272.833,222.5 284.5,222.5C 279.04,223.829 273.207,224.496 267,224.5C 260.793,224.496 254.96,223.829 249.5,222.5 Z"/></g>
<g><path style="opacity:1" fill="#414141" d="M 11.5,225.5 C 23.5,225.5 35.5,225.5 47.5,225.5C 47.5,227.167 47.5,228.833 47.5,230.5C 46.5,230.5 45.5,230.5 44.5,230.5C 31.8763,228.519 18.8763,227.852 5.5,228.5C 5.5,228.167 5.5,227.833 5.5,227.5C 8.08209,227.975 10.0821,227.308 11.5,225.5 Z"/></g>
<g><path style="opacity:1" fill="#191919" d="M 47.5,225.5 C 49.1667,225.5 50.8333,225.5 52.5,225.5C 52.5,227.5 52.5,229.5 52.5,231.5C 50.8828,230.962 49.2161,230.629 47.5,230.5C 47.5,228.833 47.5,227.167 47.5,225.5 Z"/></g>
<g><path style="opacity:1" fill="#151515" d="M 243.5,195.5 C 244.167,195.5 244.833,195.5 245.5,195.5C 245.5,205.5 245.5,215.5 245.5,225.5C 246.5,225.5 247.5,225.5 248.5,225.5C 248.5,227.167 248.5,228.833 248.5,230.5C 247.5,230.5 246.5,230.5 245.5,230.5C 245.5,253.5 245.5,276.5 245.5,299.5C 244.833,299.5 244.167,299.5 243.5,299.5C 243.5,264.833 243.5,230.167 243.5,195.5 Z"/></g>
<g><path style="opacity:1" fill="#404040" d="M 248.5,225.5 C 261.5,225.5 274.5,225.5 287.5,225.5C 288.918,227.308 290.918,227.975 293.5,227.5C 293.5,227.833 293.5,228.167 293.5,228.5C 279.127,227.851 265.127,228.518 251.5,230.5C 250.5,230.5 249.5,230.5 248.5,230.5C 248.5,228.833 248.5,227.167 248.5,225.5 Z"/></g>
<g><path style="opacity:1" fill="#545454" d="M 5.5,228.5 C 18.8763,227.852 31.8763,228.519 44.5,230.5C 31.1237,231.148 18.1237,230.481 5.5,228.5 Z"/></g>
<g><path style="opacity:1" fill="#545454" d="M 293.5,228.5 C 293.5,229.167 293.5,229.833 293.5,230.5C 279.5,230.5 265.5,230.5 251.5,230.5C 265.127,228.518 279.127,227.851 293.5,228.5 Z"/></g>
<g><path style="opacity:1" fill="#fdfdfd" d="M -0.5,228.5 C 0.5,228.5 1.5,228.5 2.5,228.5C 2.5,229.5 2.5,230.5 2.5,231.5C 2.5,232.5 2.5,233.5 2.5,234.5C 17.1667,234.5 31.8333,234.5 46.5,234.5C 47.4973,255.994 47.8307,277.66 47.5,299.5C 31.5,299.5 15.5,299.5 -0.5,299.5C -0.5,275.833 -0.5,252.167 -0.5,228.5 Z"/></g>
<g><path style="opacity:1" fill="#e4e4e4" d="M 2.5,231.5 C 17.1667,231.5 31.8333,231.5 46.5,231.5C 46.5,232.5 46.5,233.5 46.5,234.5C 31.8333,234.5 17.1667,234.5 2.5,234.5C 2.5,233.5 2.5,232.5 2.5,231.5 Z"/></g>
<g><path style="opacity:1" fill="#e0e0e0" d="M 55.5,192.5 C 56.5,192.5 57.5,192.5 58.5,192.5C 58.5,228.167 58.5,263.833 58.5,299.5C 57.5,299.5 56.5,299.5 55.5,299.5C 55.5,263.833 55.5,228.167 55.5,192.5 Z"/></g>
<g><path style="opacity:1" fill="#a4a4a4" d="M 243.5,192.5 C 243.5,193.5 243.5,194.5 243.5,195.5C 243.5,230.167 243.5,264.833 243.5,299.5C 242.5,299.5 241.5,299.5 240.5,299.5C 240.5,263.833 240.5,228.167 240.5,192.5C 241.5,192.5 242.5,192.5 243.5,192.5 Z"/></g>
<g><path style="opacity:1" fill="#343434" d="M 47.5,230.5 C 49.2161,230.629 50.8828,230.962 52.5,231.5C 52.5,254.167 52.5,276.833 52.5,299.5C 51.8333,299.5 51.1667,299.5 50.5,299.5C 50.6666,277.831 50.5,256.164 50,234.5C 49.5204,232.867 48.6871,231.534 47.5,230.5 Z"/></g>
<g><path style="opacity:1" fill="#9c9c9c" d="M 248.5,230.5 C 249.5,230.5 250.5,230.5 251.5,230.5C 265.5,230.5 279.5,230.5 293.5,230.5C 293.5,230.833 293.5,231.167 293.5,231.5C 278.833,231.5 264.167,231.5 249.5,231.5C 249.5,254.167 249.5,276.833 249.5,299.5C 249.167,299.5 248.833,299.5 248.5,299.5C 248.5,277.833 248.5,256.167 248.5,234.5C 248.5,233.167 248.5,231.833 248.5,230.5 Z"/></g>
<g><path style="opacity:1" fill="#7a7a7a" d="M 2.5,228.5 C 3.5,228.5 4.5,228.5 5.5,228.5C 18.1237,230.481 31.1237,231.148 44.5,230.5C 45.5,230.5 46.5,230.5 47.5,230.5C 48.6871,231.534 49.5204,232.867 50,234.5C 50.5,256.164 50.6666,277.831 50.5,299.5C 49.5,299.5 48.5,299.5 47.5,299.5C 47.8307,277.66 47.4973,255.994 46.5,234.5C 46.5,233.5 46.5,232.5 46.5,231.5C 31.8333,231.5 17.1667,231.5 2.5,231.5C 2.5,230.5 2.5,229.5 2.5,228.5 Z"/></g>
<g><path style="opacity:1" fill="#eaeaea" d="M 293.5,231.5 C 293.5,232.5 293.5,233.5 293.5,234.5C 279.833,234.5 266.167,234.5 252.5,234.5C 252.5,256.167 252.5,277.833 252.5,299.5C 251.5,299.5 250.5,299.5 249.5,299.5C 249.5,276.833 249.5,254.167 249.5,231.5C 264.167,231.5 278.833,231.5 293.5,231.5 Z"/></g>
<g><path style="opacity:1" fill="#7e7e7e" d="M 50.5,192.5 C 52.1667,192.5 53.8333,192.5 55.5,192.5C 55.5,228.167 55.5,263.833 55.5,299.5C 54.8333,299.5 54.1667,299.5 53.5,299.5C 53.6666,273.831 53.5,248.165 53,222.5C 53.1436,213.111 52.3102,204.111 50.5,195.5C 50.5,194.5 50.5,193.5 50.5,192.5 Z"/></g>
<g><path style="opacity:1" fill="#393939" d="M 248.5,230.5 C 248.5,231.833 248.5,233.167 248.5,234.5C 246.511,255.808 245.844,277.474 246.5,299.5C 246.167,299.5 245.833,299.5 245.5,299.5C 245.5,276.5 245.5,253.5 245.5,230.5C 246.5,230.5 247.5,230.5 248.5,230.5 Z"/></g>
<g><path style="opacity:1" fill="#5d5d5d" d="M 248.5,234.5 C 248.5,256.167 248.5,277.833 248.5,299.5C 247.833,299.5 247.167,299.5 246.5,299.5C 245.844,277.474 246.511,255.808 248.5,234.5 Z"/></g>
</svg>
