<?xml version="1.0" encoding="UTF-8"?>
<!DOCTYPE svg PUBLIC "-//W3C//DTD SVG 1.1//EN" "http://www.w3.org/Graphics/SVG/1.1/DTD/svg11.dtd">
<svg xmlns="http://www.w3.org/2000/svg" version="1.1" width="300px" height="300px" style="shape-rendering:geometricPrecision; text-rendering:geometricPrecision; image-rendering:optimizeQuality; fill-rule:evenodd; clip-rule:evenodd" xmlns:xlink="http://www.w3.org/1999/xlink">
<g><path style="opacity:0.973" fill="#fefefe" d="M -0.5,-0.5 C 99.5,-0.5 199.5,-0.5 299.5,-0.5C 299.5,99.5 299.5,199.5 299.5,299.5C 284.167,299.5 268.833,299.5 253.5,299.5C 253.5,277.833 253.5,256.167 253.5,234.5C 267.5,234.5 281.5,234.5 295.5,234.5C 295.5,233.5 295.5,232.5 295.5,231.5C 295.5,230.5 295.5,229.5 295.5,228.5C 296.5,228.5 297.5,228.5 298.5,228.5C 298.5,198.5 298.5,168.5 298.5,138.5C 296.821,138.715 295.821,138.048 295.5,136.5C 295.196,135.85 294.863,135.183 294.5,134.5C 263.841,133.5 233.174,133.167 202.5,133.5C 202.5,123.5 202.5,113.5 202.5,103.5C 209.5,103.5 216.5,103.5 223.5,103.5C 223.5,102.5 223.5,101.5 223.5,100.5C 224.5,100.5 225.5,100.5 226.5,100.5C 226.5,76.8333 226.5,53.1667 226.5,29.5C 225.5,29.5 224.5,29.5 223.5,29.5C 223.5,28.5 223.5,27.5 223.5,26.5C 174.167,26.5 124.833,26.5 75.5,26.5C 74.8485,27.0906 74.1818,27.7573 73.5,28.5C 72.5003,52.4907 72.1669,76.4907 72.5,100.5C 73.5,100.5 74.5,100.5 75.5,100.5C 75.5,101.5 75.5,102.5 75.5,103.5C 82.1667,103.5 88.8333,103.5 95.5,103.5C 95.5,113.167 95.5,122.833 95.5,132.5C 64.8333,132.5 34.1667,132.5 3.5,132.5C 3.5,133.5 3.5,134.5 3.5,135.5C 2.5,135.5 1.5,135.5 0.5,135.5C 0.5,136.833 0.5,138.167 0.5,139.5C 0.5,169.167 0.5,198.833 0.5,228.5C 1.5,228.5 2.5,228.5 3.5,228.5C 3.5,229.5 3.5,230.5 3.5,231.5C 3.5,232.5 3.5,233.5 3.5,234.5C 18.5,234.5 33.5,234.5 48.5,234.5C 48.5,256.167 48.5,277.833 48.5,299.5C 32.1667,299.5 15.8333,299.5 -0.5,299.5C -0.5,199.5 -0.5,99.5 -0.5,-0.5 Z"/></g>
<g><path style="opacity:1" fill="#adadad" d="M 75.5,26.5 C 124.833,26.5 174.167,26.5 223.5,26.5C 223.5,27.5 223.5,28.5 223.5,29.5C 174.167,29.5 124.833,29.5 75.5,29.5C 75.5,28.5 75.5,27.5 75.5,26.5 Z"/></g>
<g><path style="opacity:1" fill="#595959" d="M 75.5,29.5 C 124.833,29.5 174.167,29.5 223.5,29.5C 223.5,30.5 223.5,31.5 223.5,32.5C 221.5,32.1667 219.5,31.8333 217.5,31.5C 217.5,32.8333 217.5,34.1667 217.5,35.5C 172.167,35.5 126.833,35.5 81.5,35.5C 81.5,34.1667 81.5,32.8333 81.5,31.5C 79.5,31.8333 77.5,32.1667 75.5,32.5C 75.5,31.5 75.5,30.5 75.5,29.5 Z"/></g>
<g><path style="opacity:1" fill="#c4c4c4" d="M 81.5,35.5 C 126.833,35.5 172.167,35.5 217.5,35.5C 217.5,36.1667 217.5,36.8333 217.5,37.5C 172.167,37.5 126.833,37.5 81.5,37.5C 81.5,36.8333 81.5,36.1667 81.5,35.5 Z"/></g>
<g><path style="opacity:1" fill="#161616" d="M 223.5,35.5 C 223.5,56.1667 223.5,76.8333 223.5,97.5C 222.5,97.5 221.5,97.5 220.5,97.5C 220.5,96.5 220.5,95.5 220.5,94.5C 220.837,74.6454 221.837,54.9788 223.5,35.5 Z"/></g>
<g><path style="opacity:1" fill="#fdfdfd" d="M 217.5,38.5 C 217.5,56.1667 217.5,73.8333 217.5,91.5C 212.833,91.5 208.167,91.5 203.5,91.5C 203.667,78.8289 203.5,66.1623 203,53.5C 201.294,52.6921 200.461,51.3588 200.5,49.5C 166.5,49.5 132.5,49.5 98.5,49.5C 98.5391,51.3588 97.7058,52.6921 96,53.5C 95.5001,66.1623 95.3334,78.8289 95.5,91.5C 91.8333,91.5 88.1667,91.5 84.5,91.5C 84.5,73.8333 84.5,56.1667 84.5,38.5C 128.833,38.5 173.167,38.5 217.5,38.5 Z"/></g>
<g><path style="opacity:1" fill="#272727" d="M 223.5,32.5 C 223.5,33.5 223.5,34.5 223.5,35.5C 221.837,54.9788 220.837,74.6454 220.5,94.5C 220.5,74.8333 220.5,55.1667 220.5,35.5C 219.5,35.5 218.5,35.5 217.5,35.5C 217.5,34.1667 217.5,32.8333 217.5,31.5C 219.5,31.8333 221.5,32.1667 223.5,32.5 Z"/></g>
<g><path style="opacity:1" fill="#686868" d="M 81.5,35.5 C 81.5,36.1667 81.5,36.8333 81.5,37.5C 81.5,56.5 81.5,75.5 81.5,94.5C 80.5,94.5 79.5,94.5 78.5,94.5C 78.5,74.8333 78.5,55.1667 78.5,35.5C 79.5,35.5 80.5,35.5 81.5,35.5 Z"/></g>
<g><path style="opacity:1" fill="#6f6f6f" d="M 217.5,35.5 C 218.5,35.5 219.5,35.5 220.5,35.5C 220.5,55.1667 220.5,74.8333 220.5,94.5C 219.5,94.5 218.5,94.5 217.5,94.5C 217.5,93.5 217.5,92.5 217.5,91.5C 217.5,73.8333 217.5,56.1667 217.5,38.5C 217.5,38.1667 217.5,37.8333 217.5,37.5C 217.5,36.8333 217.5,36.1667 217.5,35.5 Z"/></g>
<g><path style="opacity:1" fill="#1a1a1a" d="M 75.5,35.5 C 76.832,45.4777 77.4987,55.811 77.5,66.5C 77.4987,77.189 76.832,87.5223 75.5,97.5C 75.5,76.8333 75.5,56.1667 75.5,35.5 Z"/></g>
<g><path style="opacity:1" fill="#a6a6a6" d="M 223.5,29.5 C 224.5,29.5 225.5,29.5 226.5,29.5C 226.5,53.1667 226.5,76.8333 226.5,100.5C 225.5,100.5 224.5,100.5 223.5,100.5C 223.5,99.5 223.5,98.5 223.5,97.5C 223.5,76.8333 223.5,56.1667 223.5,35.5C 223.5,34.5 223.5,33.5 223.5,32.5C 223.5,31.5 223.5,30.5 223.5,29.5 Z"/></g>
<g><path style="opacity:1" fill="#bdbdbd" d="M 75.5,26.5 C 75.5,27.5 75.5,28.5 75.5,29.5C 75.5,30.5 75.5,31.5 75.5,32.5C 75.5,33.5 75.5,34.5 75.5,35.5C 75.5,56.1667 75.5,76.8333 75.5,97.5C 75.5,98.5 75.5,99.5 75.5,100.5C 74.5,100.5 73.5,100.5 72.5,100.5C 72.1669,76.4907 72.5003,52.4907 73.5,28.5C 74.1818,27.7573 74.8485,27.0906 75.5,26.5 Z"/></g>
<g><path style="opacity:1" fill="#e4e4e4" d="M 81.5,37.5 C 126.833,37.5 172.167,37.5 217.5,37.5C 217.5,37.8333 217.5,38.1667 217.5,38.5C 173.167,38.5 128.833,38.5 84.5,38.5C 84.5,56.1667 84.5,73.8333 84.5,91.5C 88.1667,91.5 91.8333,91.5 95.5,91.5C 95.3334,78.8289 95.5001,66.1623 96,53.5C 97.7058,52.6921 98.5391,51.3588 98.5,49.5C 132.5,49.5 166.5,49.5 200.5,49.5C 200.461,51.3588 201.294,52.6921 203,53.5C 203.5,66.1623 203.667,78.8289 203.5,91.5C 208.167,91.5 212.833,91.5 217.5,91.5C 217.5,92.5 217.5,93.5 217.5,94.5C 211.833,94.5 206.167,94.5 200.5,94.5C 200.823,80.5877 200.49,66.7544 199.5,53C 166.167,52.3333 132.833,52.3333 99.5,53C 98.5101,66.7544 98.1767,80.5877 98.5,94.5C 92.8333,94.5 87.1667,94.5 81.5,94.5C 81.5,75.5 81.5,56.5 81.5,37.5 Z"/></g>
<g><path style="opacity:1" fill="#949494" d="M 200.5,94.5 C 200.167,94.5 199.833,94.5 199.5,94.5C 199.5,81.5 199.5,68.5 199.5,55.5C 182.78,54.2095 165.946,53.5428 149,53.5C 132.819,53.5005 116.986,54.1672 101.5,55.5C 99.5191,68.1237 98.8524,81.1237 99.5,94.5C 99.1667,94.5 98.8333,94.5 98.5,94.5C 98.1767,80.5877 98.5101,66.7544 99.5,53C 132.833,52.3333 166.167,52.3333 199.5,53C 200.49,66.7544 200.823,80.5877 200.5,94.5 Z"/></g>
<g><path style="opacity:1" fill="#454545" d="M 199.5,94.5 C 198.5,94.5 197.5,94.5 196.5,94.5C 196.832,81.8158 196.499,69.1492 195.5,56.5C 194.548,58.0453 194.215,59.712 194.5,61.5C 194.167,61.5 193.833,61.5 193.5,61.5C 193.423,60.2502 192.756,59.4169 191.5,59C 163.5,58.3333 135.5,58.3333 107.5,59C 106.244,59.4169 105.577,60.2502 105.5,61.5C 105.167,61.5 104.833,61.5 104.5,61.5C 104.421,60.0695 104.754,58.7362 105.5,57.5C 105.167,56.5 104.5,55.8333 103.5,55.5C 102.833,68.6604 102.167,81.6604 101.5,94.5C 101.5,81.5 101.5,68.5 101.5,55.5C 116.986,54.1672 132.819,53.5005 149,53.5C 165.946,53.5428 182.78,54.2095 199.5,55.5C 199.5,68.5 199.5,81.5 199.5,94.5 Z"/></g>
<g><path style="opacity:1" fill="#bebebe" d="M 193.5,61.5 C 193.5,88.1667 193.5,114.833 193.5,141.5C 191.509,115.188 190.842,88.5209 191.5,61.5C 163.5,61.5 135.5,61.5 107.5,61.5C 108.158,88.5209 107.491,115.188 105.5,141.5C 105.5,114.833 105.5,88.1667 105.5,61.5C 105.577,60.2502 106.244,59.4169 107.5,59C 135.5,58.3333 163.5,58.3333 191.5,59C 192.756,59.4169 193.423,60.2502 193.5,61.5 Z"/></g>
<g><path style="opacity:1" fill="#e7e7e7" d="M 193.5,141.5 C 193.5,141.833 193.5,142.167 193.5,142.5C 193.557,143.609 193.89,144.609 194.5,145.5C 193.178,145.67 192.011,145.337 191,144.5C 190.5,117.169 190.333,89.8354 190.5,62.5C 163.167,62.5 135.833,62.5 108.5,62.5C 108.808,90.1985 108.475,117.865 107.5,145.5C 106.5,145.5 105.5,145.5 104.5,145.5C 104.5,144.5 104.5,143.5 104.5,142.5C 105.167,142.5 105.5,142.167 105.5,141.5C 107.491,115.188 108.158,88.5209 107.5,61.5C 135.5,61.5 163.5,61.5 191.5,61.5C 190.842,88.5209 191.509,115.188 193.5,141.5 Z"/></g>
<g><path style="opacity:1" fill="#262626" d="M 81.5,35.5 C 80.5,35.5 79.5,35.5 78.5,35.5C 78.5,55.1667 78.5,74.8333 78.5,94.5C 79.5,94.5 80.5,94.5 81.5,94.5C 81.5,95.5 81.5,96.5 81.5,97.5C 87.5,97.5 93.5,97.5 99.5,97.5C 99.5,96.5 99.5,95.5 99.5,94.5C 100.167,94.5 100.833,94.5 101.5,94.5C 102.167,81.6604 102.833,68.6604 103.5,55.5C 104.5,55.8333 105.167,56.5 105.5,57.5C 104.754,58.7362 104.421,60.0695 104.5,61.5C 104.5,87.5 104.5,113.5 104.5,139.5C 102.833,139.5 101.167,139.5 99.5,139.5C 99.5,138.5 99.5,137.5 99.5,136.5C 100.5,136.5 101.5,136.5 102.5,136.5C 102.828,125.321 102.495,114.321 101.5,103.5C 100.833,103.5 100.167,103.5 99.5,103.5C 99.5,102.5 99.5,101.5 99.5,100.5C 91.5,100.5 83.5,100.5 75.5,100.5C 75.5,99.5 75.5,98.5 75.5,97.5C 76.832,87.5223 77.4987,77.189 77.5,66.5C 77.4987,55.811 76.832,45.4777 75.5,35.5C 75.5,34.5 75.5,33.5 75.5,32.5C 77.5,32.1667 79.5,31.8333 81.5,31.5C 81.5,32.8333 81.5,34.1667 81.5,35.5 Z"/></g>
<g><path style="opacity:1" fill="#606060" d="M 101.5,55.5 C 101.5,68.5 101.5,81.5 101.5,94.5C 100.833,94.5 100.167,94.5 99.5,94.5C 98.8524,81.1237 99.5191,68.1237 101.5,55.5 Z"/></g>
<g><path style="opacity:1" fill="#fefefe" d="M 194.5,145.5 C 224.167,145.5 253.833,145.5 283.5,145.5C 285.46,170.674 286.126,196.007 285.5,221.5C 274.833,221.5 264.167,221.5 253.5,221.5C 253.5,211.833 253.5,202.167 253.5,192.5C 252.5,192.5 251.5,192.5 250.5,192.5C 248.5,192.5 246.5,192.5 244.5,192.5C 243.5,192.5 242.5,192.5 241.5,192.5C 241.5,228.167 241.5,263.833 241.5,299.5C 180.167,299.5 118.833,299.5 57.5,299.5C 57.5,263.833 57.5,228.167 57.5,192.5C 56.5,192.5 55.5,192.5 54.5,192.5C 52.5,192.5 50.5,192.5 48.5,192.5C 48.5,202.167 48.5,211.833 48.5,221.5C 36.8333,221.5 25.1667,221.5 13.5,221.5C 13.5,196.167 13.5,170.833 13.5,145.5C 43.8333,145.5 74.1667,145.5 104.5,145.5C 105.5,145.5 106.5,145.5 107.5,145.5C 108.475,117.865 108.808,90.1985 108.5,62.5C 135.833,62.5 163.167,62.5 190.5,62.5C 190.333,89.8354 190.5,117.169 191,144.5C 192.011,145.337 193.178,145.67 194.5,145.5 Z"/></g>
<g><path style="opacity:1" fill="#dddddd" d="M 137.5,70.5 C 136.5,70.5 135.5,70.5 134.5,70.5C 129.5,70.5 124.5,70.5 119.5,70.5C 118.5,70.5 117.5,70.5 116.5,70.5C 116.5,69.5 116.5,68.5 116.5,67.5C 123.5,67.5 130.5,67.5 137.5,67.5C 137.5,68.5 137.5,69.5 137.5,70.5 Z"/></g>
<g><path style="opacity:1" fill="#dedede" d="M 182.5,70.5 C 181.5,70.5 180.5,70.5 179.5,70.5C 174.5,70.5 169.5,70.5 164.5,70.5C 163.5,70.5 162.5,70.5 161.5,70.5C 161.5,69.5 161.5,68.5 161.5,67.5C 168.5,67.5 175.5,67.5 182.5,67.5C 182.5,68.5 182.5,69.5 182.5,70.5 Z"/></g>
<g><path style="opacity:1" fill="#8d8d8d" d="M 134.5,70.5 C 135.5,70.5 136.5,70.5 137.5,70.5C 137.5,72.5 137.5,74.5 137.5,76.5C 136.5,76.5 135.5,76.5 134.5,76.5C 134.5,74.5 134.5,72.5 134.5,70.5 Z"/></g>
<g><path style="opacity:1" fill="#939393" d="M 116.5,70.5 C 117.5,70.5 118.5,70.5 119.5,70.5C 119.5,72.5 119.5,74.5 119.5,76.5C 118.5,76.5 117.5,76.5 116.5,76.5C 116.5,74.5 116.5,72.5 116.5,70.5 Z"/></g>
<g><path style="opacity:1" fill="#424242" d="M 119.5,70.5 C 124.5,70.5 129.5,70.5 134.5,70.5C 134.5,72.5 134.5,74.5 134.5,76.5C 129.5,76.5 124.5,76.5 119.5,76.5C 119.5,74.5 119.5,72.5 119.5,70.5 Z"/></g>
<g><path style="opacity:1" fill="#9c9c9c" d="M 161.5,70.5 C 162.5,70.5 163.5,70.5 164.5,70.5C 164.5,72.5 164.5,74.5 164.5,76.5C 163.5,76.5 162.5,76.5 161.5,76.5C 161.5,74.5 161.5,72.5 161.5,70.5 Z"/></g>
<g><path style="opacity:1" fill="#414141" d="M 164.5,70.5 C 169.5,70.5 174.5,70.5 179.5,70.5C 179.5,72.5 179.5,74.5 179.5,76.5C 174.5,76.5 169.5,76.5 164.5,76.5C 164.5,74.5 164.5,72.5 164.5,70.5 Z"/></g>
<g><path style="opacity:1" fill="#828282" d="M 179.5,70.5 C 180.5,70.5 181.5,70.5 182.5,70.5C 182.5,72.5 182.5,74.5 182.5,76.5C 181.5,76.5 180.5,76.5 179.5,76.5C 179.5,74.5 179.5,72.5 179.5,70.5 Z"/></g>
<g><path style="opacity:1" fill="#cfcfcf" d="M 116.5,76.5 C 117.5,76.5 118.5,76.5 119.5,76.5C 124.5,76.5 129.5,76.5 134.5,76.5C 135.5,76.5 136.5,76.5 137.5,76.5C 137.5,77.5 137.5,78.5 137.5,79.5C 131.5,79.5 125.5,79.5 119.5,79.5C 119.5,80.5 119.5,81.5 119.5,82.5C 118.5,82.5 117.5,82.5 116.5,82.5C 116.5,80.5 116.5,78.5 116.5,76.5 Z"/></g>
<g><path style="opacity:1" fill="#cecece" d="M 161.5,76.5 C 162.5,76.5 163.5,76.5 164.5,76.5C 169.5,76.5 174.5,76.5 179.5,76.5C 180.5,76.5 181.5,76.5 182.5,76.5C 182.5,78.5 182.5,80.5 182.5,82.5C 182.167,82.5 181.833,82.5 181.5,82.5C 181.5,81.5 181.5,80.5 181.5,79.5C 174.833,79.5 168.167,79.5 161.5,79.5C 161.5,78.5 161.5,77.5 161.5,76.5 Z"/></g>
<g><path style="opacity:1" fill="#919191" d="M 137.5,79.5 C 138.5,79.5 139.5,79.5 140.5,79.5C 140.5,80.5 140.5,81.5 140.5,82.5C 139.5,82.5 138.5,82.5 137.5,82.5C 131.5,82.5 125.5,82.5 119.5,82.5C 119.5,81.5 119.5,80.5 119.5,79.5C 125.5,79.5 131.5,79.5 137.5,79.5 Z"/></g>
<g><path style="opacity:1" fill="#949494" d="M 161.5,79.5 C 168.167,79.5 174.833,79.5 181.5,79.5C 181.5,80.5 181.5,81.5 181.5,82.5C 180.833,82.5 180.167,82.5 179.5,82.5C 173.5,82.5 167.5,82.5 161.5,82.5C 160.5,82.5 159.5,82.5 158.5,82.5C 158.5,81.5 158.5,80.5 158.5,79.5C 159.5,79.5 160.5,79.5 161.5,79.5 Z"/></g>
<g><path style="opacity:1" fill="#242424" d="M 161.5,82.5 C 167.5,82.5 173.5,82.5 179.5,82.5C 179.5,87.5 179.5,92.5 179.5,97.5C 179.5,98.5 179.5,99.5 179.5,100.5C 173.5,100.5 167.5,100.5 161.5,100.5C 161.5,98.5 161.5,96.5 161.5,94.5C 162.5,94.5 163.5,94.5 164.5,94.5C 165.5,94.5 166.5,94.5 167.5,94.5C 167.5,95.5 167.5,96.5 167.5,97.5C 170.5,97.5 173.5,97.5 176.5,97.5C 176.5,94.5 176.5,91.5 176.5,88.5C 176.5,87.5 176.5,86.5 176.5,85.5C 172.5,85.5 168.5,85.5 164.5,85.5C 164.5,86.5 164.5,87.5 164.5,88.5C 163.5,88.5 162.5,88.5 161.5,88.5C 161.5,86.5 161.5,84.5 161.5,82.5 Z"/></g>
<g><path style="opacity:1" fill="#696969" d="M 116.5,82.5 C 117.5,82.5 118.5,82.5 119.5,82.5C 119.5,88.5 119.5,94.5 119.5,100.5C 118.5,100.5 117.5,100.5 116.5,100.5C 116.5,94.5 116.5,88.5 116.5,82.5 Z"/></g>
<g><path style="opacity:1" fill="#cecece" d="M 182.5,82.5 C 183.5,82.5 184.5,82.5 185.5,82.5C 185.5,88.5 185.5,94.5 185.5,100.5C 184.5,100.5 183.5,100.5 182.5,100.5C 182.5,94.5 182.5,88.5 182.5,82.5 Z"/></g>
<g><path style="opacity:1" fill="#cfcfcf" d="M 116.5,82.5 C 116.5,88.5 116.5,94.5 116.5,100.5C 115.5,100.5 114.5,100.5 113.5,100.5C 113.5,94.5 113.5,88.5 113.5,82.5C 114.5,82.5 115.5,82.5 116.5,82.5 Z"/></g>
<g><path style="opacity:1" fill="#4d4d4d" d="M 176.5,88.5 C 172.5,88.5 168.5,88.5 164.5,88.5C 164.5,87.5 164.5,86.5 164.5,85.5C 168.5,85.5 172.5,85.5 176.5,85.5C 176.5,86.5 176.5,87.5 176.5,88.5 Z"/></g>
<g><path style="opacity:1" fill="#565656" d="M 137.5,82.5 C 138.5,82.5 139.5,82.5 140.5,82.5C 140.5,88.5 140.5,94.5 140.5,100.5C 139.5,100.5 138.5,100.5 137.5,100.5C 137.5,98.5 137.5,96.5 137.5,94.5C 136.5,94.5 135.5,94.5 134.5,94.5C 134.5,93.5 134.5,92.5 134.5,91.5C 131.5,91.5 128.5,91.5 125.5,91.5C 125.5,90.5 125.5,89.5 125.5,88.5C 128.5,88.5 131.5,88.5 134.5,88.5C 135.5,88.5 136.5,88.5 137.5,88.5C 137.5,86.5 137.5,84.5 137.5,82.5 Z"/></g>
<g><path style="opacity:1" fill="#505050" d="M 158.5,82.5 C 159.5,82.5 160.5,82.5 161.5,82.5C 161.5,84.5 161.5,86.5 161.5,88.5C 162.5,88.5 163.5,88.5 164.5,88.5C 164.5,90.5 164.5,92.5 164.5,94.5C 163.5,94.5 162.5,94.5 161.5,94.5C 161.5,96.5 161.5,98.5 161.5,100.5C 160.5,100.5 159.5,100.5 158.5,100.5C 158.5,94.5 158.5,88.5 158.5,82.5 Z"/></g>
<g><path style="opacity:1" fill="#4b4b4b" d="M 179.5,82.5 C 180.167,82.5 180.833,82.5 181.5,82.5C 182.108,87.9443 181.442,92.9443 179.5,97.5C 179.5,92.5 179.5,87.5 179.5,82.5 Z"/></g>
<g><path style="opacity:1" fill="#777777" d="M 181.5,82.5 C 181.833,82.5 182.167,82.5 182.5,82.5C 182.5,88.5 182.5,94.5 182.5,100.5C 181.5,100.5 180.5,100.5 179.5,100.5C 179.5,99.5 179.5,98.5 179.5,97.5C 181.442,92.9443 182.108,87.9443 181.5,82.5 Z"/></g>
<g><path style="opacity:1" fill="#818181" d="M 122.5,88.5 C 123.5,88.5 124.5,88.5 125.5,88.5C 125.5,89.5 125.5,90.5 125.5,91.5C 128.5,91.5 131.5,91.5 134.5,91.5C 134.5,92.5 134.5,93.5 134.5,94.5C 133.5,94.5 132.5,94.5 131.5,94.5C 131.5,95.5 131.5,96.5 131.5,97.5C 129.5,97.5 127.5,97.5 125.5,97.5C 125.5,96.5 125.5,95.5 125.5,94.5C 124.5,94.5 123.5,94.5 122.5,94.5C 122.5,92.5 122.5,90.5 122.5,88.5 Z"/></g>
<g><path style="opacity:1" fill="#777777" d="M 164.5,88.5 C 168.5,88.5 172.5,88.5 176.5,88.5C 176.5,91.5 176.5,94.5 176.5,97.5C 173.5,97.5 170.5,97.5 167.5,97.5C 167.5,96.5 167.5,95.5 167.5,94.5C 166.5,94.5 165.5,94.5 164.5,94.5C 164.5,92.5 164.5,90.5 164.5,88.5 Z"/></g>
<g><path style="opacity:1" fill="#6d6d6d" d="M 81.5,94.5 C 87.1667,94.5 92.8333,94.5 98.5,94.5C 98.8333,94.5 99.1667,94.5 99.5,94.5C 99.5,95.5 99.5,96.5 99.5,97.5C 93.5,97.5 87.5,97.5 81.5,97.5C 81.5,96.5 81.5,95.5 81.5,94.5 Z"/></g>
<g><path style="opacity:1" fill="#282828" d="M 119.5,82.5 C 125.5,82.5 131.5,82.5 137.5,82.5C 137.5,84.5 137.5,86.5 137.5,88.5C 136.5,88.5 135.5,88.5 134.5,88.5C 134.5,87.5 134.5,86.5 134.5,85.5C 130.5,85.5 126.5,85.5 122.5,85.5C 122.5,86.5 122.5,87.5 122.5,88.5C 122.5,90.5 122.5,92.5 122.5,94.5C 123.5,94.5 124.5,94.5 125.5,94.5C 125.5,95.5 125.5,96.5 125.5,97.5C 127.5,97.5 129.5,97.5 131.5,97.5C 131.5,96.5 131.5,95.5 131.5,94.5C 132.5,94.5 133.5,94.5 134.5,94.5C 135.5,94.5 136.5,94.5 137.5,94.5C 137.5,96.5 137.5,98.5 137.5,100.5C 131.5,100.5 125.5,100.5 119.5,100.5C 119.5,94.5 119.5,88.5 119.5,82.5 Z"/></g>
<g><path style="opacity:1" fill="#464646" d="M 134.5,88.5 C 131.5,88.5 128.5,88.5 125.5,88.5C 124.5,88.5 123.5,88.5 122.5,88.5C 122.5,87.5 122.5,86.5 122.5,85.5C 126.5,85.5 130.5,85.5 134.5,85.5C 134.5,86.5 134.5,87.5 134.5,88.5 Z"/></g>
<g><path style="opacity:1" fill="#9e9e9e" d="M 75.5,100.5 C 83.5,100.5 91.5,100.5 99.5,100.5C 99.5,101.5 99.5,102.5 99.5,103.5C 99.5,113.5 99.5,123.5 99.5,133.5C 99.5,134.5 99.5,135.5 99.5,136.5C 99.1667,136.5 98.8333,136.5 98.5,136.5C 97.5,136.5 96.5,136.5 95.5,136.5C 95.5,136.167 95.5,135.833 95.5,135.5C 96.5,135.5 97.5,135.5 98.5,135.5C 99.1428,124.448 98.4762,113.781 96.5,103.5C 96.1667,103.5 95.8333,103.5 95.5,103.5C 88.8333,103.5 82.1667,103.5 75.5,103.5C 75.5,102.5 75.5,101.5 75.5,100.5 Z"/></g>
<g><path style="opacity:1" fill="#a6a6a6" d="M 116.5,100.5 C 117.5,100.5 118.5,100.5 119.5,100.5C 125.5,100.5 131.5,100.5 137.5,100.5C 137.5,101.5 137.5,102.5 137.5,103.5C 130.5,103.5 123.5,103.5 116.5,103.5C 116.5,102.5 116.5,101.5 116.5,100.5 Z"/></g>
<g><path style="opacity:1" fill="#cecece" d="M 140.5,82.5 C 141.5,82.5 142.5,82.5 143.5,82.5C 143.5,88.5 143.5,94.5 143.5,100.5C 144.5,100.5 145.5,100.5 146.5,100.5C 146.5,101.5 146.5,102.5 146.5,103.5C 145.5,103.5 144.5,103.5 143.5,103.5C 142.5,103.5 141.5,103.5 140.5,103.5C 140.5,105.5 140.5,107.5 140.5,109.5C 139.5,109.5 138.5,109.5 137.5,109.5C 137.5,107.5 137.5,105.5 137.5,103.5C 137.5,102.5 137.5,101.5 137.5,100.5C 138.5,100.5 139.5,100.5 140.5,100.5C 140.5,94.5 140.5,88.5 140.5,82.5 Z"/></g>
<g><path style="opacity:1" fill="#d0d0d0" d="M 158.5,82.5 C 158.5,88.5 158.5,94.5 158.5,100.5C 159.5,100.5 160.5,100.5 161.5,100.5C 161.5,101.5 161.5,102.5 161.5,103.5C 161.5,106.5 161.5,109.5 161.5,112.5C 160.5,112.5 159.5,112.5 158.5,112.5C 158.5,109.5 158.5,106.5 158.5,103.5C 157.5,103.5 156.5,103.5 155.5,103.5C 154.5,103.5 153.5,103.5 152.5,103.5C 152.5,102.5 152.5,101.5 152.5,100.5C 153.5,100.5 154.5,100.5 155.5,100.5C 155.5,94.5 155.5,88.5 155.5,82.5C 156.5,82.5 157.5,82.5 158.5,82.5 Z"/></g>
<g><path style="opacity:1" fill="#a7a7a7" d="M 161.5,100.5 C 167.5,100.5 173.5,100.5 179.5,100.5C 180.5,100.5 181.5,100.5 182.5,100.5C 182.5,101.5 182.5,102.5 182.5,103.5C 175.5,103.5 168.5,103.5 161.5,103.5C 161.5,102.5 161.5,101.5 161.5,100.5 Z"/></g>
<g><path style="opacity:1" fill="#252525" d="M 199.5,94.5 C 199.5,95.5 199.5,96.5 199.5,97.5C 205.5,97.5 211.5,97.5 217.5,97.5C 217.5,96.5 217.5,95.5 217.5,94.5C 218.5,94.5 219.5,94.5 220.5,94.5C 220.5,95.5 220.5,96.5 220.5,97.5C 221.5,97.5 222.5,97.5 223.5,97.5C 223.5,98.5 223.5,99.5 223.5,100.5C 215.5,100.5 207.5,100.5 199.5,100.5C 199.5,101.5 199.5,102.5 199.5,103.5C 198.172,108.119 197.506,113.119 197.5,118.5C 197.506,123.881 198.172,128.881 199.5,133.5C 199.5,134.5 199.5,135.5 199.5,136.5C 199.5,137.5 199.5,138.5 199.5,139.5C 197.833,139.5 196.167,139.5 194.5,139.5C 194.5,113.5 194.5,87.5 194.5,61.5C 194.215,59.712 194.548,58.0453 195.5,56.5C 196.499,69.1492 196.832,81.8158 196.5,94.5C 197.5,94.5 198.5,94.5 199.5,94.5 Z"/></g>
<g><path style="opacity:1" fill="#6d6d6d" d="M 199.5,94.5 C 199.833,94.5 200.167,94.5 200.5,94.5C 206.167,94.5 211.833,94.5 217.5,94.5C 217.5,95.5 217.5,96.5 217.5,97.5C 211.5,97.5 205.5,97.5 199.5,97.5C 199.5,96.5 199.5,95.5 199.5,94.5 Z"/></g>
<g><path style="opacity:1" fill="#a2a2a2" d="M 223.5,100.5 C 223.5,101.5 223.5,102.5 223.5,103.5C 216.5,103.5 209.5,103.5 202.5,103.5C 200.524,113.781 199.857,124.448 200.5,135.5C 231.338,135.169 262.005,135.502 292.5,136.5C 262.833,136.5 233.167,136.5 203.5,136.5C 202.5,136.5 201.5,136.5 200.5,136.5C 200.167,136.5 199.833,136.5 199.5,136.5C 199.5,135.5 199.5,134.5 199.5,133.5C 199.5,123.5 199.5,113.5 199.5,103.5C 199.5,102.5 199.5,101.5 199.5,100.5C 207.5,100.5 215.5,100.5 223.5,100.5 Z"/></g>
<g><path style="opacity:1" fill="#707070" d="M 104.5,61.5 C 104.833,61.5 105.167,61.5 105.5,61.5C 105.5,88.1667 105.5,114.833 105.5,141.5C 105.5,142.167 105.167,142.5 104.5,142.5C 103.5,142.5 102.5,142.5 101.5,142.5C 71.8333,142.5 42.1667,142.5 12.5,142.5C 43.3469,142.164 74.0136,141.164 104.5,139.5C 104.5,113.5 104.5,87.5 104.5,61.5 Z"/></g>
<g><path style="opacity:1" fill="#606060" d="M 143.5,103.5 C 144.5,103.5 145.5,103.5 146.5,103.5C 148.5,103.5 150.5,103.5 152.5,103.5C 153.5,103.5 154.5,103.5 155.5,103.5C 155.5,104.5 155.5,105.5 155.5,106.5C 151.5,106.5 147.5,106.5 143.5,106.5C 143.5,105.5 143.5,104.5 143.5,103.5 Z"/></g>
<g><path style="opacity:1" fill="#838383" d="M 155.5,103.5 C 156.5,103.5 157.5,103.5 158.5,103.5C 158.5,106.5 158.5,109.5 158.5,112.5C 157.5,112.5 156.5,112.5 155.5,112.5C 155.5,111.5 155.5,110.5 155.5,109.5C 155.5,108.5 155.5,107.5 155.5,106.5C 155.5,105.5 155.5,104.5 155.5,103.5 Z"/></g>
<g><path style="opacity:1" fill="#5e5e5e" d="M 99.5,103.5 C 100.167,103.5 100.833,103.5 101.5,103.5C 102.141,113.889 101.474,123.889 99.5,133.5C 99.5,123.5 99.5,113.5 99.5,103.5 Z"/></g>
<g><path style="opacity:1" fill="#1b1b1b" d="M 143.5,106.5 C 147.5,106.5 151.5,106.5 155.5,106.5C 155.5,107.5 155.5,108.5 155.5,109.5C 151.5,109.5 147.5,109.5 143.5,109.5C 143.5,108.5 143.5,107.5 143.5,106.5 Z"/></g>
<g><path style="opacity:1" fill="#424242" d="M 101.5,103.5 C 102.495,114.321 102.828,125.321 102.5,136.5C 101.5,136.5 100.5,136.5 99.5,136.5C 99.5,135.5 99.5,134.5 99.5,133.5C 101.474,123.889 102.141,113.889 101.5,103.5 Z"/></g>
<g><path style="opacity:1" fill="#7f7f7f" d="M 143.5,103.5 C 143.5,104.5 143.5,105.5 143.5,106.5C 143.5,107.5 143.5,108.5 143.5,109.5C 143.5,110.5 143.5,111.5 143.5,112.5C 142.5,112.5 141.5,112.5 140.5,112.5C 140.5,111.5 140.5,110.5 140.5,109.5C 140.5,107.5 140.5,105.5 140.5,103.5C 141.5,103.5 142.5,103.5 143.5,103.5 Z"/></g>
<g><path style="opacity:1" fill="#525252" d="M 143.5,109.5 C 147.5,109.5 151.5,109.5 155.5,109.5C 155.5,110.5 155.5,111.5 155.5,112.5C 151.5,112.5 147.5,112.5 143.5,112.5C 143.5,111.5 143.5,110.5 143.5,109.5 Z"/></g>
<g><path style="opacity:1" fill="#e6e6e6" d="M 140.5,112.5 C 141.5,112.5 142.5,112.5 143.5,112.5C 147.5,112.5 151.5,112.5 155.5,112.5C 156.5,112.5 157.5,112.5 158.5,112.5C 158.5,113.5 158.5,114.5 158.5,115.5C 162.5,115.5 166.5,115.5 170.5,115.5C 170.5,116.5 170.5,117.5 170.5,118.5C 156.5,118.5 142.5,118.5 128.5,118.5C 128.5,117.5 128.5,116.5 128.5,115.5C 132.5,115.5 136.5,115.5 140.5,115.5C 140.5,114.5 140.5,113.5 140.5,112.5 Z"/></g>
<g><path style="opacity:1" fill="#797979" d="M 193.5,61.5 C 193.833,61.5 194.167,61.5 194.5,61.5C 194.5,87.5 194.5,113.5 194.5,139.5C 194.5,140.833 195.167,141.5 196.5,141.5C 196.5,141.833 196.5,142.167 196.5,142.5C 195.5,142.5 194.5,142.5 193.5,142.5C 193.5,142.167 193.5,141.833 193.5,141.5C 193.5,114.833 193.5,88.1667 193.5,61.5 Z"/></g>
<g><path style="opacity:1" fill="#989898" d="M 128.5,118.5 C 142.5,118.5 156.5,118.5 170.5,118.5C 170.5,119.5 170.5,120.5 170.5,121.5C 169.5,121.5 168.5,121.5 167.5,121.5C 155.5,121.5 143.5,121.5 131.5,121.5C 130.5,121.5 129.5,121.5 128.5,121.5C 128.5,120.5 128.5,119.5 128.5,118.5 Z"/></g>
<g><path style="opacity:1" fill="#4a4a4a" d="M 199.5,103.5 C 199.5,113.5 199.5,123.5 199.5,133.5C 198.172,128.881 197.506,123.881 197.5,118.5C 197.506,113.119 198.172,108.119 199.5,103.5 Z"/></g>
<g><path style="opacity:1" fill="#4e4e4e" d="M 128.5,121.5 C 129.5,121.5 130.5,121.5 131.5,121.5C 137.128,122.829 143.128,123.496 149.5,123.5C 155.872,123.496 161.872,122.829 167.5,121.5C 168.5,121.5 169.5,121.5 170.5,121.5C 170.5,122.5 170.5,123.5 170.5,124.5C 169.5,124.5 168.5,124.5 167.5,124.5C 155.5,124.5 143.5,124.5 131.5,124.5C 130.5,124.5 129.5,124.5 128.5,124.5C 128.5,123.5 128.5,122.5 128.5,121.5 Z"/></g>
<g><path style="opacity:1" fill="#333333" d="M 131.5,121.5 C 143.5,121.5 155.5,121.5 167.5,121.5C 161.872,122.829 155.872,123.496 149.5,123.5C 143.128,123.496 137.128,122.829 131.5,121.5 Z"/></g>
<g><path style="opacity:1" fill="#9d9d9d" d="M 128.5,124.5 C 129.5,124.5 130.5,124.5 131.5,124.5C 137.128,125.829 143.128,126.496 149.5,126.5C 155.872,126.496 161.872,125.829 167.5,124.5C 168.5,124.5 169.5,124.5 170.5,124.5C 170.5,125.5 170.5,126.5 170.5,127.5C 156.5,127.5 142.5,127.5 128.5,127.5C 128.5,126.5 128.5,125.5 128.5,124.5 Z"/></g>
<g><path style="opacity:1" fill="#7f7f7f" d="M 131.5,124.5 C 143.5,124.5 155.5,124.5 167.5,124.5C 161.872,125.829 155.872,126.496 149.5,126.5C 143.128,126.496 137.128,125.829 131.5,124.5 Z"/></g>
<g><path style="opacity:1" fill="#cccccc" d="M 170.5,121.5 C 171.5,121.5 172.5,121.5 173.5,121.5C 173.5,123.5 173.5,125.5 173.5,127.5C 172.5,127.5 171.5,127.5 170.5,127.5C 170.5,126.5 170.5,125.5 170.5,124.5C 170.5,123.5 170.5,122.5 170.5,121.5 Z"/></g>
<g><path style="opacity:1" fill="#eeeeee" d="M 95.5,103.5 C 95.8333,103.5 96.1667,103.5 96.5,103.5C 96.5,113.5 96.5,123.5 96.5,133.5C 66.1481,132.841 36.1481,133.508 6.5,135.5C 4.08824,135.694 3.08824,137.027 3.5,139.5C 2.5,139.5 1.5,139.5 0.5,139.5C 0.5,138.167 0.5,136.833 0.5,135.5C 1.5,135.5 2.5,135.5 3.5,135.5C 3.5,134.5 3.5,133.5 3.5,132.5C 34.1667,132.5 64.8333,132.5 95.5,132.5C 95.5,122.833 95.5,113.167 95.5,103.5 Z"/></g>
<g><path style="opacity:1" fill="#d7d7d7" d="M 96.5,103.5 C 98.4762,113.781 99.1428,124.448 98.5,135.5C 97.5,135.5 96.5,135.5 95.5,135.5C 65.8333,135.5 36.1667,135.5 6.5,135.5C 36.1481,133.508 66.1481,132.841 96.5,133.5C 96.5,123.5 96.5,113.5 96.5,103.5 Z"/></g>
<g><path style="opacity:1" fill="#d7d7d7" d="M 202.5,103.5 C 202.5,113.5 202.5,123.5 202.5,133.5C 233.174,133.167 263.841,133.5 294.5,134.5C 294.863,135.183 295.196,135.85 295.5,136.5C 294.5,136.5 293.5,136.5 292.5,136.5C 262.005,135.502 231.338,135.169 200.5,135.5C 199.857,124.448 200.524,113.781 202.5,103.5 Z"/></g>
<g><path style="opacity:1" fill="#b3b3b3" d="M 6.5,135.5 C 36.1667,135.5 65.8333,135.5 95.5,135.5C 95.5,135.833 95.5,136.167 95.5,136.5C 65.4812,135.841 35.8145,136.508 6.5,138.5C 6.5,138.833 6.5,139.167 6.5,139.5C 5.83333,139.5 5.16667,139.5 4.5,139.5C 4.16667,139.5 3.83333,139.5 3.5,139.5C 3.08824,137.027 4.08824,135.694 6.5,135.5 Z"/></g>
<g><path style="opacity:1" fill="#797979" d="M 95.5,136.5 C 66.1855,138.492 36.5188,139.159 6.5,138.5C 35.8145,136.508 65.4812,135.841 95.5,136.5 Z"/></g>
<g><path style="opacity:1" fill="#797979" d="M 203.5,136.5 C 233.167,136.5 262.833,136.5 292.5,136.5C 292.5,137.167 292.5,137.833 292.5,138.5C 262.481,139.159 232.815,138.492 203.5,136.5 Z"/></g>
<g><path style="opacity:1" fill="#636363" d="M 95.5,136.5 C 96.5,136.5 97.5,136.5 98.5,136.5C 98.5,137.5 98.5,138.5 98.5,139.5C 67.8333,139.5 37.1667,139.5 6.5,139.5C 6.5,139.167 6.5,138.833 6.5,138.5C 36.5188,139.159 66.1855,138.492 95.5,136.5 Z"/></g>
<g><path style="opacity:1" fill="#636363" d="M 200.5,136.5 C 201.5,136.5 202.5,136.5 203.5,136.5C 232.815,138.492 262.481,139.159 292.5,138.5C 292.5,138.833 292.5,139.167 292.5,139.5C 261.833,139.5 231.167,139.5 200.5,139.5C 200.5,138.5 200.5,137.5 200.5,136.5 Z"/></g>
<g><path style="opacity:1" fill="#404040" d="M 199.5,136.5 C 199.833,136.5 200.167,136.5 200.5,136.5C 200.5,137.5 200.5,138.5 200.5,139.5C 231.167,139.5 261.833,139.5 292.5,139.5C 293.167,139.5 293.833,139.5 294.5,139.5C 295.159,169.519 294.492,199.185 292.5,228.5C 279.124,227.852 266.124,228.519 253.5,230.5C 252.5,230.5 251.5,230.5 250.5,230.5C 250.5,228.833 250.5,227.167 250.5,225.5C 263.5,225.5 276.5,225.5 289.5,225.5C 289.5,224.5 289.5,223.5 289.5,222.5C 290.5,222.5 291.5,222.5 292.5,222.5C 292.5,196.833 292.5,171.167 292.5,145.5C 291.5,145.5 290.5,145.5 289.5,145.5C 289.5,145.167 289.5,144.833 289.5,144.5C 289.5,143.5 289.5,142.5 289.5,141.5C 258.5,141.5 227.5,141.5 196.5,141.5C 195.167,141.5 194.5,140.833 194.5,139.5C 196.167,139.5 197.833,139.5 199.5,139.5C 199.5,138.5 199.5,137.5 199.5,136.5 Z"/></g>
<g><path style="opacity:1" fill="#626262" d="M 196.5,142.5 C 196.5,142.167 196.5,141.833 196.5,141.5C 227.5,141.5 258.5,141.5 289.5,141.5C 289.5,142.5 289.5,143.5 289.5,144.5C 288.5,144.5 287.5,144.5 286.5,144.5C 256.852,142.508 226.852,141.841 196.5,142.5 Z"/></g>
<g><path style="opacity:1" fill="#9a9a9a" d="M 196.5,142.5 C 226.852,141.841 256.852,142.508 286.5,144.5C 256.148,145.159 226.148,144.492 196.5,142.5 Z"/></g>
<g><path style="opacity:0.624" fill="#bebebe" d="M 292.5,136.5 C 293.5,136.5 294.5,136.5 295.5,136.5C 295.821,138.048 296.821,138.715 298.5,138.5C 298.5,168.5 298.5,198.5 298.5,228.5C 297.5,228.5 296.5,228.5 295.5,228.5C 295.5,228.167 295.5,227.833 295.5,227.5C 296.833,213.182 297.499,198.516 297.5,183.5C 297.499,168.484 296.833,153.818 295.5,139.5C 295.167,139.5 294.833,139.5 294.5,139.5C 293.833,139.5 293.167,139.5 292.5,139.5C 292.5,139.167 292.5,138.833 292.5,138.5C 292.5,137.833 292.5,137.167 292.5,136.5 Z"/></g>
<g><path style="opacity:1" fill="#c7c7c7" d="M 0.5,139.5 C 1.5,139.5 2.5,139.5 3.5,139.5C 3.5,169.167 3.5,198.833 3.5,228.5C 2.5,228.5 1.5,228.5 0.5,228.5C 0.5,198.833 0.5,169.167 0.5,139.5 Z"/></g>
<g><path style="opacity:1" fill="#c6c6c6" d="M 101.5,142.5 C 102.5,142.5 103.5,142.5 104.5,142.5C 104.5,143.5 104.5,144.5 104.5,145.5C 74.1667,145.5 43.8333,145.5 13.5,145.5C 13.1667,145.5 12.8333,145.5 12.5,145.5C 42.3474,145.164 72.0141,144.164 101.5,142.5 Z"/></g>
<g><path style="opacity:1" fill="#c6c6c6" d="M 193.5,142.5 C 194.5,142.5 195.5,142.5 196.5,142.5C 226.148,144.492 256.148,145.159 286.5,144.5C 286.5,144.833 286.5,145.167 286.5,145.5C 285.5,145.5 284.5,145.5 283.5,145.5C 253.833,145.5 224.167,145.5 194.5,145.5C 193.89,144.609 193.557,143.609 193.5,142.5 Z"/></g>
<g><path style="opacity:1" fill="#7e7e7e" d="M 294.5,139.5 C 294.833,139.5 295.167,139.5 295.5,139.5C 295.5,168.833 295.5,198.167 295.5,227.5C 295.5,227.833 295.5,228.167 295.5,228.5C 295.5,229.5 295.5,230.5 295.5,231.5C 280.5,231.5 265.5,231.5 250.5,231.5C 250.5,231.167 250.5,230.833 250.5,230.5C 251.5,230.5 252.5,230.5 253.5,230.5C 266.876,231.148 279.876,230.481 292.5,228.5C 294.492,199.185 295.159,169.519 294.5,139.5 Z"/></g>
<g><path style="opacity:1" fill="#868686" d="M 3.5,139.5 C 3.83333,139.5 4.16667,139.5 4.5,139.5C 3.84121,169.519 4.50787,199.185 6.5,228.5C 19.1237,230.481 32.1237,231.148 45.5,230.5C 46.5,230.5 47.5,230.5 48.5,230.5C 48.5,230.833 48.5,231.167 48.5,231.5C 33.5,231.5 18.5,231.5 3.5,231.5C 3.5,230.5 3.5,229.5 3.5,228.5C 3.5,198.833 3.5,169.167 3.5,139.5 Z"/></g>
<g><path style="opacity:1" fill="#5a5a5a" d="M 9.5,145.5 C 9.5,171.167 9.5,196.833 9.5,222.5C 8.5,222.5 7.5,222.5 6.5,222.5C 6.5,196.833 6.5,171.167 6.5,145.5C 7.5,145.5 8.5,145.5 9.5,145.5 Z"/></g>
<g><path style="opacity:1" fill="#aeaeae" d="M 295.5,139.5 C 296.833,153.818 297.499,168.484 297.5,183.5C 297.499,198.516 296.833,213.182 295.5,227.5C 295.5,198.167 295.5,168.833 295.5,139.5 Z"/></g>
<g><path style="opacity:1" fill="#959595" d="M 12.5,142.5 C 42.1667,142.5 71.8333,142.5 101.5,142.5C 72.0141,144.164 42.3474,145.164 12.5,145.5C 11.1675,157.815 10.5009,170.482 10.5,183.5C 10.5009,196.518 11.1675,209.185 12.5,221.5C 12.5,222.167 12.8333,222.5 13.5,222.5C 24.7854,224.478 36.4521,225.145 48.5,224.5C 48.5,224.833 48.5,225.167 48.5,225.5C 35.5,225.5 22.5,225.5 9.5,225.5C 9.5,224.5 9.5,223.5 9.5,222.5C 9.5,196.833 9.5,171.167 9.5,145.5C 9.85637,143.81 10.8564,142.81 12.5,142.5 Z"/></g>
<g><path style="opacity:1" fill="#bababa" d="M 12.5,145.5 C 12.5,170.833 12.5,196.167 12.5,221.5C 11.1675,209.185 10.5009,196.518 10.5,183.5C 10.5009,170.482 11.1675,157.815 12.5,145.5 Z"/></g>
<g><path style="opacity:1" fill="#e4e4e4" d="M 12.5,145.5 C 12.8333,145.5 13.1667,145.5 13.5,145.5C 13.5,170.833 13.5,196.167 13.5,221.5C 25.1667,221.5 36.8333,221.5 48.5,221.5C 48.5,221.833 48.5,222.167 48.5,222.5C 36.8333,222.5 25.1667,222.5 13.5,222.5C 12.8333,222.5 12.5,222.167 12.5,221.5C 12.5,196.167 12.5,170.833 12.5,145.5 Z"/></g>
<g><path style="opacity:1" fill="#ebebeb" d="M 283.5,145.5 C 284.5,145.5 285.5,145.5 286.5,145.5C 286.5,170.833 286.5,196.167 286.5,221.5C 286.5,221.833 286.5,222.167 286.5,222.5C 286.167,222.5 285.833,222.5 285.5,222.5C 274.833,222.5 264.167,222.5 253.5,222.5C 252.5,222.5 251.5,222.5 250.5,222.5C 250.5,213.5 250.5,204.5 250.5,195.5C 250.5,194.5 250.5,193.5 250.5,192.5C 251.5,192.5 252.5,192.5 253.5,192.5C 253.5,202.167 253.5,211.833 253.5,221.5C 264.167,221.5 274.833,221.5 285.5,221.5C 286.126,196.007 285.46,170.674 283.5,145.5 Z"/></g>
<g><path style="opacity:1" fill="#cecece" d="M 286.5,145.5 C 287.832,157.815 288.499,170.482 288.5,183.5C 288.499,196.518 287.832,209.185 286.5,221.5C 286.5,196.167 286.5,170.833 286.5,145.5 Z"/></g>
<g><path style="opacity:1" fill="#a4a4a4" d="M 286.5,145.5 C 286.5,145.167 286.5,144.833 286.5,144.5C 287.5,144.5 288.5,144.5 289.5,144.5C 289.5,144.833 289.5,145.167 289.5,145.5C 289.5,171.167 289.5,196.833 289.5,222.5C 288.5,222.5 287.5,222.5 286.5,222.5C 286.5,222.167 286.5,221.833 286.5,221.5C 287.832,209.185 288.499,196.518 288.5,183.5C 288.499,170.482 287.832,157.815 286.5,145.5 Z"/></g>
<g><path style="opacity:1" fill="#5c5c5c" d="M 289.5,145.5 C 290.5,145.5 291.5,145.5 292.5,145.5C 292.5,171.167 292.5,196.833 292.5,222.5C 291.5,222.5 290.5,222.5 289.5,222.5C 289.5,196.833 289.5,171.167 289.5,145.5 Z"/></g>
<g><path style="opacity:1" fill="#919191" d="M 244.5,192.5 C 246.5,192.5 248.5,192.5 250.5,192.5C 250.5,193.5 250.5,194.5 250.5,195.5C 249.5,195.5 248.5,195.5 247.5,195.5C 246.5,195.5 245.5,195.5 244.5,195.5C 244.5,194.5 244.5,193.5 244.5,192.5 Z"/></g>
<g><path style="opacity:1" fill="#6a6a6a" d="M 54.5,192.5 C 54.5,193.5 54.5,194.5 54.5,195.5C 53.5,195.5 52.5,195.5 51.5,195.5C 51.5,205.5 51.5,215.5 51.5,225.5C 50.5,225.5 49.5,225.5 48.5,225.5C 48.5,225.167 48.5,224.833 48.5,224.5C 48.5,223.833 48.5,223.167 48.5,222.5C 48.5,222.167 48.5,221.833 48.5,221.5C 48.5,211.833 48.5,202.167 48.5,192.5C 50.5,192.5 52.5,192.5 54.5,192.5 Z"/></g>
<g><path style="opacity:1" fill="#656565" d="M 247.5,195.5 C 248.5,195.5 249.5,195.5 250.5,195.5C 250.5,204.5 250.5,213.5 250.5,222.5C 249.5,222.5 248.5,222.5 247.5,222.5C 247.5,213.5 247.5,204.5 247.5,195.5 Z"/></g>
<g><path style="opacity:1" fill="#aaaaaa" d="M 13.5,222.5 C 25.1667,222.5 36.8333,222.5 48.5,222.5C 48.5,223.167 48.5,223.833 48.5,224.5C 36.4521,225.145 24.7854,224.478 13.5,222.5 Z"/></g>
<g><path style="opacity:1" fill="#8c8c8c" d="M 250.5,222.5 C 251.5,222.5 252.5,222.5 253.5,222.5C 258.456,223.828 263.789,224.495 269.5,224.5C 275.211,224.495 280.544,223.828 285.5,222.5C 285.833,222.5 286.167,222.5 286.5,222.5C 287.5,222.5 288.5,222.5 289.5,222.5C 289.5,223.5 289.5,224.5 289.5,225.5C 276.5,225.5 263.5,225.5 250.5,225.5C 250.5,224.5 250.5,223.5 250.5,222.5 Z"/></g>
<g><path style="opacity:1" fill="#aaaaaa" d="M 253.5,222.5 C 264.167,222.5 274.833,222.5 285.5,222.5C 280.544,223.828 275.211,224.495 269.5,224.5C 263.789,224.495 258.456,223.828 253.5,222.5 Z"/></g>
<g><path style="opacity:1" fill="#414141" d="M 98.5,136.5 C 98.8333,136.5 99.1667,136.5 99.5,136.5C 99.5,137.5 99.5,138.5 99.5,139.5C 101.167,139.5 102.833,139.5 104.5,139.5C 74.0136,141.164 43.3469,142.164 12.5,142.5C 10.8564,142.81 9.85637,143.81 9.5,145.5C 8.5,145.5 7.5,145.5 6.5,145.5C 6.5,171.167 6.5,196.833 6.5,222.5C 7.5,222.5 8.5,222.5 9.5,222.5C 9.5,223.5 9.5,224.5 9.5,225.5C 22.5,225.5 35.5,225.5 48.5,225.5C 48.5,227.167 48.5,228.833 48.5,230.5C 47.5,230.5 46.5,230.5 45.5,230.5C 32.8763,228.519 19.8763,227.852 6.5,228.5C 4.50787,199.185 3.84121,169.519 4.5,139.5C 5.16667,139.5 5.83333,139.5 6.5,139.5C 37.1667,139.5 67.8333,139.5 98.5,139.5C 98.5,138.5 98.5,137.5 98.5,136.5 Z"/></g>
<g><path style="opacity:1" fill="#525252" d="M 6.5,228.5 C 19.8763,227.852 32.8763,228.519 45.5,230.5C 32.1237,231.148 19.1237,230.481 6.5,228.5 Z"/></g>
<g><path style="opacity:1" fill="#1c1c1c" d="M 244.5,195.5 C 245.5,195.5 246.5,195.5 247.5,195.5C 247.5,204.5 247.5,213.5 247.5,222.5C 248.5,222.5 249.5,222.5 250.5,222.5C 250.5,223.5 250.5,224.5 250.5,225.5C 250.5,227.167 250.5,228.833 250.5,230.5C 250.5,230.833 250.5,231.167 250.5,231.5C 249.5,231.5 248.5,231.5 247.5,231.5C 247.5,254.167 247.5,276.833 247.5,299.5C 246.5,299.5 245.5,299.5 244.5,299.5C 244.5,264.833 244.5,230.167 244.5,195.5 Z"/></g>
<g><path style="opacity:1" fill="#535353" d="M 292.5,228.5 C 279.876,230.481 266.876,231.148 253.5,230.5C 266.124,228.519 279.124,227.852 292.5,228.5 Z"/></g>
<g><path style="opacity:1" fill="#1b1b1b" d="M 54.5,195.5 C 54.5,230.167 54.5,264.833 54.5,299.5C 53.5,299.5 52.5,299.5 51.5,299.5C 51.5,276.833 51.5,254.167 51.5,231.5C 50.5,231.5 49.5,231.5 48.5,231.5C 48.5,231.167 48.5,230.833 48.5,230.5C 48.5,228.833 48.5,227.167 48.5,225.5C 49.5,225.5 50.5,225.5 51.5,225.5C 51.5,215.5 51.5,205.5 51.5,195.5C 52.5,195.5 53.5,195.5 54.5,195.5 Z"/></g>
<g><path style="opacity:1" fill="#e7e7e7" d="M 3.5,231.5 C 18.5,231.5 33.5,231.5 48.5,231.5C 48.5,232.5 48.5,233.5 48.5,234.5C 33.5,234.5 18.5,234.5 3.5,234.5C 3.5,233.5 3.5,232.5 3.5,231.5 Z"/></g>
<g><path style="opacity:1" fill="#a7a7a7" d="M 54.5,192.5 C 55.5,192.5 56.5,192.5 57.5,192.5C 57.5,228.167 57.5,263.833 57.5,299.5C 56.5,299.5 55.5,299.5 54.5,299.5C 54.5,264.833 54.5,230.167 54.5,195.5C 54.5,194.5 54.5,193.5 54.5,192.5 Z"/></g>
<g><path style="opacity:1" fill="#bebebe" d="M 244.5,192.5 C 244.5,193.5 244.5,194.5 244.5,195.5C 244.5,230.167 244.5,264.833 244.5,299.5C 243.5,299.5 242.5,299.5 241.5,299.5C 241.5,263.833 241.5,228.167 241.5,192.5C 242.5,192.5 243.5,192.5 244.5,192.5 Z"/></g>
<g><path style="opacity:1" fill="#ececec" d="M 250.5,231.5 C 265.5,231.5 280.5,231.5 295.5,231.5C 295.5,232.5 295.5,233.5 295.5,234.5C 281.5,234.5 267.5,234.5 253.5,234.5C 253.5,256.167 253.5,277.833 253.5,299.5C 252.5,299.5 251.5,299.5 250.5,299.5C 250.5,276.833 250.5,254.167 250.5,231.5 Z"/></g>
<g><path style="opacity:1" fill="#6a6a6a" d="M 48.5,231.5 C 49.5,231.5 50.5,231.5 51.5,231.5C 51.5,254.167 51.5,276.833 51.5,299.5C 50.5,299.5 49.5,299.5 48.5,299.5C 48.5,277.833 48.5,256.167 48.5,234.5C 48.5,233.5 48.5,232.5 48.5,231.5 Z"/></g>
<g><path style="opacity:1" fill="#656565" d="M 250.5,231.5 C 250.5,254.167 250.5,276.833 250.5,299.5C 249.5,299.5 248.5,299.5 247.5,299.5C 247.5,276.833 247.5,254.167 247.5,231.5C 248.5,231.5 249.5,231.5 250.5,231.5 Z"/></g>
</svg>
