<?xml version="1.0" encoding="UTF-8"?>
<!DOCTYPE svg PUBLIC "-//W3C//DTD SVG 1.1//EN" "http://www.w3.org/Graphics/SVG/1.1/DTD/svg11.dtd">
<svg xmlns="http://www.w3.org/2000/svg" version="1.1" width="300px" height="300px" style="shape-rendering:geometricPrecision; text-rendering:geometricPrecision; image-rendering:optimizeQuality; fill-rule:evenodd; clip-rule:evenodd" xmlns:xlink="http://www.w3.org/1999/xlink">
<g><path style="opacity:0.976" fill="#fefefe" d="M -0.5,-0.5 C 99.5,-0.5 199.5,-0.5 299.5,-0.5C 299.5,99.5 299.5,199.5 299.5,299.5C 283.167,299.5 266.833,299.5 250.5,299.5C 250.5,277.833 250.5,256.167 250.5,234.5C 264.5,234.5 278.5,234.5 292.5,234.5C 292.5,233.5 292.5,232.5 292.5,231.5C 293.5,231.5 294.5,231.5 295.5,231.5C 295.5,230.5 295.5,229.5 295.5,228.5C 296.5,228.5 297.5,228.5 298.5,228.5C 298.5,198.833 298.5,169.167 298.5,139.5C 297.5,139.5 296.5,139.5 295.5,139.5C 295.5,138.5 295.5,137.5 295.5,136.5C 294.5,136.5 293.5,136.5 292.5,136.5C 292.5,136.167 292.5,135.833 292.5,135.5C 292.5,134.833 292.5,134.167 292.5,133.5C 262.671,132.502 232.671,132.169 202.5,132.5C 202.5,122.833 202.5,113.167 202.5,103.5C 209.5,103.5 216.5,103.5 223.5,103.5C 223.5,102.5 223.5,101.5 223.5,100.5C 224.5,100.5 225.5,100.5 226.5,100.5C 226.5,76.8333 226.5,53.1667 226.5,29.5C 225.5,29.5 224.5,29.5 223.5,29.5C 223.5,28.5 223.5,27.5 223.5,26.5C 174.002,25.335 124.335,25.1683 74.5,26C 73.0267,26.7096 72.3601,27.8762 72.5,29.5C 71.8485,30.0906 71.1818,30.7573 70.5,31.5C 69.5003,54.4903 69.1669,77.4903 69.5,100.5C 70.5,100.5 71.5,100.5 72.5,100.5C 73.5,100.5 74.5,100.5 75.5,100.5C 75.5,101.5 75.5,102.5 75.5,103.5C 82.1667,103.5 88.8333,103.5 95.5,103.5C 95.5,113.167 95.5,122.833 95.5,132.5C 64.6621,132.169 33.9955,132.502 3.5,133.5C 3.5,134.5 3.5,135.5 3.5,136.5C 2.5,136.5 1.5,136.5 0.5,136.5C 0.5,168.167 0.5,199.833 0.5,231.5C 1.5,231.5 2.5,231.5 3.5,231.5C 3.5,232.5 3.5,233.5 3.5,234.5C 17.5,234.5 31.5,234.5 45.5,234.5C 45.5,256.167 45.5,277.833 45.5,299.5C 30.1667,299.5 14.8333,299.5 -0.5,299.5C -0.5,199.5 -0.5,99.5 -0.5,-0.5 Z"/></g>
<g><path style="opacity:1" fill="#e9e9e9" d="M 223.5,26.5 C 174.167,26.5 124.833,26.5 75.5,26.5C 75.5,27.5 75.5,28.5 75.5,29.5C 74.5,29.5 73.5,29.5 72.5,29.5C 72.3601,27.8762 73.0267,26.7096 74.5,26C 124.335,25.1683 174.002,25.335 223.5,26.5 Z"/></g>
<g><path style="opacity:1" fill="#adadad" d="M 223.5,26.5 C 223.5,27.5 223.5,28.5 223.5,29.5C 174.167,29.5 124.833,29.5 75.5,29.5C 75.5,28.5 75.5,27.5 75.5,26.5C 124.833,26.5 174.167,26.5 223.5,26.5 Z"/></g>
<g><path style="opacity:1" fill="#595959" d="M 75.5,29.5 C 124.833,29.5 174.167,29.5 223.5,29.5C 223.5,30.5 223.5,31.5 223.5,32.5C 221.5,32.5 219.5,32.5 217.5,32.5C 217.5,33.5 217.5,34.5 217.5,35.5C 172.167,35.5 126.833,35.5 81.5,35.5C 81.5,34.1667 81.5,32.8333 81.5,31.5C 79.5,31.8333 77.5,32.1667 75.5,32.5C 75.5,31.5 75.5,30.5 75.5,29.5 Z"/></g>
<g><path style="opacity:1" fill="#949494" d="M 72.5,29.5 C 73.5,29.5 74.5,29.5 75.5,29.5C 75.5,30.5 75.5,31.5 75.5,32.5C 75.5,55.1667 75.5,77.8333 75.5,100.5C 74.5,100.5 73.5,100.5 72.5,100.5C 72.5,76.8333 72.5,53.1667 72.5,29.5 Z"/></g>
<g><path style="opacity:1" fill="#c9c9c9" d="M 81.5,35.5 C 126.833,35.5 172.167,35.5 217.5,35.5C 217.5,36.5 217.5,37.5 217.5,38.5C 216.5,38.5 215.5,38.5 214.5,38.5C 170.167,38.5 125.833,38.5 81.5,38.5C 81.5,37.5 81.5,36.5 81.5,35.5 Z"/></g>
<g><path style="opacity:1" fill="#2f2f2f" d="M 81.5,35.5 C 80.5,35.5 79.5,35.5 78.5,35.5C 78.5,55.1667 78.5,74.8333 78.5,94.5C 79.5,94.5 80.5,94.5 81.5,94.5C 81.5,95.5 81.5,96.5 81.5,97.5C 86.5,97.5 91.5,97.5 96.5,97.5C 96.5,96.5 96.5,95.5 96.5,94.5C 97.1667,94.5 97.8333,94.5 98.5,94.5C 98.8333,94.5 99.1667,94.5 99.5,94.5C 100.5,94.5 101.5,94.5 102.5,94.5C 102.5,97.5 102.5,100.5 102.5,103.5C 101.5,103.5 100.5,103.5 99.5,103.5C 99.5,102.5 99.5,101.5 99.5,100.5C 98.5,100.5 97.5,100.5 96.5,100.5C 89.5,100.5 82.5,100.5 75.5,100.5C 75.5,77.8333 75.5,55.1667 75.5,32.5C 77.5,32.1667 79.5,31.8333 81.5,31.5C 81.5,32.8333 81.5,34.1667 81.5,35.5 Z"/></g>
<g><path style="opacity:1" fill="#fdfdfd" d="M 81.5,38.5 C 125.833,38.5 170.167,38.5 214.5,38.5C 214.5,57.1667 214.5,75.8333 214.5,94.5C 210.5,94.5 206.5,94.5 202.5,94.5C 203.144,83.1158 202.477,72.1158 200.5,61.5C 200.5,58.5 200.5,55.5 200.5,52.5C 200.5,51.5 200.5,50.5 200.5,49.5C 166.5,49.5 132.5,49.5 98.5,49.5C 98.5,50.5 98.5,51.5 98.5,52.5C 97.5,52.5 96.5,52.5 95.5,52.5C 95.5,66.5 95.5,80.5 95.5,94.5C 90.8333,94.5 86.1667,94.5 81.5,94.5C 81.5,75.8333 81.5,57.1667 81.5,38.5 Z"/></g>
<g><path style="opacity:1" fill="#b5b5b5" d="M 223.5,29.5 C 224.5,29.5 225.5,29.5 226.5,29.5C 226.5,53.1667 226.5,76.8333 226.5,100.5C 225.5,100.5 224.5,100.5 223.5,100.5C 223.5,77.8333 223.5,55.1667 223.5,32.5C 223.5,31.5 223.5,30.5 223.5,29.5 Z"/></g>
<g><path style="opacity:1" fill="#767676" d="M 81.5,35.5 C 81.5,36.5 81.5,37.5 81.5,38.5C 81.5,57.1667 81.5,75.8333 81.5,94.5C 80.5,94.5 79.5,94.5 78.5,94.5C 78.5,74.8333 78.5,55.1667 78.5,35.5C 79.5,35.5 80.5,35.5 81.5,35.5 Z"/></g>
<g><path style="opacity:1" fill="#e0e0e0" d="M 214.5,38.5 C 215.5,38.5 216.5,38.5 217.5,38.5C 217.5,57.1667 217.5,75.8333 217.5,94.5C 216.5,94.5 215.5,94.5 214.5,94.5C 214.5,75.8333 214.5,57.1667 214.5,38.5 Z"/></g>
<g><path style="opacity:1" fill="#757575" d="M 217.5,35.5 C 218.5,35.5 219.5,35.5 220.5,35.5C 220.5,55.1667 220.5,74.8333 220.5,94.5C 219.5,94.5 218.5,94.5 217.5,94.5C 217.5,75.8333 217.5,57.1667 217.5,38.5C 217.5,37.5 217.5,36.5 217.5,35.5 Z"/></g>
<g><path style="opacity:1" fill="#ebebeb" d="M 72.5,29.5 C 72.5,53.1667 72.5,76.8333 72.5,100.5C 71.5,100.5 70.5,100.5 69.5,100.5C 69.1669,77.4903 69.5003,54.4903 70.5,31.5C 71.1818,30.7573 71.8485,30.0906 72.5,29.5 Z"/></g>
<g><path style="opacity:1" fill="#dedede" d="M 200.5,52.5 C 166.427,52.174 132.427,52.5073 98.5,53.5C 96.5181,66.7924 95.8514,80.4591 96.5,94.5C 96.1667,94.5 95.8333,94.5 95.5,94.5C 95.5,80.5 95.5,66.5 95.5,52.5C 96.5,52.5 97.5,52.5 98.5,52.5C 98.5,51.5 98.5,50.5 98.5,49.5C 132.5,49.5 166.5,49.5 200.5,49.5C 200.5,50.5 200.5,51.5 200.5,52.5 Z"/></g>
<g><path style="opacity:1" fill="#8e8e8e" d="M 200.5,52.5 C 200.5,55.5 200.5,58.5 200.5,61.5C 200.5,72.5 200.5,83.5 200.5,94.5C 200.167,94.5 199.833,94.5 199.5,94.5C 199.5,93.5 199.5,92.5 199.5,91.5C 199.5,78.8333 199.5,66.1667 199.5,53.5C 166.05,52.877 132.716,53.5437 99.5,55.5C 99.5,68.5 99.5,81.5 99.5,94.5C 99.1667,94.5 98.8333,94.5 98.5,94.5C 98.5,80.8333 98.5,67.1667 98.5,53.5C 132.427,52.5073 166.427,52.174 200.5,52.5 Z"/></g>
<g><path style="opacity:1" fill="#494949" d="M 199.5,91.5 C 197.521,79.8799 196.854,67.8799 197.5,55.5C 194.607,55.0311 192.607,56.0311 191.5,58.5C 163.328,58.1687 135.328,58.502 107.5,59.5C 106.167,59.5 105.5,60.1667 105.5,61.5C 104.833,87.3365 104.167,113.336 103.5,139.5C 102.818,140.243 102.151,140.909 101.5,141.5C 70.8333,141.5 40.1667,141.5 9.5,141.5C 9.5,142.5 9.5,143.5 9.5,144.5C 9.5,144.833 9.5,145.167 9.5,145.5C 7.50917,170.812 6.8425,196.478 7.5,222.5C 6.83333,195.997 6.16667,169.33 5.5,142.5C 4.50018,171.159 4.16685,199.826 4.5,228.5C 4.16667,228.5 3.83333,228.5 3.5,228.5C 3.5,198.833 3.5,169.167 3.5,139.5C 3.83333,139.5 4.16667,139.5 4.5,139.5C 35.1667,139.5 65.8333,139.5 96.5,139.5C 96.5,138.5 96.5,137.5 96.5,136.5C 97.5,136.5 98.5,136.5 99.5,136.5C 99.5,125.5 99.5,114.5 99.5,103.5C 100.5,103.5 101.5,103.5 102.5,103.5C 102.5,100.5 102.5,97.5 102.5,94.5C 101.5,94.5 100.5,94.5 99.5,94.5C 99.5,81.5 99.5,68.5 99.5,55.5C 132.716,53.5437 166.05,52.877 199.5,53.5C 199.5,66.1667 199.5,78.8333 199.5,91.5 Z"/></g>
<g><path style="opacity:1" fill="#acacac" d="M 98.5,53.5 C 98.5,67.1667 98.5,80.8333 98.5,94.5C 97.8333,94.5 97.1667,94.5 96.5,94.5C 95.8514,80.4591 96.5181,66.7924 98.5,53.5 Z"/></g>
<g><path style="opacity:1" fill="#bebebe" d="M 107.5,59.5 C 136.167,59.5 164.833,59.5 193.5,59.5C 193.5,61.1667 193.5,62.8333 193.5,64.5C 192.833,64.5 192.167,64.5 191.5,64.5C 191.5,63.5 191.5,62.5 191.5,61.5C 189.5,61.5 187.5,61.5 185.5,61.5C 185.5,62.5 185.5,63.5 185.5,64.5C 184.596,63.791 184.263,62.791 184.5,61.5C 176.833,61.5 169.167,61.5 161.5,61.5C 152.5,61.5 143.5,61.5 134.5,61.5C 128.491,61.3338 122.491,61.5005 116.5,62C 115.244,62.4169 114.577,63.2502 114.5,64.5C 113.596,65.209 113.263,66.209 113.5,67.5C 113.5,68.5 113.5,69.5 113.5,70.5C 111.821,70.7148 110.821,70.0481 110.5,68.5C 110.5,66.1667 110.5,63.8333 110.5,61.5C 109.5,61.5 108.5,61.5 107.5,61.5C 106.833,61.5 106.167,61.5 105.5,61.5C 105.5,60.1667 106.167,59.5 107.5,59.5 Z"/></g>
<g><path style="opacity:1" fill="#dbdbdb" d="M 134.5,61.5 C 143.5,61.5 152.5,61.5 161.5,61.5C 161.5,62.5 161.5,63.5 161.5,64.5C 161.5,65.5 161.5,66.5 161.5,67.5C 160.549,66.0813 160.216,64.4147 160.5,62.5C 152.833,62.5 145.167,62.5 137.5,62.5C 137.5,65.1667 137.5,67.8333 137.5,70.5C 136.5,70.5 135.5,70.5 134.5,70.5C 134.5,69.8333 134.5,69.1667 134.5,68.5C 134.5,67.1667 134.5,65.8333 134.5,64.5C 134.5,63.5 134.5,62.5 134.5,61.5 Z"/></g>
<g><path style="opacity:1" fill="#8a8a8a" d="M 161.5,61.5 C 169.167,61.5 176.833,61.5 184.5,61.5C 184.263,62.791 184.596,63.791 185.5,64.5C 185.5,65.8333 185.5,67.1667 185.5,68.5C 177.903,70.4668 169.903,71.1335 161.5,70.5C 161.5,69.5 161.5,68.5 161.5,67.5C 162.5,67.5 163.5,67.5 164.5,67.5C 170.926,68.12 176.926,67.4533 182.5,65.5C 175.687,64.5088 168.687,64.1755 161.5,64.5C 161.5,63.5 161.5,62.5 161.5,61.5 Z"/></g>
<g><path style="opacity:1" fill="#8a8a8a" d="M 134.5,61.5 C 134.5,62.5 134.5,63.5 134.5,64.5C 127.833,64.5 121.167,64.5 114.5,64.5C 114.577,63.2502 115.244,62.4169 116.5,62C 122.491,61.5005 128.491,61.3338 134.5,61.5 Z"/></g>
<g><path style="opacity:1" fill="#505050" d="M 114.5,64.5 C 121.167,64.5 127.833,64.5 134.5,64.5C 134.5,65.8333 134.5,67.1667 134.5,68.5C 127.412,68.7955 120.412,68.4621 113.5,67.5C 113.263,66.209 113.596,65.209 114.5,64.5 Z"/></g>
<g><path style="opacity:1" fill="#fefefe" d="M 161.5,67.5 C 161.5,68.5 161.5,69.5 161.5,70.5C 169.903,71.1335 177.903,70.4668 185.5,68.5C 186.5,68.5 187.5,68.5 188.5,68.5C 188.201,66.396 188.534,64.396 189.5,62.5C 190.5,89.1583 190.833,115.825 190.5,142.5C 191.5,142.5 192.5,142.5 193.5,142.5C 193.5,143.5 193.5,144.5 193.5,145.5C 224.167,145.5 254.833,145.5 285.5,145.5C 285.5,170.833 285.5,196.167 285.5,221.5C 273.69,222.032 262.023,221.366 250.5,219.5C 250.5,211.5 250.5,203.5 250.5,195.5C 250.5,194.5 250.5,193.5 250.5,192.5C 247.5,192.5 244.5,192.5 241.5,192.5C 240.5,192.5 239.5,192.5 238.5,192.5C 238.5,228.167 238.5,263.833 238.5,299.5C 178.167,299.5 117.833,299.5 57.5,299.5C 57.5,263.833 57.5,228.167 57.5,192.5C 56.5,192.5 55.5,192.5 54.5,192.5C 52.5,192.5 50.5,192.5 48.5,192.5C 47.5,192.5 46.5,192.5 45.5,192.5C 45.5,202.167 45.5,211.833 45.5,221.5C 34.5,221.5 23.5,221.5 12.5,221.5C 12.5,197.167 12.5,172.833 12.5,148.5C 39.8754,148.406 67.2088,148.406 94.5,148.5C 98.9185,147.638 103.252,146.471 107.5,145C 107.829,119.219 108.829,93.719 110.5,68.5C 110.821,70.0481 111.821,70.7148 113.5,70.5C 120.5,70.5 127.5,70.5 134.5,70.5C 135.5,70.5 136.5,70.5 137.5,70.5C 137.5,67.8333 137.5,65.1667 137.5,62.5C 145.167,62.5 152.833,62.5 160.5,62.5C 160.216,64.4147 160.549,66.0813 161.5,67.5 Z"/></g>
<g><path style="opacity:1" fill="#4a4a4a" d="M 161.5,64.5 C 168.687,64.1755 175.687,64.5088 182.5,65.5C 176.074,64.88 170.074,65.5467 164.5,67.5C 163.5,67.5 162.5,67.5 161.5,67.5C 161.5,66.5 161.5,65.5 161.5,64.5 Z"/></g>
<g><path style="opacity:1" fill="#eaeaea" d="M 191.5,64.5 C 190.843,89.8557 191.509,114.856 193.5,139.5C 193.5,140.5 193.5,141.5 193.5,142.5C 192.5,142.5 191.5,142.5 190.5,142.5C 190.833,115.825 190.5,89.1583 189.5,62.5C 188.534,64.396 188.201,66.396 188.5,68.5C 187.5,68.5 186.5,68.5 185.5,68.5C 185.5,67.1667 185.5,65.8333 185.5,64.5C 185.5,63.5 185.5,62.5 185.5,61.5C 187.5,61.5 189.5,61.5 191.5,61.5C 191.5,62.5 191.5,63.5 191.5,64.5 Z"/></g>
<g><path style="opacity:1" fill="#1d1d1d" d="M 116.5,65.5 C 121.544,65.1725 126.544,65.5059 131.5,66.5C 129,66.8333 126.5,67.1667 124,67.5C 121.071,67.4752 118.571,66.8086 116.5,65.5 Z"/></g>
<g><path style="opacity:1" fill="#1e1e1e" d="M 182.5,65.5 C 176.926,67.4533 170.926,68.12 164.5,67.5C 170.074,65.5467 176.074,64.88 182.5,65.5 Z"/></g>
<g><path style="opacity:1" fill="#898989" d="M 113.5,67.5 C 120.412,68.4621 127.412,68.7955 134.5,68.5C 134.5,69.1667 134.5,69.8333 134.5,70.5C 127.5,70.5 120.5,70.5 113.5,70.5C 113.5,69.5 113.5,68.5 113.5,67.5 Z"/></g>
<g><path style="opacity:1" fill="#afafaf" d="M 140.5,82.5 C 139.5,82.5 138.5,82.5 137.5,82.5C 136.5,82.5 135.5,82.5 134.5,82.5C 132.429,81.1914 129.929,80.5248 127,80.5C 124.071,80.5248 121.571,81.1914 119.5,82.5C 118.5,82.5 117.5,82.5 116.5,82.5C 116.5,81.5 116.5,80.5 116.5,79.5C 124.5,79.5 132.5,79.5 140.5,79.5C 140.5,80.5 140.5,81.5 140.5,82.5 Z"/></g>
<g><path style="opacity:1" fill="#8b8b8b" d="M 134.5,82.5 C 129.5,82.5 124.5,82.5 119.5,82.5C 121.571,81.1914 124.071,80.5248 127,80.5C 129.929,80.5248 132.429,81.1914 134.5,82.5 Z"/></g>
<g><path style="opacity:1" fill="#939393" d="M 179.5,82.5 C 172.5,82.5 165.5,82.5 158.5,82.5C 158.5,81.5 158.5,80.5 158.5,79.5C 165.5,79.5 172.5,79.5 179.5,79.5C 179.5,80.5 179.5,81.5 179.5,82.5 Z"/></g>
<g><path style="opacity:1" fill="#c6c6c6" d="M 158.5,82.5 C 158.5,87.5 158.5,92.5 158.5,97.5C 157.5,97.5 156.5,97.5 155.5,97.5C 155.5,92.5 155.5,87.5 155.5,82.5C 156.5,82.5 157.5,82.5 158.5,82.5 Z"/></g>
<g><path style="opacity:1" fill="#464646" d="M 116.5,82.5 C 117.5,82.5 118.5,82.5 119.5,82.5C 119.5,84.5 119.5,86.5 119.5,88.5C 124.5,88.5 129.5,88.5 134.5,88.5C 134.5,89.5 134.5,90.5 134.5,91.5C 129.5,91.5 124.5,91.5 119.5,91.5C 119.5,93.5 119.5,95.5 119.5,97.5C 118.5,97.5 117.5,97.5 116.5,97.5C 116.5,92.5 116.5,87.5 116.5,82.5 Z"/></g>
<g><path style="opacity:1" fill="#838383" d="M 137.5,82.5 C 138.5,82.5 139.5,82.5 140.5,82.5C 140.5,87.5 140.5,92.5 140.5,97.5C 139.5,97.5 138.5,97.5 137.5,97.5C 137.5,92.5 137.5,87.5 137.5,82.5 Z"/></g>
<g><path style="opacity:1" fill="#969696" d="M 181.5,82.5 C 182.487,87.3054 182.821,92.3054 182.5,97.5C 181.5,97.5 180.5,97.5 179.5,97.5C 179.5,96.5 179.5,95.5 179.5,94.5C 181.423,90.9707 182.089,86.9707 181.5,82.5 Z"/></g>
<g><path style="opacity:1" fill="#a4a4a4" d="M 116.5,82.5 C 116.5,87.5 116.5,92.5 116.5,97.5C 115.5,97.5 114.5,97.5 113.5,97.5C 113.5,92.5 113.5,87.5 113.5,82.5C 114.5,82.5 115.5,82.5 116.5,82.5 Z"/></g>
<g><path style="opacity:1" fill="#626262" d="M 179.5,82.5 C 180.167,82.5 180.833,82.5 181.5,82.5C 182.089,86.9707 181.423,90.9707 179.5,94.5C 179.5,90.5 179.5,86.5 179.5,82.5 Z"/></g>
<g><path style="opacity:1" fill="#252525" d="M 119.5,82.5 C 124.5,82.5 129.5,82.5 134.5,82.5C 135.5,82.5 136.5,82.5 137.5,82.5C 137.5,87.5 137.5,92.5 137.5,97.5C 131.5,97.5 125.5,97.5 119.5,97.5C 119.5,95.5 119.5,93.5 119.5,91.5C 124.5,91.5 129.5,91.5 134.5,91.5C 134.5,90.5 134.5,89.5 134.5,88.5C 129.5,88.5 124.5,88.5 119.5,88.5C 119.5,86.5 119.5,84.5 119.5,82.5 Z"/></g>
<g><path style="opacity:1" fill="#747474" d="M 81.5,94.5 C 86.1667,94.5 90.8333,94.5 95.5,94.5C 95.8333,94.5 96.1667,94.5 96.5,94.5C 96.5,95.5 96.5,96.5 96.5,97.5C 91.5,97.5 86.5,97.5 81.5,97.5C 81.5,96.5 81.5,95.5 81.5,94.5 Z"/></g>
<g><path style="opacity:1" fill="#2a2a2a" d="M 158.5,82.5 C 165.5,82.5 172.5,82.5 179.5,82.5C 179.5,86.5 179.5,90.5 179.5,94.5C 179.5,95.5 179.5,96.5 179.5,97.5C 172.5,97.5 165.5,97.5 158.5,97.5C 158.5,92.5 158.5,87.5 158.5,82.5 Z"/></g>
<g><path style="opacity:1" fill="#626262" d="M 176.5,88.5 C 176.5,89.5 176.5,90.5 176.5,91.5C 172.5,91.5 168.5,91.5 164.5,91.5C 164.5,90.5 164.5,89.5 164.5,88.5C 168.5,88.5 172.5,88.5 176.5,88.5 Z"/></g>
<g><path style="opacity:1" fill="#111111" d="M 176.5,91.5 C 176.5,90.5 176.5,89.5 176.5,88.5C 176.5,87.5 176.5,86.5 176.5,85.5C 171.456,85.8275 166.456,85.4941 161.5,84.5C 167.128,83.5046 172.794,83.1712 178.5,83.5C 178.823,87.226 178.489,90.8927 177.5,94.5C 176.614,93.675 176.281,92.675 176.5,91.5 Z"/></g>
<g><path style="opacity:1" fill="#c9c9c9" d="M 116.5,97.5 C 117.5,97.5 118.5,97.5 119.5,97.5C 125.5,97.5 131.5,97.5 137.5,97.5C 137.5,98.5 137.5,99.5 137.5,100.5C 130.5,100.5 123.5,100.5 116.5,100.5C 116.5,99.5 116.5,98.5 116.5,97.5 Z"/></g>
<g><path style="opacity:1" fill="#c7c7c7" d="M 158.5,97.5 C 165.5,97.5 172.5,97.5 179.5,97.5C 179.5,98.5 179.5,99.5 179.5,100.5C 172.5,100.5 165.5,100.5 158.5,100.5C 158.5,99.5 158.5,98.5 158.5,97.5 Z"/></g>
<g><path style="opacity:1" fill="#a1a1a1" d="M 75.5,100.5 C 82.5,100.5 89.5,100.5 96.5,100.5C 96.5,101.5 96.5,102.5 96.5,103.5C 96.1667,103.5 95.8333,103.5 95.5,103.5C 88.8333,103.5 82.1667,103.5 75.5,103.5C 75.5,102.5 75.5,101.5 75.5,100.5 Z"/></g>
<g><path style="opacity:1" fill="#d9d9d9" d="M 155.5,103.5 C 154.5,103.5 153.5,103.5 152.5,103.5C 148.5,103.5 144.5,103.5 140.5,103.5C 140.5,102.5 140.5,101.5 140.5,100.5C 145.5,100.5 150.5,100.5 155.5,100.5C 155.5,101.5 155.5,102.5 155.5,103.5 Z"/></g>
<g><path style="opacity:1" fill="#a4a4a4" d="M 223.5,100.5 C 223.5,101.5 223.5,102.5 223.5,103.5C 216.5,103.5 209.5,103.5 202.5,103.5C 200.526,113.111 199.859,123.111 200.5,133.5C 230.815,135.492 261.482,136.159 292.5,135.5C 292.5,135.833 292.5,136.167 292.5,136.5C 262.833,136.5 233.167,136.5 203.5,136.5C 202.5,136.5 201.5,136.5 200.5,136.5C 199.596,135.791 199.263,134.791 199.5,133.5C 199.5,123.5 199.5,113.5 199.5,103.5C 199.5,102.5 199.5,101.5 199.5,100.5C 207.5,100.5 215.5,100.5 223.5,100.5 Z"/></g>
<g><path style="opacity:1" fill="#919191" d="M 105.5,61.5 C 105.5,87.5 105.5,113.5 105.5,139.5C 105.5,140.5 105.5,141.5 105.5,142.5C 104.167,142.5 102.833,142.5 101.5,142.5C 101.5,142.167 101.5,141.833 101.5,141.5C 102.151,140.909 102.818,140.243 103.5,139.5C 104.167,113.336 104.833,87.3365 105.5,61.5 Z"/></g>
<g><path style="opacity:1" fill="#d6d6d6" d="M 140.5,103.5 C 140.5,106.5 140.5,109.5 140.5,112.5C 139.5,112.5 138.5,112.5 137.5,112.5C 137.5,109.5 137.5,106.5 137.5,103.5C 138.5,103.5 139.5,103.5 140.5,103.5 Z"/></g>
<g><path style="opacity:1" fill="#cfcfcf" d="M 191.5,64.5 C 192.167,64.5 192.833,64.5 193.5,64.5C 193.5,89.5 193.5,114.5 193.5,139.5C 191.509,114.856 190.843,89.8557 191.5,64.5 Z"/></g>
<g><path style="opacity:1" fill="#aaaaaa" d="M 96.5,103.5 C 97.8275,108.119 98.4942,113.119 98.5,118.5C 98.4942,123.881 97.8275,128.881 96.5,133.5C 96.5,123.5 96.5,113.5 96.5,103.5 Z"/></g>
<g><path style="opacity:1" fill="#282828" d="M 152.5,103.5 C 153.5,103.5 154.5,103.5 155.5,103.5C 155.5,105.5 155.5,107.5 155.5,109.5C 151.682,111.013 147.682,111.68 143.5,111.5C 143.5,109.833 143.5,108.167 143.5,106.5C 146.5,106.5 149.5,106.5 152.5,106.5C 152.5,105.5 152.5,104.5 152.5,103.5 Z"/></g>
<g><path style="opacity:1" fill="#4d4d4d" d="M 197.5,103.5 C 198.167,103.5 198.833,103.5 199.5,103.5C 199.5,113.5 199.5,123.5 199.5,133.5C 197.526,123.889 196.859,113.889 197.5,103.5 Z"/></g>
<g><path style="opacity:1" fill="#717171" d="M 96.5,100.5 C 97.5,100.5 98.5,100.5 99.5,100.5C 99.5,101.5 99.5,102.5 99.5,103.5C 99.5,114.5 99.5,125.5 99.5,136.5C 98.5,136.5 97.5,136.5 96.5,136.5C 96.5,135.5 96.5,134.5 96.5,133.5C 97.8275,128.881 98.4942,123.881 98.5,118.5C 98.4942,113.119 97.8275,108.119 96.5,103.5C 96.5,102.5 96.5,101.5 96.5,100.5 Z"/></g>
<g><path style="opacity:1" fill="#a7a7a7" d="M 155.5,103.5 C 156.5,103.5 157.5,103.5 158.5,103.5C 158.5,106.5 158.5,109.5 158.5,112.5C 157.5,112.5 156.5,112.5 155.5,112.5C 155.5,111.5 155.5,110.5 155.5,109.5C 155.5,107.5 155.5,105.5 155.5,103.5 Z"/></g>
<g><path style="opacity:1" fill="#5f5f5f" d="M 140.5,103.5 C 144.5,103.5 148.5,103.5 152.5,103.5C 152.5,104.5 152.5,105.5 152.5,106.5C 149.5,106.5 146.5,106.5 143.5,106.5C 143.5,108.167 143.5,109.833 143.5,111.5C 147.682,111.68 151.682,111.013 155.5,109.5C 155.5,110.5 155.5,111.5 155.5,112.5C 150.5,112.5 145.5,112.5 140.5,112.5C 140.5,109.5 140.5,106.5 140.5,103.5 Z"/></g>
<g><path style="opacity:1" fill="#a5a5a5" d="M 131.5,115.5 C 129.5,115.5 127.5,115.5 125.5,115.5C 125.5,117.5 125.5,119.5 125.5,121.5C 124.5,121.5 123.5,121.5 122.5,121.5C 122.5,118.5 122.5,115.5 122.5,112.5C 125.5,112.5 128.5,112.5 131.5,112.5C 131.5,113.5 131.5,114.5 131.5,115.5 Z"/></g>
<g><path style="opacity:1" fill="#7a7a7a" d="M 107.5,59.5 C 135.328,58.502 163.328,58.1687 191.5,58.5C 192.5,58.5 193.5,58.5 194.5,58.5C 194.5,84.1667 194.5,109.833 194.5,135.5C 194.5,137.5 194.5,139.5 194.5,141.5C 225.167,141.5 255.833,141.5 286.5,141.5C 286.5,141.833 286.5,142.167 286.5,142.5C 255.833,142.5 225.167,142.5 194.5,142.5C 194.167,142.5 193.833,142.5 193.5,142.5C 193.5,141.5 193.5,140.5 193.5,139.5C 193.5,114.5 193.5,89.5 193.5,64.5C 193.5,62.8333 193.5,61.1667 193.5,59.5C 164.833,59.5 136.167,59.5 107.5,59.5 Z"/></g>
<g><path style="opacity:1" fill="#989898" d="M 173.5,112.5 C 173.5,113.5 173.5,114.5 173.5,115.5C 171.5,115.5 169.5,115.5 167.5,115.5C 167.5,114.5 167.5,113.5 167.5,112.5C 169.5,112.5 171.5,112.5 173.5,112.5 Z"/></g>
<g><path style="opacity:1" fill="#cacaca" d="M 173.5,112.5 C 174.5,112.5 175.5,112.5 176.5,112.5C 176.5,115.5 176.5,118.5 176.5,121.5C 175.5,121.5 174.5,121.5 173.5,121.5C 173.5,120.5 173.5,119.5 173.5,118.5C 173.5,117.5 173.5,116.5 173.5,115.5C 173.5,114.5 173.5,113.5 173.5,112.5 Z"/></g>
<g><path style="opacity:1" fill="#262626" d="M 223.5,32.5 C 223.5,55.1667 223.5,77.8333 223.5,100.5C 215.5,100.5 207.5,100.5 199.5,100.5C 199.5,101.5 199.5,102.5 199.5,103.5C 198.833,103.5 198.167,103.5 197.5,103.5C 197.158,114.372 196.158,125.039 194.5,135.5C 194.5,109.833 194.5,84.1667 194.5,58.5C 193.5,58.5 192.5,58.5 191.5,58.5C 192.607,56.0311 194.607,55.0311 197.5,55.5C 196.854,67.8799 197.521,79.8799 199.5,91.5C 199.5,92.5 199.5,93.5 199.5,94.5C 199.5,95.5 199.5,96.5 199.5,97.5C 205.5,97.5 211.5,97.5 217.5,97.5C 217.5,96.5 217.5,95.5 217.5,94.5C 218.5,94.5 219.5,94.5 220.5,94.5C 220.5,74.8333 220.5,55.1667 220.5,35.5C 219.5,35.5 218.5,35.5 217.5,35.5C 217.5,34.5 217.5,33.5 217.5,32.5C 219.5,32.5 221.5,32.5 223.5,32.5 Z"/></g>
<g><path style="opacity:1" fill="#6f6f6f" d="M 199.5,94.5 C 199.833,94.5 200.167,94.5 200.5,94.5C 201.167,94.5 201.833,94.5 202.5,94.5C 206.5,94.5 210.5,94.5 214.5,94.5C 215.5,94.5 216.5,94.5 217.5,94.5C 217.5,95.5 217.5,96.5 217.5,97.5C 211.5,97.5 205.5,97.5 199.5,97.5C 199.5,96.5 199.5,95.5 199.5,94.5 Z"/></g>
<g><path style="opacity:1" fill="#e3e3e3" d="M 200.5,61.5 C 202.477,72.1158 203.144,83.1158 202.5,94.5C 201.833,94.5 201.167,94.5 200.5,94.5C 200.5,83.5 200.5,72.5 200.5,61.5 Z"/></g>
<g><path style="opacity:1" fill="#d3d3d3" d="M 105.5,61.5 C 106.167,61.5 106.833,61.5 107.5,61.5C 108.158,87.8548 107.491,113.855 105.5,139.5C 105.5,113.5 105.5,87.5 105.5,61.5 Z"/></g>
<g><path style="opacity:1" fill="#878787" d="M 173.5,118.5 C 173.5,119.5 173.5,120.5 173.5,121.5C 172.5,121.5 171.5,121.5 170.5,121.5C 170.5,120.5 170.5,119.5 170.5,118.5C 171.5,118.5 172.5,118.5 173.5,118.5 Z"/></g>
<g><path style="opacity:1" fill="#909090" d="M 170.5,121.5 C 170.5,122.5 170.5,123.5 170.5,124.5C 169.5,124.5 168.5,124.5 167.5,124.5C 167.5,123.5 167.5,122.5 167.5,121.5C 168.5,121.5 169.5,121.5 170.5,121.5 Z"/></g>
<g><path style="opacity:1" fill="#dcdcdc" d="M 125.5,121.5 C 126.5,121.5 127.5,121.5 128.5,121.5C 128.5,122.5 128.5,123.5 128.5,124.5C 129.5,124.5 130.5,124.5 131.5,124.5C 131.5,125.5 131.5,126.5 131.5,127.5C 129.5,127.5 127.5,127.5 125.5,127.5C 125.5,125.5 125.5,123.5 125.5,121.5 Z"/></g>
<g><path style="opacity:1" fill="#494949" d="M 131.5,115.5 C 131.5,116.5 131.5,117.5 131.5,118.5C 132.5,118.5 133.5,118.5 134.5,118.5C 134.5,119.5 134.5,120.5 134.5,121.5C 136.5,121.5 138.5,121.5 140.5,121.5C 140.5,122.5 140.5,123.5 140.5,124.5C 146.5,124.5 152.5,124.5 158.5,124.5C 158.5,123.5 158.5,122.5 158.5,121.5C 159.5,121.5 160.5,121.5 161.5,121.5C 162.5,121.5 163.5,121.5 164.5,121.5C 164.5,120.5 164.5,119.5 164.5,118.5C 165.5,118.5 166.5,118.5 167.5,118.5C 167.5,117.5 167.5,116.5 167.5,115.5C 169.5,115.5 171.5,115.5 173.5,115.5C 173.5,116.5 173.5,117.5 173.5,118.5C 172.5,118.5 171.5,118.5 170.5,118.5C 170.5,119.5 170.5,120.5 170.5,121.5C 169.5,121.5 168.5,121.5 167.5,121.5C 167.5,122.5 167.5,123.5 167.5,124.5C 166.5,124.5 165.5,124.5 164.5,124.5C 164.5,125.5 164.5,126.5 164.5,127.5C 163.5,127.5 162.5,127.5 161.5,127.5C 157.524,128.154 153.524,128.821 149.5,129.5C 143.578,127.651 137.578,125.984 131.5,124.5C 130.5,124.5 129.5,124.5 128.5,124.5C 128.5,123.5 128.5,122.5 128.5,121.5C 127.5,121.5 126.5,121.5 125.5,121.5C 125.5,119.5 125.5,117.5 125.5,115.5C 127.5,115.5 129.5,115.5 131.5,115.5 Z"/></g>
<g><path style="opacity:1" fill="#979797" d="M 140.5,121.5 C 142.897,122.368 145.397,123.035 148,123.5C 151.461,122.51 154.961,121.843 158.5,121.5C 158.5,122.5 158.5,123.5 158.5,124.5C 152.5,124.5 146.5,124.5 140.5,124.5C 140.5,123.5 140.5,122.5 140.5,121.5 Z"/></g>
<g><path style="opacity:1" fill="#d6d6d6" d="M 131.5,115.5 C 137.905,117.467 144.405,119.134 151,120.5C 154.629,120.219 158.129,119.553 161.5,118.5C 161.5,119.5 161.5,120.5 161.5,121.5C 160.5,121.5 159.5,121.5 158.5,121.5C 154.961,121.843 151.461,122.51 148,123.5C 145.397,123.035 142.897,122.368 140.5,121.5C 138.5,121.5 136.5,121.5 134.5,121.5C 134.5,120.5 134.5,119.5 134.5,118.5C 133.5,118.5 132.5,118.5 131.5,118.5C 131.5,117.5 131.5,116.5 131.5,115.5 Z"/></g>
<g><path style="opacity:1" fill="#838383" d="M 161.5,118.5 C 162.5,118.5 163.5,118.5 164.5,118.5C 164.5,119.5 164.5,120.5 164.5,121.5C 163.5,121.5 162.5,121.5 161.5,121.5C 161.5,120.5 161.5,119.5 161.5,118.5 Z"/></g>
<g><path style="opacity:1" fill="#9b9b9b" d="M 167.5,115.5 C 167.5,116.5 167.5,117.5 167.5,118.5C 166.5,118.5 165.5,118.5 164.5,118.5C 164.5,117.5 164.5,116.5 164.5,115.5C 165.5,115.5 166.5,115.5 167.5,115.5 Z"/></g>
<g><path style="opacity:1" fill="#a8a8a8" d="M 134.5,127.5 C 136.5,127.5 138.5,127.5 140.5,127.5C 140.5,128.5 140.5,129.5 140.5,130.5C 138.5,130.5 136.5,130.5 134.5,130.5C 134.5,129.5 134.5,128.5 134.5,127.5 Z"/></g>
<g><path style="opacity:1" fill="#7a7a7a" d="M 131.5,124.5 C 137.578,125.984 143.578,127.651 149.5,129.5C 153.524,128.821 157.524,128.154 161.5,127.5C 161.5,128.5 161.5,129.5 161.5,130.5C 154.5,130.5 147.5,130.5 140.5,130.5C 140.5,129.5 140.5,128.5 140.5,127.5C 138.5,127.5 136.5,127.5 134.5,127.5C 133.5,127.5 132.5,127.5 131.5,127.5C 131.5,126.5 131.5,125.5 131.5,124.5 Z"/></g>
<g><path style="opacity:1" fill="#eaeaea" d="M 95.5,103.5 C 95.8333,103.5 96.1667,103.5 96.5,103.5C 96.5,113.5 96.5,123.5 96.5,133.5C 96.1667,133.5 95.8333,133.5 95.5,133.5C 64.8333,133.5 34.1667,133.5 3.5,133.5C 33.9955,132.502 64.6621,132.169 95.5,132.5C 95.5,122.833 95.5,113.167 95.5,103.5 Z"/></g>
<g><path style="opacity:1" fill="#ececec" d="M 202.5,103.5 C 202.5,113.167 202.5,122.833 202.5,132.5C 232.671,132.169 262.671,132.502 292.5,133.5C 261.833,133.5 231.167,133.5 200.5,133.5C 199.859,123.111 200.526,113.111 202.5,103.5 Z"/></g>
<g><path style="opacity:1" fill="#d8d8d8" d="M 3.5,133.5 C 34.1667,133.5 64.8333,133.5 95.5,133.5C 65.3471,135.164 35.0138,136.164 4.5,136.5C 4.16667,136.5 3.83333,136.5 3.5,136.5C 3.5,135.5 3.5,134.5 3.5,133.5 Z"/></g>
<g><path style="opacity:1" fill="#d7d7d7" d="M 200.5,133.5 C 231.167,133.5 261.833,133.5 292.5,133.5C 292.5,134.167 292.5,134.833 292.5,135.5C 261.482,136.159 230.815,135.492 200.5,133.5 Z"/></g>
<g><path style="opacity:1" fill="#b3b3b3" d="M 95.5,133.5 C 95.8333,133.5 96.1667,133.5 96.5,133.5C 96.5,134.5 96.5,135.5 96.5,136.5C 96.1667,136.5 95.8333,136.5 95.5,136.5C 65.1667,136.5 34.8333,136.5 4.5,136.5C 35.0138,136.164 65.3471,135.164 95.5,133.5 Z"/></g>
<g><path style="opacity:1" fill="#797979" d="M 4.5,136.5 C 34.8333,136.5 65.1667,136.5 95.5,136.5C 65.5184,138.492 35.185,139.159 4.5,138.5C 4.5,137.833 4.5,137.167 4.5,136.5 Z"/></g>
<g><path style="opacity:1" fill="#797979" d="M 203.5,136.5 C 233.167,136.5 262.833,136.5 292.5,136.5C 292.5,137.167 292.5,137.833 292.5,138.5C 262.481,139.159 232.815,138.492 203.5,136.5 Z"/></g>
<g><path style="opacity:1" fill="#636363" d="M 95.5,136.5 C 95.8333,136.5 96.1667,136.5 96.5,136.5C 96.5,137.5 96.5,138.5 96.5,139.5C 65.8333,139.5 35.1667,139.5 4.5,139.5C 4.5,139.167 4.5,138.833 4.5,138.5C 35.185,139.159 65.5184,138.492 95.5,136.5 Z"/></g>
<g><path style="opacity:1" fill="#636363" d="M 200.5,136.5 C 201.5,136.5 202.5,136.5 203.5,136.5C 232.815,138.492 262.481,139.159 292.5,138.5C 292.5,138.833 292.5,139.167 292.5,139.5C 292.167,139.5 291.833,139.5 291.5,139.5C 289.833,139.5 288.167,139.5 286.5,139.5C 257.833,139.5 229.167,139.5 200.5,139.5C 200.5,138.5 200.5,137.5 200.5,136.5 Z"/></g>
<g><path style="opacity:1" fill="#3d3d3d" d="M 197.5,103.5 C 196.859,113.889 197.526,123.889 199.5,133.5C 199.263,134.791 199.596,135.791 200.5,136.5C 200.5,137.5 200.5,138.5 200.5,139.5C 229.167,139.5 257.833,139.5 286.5,139.5C 286.5,140.167 286.5,140.833 286.5,141.5C 255.833,141.5 225.167,141.5 194.5,141.5C 194.5,139.5 194.5,137.5 194.5,135.5C 196.158,125.039 197.158,114.372 197.5,103.5 Z"/></g>
<g><path style="opacity:1" fill="#626262" d="M 101.5,141.5 C 101.5,141.833 101.5,142.167 101.5,142.5C 70.815,141.841 40.4816,142.508 10.5,144.5C 10.1667,144.5 9.83333,144.5 9.5,144.5C 9.5,143.5 9.5,142.5 9.5,141.5C 40.1667,141.5 70.8333,141.5 101.5,141.5 Z"/></g>
<g><path style="opacity:1" fill="#e1e1e1" d="M 295.5,139.5 C 296.5,139.5 297.5,139.5 298.5,139.5C 298.5,169.167 298.5,198.833 298.5,228.5C 297.5,228.5 296.5,228.5 295.5,228.5C 295.5,198.833 295.5,169.167 295.5,139.5 Z"/></g>
<g><path style="opacity:0.749" fill="#c6c6c6" d="M 3.5,136.5 C 3.83333,136.5 4.16667,136.5 4.5,136.5C 4.5,137.167 4.5,137.833 4.5,138.5C 4.5,138.833 4.5,139.167 4.5,139.5C 4.16667,139.5 3.83333,139.5 3.5,139.5C 2.16728,153.985 1.50062,168.818 1.5,184C 1.50062,199.182 2.16728,214.015 3.5,228.5C 3.5,229.5 3.5,230.5 3.5,231.5C 2.5,231.5 1.5,231.5 0.5,231.5C 0.5,199.833 0.5,168.167 0.5,136.5C 1.5,136.5 2.5,136.5 3.5,136.5 Z"/></g>
<g><path style="opacity:1" fill="#a6a6a6" d="M 3.5,139.5 C 3.5,169.167 3.5,198.833 3.5,228.5C 2.16728,214.015 1.50062,199.182 1.5,184C 1.50062,168.818 2.16728,153.985 3.5,139.5 Z"/></g>
<g><path style="opacity:1" fill="#9a9a9a" d="M 101.5,142.5 C 101.5,143.167 101.5,143.833 101.5,144.5C 71.1667,144.5 40.8333,144.5 10.5,144.5C 40.4816,142.508 70.815,141.841 101.5,142.5 Z"/></g>
<g><path style="opacity:1" fill="#9a9a9a" d="M 194.5,142.5 C 225.167,142.5 255.833,142.5 286.5,142.5C 286.5,143.167 286.5,143.833 286.5,144.5C 255.482,145.159 224.815,144.492 194.5,142.5 Z"/></g>
<g><path style="opacity:1" fill="#777777" d="M 292.5,139.5 C 293.833,154.318 294.499,169.485 294.5,185C 294.485,200.72 293.818,216.22 292.5,231.5C 278.5,231.5 264.5,231.5 250.5,231.5C 250.5,231.167 250.5,230.833 250.5,230.5C 264.579,231.138 278.412,230.472 292,228.5C 292.5,198.835 292.667,169.169 292.5,139.5 Z"/></g>
<g><path style="opacity:1" fill="#f2f2f2" d="M 107.5,61.5 C 108.5,61.5 109.5,61.5 110.5,61.5C 110.5,63.8333 110.5,66.1667 110.5,68.5C 108.829,93.719 107.829,119.219 107.5,145C 103.252,146.471 98.9185,147.638 94.5,148.5C 67.2088,148.406 39.8754,148.406 12.5,148.5C 12.5,172.833 12.5,197.167 12.5,221.5C 10.5093,196.522 9.84263,171.189 10.5,145.5C 41.0046,145.831 71.3379,145.498 101.5,144.5C 101.5,143.833 101.5,143.167 101.5,142.5C 102.833,142.5 104.167,142.5 105.5,142.5C 105.5,141.5 105.5,140.5 105.5,139.5C 107.491,113.855 108.158,87.8548 107.5,61.5 Z"/></g>
<g><path style="opacity:1" fill="#1c1c1c" d="M 7.5,222.5 C 8.16667,222.5 8.83333,222.5 9.5,222.5C 9.5,223.5 9.5,224.5 9.5,225.5C 9.5,226.5 9.5,227.5 9.5,228.5C 7.83333,228.5 6.16667,228.5 4.5,228.5C 4.16685,199.826 4.50018,171.159 5.5,142.5C 6.16667,169.33 6.83333,195.997 7.5,222.5 Z"/></g>
<g><path style="opacity:1" fill="#c2c2c2" d="M 9.5,144.5 C 9.83333,144.5 10.1667,144.5 10.5,144.5C 40.8333,144.5 71.1667,144.5 101.5,144.5C 71.3379,145.498 41.0046,145.831 10.5,145.5C 9.84263,171.189 10.5093,196.522 12.5,221.5C 12.5,221.833 12.5,222.167 12.5,222.5C 11.8333,222.5 11.1667,222.5 10.5,222.5C 10.1667,222.5 9.83333,222.5 9.5,222.5C 9.5,196.833 9.5,171.167 9.5,145.5C 9.5,145.167 9.5,144.833 9.5,144.5 Z"/></g>
<g><path style="opacity:1" fill="#d5d5d5" d="M 193.5,142.5 C 193.833,142.5 194.167,142.5 194.5,142.5C 224.815,144.492 255.482,145.159 286.5,144.5C 286.5,144.833 286.5,145.167 286.5,145.5C 286.5,171.167 286.5,196.833 286.5,222.5C 274.5,222.5 262.5,222.5 250.5,222.5C 250.5,221.5 250.5,220.5 250.5,219.5C 262.023,221.366 273.69,222.032 285.5,221.5C 285.5,196.167 285.5,170.833 285.5,145.5C 254.833,145.5 224.167,145.5 193.5,145.5C 193.5,144.5 193.5,143.5 193.5,142.5 Z"/></g>
<g><path style="opacity:1" fill="#999999" d="M 286.5,145.5 C 287.833,157.982 288.499,170.815 288.5,184C 288.499,197.185 287.833,210.018 286.5,222.5C 286.5,196.833 286.5,171.167 286.5,145.5 Z"/></g>
<g><path style="opacity:1" fill="#6e6e6e" d="M 286.5,145.5 C 286.5,145.167 286.5,144.833 286.5,144.5C 287.5,144.5 288.5,144.5 289.5,144.5C 289.5,171.5 289.5,198.5 289.5,225.5C 288.5,225.5 287.5,225.5 286.5,225.5C 286.5,224.5 286.5,223.5 286.5,222.5C 287.833,210.018 288.499,197.185 288.5,184C 288.499,170.815 287.833,157.982 286.5,145.5 Z"/></g>
<g><path style="opacity:1" fill="#2f2f2f" d="M 286.5,139.5 C 288.167,139.5 289.833,139.5 291.5,139.5C 291.5,168.833 291.5,198.167 291.5,227.5C 289.219,227.923 287.552,227.256 286.5,225.5C 287.5,225.5 288.5,225.5 289.5,225.5C 289.5,198.5 289.5,171.5 289.5,144.5C 288.5,144.5 287.5,144.5 286.5,144.5C 286.5,143.833 286.5,143.167 286.5,142.5C 286.5,142.167 286.5,141.833 286.5,141.5C 286.5,140.833 286.5,140.167 286.5,139.5 Z"/></g>
<g><path style="opacity:1" fill="#ababab" d="M 292.5,136.5 C 293.5,136.5 294.5,136.5 295.5,136.5C 295.5,137.5 295.5,138.5 295.5,139.5C 295.5,169.167 295.5,198.833 295.5,228.5C 295.5,229.5 295.5,230.5 295.5,231.5C 294.5,231.5 293.5,231.5 292.5,231.5C 293.818,216.22 294.485,200.72 294.5,185C 294.499,169.485 293.833,154.318 292.5,139.5C 292.5,139.167 292.5,138.833 292.5,138.5C 292.5,137.833 292.5,137.167 292.5,136.5 Z"/></g>
<g><path style="opacity:1" fill="#717171" d="M 9.5,145.5 C 9.5,171.167 9.5,196.833 9.5,222.5C 8.83333,222.5 8.16667,222.5 7.5,222.5C 6.8425,196.478 7.50917,170.812 9.5,145.5 Z"/></g>
<g><path style="opacity:1" fill="#999999" d="M 241.5,192.5 C 244.5,192.5 247.5,192.5 250.5,192.5C 250.5,193.5 250.5,194.5 250.5,195.5C 249.5,195.5 248.5,195.5 247.5,195.5C 246.5,195.5 245.5,195.5 244.5,195.5C 242.842,205.292 241.842,215.292 241.5,225.5C 241.5,214.5 241.5,203.5 241.5,192.5 Z"/></g>
<g><path style="opacity:1" fill="#7e7e7e" d="M 247.5,195.5 C 248.5,195.5 249.5,195.5 250.5,195.5C 250.5,203.5 250.5,211.5 250.5,219.5C 250.5,220.5 250.5,221.5 250.5,222.5C 249.5,222.5 248.5,222.5 247.5,222.5C 247.5,213.5 247.5,204.5 247.5,195.5 Z"/></g>
<g><path style="opacity:1" fill="#ececec" d="M 48.5,192.5 C 48.5,202.5 48.5,212.5 48.5,222.5C 47.5,222.5 46.5,222.5 45.5,222.5C 34.5,222.5 23.5,222.5 12.5,222.5C 12.5,222.167 12.5,221.833 12.5,221.5C 23.5,221.5 34.5,221.5 45.5,221.5C 45.5,211.833 45.5,202.167 45.5,192.5C 46.5,192.5 47.5,192.5 48.5,192.5 Z"/></g>
<g><path style="opacity:1" fill="#787878" d="M 48.5,192.5 C 50.5,192.5 52.5,192.5 54.5,192.5C 54.5,193.5 54.5,194.5 54.5,195.5C 53.5,195.5 52.5,195.5 51.5,195.5C 51.5,205.5 51.5,215.5 51.5,225.5C 50.5,225.5 49.5,225.5 48.5,225.5C 35.5,225.5 22.5,225.5 9.5,225.5C 9.5,224.5 9.5,223.5 9.5,222.5C 9.83333,222.5 10.1667,222.5 10.5,222.5C 15.9597,223.829 21.793,224.496 28,224.5C 34.207,224.496 40.0403,223.829 45.5,222.5C 46.5,222.5 47.5,222.5 48.5,222.5C 48.5,212.5 48.5,202.5 48.5,192.5 Z"/></g>
<g><path style="opacity:1" fill="#a9a9a9" d="M 10.5,222.5 C 11.1667,222.5 11.8333,222.5 12.5,222.5C 23.5,222.5 34.5,222.5 45.5,222.5C 40.0403,223.829 34.207,224.496 28,224.5C 21.793,224.496 15.9597,223.829 10.5,222.5 Z"/></g>
<g><path style="opacity:1" fill="#a2a2a2" d="M 250.5,222.5 C 262.5,222.5 274.5,222.5 286.5,222.5C 286.5,223.5 286.5,224.5 286.5,225.5C 274.5,225.5 262.5,225.5 250.5,225.5C 250.5,224.5 250.5,223.5 250.5,222.5 Z"/></g>
<g><path style="opacity:1" fill="#474747" d="M 9.5,225.5 C 22.5,225.5 35.5,225.5 48.5,225.5C 48.5,227.167 48.5,228.833 48.5,230.5C 33.4619,231.15 18.7952,230.483 4.5,228.5C 6.16667,228.5 7.83333,228.5 9.5,228.5C 9.5,227.5 9.5,226.5 9.5,225.5 Z"/></g>
<g><path style="opacity:1" fill="#474747" d="M 291.5,139.5 C 291.833,139.5 292.167,139.5 292.5,139.5C 292.667,169.169 292.5,198.835 292,228.5C 278.412,230.472 264.579,231.138 250.5,230.5C 250.5,228.833 250.5,227.167 250.5,225.5C 262.5,225.5 274.5,225.5 286.5,225.5C 287.552,227.256 289.219,227.923 291.5,227.5C 291.5,198.167 291.5,168.833 291.5,139.5 Z"/></g>
<g><path style="opacity:1" fill="#898989" d="M 3.5,228.5 C 3.83333,228.5 4.16667,228.5 4.5,228.5C 18.7952,230.483 33.4619,231.15 48.5,230.5C 48.5,230.833 48.5,231.167 48.5,231.5C 33.5,231.5 18.5,231.5 3.5,231.5C 3.5,230.5 3.5,229.5 3.5,228.5 Z"/></g>
<g><path style="opacity:1" fill="#e9e9e9" d="M 241.5,192.5 C 241.5,203.5 241.5,214.5 241.5,225.5C 241.5,250.167 241.5,274.833 241.5,299.5C 240.5,299.5 239.5,299.5 238.5,299.5C 238.5,263.833 238.5,228.167 238.5,192.5C 239.5,192.5 240.5,192.5 241.5,192.5 Z"/></g>
<g><path style="opacity:1" fill="#b5b5b5" d="M 54.5,192.5 C 55.5,192.5 56.5,192.5 57.5,192.5C 57.5,228.167 57.5,263.833 57.5,299.5C 56.5,299.5 55.5,299.5 54.5,299.5C 54.5,264.833 54.5,230.167 54.5,195.5C 54.5,194.5 54.5,193.5 54.5,192.5 Z"/></g>
<g><path style="opacity:1" fill="#e3e3e3" d="M 250.5,231.5 C 264.5,231.5 278.5,231.5 292.5,231.5C 292.5,232.5 292.5,233.5 292.5,234.5C 278.5,234.5 264.5,234.5 250.5,234.5C 250.5,233.5 250.5,232.5 250.5,231.5 Z"/></g>
<g><path style="opacity:1" fill="#323232" d="M 244.5,195.5 C 245.5,195.5 246.5,195.5 247.5,195.5C 247.5,204.5 247.5,213.5 247.5,222.5C 248.5,222.5 249.5,222.5 250.5,222.5C 250.5,223.5 250.5,224.5 250.5,225.5C 250.5,227.167 250.5,228.833 250.5,230.5C 250.5,230.833 250.5,231.167 250.5,231.5C 249.5,231.5 248.5,231.5 247.5,231.5C 247.5,254.167 247.5,276.833 247.5,299.5C 246.5,299.5 245.5,299.5 244.5,299.5C 244.5,264.833 244.5,230.167 244.5,195.5 Z"/></g>
<g><path style="opacity:1" fill="#868686" d="M 244.5,195.5 C 244.5,230.167 244.5,264.833 244.5,299.5C 243.5,299.5 242.5,299.5 241.5,299.5C 241.5,274.833 241.5,250.167 241.5,225.5C 241.842,215.292 242.842,205.292 244.5,195.5 Z"/></g>
<g><path style="opacity:1" fill="#7e7e7e" d="M 250.5,231.5 C 250.5,232.5 250.5,233.5 250.5,234.5C 250.5,256.167 250.5,277.833 250.5,299.5C 249.5,299.5 248.5,299.5 247.5,299.5C 247.5,276.833 247.5,254.167 247.5,231.5C 248.5,231.5 249.5,231.5 250.5,231.5 Z"/></g>
<g><path style="opacity:1" fill="#717171" d="M 48.5,231.5 C 49.5,231.5 50.5,231.5 51.5,231.5C 51.5,254.167 51.5,276.833 51.5,299.5C 50.5,299.5 49.5,299.5 48.5,299.5C 48.5,276.833 48.5,254.167 48.5,231.5 Z"/></g>
<g><path style="opacity:1" fill="#191919" d="M 54.5,195.5 C 54.5,230.167 54.5,264.833 54.5,299.5C 53.5,299.5 52.5,299.5 51.5,299.5C 51.5,276.833 51.5,254.167 51.5,231.5C 50.5,231.5 49.5,231.5 48.5,231.5C 48.5,231.167 48.5,230.833 48.5,230.5C 48.5,228.833 48.5,227.167 48.5,225.5C 49.5,225.5 50.5,225.5 51.5,225.5C 51.5,215.5 51.5,205.5 51.5,195.5C 52.5,195.5 53.5,195.5 54.5,195.5 Z"/></g>
<g><path style="opacity:1" fill="#ebebeb" d="M 3.5,231.5 C 18.5,231.5 33.5,231.5 48.5,231.5C 48.5,254.167 48.5,276.833 48.5,299.5C 47.5,299.5 46.5,299.5 45.5,299.5C 45.5,277.833 45.5,256.167 45.5,234.5C 31.5,234.5 17.5,234.5 3.5,234.5C 3.5,233.5 3.5,232.5 3.5,231.5 Z"/></g>
</svg>
