<?xml version="1.0" encoding="UTF-8"?>
<!DOCTYPE svg PUBLIC "-//W3C//DTD SVG 1.1//EN" "http://www.w3.org/Graphics/SVG/1.1/DTD/svg11.dtd">
<svg xmlns="http://www.w3.org/2000/svg" version="1.1" width="300px" height="300px" style="shape-rendering:geometricPrecision; text-rendering:geometricPrecision; image-rendering:optimizeQuality; fill-rule:evenodd; clip-rule:evenodd" xmlns:xlink="http://www.w3.org/1999/xlink">
<g><path style="opacity:0.982" fill="#fefefe" d="M -0.5,-0.5 C 99.5,-0.5 199.5,-0.5 299.5,-0.5C 299.5,99.5 299.5,199.5 299.5,299.5C 283.5,299.5 267.5,299.5 251.5,299.5C 251.169,277.66 251.503,255.994 252.5,234.5C 266.167,234.5 279.833,234.5 293.5,234.5C 293.5,233.5 293.5,232.5 293.5,231.5C 293.5,230.5 293.5,229.5 293.5,228.5C 294.5,228.5 295.5,228.5 296.5,228.5C 296.5,198.833 296.5,169.167 296.5,139.5C 295.5,139.5 294.5,139.5 293.5,139.5C 293.5,138.5 293.5,137.5 293.5,136.5C 293.5,135.5 293.5,134.5 293.5,133.5C 262.833,133.5 232.167,133.5 201.5,133.5C 201.5,123.5 201.5,113.5 201.5,103.5C 208.5,103.5 215.5,103.5 222.5,103.5C 222.5,102.5 222.5,101.5 222.5,100.5C 223.5,100.5 224.5,100.5 225.5,100.5C 225.5,76.8333 225.5,53.1667 225.5,29.5C 224.5,29.5 223.5,29.5 222.5,29.5C 222.5,28.5 222.5,27.5 222.5,26.5C 172.833,26.5 123.167,26.5 73.5,26.5C 73.5,27.5 73.5,28.5 73.5,29.5C 72.5,29.5 71.5,29.5 70.5,29.5C 70.5,53.1667 70.5,76.8333 70.5,100.5C 71.5,100.5 72.5,100.5 73.5,100.5C 73.5,101.5 73.5,102.5 73.5,103.5C 80.5,103.5 87.5,103.5 94.5,103.5C 94.5,113.5 94.5,123.5 94.5,133.5C 63.8333,133.5 33.1667,133.5 2.5,133.5C 2.5,134.5 2.5,135.5 2.5,136.5C 2.5,137.5 2.5,138.5 2.5,139.5C 1.5,139.5 0.5,139.5 -0.5,139.5C -0.5,92.8333 -0.5,46.1667 -0.5,-0.5 Z"/></g>
<g><path style="opacity:1" fill="#adadad" d="M 222.5,29.5 C 173.833,29.5 125.167,29.5 76.5,29.5C 75.5,29.5 74.5,29.5 73.5,29.5C 73.5,28.5 73.5,27.5 73.5,26.5C 123.167,26.5 172.833,26.5 222.5,26.5C 222.5,27.5 222.5,28.5 222.5,29.5 Z"/></g>
<g><path style="opacity:1" fill="#585858" d="M 76.5,29.5 C 125.167,29.5 173.833,29.5 222.5,29.5C 222.5,30.5 222.5,31.5 222.5,32.5C 222.167,32.5 221.833,32.5 221.5,32.5C 219.952,32.8212 219.285,33.8212 219.5,35.5C 218.5,35.5 217.5,35.5 216.5,35.5C 171.833,35.5 127.167,35.5 82.5,35.5C 81.5,35.5 80.5,35.5 79.5,35.5C 79.5,34.5 79.5,33.5 79.5,32.5C 78.5,32.5 77.5,32.5 76.5,32.5C 76.5,31.5 76.5,30.5 76.5,29.5 Z"/></g>
<g><path style="opacity:1" fill="#727272" d="M 73.5,29.5 C 74.5,29.5 75.5,29.5 76.5,29.5C 76.5,30.5 76.5,31.5 76.5,32.5C 75.1678,42.9788 74.5012,53.8121 74.5,65C 74.5012,76.1879 75.1678,87.0212 76.5,97.5C 76.5,98.5 76.5,99.5 76.5,100.5C 75.5,100.5 74.5,100.5 73.5,100.5C 73.5,76.8333 73.5,53.1667 73.5,29.5 Z"/></g>
<g><path style="opacity:1" fill="#cacaca" d="M 82.5,35.5 C 127.167,35.5 171.833,35.5 216.5,35.5C 216.5,36.5 216.5,37.5 216.5,38.5C 171.833,38.5 127.167,38.5 82.5,38.5C 82.5,37.5 82.5,36.5 82.5,35.5 Z"/></g>
<g><path style="opacity:1" fill="#949494" d="M 222.5,29.5 C 223.5,29.5 224.5,29.5 225.5,29.5C 225.5,53.1667 225.5,76.8333 225.5,100.5C 224.5,100.5 223.5,100.5 222.5,100.5C 222.5,99.5 222.5,98.5 222.5,97.5C 223.832,87.0212 224.499,76.1879 224.5,65C 224.499,53.8121 223.832,42.9788 222.5,32.5C 222.5,31.5 222.5,30.5 222.5,29.5 Z"/></g>
<g><path style="opacity:1" fill="#4b4b4b" d="M 76.5,32.5 C 76.5,54.1667 76.5,75.8333 76.5,97.5C 75.1678,87.0212 74.5012,76.1879 74.5,65C 74.5012,53.8121 75.1678,42.9788 76.5,32.5 Z"/></g>
<g><path style="opacity:1" fill="#fcfcfc" d="M 82.5,38.5 C 127.167,38.5 171.833,38.5 216.5,38.5C 216.5,57.1667 216.5,75.8333 216.5,94.5C 211.5,94.5 206.5,94.5 201.5,94.5C 201.5,80.8333 201.5,67.1667 201.5,53.5C 200.5,53.5 199.5,53.5 198.5,53.5C 197.791,52.596 196.791,52.2627 195.5,52.5C 180.014,51.1672 164.181,50.5005 148,50.5C 131.819,50.5005 115.986,51.1672 100.5,52.5C 98.5,52.5 96.5,52.5 94.5,52.5C 94.5,66.5 94.5,80.5 94.5,94.5C 90.5,94.5 86.5,94.5 82.5,94.5C 82.5,93.5 82.5,92.5 82.5,91.5C 82.5,73.8333 82.5,56.1667 82.5,38.5 Z"/></g>
<g><path style="opacity:1" fill="#a2a2a2" d="M 79.5,35.5 C 80.5,35.5 81.5,35.5 82.5,35.5C 82.5,36.5 82.5,37.5 82.5,38.5C 81.1685,46.9738 80.5018,55.8071 80.5,65C 80.5018,74.1929 81.1685,83.0262 82.5,91.5C 82.5,92.5 82.5,93.5 82.5,94.5C 81.5,94.5 80.5,94.5 79.5,94.5C 79.5,74.8333 79.5,55.1667 79.5,35.5 Z"/></g>
<g><path style="opacity:1" fill="#cacaca" d="M 82.5,38.5 C 82.5,56.1667 82.5,73.8333 82.5,91.5C 81.1685,83.0262 80.5018,74.1929 80.5,65C 80.5018,55.8071 81.1685,46.9738 82.5,38.5 Z"/></g>
<g><path style="opacity:1" fill="#a0a0a0" d="M 216.5,38.5 C 218.487,56.8034 219.154,75.4701 218.5,94.5C 217.833,94.5 217.167,94.5 216.5,94.5C 216.5,75.8333 216.5,57.1667 216.5,38.5 Z"/></g>
<g><path style="opacity:1" fill="#111111" d="M 221.5,32.5 C 221.833,54.1769 221.5,75.8436 220.5,97.5C 219.614,96.675 219.281,95.675 219.5,94.5C 219.5,74.8333 219.5,55.1667 219.5,35.5C 219.285,33.8212 219.952,32.8212 221.5,32.5 Z"/></g>
<g><path style="opacity:1" fill="#dcdcdc" d="M 73.5,29.5 C 73.5,53.1667 73.5,76.8333 73.5,100.5C 72.5,100.5 71.5,100.5 70.5,100.5C 70.5,76.8333 70.5,53.1667 70.5,29.5C 71.5,29.5 72.5,29.5 73.5,29.5 Z"/></g>
<g><path style="opacity:1" fill="#6e6e6e" d="M 222.5,32.5 C 223.832,42.9788 224.499,53.8121 224.5,65C 224.499,76.1879 223.832,87.0212 222.5,97.5C 222.5,75.8333 222.5,54.1667 222.5,32.5 Z"/></g>
<g><path style="opacity:1" fill="#7a7a7a" d="M 216.5,35.5 C 217.5,35.5 218.5,35.5 219.5,35.5C 219.5,55.1667 219.5,74.8333 219.5,94.5C 219.167,94.5 218.833,94.5 218.5,94.5C 219.154,75.4701 218.487,56.8034 216.5,38.5C 216.5,37.5 216.5,36.5 216.5,35.5 Z"/></g>
<g><path style="opacity:1" fill="#dadada" d="M 195.5,52.5 C 163.833,52.5 132.167,52.5 100.5,52.5C 115.986,51.1672 131.819,50.5005 148,50.5C 164.181,50.5005 180.014,51.1672 195.5,52.5 Z"/></g>
<g><path style="opacity:1" fill="#474747" d="M 100.5,53.5 C 133.167,53.5 165.833,53.5 198.5,53.5C 198.5,54.1667 198.5,54.8333 198.5,55.5C 196.5,55.5 194.5,55.5 192.5,55.5C 192.5,56.5 192.5,57.5 192.5,58.5C 163.833,58.5 135.167,58.5 106.5,58.5C 106.5,57.5 106.5,56.5 106.5,55.5C 104.5,55.5 102.5,55.5 100.5,55.5C 100.5,54.8333 100.5,54.1667 100.5,53.5 Z"/></g>
<g><path style="opacity:1" fill="#c1c1c1" d="M 100.5,52.5 C 132.167,52.5 163.833,52.5 195.5,52.5C 196.791,52.2627 197.791,52.596 198.5,53.5C 165.833,53.5 133.167,53.5 100.5,53.5C 99.5,53.5 98.5,53.5 97.5,53.5C 97.5,67.1667 97.5,80.8333 97.5,94.5C 96.5,94.5 95.5,94.5 94.5,94.5C 94.5,80.5 94.5,66.5 94.5,52.5C 96.5,52.5 98.5,52.5 100.5,52.5 Z"/></g>
<g><path style="opacity:1" fill="#c1c1c1" d="M 198.5,53.5 C 199.5,53.5 200.5,53.5 201.5,53.5C 201.5,67.1667 201.5,80.8333 201.5,94.5C 200.5,94.5 199.5,94.5 198.5,94.5C 198.5,81.5 198.5,68.5 198.5,55.5C 198.5,54.8333 198.5,54.1667 198.5,53.5 Z"/></g>
<g><path style="opacity:1" fill="#2f2f2f" d="M 76.5,32.5 C 77.5,32.5 78.5,32.5 79.5,32.5C 79.5,33.5 79.5,34.5 79.5,35.5C 79.5,55.1667 79.5,74.8333 79.5,94.5C 79.5,95.5 79.5,96.5 79.5,97.5C 85.5,97.5 91.5,97.5 97.5,97.5C 97.5,96.5 97.5,95.5 97.5,94.5C 98.5,94.5 99.5,94.5 100.5,94.5C 100.5,81.5 100.5,68.5 100.5,55.5C 102.5,55.5 104.5,55.5 106.5,55.5C 106.5,56.5 106.5,57.5 106.5,58.5C 105.5,58.5 104.5,58.5 103.5,58.5C 103.5,85.5 103.5,112.5 103.5,139.5C 101.5,140.167 99.5,140.833 97.5,141.5C 97.5,140.833 97.5,140.167 97.5,139.5C 97.5,138.5 97.5,137.5 97.5,136.5C 98.5,136.5 99.5,136.5 100.5,136.5C 100.5,125.5 100.5,114.5 100.5,103.5C 99.5,103.5 98.5,103.5 97.5,103.5C 97.5,102.5 97.5,101.5 97.5,100.5C 90.5,100.5 83.5,100.5 76.5,100.5C 76.5,99.5 76.5,98.5 76.5,97.5C 76.5,75.8333 76.5,54.1667 76.5,32.5 Z"/></g>
<g><path style="opacity:1" fill="#eeeeee" d="M 106.5,61.5 C 134.167,61.5 161.833,61.5 189.5,61.5C 190.5,61.5 191.5,61.5 192.5,61.5C 192.5,88.5 192.5,115.5 192.5,142.5C 191.5,142.5 190.5,142.5 189.5,142.5C 189.833,116.491 189.5,90.4915 188.5,64.5C 187.914,64.7093 187.414,65.0426 187,65.5C 186.503,68.146 186.336,70.8127 186.5,73.5C 185.5,73.5 184.5,73.5 183.5,73.5C 183.5,72.5 183.5,71.5 183.5,70.5C 183.5,69.8333 183.5,69.1667 183.5,68.5C 183.5,68.1667 183.5,67.8333 183.5,67.5C 183.5,66.5 183.5,65.5 183.5,64.5C 176.5,64.5 169.5,64.5 162.5,64.5C 162.5,65.5 162.5,66.5 162.5,67.5C 161.5,67.5 160.5,67.5 159.5,67.5C 159.5,66.5 159.5,65.5 159.5,64.5C 152.833,64.5 146.167,64.5 139.5,64.5C 139.5,67.5 139.5,70.5 139.5,73.5C 138.5,73.5 137.5,73.5 136.5,73.5C 136.5,74.5 136.5,75.5 136.5,76.5C 127.404,76.7761 118.404,76.1094 109.5,74.5C 108.92,83.2257 108.92,91.8923 109.5,100.5C 108.5,100.5 107.5,100.5 106.5,100.5C 106.5,87.5 106.5,74.5 106.5,61.5 Z"/></g>
<g><path style="opacity:1" fill="#fefefe" d="M 159.5,67.5 C 159.5,69.5 159.5,71.5 159.5,73.5C 160.5,73.5 161.5,73.5 162.5,73.5C 162.5,74.5 162.5,75.5 162.5,76.5C 169.5,76.5 176.5,76.5 183.5,76.5C 183.5,75.5 183.5,74.5 183.5,73.5C 184.5,73.5 185.5,73.5 186.5,73.5C 186.336,70.8127 186.503,68.146 187,65.5C 187.414,65.0426 187.914,64.7093 188.5,64.5C 189.5,90.4915 189.833,116.491 189.5,142.5C 190.5,142.5 191.5,142.5 192.5,142.5C 192.5,143.5 192.5,144.5 192.5,145.5C 223.167,145.5 253.833,145.5 284.5,145.5C 284.5,170.833 284.5,196.167 284.5,221.5C 273.833,221.5 263.167,221.5 252.5,221.5C 252.5,211.833 252.5,202.167 252.5,192.5C 251.5,192.5 250.5,192.5 249.5,192.5C 247.5,192.5 245.5,192.5 243.5,192.5C 242.5,192.5 241.5,192.5 240.5,192.5C 240.5,228.167 240.5,263.833 240.5,299.5C 179.833,299.5 119.167,299.5 58.5,299.5C 58.8829,263.814 58.8829,228.147 58.5,192.5C 57.5,192.5 56.5,192.5 55.5,192.5C 53.8333,192.5 52.1667,192.5 50.5,192.5C 49.1667,192.5 47.8333,192.5 46.5,192.5C 46.5,202.167 46.5,211.833 46.5,221.5C 34.8333,221.5 23.1667,221.5 11.5,221.5C 11.5,196.167 11.5,170.833 11.5,145.5C 42.3379,145.831 73.0045,145.498 103.5,144.5C 103.5,143.833 103.5,143.167 103.5,142.5C 104.5,142.5 105.5,142.5 106.5,142.5C 106.5,128.5 106.5,114.5 106.5,100.5C 107.5,100.5 108.5,100.5 109.5,100.5C 108.92,91.8923 108.92,83.2257 109.5,74.5C 118.404,76.1094 127.404,76.7761 136.5,76.5C 136.5,75.5 136.5,74.5 136.5,73.5C 137.5,73.5 138.5,73.5 139.5,73.5C 139.5,70.5 139.5,67.5 139.5,64.5C 146.167,64.5 152.833,64.5 159.5,64.5C 159.5,65.5 159.5,66.5 159.5,67.5 Z"/></g>
<g><path style="opacity:1" fill="#c4c4c4" d="M 136.5,73.5 C 135.5,73.5 134.5,73.5 133.5,73.5C 133.48,71.857 134.147,70.5237 135.5,69.5C 134.975,68.8076 134.308,68.3076 133.5,68C 126.508,67.5004 119.508,67.3337 112.5,67.5C 112.5,66.5 112.5,65.5 112.5,64.5C 119.508,64.3337 126.508,64.5004 133.5,65C 136.124,67.1533 137.124,69.9866 136.5,73.5 Z"/></g>
<g><path style="opacity:1" fill="#c6c6c6" d="M 183.5,67.5 C 176.5,67.5 169.5,67.5 162.5,67.5C 162.5,66.5 162.5,65.5 162.5,64.5C 169.5,64.5 176.5,64.5 183.5,64.5C 183.5,65.5 183.5,66.5 183.5,67.5 Z"/></g>
<g><path style="opacity:1" fill="#1e1e1e" d="M 183.5,68.5 C 183.5,69.1667 183.5,69.8333 183.5,70.5C 156.833,69.8333 156.833,69.1667 183.5,68.5 Z"/></g>
<g><path style="opacity:1" fill="#a0a0a0" d="M 106.5,58.5 C 135.167,58.5 163.833,58.5 192.5,58.5C 192.5,58.8333 192.5,59.1667 192.5,59.5C 192.5,60.1667 192.5,60.8333 192.5,61.5C 191.5,61.5 190.5,61.5 189.5,61.5C 176.017,60.1674 162.183,59.5007 148,59.5C 133.817,59.5007 119.983,60.1674 106.5,61.5C 106.5,74.5 106.5,87.5 106.5,100.5C 106.5,114.5 106.5,128.5 106.5,142.5C 105.5,142.5 104.5,142.5 103.5,142.5C 103.5,141.5 103.5,140.5 103.5,139.5C 103.5,112.5 103.5,85.5 103.5,58.5C 104.5,58.5 105.5,58.5 106.5,58.5 Z"/></g>
<g><path style="opacity:1" fill="#c6c6c6" d="M 189.5,61.5 C 161.833,61.5 134.167,61.5 106.5,61.5C 119.983,60.1674 133.817,59.5007 148,59.5C 162.183,59.5007 176.017,60.1674 189.5,61.5 Z"/></g>
<g><path style="opacity:1" fill="#6a6a6a" d="M 112.5,67.5 C 119.508,67.3337 126.508,67.5004 133.5,68C 134.308,68.3076 134.975,68.8076 135.5,69.5C 134.147,70.5237 133.48,71.857 133.5,73.5C 126.5,73.5 119.5,73.5 112.5,73.5C 112.5,71.5 112.5,69.5 112.5,67.5 Z"/></g>
<g><path style="opacity:1" fill="#1d1d1d" d="M 115.5,68.5 C 121.206,68.1712 126.872,68.5046 132.5,69.5C 129.667,69.8333 126.833,70.1667 124,70.5C 120.748,70.4809 117.915,69.8142 115.5,68.5 Z"/></g>
<g><path style="opacity:1" fill="#bdbdbd" d="M 159.5,67.5 C 160.5,67.5 161.5,67.5 162.5,67.5C 162.5,69.5 162.5,71.5 162.5,73.5C 161.5,73.5 160.5,73.5 159.5,73.5C 159.5,71.5 159.5,69.5 159.5,67.5 Z"/></g>
<g><path style="opacity:1" fill="#6a6a6a" d="M 162.5,67.5 C 169.5,67.5 176.5,67.5 183.5,67.5C 183.5,67.8333 183.5,68.1667 183.5,68.5C 156.833,69.1667 156.833,69.8333 183.5,70.5C 183.5,71.5 183.5,72.5 183.5,73.5C 176.5,73.5 169.5,73.5 162.5,73.5C 162.5,71.5 162.5,69.5 162.5,67.5 Z"/></g>
<g><path style="opacity:1" fill="#e1e1e1" d="M 162.5,73.5 C 169.5,73.5 176.5,73.5 183.5,73.5C 183.5,74.5 183.5,75.5 183.5,76.5C 176.5,76.5 169.5,76.5 162.5,76.5C 162.5,75.5 162.5,74.5 162.5,73.5 Z"/></g>
<g><path style="opacity:1" fill="#7b7b7b" d="M 100.5,53.5 C 100.5,54.1667 100.5,54.8333 100.5,55.5C 100.5,68.5 100.5,81.5 100.5,94.5C 99.5,94.5 98.5,94.5 97.5,94.5C 97.5,80.8333 97.5,67.1667 97.5,53.5C 98.5,53.5 99.5,53.5 100.5,53.5 Z"/></g>
<g><path style="opacity:1" fill="#afafaf" d="M 136.5,79.5 C 137.551,80.2223 138.218,81.2223 138.5,82.5C 137.833,82.5 137.167,82.5 136.5,82.5C 136.167,82.5 135.833,82.5 135.5,82.5C 133.085,81.1858 130.252,80.5191 127,80.5C 123.748,80.5191 120.915,81.1858 118.5,82.5C 117.5,82.5 116.5,82.5 115.5,82.5C 115.5,81.5 115.5,80.5 115.5,79.5C 122.5,79.5 129.5,79.5 136.5,79.5 Z"/></g>
<g><path style="opacity:1" fill="#9d9d9d" d="M 180.5,82.5 C 173.833,82.5 167.167,82.5 160.5,82.5C 159.5,82.5 158.5,82.5 157.5,82.5C 157.198,87.6786 157.865,92.6786 159.5,97.5C 158.5,97.5 157.5,97.5 156.5,97.5C 156.5,91.5 156.5,85.5 156.5,79.5C 164.5,79.5 172.5,79.5 180.5,79.5C 180.5,80.5 180.5,81.5 180.5,82.5 Z"/></g>
<g><path style="opacity:1" fill="#8c8c8c" d="M 135.5,82.5 C 129.833,82.5 124.167,82.5 118.5,82.5C 120.915,81.1858 123.748,80.5191 127,80.5C 130.252,80.5191 133.085,81.1858 135.5,82.5 Z"/></g>
<g><path style="opacity:1" fill="#525252" d="M 136.5,82.5 C 137.167,82.5 137.833,82.5 138.5,82.5C 139.089,86.9707 138.423,90.9707 136.5,94.5C 136.5,90.5 136.5,86.5 136.5,82.5 Z"/></g>
<g><path style="opacity:1" fill="#7c7c7c" d="M 138.5,82.5 C 139.487,87.3054 139.821,92.3054 139.5,97.5C 138.5,97.5 137.5,97.5 136.5,97.5C 136.5,96.5 136.5,95.5 136.5,94.5C 138.423,90.9707 139.089,86.9707 138.5,82.5 Z"/></g>
<g><path style="opacity:1" fill="#d5d5d5" d="M 136.5,79.5 C 138.5,79.5 140.5,79.5 142.5,79.5C 142.5,85.5 142.5,91.5 142.5,97.5C 141.5,97.5 140.5,97.5 139.5,97.5C 139.821,92.3054 139.487,87.3054 138.5,82.5C 138.218,81.2223 137.551,80.2223 136.5,79.5 Z"/></g>
<g><path style="opacity:1" fill="#3c3c3c" d="M 160.5,82.5 C 160.025,85.0821 160.692,87.0821 162.5,88.5C 162.5,89.5 162.5,90.5 162.5,91.5C 161.503,91.4701 160.836,91.9701 160.5,93C 161.707,94.3002 162.374,95.8002 162.5,97.5C 161.5,97.5 160.5,97.5 159.5,97.5C 157.865,92.6786 157.198,87.6786 157.5,82.5C 158.5,82.5 159.5,82.5 160.5,82.5 Z"/></g>
<g><path style="opacity:1" fill="#cacaca" d="M 115.5,82.5 C 115.5,87.5 115.5,92.5 115.5,97.5C 114.5,97.5 113.5,97.5 112.5,97.5C 112.5,92.5 112.5,87.5 112.5,82.5C 113.5,82.5 114.5,82.5 115.5,82.5 Z"/></g>
<g><path style="opacity:1" fill="#5f5f5f" d="M 162.5,88.5 C 166.5,88.5 170.5,88.5 174.5,88.5C 174.5,89.5 174.5,90.5 174.5,91.5C 170.5,91.5 166.5,91.5 162.5,91.5C 162.5,90.5 162.5,89.5 162.5,88.5 Z"/></g>
<g><path style="opacity:1" fill="#b7b7b7" d="M 180.5,82.5 C 181.5,82.5 182.5,82.5 183.5,82.5C 183.5,87.5 183.5,92.5 183.5,97.5C 182.5,97.5 181.5,97.5 180.5,97.5C 180.5,92.5 180.5,87.5 180.5,82.5 Z"/></g>
<g><path style="opacity:1" fill="#616161" d="M 115.5,82.5 C 116.5,82.5 117.5,82.5 118.5,82.5C 118.5,87.5 118.5,92.5 118.5,97.5C 117.5,97.5 116.5,97.5 115.5,97.5C 115.5,92.5 115.5,87.5 115.5,82.5 Z"/></g>
<g><path style="opacity:1" fill="#252525" d="M 118.5,82.5 C 124.167,82.5 129.833,82.5 135.5,82.5C 135.833,82.5 136.167,82.5 136.5,82.5C 136.5,86.5 136.5,90.5 136.5,94.5C 136.5,95.5 136.5,96.5 136.5,97.5C 130.5,97.5 124.5,97.5 118.5,97.5C 118.5,92.5 118.5,87.5 118.5,82.5 Z"/></g>
<g><path style="opacity:1" fill="#595959" d="M 121.5,88.5 C 125.5,88.5 129.5,88.5 133.5,88.5C 133.5,89.5 133.5,90.5 133.5,91.5C 129.5,91.5 125.5,91.5 121.5,91.5C 121.5,90.5 121.5,89.5 121.5,88.5 Z"/></g>
<g><path style="opacity:1" fill="#6a6a6a" d="M 79.5,94.5 C 80.5,94.5 81.5,94.5 82.5,94.5C 86.5,94.5 90.5,94.5 94.5,94.5C 95.5,94.5 96.5,94.5 97.5,94.5C 97.5,95.5 97.5,96.5 97.5,97.5C 91.5,97.5 85.5,97.5 79.5,97.5C 79.5,96.5 79.5,95.5 79.5,94.5 Z"/></g>
<g><path style="opacity:1" fill="#222222" d="M 160.5,82.5 C 167.167,82.5 173.833,82.5 180.5,82.5C 180.5,87.5 180.5,92.5 180.5,97.5C 174.5,97.5 168.5,97.5 162.5,97.5C 162.374,95.8002 161.707,94.3002 160.5,93C 160.836,91.9701 161.503,91.4701 162.5,91.5C 166.5,91.5 170.5,91.5 174.5,91.5C 174.5,90.5 174.5,89.5 174.5,88.5C 174.5,87.5 174.5,86.5 174.5,85.5C 170.5,85.5 166.5,85.5 162.5,85.5C 162.5,86.5 162.5,87.5 162.5,88.5C 160.692,87.0821 160.025,85.0821 160.5,82.5 Z"/></g>
<g><path style="opacity:1" fill="#383838" d="M 174.5,88.5 C 170.5,88.5 166.5,88.5 162.5,88.5C 162.5,87.5 162.5,86.5 162.5,85.5C 166.5,85.5 170.5,85.5 174.5,85.5C 174.5,86.5 174.5,87.5 174.5,88.5 Z"/></g>
<g><path style="opacity:1" fill="#707070" d="M 198.5,94.5 C 199.5,94.5 200.5,94.5 201.5,94.5C 206.5,94.5 211.5,94.5 216.5,94.5C 216.5,95.5 216.5,96.5 216.5,97.5C 210.5,97.5 204.5,97.5 198.5,97.5C 198.5,96.5 198.5,95.5 198.5,94.5 Z"/></g>
<g><path style="opacity:1" fill="#c7c7c7" d="M 159.5,97.5 C 160.5,97.5 161.5,97.5 162.5,97.5C 168.5,97.5 174.5,97.5 180.5,97.5C 180.5,98.5 180.5,99.5 180.5,100.5C 173.5,100.5 166.5,100.5 159.5,100.5C 159.5,99.5 159.5,98.5 159.5,97.5 Z"/></g>
<g><path style="opacity:1" fill="#272727" d="M 221.5,32.5 C 221.833,32.5 222.167,32.5 222.5,32.5C 222.5,54.1667 222.5,75.8333 222.5,97.5C 222.5,98.5 222.5,99.5 222.5,100.5C 214.5,100.5 206.5,100.5 198.5,100.5C 198.5,99.5 198.5,98.5 198.5,97.5C 204.5,97.5 210.5,97.5 216.5,97.5C 216.5,96.5 216.5,95.5 216.5,94.5C 217.167,94.5 217.833,94.5 218.5,94.5C 218.833,94.5 219.167,94.5 219.5,94.5C 219.281,95.675 219.614,96.675 220.5,97.5C 221.5,75.8436 221.833,54.1769 221.5,32.5 Z"/></g>
<g><path style="opacity:1" fill="#9e9e9e" d="M 73.5,100.5 C 74.5,100.5 75.5,100.5 76.5,100.5C 83.5,100.5 90.5,100.5 97.5,100.5C 97.5,101.5 97.5,102.5 97.5,103.5C 96.5,103.5 95.5,103.5 94.5,103.5C 87.5,103.5 80.5,103.5 73.5,103.5C 73.5,102.5 73.5,101.5 73.5,100.5 Z"/></g>
<g><path style="opacity:1" fill="#d3d3d3" d="M 115.5,97.5 C 116.5,97.5 117.5,97.5 118.5,97.5C 124.5,97.5 130.5,97.5 136.5,97.5C 137.5,97.5 138.5,97.5 139.5,97.5C 139.5,98.5 139.5,99.5 139.5,100.5C 145.167,100.5 150.833,100.5 156.5,100.5C 156.5,101.5 156.5,102.5 156.5,103.5C 150.833,103.5 145.167,103.5 139.5,103.5C 139.5,106.5 139.5,109.5 139.5,112.5C 138.517,108.702 138.183,104.702 138.5,100.5C 130.833,100.5 123.167,100.5 115.5,100.5C 115.5,99.5 115.5,98.5 115.5,97.5 Z"/></g>
<g><path style="opacity:1" fill="#9e9e9e" d="M 198.5,100.5 C 206.5,100.5 214.5,100.5 222.5,100.5C 222.5,101.5 222.5,102.5 222.5,103.5C 215.5,103.5 208.5,103.5 201.5,103.5C 200.5,103.5 199.5,103.5 198.5,103.5C 198.5,102.5 198.5,101.5 198.5,100.5 Z"/></g>
<g><path style="opacity:1" fill="#767676" d="M 97.5,103.5 C 98.5,103.5 99.5,103.5 100.5,103.5C 100.5,114.5 100.5,125.5 100.5,136.5C 99.5,136.5 98.5,136.5 97.5,136.5C 97.5,135.5 97.5,134.5 97.5,133.5C 97.5,123.5 97.5,113.5 97.5,103.5 Z"/></g>
<g><path style="opacity:1" fill="#464646" d="M 192.5,59.5 C 193.5,59.5 194.5,59.5 195.5,59.5C 195.5,85.8333 195.5,112.167 195.5,138.5C 193.836,113.016 192.836,87.3496 192.5,61.5C 192.5,60.8333 192.5,60.1667 192.5,59.5 Z"/></g>
<g><path style="opacity:1" fill="#151515" d="M 198.5,55.5 C 198.5,68.5 198.5,81.5 198.5,94.5C 198.5,95.5 198.5,96.5 198.5,97.5C 198.5,98.5 198.5,99.5 198.5,100.5C 198.5,101.5 198.5,102.5 198.5,103.5C 198.5,114.5 198.5,125.5 198.5,136.5C 198.5,137.5 198.5,138.5 198.5,139.5C 197.5,139.5 196.5,139.5 195.5,139.5C 195.5,139.167 195.5,138.833 195.5,138.5C 195.5,112.167 195.5,85.8333 195.5,59.5C 194.5,59.5 193.5,59.5 192.5,59.5C 192.5,59.1667 192.5,58.8333 192.5,58.5C 192.5,57.5 192.5,56.5 192.5,55.5C 194.5,55.5 196.5,55.5 198.5,55.5 Z"/></g>
<g><path style="opacity:1" fill="#6a6a6a" d="M 156.5,103.5 C 156.975,106.082 156.308,108.082 154.5,109.5C 154.5,110.5 154.5,111.5 154.5,112.5C 149.5,112.5 144.5,112.5 139.5,112.5C 139.5,109.5 139.5,106.5 139.5,103.5C 145.167,103.5 150.833,103.5 156.5,103.5 Z"/></g>
<g><path style="opacity:1" fill="#262626" d="M 154.5,109.5 C 153.121,110.609 151.455,111.276 149.5,111.5C 147.076,110.979 144.743,110.312 142.5,109.5C 142.5,108.5 142.5,107.5 142.5,106.5C 146.5,106.5 150.5,106.5 154.5,106.5C 154.5,107.5 154.5,108.5 154.5,109.5 Z"/></g>
<g><path style="opacity:1" fill="#aeaeae" d="M 156.5,103.5 C 157.477,106.287 157.81,109.287 157.5,112.5C 156.5,112.5 155.5,112.5 154.5,112.5C 154.5,111.5 154.5,110.5 154.5,109.5C 156.308,108.082 156.975,106.082 156.5,103.5 Z"/></g>
<g><path style="opacity:1" fill="#d5d5d5" d="M 94.5,103.5 C 95.5,103.5 96.5,103.5 97.5,103.5C 97.5,113.5 97.5,123.5 97.5,133.5C 96.5,133.5 95.5,133.5 94.5,133.5C 94.5,123.5 94.5,113.5 94.5,103.5 Z"/></g>
<g><path style="opacity:1" fill="#aaaaaa" d="M 130.5,118.5 C 128.5,118.5 126.5,118.5 124.5,118.5C 124.5,119.5 124.5,120.5 124.5,121.5C 125.5,121.5 126.5,121.5 127.5,121.5C 127.5,122.5 127.5,123.5 127.5,124.5C 125.5,124.5 123.5,124.5 121.5,124.5C 121.5,121.5 121.5,118.5 121.5,115.5C 124.5,115.5 127.5,115.5 130.5,115.5C 130.5,116.5 130.5,117.5 130.5,118.5 Z"/></g>
<g><path style="opacity:1" fill="#a4a4a4" d="M 168.5,115.5 C 170.5,115.5 172.5,115.5 174.5,115.5C 174.5,118.5 174.5,121.5 174.5,124.5C 173.5,124.5 172.5,124.5 171.5,124.5C 171.5,122.5 171.5,120.5 171.5,118.5C 170.5,118.5 169.5,118.5 168.5,118.5C 168.5,117.5 168.5,116.5 168.5,115.5 Z"/></g>
<g><path style="opacity:1" fill="#d4d4d4" d="M 168.5,115.5 C 168.5,116.5 168.5,117.5 168.5,118.5C 167.5,118.5 166.5,118.5 165.5,118.5C 165.5,119.5 165.5,120.5 165.5,121.5C 163.5,121.5 161.5,121.5 159.5,121.5C 155.671,122.05 151.838,122.717 148,123.5C 145.049,123.117 142.215,122.451 139.5,121.5C 136.5,121.5 133.5,121.5 130.5,121.5C 130.5,120.5 130.5,119.5 130.5,118.5C 140.094,119.985 149.76,120.651 159.5,120.5C 159.5,119.5 159.5,118.5 159.5,117.5C 162.336,116.224 165.336,115.558 168.5,115.5 Z"/></g>
<g><path style="opacity:1" fill="#4d4d4d" d="M 130.5,118.5 C 130.5,119.5 130.5,120.5 130.5,121.5C 133.5,121.5 136.5,121.5 139.5,121.5C 139.5,122.5 139.5,123.5 139.5,124.5C 146.167,124.5 152.833,124.5 159.5,124.5C 159.5,123.5 159.5,122.5 159.5,121.5C 161.5,121.5 163.5,121.5 165.5,121.5C 165.5,120.5 165.5,119.5 165.5,118.5C 166.5,118.5 167.5,118.5 168.5,118.5C 169.5,118.5 170.5,118.5 171.5,118.5C 171.5,120.5 171.5,122.5 171.5,124.5C 169.5,124.5 167.5,124.5 165.5,124.5C 165.5,125.5 165.5,126.5 165.5,127.5C 164.5,127.5 163.5,127.5 162.5,127.5C 158.207,128.256 153.874,128.923 149.5,129.5C 142.01,128.255 134.676,126.588 127.5,124.5C 127.5,123.5 127.5,122.5 127.5,121.5C 126.5,121.5 125.5,121.5 124.5,121.5C 124.5,120.5 124.5,119.5 124.5,118.5C 126.5,118.5 128.5,118.5 130.5,118.5 Z"/></g>
<g><path style="opacity:1" fill="#939393" d="M 139.5,121.5 C 142.215,122.451 145.049,123.117 148,123.5C 151.838,122.717 155.671,122.05 159.5,121.5C 159.5,122.5 159.5,123.5 159.5,124.5C 152.833,124.5 146.167,124.5 139.5,124.5C 139.5,123.5 139.5,122.5 139.5,121.5 Z"/></g>
<g><path style="opacity:1" fill="#d7d7d7" d="M 171.5,124.5 C 170.69,129.628 167.69,131.628 162.5,130.5C 162.5,129.5 162.5,128.5 162.5,127.5C 163.5,127.5 164.5,127.5 165.5,127.5C 165.5,126.5 165.5,125.5 165.5,124.5C 167.5,124.5 169.5,124.5 171.5,124.5 Z"/></g>
<g><path style="opacity:1" fill="#808080" d="M 127.5,124.5 C 134.676,126.588 142.01,128.255 149.5,129.5C 153.874,128.923 158.207,128.256 162.5,127.5C 162.5,128.5 162.5,129.5 162.5,130.5C 152.833,130.5 143.167,130.5 133.5,130.5C 133.5,129.5 133.5,128.5 133.5,127.5C 131.5,127.5 129.5,127.5 127.5,127.5C 127.5,126.5 127.5,125.5 127.5,124.5 Z"/></g>
<g><path style="opacity:1" fill="#d8d8d8" d="M 94.5,133.5 C 65.0141,135.164 35.3474,136.164 5.5,136.5C 4.5,136.5 3.5,136.5 2.5,136.5C 2.5,135.5 2.5,134.5 2.5,133.5C 33.1667,133.5 63.8333,133.5 94.5,133.5 Z"/></g>
<g><path style="opacity:1" fill="#d8d8d8" d="M 201.5,133.5 C 232.167,133.5 262.833,133.5 293.5,133.5C 293.5,134.5 293.5,135.5 293.5,136.5C 292.5,136.5 291.5,136.5 290.5,136.5C 260.653,136.164 230.986,135.164 201.5,133.5 Z"/></g>
<g><path style="opacity:1" fill="#b2b2b2" d="M 94.5,133.5 C 95.5,133.5 96.5,133.5 97.5,133.5C 97.5,134.5 97.5,135.5 97.5,136.5C 96.5,136.5 95.5,136.5 94.5,136.5C 64.8333,136.5 35.1667,136.5 5.5,136.5C 35.3474,136.164 65.0141,135.164 94.5,133.5 Z"/></g>
<g><path style="opacity:1" fill="#b5b5b5" d="M 198.5,103.5 C 199.5,103.5 200.5,103.5 201.5,103.5C 201.5,113.5 201.5,123.5 201.5,133.5C 230.986,135.164 260.653,136.164 290.5,136.5C 260.833,136.5 231.167,136.5 201.5,136.5C 200.5,136.5 199.5,136.5 198.5,136.5C 198.5,125.5 198.5,114.5 198.5,103.5 Z"/></g>
<g><path style="opacity:1" fill="#7a7a7a" d="M 2.5,136.5 C 3.5,136.5 4.5,136.5 5.5,136.5C 35.1667,136.5 64.8333,136.5 94.5,136.5C 65.0141,138.164 35.3474,139.164 5.5,139.5C 4.5,139.5 3.5,139.5 2.5,139.5C 2.5,138.5 2.5,137.5 2.5,136.5 Z"/></g>
<g><path style="opacity:1" fill="#7a7a7a" d="M 201.5,136.5 C 231.167,136.5 260.833,136.5 290.5,136.5C 291.5,136.5 292.5,136.5 293.5,136.5C 293.5,137.5 293.5,138.5 293.5,139.5C 292.5,139.5 291.5,139.5 290.5,139.5C 260.653,139.164 230.986,138.164 201.5,136.5 Z"/></g>
<g><path style="opacity:1" fill="#626262" d="M 94.5,136.5 C 95.5,136.5 96.5,136.5 97.5,136.5C 97.5,137.5 97.5,138.5 97.5,139.5C 66.8333,139.5 36.1667,139.5 5.5,139.5C 35.3474,139.164 65.0141,138.164 94.5,136.5 Z"/></g>
<g><path style="opacity:1" fill="#616161" d="M 198.5,136.5 C 199.5,136.5 200.5,136.5 201.5,136.5C 230.986,138.164 260.653,139.164 290.5,139.5C 259.833,139.5 229.167,139.5 198.5,139.5C 198.5,138.5 198.5,137.5 198.5,136.5 Z"/></g>
<g><path style="opacity:1" fill="#e3e3e3" d="M -0.5,139.5 C 0.5,139.5 1.5,139.5 2.5,139.5C 2.5,169.167 2.5,198.833 2.5,228.5C 1.5,228.5 0.5,228.5 -0.5,228.5C -0.5,198.833 -0.5,169.167 -0.5,139.5 Z"/></g>
<g><path style="opacity:1" fill="#3e3e3e" d="M 195.5,139.5 C 196.5,139.5 197.5,139.5 198.5,139.5C 229.167,139.5 259.833,139.5 290.5,139.5C 290.5,141.167 290.5,142.833 290.5,144.5C 289.5,144.5 288.5,144.5 287.5,144.5C 287.5,143.5 287.5,142.5 287.5,141.5C 256.482,142.159 225.815,141.492 195.5,139.5 Z"/></g>
<g><path style="opacity:1" fill="#626262" d="M 103.5,139.5 C 103.5,140.5 103.5,141.5 103.5,142.5C 72.8333,142.5 42.1667,142.5 11.5,142.5C 39.9951,141.502 68.6618,141.169 97.5,141.5C 99.5,140.833 101.5,140.167 103.5,139.5 Z"/></g>
<g><path style="opacity:1" fill="#616161" d="M 192.5,61.5 C 192.836,87.3496 193.836,113.016 195.5,138.5C 195.5,138.833 195.5,139.167 195.5,139.5C 225.815,141.492 256.482,142.159 287.5,141.5C 287.5,142.5 287.5,143.5 287.5,144.5C 286.5,144.5 285.5,144.5 284.5,144.5C 255.185,142.508 225.519,141.841 195.5,142.5C 194.5,142.5 193.5,142.5 192.5,142.5C 192.5,115.5 192.5,88.5 192.5,61.5 Z"/></g>
<g><path style="opacity:1" fill="#434343" d="M 2.5,139.5 C 3.5,139.5 4.5,139.5 5.5,139.5C 36.1667,139.5 66.8333,139.5 97.5,139.5C 97.5,140.167 97.5,140.833 97.5,141.5C 68.6618,141.169 39.9951,141.502 11.5,142.5C 9.82124,142.285 8.82124,142.952 8.5,144.5C 8.5,170.5 8.5,196.5 8.5,222.5C 7.5,222.5 6.5,222.5 5.5,222.5C 5.5,224.5 5.5,226.5 5.5,228.5C 4.5,228.5 3.5,228.5 2.5,228.5C 2.5,198.833 2.5,169.167 2.5,139.5 Z"/></g>
<g><path style="opacity:1" fill="#9a9a9a" d="M 11.5,142.5 C 42.1667,142.5 72.8333,142.5 103.5,142.5C 103.5,143.167 103.5,143.833 103.5,144.5C 71.8333,144.5 40.1667,144.5 8.5,144.5C 8.82124,142.952 9.82124,142.285 11.5,142.5 Z"/></g>
<g><path style="opacity:1" fill="#9a9a9a" d="M 195.5,142.5 C 225.519,141.841 255.185,142.508 284.5,144.5C 254.481,145.159 224.815,144.492 195.5,142.5 Z"/></g>
<g><path style="opacity:1" fill="#c6c6c6" d="M 192.5,142.5 C 193.5,142.5 194.5,142.5 195.5,142.5C 224.815,144.492 254.481,145.159 284.5,144.5C 285.5,144.5 286.5,144.5 287.5,144.5C 287.5,144.833 287.5,145.167 287.5,145.5C 287.5,146.167 287.5,146.833 287.5,147.5C 286.222,147.218 285.222,146.551 284.5,145.5C 253.833,145.5 223.167,145.5 192.5,145.5C 192.5,144.5 192.5,143.5 192.5,142.5 Z"/></g>
<g><path style="opacity:1" fill="#4d4d4d" d="M 290.5,139.5 C 291.5,139.5 292.5,139.5 293.5,139.5C 293.5,167.167 293.5,194.833 293.5,222.5C 291.5,222.5 289.5,222.5 287.5,222.5C 287.5,222.167 287.5,221.833 287.5,221.5C 288.5,221.5 289.5,221.5 290.5,221.5C 290.833,196.824 290.5,172.158 289.5,147.5C 288.818,146.757 288.151,146.091 287.5,145.5C 287.5,145.167 287.5,144.833 287.5,144.5C 288.5,144.5 289.5,144.5 290.5,144.5C 290.5,142.833 290.5,141.167 290.5,139.5 Z"/></g>
<g><path style="opacity:1" fill="#5b5b5b" d="M 287.5,145.5 C 288.151,146.091 288.818,146.757 289.5,147.5C 290.5,172.158 290.833,196.824 290.5,221.5C 289.5,221.5 288.5,221.5 287.5,221.5C 287.5,196.833 287.5,172.167 287.5,147.5C 287.5,146.833 287.5,146.167 287.5,145.5 Z"/></g>
<g><path style="opacity:1" fill="#dcdcdc" d="M 284.5,145.5 C 285.222,146.551 286.222,147.218 287.5,147.5C 287.5,172.167 287.5,196.833 287.5,221.5C 287.5,221.833 287.5,222.167 287.5,222.5C 286.5,222.5 285.5,222.5 284.5,222.5C 273.833,222.5 263.167,222.5 252.5,222.5C 251.5,222.5 250.5,222.5 249.5,222.5C 249.5,212.5 249.5,202.5 249.5,192.5C 250.5,192.5 251.5,192.5 252.5,192.5C 252.5,202.167 252.5,211.833 252.5,221.5C 263.167,221.5 273.833,221.5 284.5,221.5C 284.5,196.167 284.5,170.833 284.5,145.5 Z"/></g>
<g><path style="opacity:1" fill="#c1c1c1" d="M 8.5,144.5 C 40.1667,144.5 71.8333,144.5 103.5,144.5C 73.0045,145.498 42.3379,145.831 11.5,145.5C 11.5,170.833 11.5,196.167 11.5,221.5C 11.5,221.833 11.5,222.167 11.5,222.5C 10.5,222.5 9.5,222.5 8.5,222.5C 8.5,196.5 8.5,170.5 8.5,144.5 Z"/></g>
<g><path style="opacity:1" fill="#a3a3a3" d="M 293.5,139.5 C 294.5,139.5 295.5,139.5 296.5,139.5C 296.5,169.167 296.5,198.833 296.5,228.5C 295.5,228.5 294.5,228.5 293.5,228.5C 293.5,226.5 293.5,224.5 293.5,222.5C 293.5,194.833 293.5,167.167 293.5,139.5 Z"/></g>
<g><path style="opacity:1" fill="#959595" d="M 50.5,195.5 C 50.8266,204.682 50.4933,213.682 49.5,222.5C 48.8333,222.5 48.1667,222.5 47.5,222.5C 47.5,213.5 47.5,204.5 47.5,195.5C 48.5,195.5 49.5,195.5 50.5,195.5 Z"/></g>
<g><path style="opacity:1" fill="#dddddd" d="M 50.5,192.5 C 50.5,193.5 50.5,194.5 50.5,195.5C 49.5,195.5 48.5,195.5 47.5,195.5C 47.5,204.5 47.5,213.5 47.5,222.5C 47.1667,222.5 46.8333,222.5 46.5,222.5C 34.8333,222.5 23.1667,222.5 11.5,222.5C 11.5,222.167 11.5,221.833 11.5,221.5C 23.1667,221.5 34.8333,221.5 46.5,221.5C 46.5,211.833 46.5,202.167 46.5,192.5C 47.8333,192.5 49.1667,192.5 50.5,192.5 Z"/></g>
<g><path style="opacity:1" fill="#272727" d="M 8.5,222.5 C 8.5,223.5 8.5,224.5 8.5,225.5C 9.5,225.5 10.5,225.5 11.5,225.5C 11.5,226.5 11.5,227.5 11.5,228.5C 9.5,228.5 7.5,228.5 5.5,228.5C 5.5,226.5 5.5,224.5 5.5,222.5C 6.5,222.5 7.5,222.5 8.5,222.5 Z"/></g>
<g><path style="opacity:1" fill="#878787" d="M 8.5,222.5 C 9.5,222.5 10.5,222.5 11.5,222.5C 16.9597,223.829 22.793,224.496 29,224.5C 35.207,224.496 41.0403,223.829 46.5,222.5C 46.8333,222.5 47.1667,222.5 47.5,222.5C 48.1667,222.5 48.8333,222.5 49.5,222.5C 49.7148,224.179 49.0481,225.179 47.5,225.5C 35.5,225.5 23.5,225.5 11.5,225.5C 10.5,225.5 9.5,225.5 8.5,225.5C 8.5,224.5 8.5,223.5 8.5,222.5 Z"/></g>
<g><path style="opacity:1" fill="#a9a9a9" d="M 11.5,222.5 C 23.1667,222.5 34.8333,222.5 46.5,222.5C 41.0403,223.829 35.207,224.496 29,224.5C 22.793,224.496 16.9597,223.829 11.5,222.5 Z"/></g>
<g><path style="opacity:1" fill="#8c8c8c" d="M 243.5,192.5 C 245.5,192.5 247.5,192.5 249.5,192.5C 249.5,202.5 249.5,212.5 249.5,222.5C 250.5,222.5 251.5,222.5 252.5,222.5C 257.456,223.828 262.789,224.495 268.5,224.5C 274.211,224.495 279.544,223.828 284.5,222.5C 285.5,222.5 286.5,222.5 287.5,222.5C 287.5,223.5 287.5,224.5 287.5,225.5C 274.833,225.5 262.167,225.5 249.5,225.5C 248.596,224.791 248.263,223.791 248.5,222.5C 248.5,213.5 248.5,204.5 248.5,195.5C 246.833,195.5 245.167,195.5 243.5,195.5C 243.5,194.5 243.5,193.5 243.5,192.5 Z"/></g>
<g><path style="opacity:1" fill="#aaaaaa" d="M 252.5,222.5 C 263.167,222.5 273.833,222.5 284.5,222.5C 279.544,223.828 274.211,224.495 268.5,224.5C 262.789,224.495 257.456,223.828 252.5,222.5 Z"/></g>
<g><path style="opacity:1" fill="#474747" d="M 11.5,225.5 C 23.5,225.5 35.5,225.5 47.5,225.5C 48.1667,227.5 48.8333,229.5 49.5,231.5C 48.8333,231.5 48.1667,231.5 47.5,231.5C 33.3035,231.161 19.3035,230.161 5.5,228.5C 7.5,228.5 9.5,228.5 11.5,228.5C 11.5,227.5 11.5,226.5 11.5,225.5 Z"/></g>
<g><path style="opacity:1" fill="#1f1f1f" d="M 248.5,222.5 C 248.263,223.791 248.596,224.791 249.5,225.5C 249.5,227.167 249.5,228.833 249.5,230.5C 249.5,230.833 249.5,231.167 249.5,231.5C 249.167,231.5 248.833,231.5 248.5,231.5C 247.5,231.5 246.5,231.5 245.5,231.5C 245.5,228.5 245.5,225.5 245.5,222.5C 246.5,222.5 247.5,222.5 248.5,222.5 Z"/></g>
<g><path style="opacity:1" fill="#3f3f3f" d="M 287.5,222.5 C 289.5,222.5 291.5,222.5 293.5,222.5C 293.5,224.5 293.5,226.5 293.5,228.5C 292.5,228.5 291.5,228.5 290.5,228.5C 277.456,227.853 264.789,228.52 252.5,230.5C 251.5,230.5 250.5,230.5 249.5,230.5C 249.5,228.833 249.5,227.167 249.5,225.5C 262.167,225.5 274.833,225.5 287.5,225.5C 287.5,224.5 287.5,223.5 287.5,222.5 Z"/></g>
<g><path style="opacity:1" fill="#525252" d="M 290.5,228.5 C 278.211,230.48 265.544,231.147 252.5,230.5C 264.789,228.52 277.456,227.853 290.5,228.5 Z"/></g>
<g><path style="opacity:1" fill="#8b8b8b" d="M 2.5,228.5 C 3.5,228.5 4.5,228.5 5.5,228.5C 19.3035,230.161 33.3035,231.161 47.5,231.5C 32.5,231.5 17.5,231.5 2.5,231.5C 2.5,230.5 2.5,229.5 2.5,228.5 Z"/></g>
<g><path style="opacity:1" fill="#888888" d="M 290.5,228.5 C 291.5,228.5 292.5,228.5 293.5,228.5C 293.5,229.5 293.5,230.5 293.5,231.5C 279.833,231.5 266.167,231.5 252.5,231.5C 251.5,231.5 250.5,231.5 249.5,231.5C 249.5,231.167 249.5,230.833 249.5,230.5C 250.5,230.5 251.5,230.5 252.5,230.5C 265.544,231.147 278.211,230.48 290.5,228.5 Z"/></g>
<g><path style="opacity:1" fill="#fefefe" d="M -0.5,228.5 C 0.5,228.5 1.5,228.5 2.5,228.5C 2.5,229.5 2.5,230.5 2.5,231.5C 2.5,232.5 2.5,233.5 2.5,234.5C 17.1667,234.5 31.8333,234.5 46.5,234.5C 46.5,256.167 46.5,277.833 46.5,299.5C 30.8333,299.5 15.1667,299.5 -0.5,299.5C -0.5,275.833 -0.5,252.167 -0.5,228.5 Z"/></g>
<g><path style="opacity:1" fill="#dfdfdf" d="M 2.5,231.5 C 17.5,231.5 32.5,231.5 47.5,231.5C 47.5,254.167 47.5,276.833 47.5,299.5C 47.1667,299.5 46.8333,299.5 46.5,299.5C 46.5,277.833 46.5,256.167 46.5,234.5C 31.8333,234.5 17.1667,234.5 2.5,234.5C 2.5,233.5 2.5,232.5 2.5,231.5 Z"/></g>
<g><path style="opacity:1" fill="#e4e4e4" d="M 55.5,192.5 C 56.5,192.5 57.5,192.5 58.5,192.5C 58.8829,228.147 58.8829,263.814 58.5,299.5C 57.5,299.5 56.5,299.5 55.5,299.5C 55.5,263.833 55.5,228.167 55.5,192.5 Z"/></g>
<g><path style="opacity:1" fill="#bababa" d="M 243.5,192.5 C 243.5,193.5 243.5,194.5 243.5,195.5C 243.5,230.167 243.5,264.833 243.5,299.5C 242.5,299.5 241.5,299.5 240.5,299.5C 240.5,263.833 240.5,228.167 240.5,192.5C 241.5,192.5 242.5,192.5 243.5,192.5 Z"/></g>
<g><path style="opacity:1" fill="#e4e4e4" d="M 252.5,231.5 C 266.167,231.5 279.833,231.5 293.5,231.5C 293.5,232.5 293.5,233.5 293.5,234.5C 279.833,234.5 266.167,234.5 252.5,234.5C 252.5,233.5 252.5,232.5 252.5,231.5 Z"/></g>
<g><path style="opacity:1" fill="#464646" d="M 243.5,195.5 C 245.167,195.5 246.833,195.5 248.5,195.5C 248.5,204.5 248.5,213.5 248.5,222.5C 247.5,222.5 246.5,222.5 245.5,222.5C 245.5,225.5 245.5,228.5 245.5,231.5C 246.5,231.5 247.5,231.5 248.5,231.5C 248.5,254.167 248.5,276.833 248.5,299.5C 246.833,299.5 245.167,299.5 243.5,299.5C 243.5,264.833 243.5,230.167 243.5,195.5 Z"/></g>
<g><path style="opacity:1" fill="#959595" d="M 47.5,231.5 C 48.1667,231.5 48.8333,231.5 49.5,231.5C 50.4975,253.994 50.8308,276.661 50.5,299.5C 49.5,299.5 48.5,299.5 47.5,299.5C 47.5,276.833 47.5,254.167 47.5,231.5 Z"/></g>
<g><path style="opacity:1" fill="#101010" d="M 50.5,195.5 C 52.4933,229.817 53.16,264.484 52.5,299.5C 51.8333,299.5 51.1667,299.5 50.5,299.5C 50.8308,276.661 50.4975,253.994 49.5,231.5C 48.8333,229.5 48.1667,227.5 47.5,225.5C 49.0481,225.179 49.7148,224.179 49.5,222.5C 50.4933,213.682 50.8266,204.682 50.5,195.5 Z"/></g>
<g><path style="opacity:1" fill="#595959" d="M 50.5,192.5 C 52.1667,192.5 53.8333,192.5 55.5,192.5C 55.5,228.167 55.5,263.833 55.5,299.5C 54.5,299.5 53.5,299.5 52.5,299.5C 53.16,264.484 52.4933,229.817 50.5,195.5C 50.5,194.5 50.5,193.5 50.5,192.5 Z"/></g>
<g><path style="opacity:1" fill="#c0c0c0" d="M 248.5,231.5 C 248.833,231.5 249.167,231.5 249.5,231.5C 250.5,231.5 251.5,231.5 252.5,231.5C 252.5,232.5 252.5,233.5 252.5,234.5C 251.503,255.994 251.169,277.66 251.5,299.5C 250.5,299.5 249.5,299.5 248.5,299.5C 248.5,276.833 248.5,254.167 248.5,231.5 Z"/></g>
</svg>
