<?xml version="1.0" encoding="UTF-8"?>
<!DOCTYPE svg PUBLIC "-//W3C//DTD SVG 1.1//EN" "http://www.w3.org/Graphics/SVG/1.1/DTD/svg11.dtd">
<svg xmlns="http://www.w3.org/2000/svg" version="1.1" width="75px" height="75px" style="shape-rendering:geometricPrecision; text-rendering:geometricPrecision; image-rendering:optimizeQuality; fill-rule:evenodd; clip-rule:evenodd" xmlns:xlink="http://www.w3.org/1999/xlink">
<g><path style="opacity:0.981" fill="#fbfbfb" d="M -0.5,-0.5 C 24.5,-0.5 49.5,-0.5 74.5,-0.5C 74.5,24.5 74.5,49.5 74.5,74.5C 49.5,74.5 24.5,74.5 -0.5,74.5C -0.5,49.5 -0.5,24.5 -0.5,-0.5 Z"/></g>
<g><path style="opacity:1" fill="#3b3b3b" d="M 23.5,5.5 C 32.5,5.5 41.5,5.5 50.5,5.5C 50.5,9.83333 50.5,14.1667 50.5,18.5C 49.8333,18.5 49.5,18.1667 49.5,17.5C 49.5,13.8333 49.5,10.1667 49.5,6.5C 41.1667,6.5 32.8333,6.5 24.5,6.5C 23.8333,6.5 23.5,6.16667 23.5,5.5 Z"/></g>
<g><path style="opacity:1" fill="#757575" d="M 23.5,5.5 C 23.5,6.16667 23.8333,6.5 24.5,6.5C 24.5,10.1667 24.5,13.8333 24.5,17.5C 25.5,17.5 26.5,17.5 27.5,17.5C 27.5,18.1667 27.5,18.8333 27.5,19.5C 25.8561,19.7135 24.3561,19.3802 23,18.5C 22.1864,13.9796 22.353,9.64631 23.5,5.5 Z"/></g>
<g><path style="opacity:1" fill="#e8e8e8" d="M 24.5,6.5 C 32.8333,6.5 41.1667,6.5 49.5,6.5C 49.5,10.1667 49.5,13.8333 49.5,17.5C 48.5,17.5 47.5,17.5 46.5,17.5C 46.5,15.1667 46.5,12.8333 46.5,10.5C 40.1667,10.5 33.8333,10.5 27.5,10.5C 27.5,12.8333 27.5,15.1667 27.5,17.5C 26.5,17.5 25.5,17.5 24.5,17.5C 24.5,13.8333 24.5,10.1667 24.5,6.5 Z"/></g>
<g><path style="opacity:1" fill="#f9f9f9" d="M 30.5,18.5 C 31.5676,19.4345 32.901,19.7678 34.5,19.5C 35.0431,19.56 35.3764,19.8933 35.5,20.5C 31.6962,22.4275 32.1962,23.4275 37,23.5C 41.8038,23.4275 42.3038,22.4275 38.5,20.5C 40.0453,19.5481 41.712,19.2148 43.5,19.5C 43.1706,22.2282 43.8372,24.5615 45.5,26.5C 51.1667,26.5 56.8333,26.5 62.5,26.5C 62.5,31.5 62.5,36.5 62.5,41.5C 60.1667,41.5 57.8333,41.5 55.5,41.5C 55.5,39.8333 55.5,38.1667 55.5,36.5C 55.44,35.9569 55.1067,35.6236 54.5,35.5C 53.1796,43.6572 53.1796,51.6572 54.5,59.5C 57.1667,59.5 59.8333,59.5 62.5,59.5C 62.5,61.8333 62.5,64.1667 62.5,66.5C 57.1667,66.5 51.8333,66.5 46.5,66.5C 46.8064,63.6146 46.4731,60.9479 45.5,58.5C 39.5,58.5 33.5,58.5 27.5,58.5C 27.5,61.1667 27.5,63.8333 27.5,66.5C 22.1667,66.5 16.8333,66.5 11.5,66.5C 11.5,64.1667 11.5,61.8333 11.5,59.5C 14.1667,59.5 16.8333,59.5 19.5,59.5C 19.6664,51.8261 19.4997,44.1594 19,36.5C 18.8019,38.3817 18.3019,40.0484 17.5,41.5C 15.5,41.5 13.5,41.5 11.5,41.5C 11.5,36.5 11.5,31.5 11.5,26.5C 17.1667,26.5 22.8333,26.5 28.5,26.5C 29.1667,23.8333 29.8333,21.1667 30.5,18.5 Z"/></g>
<g><path style="opacity:1" fill="#555555" d="M 49.5,17.5 C 49.5,18.1667 49.8333,18.5 50.5,18.5C 49.4324,19.4345 48.099,19.7678 46.5,19.5C 46.5,21.5 46.5,23.5 46.5,25.5C 52.1667,25.5 57.8333,25.5 63.5,25.5C 63.5,31.5 63.5,37.5 63.5,43.5C 60.8333,43.5 58.1667,43.5 55.5,43.5C 55.5,48.5 55.5,53.5 55.5,58.5C 58.1667,58.5 60.8333,58.5 63.5,58.5C 63.5,61.5 63.5,64.5 63.5,67.5C 57.5,67.5 51.5,67.5 45.5,67.5C 45.5,66.8333 45.8333,66.5 46.5,66.5C 51.8333,66.5 57.1667,66.5 62.5,66.5C 62.5,64.1667 62.5,61.8333 62.5,59.5C 59.8333,59.5 57.1667,59.5 54.5,59.5C 54.1746,51.6484 54.508,43.9818 55.5,36.5C 55.5,38.1667 55.5,39.8333 55.5,41.5C 57.8333,41.5 60.1667,41.5 62.5,41.5C 62.5,36.5 62.5,31.5 62.5,26.5C 56.8333,26.5 51.1667,26.5 45.5,26.5C 45.5,21.5 45.5,16.5 45.5,11.5C 39.8333,11.5 34.1667,11.5 28.5,11.5C 28.5,16.5 28.5,21.5 28.5,26.5C 22.8333,26.5 17.1667,26.5 11.5,26.5C 11.5,31.5 11.5,36.5 11.5,41.5C 10.5,36.9321 10.1666,31.5988 10.5,25.5C 16.1667,25.5 21.8333,25.5 27.5,25.5C 27.5,23.5 27.5,21.5 27.5,19.5C 27.5,18.8333 27.5,18.1667 27.5,17.5C 27.5,15.1667 27.5,12.8333 27.5,10.5C 33.8333,10.5 40.1667,10.5 46.5,10.5C 46.5,12.8333 46.5,15.1667 46.5,17.5C 47.5,17.5 48.5,17.5 49.5,17.5 Z"/></g>
<g><path style="opacity:1" fill="#d1d1d1" d="M 45.5,26.5 C 43.8372,24.5615 43.1706,22.2282 43.5,19.5C 41.712,19.2148 40.0453,19.5481 38.5,20.5C 42.3038,22.4275 41.8038,23.4275 37,23.5C 32.1962,23.4275 31.6962,22.4275 35.5,20.5C 35.3764,19.8933 35.0431,19.56 34.5,19.5C 35.3414,17.6208 35.6747,15.6208 35.5,13.5C 31.0293,13.6724 30.6959,14.5057 34.5,16C 33.6753,17.6883 32.6753,17.8549 31.5,16.5C 30.7025,16.9569 30.3691,17.6236 30.5,18.5C 29.8333,21.1667 29.1667,23.8333 28.5,26.5C 28.5,21.5 28.5,16.5 28.5,11.5C 34.1667,11.5 39.8333,11.5 45.5,11.5C 45.5,16.5 45.5,21.5 45.5,26.5 Z"/></g>
<g><path style="opacity:1" fill="#737373" d="M 34.5,19.5 C 32.901,19.7678 31.5676,19.4345 30.5,18.5C 30.3691,17.6236 30.7025,16.9569 31.5,16.5C 32.6753,17.8549 33.6753,17.6883 34.5,16C 30.6959,14.5057 31.0293,13.6724 35.5,13.5C 35.6747,15.6208 35.3414,17.6208 34.5,19.5 Z"/></g>
<g><path style="opacity:1" fill="#252525" d="M 38.5,16.5 C 38.8333,16.5 39.1667,16.5 39.5,16.5C 40.5,17.1667 41.5,17.8333 42.5,18.5C 40.5168,18.8432 39.1834,18.1765 38.5,16.5 Z"/></g>
<g><path style="opacity:1" fill="#878787" d="M 39.5,16.5 C 40.9778,16.238 42.3112,16.5713 43.5,17.5C 43.3764,18.1067 43.0431,18.44 42.5,18.5C 41.5,17.8333 40.5,17.1667 39.5,16.5 Z"/></g>
<g><path style="opacity:1" fill="#8f8f8f" d="M 39.5,16.5 C 39.1667,16.5 38.8333,16.5 38.5,16.5C 38.5,15.5 38.5,14.5 38.5,13.5C 43.2745,13.6701 43.6078,14.6701 39.5,16.5 Z"/></g>
<g><path style="opacity:1" fill="#989898" d="M 10.5,25.5 C 10.1666,31.5988 10.5,36.9321 11.5,41.5C 13.5,41.5 15.5,41.5 17.5,41.5C 17.5,42.1667 17.5,42.8333 17.5,43.5C 14.8333,43.5 12.1667,43.5 9.5,43.5C 9.17711,37.31 9.51045,31.31 10.5,25.5 Z"/></g>
<g><path style="opacity:1" fill="#515151" d="M 39.5,40.5 C 39.631,41.2389 39.4643,41.9056 39,42.5C 38.5814,41.3279 37.9147,40.3279 37,39.5C 37.1085,40.7688 36.9418,41.7688 36.5,42.5C 34.0155,41.0359 34.0155,39.3692 36.5,37.5C 38.2131,37.8793 39.2131,38.8793 39.5,40.5 Z"/></g>
<g><path style="opacity:1" fill="#949494" d="M 39.5,40.5 C 42.4594,43.0406 42.1261,44.5406 38.5,45C 38.8333,44.6667 39.1667,44.3333 39.5,44C 38.2625,43.7679 37.2625,43.2679 36.5,42.5C 36.9418,41.7688 37.1085,40.7688 37,39.5C 37.9147,40.3279 38.5814,41.3279 39,42.5C 39.4643,41.9056 39.631,41.2389 39.5,40.5 Z"/></g>
<g><path style="opacity:1" fill="#a0a0a0" d="M 55.5,36.5 C 54.508,43.9818 54.1746,51.6484 54.5,59.5C 53.1796,51.6572 53.1796,43.6572 54.5,35.5C 55.1067,35.6236 55.44,35.9569 55.5,36.5 Z"/></g>
<g><path style="opacity:1" fill="#858585" d="M 45.5,58.5 C 46.4731,60.9479 46.8064,63.6146 46.5,66.5C 45.8333,66.5 45.5,66.8333 45.5,67.5C 44.5318,65.3926 44.1984,63.0593 44.5,60.5C 45.3382,60.1583 45.6716,59.4916 45.5,58.5 Z"/></g>
<g><path style="opacity:1" fill="#4f4f4f" d="M 45.5,58.5 C 45.6716,59.4916 45.3382,60.1583 44.5,60.5C 39.3595,59.5119 34.0262,59.1786 28.5,59.5C 28.5,62.1667 28.5,64.8333 28.5,67.5C 22.5,67.5 16.5,67.5 10.5,67.5C 10.5,64.5 10.5,61.5 10.5,58.5C 13.1667,58.5 15.8333,58.5 18.5,58.5C 18.8205,53.3054 18.4872,48.3054 17.5,43.5C 17.5,42.8333 17.5,42.1667 17.5,41.5C 18.3019,40.0484 18.8019,38.3817 19,36.5C 19.4997,44.1594 19.6664,51.8261 19.5,59.5C 16.8333,59.5 14.1667,59.5 11.5,59.5C 11.5,61.8333 11.5,64.1667 11.5,66.5C 16.8333,66.5 22.1667,66.5 27.5,66.5C 27.5,63.8333 27.5,61.1667 27.5,58.5C 33.5,58.5 39.5,58.5 45.5,58.5 Z"/></g>
</svg>
