<?xml version="1.0" encoding="UTF-8"?>
<!DOCTYPE svg PUBLIC "-//W3C//DTD SVG 1.1//EN" "http://www.w3.org/Graphics/SVG/1.1/DTD/svg11.dtd">
<svg xmlns="http://www.w3.org/2000/svg" version="1.1" width="75px" height="75px" style="shape-rendering:geometricPrecision; text-rendering:geometricPrecision; image-rendering:optimizeQuality; fill-rule:evenodd; clip-rule:evenodd" xmlns:xlink="http://www.w3.org/1999/xlink">
<g><path style="opacity:0.978" fill="#fcfcfc" d="M -0.5,-0.5 C 24.5,-0.5 49.5,-0.5 74.5,-0.5C 74.5,24.5 74.5,49.5 74.5,74.5C 49.5,74.5 24.5,74.5 -0.5,74.5C -0.5,49.5 -0.5,24.5 -0.5,-0.5 Z"/></g>
<g><path style="opacity:1" fill="#535353" d="M 63.5,42.5 C 62.5084,42.6716 61.8417,42.3382 61.5,41.5C 62.8236,36.7663 62.8236,31.9329 61.5,27C 55.8431,26.5006 50.1764,26.3339 44.5,26.5C 44.5,21.5 44.5,16.5 44.5,11.5C 39.1667,11.5 33.8333,11.5 28.5,11.5C 28.5,16.5 28.5,21.5 28.5,26.5C 22.8236,26.3339 17.1569,26.5006 11.5,27C 10.1764,31.9329 10.1764,36.7663 11.5,41.5C 11.1583,42.3382 10.4916,42.6716 9.5,42.5C 9.5,36.8333 9.5,31.1667 9.5,25.5C 15.5,25.5 21.5,25.5 27.5,25.5C 27.5,23.5 27.5,21.5 27.5,19.5C 25.8333,19.5 24.1667,19.5 22.5,19.5C 22.5,14.8333 22.5,10.1667 22.5,5.5C 31.8333,5.5 41.1667,5.5 50.5,5.5C 50.5,10.1667 50.5,14.8333 50.5,19.5C 48.8333,19.5 47.1667,19.5 45.5,19.5C 45.5,21.5 45.5,23.5 45.5,25.5C 51.5,25.5 57.5,25.5 63.5,25.5C 63.5,31.1667 63.5,36.8333 63.5,42.5 Z"/></g>
<g><path style="opacity:1" fill="#c2c2c2" d="M 48.5,17.5 C 48.5,14.1667 48.5,10.8333 48.5,7.5C 40.5,7.5 32.5,7.5 24.5,7.5C 24.5,10.8333 24.5,14.1667 24.5,17.5C 23.5184,14.0381 23.185,10.3714 23.5,6.5C 32.1667,6.5 40.8333,6.5 49.5,6.5C 49.815,10.3714 49.4816,14.0381 48.5,17.5 Z"/></g>
<g><path style="opacity:1" fill="#ebebeb" d="M 48.5,17.5 C 47.5,17.5 46.5,17.5 45.5,17.5C 45.5,15.1667 45.5,12.8333 45.5,10.5C 39.5,10.5 33.5,10.5 27.5,10.5C 27.5,12.8333 27.5,15.1667 27.5,17.5C 26.5,17.5 25.5,17.5 24.5,17.5C 24.5,14.1667 24.5,10.8333 24.5,7.5C 32.5,7.5 40.5,7.5 48.5,7.5C 48.5,10.8333 48.5,14.1667 48.5,17.5 Z"/></g>
<g><path style="opacity:1" fill="#f5f5f5" d="M 61.5,41.5 C 59.5,41.5 57.5,41.5 55.5,41.5C 55.7852,39.712 55.4519,38.0453 54.5,36.5C 53.3352,44.145 53.1685,51.8117 54,59.5C 56.3806,60.435 58.8806,60.7683 61.5,60.5C 61.5,62.1667 61.5,63.8333 61.5,65.5C 56.5,65.5 51.5,65.5 46.5,65.5C 46.8016,62.9407 46.4682,60.6074 45.5,58.5C 39.5,58.5 33.5,58.5 27.5,58.5C 26.5318,60.6074 26.1984,62.9407 26.5,65.5C 21.5,65.5 16.5,65.5 11.5,65.5C 11.5,63.8333 11.5,62.1667 11.5,60.5C 14.1667,60.5 16.8333,60.5 19.5,60.5C 19.8312,52.1401 19.4979,43.8068 18.5,35.5C 17.5344,37.396 17.2011,39.396 17.5,41.5C 15.5,41.5 13.5,41.5 11.5,41.5C 10.1764,36.7663 10.1764,31.9329 11.5,27C 17.1569,26.5006 22.8236,26.3339 28.5,26.5C 28.5,21.5 28.5,16.5 28.5,11.5C 33.8333,11.5 39.1667,11.5 44.5,11.5C 44.5,16.5 44.5,21.5 44.5,26.5C 50.1764,26.3339 55.8431,26.5006 61.5,27C 62.8236,31.9329 62.8236,36.7663 61.5,41.5 Z"/></g>
<g><path style="opacity:1" fill="#979797" d="M 34.5,15.5 C 33.5,15.5 32.5,15.5 31.5,15.5C 31.5,16.5 31.5,17.5 31.5,18.5C 30.5489,17.0813 30.2155,15.4147 30.5,13.5C 32.4832,13.1568 33.8166,13.8235 34.5,15.5 Z"/></g>
<g><path style="opacity:1" fill="#343434" d="M 34.5,15.5 C 34.5,16.5 34.5,17.5 34.5,18.5C 33.5,18.5 32.5,18.5 31.5,18.5C 31.5,17.5 31.5,16.5 31.5,15.5C 32.5,15.5 33.5,15.5 34.5,15.5 Z"/></g>
<g><path style="opacity:1" fill="#979797" d="M 41.5,18.5 C 41.5,17.5 41.5,16.5 41.5,15.5C 40.5,15.5 39.5,15.5 38.5,15.5C 39.1834,13.8235 40.5168,13.1568 42.5,13.5C 42.7845,15.4147 42.4511,17.0813 41.5,18.5 Z"/></g>
<g><path style="opacity:1" fill="#303030" d="M 38.5,15.5 C 39.5,15.5 40.5,15.5 41.5,15.5C 41.5,16.5 41.5,17.5 41.5,18.5C 40.5,18.5 39.5,18.5 38.5,18.5C 38.5,17.5 38.5,16.5 38.5,15.5 Z"/></g>
<g><path style="opacity:1" fill="#979797" d="M 34.5,15.5 C 35.1577,16.3984 35.8243,17.3984 36.5,18.5C 37.1757,17.3984 37.8423,16.3984 38.5,15.5C 38.5,16.5 38.5,17.5 38.5,18.5C 37.1667,22.5 35.8333,22.5 34.5,18.5C 34.5,17.5 34.5,16.5 34.5,15.5 Z"/></g>
<g><path style="opacity:1" fill="#9e9e9e" d="M 34.5,34.5 C 34.2011,32.396 34.5344,30.396 35.5,28.5C 35.8333,29.5 36.1667,30.5 36.5,31.5C 36.3601,33.0296 35.6935,34.0296 34.5,34.5 Z"/></g>
<g><path style="opacity:1" fill="#c2c2c2" d="M 31.5,32.5 C 30.5,32.5 29.5,32.5 28.5,32.5C 28.5,33.5 28.5,34.5 28.5,35.5C 27.1932,34.8466 25.8599,34.1799 24.5,33.5C 23.1667,32.1667 23.1667,30.8333 24.5,29.5C 25.1973,31.3845 26.1973,31.7178 27.5,30.5C 29.0255,30.9943 30.3588,31.661 31.5,32.5 Z"/></g>
<g><path style="opacity:1" fill="#606060" d="M 46.5,34.5 C 48.0847,35.0024 48.5847,36.0024 48,37.5C 46.9614,36.7562 46.4614,35.7562 46.5,34.5 Z"/></g>
<g><path style="opacity:1" fill="#6a6a6a" d="M 31.5,32.5 C 32.5,33.1667 33.5,33.8333 34.5,34.5C 34.5,35.8333 35.1667,36.5 36.5,36.5C 40.0017,32.1651 42.1683,32.8318 43,38.5C 44.8265,37.1587 45.9931,37.6587 46.5,40C 46.2409,41.2613 45.5742,42.2613 44.5,43C 47.3033,45.2217 47.1366,47.0551 44,48.5C 42.5272,48.0969 41.1939,47.4303 40,46.5C 39.5045,48.4727 39.3379,50.4727 39.5,52.5C 35.5149,52.5601 33.8482,50.5601 34.5,46.5C 32.1191,47.4196 29.7857,47.4196 27.5,46.5C 26.8076,47.0253 26.3076,47.6919 26,48.5C 25.6667,48.1667 25.3333,47.8333 25,47.5C 26.0764,44.5422 27.9097,41.8755 30.5,39.5C 29.8201,38.1401 29.1534,36.8068 28.5,35.5C 28.5,34.5 28.5,33.5 28.5,32.5C 29.5,32.5 30.5,32.5 31.5,32.5 Z"/></g>
<g><path style="opacity:1" fill="#3b3b3b" d="M 36.5,36.5 C 36.8333,36.5 37.1667,36.5 37.5,36.5C 38.9607,39.4819 39.294,42.4819 38.5,45.5C 38.1667,45.5 37.8333,45.5 37.5,45.5C 36.3478,44.375 35.3478,44.375 34.5,45.5C 33.8333,45.5 33.5,45.1667 33.5,44.5C 33.2587,42.1137 33.9254,40.1137 35.5,38.5C 35.8333,37.8333 36.1667,37.1667 36.5,36.5 Z"/></g>
<g><path style="opacity:1" fill="#e0e0e0" d="M 35.5,38.5 C 33.9254,40.1137 33.2587,42.1137 33.5,44.5C 31.834,45.6664 30.1673,45.6664 28.5,44.5C 32.0733,41.526 32.4066,38.1927 29.5,34.5C 30.0016,33.479 30.6683,33.3123 31.5,34C 32.7332,35.6667 34.0665,37.1667 35.5,38.5 Z"/></g>
<g><path style="opacity:1" fill="#e4e4e4" d="M 38.5,45.5 C 39.294,42.4819 38.9607,39.4819 37.5,36.5C 38.4584,36.0472 39.2917,35.3805 40,34.5C 40.1922,36.5767 40.6922,38.5767 41.5,40.5C 46.2863,39.0909 46.6196,39.7576 42.5,42.5C 43.1667,43.5 43.8333,44.5 44.5,45.5C 42.5988,46.2309 40.5988,46.2309 38.5,45.5 Z"/></g>
<g><path style="opacity:1" fill="#7c7c7c" d="M 11.5,60.5 C 14.1178,59.944 16.1178,59.2773 17.5,58.5C 17.5,53.5 17.5,48.5 17.5,43.5C 14.6146,43.8064 11.9479,43.4731 9.5,42.5C 10.4916,42.6716 11.1583,42.3382 11.5,41.5C 13.5,41.5 15.5,41.5 17.5,41.5C 17.2011,39.396 17.5344,37.396 18.5,35.5C 19.4979,43.8068 19.8312,52.1401 19.5,60.5C 16.8333,60.5 14.1667,60.5 11.5,60.5 Z"/></g>
<g><path style="opacity:1" fill="#7a7a7a" d="M 61.5,41.5 C 61.8417,42.3382 62.5084,42.6716 63.5,42.5C 61.0521,43.4731 58.3854,43.8064 55.5,43.5C 55.5,48.5 55.5,53.5 55.5,58.5C 58.3854,58.1936 61.0521,58.5269 63.5,59.5C 62.8333,59.5 62.5,59.8333 62.5,60.5C 62.1667,60.5 61.8333,60.5 61.5,60.5C 58.8806,60.7683 56.3806,60.435 54,59.5C 53.1685,51.8117 53.3352,44.145 54.5,36.5C 55.4519,38.0453 55.7852,39.712 55.5,41.5C 57.5,41.5 59.5,41.5 61.5,41.5 Z"/></g>
<g><path style="opacity:1" fill="#e2e2e2" d="M 34.5,45.5 C 35.3478,44.375 36.3478,44.375 37.5,45.5C 38.5192,47.5405 38.5192,49.5405 37.5,51.5C 36.1993,49.556 35.1993,47.556 34.5,45.5 Z"/></g>
<g><path style="opacity:1" fill="#747474" d="M 47.5,45.5 C 48.3764,45.3691 49.0431,45.7025 49.5,46.5C 48.6744,47.451 48.5078,48.451 49,49.5C 49.6543,48.3044 50.1543,48.3044 50.5,49.5C 49.1866,51.8853 47.5199,52.0519 45.5,50C 47.0368,48.8904 47.7035,47.3904 47.5,45.5 Z"/></g>
<g><path style="opacity:1" fill="#d2d2d2" d="M 45.5,58.5 C 46.4682,60.6074 46.8016,62.9407 46.5,65.5C 51.5,65.5 56.5,65.5 61.5,65.5C 61.5,63.8333 61.5,62.1667 61.5,60.5C 61.8333,60.5 62.1667,60.5 62.5,60.5C 62.5,62.5 62.5,64.5 62.5,66.5C 56.8333,66.5 51.1667,66.5 45.5,66.5C 45.5,63.8333 45.5,61.1667 45.5,58.5 Z"/></g>
<g><path style="opacity:1" fill="#505050" d="M 17.5,58.5 C 16.1178,59.2773 14.1178,59.944 11.5,60.5C 10.5386,62.2646 10.2053,64.2646 10.5,66.5C 16.1667,66.5 21.8333,66.5 27.5,66.5C 27.5,63.8333 27.5,61.1667 27.5,58.5C 33.5,58.5 39.5,58.5 45.5,58.5C 45.5,61.1667 45.5,63.8333 45.5,66.5C 51.1667,66.5 56.8333,66.5 62.5,66.5C 62.5,64.5 62.5,62.5 62.5,60.5C 62.5,59.8333 62.8333,59.5 63.5,59.5C 63.5,62.1667 63.5,64.8333 63.5,67.5C 57.1667,67.5 50.8333,67.5 44.5,67.5C 44.5,64.8333 44.5,62.1667 44.5,59.5C 39.1667,59.5 33.8333,59.5 28.5,59.5C 28.5,62.1667 28.5,64.8333 28.5,67.5C 22.1667,67.5 15.8333,67.5 9.5,67.5C 9.5,64.5 9.5,61.5 9.5,58.5C 12.1667,58.5 14.8333,58.5 17.5,58.5 Z"/></g>
<g><path style="opacity:1" fill="#d2d2d2" d="M 27.5,58.5 C 27.5,61.1667 27.5,63.8333 27.5,66.5C 21.8333,66.5 16.1667,66.5 10.5,66.5C 10.2053,64.2646 10.5386,62.2646 11.5,60.5C 11.5,62.1667 11.5,63.8333 11.5,65.5C 16.5,65.5 21.5,65.5 26.5,65.5C 26.1984,62.9407 26.5318,60.6074 27.5,58.5 Z"/></g>
</svg>
