<?xml version="1.0" encoding="UTF-8"?>
<!DOCTYPE svg PUBLIC "-//W3C//DTD SVG 1.1//EN" "http://www.w3.org/Graphics/SVG/1.1/DTD/svg11.dtd">
<svg xmlns="http://www.w3.org/2000/svg" version="1.1" width="75px" height="75px" style="shape-rendering:geometricPrecision; text-rendering:geometricPrecision; image-rendering:optimizeQuality; fill-rule:evenodd; clip-rule:evenodd" xmlns:xlink="http://www.w3.org/1999/xlink">
<g><path style="opacity:0.981" fill="#fcfcfc" d="M -0.5,-0.5 C 24.5,-0.5 49.5,-0.5 74.5,-0.5C 74.5,24.5 74.5,49.5 74.5,74.5C 49.5,74.5 24.5,74.5 -0.5,74.5C -0.5,49.5 -0.5,24.5 -0.5,-0.5 Z"/></g>
<g><path style="opacity:1" fill="#373737" d="M 23.5,5.5 C 32.5,5.5 41.5,5.5 50.5,5.5C 50.5,6.16667 50.1667,6.5 49.5,6.5C 40.9832,6.17395 32.6499,6.50728 24.5,7.5C 23.6618,7.15829 23.3284,6.49162 23.5,5.5 Z"/></g>
<g><path style="opacity:1" fill="#7e7e7e" d="M 23.5,5.5 C 23.3284,6.49162 23.6618,7.15829 24.5,7.5C 24.5,10.8333 24.5,14.1667 24.5,17.5C 25.5,17.5 26.5,17.5 27.5,17.5C 27.5,18.1667 27.5,18.8333 27.5,19.5C 25.8561,19.7135 24.3561,19.3802 23,18.5C 22.1864,13.9796 22.353,9.64631 23.5,5.5 Z"/></g>
<g><path style="opacity:1" fill="#e8e8e8" d="M 49.5,6.5 C 49.5,10.1667 49.5,13.8333 49.5,17.5C 48.5,17.5 47.5,17.5 46.5,17.5C 46.5,15.1667 46.5,12.8333 46.5,10.5C 40.1667,10.5 33.8333,10.5 27.5,10.5C 27.5,12.8333 27.5,15.1667 27.5,17.5C 26.5,17.5 25.5,17.5 24.5,17.5C 24.5,14.1667 24.5,10.8333 24.5,7.5C 32.6499,6.50728 40.9832,6.17395 49.5,6.5 Z"/></g>
<g><path style="opacity:1" fill="#7b7b7b" d="M 50.5,5.5 C 51.647,9.64631 51.8136,13.9796 51,18.5C 49.6439,19.3802 48.1439,19.7135 46.5,19.5C 46.5,18.8333 46.5,18.1667 46.5,17.5C 47.5,17.5 48.5,17.5 49.5,17.5C 49.5,13.8333 49.5,10.1667 49.5,6.5C 50.1667,6.5 50.5,6.16667 50.5,5.5 Z"/></g>
<g><path style="opacity:1" fill="#f9f9f9" d="M 31.5,13.5 C 32.0065,14.8589 33.0065,15.8589 34.5,16.5C 33.1667,16.8333 31.8333,17.1667 30.5,17.5C 31.3202,19.1112 32.6536,19.7778 34.5,19.5C 35.0431,19.56 35.3764,19.8933 35.5,20.5C 31.6962,22.4275 32.1962,23.4275 37,23.5C 38.5,23.1667 40,22.8333 41.5,22.5C 40.624,21.7492 39.624,21.2492 38.5,21C 39.056,20.6174 39.3893,20.1174 39.5,19.5C 40.8333,19.5 42.1667,19.5 43.5,19.5C 44.1667,21.8333 44.8333,24.1667 45.5,26.5C 51.358,26.1778 57.0247,26.5111 62.5,27.5C 62.5,32.1667 62.5,36.8333 62.5,41.5C 60.1667,41.5 57.8333,41.5 55.5,41.5C 54.3756,44.0873 54.0422,50.0873 54.5,59.5C 57.1667,59.5 59.8333,59.5 62.5,59.5C 62.5,61.8333 62.5,64.1667 62.5,66.5C 57.1667,66.5 51.8333,66.5 46.5,66.5C 46.5,63.8333 46.5,61.1667 46.5,58.5C 40.1667,58.5 33.8333,58.5 27.5,58.5C 26.5318,60.6074 26.1984,62.9407 26.5,65.5C 21.8333,65.5 17.1667,65.5 12.5,65.5C 12.5,63.8333 12.5,62.1667 12.5,60.5C 15.0593,60.8016 17.3926,60.4682 19.5,59.5C 19.9578,50.0873 19.6244,44.0873 18.5,41.5C 16.1667,41.5 13.8333,41.5 11.5,41.5C 11.5,36.5 11.5,31.5 11.5,26.5C 17.1667,26.5 22.8333,26.5 28.5,26.5C 29.1665,21.9834 29.8331,17.3167 30.5,12.5C 31.1067,12.6236 31.44,12.9569 31.5,13.5 Z"/></g>
<g><path style="opacity:1" fill="#808080" d="M 63.5,25.5 C 64.6517,30.9846 64.8184,36.6513 64,42.5C 61.2809,43.4438 58.4475,43.7771 55.5,43.5C 55.5,42.8333 55.5,42.1667 55.5,41.5C 57.8333,41.5 60.1667,41.5 62.5,41.5C 62.5,36.8333 62.5,32.1667 62.5,27.5C 63.3382,27.1583 63.6716,26.4916 63.5,25.5 Z"/></g>
<g><path style="opacity:1" fill="#545454" d="M 46.5,17.5 C 46.5,18.1667 46.5,18.8333 46.5,19.5C 46.5,21.5 46.5,23.5 46.5,25.5C 52.1667,25.5 57.8333,25.5 63.5,25.5C 63.6716,26.4916 63.3382,27.1583 62.5,27.5C 57.0247,26.5111 51.358,26.1778 45.5,26.5C 45.5,21.5 45.5,16.5 45.5,11.5C 39.8333,11.5 34.1667,11.5 28.5,11.5C 28.5,16.5 28.5,21.5 28.5,26.5C 22.8333,26.5 17.1667,26.5 11.5,26.5C 11.5,31.5 11.5,36.5 11.5,41.5C 13.8333,41.5 16.1667,41.5 18.5,41.5C 19.6244,44.0873 19.9578,50.0873 19.5,59.5C 16.8333,59.5 14.1667,59.5 11.5,59.5C 11.5,61.8333 11.5,64.1667 11.5,66.5C 16.8333,66.5 22.1667,66.5 27.5,66.5C 27.5,63.8333 27.5,61.1667 27.5,58.5C 33.8333,58.5 40.1667,58.5 46.5,58.5C 46.5,61.1667 46.5,63.8333 46.5,66.5C 51.8333,66.5 57.1667,66.5 62.5,66.5C 62.5,64.1667 62.5,61.8333 62.5,59.5C 59.8333,59.5 57.1667,59.5 54.5,59.5C 54.0422,50.0873 54.3756,44.0873 55.5,41.5C 55.5,42.1667 55.5,42.8333 55.5,43.5C 55.5,48.5 55.5,53.5 55.5,58.5C 58.5,58.5 61.5,58.5 64.5,58.5C 64.5,61.5 64.5,64.5 64.5,67.5C 58.1667,67.5 51.8333,67.5 45.5,67.5C 47.0831,60.251 44.2498,57.5843 37,59.5C 29.7502,57.5843 26.9169,60.251 28.5,67.5C 22.5,67.5 16.5,67.5 10.5,67.5C 10.5,64.5 10.5,61.5 10.5,58.5C 13.1667,58.5 15.8333,58.5 18.5,58.5C 18.5,53.5 18.5,48.5 18.5,43.5C 15.8333,43.5 13.1667,43.5 10.5,43.5C 10.5,37.5 10.5,31.5 10.5,25.5C 16.1667,25.5 21.8333,25.5 27.5,25.5C 27.5,23.5 27.5,21.5 27.5,19.5C 27.5,18.8333 27.5,18.1667 27.5,17.5C 27.5,15.1667 27.5,12.8333 27.5,10.5C 33.8333,10.5 40.1667,10.5 46.5,10.5C 46.5,12.8333 46.5,15.1667 46.5,17.5 Z"/></g>
<g><path style="opacity:1" fill="#dadada" d="M 27.5,58.5 C 27.5,61.1667 27.5,63.8333 27.5,66.5C 22.1667,66.5 16.8333,66.5 11.5,66.5C 11.5,64.1667 11.5,61.8333 11.5,59.5C 14.1667,59.5 16.8333,59.5 19.5,59.5C 17.3926,60.4682 15.0593,60.8016 12.5,60.5C 12.5,62.1667 12.5,63.8333 12.5,65.5C 17.1667,65.5 21.8333,65.5 26.5,65.5C 26.1984,62.9407 26.5318,60.6074 27.5,58.5 Z"/></g>
<g><path style="opacity:1" fill="#515151" d="M 35.5,42.5 C 36.3864,41.2241 37.3864,41.2241 38.5,42.5C 37.5754,43.5624 36.5754,43.5624 35.5,42.5 Z"/></g>
<g><path style="opacity:1" fill="#d2d2d2" d="M 45.5,26.5 C 44.8333,24.1667 44.1667,21.8333 43.5,19.5C 43.5,17.5 43.5,15.5 43.5,13.5C 39.7429,13.2864 39.0762,14.2864 41.5,16.5C 40.6034,16.6691 39.6034,17.0024 38.5,17.5C 38.8627,18.1835 39.1961,18.8501 39.5,19.5C 39.3893,20.1174 39.056,20.6174 38.5,21C 39.624,21.2492 40.624,21.7492 41.5,22.5C 40,22.8333 38.5,23.1667 37,23.5C 32.1962,23.4275 31.6962,22.4275 35.5,20.5C 35.3764,19.8933 35.0431,19.56 34.5,19.5C 35.3414,17.6208 35.6747,15.6208 35.5,13.5C 34.1667,13.5 32.8333,13.5 31.5,13.5C 31.44,12.9569 31.1067,12.6236 30.5,12.5C 29.8331,17.3167 29.1665,21.9834 28.5,26.5C 28.5,21.5 28.5,16.5 28.5,11.5C 34.1667,11.5 39.8333,11.5 45.5,11.5C 45.5,16.5 45.5,21.5 45.5,26.5 Z"/></g>
<g><path style="opacity:1" fill="#858585" d="M 43.5,19.5 C 42.1667,19.5 40.8333,19.5 39.5,19.5C 39.1961,18.8501 38.8627,18.1835 38.5,17.5C 39.6034,17.0024 40.6034,16.6691 41.5,16.5C 39.0762,14.2864 39.7429,13.2864 43.5,13.5C 43.5,15.5 43.5,17.5 43.5,19.5 Z"/></g>
<g><path style="opacity:1" fill="#767676" d="M 31.5,13.5 C 32.8333,13.5 34.1667,13.5 35.5,13.5C 35.6747,15.6208 35.3414,17.6208 34.5,19.5C 32.6536,19.7778 31.3202,19.1112 30.5,17.5C 31.8333,17.1667 33.1667,16.8333 34.5,16.5C 33.0065,15.8589 32.0065,14.8589 31.5,13.5 Z"/></g>
</svg>
