<?xml version="1.0" encoding="UTF-8"?>
<!DOCTYPE svg PUBLIC "-//W3C//DTD SVG 1.1//EN" "http://www.w3.org/Graphics/SVG/1.1/DTD/svg11.dtd">
<svg xmlns="http://www.w3.org/2000/svg" version="1.1" width="75px" height="75px" style="shape-rendering:geometricPrecision; text-rendering:geometricPrecision; image-rendering:optimizeQuality; fill-rule:evenodd; clip-rule:evenodd" xmlns:xlink="http://www.w3.org/1999/xlink">
<g><path style="opacity:0.978" fill="#fcfcfc" d="M -0.5,-0.5 C 24.5,-0.5 49.5,-0.5 74.5,-0.5C 74.5,24.5 74.5,49.5 74.5,74.5C 49.5,74.5 24.5,74.5 -0.5,74.5C -0.5,49.5 -0.5,24.5 -0.5,-0.5 Z"/></g>
<g><path style="opacity:1" fill="#373737" d="M 23.5,5.5 C 32.8955,4.86227 41.8955,5.52894 50.5,7.5C 50.1667,7.5 49.8333,7.5 49.5,7.5C 41.1667,6.16667 32.8333,6.16667 24.5,7.5C 23.6618,7.15829 23.3284,6.49162 23.5,5.5 Z"/></g>
<g><path style="opacity:1" fill="#ededed" d="M 49.5,7.5 C 49.5,10.8333 49.5,14.1667 49.5,17.5C 48.5,17.5 47.5,17.5 46.5,17.5C 46.5,15.1667 46.5,12.8333 46.5,10.5C 40.1667,10.5 33.8333,10.5 27.5,10.5C 27.5,12.8333 27.5,15.1667 27.5,17.5C 26.5,17.5 25.5,17.5 24.5,17.5C 24.5,14.1667 24.5,10.8333 24.5,7.5C 32.8333,6.16667 41.1667,6.16667 49.5,7.5 Z"/></g>
<g><path style="opacity:1" fill="#727272" d="M 23.5,5.5 C 23.3284,6.49162 23.6618,7.15829 24.5,7.5C 24.5,10.8333 24.5,14.1667 24.5,17.5C 25.5,17.5 26.5,17.5 27.5,17.5C 27.5,18.1667 27.5,18.8333 27.5,19.5C 25.8561,19.7135 24.3561,19.3802 23,18.5C 22.1864,13.9796 22.353,9.64631 23.5,5.5 Z"/></g>
<g><path style="opacity:1" fill="#f5f5f5" d="M 46.5,66.5 C 46.8064,63.6146 46.4731,60.9479 45.5,58.5C 39.5,58.5 33.5,58.5 27.5,58.5C 27.5,61.1667 27.5,63.8333 27.5,66.5C 22.1667,66.5 16.8333,66.5 11.5,66.5C 11.5,64.1667 11.5,61.8333 11.5,59.5C 14.1667,59.5 16.8333,59.5 19.5,59.5C 19.9578,50.0873 19.6244,44.0873 18.5,41.5C 16.1667,41.5 13.8333,41.5 11.5,41.5C 11.5,36.5 11.5,31.5 11.5,26.5C 17.1667,26.5 22.8333,26.5 28.5,26.5C 28.5,21.5 28.5,16.5 28.5,11.5C 34.1667,11.5 39.8333,11.5 45.5,11.5C 45.5,16.5 45.5,21.5 45.5,26.5C 51.1667,26.5 56.8333,26.5 62.5,26.5C 62.5,31.5 62.5,36.5 62.5,41.5C 60.1667,41.5 57.8333,41.5 55.5,41.5C 54.391,44.4288 54.0576,50.7622 54.5,60.5C 57.1667,60.5 59.8333,60.5 62.5,60.5C 62.5,62.5 62.5,64.5 62.5,66.5C 57.1667,66.5 51.8333,66.5 46.5,66.5 Z"/></g>
<g><path style="opacity:1" fill="#686868" d="M 49.5,7.5 C 49.8333,7.5 50.1667,7.5 50.5,7.5C 50.5,11.5 50.5,15.5 50.5,19.5C 49.1667,19.5 47.8333,19.5 46.5,19.5C 46.5,21.5 46.5,23.5 46.5,25.5C 52.5,25.5 58.5,25.5 64.5,25.5C 64.6661,31.1764 64.4994,36.8431 64,42.5C 61.2809,43.4438 58.4475,43.7771 55.5,43.5C 55.5,48.5 55.5,53.5 55.5,58.5C 58.5,58.5 61.5,58.5 64.5,58.5C 64.5,61.5 64.5,64.5 64.5,67.5C 58.1667,67.5 51.8333,67.5 45.5,67.5C 45.5,66.8333 45.8333,66.5 46.5,66.5C 51.8333,66.5 57.1667,66.5 62.5,66.5C 62.5,64.5 62.5,62.5 62.5,60.5C 59.8333,60.5 57.1667,60.5 54.5,60.5C 54.0576,50.7622 54.391,44.4288 55.5,41.5C 57.8333,41.5 60.1667,41.5 62.5,41.5C 62.5,36.5 62.5,31.5 62.5,26.5C 56.8333,26.5 51.1667,26.5 45.5,26.5C 45.5,21.5 45.5,16.5 45.5,11.5C 39.8333,11.5 34.1667,11.5 28.5,11.5C 28.5,16.5 28.5,21.5 28.5,26.5C 22.8333,26.5 17.1667,26.5 11.5,26.5C 11.5,31.5 11.5,36.5 11.5,41.5C 11.5,42.1667 11.1667,42.5 10.5,42.5C 9.51114,37.0247 9.1778,31.358 9.5,25.5C 15.5,25.5 21.5,25.5 27.5,25.5C 27.5,23.5 27.5,21.5 27.5,19.5C 27.5,18.8333 27.5,18.1667 27.5,17.5C 27.5,15.1667 27.5,12.8333 27.5,10.5C 33.8333,10.5 40.1667,10.5 46.5,10.5C 46.5,12.8333 46.5,15.1667 46.5,17.5C 47.5,17.5 48.5,17.5 49.5,17.5C 49.5,14.1667 49.5,10.8333 49.5,7.5 Z"/></g>
<g><path style="opacity:1" fill="#909090" d="M 31.5,18.5 C 32.8333,18.5 34.1667,18.5 35.5,18.5C 36.5,18.5 37.5,18.5 38.5,18.5C 39.8333,18.5 41.1667,18.5 42.5,18.5C 40.6924,19.3246 38.8591,20.3246 37,21.5C 35.1409,20.3246 33.3076,19.3246 31.5,18.5 Z"/></g>
<g><path style="opacity:1" fill="#353535" d="M 38.5,16.5 C 40.4832,16.1568 41.8166,16.8235 42.5,18.5C 41.1667,18.5 39.8333,18.5 38.5,18.5C 38.5,17.8333 38.5,17.1667 38.5,16.5 Z"/></g>
<g><path style="opacity:1" fill="#333333" d="M 35.5,16.5 C 35.5,17.1667 35.5,17.8333 35.5,18.5C 34.1667,18.5 32.8333,18.5 31.5,18.5C 32.1834,16.8235 33.5168,16.1568 35.5,16.5 Z"/></g>
<g><path style="opacity:1" fill="#838383" d="M 35.5,16.5 C 33.5168,16.1568 32.1834,16.8235 31.5,18.5C 30.5489,17.0813 30.2155,15.4147 30.5,13.5C 32.1667,13.5 33.8333,13.5 35.5,13.5C 35.5,14.5 35.5,15.5 35.5,16.5 Z"/></g>
<g><path style="opacity:1" fill="#929292" d="M 42.5,18.5 C 41.8166,16.8235 40.4832,16.1568 38.5,16.5C 38.5,15.5 38.5,14.5 38.5,13.5C 40.1667,13.5 41.8333,13.5 43.5,13.5C 43.7845,15.4147 43.4511,17.0813 42.5,18.5 Z"/></g>
<g><path style="opacity:1" fill="#717171" d="M 32.5,41.5 C 33.2216,41.9175 33.7216,42.5842 34,43.5C 34.414,43.0426 34.914,42.7093 35.5,42.5C 36.9684,44.3329 38.6351,44.6662 40.5,43.5C 39.2889,42.2798 39.2889,41.1131 40.5,40C 39.9056,39.5357 39.2389,39.369 38.5,39.5C 36.7179,38.2804 34.7179,37.6138 32.5,37.5C 32.0825,36.7784 31.4158,36.2784 30.5,36C 33.1246,34.837 35.7913,33.6703 38.5,32.5C 38.8333,32.8333 39.1667,33.1667 39.5,33.5C 38.624,34.2508 37.624,34.7508 36.5,35C 38.9377,36.182 41.271,37.5153 43.5,39C 42.009,41.0969 41.009,43.4303 40.5,46C 37.9671,45.3889 35.3004,44.8889 32.5,44.5C 32.5,43.5 32.5,42.5 32.5,41.5 Z"/></g>
<g><path style="opacity:1" fill="#494949" d="M 32.5,37.5 C 34.7179,37.6138 36.7179,38.2804 38.5,39.5C 38.5299,40.4972 38.0299,41.1639 37,41.5C 35.8319,40.4911 34.6652,39.4911 33.5,38.5C 33.2129,39.2003 32.8795,39.8669 32.5,40.5C 31.1667,39.5 31.1667,38.5 32.5,37.5 Z"/></g>
<g><path style="opacity:1" fill="#c6c6c6" d="M 38.5,39.5 C 39.2389,39.369 39.9056,39.5357 40.5,40C 39.2889,41.1131 39.2889,42.2798 40.5,43.5C 38.6351,44.6662 36.9684,44.3329 35.5,42.5C 34.914,42.7093 34.414,43.0426 34,43.5C 33.7216,42.5842 33.2216,41.9175 32.5,41.5C 32.5,41.1667 32.5,40.8333 32.5,40.5C 32.8795,39.8669 33.2129,39.2003 33.5,38.5C 34.6652,39.4911 35.8319,40.4911 37,41.5C 38.0299,41.1639 38.5299,40.4972 38.5,39.5 Z"/></g>
<g><path style="opacity:1" fill="#7e7e7e" d="M 11.5,41.5 C 13.8333,41.5 16.1667,41.5 18.5,41.5C 18.5,42.1667 18.5,42.8333 18.5,43.5C 15.6146,43.8064 12.9479,43.4731 10.5,42.5C 11.1667,42.5 11.5,42.1667 11.5,41.5 Z"/></g>
<g><path style="opacity:1" fill="#9c9c9c" d="M 42.5,45.5 C 43.7736,46.1894 43.7736,47.0228 42.5,48C 40.8541,49.4014 39.1875,49.568 37.5,48.5C 39.5435,47.9348 41.2102,46.9348 42.5,45.5 Z"/></g>
<g><path style="opacity:1" fill="#8e8e8e" d="M 45.5,58.5 C 46.4731,60.9479 46.8064,63.6146 46.5,66.5C 45.8333,66.5 45.5,66.8333 45.5,67.5C 44.5318,65.3926 44.1984,63.0593 44.5,60.5C 39.5,60.5 34.5,60.5 29.5,60.5C 34.8333,59.8333 40.1667,59.1667 45.5,58.5 Z"/></g>
<g><path style="opacity:1" fill="#575757" d="M 45.5,58.5 C 40.1667,59.1667 34.8333,59.8333 29.5,60.5C 28.5318,62.6074 28.1984,64.9407 28.5,67.5C 22.1667,67.5 15.8333,67.5 9.5,67.5C 9.5,64.5 9.5,61.5 9.5,58.5C 12.5,58.5 15.5,58.5 18.5,58.5C 18.5,53.5 18.5,48.5 18.5,43.5C 18.5,42.8333 18.5,42.1667 18.5,41.5C 19.6244,44.0873 19.9578,50.0873 19.5,59.5C 16.8333,59.5 14.1667,59.5 11.5,59.5C 11.5,61.8333 11.5,64.1667 11.5,66.5C 16.8333,66.5 22.1667,66.5 27.5,66.5C 27.5,63.8333 27.5,61.1667 27.5,58.5C 33.5,58.5 39.5,58.5 45.5,58.5 Z"/></g>
</svg>
