<?xml version="1.0" encoding="UTF-8"?>
<!DOCTYPE svg PUBLIC "-//W3C//DTD SVG 1.1//EN" "http://www.w3.org/Graphics/SVG/1.1/DTD/svg11.dtd">
<svg xmlns="http://www.w3.org/2000/svg" version="1.1" width="75px" height="75px" style="shape-rendering:geometricPrecision; text-rendering:geometricPrecision; image-rendering:optimizeQuality; fill-rule:evenodd; clip-rule:evenodd" xmlns:xlink="http://www.w3.org/1999/xlink">
<g><path style="opacity:0.995" fill="#fcfcfc" d="M -0.5,-0.5 C 24.5,-0.5 49.5,-0.5 74.5,-0.5C 74.5,24.5 74.5,49.5 74.5,74.5C 49.5,74.5 24.5,74.5 -0.5,74.5C -0.5,49.5 -0.5,24.5 -0.5,-0.5 Z"/></g>
<g><path style="opacity:1" fill="#555555" d="M 50.5,18.5 C 49.8333,18.5 49.5,18.1667 49.5,17.5C 49.5,13.8333 49.5,10.1667 49.5,6.5C 40.8333,6.5 32.1667,6.5 23.5,6.5C 23.5,10.1667 23.5,13.8333 23.5,17.5C 24.8333,17.5 26.1667,17.5 27.5,17.5C 27.5,15.1667 27.5,12.8333 27.5,10.5C 28.4916,10.3284 29.1583,10.6618 29.5,11.5C 28.5128,16.3054 28.1795,21.3054 28.5,26.5C 22.5,26.5 16.5,26.5 10.5,26.5C 10.5,31.5 10.5,36.5 10.5,41.5C 10.5,42.1667 10.1667,42.5 9.5,42.5C 9.5,36.8333 9.5,31.1667 9.5,25.5C 15.5,25.5 21.5,25.5 27.5,25.5C 27.5,23.5 27.5,21.5 27.5,19.5C 25.8333,19.5 24.1667,19.5 22.5,19.5C 22.5,14.8333 22.5,10.1667 22.5,5.5C 31.8333,5.5 41.1667,5.5 50.5,5.5C 50.5,9.83333 50.5,14.1667 50.5,18.5 Z"/></g>
<g><path style="opacity:1" fill="#ededed" d="M 49.5,17.5 C 48.5,17.5 47.5,17.5 46.5,17.5C 46.7683,14.8806 46.435,12.3806 45.5,10C 39.3188,9.18079 33.3188,9.34745 27.5,10.5C 27.5,12.8333 27.5,15.1667 27.5,17.5C 26.1667,17.5 24.8333,17.5 23.5,17.5C 23.5,13.8333 23.5,10.1667 23.5,6.5C 32.1667,6.5 40.8333,6.5 49.5,6.5C 49.5,10.1667 49.5,13.8333 49.5,17.5 Z"/></g>
<g><path style="opacity:1" fill="#d2d2d2" d="M 29.5,11.5 C 34.6946,11.1795 39.6946,11.5128 44.5,12.5C 43.1667,13.1667 42.1667,14.1667 41.5,15.5C 40.1667,15.5 38.8333,15.5 37.5,15.5C 37.719,16.675 37.3857,17.675 36.5,18.5C 35.8243,17.3984 35.1577,16.3984 34.5,15.5C 33.5,15.5 32.5,15.5 31.5,15.5C 31.2172,14.7109 30.7172,14.0442 30,13.5C 29.1864,18.0204 29.353,22.3537 30.5,26.5C 30.0113,27.9952 29.3446,29.3285 28.5,30.5C 28.5,29.5 28.5,28.5 28.5,27.5C 22.8333,27.5 17.1667,27.5 11.5,27.5C 11.5,32.1667 11.5,36.8333 11.5,41.5C 11.1667,41.5 10.8333,41.5 10.5,41.5C 10.5,36.5 10.5,31.5 10.5,26.5C 16.5,26.5 22.5,26.5 28.5,26.5C 28.1795,21.3054 28.5128,16.3054 29.5,11.5 Z"/></g>
<g><path style="opacity:1" fill="#6b6b6b" d="M 9.5,25.5 C 8.21009,26.0577 7.37675,27.0577 7,28.5C 6.2211,26.0937 7.05443,24.427 9.5,23.5C 10.463,23.9698 10.463,24.6365 9.5,25.5 Z"/></g>
<g><path style="opacity:1" fill="#c7c7c7" d="M 45.5,26.5 C 51.1667,26.5 56.8333,26.5 62.5,26.5C 62.8205,31.6946 62.4872,36.6946 61.5,41.5C 61.5,36.8333 61.5,32.1667 61.5,27.5C 55.9738,27.8214 50.6405,27.4881 45.5,26.5 Z"/></g>
<g><path style="opacity:1" fill="#676767" d="M 30.5,26.5 C 33.8338,28.8379 36.5004,31.8379 38.5,35.5C 36.7041,34.2073 35.0375,32.7073 33.5,31C 32.552,30.5172 31.552,30.3505 30.5,30.5C 31.3471,33.1595 31.8471,35.8262 32,38.5C 29.7432,40.0456 27.5765,41.7123 25.5,43.5C 27.5668,44.1341 29.4002,45.1341 31,46.5C 31.498,49.4816 31.6646,52.4816 31.5,55.5C 30.6829,53.0314 30.1829,50.3647 30,47.5C 27.9361,46.4086 25.7695,46.2419 23.5,47C 24.6956,47.6543 24.6956,48.1543 23.5,48.5C 22.0089,47.6519 21.3422,46.3186 21.5,44.5C 21.7015,40.5761 22.2015,40.5761 23,44.5C 25.1793,41.9891 27.6793,39.8224 30.5,38C 28.1568,36.9939 26.6568,35.4939 26,33.5C 27.3374,34.7649 28.8374,35.2649 30.5,35C 28.9632,33.8904 28.2965,32.3904 28.5,30.5C 29.3446,29.3285 30.0113,27.9952 30.5,26.5 Z"/></g>
<g><path style="opacity:1" fill="#6e6e6e" d="M 27.5,10.5 C 33.3188,9.34745 39.3188,9.18079 45.5,10C 46.435,12.3806 46.7683,14.8806 46.5,17.5C 47.5,17.5 48.5,17.5 49.5,17.5C 49.5,18.1667 49.8333,18.5 50.5,18.5C 49.4324,19.4345 48.099,19.7678 46.5,19.5C 46.5,21.5 46.5,23.5 46.5,25.5C 52.1667,25.5 57.8333,25.5 63.5,25.5C 63.5,31.5 63.5,37.5 63.5,43.5C 60.8333,43.5 58.1667,43.5 55.5,43.5C 55.5,48.5 55.5,53.5 55.5,58.5C 58.1667,58.5 60.8333,58.5 63.5,58.5C 63.5,61.8333 63.5,65.1667 63.5,68.5C 57.4908,68.6662 51.4908,68.4995 45.5,68C 44.565,65.6194 44.2317,63.1194 44.5,60.5C 45.2773,61.8822 45.944,63.8822 46.5,66.5C 51.8333,66.5 57.1667,66.5 62.5,66.5C 62.5,64.5 62.5,62.5 62.5,60.5C 59.5525,60.7771 56.7191,60.4438 54,59.5C 53.1685,51.8117 53.3352,44.145 54.5,36.5C 55.4519,38.0453 55.7852,39.712 55.5,41.5C 57.5,41.5 59.5,41.5 61.5,41.5C 62.4872,36.6946 62.8205,31.6946 62.5,26.5C 56.8333,26.5 51.1667,26.5 45.5,26.5C 44.5139,22.03 44.1805,17.3633 44.5,12.5C 39.6946,11.5128 34.6946,11.1795 29.5,11.5C 29.1583,10.6618 28.4916,10.3284 27.5,10.5 Z"/></g>
<g><path style="opacity:1" fill="#f7f7f7" d="M 44.5,12.5 C 44.1805,17.3633 44.5139,22.03 45.5,26.5C 50.6405,27.4881 55.9738,27.8214 61.5,27.5C 61.5,32.1667 61.5,36.8333 61.5,41.5C 59.5,41.5 57.5,41.5 55.5,41.5C 55.7852,39.712 55.4519,38.0453 54.5,36.5C 53.3352,44.145 53.1685,51.8117 54,59.5C 56.7191,60.4438 59.5525,60.7771 62.5,60.5C 62.5,62.5 62.5,64.5 62.5,66.5C 57.1667,66.5 51.8333,66.5 46.5,66.5C 46.5,63.8333 46.5,61.1667 46.5,58.5C 40.1667,58.5 33.8333,58.5 27.5,58.5C 27.5,61.1667 27.5,63.8333 27.5,66.5C 21.8333,66.5 16.1667,66.5 10.5,66.5C 10.5,64.5 10.5,62.5 10.5,60.5C 13.5,60.5 16.5,60.5 19.5,60.5C 19.8312,52.1401 19.4979,43.8068 18.5,35.5C 17.5344,37.396 17.2011,39.396 17.5,41.5C 15.5,41.5 13.5,41.5 11.5,41.5C 11.5,36.8333 11.5,32.1667 11.5,27.5C 17.1667,27.5 22.8333,27.5 28.5,27.5C 28.5,28.5 28.5,29.5 28.5,30.5C 28.2965,32.3904 28.9632,33.8904 30.5,35C 28.8374,35.2649 27.3374,34.7649 26,33.5C 26.6568,35.4939 28.1568,36.9939 30.5,38C 27.6793,39.8224 25.1793,41.9891 23,44.5C 22.2015,40.5761 21.7015,40.5761 21.5,44.5C 21.3422,46.3186 22.0089,47.6519 23.5,48.5C 24.6956,48.1543 24.6956,47.6543 23.5,47C 25.7695,46.2419 27.9361,46.4086 30,47.5C 30.1829,50.3647 30.6829,53.0314 31.5,55.5C 32.4551,57.7099 33.9551,58.0432 36,56.5C 36.7625,46.2467 38.5958,45.9133 41.5,55.5C 42.8333,55.5 44.1667,55.5 45.5,55.5C 45.3505,54.448 45.5172,53.448 46,52.5C 50.721,49.0998 50.5543,47.0998 45.5,46.5C 46.4451,45.0072 47.4451,43.5072 48.5,42C 47.5227,40.503 46.5227,39.003 45.5,37.5C 46.6534,35.432 46.6534,33.432 45.5,31.5C 43.1667,32.8333 40.8333,34.1667 38.5,35.5C 36.5004,31.8379 33.8338,28.8379 30.5,26.5C 29.353,22.3537 29.1864,18.0204 30,13.5C 30.7172,14.0442 31.2172,14.7109 31.5,15.5C 31.5,16.5 31.5,17.5 31.5,18.5C 32.5,18.5 33.5,18.5 34.5,18.5C 34.5,19.1667 34.5,19.8333 34.5,20.5C 33.6016,21.1577 32.6016,21.8243 31.5,22.5C 34.8333,23.8333 38.1667,23.8333 41.5,22.5C 40.0508,21.8281 38.7175,21.1614 37.5,20.5C 38.7791,19.032 40.4458,18.3653 42.5,18.5C 42.7373,17.209 42.404,16.209 41.5,15.5C 42.1667,14.1667 43.1667,13.1667 44.5,12.5 Z"/></g>
<g><path style="opacity:1" fill="#5b5b5b" d="M 45.5,31.5 C 46.6534,33.432 46.6534,35.432 45.5,37.5C 46.5227,39.003 47.5227,40.503 48.5,42C 47.4451,43.5072 46.4451,45.0072 45.5,46.5C 45.1667,46.5 44.8333,46.5 44.5,46.5C 44.5614,44.4078 45.5614,42.9078 47.5,42C 45.1153,39.7744 43.9486,36.941 44,33.5C 42.5902,36.136 40.7569,36.8026 38.5,35.5C 40.8333,34.1667 43.1667,32.8333 45.5,31.5 Z"/></g>
<g><path style="opacity:1" fill="#ececec" d="M 38.5,35.5 C 40.7569,36.8026 42.5902,36.136 44,33.5C 43.9486,36.941 45.1153,39.7744 47.5,42C 45.5614,42.9078 44.5614,44.4078 44.5,46.5C 45.3007,48.0418 45.634,49.7085 45.5,51.5C 44.1266,51.6567 42.7932,51.49 41.5,51C 40.5939,47.8162 38.7606,46.9828 36,48.5C 35.6892,50.556 35.1892,52.556 34.5,54.5C 33.675,55.3857 32.675,55.719 31.5,55.5C 31.6646,52.4816 31.498,49.4816 31,46.5C 29.4002,45.1341 27.5668,44.1341 25.5,43.5C 27.5765,41.7123 29.7432,40.0456 32,38.5C 31.8471,35.8262 31.3471,33.1595 30.5,30.5C 31.552,30.3505 32.552,30.5172 33.5,31C 35.0375,32.7073 36.7041,34.2073 38.5,35.5 Z"/></g>
<g><path style="opacity:1" fill="#656565" d="M 34.5,36.5 C 37.1672,37.8748 39.8339,38.5415 42.5,38.5C 41.7871,41.0963 41.7871,43.7629 42.5,46.5C 37.4252,47.4285 34.0918,45.4285 32.5,40.5C 33.8532,39.4763 34.5198,38.143 34.5,36.5 Z"/></g>
<g><path style="opacity:1" fill="#666666" d="M 49.5,33.5 C 50.3764,33.3691 51.0431,33.7025 51.5,34.5C 47.3891,39.9294 46.7224,39.5961 49.5,33.5 Z"/></g>
<g><path style="opacity:1" fill="#919191" d="M 45.5,31.5 C 46.1617,29.1676 47.495,28.5009 49.5,29.5C 48.4231,30.7051 47.0898,31.3718 45.5,31.5 Z"/></g>
<g><path style="opacity:1" fill="#9b9b9b" d="M 34.5,20.5 C 35.5,20.5 36.5,20.5 37.5,20.5C 38.7175,21.1614 40.0508,21.8281 41.5,22.5C 38.1667,23.8333 34.8333,23.8333 31.5,22.5C 32.6016,21.8243 33.6016,21.1577 34.5,20.5 Z"/></g>
<g><path style="opacity:1" fill="#797979" d="M 34.5,15.5 C 35.1577,16.3984 35.8243,17.3984 36.5,18.5C 37.3857,17.675 37.719,16.675 37.5,15.5C 38.8333,15.5 40.1667,15.5 41.5,15.5C 42.404,16.209 42.7373,17.209 42.5,18.5C 40.4458,18.3653 38.7791,19.032 37.5,20.5C 36.5,20.5 35.5,20.5 34.5,20.5C 34.5,19.8333 34.5,19.1667 34.5,18.5C 34.5,17.5 34.5,16.5 34.5,15.5 Z"/></g>
<g><path style="opacity:1" fill="#363636" d="M 31.5,15.5 C 32.5,15.5 33.5,15.5 34.5,15.5C 34.5,16.5 34.5,17.5 34.5,18.5C 33.5,18.5 32.5,18.5 31.5,18.5C 31.5,17.5 31.5,16.5 31.5,15.5 Z"/></g>
<g><path style="opacity:1" fill="#797979" d="M 44.5,46.5 C 44.8333,46.5 45.1667,46.5 45.5,46.5C 50.5543,47.0998 50.721,49.0998 46,52.5C 45.5172,53.448 45.3505,54.448 45.5,55.5C 44.1667,55.5 42.8333,55.5 41.5,55.5C 38.5958,45.9133 36.7625,46.2467 36,56.5C 33.9551,58.0432 32.4551,57.7099 31.5,55.5C 32.675,55.719 33.675,55.3857 34.5,54.5C 35.1892,52.556 35.6892,50.556 36,48.5C 38.7606,46.9828 40.5939,47.8162 41.5,51C 42.7932,51.49 44.1266,51.6567 45.5,51.5C 45.634,49.7085 45.3007,48.0418 44.5,46.5 Z"/></g>
<g><path style="opacity:1" fill="#717171" d="M 47.5,52.5 C 49.0847,53.0024 49.5847,54.0024 49,55.5C 47.9614,54.7562 47.4614,53.7562 47.5,52.5 Z"/></g>
<g><path style="opacity:1" fill="#787878" d="M 46.5,66.5 C 45.944,63.8822 45.2773,61.8822 44.5,60.5C 39.1667,60.5 33.8333,60.5 28.5,60.5C 28.5,63.1667 28.5,65.8333 28.5,68.5C 22.1667,68.5 15.8333,68.5 9.5,68.5C 9.5,65.1667 9.5,61.8333 9.5,58.5C 12.1667,58.5 14.8333,58.5 17.5,58.5C 17.5,53.5 17.5,48.5 17.5,43.5C 14.6146,43.8064 11.9479,43.4731 9.5,42.5C 10.1667,42.5 10.5,42.1667 10.5,41.5C 10.8333,41.5 11.1667,41.5 11.5,41.5C 13.5,41.5 15.5,41.5 17.5,41.5C 17.2011,39.396 17.5344,37.396 18.5,35.5C 19.4979,43.8068 19.8312,52.1401 19.5,60.5C 16.5,60.5 13.5,60.5 10.5,60.5C 10.5,62.5 10.5,64.5 10.5,66.5C 16.1667,66.5 21.8333,66.5 27.5,66.5C 27.5,63.8333 27.5,61.1667 27.5,58.5C 33.8333,58.5 40.1667,58.5 46.5,58.5C 46.5,61.1667 46.5,63.8333 46.5,66.5 Z"/></g>
<g><path style="opacity:1" fill="#666666" d="M 63.5,68.5 C 64.1515,67.9094 64.8182,67.2427 65.5,66.5C 66.521,67.0016 66.6877,67.6683 66,68.5C 64.8867,70.3293 63.3867,71.1626 61.5,71C 62.3805,70.2917 63.0472,69.4584 63.5,68.5 Z"/></g>
</svg>
