<?xml version="1.0" encoding="UTF-8"?>
<!DOCTYPE svg PUBLIC "-//W3C//DTD SVG 1.1//EN" "http://www.w3.org/Graphics/SVG/1.1/DTD/svg11.dtd">
<svg xmlns="http://www.w3.org/2000/svg" version="1.1" width="75px" height="75px" style="shape-rendering:geometricPrecision; text-rendering:geometricPrecision; image-rendering:optimizeQuality; fill-rule:evenodd; clip-rule:evenodd" xmlns:xlink="http://www.w3.org/1999/xlink">
<g><path style="opacity:0.975" fill="#fcfcfc" d="M -0.5,-0.5 C 24.5,-0.5 49.5,-0.5 74.5,-0.5C 74.5,24.5 74.5,49.5 74.5,74.5C 49.5,74.5 24.5,74.5 -0.5,74.5C -0.5,49.5 -0.5,24.5 -0.5,-0.5 Z"/></g>
<g><path style="opacity:1" fill="#a6a6a6" d="M 52.5,0.5 C 54.3464,0.222157 55.6798,0.888823 56.5,2.5C 55.3539,3.71874 54.3539,5.05207 53.5,6.5C 52.5,5.16667 51.5,3.83333 50.5,2.5C 51.2427,1.81815 51.9094,1.15149 52.5,0.5 Z"/></g>
<g><path style="opacity:1" fill="#c7c7c7" d="M 24.5,7.5 C 32.6499,6.50728 40.9832,6.17395 49.5,6.5C 49.815,10.3714 49.4816,14.0381 48.5,17.5C 48.5,14.1667 48.5,10.8333 48.5,7.5C 40.5,7.5 32.5,7.5 24.5,7.5 Z"/></g>
<g><path style="opacity:1" fill="#ededed" d="M 24.5,7.5 C 32.5,7.5 40.5,7.5 48.5,7.5C 48.5,10.8333 48.5,14.1667 48.5,17.5C 46.9174,15.4922 45.9174,13.1589 45.5,10.5C 39.5,10.5 33.5,10.5 27.5,10.5C 27.5,12.8333 27.5,15.1667 27.5,17.5C 26.5,17.5 25.5,17.5 24.5,17.5C 24.5,14.1667 24.5,10.8333 24.5,7.5 Z"/></g>
<g><path style="opacity:1" fill="#636363" d="M 49.5,5.5 C 49.5,5.83333 49.5,6.16667 49.5,6.5C 40.9832,6.17395 32.6499,6.50728 24.5,7.5C 24.5,10.8333 24.5,14.1667 24.5,17.5C 25.5,17.5 26.5,17.5 27.5,17.5C 27.5,15.1667 27.5,12.8333 27.5,10.5C 33.5,10.5 39.5,10.5 45.5,10.5C 45.5,11.1667 45.1667,11.5 44.5,11.5C 43.1667,11.5 42.5,12.1667 42.5,13.5C 40.1789,13.7711 38.1789,13.1045 36.5,11.5C 34.1667,14.1667 31.8333,14.1667 29.5,11.5C 28.5059,16.456 28.1725,21.456 28.5,26.5C 29.7341,29.4073 31.7341,31.7407 34.5,33.5C 35.4287,32.3112 35.762,30.9778 35.5,29.5C 37.5996,29.4772 39.4329,30.1439 41,31.5C 43.1551,30.7558 45.1551,29.7558 47,28.5C 48.0299,28.8361 48.5299,29.5028 48.5,30.5C 47.9916,32.8654 47.3249,35.1987 46.5,37.5C 48.5,38.1667 50.5,38.8333 52.5,39.5C 51.1667,41.1667 49.8333,42.8333 48.5,44.5C 50.415,46.0712 51.415,48.0712 51.5,50.5C 48.7938,50.4249 46.1272,50.0916 43.5,49.5C 43.3359,52.1873 43.5026,54.854 44,57.5C 44.6708,58.2524 45.5041,58.5858 46.5,58.5C 46.5,61.1667 46.5,63.8333 46.5,66.5C 51.5,66.5 56.5,66.5 61.5,66.5C 62.1667,66.5 62.5,66.8333 62.5,67.5C 56.8333,67.5 51.1667,67.5 45.5,67.5C 44.7839,65.4437 44.1172,63.277 43.5,61C 38.5111,60.5007 33.5111,60.3341 28.5,60.5C 28.5,62.8333 28.5,65.1667 28.5,67.5C 22.1667,67.5 15.8333,67.5 9.5,67.5C 9.5,64.5 9.5,61.5 9.5,58.5C 12.5,58.5 15.5,58.5 18.5,58.5C 18.5,53.5 18.5,48.5 18.5,43.5C 15.5,43.5 12.5,43.5 9.5,43.5C 9.5,37.5 9.5,31.5 9.5,25.5C 14.085,26.0128 18.4183,25.3462 22.5,23.5C 23.8498,24.9501 25.5165,25.6168 27.5,25.5C 27.5,23.5 27.5,21.5 27.5,19.5C 25.8333,19.5 24.1667,19.5 22.5,19.5C 22.5,14.8333 22.5,10.1667 22.5,5.5C 31.5,5.5 40.5,5.5 49.5,5.5 Z"/></g>
<g><path style="opacity:1" fill="#cdcdcd" d="M 42.5,13.5 C 42.7845,15.4147 42.4511,17.0813 41.5,18.5C 41.5,17.1667 41.5,15.8333 41.5,14.5C 40.5,14.5 39.5,14.5 38.5,14.5C 38.5,15.8333 38.5,17.1667 38.5,18.5C 37.5,18.5 36.5,18.5 35.5,18.5C 35.4017,21.2476 36.4017,21.9143 38.5,20.5C 39.3984,21.1577 40.3984,21.8243 41.5,22.5C 38.1667,23.8333 34.8333,23.8333 31.5,22.5C 32.325,21.6143 33.325,21.281 34.5,21.5C 34.5,20.5 34.5,19.5 34.5,18.5C 34.5,17.1667 34.5,15.8333 34.5,14.5C 33.5,14.5 32.5,14.5 31.5,14.5C 31.5,15.8333 31.5,17.1667 31.5,18.5C 30.7321,17.7375 30.2321,16.7375 30,15.5C 29.8227,19.3563 29.3227,23.023 28.5,26.5C 28.1725,21.456 28.5059,16.456 29.5,11.5C 31.8333,14.1667 34.1667,14.1667 36.5,11.5C 38.1789,13.1045 40.1789,13.7711 42.5,13.5 Z"/></g>
<g><path style="opacity:1" fill="#4f4f4f" d="M 41.5,18.5 C 40.5,18.5 39.5,18.5 38.5,18.5C 38.5,17.1667 38.5,15.8333 38.5,14.5C 39.5,14.5 40.5,14.5 41.5,14.5C 41.5,15.8333 41.5,17.1667 41.5,18.5 Z"/></g>
<g><path style="opacity:1" fill="#f4f4f4" d="M 44.5,11.5 C 44.8275,16.544 44.4941,21.544 43.5,26.5C 40.9206,25.3654 38.5873,25.6987 36.5,27.5C 35.6618,27.8417 35.3284,28.5084 35.5,29.5C 35.762,30.9778 35.4287,32.3112 34.5,33.5C 31.7341,31.7407 29.7341,29.4073 28.5,26.5C 29.3227,23.023 29.8227,19.3563 30,15.5C 30.2321,16.7375 30.7321,17.7375 31.5,18.5C 32.5,18.5 33.5,18.5 34.5,18.5C 34.5,19.5 34.5,20.5 34.5,21.5C 33.325,21.281 32.325,21.6143 31.5,22.5C 34.8333,23.8333 38.1667,23.8333 41.5,22.5C 40.3984,21.8243 39.3984,21.1577 38.5,20.5C 38.5,19.8333 38.5,19.1667 38.5,18.5C 39.5,18.5 40.5,18.5 41.5,18.5C 42.4511,17.0813 42.7845,15.4147 42.5,13.5C 42.5,12.1667 43.1667,11.5 44.5,11.5 Z"/></g>
<g><path style="opacity:1" fill="#4c4c4c" d="M 34.5,18.5 C 33.5,18.5 32.5,18.5 31.5,18.5C 31.5,17.1667 31.5,15.8333 31.5,14.5C 32.5,14.5 33.5,14.5 34.5,14.5C 34.5,15.8333 34.5,17.1667 34.5,18.5 Z"/></g>
<g><path style="opacity:1" fill="#7e7e7e" d="M 38.5,18.5 C 38.5,19.1667 38.5,19.8333 38.5,20.5C 36.4017,21.9143 35.4017,21.2476 35.5,18.5C 36.5,18.5 37.5,18.5 38.5,18.5 Z"/></g>
<g><path style="opacity:1" fill="#a4a4a4" d="M 9.5,25.5 C 8.84851,26.0906 8.18185,26.7573 7.5,27.5C 6.53452,26.086 5.53452,25.2526 4.5,25C 4.61348,23.7202 5.28014,22.8869 6.5,22.5C 8.2131,22.8793 9.2131,23.8793 9.5,25.5 Z"/></g>
<g><path style="opacity:1" fill="#c5c5c5" d="M 63.5,25.5 C 64.1665,31.0139 64.8332,36.6805 65.5,42.5C 66.5,43.5 67.5,44.5 68.5,45.5C 68.1667,46.5 67.5,47.1667 66.5,47.5C 65.0656,46.4116 64.0656,45.0783 63.5,43.5C 63.5,37.5 63.5,31.5 63.5,25.5 Z"/></g>
<g><path style="opacity:1" fill="#ececec" d="M 24.5,28.5 C 25.5345,32.2433 26.8678,35.91 28.5,39.5C 26.6641,40.919 24.6641,42.0857 22.5,43C 21.6634,44.0113 21.33,45.1779 21.5,46.5C 20.8826,46.3893 20.3826,46.056 20,45.5C 19.6667,42.5 19.3333,39.5 19,36.5C 18.5065,38.1341 18.3398,39.8008 18.5,41.5C 15.8333,41.5 13.1667,41.5 10.5,41.5C 10.1975,36.57 10.5308,31.7367 11.5,27C 16.1289,25.9784 20.4623,26.4784 24.5,28.5 Z"/></g>
<g><path style="opacity:1" fill="#797979" d="M 49.5,5.5 C 50.4861,9.97005 50.8195,14.6367 50.5,19.5C 49.1667,19.5 47.8333,19.5 46.5,19.5C 46.5,21.5 46.5,23.5 46.5,25.5C 52.1667,25.5 57.8333,25.5 63.5,25.5C 63.5,31.5 63.5,37.5 63.5,43.5C 60.8333,43.5 58.1667,43.5 55.5,43.5C 55.5,48.5 55.5,53.5 55.5,58.5C 58.1667,58.5 60.8333,58.5 63.5,58.5C 63.81,61.7131 63.4767,64.7131 62.5,67.5C 62.5,66.8333 62.1667,66.5 61.5,66.5C 61.5,64.5 61.5,62.5 61.5,60.5C 54.5,62.1667 51.8333,59.5 53.5,52.5C 52.448,52.6495 51.448,52.4828 50.5,52C 51.6241,51.1612 52.2908,49.9945 52.5,48.5C 52.9486,44.4622 53.6152,40.4622 54.5,36.5C 55.4519,38.0453 55.7852,39.712 55.5,41.5C 57.5,41.5 59.5,41.5 61.5,41.5C 61.5,36.8333 61.5,32.1667 61.5,27.5C 54.3239,25.721 47.3239,26.3877 40.5,29.5C 39.3044,29.1543 39.3044,28.6543 40.5,28C 38.9813,28.3308 37.648,28.1641 36.5,27.5C 38.5873,25.6987 40.9206,25.3654 43.5,26.5C 44.4941,21.544 44.8275,16.544 44.5,11.5C 45.1667,11.5 45.5,11.1667 45.5,10.5C 45.9174,13.1589 46.9174,15.4922 48.5,17.5C 49.4816,14.0381 49.815,10.3714 49.5,6.5C 49.5,6.16667 49.5,5.83333 49.5,5.5 Z"/></g>
<g><path style="opacity:1" fill="#cacaca" d="M 61.5,27.5 C 57.5,27.5 53.5,27.5 49.5,27.5C 49.7373,28.791 49.404,29.791 48.5,30.5C 48.5299,29.5028 48.0299,28.8361 47,28.5C 45.1551,29.7558 43.1551,30.7558 41,31.5C 39.4329,30.1439 37.5996,29.4772 35.5,29.5C 35.3284,28.5084 35.6618,27.8417 36.5,27.5C 37.648,28.1641 38.9813,28.3308 40.5,28C 39.3044,28.6543 39.3044,29.1543 40.5,29.5C 47.3239,26.3877 54.3239,25.721 61.5,27.5 Z"/></g>
<g><path style="opacity:1" fill="#eaeaea" d="M 24.5,28.5 C 24.8966,27.475 25.5632,27.3083 26.5,28C 29.1943,31.5508 32.5276,34.0508 36.5,35.5C 36.2787,31.2046 37.6121,30.5379 40.5,33.5C 46.9611,29.3248 48.2945,30.9914 44.5,38.5C 46.4233,39.3078 48.4233,39.8078 50.5,40C 48.981,41.3513 47.6477,42.8513 46.5,44.5C 48.1392,45.916 48.9725,47.5826 49,49.5C 46.9592,48.5769 44.7925,48.2436 42.5,48.5C 42.6646,51.5184 42.498,54.5184 42,57.5C 40.8783,55.3762 39.3783,53.5429 37.5,52C 36.184,51.4719 35.5173,51.9719 35.5,53.5C 34.8333,53.5 34.1667,53.5 33.5,53.5C 31.5952,53.0945 29.5952,52.7611 27.5,52.5C 29.4935,50.1843 30.4935,47.5176 30.5,44.5C 28.0509,45.0574 25.7175,45.0574 23.5,44.5C 25.0009,43.2485 26.6675,42.2485 28.5,41.5C 29.2293,36.6028 27.896,32.2694 24.5,28.5 Z"/></g>
<g><path style="opacity:1" fill="#777777" d="M 23.5,33.5 C 26.124,35.7534 26.124,38.0867 23.5,40.5C 23.2947,38.4476 23.2947,36.1143 23.5,33.5 Z"/></g>
<g><path style="opacity:1" fill="#606060" d="M 38.5,36.5 C 39.5,36.5 40.5,36.5 41.5,36.5C 41.0217,39.2776 42.0217,41.2776 44.5,42.5C 42.244,43.4209 41.244,45.0876 41.5,47.5C 39.857,47.4802 38.5237,48.1468 37.5,49.5C 36.5,47.8333 35.1667,46.5 33.5,45.5C 32.7078,43.5352 32.0412,41.5352 31.5,39.5C 34.2167,39.026 36.5501,38.026 38.5,36.5 Z"/></g>
<g><path style="opacity:1" fill="#f5f5f5" d="M 21.5,46.5 C 24.1873,46.3359 26.854,46.5026 29.5,47C 27.9297,48.3968 26.5964,49.8968 25.5,51.5C 21.5054,53.8276 21.5054,56.1609 25.5,58.5C 26.4742,60.7427 26.8076,63.076 26.5,65.5C 21.5,65.5 16.5,65.5 11.5,65.5C 11.5,63.8333 11.5,62.1667 11.5,60.5C 13.9479,59.5269 16.6146,59.1936 19.5,59.5C 19.3345,55.4862 19.5012,51.4862 20,47.5C 21.1068,48.7119 21.6068,48.3786 21.5,46.5 Z"/></g>
<g><path style="opacity:1" fill="#747474" d="M 24.5,28.5 C 27.896,32.2694 29.2293,36.6028 28.5,41.5C 26.6675,42.2485 25.0009,43.2485 23.5,44.5C 25.7175,45.0574 28.0509,45.0574 30.5,44.5C 30.4935,47.5176 29.4935,50.1843 27.5,52.5C 29.5952,52.7611 31.5952,53.0945 33.5,53.5C 31.8439,54.1465 30.1772,54.8131 28.5,55.5C 26.0847,55.2811 25.0847,53.9477 25.5,51.5C 26.5964,49.8968 27.9297,48.3968 29.5,47C 26.854,46.5026 24.1873,46.3359 21.5,46.5C 21.33,45.1779 21.6634,44.0113 22.5,43C 24.6641,42.0857 26.6641,40.919 28.5,39.5C 26.8678,35.91 25.5345,32.2433 24.5,28.5 Z"/></g>
<g><path style="opacity:1" fill="#f4f4f4" d="M 61.5,27.5 C 61.5,32.1667 61.5,36.8333 61.5,41.5C 59.5,41.5 57.5,41.5 55.5,41.5C 55.7852,39.712 55.4519,38.0453 54.5,36.5C 53.6152,40.4622 52.9486,44.4622 52.5,48.5C 52.2908,49.9945 51.6241,51.1612 50.5,52C 51.448,52.4828 52.448,52.6495 53.5,52.5C 51.8333,59.5 54.5,62.1667 61.5,60.5C 61.5,62.5 61.5,64.5 61.5,66.5C 56.5,66.5 51.5,66.5 46.5,66.5C 46.5,63.8333 46.5,61.1667 46.5,58.5C 45.5041,58.5858 44.6708,58.2524 44,57.5C 43.5026,54.854 43.3359,52.1873 43.5,49.5C 46.1272,50.0916 48.7938,50.4249 51.5,50.5C 51.415,48.0712 50.415,46.0712 48.5,44.5C 49.8333,42.8333 51.1667,41.1667 52.5,39.5C 50.5,38.8333 48.5,38.1667 46.5,37.5C 47.3249,35.1987 47.9916,32.8654 48.5,30.5C 49.404,29.791 49.7373,28.791 49.5,27.5C 53.5,27.5 57.5,27.5 61.5,27.5 Z"/></g>
<g><path style="opacity:1" fill="#6f6f6f" d="M 55.5,28.5 C 56.3764,28.3691 57.0431,28.7025 57.5,29.5C 55.7711,31.4513 53.7711,32.618 51.5,33C 53.0414,31.6288 54.3747,30.1288 55.5,28.5 Z"/></g>
<g><path style="opacity:1" fill="#dfdfdf" d="M 25.5,51.5 C 25.0847,53.9477 26.0847,55.2811 28.5,55.5C 30.1772,54.8131 31.8439,54.1465 33.5,53.5C 34.1667,57.5 34.8333,57.5 35.5,53.5C 37.922,54.0852 39.5887,55.5852 40.5,58C 36.1794,58.499 31.8461,58.6657 27.5,58.5C 27.5,61.1667 27.5,63.8333 27.5,66.5C 21.8333,66.5 16.1667,66.5 10.5,66.5C 10.2053,64.2646 10.5386,62.2646 11.5,60.5C 11.5,62.1667 11.5,63.8333 11.5,65.5C 16.5,65.5 21.5,65.5 26.5,65.5C 26.8076,63.076 26.4742,60.7427 25.5,58.5C 21.5054,56.1609 21.5054,53.8276 25.5,51.5 Z"/></g>
<g><path style="opacity:1" fill="#494949" d="M 33.5,53.5 C 34.1667,53.5 34.8333,53.5 35.5,53.5C 34.8333,57.5 34.1667,57.5 33.5,53.5 Z"/></g>
<g><path style="opacity:1" fill="#919191" d="M 46.5,58.5 C 46.0178,54.6601 47.0178,54.6601 49.5,58.5C 48.7666,59.087 47.7666,59.087 46.5,58.5 Z"/></g>
<g><path style="opacity:1" fill="#676767" d="M 6.5,66.5 C 7.36362,67.6883 8.36362,68.8549 9.5,70C 7.06577,70.3329 6.06577,69.1662 6.5,66.5 Z"/></g>
<g><path style="opacity:1" fill="#cbcbcb" d="M 63.5,58.5 C 64.4682,60.6074 64.8016,62.9407 64.5,65.5C 65.5,65.5 66.5,65.5 67.5,65.5C 67.7373,66.791 67.404,67.791 66.5,68.5C 66.631,67.7611 66.4643,67.0944 66,66.5C 65.2086,67.745 64.7086,69.0783 64.5,70.5C 58.2635,68.9179 51.9302,67.9179 45.5,67.5C 51.1667,67.5 56.8333,67.5 62.5,67.5C 63.4767,64.7131 63.81,61.7131 63.5,58.5 Z"/></g>
<g><path style="opacity:1" fill="#636363" d="M 66.5,68.5 C 66.1667,69.5 65.5,70.1667 64.5,70.5C 64.7086,69.0783 65.2086,67.745 66,66.5C 66.4643,67.0944 66.631,67.7611 66.5,68.5 Z"/></g>
</svg>
