<?xml version="1.0" encoding="UTF-8"?>
<!DOCTYPE svg PUBLIC "-//W3C//DTD SVG 1.1//EN" "http://www.w3.org/Graphics/SVG/1.1/DTD/svg11.dtd">
<svg xmlns="http://www.w3.org/2000/svg" version="1.1" width="75px" height="75px" style="shape-rendering:geometricPrecision; text-rendering:geometricPrecision; image-rendering:optimizeQuality; fill-rule:evenodd; clip-rule:evenodd" xmlns:xlink="http://www.w3.org/1999/xlink">
<g><path style="opacity:0.978" fill="#fcfcfc" d="M -0.5,-0.5 C 24.5,-0.5 49.5,-0.5 74.5,-0.5C 74.5,24.5 74.5,49.5 74.5,74.5C 49.5,74.5 24.5,74.5 -0.5,74.5C -0.5,49.5 -0.5,24.5 -0.5,-0.5 Z"/></g>
<g><path style="opacity:1" fill="#393939" d="M 23.5,5.5 C 32.5,5.5 41.5,5.5 50.5,5.5C 50.5,9.83333 50.5,14.1667 50.5,18.5C 49.8333,18.5 49.5,18.1667 49.5,17.5C 49.5,13.8333 49.5,10.1667 49.5,6.5C 41.1667,6.5 32.8333,6.5 24.5,6.5C 23.8333,6.5 23.5,6.16667 23.5,5.5 Z"/></g>
<g><path style="opacity:1" fill="#787878" d="M 23.5,5.5 C 23.5,6.16667 23.8333,6.5 24.5,6.5C 24.5,10.1667 24.5,13.8333 24.5,17.5C 25.5,17.5 26.5,17.5 27.5,17.5C 27.5,18.1667 27.5,18.8333 27.5,19.5C 25.8561,19.7135 24.3561,19.3802 23,18.5C 22.1864,13.9796 22.353,9.64631 23.5,5.5 Z"/></g>
<g><path style="opacity:1" fill="#e8e8e8" d="M 24.5,6.5 C 32.8333,6.5 41.1667,6.5 49.5,6.5C 49.5,10.1667 49.5,13.8333 49.5,17.5C 48.5,17.5 47.5,17.5 46.5,17.5C 46.8016,14.9407 46.4682,12.6074 45.5,10.5C 39.5,10.5 33.5,10.5 27.5,10.5C 27.5,12.8333 27.5,15.1667 27.5,17.5C 26.5,17.5 25.5,17.5 24.5,17.5C 24.5,13.8333 24.5,10.1667 24.5,6.5 Z"/></g>
<g><path style="opacity:1" fill="#7b7b7b" d="M 45.5,10.5 C 46.4682,12.6074 46.8016,14.9407 46.5,17.5C 47.5,17.5 48.5,17.5 49.5,17.5C 49.5,18.1667 49.8333,18.5 50.5,18.5C 49.4324,19.4345 48.099,19.7678 46.5,19.5C 46.5,21.5 46.5,23.5 46.5,25.5C 45.8333,25.5 45.5,25.8333 45.5,26.5C 44.5128,21.6946 44.1795,16.6946 44.5,11.5C 45.1667,11.5 45.5,11.1667 45.5,10.5 Z"/></g>
<g><path style="opacity:1" fill="#f6f6f6" d="M 44.5,11.5 C 44.1795,16.6946 44.5128,21.6946 45.5,26.5C 51.1667,26.5 56.8333,26.5 62.5,26.5C 62.5,31.5 62.5,36.5 62.5,41.5C 60.1667,41.5 57.8333,41.5 55.5,41.5C 55.5,39.8333 55.5,38.1667 55.5,36.5C 55.44,35.9569 55.1067,35.6236 54.5,35.5C 53.1796,43.6572 53.1796,51.6572 54.5,59.5C 56.6074,60.4682 58.9407,60.8016 61.5,60.5C 61.5,62.1667 61.5,63.8333 61.5,65.5C 56.5,65.5 51.5,65.5 46.5,65.5C 46.8016,62.9407 46.4682,60.6074 45.5,58.5C 39.5,58.5 33.5,58.5 27.5,58.5C 27.5,61.1667 27.5,63.8333 27.5,66.5C 22.1667,66.5 16.8333,66.5 11.5,66.5C 11.5,64.5 11.5,62.5 11.5,60.5C 13.9479,59.5269 16.6146,59.1936 19.5,59.5C 19.9578,50.0873 19.6244,44.0873 18.5,41.5C 16.1667,41.5 13.8333,41.5 11.5,41.5C 11.5,36.8333 11.5,32.1667 11.5,27.5C 16.9753,26.5111 22.642,26.1778 28.5,26.5C 28.5,21.5 28.5,16.5 28.5,11.5C 33.8333,11.5 39.1667,11.5 44.5,11.5 Z"/></g>
<g><path style="opacity:1" fill="#9d9d9d" d="M 38.5,19.5 C 38.189,20.4778 37.5223,21.1445 36.5,21.5C 34.8554,20.3037 33.1887,19.3037 31.5,18.5C 30.5489,17.0813 30.2155,15.4147 30.5,13.5C 32.1667,13.5 33.8333,13.5 35.5,13.5C 35.5,15.5 35.5,17.5 35.5,19.5C 36.5,19.5 37.5,19.5 38.5,19.5 Z"/></g>
<g><path style="opacity:1" fill="#343434" d="M 31.5,18.5 C 31.5,17.1667 31.5,15.8333 31.5,14.5C 32.5,14.5 33.5,14.5 34.5,14.5C 34.5,15.8333 34.5,17.1667 34.5,18.5C 33.5,18.5 32.5,18.5 31.5,18.5 Z"/></g>
<g><path style="opacity:1" fill="#5a5a5a" d="M 38.5,19.5 C 38.5,17.5 38.5,15.5 38.5,13.5C 39.8333,13.5 41.1667,13.5 42.5,13.5C 43.4015,17.2407 42.0681,19.2407 38.5,19.5 Z"/></g>
<g><path style="opacity:1" fill="#484848" d="M 45.5,10.5 C 45.5,11.1667 45.1667,11.5 44.5,11.5C 39.1667,11.5 33.8333,11.5 28.5,11.5C 28.5,16.5 28.5,21.5 28.5,26.5C 22.642,26.1778 16.9753,26.5111 11.5,27.5C 10.6618,27.1583 10.3284,26.4916 10.5,25.5C 16.1667,25.5 21.8333,25.5 27.5,25.5C 27.5,23.5 27.5,21.5 27.5,19.5C 27.5,18.8333 27.5,18.1667 27.5,17.5C 27.5,15.1667 27.5,12.8333 27.5,10.5C 33.5,10.5 39.5,10.5 45.5,10.5 Z"/></g>
<g><path style="opacity:1" fill="#7c7c7c" d="M 10.5,25.5 C 10.3284,26.4916 10.6618,27.1583 11.5,27.5C 11.5,32.1667 11.5,36.8333 11.5,41.5C 13.8333,41.5 16.1667,41.5 18.5,41.5C 18.5,42.1667 18.5,42.8333 18.5,43.5C 15.5,43.5 12.5,43.5 9.5,43.5C 9.17711,37.31 9.51045,31.31 10.5,25.5 Z"/></g>
<g><path style="opacity:1" fill="#626262" d="M 37.5,35.5 C 35.7363,36.7122 34.0697,36.3788 32.5,34.5C 31.9478,36.0026 31.9478,37.6693 32.5,39.5C 31.1667,39.5 29.8333,39.5 28.5,39.5C 29.2625,38.7321 30.2625,38.2321 31.5,38C 28.5096,34.6214 29.1763,32.9547 33.5,33C 34.4709,34.4813 35.8042,35.3146 37.5,35.5 Z"/></g>
<g><path style="opacity:1" fill="#595959" d="M 40.5,34.5 C 39.0484,33.6981 37.3817,33.1981 35.5,33C 37.5,32.3333 39.5,32.3333 41.5,33C 44.1606,36.528 43.8273,37.028 40.5,34.5 Z"/></g>
<g><path style="opacity:1" fill="#e7e7e7" d="M 37.5,35.5 C 39.217,37.3621 41.217,39.0288 43.5,40.5C 40.8259,41.4991 40.1592,43.1658 41.5,45.5C 39.8767,46.4756 38.5433,45.9756 37.5,44C 40.5527,39.9258 39.7193,38.4258 35,39.5C 34.4054,40.8989 34.5721,42.2322 35.5,43.5C 35.1924,44.3081 34.6924,44.9747 34,45.5C 33.51,44.2068 33.3433,42.8734 33.5,41.5C 31.2188,41.9227 29.5521,41.256 28.5,39.5C 29.8333,39.5 31.1667,39.5 32.5,39.5C 31.9478,37.6693 31.9478,36.0026 32.5,34.5C 34.0697,36.3788 35.7363,36.7122 37.5,35.5 Z"/></g>
<g><path style="opacity:1" fill="#4a4a4a" d="M 11.5,60.5 C 10.6618,60.1583 10.3284,59.4916 10.5,58.5C 13.1667,58.5 15.8333,58.5 18.5,58.5C 18.5,53.5 18.5,48.5 18.5,43.5C 18.5,42.8333 18.5,42.1667 18.5,41.5C 19.6244,44.0873 19.9578,50.0873 19.5,59.5C 16.6146,59.1936 13.9479,59.5269 11.5,60.5 Z"/></g>
<g><path style="opacity:1" fill="#a6a6a6" d="M 55.5,36.5 C 54.508,43.9818 54.1746,51.6484 54.5,59.5C 53.1796,51.6572 53.1796,43.6572 54.5,35.5C 55.1067,35.6236 55.44,35.9569 55.5,36.5 Z"/></g>
<g><path style="opacity:1" fill="#5b5b5b" d="M 45.5,26.5 C 45.5,25.8333 45.8333,25.5 46.5,25.5C 52.1667,25.5 57.8333,25.5 63.5,25.5C 63.5,31.5 63.5,37.5 63.5,43.5C 60.8333,43.5 58.1667,43.5 55.5,43.5C 55.5,48.5 55.5,53.5 55.5,58.5C 58.1667,58.5 60.8333,58.5 63.5,58.5C 63.5,61.5 63.5,64.5 63.5,67.5C 57.5,67.5 51.5,67.5 45.5,67.5C 45.5,66.8333 45.8333,66.5 46.5,66.5C 51.8333,66.5 57.1667,66.5 62.5,66.5C 62.5,64.1667 62.5,61.8333 62.5,59.5C 59.8333,59.5 57.1667,59.5 54.5,59.5C 54.1746,51.6484 54.508,43.9818 55.5,36.5C 55.5,38.1667 55.5,39.8333 55.5,41.5C 57.8333,41.5 60.1667,41.5 62.5,41.5C 62.5,36.5 62.5,31.5 62.5,26.5C 56.8333,26.5 51.1667,26.5 45.5,26.5 Z"/></g>
<g><path style="opacity:1" fill="#6d6d6d" d="M 37.5,35.5 C 38.209,34.596 39.209,34.2627 40.5,34.5C 40.5,35.5 40.5,36.5 40.5,37.5C 42.7144,37.2907 44.381,38.124 45.5,40C 43.5151,42.2844 42.1818,44.9511 41.5,48C 39.5826,47.9725 37.916,47.1392 36.5,45.5C 35.2459,47.5378 33.5792,49.2044 31.5,50.5C 30.6919,50.1924 30.0253,49.6924 29.5,49C 30.8613,47.4157 31.528,45.5824 31.5,43.5C 27.9652,43.6631 26.9652,42.3298 28.5,39.5C 29.5521,41.256 31.2188,41.9227 33.5,41.5C 33.3433,42.8734 33.51,44.2068 34,45.5C 34.6924,44.9747 35.1924,44.3081 35.5,43.5C 34.5721,42.2322 34.4054,40.8989 35,39.5C 39.7193,38.4258 40.5527,39.9258 37.5,44C 38.5433,45.9756 39.8767,46.4756 41.5,45.5C 40.1592,43.1658 40.8259,41.4991 43.5,40.5C 41.217,39.0288 39.217,37.3621 37.5,35.5 Z"/></g>
<g><path style="opacity:1" fill="#7e7e7e" d="M 10.5,58.5 C 10.3284,59.4916 10.6618,60.1583 11.5,60.5C 11.5,62.5 11.5,64.5 11.5,66.5C 10.8333,66.5 10.5,66.8333 10.5,67.5C 9.16667,64.5 9.16667,61.5 10.5,58.5 Z"/></g>
<g><path style="opacity:1" fill="#838383" d="M 45.5,58.5 C 46.4682,60.6074 46.8016,62.9407 46.5,65.5C 46.5,65.8333 46.5,66.1667 46.5,66.5C 45.8333,66.5 45.5,66.8333 45.5,67.5C 44.5318,65.3926 44.1984,63.0593 44.5,60.5C 45.3382,60.1583 45.6716,59.4916 45.5,58.5 Z"/></g>
<g><path style="opacity:1" fill="#d4d4d4" d="M 54.5,59.5 C 57.1667,59.5 59.8333,59.5 62.5,59.5C 62.5,61.8333 62.5,64.1667 62.5,66.5C 57.1667,66.5 51.8333,66.5 46.5,66.5C 46.5,66.1667 46.5,65.8333 46.5,65.5C 51.5,65.5 56.5,65.5 61.5,65.5C 61.5,63.8333 61.5,62.1667 61.5,60.5C 58.9407,60.8016 56.6074,60.4682 54.5,59.5 Z"/></g>
<g><path style="opacity:1" fill="#4e4e4e" d="M 45.5,58.5 C 45.6716,59.4916 45.3382,60.1583 44.5,60.5C 39.3595,59.5119 34.0262,59.1786 28.5,59.5C 28.5,62.1667 28.5,64.8333 28.5,67.5C 22.5,67.5 16.5,67.5 10.5,67.5C 10.5,66.8333 10.8333,66.5 11.5,66.5C 16.8333,66.5 22.1667,66.5 27.5,66.5C 27.5,63.8333 27.5,61.1667 27.5,58.5C 33.5,58.5 39.5,58.5 45.5,58.5 Z"/></g>
</svg>
