<?xml version="1.0" encoding="UTF-8"?>
<!DOCTYPE svg PUBLIC "-//W3C//DTD SVG 1.1//EN" "http://www.w3.org/Graphics/SVG/1.1/DTD/svg11.dtd">
<svg xmlns="http://www.w3.org/2000/svg" version="1.1" width="75px" height="75px" style="shape-rendering:geometricPrecision; text-rendering:geometricPrecision; image-rendering:optimizeQuality; fill-rule:evenodd; clip-rule:evenodd" xmlns:xlink="http://www.w3.org/1999/xlink">
<g><path style="opacity:0.97" fill="#fafafa" d="M -0.5,-0.5 C 24.5,-0.5 49.5,-0.5 74.5,-0.5C 74.5,24.5 74.5,49.5 74.5,74.5C 49.5,74.5 24.5,74.5 -0.5,74.5C -0.5,49.5 -0.5,24.5 -0.5,-0.5 Z"/></g>
<g><path style="opacity:1" fill="#6b6b6b" d="M 18.5,2.5 C 19.4646,3.72105 19.298,5.05439 18,6.5C 17.4209,5.07153 17.5876,3.7382 18.5,2.5 Z"/></g>
<g><path style="opacity:1" fill="#747474" d="M 51.5,0.5 C 55.0794,0.765682 55.4127,2.09902 52.5,4.5C 50.8241,3.2724 50.4908,1.93906 51.5,0.5 Z"/></g>
<g><path style="opacity:1" fill="#565656" d="M 54.5,23.5 C 51.9026,26.7641 48.9026,29.7641 45.5,32.5C 43.1917,32.0345 41.8584,30.7012 41.5,28.5C 40.5041,28.5858 39.6708,28.2524 39,27.5C 38.9024,29.6193 38.0691,31.286 36.5,32.5C 30.9053,29.8072 25.2386,27.6405 19.5,26C 21.3734,27.7038 23.0401,29.5372 24.5,31.5C 23.8333,31.5 23.1667,31.5 22.5,31.5C 21.5,29.8333 20.1667,28.5 18.5,27.5C 18.5,27.1667 18.5,26.8333 18.5,26.5C 18.5,25.5 18.5,24.5 18.5,23.5C 20.9925,24.7736 23.6592,25.4403 26.5,25.5C 26.5,23.5 26.5,21.5 26.5,19.5C 25.1667,19.5 23.8333,19.5 22.5,19.5C 23.0257,14.5885 22.3591,9.92179 20.5,5.5C 20.8076,4.69194 21.3076,4.02527 22,3.5C 31.2366,5.45727 40.7366,6.12393 50.5,5.5C 50.5,10.1667 50.5,14.8333 50.5,19.5C 48.8333,19.5 47.1667,19.5 45.5,19.5C 45.5,21.5 45.5,23.5 45.5,25.5C 48.7847,25.7896 51.7847,25.123 54.5,23.5 Z"/></g>
<g><path style="opacity:1" fill="#eaeaea" d="M 48.5,7.5 C 49.4794,10.6248 49.8128,13.9581 49.5,17.5C 48.1667,17.5 46.8333,17.5 45.5,17.5C 45.5,15.1667 45.5,12.8333 45.5,10.5C 39.1667,10.5 32.8333,10.5 26.5,10.5C 27.0102,13.3878 26.3435,15.7211 24.5,17.5C 24.5,14.1667 24.5,10.8333 24.5,7.5C 32.5,7.5 40.5,7.5 48.5,7.5 Z"/></g>
<g><path style="opacity:1" fill="#c5c5c5" d="M 48.5,7.5 C 40.5,7.5 32.5,7.5 24.5,7.5C 24.5,10.8333 24.5,14.1667 24.5,17.5C 23.5184,14.0381 23.185,10.3714 23.5,6.5C 32.0168,6.17395 40.3501,6.50728 48.5,7.5 Z"/></g>
<g><path style="opacity:1" fill="#ececec" d="M 41.5,28.5 C 41.9175,27.7784 42.5842,27.2784 43.5,27C 41.9419,26.79 40.6085,26.29 39.5,25.5C 40.0906,24.8485 40.7573,24.1818 41.5,23.5C 41.3764,22.8933 41.0431,22.56 40.5,22.5C 39.1938,21.5326 38.5271,20.1993 38.5,18.5C 39.5,18.5 40.5,18.5 41.5,18.5C 41.5,17.1667 41.5,15.8333 41.5,14.5C 40.5,14.5 39.5,14.5 38.5,14.5C 37.5655,15.5676 37.2322,16.901 37.5,18.5C 36.5,18.5 35.5,18.5 34.5,18.5C 34.5,19.5 34.5,20.5 34.5,21.5C 33.325,21.281 32.325,21.6143 31.5,22.5C 31.6236,23.1067 31.9569,23.44 32.5,23.5C 31.4376,24.5754 31.4376,25.5754 32.5,26.5C 33.8333,25.8333 35.1667,25.1667 36.5,24.5C 37.1067,24.6236 37.44,24.9569 37.5,25.5C 37.0825,26.2216 36.4158,26.7216 35.5,27C 36.731,28.1827 36.731,29.3493 35.5,30.5C 32.7163,29.6083 30.0496,28.4416 27.5,27C 28.4714,21.9283 28.8047,16.7616 28.5,11.5C 33.8333,11.5 39.1667,11.5 44.5,11.5C 44.5,16.5 44.5,21.5 44.5,26.5C 49.9325,25.8126 50.5992,26.9793 46.5,30C 44.7184,30.1218 43.0518,29.6218 41.5,28.5 Z"/></g>
<g><path style="opacity:1" fill="#616161" d="M 34.5,18.5 C 33.1667,18.5 31.8333,18.5 30.5,18.5C 30.5,17.1667 30.5,15.8333 30.5,14.5C 31.8333,14.5 33.1667,14.5 34.5,14.5C 34.5,15.8333 34.5,17.1667 34.5,18.5 Z"/></g>
<g><path style="opacity:1" fill="#464646" d="M 38.5,14.5 C 39.5,14.5 40.5,14.5 41.5,14.5C 41.5,15.8333 41.5,17.1667 41.5,18.5C 40.5,18.5 39.5,18.5 38.5,18.5C 38.5,17.1667 38.5,15.8333 38.5,14.5 Z"/></g>
<g><path style="opacity:1" fill="#a0a0a0" d="M 38.5,14.5 C 38.5,15.8333 38.5,17.1667 38.5,18.5C 38.5271,20.1993 39.1938,21.5326 40.5,22.5C 38.0521,23.4731 35.3854,23.8064 32.5,23.5C 31.9569,23.44 31.6236,23.1067 31.5,22.5C 32.325,21.6143 33.325,21.281 34.5,21.5C 34.5,20.5 34.5,19.5 34.5,18.5C 35.5,18.5 36.5,18.5 37.5,18.5C 37.2322,16.901 37.5655,15.5676 38.5,14.5 Z"/></g>
<g><path style="opacity:1" fill="#b6b6b6" d="M 40.5,22.5 C 41.0431,22.56 41.3764,22.8933 41.5,23.5C 40.7573,24.1818 40.0906,24.8485 39.5,25.5C 38.8333,25.5 38.1667,25.5 37.5,25.5C 37.44,24.9569 37.1067,24.6236 36.5,24.5C 35.1667,25.1667 33.8333,25.8333 32.5,26.5C 31.4376,25.5754 31.4376,24.5754 32.5,23.5C 35.3854,23.8064 38.0521,23.4731 40.5,22.5 Z"/></g>
<g><path style="opacity:1" fill="#797979" d="M 62.5,25.5 C 63.4896,31.31 63.8229,37.31 63.5,43.5C 62.5,43.5 61.5,43.5 60.5,43.5C 59.9856,45.6984 58.9856,47.6984 57.5,49.5C 59.2516,51.2459 60.5849,53.2459 61.5,55.5C 60.209,55.7373 59.209,55.404 58.5,54.5C 57.1667,52.1667 55.8333,49.8333 54.5,47.5C 54.1412,45.629 53.1412,44.129 51.5,43C 52.8193,42.805 54.1526,42.9717 55.5,43.5C 55.5,42.8333 55.5,42.1667 55.5,41.5C 57.5,41.5 59.5,41.5 61.5,41.5C 61.5,36.8333 61.5,32.1667 61.5,27.5C 60.1266,27.3433 58.7932,27.51 57.5,28C 60.4513,31.1887 61.1179,34.6887 59.5,38.5C 59.6934,34.7515 58.6934,31.4182 56.5,28.5C 58.1561,26.9397 60.1561,25.9397 62.5,25.5 Z"/></g>
<g><path style="opacity:1" fill="#393939" d="M 18.5,23.5 C 18.5,24.5 18.5,25.5 18.5,26.5C 15.8333,26.5 13.1667,26.5 10.5,26.5C 10.5,31.5 10.5,36.5 10.5,41.5C 10.5,42.1667 10.1667,42.5 9.5,42.5C 9.5,36.8333 9.5,31.1667 9.5,25.5C 11.8568,25.6633 14.1902,25.4966 16.5,25C 15.433,22.5728 16.0997,22.0728 18.5,23.5 Z"/></g>
<g><path style="opacity:1" fill="#c9c9c9" d="M 18.5,26.5 C 18.5,26.8333 18.5,27.1667 18.5,27.5C 16.1667,27.5 13.8333,27.5 11.5,27.5C 11.5,32.1667 11.5,36.8333 11.5,41.5C 11.1667,41.5 10.8333,41.5 10.5,41.5C 10.5,36.5 10.5,31.5 10.5,26.5C 13.1667,26.5 15.8333,26.5 18.5,26.5 Z"/></g>
<g><path style="opacity:1" fill="#f3f3f3" d="M 18.5,27.5 C 20.1667,28.5 21.5,29.8333 22.5,31.5C 20.086,32.7767 19.9193,34.4434 22,36.5C 23,35.5 24,34.5 25,33.5C 25.4643,34.0944 25.631,34.7611 25.5,35.5C 23.5212,36.8121 21.8545,38.4788 20.5,40.5C 21.934,42.2199 22.7674,44.2199 23,46.5C 23.8333,44 25,43.8333 26.5,46C 24.6297,47.3662 22.6297,48.5328 20.5,49.5C 19.8333,45.1667 19.1667,40.8333 18.5,36.5C 17.5481,38.0453 17.2148,39.712 17.5,41.5C 15.5,41.5 13.5,41.5 11.5,41.5C 11.5,36.8333 11.5,32.1667 11.5,27.5C 13.8333,27.5 16.1667,27.5 18.5,27.5 Z"/></g>
<g><path style="opacity:1" fill="#eaeaea" d="M 55.5,41.5 C 54.8519,39.9142 54.3519,38.2475 54,36.5C 53.1107,37.8882 52.6107,37.7215 52.5,36C 52.8623,34.7753 53.3623,33.6086 54,32.5C 54.6667,31.1667 55.3333,31.1667 56,32.5C 56.1862,35.0356 56.6862,37.369 57.5,39.5C 58.1667,39.1667 58.8333,38.8333 59.5,38.5C 61.1179,34.6887 60.4513,31.1887 57.5,28C 58.7932,27.51 60.1266,27.3433 61.5,27.5C 61.5,32.1667 61.5,36.8333 61.5,41.5C 59.5,41.5 57.5,41.5 55.5,41.5 Z"/></g>
<g><path style="opacity:1" fill="#eeeeee" d="M 54.5,23.5 C 55.2389,23.369 55.9056,23.5357 56.5,24C 54.0991,27.9686 52.0991,32.1352 50.5,36.5C 51.5,37.8333 52.5,39.1667 53.5,40.5C 52.1667,41.1667 50.8333,41.8333 49.5,42.5C 50.8545,44.5212 52.5212,46.1879 54.5,47.5C 55.8333,49.8333 57.1667,52.1667 58.5,54.5C 57.1667,54.1667 55.8333,53.8333 54.5,53.5C 51.4493,51.6477 48.116,50.3143 44.5,49.5C 44.2786,46.7212 44.612,44.0545 45.5,41.5C 50.1973,40.0622 50.3639,38.7289 46,37.5C 44.7741,37.6448 43.6074,37.9781 42.5,38.5C 42.0028,36.784 41.6694,35.1173 41.5,33.5C 39.8827,33.6694 38.216,34.0028 36.5,34.5C 35.1468,35.5237 34.4802,36.857 34.5,38.5C 33.0222,38.238 31.6888,38.5713 30.5,39.5C 31.7701,40.2876 32.7701,41.2876 33.5,42.5C 30.577,43.1634 29.9103,44.8301 31.5,47.5C 32.6868,48.6527 33.6868,48.6527 34.5,47.5C 34.5,46.8333 34.8333,46.5 35.5,46.5C 40.4079,45.6129 43.0745,47.6129 43.5,52.5C 43.5654,52.9382 43.3988,53.2716 43,53.5C 41.9805,52.3128 40.8139,51.3128 39.5,50.5C 38.1782,55.071 37.3449,59.7376 37,64.5C 35.4148,60.5833 33.9148,56.5833 32.5,52.5C 31.5,52.1667 30.5,51.8333 29.5,51.5C 25.121,52.5159 20.7877,53.3492 16.5,54C 20.3743,51.5683 24.041,48.9016 27.5,46C 25.898,44.178 24.2313,42.3447 22.5,40.5C 24.0082,38.4925 25.8416,36.8259 28,35.5C 28.5281,34.184 28.0281,33.5173 26.5,33.5C 26.1667,32.5 25.5,31.8333 24.5,31.5C 23.0401,29.5372 21.3734,27.7038 19.5,26C 25.2386,27.6405 30.9053,29.8072 36.5,32.5C 38.0691,31.286 38.9024,29.6193 39,27.5C 39.6708,28.2524 40.5041,28.5858 41.5,28.5C 41.8584,30.7012 43.1917,32.0345 45.5,32.5C 48.9026,29.7641 51.9026,26.7641 54.5,23.5 Z"/></g>
<g><path style="opacity:1" fill="#858585" d="M 64.5,29.5 C 65.5,29.5 66.5,29.5 67.5,29.5C 67.6633,31.8568 67.4966,34.1902 67,36.5C 66.586,36.9574 66.086,37.2907 65.5,37.5C 64.52,34.9135 64.1866,32.2469 64.5,29.5 Z"/></g>
<g><path style="opacity:1" fill="#848484" d="M 7.5,30.5 C 8.46138,32.2646 8.79472,34.2646 8.5,36.5C 7.5,36.5 6.5,36.5 5.5,36.5C 5.25873,34.1137 5.9254,32.1137 7.5,30.5 Z"/></g>
<g><path style="opacity:1" fill="#b6b6b6" d="M 56.5,28.5 C 58.6934,31.4182 59.6934,34.7515 59.5,38.5C 58.8333,38.8333 58.1667,39.1667 57.5,39.5C 57.9677,35.8687 57.301,32.5354 55.5,29.5C 55.6236,28.8933 55.9569,28.56 56.5,28.5 Z"/></g>
<g><path style="opacity:1" fill="#919191" d="M 22.5,31.5 C 23.1667,31.5 23.8333,31.5 24.5,31.5C 25.5,31.8333 26.1667,32.5 26.5,33.5C 26.6716,34.4916 26.3382,35.1583 25.5,35.5C 25.631,34.7611 25.4643,34.0944 25,33.5C 24,34.5 23,35.5 22,36.5C 19.9193,34.4434 20.086,32.7767 22.5,31.5 Z"/></g>
<g><path style="opacity:1" fill="#5d5d5d" d="M 62.5,25.5 C 60.1561,25.9397 58.1561,26.9397 56.5,28.5C 55.9569,28.56 55.6236,28.8933 55.5,29.5C 57.301,32.5354 57.9677,35.8687 57.5,39.5C 56.6862,37.369 56.1862,35.0356 56,32.5C 55.3333,31.1667 54.6667,31.1667 54,32.5C 53.3623,33.6086 52.8623,34.7753 52.5,36C 52.6107,37.7215 53.1107,37.8882 54,36.5C 54.3519,38.2475 54.8519,39.9142 55.5,41.5C 55.5,42.1667 55.5,42.8333 55.5,43.5C 54.1526,42.9717 52.8193,42.805 51.5,43C 53.1412,44.129 54.1412,45.629 54.5,47.5C 52.5212,46.1879 50.8545,44.5212 49.5,42.5C 50.8333,41.8333 52.1667,41.1667 53.5,40.5C 52.5,39.1667 51.5,37.8333 50.5,36.5C 52.0991,32.1352 54.0991,27.9686 56.5,24C 55.9056,23.5357 55.2389,23.369 54.5,23.5C 59.2967,16.6471 60.2967,16.9805 57.5,24.5C 59.0453,25.4519 60.712,25.7852 62.5,25.5 Z"/></g>
<g><path style="opacity:1" fill="#505050" d="M 45.5,41.5 C 45.9528,40.5416 46.6195,39.7083 47.5,39C 45.1546,38.8301 42.8212,39.1635 40.5,40C 41.3366,41.0113 41.67,42.1779 41.5,43.5C 38.6953,41.6237 36.6953,42.2903 35.5,45.5C 35.5,45.8333 35.5,46.1667 35.5,46.5C 34.8333,46.5 34.5,46.8333 34.5,47.5C 33.5489,46.0813 33.2155,44.4147 33.5,42.5C 32.7701,41.2876 31.7701,40.2876 30.5,39.5C 31.6888,38.5713 33.0222,38.238 34.5,38.5C 34.4802,36.857 35.1468,35.5237 36.5,34.5C 38.216,34.0028 39.8827,33.6694 41.5,33.5C 41.6694,35.1173 42.0028,36.784 42.5,38.5C 43.6074,37.9781 44.7741,37.6448 46,37.5C 50.3639,38.7289 50.1973,40.0622 45.5,41.5 Z"/></g>
<g><path style="opacity:1" fill="#b7b7b7" d="M 38.5,36.5 C 38.7952,37.8967 39.1286,39.3967 39.5,41C 38.1279,41.4017 36.7946,41.9017 35.5,42.5C 35.1667,42.1667 34.8333,41.8333 34.5,41.5C 35.5,40.8333 36.5,40.1667 37.5,39.5C 36.9747,38.8076 36.3081,38.3076 35.5,38C 36.7375,37.7679 37.7375,37.2679 38.5,36.5 Z"/></g>
<g><path style="opacity:1" fill="#696969" d="M 45.5,41.5 C 44.612,44.0545 44.2786,46.7212 44.5,49.5C 48.116,50.3143 51.4493,51.6477 54.5,53.5C 53.8141,54.8484 52.8141,56.015 51.5,57C 51.7284,57.3988 52.0618,57.5654 52.5,57.5C 51.8106,58.7736 50.9772,58.7736 50,57.5C 49.3828,56.5509 49.5494,55.7175 50.5,55C 48.982,53.152 47.1487,51.652 45,50.5C 44.5357,51.0944 44.369,51.7611 44.5,52.5C 44.1667,52.5 43.8333,52.5 43.5,52.5C 43.0745,47.6129 40.4079,45.6129 35.5,46.5C 35.5,46.1667 35.5,45.8333 35.5,45.5C 37.9201,45.2924 40.2534,45.6258 42.5,46.5C 42.7486,45.4179 42.9152,44.0846 43,42.5C 43.6708,41.7476 44.5041,41.4142 45.5,41.5 Z"/></g>
<g><path style="opacity:1" fill="#f4f4f4" d="M 55.5,43.5 C 59.0794,43.7657 59.4127,45.099 56.5,47.5C 55.5713,46.3112 55.238,44.9778 55.5,43.5 Z"/></g>
<g><path style="opacity:1" fill="#dbdbdb" d="M 45.5,41.5 C 44.5041,41.4142 43.6708,41.7476 43,42.5C 42.9152,44.0846 42.7486,45.4179 42.5,46.5C 40.2534,45.6258 37.9201,45.2924 35.5,45.5C 36.6953,42.2903 38.6953,41.6237 41.5,43.5C 41.67,42.1779 41.3366,41.0113 40.5,40C 42.8212,39.1635 45.1546,38.8301 47.5,39C 46.6195,39.7083 45.9528,40.5416 45.5,41.5 Z"/></g>
<g><path style="opacity:1" fill="#6f6f6f" d="M 33.5,42.5 C 33.2155,44.4147 33.5489,46.0813 34.5,47.5C 33.6868,48.6527 32.6868,48.6527 31.5,47.5C 29.9103,44.8301 30.577,43.1634 33.5,42.5 Z"/></g>
<g><path style="opacity:1" fill="#f1f1f1" d="M 52.5,57.5 C 55.1445,59.2419 58.1445,59.9086 61.5,59.5C 61.5,61.8333 61.5,64.1667 61.5,66.5C 56.1667,66.5 50.8333,66.5 45.5,66.5C 45.5,63.8333 45.5,61.1667 45.5,58.5C 43.5,58.5 41.5,58.5 39.5,58.5C 39.3379,56.4727 39.5045,54.4727 40,52.5C 41.8153,54.4049 43.8153,56.0716 46,57.5C 46.2027,55.6092 45.7027,53.9425 44.5,52.5C 44.369,51.7611 44.5357,51.0944 45,50.5C 47.1487,51.652 48.982,53.152 50.5,55C 49.5494,55.7175 49.3828,56.5509 50,57.5C 50.9772,58.7736 51.8106,58.7736 52.5,57.5 Z"/></g>
<g><path style="opacity:1" fill="#5c5c5c" d="M 26.5,33.5 C 28.0281,33.5173 28.5281,34.184 28,35.5C 25.8416,36.8259 24.0082,38.4925 22.5,40.5C 24.2313,42.3447 25.898,44.178 27.5,46C 24.041,48.9016 20.3743,51.5683 16.5,54C 20.7877,53.3492 25.121,52.5159 29.5,51.5C 30.5,51.8333 31.5,52.1667 32.5,52.5C 33.9148,56.5833 35.4148,60.5833 37,64.5C 37.3449,59.7376 38.1782,55.071 39.5,50.5C 40.8139,51.3128 41.9805,52.3128 43,53.5C 43.3988,53.2716 43.5654,52.9382 43.5,52.5C 43.8333,52.5 44.1667,52.5 44.5,52.5C 45.7027,53.9425 46.2027,55.6092 46,57.5C 43.8153,56.0716 41.8153,54.4049 40,52.5C 39.5045,54.4727 39.3379,56.4727 39.5,58.5C 41.5,58.5 43.5,58.5 45.5,58.5C 45.5,61.1667 45.5,63.8333 45.5,66.5C 50.8333,66.5 56.1667,66.5 61.5,66.5C 61.5,64.1667 61.5,61.8333 61.5,59.5C 58.1445,59.9086 55.1445,59.2419 52.5,57.5C 52.0618,57.5654 51.7284,57.3988 51.5,57C 52.8141,56.015 53.8141,54.8484 54.5,53.5C 55.8333,53.8333 57.1667,54.1667 58.5,54.5C 59.209,55.404 60.209,55.7373 61.5,55.5C 62.7733,56.0768 62.7733,56.7435 61.5,57.5C 59.8333,56.8333 58.1667,56.1667 56.5,55.5C 55.6143,56.325 55.281,57.325 55.5,58.5C 58.1194,58.2317 60.6194,58.565 63,59.5C 63.4974,62.146 63.6641,64.8127 63.5,67.5C 57.1667,67.5 50.8333,67.5 44.5,67.5C 44.5,64.8333 44.5,62.1667 44.5,59.5C 42.0225,59.0508 40.0225,59.7175 38.5,61.5C 45.1195,61.3383 45.1195,62.1716 38.5,64C 42.449,64.8068 42.449,65.3068 38.5,65.5C 38.762,66.9778 38.4287,68.3112 37.5,69.5C 35.7863,66.7012 34.453,63.7012 33.5,60.5C 31.7015,59.2121 30.0348,59.2121 28.5,60.5C 27.8333,59.8333 27.1667,59.1667 26.5,58.5C 25.1938,57.5326 24.5271,56.1993 24.5,54.5C 20.8284,54.1826 19.1617,55.8493 19.5,59.5C 16.5,59.5 13.5,59.5 10.5,59.5C 10.5,61.8333 10.5,64.1667 10.5,66.5C 15.8333,66.5 21.1667,66.5 26.5,66.5C 27.1667,66.5 27.5,66.8333 27.5,67.5C 21.5,67.5 15.5,67.5 9.5,67.5C 9.5,64.5 9.5,61.5 9.5,58.5C 12.2469,58.8134 14.9135,58.48 17.5,57.5C 14.9433,57.2178 12.2766,57.0511 9.5,57C 11.9112,55.0445 14.4112,53.2112 17,51.5C 17.4974,48.854 17.6641,46.1873 17.5,43.5C 14.6146,43.8064 11.9479,43.4731 9.5,42.5C 10.1667,42.5 10.5,42.1667 10.5,41.5C 10.8333,41.5 11.1667,41.5 11.5,41.5C 13.5,41.5 15.5,41.5 17.5,41.5C 17.2148,39.712 17.5481,38.0453 18.5,36.5C 19.1667,40.8333 19.8333,45.1667 20.5,49.5C 22.6297,48.5328 24.6297,47.3662 26.5,46C 25,43.8333 23.8333,44 23,46.5C 22.7674,44.2199 21.934,42.2199 20.5,40.5C 21.8545,38.4788 23.5212,36.8121 25.5,35.5C 26.3382,35.1583 26.6716,34.4916 26.5,33.5 Z"/></g>
<g><path style="opacity:1" fill="#ebebeb" d="M 28.5,52.5 C 29.5,52.5 30.5,52.5 31.5,52.5C 31.5,53.5 31.5,54.5 31.5,55.5C 29.712,55.7852 28.0453,55.4519 26.5,54.5C 27.2427,53.8182 27.9094,53.1515 28.5,52.5 Z"/></g>
<g><path style="opacity:1" fill="#fbfbfb" d="M 26.5,58.5 C 26.5,60.8333 26.5,63.1667 26.5,65.5C 21.5,65.5 16.5,65.5 11.5,65.5C 11.5,63.8333 11.5,62.1667 11.5,60.5C 14.3854,60.8064 17.0521,60.4731 19.5,59.5C 19.1617,55.8493 20.8284,54.1826 24.5,54.5C 24.5271,56.1993 25.1938,57.5326 26.5,58.5 Z"/></g>
<g><path style="opacity:1" fill="#7a7a7a" d="M 26.5,58.5 C 27.1667,59.1667 27.8333,59.8333 28.5,60.5C 28.8016,63.0593 28.4682,65.3926 27.5,67.5C 27.5,66.8333 27.1667,66.5 26.5,66.5C 26.5,66.1667 26.5,65.8333 26.5,65.5C 26.5,63.1667 26.5,60.8333 26.5,58.5 Z"/></g>
<g><path style="opacity:1" fill="#d2d2d2" d="M 19.5,59.5 C 17.0521,60.4731 14.3854,60.8064 11.5,60.5C 11.5,62.1667 11.5,63.8333 11.5,65.5C 16.5,65.5 21.5,65.5 26.5,65.5C 26.5,65.8333 26.5,66.1667 26.5,66.5C 21.1667,66.5 15.8333,66.5 10.5,66.5C 10.5,64.1667 10.5,61.8333 10.5,59.5C 13.5,59.5 16.5,59.5 19.5,59.5 Z"/></g>
<g><path style="opacity:1" fill="#919191" d="M 6.5,67.5 C 8.1344,68.2066 9.46773,69.3732 10.5,71C 9.33333,71.5 8.5,72.3333 8,73.5C 6.70201,72.4404 5.53535,71.2737 4.5,70C 5.05558,68.9889 5.72225,68.1556 6.5,67.5 Z"/></g>
</svg>
