<?xml version="1.0" encoding="UTF-8"?>
<!DOCTYPE svg PUBLIC "-//W3C//DTD SVG 1.1//EN" "http://www.w3.org/Graphics/SVG/1.1/DTD/svg11.dtd">
<svg xmlns="http://www.w3.org/2000/svg" version="1.1" width="75px" height="75px" style="shape-rendering:geometricPrecision; text-rendering:geometricPrecision; image-rendering:optimizeQuality; fill-rule:evenodd; clip-rule:evenodd" xmlns:xlink="http://www.w3.org/1999/xlink">
<g><path style="opacity:0.995" fill="#fcfcfc" d="M -0.5,-0.5 C 24.5,-0.5 49.5,-0.5 74.5,-0.5C 74.5,24.5 74.5,49.5 74.5,74.5C 49.5,74.5 24.5,74.5 -0.5,74.5C -0.5,49.5 -0.5,24.5 -0.5,-0.5 Z"/></g>
<g><path style="opacity:1" fill="#7c7c7c" d="M 23.5,5.5 C 23.5,6.16667 23.8333,6.5 24.5,6.5C 24.5,10.1667 24.5,13.8333 24.5,17.5C 25.5,17.5 26.5,17.5 27.5,17.5C 27.5,18.1667 27.5,18.8333 27.5,19.5C 25.8561,19.7135 24.3561,19.3802 23,18.5C 22.1864,13.9796 22.353,9.64631 23.5,5.5 Z"/></g>
<g><path style="opacity:1" fill="#f6f6f6" d="M 24.5,6.5 C 32.8333,6.5 41.1667,6.5 49.5,6.5C 49.5,10.1667 49.5,13.8333 49.5,17.5C 48.5,17.5 47.5,17.5 46.5,17.5C 46.5,15.1667 46.5,12.8333 46.5,10.5C 40.1667,9.16667 33.8333,9.16667 27.5,10.5C 27.5,12.8333 27.5,15.1667 27.5,17.5C 26.5,17.5 25.5,17.5 24.5,17.5C 24.5,13.8333 24.5,10.1667 24.5,6.5 Z"/></g>
<g><path style="opacity:1" fill="#5f5f5f" d="M 23.5,5.5 C 32.5,5.5 41.5,5.5 50.5,5.5C 50.5,10.1667 50.5,14.8333 50.5,19.5C 49.1667,19.5 47.8333,19.5 46.5,19.5C 46.5,21.5 46.5,23.5 46.5,25.5C 52.1667,25.5 57.8333,25.5 63.5,25.5C 63.6716,26.4916 63.3382,27.1583 62.5,27.5C 56.69,26.5104 50.69,26.1771 44.5,26.5C 44.5,21.5 44.5,16.5 44.5,11.5C 44.8417,10.6618 45.5084,10.3284 46.5,10.5C 46.5,12.8333 46.5,15.1667 46.5,17.5C 47.5,17.5 48.5,17.5 49.5,17.5C 49.5,13.8333 49.5,10.1667 49.5,6.5C 41.1667,6.5 32.8333,6.5 24.5,6.5C 23.8333,6.5 23.5,6.16667 23.5,5.5 Z"/></g>
<g><path style="opacity:1" fill="#868686" d="M 27.5,10.5 C 33.8333,9.16667 40.1667,9.16667 46.5,10.5C 45.5084,10.3284 44.8417,10.6618 44.5,11.5C 39.5,11.5 34.5,11.5 29.5,11.5C 29.1583,10.6618 28.4916,10.3284 27.5,10.5 Z"/></g>
<g><path style="opacity:1" fill="#f8f8f8" d="M 29.5,11.5 C 34.5,11.5 39.5,11.5 44.5,11.5C 44.5,16.5 44.5,21.5 44.5,26.5C 50.69,26.1771 56.69,26.5104 62.5,27.5C 62.5,32.1667 62.5,36.8333 62.5,41.5C 60.1667,41.5 57.8333,41.5 55.5,41.5C 54.3756,44.0873 54.0422,50.0873 54.5,59.5C 56.9479,60.4731 59.6146,60.8064 62.5,60.5C 62.5,62.5 62.5,64.5 62.5,66.5C 57.1667,66.5 51.8333,66.5 46.5,66.5C 46.5,63.8333 46.5,61.1667 46.5,58.5C 39.9779,58.1765 33.6446,58.5098 27.5,59.5C 27.5,61.8333 27.5,64.1667 27.5,66.5C 22.1667,66.5 16.8333,66.5 11.5,66.5C 11.5,64.5 11.5,62.5 11.5,60.5C 14.3854,60.8064 17.0521,60.4731 19.5,59.5C 19.8254,51.6484 19.492,43.9818 18.5,36.5C 17.5489,37.9187 17.2155,39.5853 17.5,41.5C 15.5,41.5 13.5,41.5 11.5,41.5C 11.5,36.8333 11.5,32.1667 11.5,27.5C 16.9753,26.5111 22.642,26.1778 28.5,26.5C 28.1795,21.3054 28.5128,16.3054 29.5,11.5 Z"/></g>
<g><path style="opacity:1" fill="#252525" d="M 38.5,16.5 C 40.4832,16.1568 41.8166,16.8235 42.5,18.5C 41.1667,18.5 39.8333,18.5 38.5,18.5C 38.5,17.8333 38.5,17.1667 38.5,16.5 Z"/></g>
<g><path style="opacity:1" fill="#272727" d="M 35.5,16.5 C 35.5,17.1667 35.5,17.8333 35.5,18.5C 34.1667,18.5 32.8333,18.5 31.5,18.5C 32.1834,16.8235 33.5168,16.1568 35.5,16.5 Z"/></g>
<g><path style="opacity:1" fill="#999999" d="M 35.5,16.5 C 33.5168,16.1568 32.1834,16.8235 31.5,18.5C 30.5489,17.0813 30.2155,15.4147 30.5,13.5C 32.1667,13.5 33.8333,13.5 35.5,13.5C 35.5,14.5 35.5,15.5 35.5,16.5 Z"/></g>
<g><path style="opacity:1" fill="#9e9e9e" d="M 42.5,18.5 C 41.8166,16.8235 40.4832,16.1568 38.5,16.5C 38.5,15.5 38.5,14.5 38.5,13.5C 40.1667,13.5 41.8333,13.5 43.5,13.5C 43.7845,15.4147 43.4511,17.0813 42.5,18.5 Z"/></g>
<g><path style="opacity:1" fill="#999999" d="M 31.5,18.5 C 32.8333,18.5 34.1667,18.5 35.5,18.5C 36.5,18.5 37.5,18.5 38.5,18.5C 39.8333,18.5 41.1667,18.5 42.5,18.5C 41.2825,19.1614 39.9492,19.8281 38.5,20.5C 42.3038,22.4275 41.8038,23.4275 37,23.5C 32.1962,23.4275 31.6962,22.4275 35.5,20.5C 34.0508,19.8281 32.7175,19.1614 31.5,18.5 Z"/></g>
<g><path style="opacity:1" fill="#535353" d="M 27.5,10.5 C 28.4916,10.3284 29.1583,10.6618 29.5,11.5C 28.5128,16.3054 28.1795,21.3054 28.5,26.5C 22.642,26.1778 16.9753,26.5111 11.5,27.5C 10.6618,27.1583 10.3284,26.4916 10.5,25.5C 16.1667,25.5 21.8333,25.5 27.5,25.5C 27.5,23.5 27.5,21.5 27.5,19.5C 27.5,18.8333 27.5,18.1667 27.5,17.5C 27.5,15.1667 27.5,12.8333 27.5,10.5 Z"/></g>
<g><path style="opacity:1" fill="#818181" d="M 10.5,25.5 C 10.3284,26.4916 10.6618,27.1583 11.5,27.5C 11.5,32.1667 11.5,36.8333 11.5,41.5C 13.5,41.5 15.5,41.5 17.5,41.5C 17.2155,39.5853 17.5489,37.9187 18.5,36.5C 18.702,38.9496 18.3686,41.283 17.5,43.5C 14.8806,43.7683 12.3806,43.435 10,42.5C 9.18163,36.6513 9.3483,30.9846 10.5,25.5 Z"/></g>
<g><path style="opacity:1" fill="#5c5c5c" d="M 39.5,40.5 C 39.5,41.5 39.5,42.5 39.5,43.5C 37.1727,43.2471 35.1727,43.9137 33.5,45.5C 32.4155,42.0328 33.4155,39.1995 36.5,37C 38.3668,36.2888 39.8668,36.7888 41,38.5C 41.5281,39.816 41.0281,40.4827 39.5,40.5 Z"/></g>
<g><path style="opacity:1" fill="#8a8a8a" d="M 41.5,35.5 C 42.1894,34.2264 43.0228,34.2264 44,35.5C 44.7494,36.635 44.5827,37.635 43.5,38.5C 42.8243,37.3984 42.1577,36.3984 41.5,35.5 Z"/></g>
<g><path style="opacity:1" fill="#d4d4d4" d="M 39.5,40.5 C 38.5326,41.8062 37.1993,42.4729 35.5,42.5C 35.2837,40.3193 36.117,38.6526 38,37.5C 39.0386,38.2438 39.5386,39.2438 39.5,40.5 Z"/></g>
<g><path style="opacity:1" fill="#6d6d6d" d="M 63.5,25.5 C 64.4896,31.31 64.8229,37.31 64.5,43.5C 61.5,43.5 58.5,43.5 55.5,43.5C 55.5,48.5 55.5,53.5 55.5,58.5C 55.5,59.1667 55.1667,59.5 54.5,59.5C 54.0422,50.0873 54.3756,44.0873 55.5,41.5C 57.8333,41.5 60.1667,41.5 62.5,41.5C 62.5,36.8333 62.5,32.1667 62.5,27.5C 63.3382,27.1583 63.6716,26.4916 63.5,25.5 Z"/></g>
<g><path style="opacity:1" fill="#525252" d="M 18.5,36.5 C 19.492,43.9818 19.8254,51.6484 19.5,59.5C 18.5084,59.6716 17.8417,59.3382 17.5,58.5C 18.8333,53.5 18.8333,48.5 17.5,43.5C 18.3686,41.283 18.702,38.9496 18.5,36.5 Z"/></g>
<g><path style="opacity:1" fill="#5d5d5d" d="M 29.5,43.5 C 30.3164,45.1436 31.6498,46.3103 33.5,47C 30.5096,47.8469 29.1762,46.6802 29.5,43.5 Z"/></g>
<g><path style="opacity:1" fill="#7f7f7f" d="M 17.5,58.5 C 17.8417,59.3382 18.5084,59.6716 19.5,59.5C 17.0521,60.4731 14.3854,60.8064 11.5,60.5C 11.5,62.5 11.5,64.5 11.5,66.5C 10.8333,66.5 10.5,66.8333 10.5,67.5C 7.44249,60.3623 9.77582,57.3623 17.5,58.5 Z"/></g>
<g><path style="opacity:1" fill="#767676" d="M 27.5,59.5 C 33.6446,58.5098 39.9779,58.1765 46.5,58.5C 46.5,61.1667 46.5,63.8333 46.5,66.5C 51.8333,66.5 57.1667,66.5 62.5,66.5C 63.1667,66.5 63.5,66.8333 63.5,67.5C 57.6812,68.6525 51.6812,68.8192 45.5,68C 44.565,65.6194 44.2317,63.1194 44.5,60.5C 39.1667,60.5 33.8333,60.5 28.5,60.5C 28.5,59.8333 28.1667,59.5 27.5,59.5 Z"/></g>
<g><path style="opacity:1" fill="#7f7f7f" d="M 55.5,58.5 C 64.0177,56.6743 66.6844,59.6743 63.5,67.5C 63.5,66.8333 63.1667,66.5 62.5,66.5C 62.5,64.5 62.5,62.5 62.5,60.5C 59.6146,60.8064 56.9479,60.4731 54.5,59.5C 55.1667,59.5 55.5,59.1667 55.5,58.5 Z"/></g>
<g><path style="opacity:1" fill="#636363" d="M 27.5,59.5 C 28.1667,59.5 28.5,59.8333 28.5,60.5C 28.5,63.1667 28.5,65.8333 28.5,68.5C 22.31,68.8229 16.31,68.4896 10.5,67.5C 10.5,66.8333 10.8333,66.5 11.5,66.5C 16.8333,66.5 22.1667,66.5 27.5,66.5C 27.5,64.1667 27.5,61.8333 27.5,59.5 Z"/></g>
</svg>
