<?xml version="1.0" encoding="UTF-8"?>
<svg version="1.1" xmlns="http://www.w3.org/2000/svg" width="300" height="300">
<path d="M0 0 C99 0 198 0 300 0 C300 99 300 198 300 300 C201 300 102 300 0 300 C0 201 0 102 0 0 Z " fill="#FEFEFE" transform="translate(0,0)"/>
<path d="M0 0 C36.3 0 72.6 0 110 0 C110 18.15 110 36.3 110 55 C104.06 55 98.12 55 92 55 C92 62.92 92 70.84 92 79 C115.76 79 139.52 79 164 79 C164 102.76 164 126.52 164 151 C152.78 151 141.56 151 130 151 C130 170.47 130 189.94 130 210 C130.66 210 131.32 210 132 210 C132 210.66 132 211.32 132 212 C132.89831543 211.99476318 133.79663086 211.98952637 134.72216797 211.98413086 C138.05062499 211.96710275 141.37903581 211.95455663 144.70751953 211.94506836 C146.1489332 211.94003526 147.59034176 211.93320827 149.03173828 211.92456055 C151.10190085 211.91245017 153.17199601 211.90676153 155.2421875 211.90234375 C156.4885498 211.89710693 157.73491211 211.89187012 159.01904297 211.88647461 C162 212 162 212 164 213 C164.0246826 217.94791294 164.04285166 222.8957902 164.05493164 227.84375 C164.05996653 229.52767562 164.06679481 231.21159686 164.07543945 232.89550781 C164.08754196 235.31316203 164.09323668 237.73075856 164.09765625 240.1484375 C164.10281754 240.9036972 164.10797882 241.65895691 164.11329651 242.43710327 C164.11387171 247.77225659 164.11387171 247.77225659 163 250 C138.25 250 113.5 250 88 250 C88 239.11 88 228.22 88 217 C66.22 217 44.44 217 22 217 C22 227.89 22 238.78 22 250 C-3.08 250 -28.16 250 -54 250 C-55.58645357 246.82709287 -55.12078213 243.41174616 -55.09765625 239.9296875 C-55.0962413 239.13345978 -55.09482635 238.33723206 -55.09336853 237.51687622 C-55.08776345 234.9695462 -55.07521014 232.42230353 -55.0625 229.875 C-55.05748565 228.14974085 -55.05292263 226.42448033 -55.04882812 224.69921875 C-55.03779237 220.46611209 -55.02052436 216.23307086 -55 212 C-54.01 212 -53.02 212 -52 212 C-52 211.34 -52 210.68 -52 210 C-41.44 210 -30.88 210 -20 210 C-20 190.53 -20 171.06 -20 151 C-30.56 151 -41.12 151 -52 151 C-52 127.24 -52 103.48 -52 79 C-29.23 79 -6.46 79 17 79 C17 71.08 17 63.16 17 55 C11.39 55 5.78 55 0 55 C0 36.85 0 18.7 0 0 Z " fill="#FBFBFB" transform="translate(94,24)"/>
<path d="M0 0 C36.3 0 72.6 0 110 0 C110 18.15 110 36.3 110 55 C104.06 55 98.12 55 92 55 C92 62.92 92 70.84 92 79 C115.76 79 139.52 79 164 79 C164 102.76 164 126.52 164 151 C152.78 151 141.56 151 130 151 C130 170.47 130 189.94 130 210 C130.66 210 131.32 210 132 210 C132 210.66 132 211.32 132 212 C132.89831543 211.99476318 133.79663086 211.98952637 134.72216797 211.98413086 C138.05062499 211.96710275 141.37903581 211.95455663 144.70751953 211.94506836 C146.1489332 211.94003526 147.59034176 211.93320827 149.03173828 211.92456055 C151.10190085 211.91245017 153.17199601 211.90676153 155.2421875 211.90234375 C156.4885498 211.89710693 157.73491211 211.89187012 159.01904297 211.88647461 C162 212 162 212 164 213 C164.0246826 217.94791294 164.04285166 222.8957902 164.05493164 227.84375 C164.05996653 229.52767562 164.06679481 231.21159686 164.07543945 232.89550781 C164.08754196 235.31316203 164.09323668 237.73075856 164.09765625 240.1484375 C164.10281754 240.9036972 164.10797882 241.65895691 164.11329651 242.43710327 C164.11387171 247.77225659 164.11387171 247.77225659 163 250 C138.25 250 113.5 250 88 250 C88 239.11 88 228.22 88 217 C66.22 217 44.44 217 22 217 C22 227.89 22 238.78 22 250 C-3.08 250 -28.16 250 -54 250 C-55.58645357 246.82709287 -55.12078213 243.41174616 -55.09765625 239.9296875 C-55.0962413 239.13345978 -55.09482635 238.33723206 -55.09336853 237.51687622 C-55.08776345 234.9695462 -55.07521014 232.42230353 -55.0625 229.875 C-55.05748565 228.14974085 -55.05292263 226.42448033 -55.04882812 224.69921875 C-55.03779237 220.46611209 -55.02052436 216.23307086 -55 212 C-54.01 212 -53.02 212 -52 212 C-52 211.34 -52 210.68 -52 210 C-41.44 210 -30.88 210 -20 210 C-20 190.53 -20 171.06 -20 151 C-30.56 151 -41.12 151 -52 151 C-52 127.24 -52 103.48 -52 79 C-29.23 79 -6.46 79 17 79 C17 71.08 17 63.16 17 55 C11.39 55 5.78 55 0 55 C0 36.85 0 18.7 0 0 Z M22 22 C22 43.12 22 64.24 22 86 C-0.44 86 -22.88 86 -46 86 C-46 105.14 -46 124.28 -46 144 C-37.42 144 -28.84 144 -20 144 C-20 137.07 -20 130.14 -20 123 C-18.35 123 -16.7 123 -15 123 C-15 154.02 -15 185.04 -15 217 C-25.89 217 -36.78 217 -48 217 C-48 226.24 -48 235.48 -48 245 C-26.88 245 -5.76 245 16 245 C16 244.34 16 243.68 16 243 C16.66 243 17.32 243 18 243 C18 233.76 18 224.52 18 215 C18.66 215 19.32 215 20 215 C20 214.34 20 213.68 20 213 C43.76 213.33 67.52 213.66 92 214 C92 224.23 92 234.46 92 245 C113.78 245 135.56 245 158 245 C158 235.76 158 226.52 158 217 C147.11 217 136.22 217 125 217 C125 185.98 125 154.96 125 123 C126.32 123 127.64 123 129 123 C129 130.92 129 138.84 129 147 C138.57 147 148.14 147 158 147 C158 126.54 158 106.08 158 85 C134.9 85 111.8 85 88 85 C88 64.21 88 43.42 88 22 C66.22 22 44.44 22 22 22 Z " fill="#404040" transform="translate(94,24)"/>
<path d="M0 0 C3.29164829 -0.02895225 6.58326399 -0.0467823 9.875 -0.0625 C10.81214844 -0.07087891 11.74929687 -0.07925781 12.71484375 -0.08789062 C14.05869141 -0.09272461 14.05869141 -0.09272461 15.4296875 -0.09765625 C16.67081299 -0.10551147 16.67081299 -0.10551147 17.93701172 -0.11352539 C20 0 20 0 22 1 C22 2.32 22 3.64 22 5 C22.66 5 23.32 5 24 5 C24 5.66 24 6.32 24 7 C24.99 7 25.98 7 27 7 C27 7.66 27 8.32 27 9 C27.66 9 28.32 9 29 9 C29 9.66 29 10.32 29 11 C29.66 11 30.32 11 31 11 C31 11.66 31 12.32 31 13 C31.99 13 32.98 13 34 13 C34 14.65 34 16.3 34 18 C31.69 18 29.38 18 27 18 C27 17.34 27 16.68 27 16 C26.01 16 25.02 16 24 16 C23.67 17.32 23.34 18.64 23 20 C23.66 20 24.32 20 25 20 C25 20.66 25 21.32 25 22 C25.60328125 21.95359375 26.2065625 21.9071875 26.828125 21.859375 C33.44702639 21.56045687 33.44702639 21.56045687 36.4375 23.9375 C36.953125 24.618125 37.46875 25.29875 38 26 C38.66 26.33 39.32 26.66 40 27 C40 30.63 40 34.26 40 38 C39.34 38 38.68 38 38 38 C38 38.66 38 39.32 38 40 C37.01 40 36.02 40 35 40 C35 40.66 35 41.32 35 42 C31.7 42 28.4 42 25 42 C25 43.98 25 45.96 25 48 C26.32 48 27.64 48 29 48 C29 51.63 29 55.26 29 59 C27.02 59.495 27.02 59.495 25 60 C25 61.32 25 62.64 25 64 C22.03 64 19.06 64 16 64 C16 63.34 16 62.68 16 62 C15.01 62 14.02 62 13 62 C13 61.34 13 60.68 13 60 C12.34 60 11.68 60 11 60 C11 59.34 11 58.68 11 58 C10.34 58 9.68 58 9 58 C9 57.01 9 56.02 9 55 C8.34 55 7.68 55 7 55 C7 54.34 7 53.68 7 53 C4.69 53 2.38 53 0 53 C0 54.65 0 56.3 0 58 C-3.4019487 60.09350689 -6.05272412 60.17942163 -10 60 C-10 60.66 -10 61.32 -10 62 C-8.02 62 -6.04 62 -4 62 C-4 63.98 -4 65.96 -4 68 C-6.97 68.99 -6.97 68.99 -10 70 C-10 71.65 -10 73.3 -10 75 C-18.96523405 75.61593211 -18.96523405 75.61593211 -22.625 73.4375 C-24.46392977 70.17757904 -24.28299062 67.67887806 -24 64 C-23.01 64 -22.02 64 -21 64 C-21 61.69 -21 59.38 -21 57 C-20.34 57 -19.68 57 -19 57 C-19 56.34 -19 55.68 -19 55 C-17.68 55 -16.36 55 -15 55 C-15 51.37 -15 47.74 -15 44 C-19.95 44 -24.9 44 -30 44 C-30 43.34 -30 42.68 -30 42 C-30.66 42 -31.32 42 -32 42 C-32 37.71 -32 33.42 -32 29 C-31.34 29 -30.68 29 -30 29 C-30 28.34 -30 27.68 -30 27 C-29.34 27 -28.68 27 -28 27 C-28 26.34 -28 25.68 -28 25 C-24.37 25 -20.74 25 -17 25 C-17 23.35 -17 21.7 -17 20 C-18.32 20 -19.64 20 -21 20 C-22.73830497 16.99060247 -23.251248 14.84057335 -23.1875 11.375 C-23.17783203 10.21097656 -23.17783203 10.21097656 -23.16796875 9.0234375 C-23 7 -23 7 -22 5 C-21.01 5 -20.02 5 -19 5 C-19 4.34 -19 3.68 -19 3 C-16.03 3 -13.06 3 -10 3 C-10 3.66 -10 4.32 -10 5 C-8.68 5 -7.36 5 -6 5 C-6 5.66 -6 6.32 -6 7 C-4.35 7 -2.7 7 -1 7 C-0.67 4.69 -0.34 2.38 0 0 Z " fill="#575757" transform="translate(144,131)"/>
<path d="M0 0 C1.32 0 2.64 0 4 0 C4 31.02 4 62.04 4 94 C-6.89 94 -17.78 94 -29 94 C-29 103.24 -29 112.48 -29 122 C-7.88 122 13.24 122 35 122 C35 121.34 35 120.68 35 120 C35.66 120 36.32 120 37 120 C37 110.76 37 101.52 37 92 C37.66 92 38.32 92 39 92 C39 91.34 39 90.68 39 90 C48.09232091 89.97685965 57.18463173 89.95907625 66.27697563 89.94818783 C70.49862582 89.94296272 74.72025591 89.93587178 78.94189453 89.92456055 C83.01376672 89.9137185 87.08561953 89.90772036 91.15750504 89.90512276 C92.71328156 89.90327089 94.26905698 89.89965482 95.82482529 89.89426994 C97.99896307 89.88704205 100.17302016 89.8860098 102.34716797 89.88647461 C103.58626923 89.884254 104.82537048 89.88203339 106.10202026 89.87974548 C109 90 109 90 111 91 C111 101.23 111 111.46 111 122 C132.78 122 154.56 122 177 122 C177 112.76 177 103.52 177 94 C166.11 94 155.22 94 144 94 C144 62.98 144 31.96 144 0 C145.32 0 146.64 0 148 0 C148 7.92 148 15.84 148 24 C158.23 24 168.46 24 179 24 C179 25.32 179 26.64 179 28 C169.1 28 159.2 28 149 28 C149 47.47 149 66.94 149 87 C149.66 87 150.32 87 151 87 C151 87.66 151 88.32 151 89 C151.89831543 88.99476318 152.79663086 88.98952637 153.72216797 88.98413086 C157.05062499 88.96710275 160.37903581 88.95455663 163.70751953 88.94506836 C165.1489332 88.94003526 166.59034176 88.93320827 168.03173828 88.92456055 C170.10190085 88.91245017 172.17199601 88.90676153 174.2421875 88.90234375 C175.4885498 88.89710693 176.73491211 88.89187012 178.01904297 88.88647461 C181 89 181 89 183 90 C183.0246826 94.94791294 183.04285166 99.8957902 183.05493164 104.84375 C183.05996653 106.52767562 183.06679481 108.21159686 183.07543945 109.89550781 C183.08754196 112.31316203 183.09323668 114.73075856 183.09765625 117.1484375 C183.10281754 117.9036972 183.10797882 118.65895691 183.11329651 119.43710327 C183.11387171 124.77225659 183.11387171 124.77225659 182 127 C157.25 127 132.5 127 107 127 C107 116.11 107 105.22 107 94 C85.22 94 63.44 94 41 94 C41 104.23 41 114.46 41 125 C38.11003324 126.44498338 35.60778788 126.12731121 32.37890625 126.12939453 C31.69907684 126.13114685 31.01924744 126.13289917 30.31881714 126.13470459 C28.06668563 126.13911375 25.81463234 126.13618841 23.5625 126.1328125 C22.00073227 126.13348581 20.43896464 126.13445606 18.87719727 126.13571167 C15.60204064 126.13718737 12.32691127 126.13503817 9.05175781 126.13037109 C4.84822928 126.12467388 0.64476459 126.12795356 -3.5587616 126.13394356 C-6.78430667 126.1375526 -10.00983655 126.136409 -13.23538208 126.13381577 C-14.7855734 126.13314745 -16.33576609 126.13397161 -17.88595581 126.13629532 C-20.05030995 126.13882745 -22.21455989 126.13497332 -24.37890625 126.12939453 C-25.6119751 126.12859894 -26.84504395 126.12780334 -28.11547852 126.12698364 C-31 126 -31 126 -33 125 C-33 114.11 -33 103.22 -33 92 C-32.34 92 -31.68 92 -31 92 C-31 91.34 -31 90.68 -31 90 C-16.15 89.505 -16.15 89.505 -1 89 C-0.67 68.21 -0.34 47.42 0 26 C-10.23 26 -20.46 26 -31 26 C-31 25.34 -31 24.68 -31 24 C-20.77 24 -10.54 24 0 24 C0 16.08 0 8.16 0 0 Z " fill="#3A3A3A" transform="translate(75,147)"/>
<path d="M0 0 C1.40013336 -0.00262848 1.40013336 -0.00262848 2.82855225 -0.00531006 C5.92478272 -0.0097239 9.02095641 -0.00679221 12.1171875 -0.00341797 C14.26188162 -0.00409114 16.40657567 -0.00506128 18.55126953 -0.00631714 C23.0504631 -0.00779348 27.54963685 -0.00564159 32.04882812 -0.00097656 C37.82623879 0.00472068 43.603603 0.00144134 49.38101196 -0.00454903 C53.81095736 -0.00815635 58.24089168 -0.00701526 62.6708374 -0.00442123 C64.80157476 -0.00375244 66.93231312 -0.00457873 69.06304932 -0.00690079 C72.03685179 -0.0094301 75.01057822 -0.00558273 77.984375 0 C78.87171326 -0.00202423 79.75905151 -0.00404846 80.67327881 -0.00613403 C86.7636599 0.01513073 86.7636599 0.01513073 88.9921875 1.12939453 C88.9921875 14.65939453 88.9921875 28.18939453 88.9921875 42.12939453 C84.7021875 42.12939453 80.4121875 42.12939453 75.9921875 42.12939453 C75.9921875 32.88939453 75.9921875 23.64939453 75.9921875 14.12939453 C75.3321875 14.12939453 74.6721875 14.12939453 73.9921875 14.12939453 C73.9921875 13.46939453 73.9921875 12.80939453 73.9921875 12.12939453 C50.2321875 12.12939453 26.4721875 12.12939453 1.9921875 12.12939453 C1.9921875 22.02939453 1.9921875 31.92939453 1.9921875 42.12939453 C-2.2978125 42.12939453 -6.5878125 42.12939453 -11.0078125 42.12939453 C-11.0078125 28.59939453 -11.0078125 15.06939453 -11.0078125 1.12939453 C-7.6103421 -0.56934067 -3.73733311 -0.00852575 0 0 Z " fill="#F9F9F9" transform="translate(110.0078125,29.87060546875)"/>
<path d="M0 0 C1.32 0 2.64 0 4 0 C4 0.66 4 1.32 4 2 C4.99 2 5.98 2 7 2 C7 2.66 7 3.32 7 4 C7.66 4 8.32 4 9 4 C9 4.66 9 5.32 9 6 C9.66 6 10.32 6 11 6 C11 6.99 11 7.98 11 9 C11.66 9 12.32 9 13 9 C13 9.66 13 10.32 13 11 C13.66 11 14.32 11 15 11 C15 11.66 15 12.32 15 13 C17.31 13 19.62 13 22 13 C22 12.34 22 11.68 22 11 C22.66 11 23.32 11 24 11 C24 10.34 24 9.68 24 9 C24.66 9 25.32 9 26 9 C26 8.34 26 7.68 26 7 C30.75 5.875 30.75 5.875 33 7 C33 8.98 33 10.96 33 13 C33.66 13 34.32 13 35 13 C35 14.65 35 16.3 35 18 C36.32 18 37.64 18 39 18 C39 18.66 39 19.32 39 20 C41.97 20 44.94 20 48 20 C48 20.66 48 21.32 48 22 C48.66 22 49.32 22 50 22 C50 23.98 50 25.96 50 28 C49.34 28 48.68 28 48 28 C48 28.99 48 29.98 48 31 C46.01432292 31.22786458 44.02864583 31.45572917 42.04296875 31.68359375 C39.80603607 31.97170735 39.80603607 31.97170735 37 33 C37 33.66 37 34.32 37 35 C36.34 35 35.68 35 35 35 C35 36.98 35 38.96 35 41 C35.66 41 36.32 41 37 41 C37 41.99 37 42.98 37 44 C37.66 44 38.32 44 39 44 C39 45.98 39 47.96 39 50 C37.02 50 35.04 50 33 50 C33 49.34 33 48.68 33 48 C32.34 48 31.68 48 31 48 C31 47.34 31 46.68 31 46 C30.01 46 29.02 46 28 46 C28 45.34 28 44.68 28 44 C27.34 44 26.68 44 26 44 C26 43.01 26 42.02 26 41 C25.34 41 24.68 41 24 41 C24 40.34 24 39.68 24 39 C21.69 39 19.38 39 17 39 C17 39.66 17 40.32 17 41 C16.34 41 15.68 41 15 41 C15 41.66 15 42.32 15 43 C14.34 43 13.68 43 13 43 C13 43.99 13 44.98 13 46 C11.68 46 10.36 46 9 46 C9 41.71 9 37.42 9 33 C8.34 33 7.68 33 7 33 C7 32.34 7 31.68 7 31 C4.03 31 1.06 31 -2 31 C-2 31.66 -2 32.32 -2 33 C-4.97 33 -7.94 33 -11 33 C-11 30.03 -11 27.06 -11 24 C-10.34 24 -9.68 24 -9 24 C-9 23.34 -9 22.68 -9 22 C-5.37 22 -1.74 22 2 22 C2 21.34 2 20.68 2 20 C2.99 19.34 3.98 18.68 5 18 C5.72965366 15.43717258 5.72965366 15.43717258 6 13 C5.34 13 4.68 13 4 13 C4 12.34 4 11.68 4 11 C3.34 11 2.68 11 2 11 C2 10.34 2 9.68 2 9 C1.34 9 0.68 9 0 9 C0 6.03 0 3.06 0 0 Z " fill="#EFEFEF" transform="translate(127,138)"/>
<path d="M0 0 C0.33 0 0.66 0 1 0 C1 8.58 1 17.16 1 26 C-21.44 26 -43.88 26 -67 26 C-67 27.32 -67 28.64 -67 30 C-43.24 30 -19.48 30 5 30 C5 30.33 5 30.66 5 31 C-17.44 31 -39.88 31 -63 31 C-63 50.14 -63 69.28 -63 89 C-54.42 89 -45.84 89 -37 89 C-37 82.07 -37 75.14 -37 68 C-36.67 68 -36.34 68 -36 68 C-36 75.92 -36 83.84 -36 92 C-46.23 92 -56.46 92 -67 92 C-67 92.66 -67 93.32 -67 94 C-56.77 94 -46.54 94 -36 94 C-35.95989119 109.68254445 -35.95989119 109.68254445 -35.95117188 116.34570312 C-35.94518427 120.89983275 -35.93808617 125.45394235 -35.92456055 130.00805664 C-35.9137288 133.67792544 -35.90772256 137.34777278 -35.90512276 141.01765633 C-35.90326903 142.42074992 -35.8996494 143.82384229 -35.89426994 145.2269268 C-35.88705581 147.1856968 -35.88659191 149.1444882 -35.88647461 151.10327148 C-35.884254 152.22023911 -35.88203339 153.33720673 -35.87974548 154.48802185 C-36 157 -36 157 -37 158 C-39.21855264 158.08783542 -41.43988496 158.10694609 -43.66015625 158.09765625 C-44.65685585 158.09553383 -44.65685585 158.09553383 -45.6736908 158.09336853 C-47.80333899 158.08775518 -49.93288339 158.07520054 -52.0625 158.0625 C-53.50325369 158.05748671 -54.94400903 158.05292351 -56.38476562 158.04882812 C-59.92321102 158.03778145 -63.46159539 158.02050792 -67 158 C-67 158.66 -67 159.32 -67 160 C-67.66 160 -68.32 160 -69 160 C-69 170.89 -69 181.78 -69 193 C-44.58 193 -20.16 193 5 193 C5 193.66 5 194.32 5 195 C-20.08 195 -45.16 195 -71 195 C-72.58645357 191.82709287 -72.12078213 188.41174616 -72.09765625 184.9296875 C-72.0962413 184.13345978 -72.09482635 183.33723206 -72.09336853 182.51687622 C-72.08776345 179.9695462 -72.07521014 177.42230353 -72.0625 174.875 C-72.05748565 173.14974085 -72.05292263 171.42448033 -72.04882812 169.69921875 C-72.03779237 165.46611209 -72.02052436 161.23307086 -72 157 C-71.01 157 -70.02 157 -69 157 C-69 156.34 -69 155.68 -69 155 C-58.44 155 -47.88 155 -37 155 C-37 135.53 -37 116.06 -37 96 C-47.56 96 -58.12 96 -69 96 C-69 72.24 -69 48.48 -69 24 C-46.23 24 -23.46 24 0 24 C0 16.08 0 8.16 0 0 Z " fill="#777777" transform="translate(111,79)"/>
<path d="M0 0 C1.32 0 2.64 0 4 0 C4 31.02 4 62.04 4 94 C-6.89 94 -17.78 94 -29 94 C-29 103.24 -29 112.48 -29 122 C-7.88 122 13.24 122 35 122 C35 121.34 35 120.68 35 120 C35.66 120 36.32 120 37 120 C37 110.76 37 101.52 37 92 C38.32 92 39.64 92 41 92 C41 102.89 41 113.78 41 125 C38.11003324 126.44498338 35.60778788 126.12731121 32.37890625 126.12939453 C31.69907684 126.13114685 31.01924744 126.13289917 30.31881714 126.13470459 C28.06668563 126.13911375 25.81463234 126.13618841 23.5625 126.1328125 C22.00073227 126.13348581 20.43896464 126.13445606 18.87719727 126.13571167 C15.60204064 126.13718737 12.32691127 126.13503817 9.05175781 126.13037109 C4.84822928 126.12467388 0.64476459 126.12795356 -3.5587616 126.13394356 C-6.78430667 126.1375526 -10.00983655 126.136409 -13.23538208 126.13381577 C-14.7855734 126.13314745 -16.33576609 126.13397161 -17.88595581 126.13629532 C-20.05030995 126.13882745 -22.21455989 126.13497332 -24.37890625 126.12939453 C-25.6119751 126.12859894 -26.84504395 126.12780334 -28.11547852 126.12698364 C-31 126 -31 126 -33 125 C-33 114.11 -33 103.22 -33 92 C-32.34 92 -31.68 92 -31 92 C-31 91.34 -31 90.68 -31 90 C-16.15 89.505 -16.15 89.505 -1 89 C-0.67 68.21 -0.34 47.42 0 26 C-10.23 26 -20.46 26 -31 26 C-31 25.34 -31 24.68 -31 24 C-20.77 24 -10.54 24 0 24 C0 16.08 0 8.16 0 0 Z " fill="#464646" transform="translate(75,147)"/>
<path d="M0 0 C21.78 0 43.56 0 66 0 C66 20.79 66 41.58 66 63 C89.1 63 112.2 63 136 63 C136 83.46 136 103.92 136 125 C126.43 125 116.86 125 107 125 C107 117.08 107 109.16 107 101 C107.33 101 107.66 101 108 101 C108 107.93 108 114.86 108 122 C116.58 122 125.16 122 134 122 C134 102.86 134 83.72 134 64 C129.04226562 64.01160156 124.08453125 64.02320312 118.9765625 64.03515625 C115.84114453 64.04026404 112.70573167 64.04507789 109.5703125 64.04882812 C104.59048399 64.05481259 99.61067382 64.06190238 94.63085938 64.07543945 C90.61734185 64.08628184 86.60384399 64.09227972 82.59031296 64.09487724 C81.05686509 64.09672905 79.52341832 64.100345 77.98997879 64.10573006 C75.84697368 64.1129584 73.70405044 64.11399018 71.56103516 64.11352539 C69.72903061 64.11685631 69.72903061 64.11685631 67.86001587 64.12025452 C65 64 65 64 63 63 C63 43.53 63 24.06 63 4 C53.450625 3.979375 43.90125 3.95875 34.0625 3.9375 C31.04359619 3.928396 28.02469238 3.91929199 24.91430664 3.90991211 C22.53792363 3.9069932 20.16154012 3.90444459 17.78515625 3.90234375 C15.91434387 3.8946698 15.91434387 3.8946698 14.0057373 3.88684082 C12.23958069 3.88665955 12.23958069 3.88665955 10.43774414 3.88647461 C9.40960098 3.884254 8.38145782 3.88203339 7.32215881 3.87974548 C5.0386489 3.73815391 5.0386489 3.73815391 4 5 C3.87677242 6.77903357 3.82210981 8.56286203 3.79467773 10.34594727 C3.77473251 11.4870546 3.75478729 12.62816193 3.73423767 13.80384827 C3.71752518 15.0454924 3.70081268 16.28713654 3.68359375 17.56640625 C3.66281265 18.83016586 3.64203156 20.09392548 3.62062073 21.39598083 C3.56616286 24.76118633 3.5159572 28.12640173 3.46777344 31.49169922 C3.41760241 34.92355901 3.36189345 38.35532831 3.30664062 41.78710938 C3.19929809 48.52466761 3.09755675 55.26229336 3 62 C1.515 62.495 1.515 62.495 0 63 C0 42.21 0 21.42 0 0 Z " fill="#C1C1C1" transform="translate(116,46)"/>
<path d="M0 0 C35.97 0 71.94 0 109 0 C109 16.5 109 33 109 50 C108.67 50 108.34 50 108 50 C107.67 35.15 107.34 20.3 107 5 C73.34 5 39.68 5 5 5 C4.67 19.19 4.34 33.38 4 48 C8.62 48 13.24 48 18 48 C18 50.31 18 52.62 18 55 C12.06 55 6.12 55 0 55 C0 36.85 0 18.7 0 0 Z " fill="#404040" transform="translate(94,24)"/>
<path d="M0 0 C23.76 0 47.52 0 72 0 C72 23.76 72 47.52 72 72 C70.68 72 69.36 72 68 72 C68 70.68 68 69.36 68 68 C67.34 68 66.68 68 66 68 C66 47.54 66 27.08 66 6 C66.66 6 67.32 6 68 6 C68 5.01 68 4.02 68 3 C45.56 3 23.12 3 0 3 C0 2.01 0 1.02 0 0 Z " fill="#4C4C4C" transform="translate(186,103)"/>
<path d="M0 0 C0.33 0 0.66 0 1 0 C1 18.15 1 36.3 1 55 C-4.94 55 -10.88 55 -17 55 C-17 52.69 -17 50.38 -17 48 C-12.71 48 -8.42 48 -4 48 C-4 34.47 -4 20.94 -4 7 C-37 7 -70 7 -104 7 C-104 20.53 -104 34.06 -104 48 C-104.33 48 -104.66 48 -105 48 C-105.02464513 41.8944529 -105.04283371 35.78893449 -105.05493164 29.68334961 C-105.05997288 27.60456844 -105.06680574 25.52579084 -105.07543945 23.44702148 C-105.08751422 20.46597414 -105.09323024 17.48497351 -105.09765625 14.50390625 C-105.10539818 13.10078941 -105.10539818 13.10078941 -105.11329651 11.66932678 C-105.11337204 10.80850998 -105.11344757 9.94769318 -105.11352539 9.06079102 C-105.115746 8.29912125 -105.11796661 7.53745148 -105.12025452 6.75270081 C-105 5 -105 5 -104 4 C-100.9110233 3.88866242 -97.84420065 3.84259409 -94.75439453 3.83886719 C-93.29836823 3.83141983 -93.29836823 3.83141983 -91.81292725 3.82382202 C-88.58621525 3.80915876 -85.35955241 3.80239153 -82.1328125 3.796875 C-79.89940387 3.79112703 -77.66599526 3.78536926 -75.43258667 3.77960205 C-70.74330413 3.76908023 -66.05403879 3.76324529 -61.36474609 3.75976562 C-55.34630672 3.75427806 -49.32809326 3.73024925 -43.30972481 3.70179367 C-38.69444101 3.68320031 -34.07921199 3.67796346 -29.46389389 3.67642975 C-27.24465576 3.67339528 -25.02541876 3.66534021 -22.80621719 3.65224457 C-19.7054332 3.63525289 -16.60520576 3.63704752 -13.50439453 3.64355469 C-12.58167755 3.6343399 -11.65896057 3.62512512 -10.70828247 3.6156311 C-9.86418823 3.62120026 -9.02009399 3.62676941 -8.15042114 3.63250732 C-7.41705095 3.63104076 -6.68368076 3.6295742 -5.92808723 3.6280632 C-3.47908056 4.10048773 -2.57724777 5.12216069 -1 7 C-0.67 4.69 -0.34 2.38 0 0 Z " fill="#656565" transform="translate(203,24)"/>
<path d="M0 0 C2.97 0 5.94 0 9 0 C9 0.66 9 1.32 9 2 C10.32 2 11.64 2 13 2 C13 2.66 13 3.32 13 4 C13.66 4 14.32 4 15 4 C15 5.32 15 6.64 15 8 C15.66 8 16.32 8 17 8 C17 8.66 17 9.32 17 10 C19.31 10.33 21.62 10.66 24 11 C24 10.01 24 9.02 24 8 C25.32 8 26.64 8 28 8 C28 7.34 28 6.68 28 6 C28.66 6 29.32 6 30 6 C30 5.34 30 4.68 30 4 C31.65 4 33.3 4 35 4 C35 4.66 35 5.32 35 6 C35.66 6 36.32 6 37 6 C37 8.31 37 10.62 37 13 C36.34 13 35.68 13 35 13 C35 12.34 35 11.68 35 11 C32.69 11 30.38 11 28 11 C28 11.66 28 12.32 28 13 C27.34 13 26.68 13 26 13 C26 13.66 26 14.32 26 15 C25.34 15 24.68 15 24 15 C24 15.66 24 16.32 24 17 C21.69 17 19.38 17 17 17 C17 16.34 17 15.68 17 15 C16.34 15 15.68 15 15 15 C15 14.34 15 13.68 15 13 C14.34 13 13.68 13 13 13 C13 12.01 13 11.02 13 10 C12.34 10 11.68 10 11 10 C11 9.34 11 8.68 11 8 C10.34 8 9.68 8 9 8 C9 7.34 9 6.68 9 6 C8.01 6 7.02 6 6 6 C6 5.34 6 4.68 6 4 C4.68 4 3.36 4 2 4 C2 6.97 2 9.94 2 13 C2.66 13 3.32 13 4 13 C4 13.66 4 14.32 4 15 C4.66 15 5.32 15 6 15 C6 15.66 6 16.32 6 17 C6.66 17 7.32 17 8 17 C8 18.65 8 20.3 8 22 C6.02 22.99 6.02 22.99 4 24 C4 24.66 4 25.32 4 26 C0.37 26 -3.26 26 -7 26 C-7 26.66 -7 27.32 -7 28 C-7.66 28 -8.32 28 -9 28 C-9 30.97 -9 33.94 -9 37 C-3.39 37 2.22 37 8 37 C8 41.95 8 46.9 8 52 C7.67 52 7.34 52 7 52 C6.505 45.565 6.505 45.565 6 39 C4.02 39 2.04 39 0 39 C0 39.66 0 40.32 0 41 C-3.63 41 -7.26 41 -11 41 C-11 40.34 -11 39.68 -11 39 C-11.66 39 -12.32 39 -13 39 C-13 34.71 -13 30.42 -13 26 C-12.34 26 -11.68 26 -11 26 C-11 25.34 -11 24.68 -11 24 C-10.34 24 -9.68 24 -9 24 C-9 23.34 -9 22.68 -9 22 C-5.37 22 -1.74 22 2 22 C2 20.35 2 18.7 2 17 C0.68 17 -0.64 17 -2 17 C-3.73830497 13.99060247 -4.251248 11.84057335 -4.1875 8.375 C-4.17783203 7.21097656 -4.17783203 7.21097656 -4.16796875 6.0234375 C-4 4 -4 4 -3 2 C-2.01 2 -1.02 2 0 2 C0 1.34 0 0.68 0 0 Z " fill="#464646" transform="translate(125,134)"/>
<path d="M0 0 C0 1.98 0 3.96 0 6 C0.66 6 1.32 6 2 6 C2 7.65 2 9.3 2 11 C3.32 11 4.64 11 6 11 C6 11.66 6 12.32 6 13 C8.97 13 11.94 13 15 13 C15 13.66 15 14.32 15 15 C15.66 15 16.32 15 17 15 C17 16.98 17 18.96 17 21 C16.34 21 15.68 21 15 21 C15 21.99 15 22.98 15 24 C13.01432292 24.22786458 11.02864583 24.45572917 9.04296875 24.68359375 C6.80603607 24.97170735 6.80603607 24.97170735 4 26 C4 26.66 4 27.32 4 28 C3.34 28 2.68 28 2 28 C2 29.98 2 31.96 2 34 C2.66 34 3.32 34 4 34 C4 34.99 4 35.98 4 37 C4.66 37 5.32 37 6 37 C6 38.98 6 40.96 6 43 C4.02 43 2.04 43 0 43 C0 42.34 0 41.68 0 41 C-0.66 41 -1.32 41 -2 41 C-2 40.34 -2 39.68 -2 39 C-2.99 39 -3.98 39 -5 39 C-5 38.34 -5 37.68 -5 37 C-5.66 37 -6.32 37 -7 37 C-7 36.01 -7 35.02 -7 34 C-7.66 34 -8.32 34 -9 34 C-9 33.34 -9 32.68 -9 32 C-10.98 32 -12.96 32 -15 32 C-15.33 30.68 -15.66 29.36 -16 28 C-15.01 28 -14.02 28 -13 28 C-13 28.66 -13 29.32 -13 30 C-11.02 30 -9.04 30 -7 30 C-7 29.34 -7 28.68 -7 28 C-5.68 28 -4.36 28 -3 28 C-2.67 23.05 -2.34 18.1 -2 13 C-2.66 13 -3.32 13 -4 13 C-5.625 11.625 -5.625 11.625 -7 10 C-7 9.34 -7 8.68 -7 8 C-8.32 7.67 -9.64 7.34 -11 7 C-10.34 5.35 -9.68 3.7 -9 2 C-8.34 2 -7.68 2 -7 2 C-7 1.34 -7 0.68 -7 0 C-4.3333581 -1.33332095 -2.83319697 -0.67102033 0 0 Z " fill="#F1F1F1" transform="translate(160,145)"/>
<path d="M0 0 C5.28 0 10.56 0 16 0 C16 5.94 16 11.88 16 18 C15.34 18 14.68 18 14 18 C14 18.66 14 19.32 14 20 C9.71 20 5.42 20 1 20 C1 21.98 1 23.96 1 26 C-3.29 26 -7.58 26 -12 26 C-12 24.02 -12 22.04 -12 20 C-8.04 20 -4.08 20 0 20 C0 13.4 0 6.8 0 0 Z " fill="#575757" transform="translate(155,59)"/>
<path d="M0 0 C13.52537105 -0.0231306 27.05073742 -0.04091877 40.57612419 -0.05181217 C46.85593233 -0.05703942 53.13572697 -0.06413422 59.41552734 -0.07543945 C65.47145852 -0.08627391 71.52737669 -0.09227803 77.5833168 -0.09487724 C79.89826792 -0.09673048 82.2132183 -0.10034916 84.52816391 -0.10573006 C87.76081656 -0.11294787 90.99341486 -0.11399062 94.22607422 -0.11352539 C95.19136047 -0.11712067 96.15664673 -0.12071594 97.15118408 -0.12442017 C98.02900543 -0.1230455 98.90682678 -0.12167084 99.81124878 -0.12025452 C100.57633696 -0.12117631 101.34142513 -0.1220981 102.1296978 -0.12304783 C104 0 104 0 106 1 C106 16.84 106 32.68 106 49 C105.67 49 105.34 49 105 49 C104.67 34.15 104.34 19.3 104 4 C70.34 3.67 36.68 3.34 2 3 C2 2.34 2 1.68 2 1 C1.34 0.67 0.68 0.34 0 0 Z " fill="#353535" transform="translate(97,25)"/>
<path d="M0 0 C3.29164829 -0.02895225 6.58326399 -0.0467823 9.875 -0.0625 C10.81214844 -0.07087891 11.74929687 -0.07925781 12.71484375 -0.08789062 C14.05869141 -0.09272461 14.05869141 -0.09272461 15.4296875 -0.09765625 C16.67081299 -0.10551147 16.67081299 -0.10551147 17.93701172 -0.11352539 C20 0 20 0 22 1 C22 2.32 22 3.64 22 5 C22.66 5 23.32 5 24 5 C24 5.66 24 6.32 24 7 C24.99 7 25.98 7 27 7 C27 7.66 27 8.32 27 9 C27.66 9 28.32 9 29 9 C29 9.66 29 10.32 29 11 C29.66 11 30.32 11 31 11 C31 11.66 31 12.32 31 13 C31.99 13 32.98 13 34 13 C34 14.65 34 16.3 34 18 C31.69 18 29.38 18 27 18 C27 17.34 27 16.68 27 16 C26.01 16 25.02 16 24 16 C23.34 17.32 22.68 18.64 22 20 C22 19.34 22 18.68 22 18 C21.34 18 20.68 18 20 18 C20 15.69 20 13.38 20 11 C19.34 11 18.68 11 18 11 C18 10.34 18 9.68 18 9 C17.34 9 16.68 9 16 9 C16 8.34 16 7.68 16 7 C14.35 7 12.7 7 11 7 C11 7.66 11 8.32 11 9 C10.34 9 9.68 9 9 9 C9 9.66 9 10.32 9 11 C7.68 11 6.36 11 5 11 C5 11.99 5 12.98 5 14 C2.69 13.67 0.38 13.34 -2 13 C-2 12.34 -2 11.68 -2 11 C-2.66 11 -3.32 11 -4 11 C-4 9.68 -4 8.36 -4 7 C-3.01 7 -2.02 7 -1 7 C-0.67 4.69 -0.34 2.38 0 0 Z " fill="#B8B8B8" transform="translate(144,131)"/>
<path d="M0 0 C0.33 0 0.66 0 1 0 C1.02312764 7.93613787 1.04091723 15.87226176 1.05181217 23.80842495 C1.05704008 27.49314498 1.06413605 31.17784203 1.07543945 34.86254883 C1.08627162 38.41570831 1.09227753 41.96884563 1.09487724 45.52202034 C1.0967309 46.88045666 1.10035038 48.23889171 1.10573006 49.59731865 C1.11294475 51.49382223 1.11340809 53.39034793 1.11352539 55.28686523 C1.115746 56.36830307 1.11796661 57.44974091 1.12025452 58.56394958 C1 61 1 61 0 62 C-2.21855264 62.08783542 -4.43988496 62.10694609 -6.66015625 62.09765625 C-7.65685585 62.09553383 -7.65685585 62.09553383 -8.6736908 62.09336853 C-10.80333899 62.08775518 -12.93288339 62.07520054 -15.0625 62.0625 C-16.50325369 62.05748671 -17.94400903 62.05292351 -19.38476562 62.04882812 C-22.92321102 62.03778145 -26.46159539 62.02050792 -30 62 C-30 62.66 -30 63.32 -30 64 C-30.66 64 -31.32 64 -32 64 C-32 74.89 -32 85.78 -32 97 C-7.58 97 16.84 97 42 97 C42 97.66 42 98.32 42 99 C16.92 99 -8.16 99 -34 99 C-35.58645357 95.82709287 -35.12078213 92.41174616 -35.09765625 88.9296875 C-35.0962413 88.13345978 -35.09482635 87.33723206 -35.09336853 86.51687622 C-35.08776345 83.9695462 -35.07521014 81.42230353 -35.0625 78.875 C-35.05748565 77.14974085 -35.05292263 75.42448033 -35.04882812 73.69921875 C-35.03779237 69.46611209 -35.02052436 65.23307086 -35 61 C-34.01 61 -33.02 61 -32 61 C-32 60.34 -32 59.68 -32 59 C-21.44 59 -10.88 59 0 59 C0 39.53 0 20.06 0 0 Z " fill="#B9B9B9" transform="translate(74,175)"/>
<path d="M0 0 C1.32 0 2.64 0 4 0 C4 10.89 4 21.78 4 33 C-13.38939711 33.04010881 -13.38939711 33.04010881 -20.78515625 33.04882812 C-25.83741299 33.05481269 -30.88965165 33.06190274 -35.94189453 33.07543945 C-40.01376672 33.0862815 -44.08561953 33.09227964 -48.15750504 33.09487724 C-49.71328156 33.09672911 -51.26905698 33.10034518 -52.82482529 33.10573006 C-54.99896307 33.11295795 -57.17302016 33.1139902 -59.34716797 33.11352539 C-61.20581985 33.11685631 -61.20581985 33.11685631 -63.10202026 33.12025452 C-66 33 -66 33 -68 32 C-68 31.34 -68 30.68 -68 30 C-46.22 30 -24.44 30 -2 30 C-2 29.34 -2 28.68 -2 28 C-1.34 28 -0.68 28 0 28 C0 18.76 0 9.52 0 0 Z " fill="#363636" transform="translate(112,239)"/>
<path d="M0 0 C9.09232091 -0.02314035 18.18463173 -0.04092375 27.27697563 -0.05181217 C31.49862582 -0.05703728 35.72025591 -0.06412822 39.94189453 -0.07543945 C44.01376672 -0.0862815 48.08561953 -0.09227964 52.15750504 -0.09487724 C53.71328156 -0.09672911 55.26905698 -0.10034518 56.82482529 -0.10573006 C58.99896307 -0.11295795 61.17302016 -0.1139902 63.34716797 -0.11352539 C64.58626923 -0.115746 65.82537048 -0.11796661 67.10202026 -0.12025452 C70 0 70 0 72 1 C72 10.57 72 20.14 72 30 C71.34 30 70.68 30 70 30 C70 20.76 70 11.52 70 2 C69.34 2 68.68 2 68 2 C68 2.66 68 3.32 68 4 C46.22 4 24.44 4 2 4 C2 3.34 2 2.68 2 2 C1.34 2 0.68 2 0 2 C0 1.34 0 0.68 0 0 Z " fill="#464646" transform="translate(114,237)"/>
<path d="M0 0 C0.33 0 0.66 0 1 0 C1 19.47 1 38.94 1 59 C1.66 59 2.32 59 3 59 C3 59.66 3 60.32 3 61 C3.89831543 60.99476318 4.79663086 60.98952637 5.72216797 60.98413086 C9.05062499 60.96710275 12.37903581 60.95455663 15.70751953 60.94506836 C17.1489332 60.94003526 18.59034176 60.93320827 20.03173828 60.92456055 C22.10190085 60.91245017 24.17199601 60.90676153 26.2421875 60.90234375 C27.4885498 60.89710693 28.73491211 60.89187012 30.01904297 60.88647461 C33 61 33 61 35 62 C35.0246826 66.94791294 35.04285166 71.8957902 35.05493164 76.84375 C35.05996653 78.52767562 35.06679481 80.21159686 35.07543945 81.89550781 C35.08754196 84.31316203 35.09323668 86.73075856 35.09765625 89.1484375 C35.10281754 89.9036972 35.10797882 90.65895691 35.11329651 91.43710327 C35.11387171 96.77225659 35.11387171 96.77225659 34 99 C9.25 99 -15.5 99 -41 99 C-41 98.34 -41 97.68 -41 97 C-16.58 96.67 7.84 96.34 33 96 C33 85.44 33 74.88 33 64 C32.34 64 31.68 64 31 64 C31 63.34 31 62.68 31 62 C20.77 62 10.54 62 0 62 C0 41.54 0 21.08 0 0 Z " fill="#9A9A9A" transform="translate(223,175)"/>
<path d="M0 0 C1.98 0 3.96 0 6 0 C6 5.28 6 10.56 6 16 C11.79199672 16.13043257 11.79199672 16.13043257 17 15 C17 14.34 17 13.68 17 13 C17.66 13 18.32 13 19 13 C19 13.99 19 14.98 19 16 C15.5980513 18.09350689 12.94727588 18.17942163 9 18 C9 18.66 9 19.32 9 20 C10.98 20 12.96 20 15 20 C15 21.98 15 23.96 15 26 C13.02 26.66 11.04 27.32 9 28 C9 29.65 9 31.3 9 33 C0.03476595 33.61593211 0.03476595 33.61593211 -3.625 31.4375 C-5.46392977 28.17757904 -5.28299062 25.67887806 -5 22 C-4.01 22 -3.02 22 -2 22 C-2 19.69 -2 17.38 -2 15 C-1.34 15 -0.68 15 0 15 C0 14.34 0 13.68 0 13 C1.32 13 2.64 13 4 13 C4 9.37 4 5.74 4 2 C2.68 2 1.36 2 0 2 C0 1.34 0 0.68 0 0 Z " fill="#8C8C8C" transform="translate(125,173)"/>
<path d="M0 0 C2.97 0 5.94 0 9 0 C9 0.66 9 1.32 9 2 C9.66 2 10.32 2 11 2 C11 6.29 11 10.58 11 15 C12.32 15 13.64 15 15 15 C15 14.01 15 13.02 15 12 C15.66 12 16.32 12 17 12 C17 11.34 17 10.68 17 10 C17.66 10 18.32 10 19 10 C19 9.34 19 8.68 19 8 C21.31 8 23.62 8 26 8 C26 8.66 26 9.32 26 10 C26.66 10 27.32 10 28 10 C28 10.99 28 11.98 28 13 C28.66 13 29.32 13 30 13 C30 13.66 30 14.32 30 15 C30.99 15 31.98 15 33 15 C33 15.66 33 16.32 33 17 C33.66 17 34.32 17 35 17 C35 17.66 35 18.32 35 19 C36.98 19 38.96 19 41 19 C41 17.02 41 15.04 41 13 C41.66 13 42.32 13 43 13 C44.3260274 18.42465753 44.3260274 18.42465753 42.9375 20.875 C40.24099753 22.44071111 38.05869541 22.20391303 35 22 C35 22.66 35 23.32 35 24 C34.01 24 33.02 24 32 24 C32 23.34 32 22.68 32 22 C31.34 22 30.68 22 30 22 C30 21.34 30 20.68 30 20 C29.34 20 28.68 20 28 20 C28 19.01 28 18.02 28 17 C27.34 17 26.68 17 26 17 C26 16.34 26 15.68 26 15 C23.69 15 21.38 15 19 15 C19 15.66 19 16.32 19 17 C18.34 17 17.68 17 17 17 C17 17.66 17 18.32 17 19 C14.08291076 20.98362069 12.87619096 20.9876191 9.25 20.625 C7.64125 20.315625 7.64125 20.315625 6 20 C3.76408345 13.29225035 5.37195284 8.241612 8 2 C5.36 2 2.72 2 0 2 C0 1.34 0 0.68 0 0 Z " fill="#575757" transform="translate(125,169)"/>
<path d="M0 0 C4.95 0 9.9 0 15 0 C15 5.94 15 11.88 15 18 C14.34 18 13.68 18 13 18 C13 18.66 13 19.32 13 20 C8.71 20 4.42 20 0 20 C0 13.4 0 6.8 0 0 Z " fill="#363636" transform="translate(127,59)"/>
<path d="M0 0 C23.1 0 46.2 0 70 0 C70 20.46 70 40.92 70 62 C60.43 62 50.86 62 41 62 C41 54.08 41 46.16 41 38 C41.33 38 41.66 38 42 38 C42 44.93 42 51.86 42 59 C50.58 59 59.16 59 68 59 C68 39.86 68 20.72 68 1 C45.56 1 23.12 1 0 1 C0 0.67 0 0.34 0 0 Z " fill="#B2B2B2" transform="translate(182,109)"/>
<path d="M0 0 C23.1 0 46.2 0 70 0 C70 0.33 70 0.66 70 1 C47.56 1 25.12 1 2 1 C2 20.14 2 39.28 2 59 C10.58 59 19.16 59 28 59 C28 52.07 28 45.14 28 38 C28.33 38 28.66 38 29 38 C29 45.92 29 53.84 29 62 C20.09 62 11.18 62 2 62 C2 61.34 2 60.68 2 60 C1.34 60 0.68 60 0 60 C0 40.2 0 20.4 0 0 Z " fill="#ADADAD" transform="translate(46,109)"/>
<path d="M0 0 C2.05078125 0.03255208 4.1015625 0.06510417 6.15234375 0.09765625 C6.48234375 1.08765625 6.81234375 2.07765625 7.15234375 3.09765625 C7.81234375 3.09765625 8.47234375 3.09765625 9.15234375 3.09765625 C9.1792795 5.22258766 9.19871003 7.34761537 9.21484375 9.47265625 C9.22644531 10.65601563 9.23804688 11.839375 9.25 13.05859375 C9.15234375 16.09765625 9.15234375 16.09765625 8.15234375 18.09765625 C6.83234375 18.09765625 5.51234375 18.09765625 4.15234375 18.09765625 C4.15234375 18.75765625 4.15234375 19.41765625 4.15234375 20.09765625 C2.17234375 20.09765625 0.19234375 20.09765625 -1.84765625 20.09765625 C-1.84765625 19.43765625 -1.84765625 18.77765625 -1.84765625 18.09765625 C-2.83765625 18.09765625 -3.82765625 18.09765625 -4.84765625 18.09765625 C-4.84765625 17.43765625 -4.84765625 16.77765625 -4.84765625 16.09765625 C-5.50765625 16.09765625 -6.16765625 16.09765625 -6.84765625 16.09765625 C-6.84765625 15.43765625 -6.84765625 14.77765625 -6.84765625 14.09765625 C-7.50765625 14.09765625 -8.16765625 14.09765625 -8.84765625 14.09765625 C-8.84765625 11.12765625 -8.84765625 8.15765625 -8.84765625 5.09765625 C-7.52765625 5.09765625 -6.20765625 5.09765625 -4.84765625 5.09765625 C-4.53828125 4.45828125 -4.22890625 3.81890625 -3.91015625 3.16015625 C-2.34607564 0.12399977 -2.34607564 0.12399977 0 0 Z " fill="#4E4E4E" transform="translate(148.84765625,154.90234375)"/>
<path d="M0 0 C23.76 0 47.52 0 72 0 C72 23.76 72 47.52 72 72 C70.68 72 69.36 72 68 72 C68 71.34 68 70.68 68 70 C68.66 70 69.32 70 70 70 C70 47.56 70 25.12 70 2 C46.9 2 23.8 2 0 2 C0 1.34 0 0.68 0 0 Z " fill="#A3A3A3" transform="translate(186,103)"/>
<path d="M0 0 C0.66 0 1.32 0 2 0 C2 9.24 2 18.48 2 28 C2.66 28 3.32 28 4 28 C4 28.66 4 29.32 4 30 C26.44 30 48.88 30 72 30 C72 30.99 72 31.98 72 33 C48.24 33 24.48 33 0 33 C0 22.11 0 11.22 0 0 Z " fill="#2D2D2D" transform="translate(182,239)"/>
<path d="M0 0 C1.9385939 0.00666183 1.9385939 0.00666183 3.91635132 0.01345825 C4.98480537 0.01302017 4.98480537 0.01302017 6.07484436 0.01257324 C8.43408301 0.01396888 10.79300755 0.02954076 13.15219116 0.04519653 C14.78600899 0.04892584 16.41982904 0.0517732 18.0536499 0.05377197 C22.35765742 0.06141493 26.66153035 0.08106904 30.96548462 0.10317993 C35.35582661 0.12362413 39.74619031 0.13277063 44.13656616 0.14285278 C52.75381549 0.16431437 61.37095534 0.19845823 69.98812866 0.24050903 C69.98812866 1.56050903 69.98812866 2.88050903 69.98812866 4.24050903 C46.22812866 3.91050903 22.46812866 3.58050903 -2.01187134 3.24050903 C-2.01187134 3.90050903 -2.01187134 4.56050903 -2.01187134 5.24050903 C-2.67187134 5.24050903 -3.33187134 5.24050903 -4.01187134 5.24050903 C-4.01187134 14.48050903 -4.01187134 23.72050903 -4.01187134 33.24050903 C-4.34187134 33.24050903 -4.67187134 33.24050903 -5.01187134 33.24050903 C-5.06125283 28.86226987 -5.09758174 24.48417757 -5.12173462 20.10574341 C-5.13180176 18.61580584 -5.14545651 17.12588806 -5.16275024 15.63601685 C-5.18696787 13.49631875 -5.19834698 11.3568815 -5.20718384 9.21707153 C-5.22289429 7.28468628 -5.22289429 7.28468628 -5.23892212 5.31326294 C-4.92962869 1.1274919 -4.18953906 0.33455014 0 0 Z " fill="#EFEFEF" transform="translate(116.01187133789063,233.75949096679688)"/>
<path d="M0 0 C1.0236264 0.00212242 1.0236264 0.00212242 2.06793213 0.00428772 C4.23804184 0.00986541 6.4080467 0.02241371 8.578125 0.03515625 C10.05338392 0.04017414 11.52864447 0.04473654 13.00390625 0.04882812 C16.61201298 0.0598275 20.22005875 0.07707672 23.828125 0.09765625 C23.828125 0.75765625 23.828125 1.41765625 23.828125 2.09765625 C24.488125 2.09765625 25.148125 2.09765625 25.828125 2.09765625 C25.828125 12.65765625 25.828125 23.21765625 25.828125 34.09765625 C25.168125 34.09765625 24.508125 34.09765625 23.828125 34.09765625 C23.828125 33.43765625 23.828125 32.77765625 23.828125 32.09765625 C23.168125 32.09765625 22.508125 32.09765625 21.828125 32.09765625 C21.828125 22.85765625 21.828125 13.61765625 21.828125 4.09765625 C10.938125 4.09765625 0.048125 4.09765625 -11.171875 4.09765625 C-11.171875 3.10765625 -11.171875 2.11765625 -11.171875 1.09765625 C-7.43877067 -0.09052343 -3.89695855 -0.01597114 0 0 Z " fill="#424242" transform="translate(230.171875,236.90234375)"/>
<path d="M0 0 C0.93147858 0.00359528 1.86295715 0.00719055 2.82266235 0.01089478 C3.79816544 0.01074875 4.77366852 0.01060272 5.7787323 0.01045227 C9.01987899 0.01115184 12.260969 0.01894626 15.50210571 0.02676392 C17.74270089 0.02862794 19.98329648 0.03005192 22.22389221 0.03105164 C28.13404456 0.03487804 34.04417251 0.04470936 39.95431519 0.05575562 C45.98000763 0.06596711 52.005704 0.07054869 58.03140259 0.07559204 C69.86409563 0.08633152 81.69677052 0.10340941 93.52944946 0.12442017 C93.52944946 1.11442017 93.52944946 2.10442017 93.52944946 3.12442017 C60.52944946 3.12442017 27.52944946 3.12442017 -6.47055054 3.12442017 C-6.47055054 16.65442017 -6.47055054 30.18442017 -6.47055054 44.12442017 C-6.80055054 44.12442017 -7.13055054 44.12442017 -7.47055054 44.12442017 C-7.49519567 38.01887306 -7.51338424 31.91335466 -7.52548218 25.80776978 C-7.53052342 23.72898861 -7.53735628 21.650211 -7.54598999 19.57144165 C-7.55806476 16.59039431 -7.56378078 13.60939367 -7.56820679 10.62832642 C-7.57594872 9.22520958 -7.57594872 9.22520958 -7.58384705 7.79374695 C-7.58392258 6.93293015 -7.58399811 6.07211334 -7.58407593 5.18521118 C-7.58629654 4.42354141 -7.58851715 3.66187164 -7.59080505 2.87712097 C-7.29857852 -1.3820595 -3.38610135 0.00552303 0 0 Z " fill="#A2A2A2" transform="translate(105.47055053710938,27.875579833984375)"/>
<path d="M0 0 C10.89 0 21.78 0 33 0 C33 9.24 33 18.48 33 28 C11.22 28 -10.56 28 -33 28 C-33 27.34 -33 26.68 -33 26 C-11.88 26 9.24 26 31 26 C31 18.08 31 10.16 31 2 C20.77 2 10.54 2 0 2 C0 1.34 0 0.68 0 0 Z " fill="#9C9C9C" transform="translate(219,241)"/>
<path d="M0 0 C10.89 0 21.78 0 33 0 C33 0.66 33 1.32 33 2 C22.77 2 12.54 2 2 2 C2 9.92 2 17.84 2 26 C22.46 26 42.92 26 64 26 C64 26.66 64 27.32 64 28 C42.88 28 21.76 28 0 28 C0 18.76 0 9.52 0 0 Z " fill="#9D9D9D" transform="translate(46,241)"/>
<path d="M0 0 C21.78 0 43.56 0 66 0 C66 9.9 66 19.8 66 30 C65.67 30 65.34 30 65 30 C65 20.76 65 11.52 65 2 C44.21 2 23.42 2 2 2 C2 11.57 2 21.14 2 31 C1.34 31 0.68 31 0 31 C0 20.77 0 10.54 0 0 Z " fill="#B5B5B5" transform="translate(116,241)"/>
<path d="M0 0 C8.79699834 -0.04634424 17.59395464 -0.08187981 26.39104843 -0.10362434 C30.4759121 -0.11406072 34.56069222 -0.12821724 38.64550781 -0.15087891 C42.58771842 -0.17261251 46.52984867 -0.18456973 50.47211456 -0.18975449 C51.97600825 -0.19344931 53.47989755 -0.20066437 54.98375702 -0.21146011 C57.09050493 -0.22598206 59.19692101 -0.22797767 61.30371094 -0.22705078 C62.50284119 -0.231492 63.70197144 -0.23593323 64.93743896 -0.24050903 C67.87292348 -0.00997957 69.52969667 0.46014804 72 2 C72 2.99 72 3.98 72 5 C71.34 5 70.68 5 70 5 C70 4.34 70 3.68 70 3 C46.9 3 23.8 3 0 3 C0 2.01 0 1.02 0 0 Z " fill="#E5E5E5" transform="translate(114,39)"/>
<path d="M0 0 C1.26328125 0.01804688 2.5265625 0.03609375 3.828125 0.0546875 C4.79234375 0.07789063 5.7565625 0.10109375 6.75 0.125 C6.75 0.785 6.75 1.445 6.75 2.125 C7.41 2.125 8.07 2.125 8.75 2.125 C8.75 4.105 8.75 6.085 8.75 8.125 C8.09 8.125 7.43 8.125 6.75 8.125 C6.75 6.805 6.75 5.485 6.75 4.125 C1.47 4.125 -3.81 4.125 -9.25 4.125 C-9.25 10.725 -9.25 17.325 -9.25 24.125 C-13.21 24.125 -17.17 24.125 -21.25 24.125 C-21.25 26.105 -21.25 28.085 -21.25 30.125 C-17.29 30.125 -13.33 30.125 -9.25 30.125 C-9.58 31.115 -9.91 32.105 -10.25 33.125 C-13.88 33.125 -17.51 33.125 -21.25 33.125 C-22.7283226 30.16835481 -22.31032783 27.38270263 -22.25 24.125 C-22.91 24.125 -23.57 24.125 -24.25 24.125 C-24.25 23.465 -24.25 22.805 -24.25 22.125 C-23.59 22.125 -22.93 22.125 -22.25 22.125 C-22.25 16.185 -22.25 10.245 -22.25 4.125 C-21.92 4.125 -21.59 4.125 -21.25 4.125 C-20.1787172 10.15096573 -20.15054585 16.01409517 -20.25 22.125 C-17.28 22.125 -14.31 22.125 -11.25 22.125 C-11.25 15.525 -11.25 8.925 -11.25 2.125 C-6.91061709 -0.04469145 -4.76609592 -0.08826104 0 0 Z " fill="#DFDFDF" transform="translate(164.25,54.875)"/>
<path d="M0 0 C0.99 0 1.98 0 3 0 C3 23.1 3 46.2 3 70 C2.01 70 1.02 70 0 70 C0 46.9 0 23.8 0 0 Z " fill="#BDBDBD" transform="translate(39,105)"/>
<path d="M0 0 C23.76 0 47.52 0 72 0 C72 0.66 72 1.32 72 2 C48.9 2 25.8 2 2 2 C2 11.24 2 20.48 2 30 C1.34 30 0.68 30 0 30 C0 20.1 0 10.2 0 0 Z " fill="#767676" transform="translate(112,42)"/>
<path d="M0 0 C0.66 0 1.32 0 2 0 C2 0.66 2 1.32 2 2 C2.66 2 3.32 2 4 2 C4 11.24 4 20.48 4 30 C3.34 30 2.68 30 2 30 C2 30.66 2 31.32 2 32 C25.1 32.33 48.2 32.66 72 33 C72 33.33 72 33.66 72 34 C62.90767909 34.02314035 53.81536827 34.04092375 44.72302437 34.05181217 C40.50137418 34.05703728 36.27974409 34.06412822 32.05810547 34.07543945 C27.98623328 34.0862815 23.91438047 34.09227964 19.84249496 34.09487724 C18.28671844 34.09672911 16.73094302 34.10034518 15.17517471 34.10573006 C13.00103693 34.11295795 10.82697984 34.1139902 8.65283203 34.11352539 C6.79418015 34.11685631 6.79418015 34.11685631 4.89797974 34.12025452 C2 34 2 34 0 33 C0 22.11 0 11.22 0 0 Z " fill="#5C5C5C" transform="translate(42,239)"/>
<path d="M0 0 C0.99 0 1.98 0 3 0 C3 0.66 3 1.32 3 2 C3.66 2 4.32 2 5 2 C5 3.32 5 4.64 5 6 C5.66 6 6.32 6 7 6 C7 6.66 7 7.32 7 8 C9.31 8.33 11.62 8.66 14 9 C14 8.01 14 7.02 14 6 C15.32 6 16.64 6 18 6 C18 5.34 18 4.68 18 4 C18.66 4 19.32 4 20 4 C20 3.34 20 2.68 20 2 C21.65 2 23.3 2 25 2 C25 2.66 25 3.32 25 4 C25.66 4 26.32 4 27 4 C27 6.31 27 8.62 27 11 C26.34 11 25.68 11 25 11 C25 10.34 25 9.68 25 9 C22.69 9 20.38 9 18 9 C18 9.66 18 10.32 18 11 C17.34 11 16.68 11 16 11 C16 11.66 16 12.32 16 13 C15.34 13 14.68 13 14 13 C14 13.66 14 14.32 14 15 C11.69 15 9.38 15 7 15 C7 14.34 7 13.68 7 13 C6.34 13 5.68 13 5 13 C5 12.34 5 11.68 5 11 C4.34 11 3.68 11 3 11 C3 10.01 3 9.02 3 8 C2.34 8 1.68 8 1 8 C1 7.34 1 6.68 1 6 C0.34 6 -0.32 6 -1 6 C-1 5.34 -1 4.68 -1 4 C-1.99 4 -2.98 4 -4 4 C-4 3.34 -4 2.68 -4 2 C-2.68 2 -1.36 2 0 2 C0 1.34 0 0.68 0 0 Z " fill="#565656" transform="translate(135,136)"/>
<path d="M0 0 C0.66 0 1.32 0 2 0 C2 2.31 2 4.62 2 7 C2.66 7 3.32 7 4 7 C4 7.66 4 8.32 4 9 C4.99 9 5.98 9 7 9 C7 9.66 7 10.32 7 11 C7.60328125 10.95359375 8.2065625 10.9071875 8.828125 10.859375 C15.44702639 10.56045687 15.44702639 10.56045687 18.4375 12.9375 C18.953125 13.618125 19.46875 14.29875 20 15 C20.66 15.33 21.32 15.66 22 16 C22 19.63 22 23.26 22 27 C21.34 27 20.68 27 20 27 C20 24.03 20 21.06 20 18 C19.34 18 18.68 18 18 18 C18 17.34 18 16.68 18 16 C17.34 16 16.68 16 16 16 C16.33 16.66 16.66 17.32 17 18 C17.04022391 20.3329866 17.04320247 22.66706666 17 25 C15.68 25.33 14.36 25.66 13 26 C13 25.34 13 24.68 13 24 C13.66 24 14.32 24 15 24 C15 22.02 15 20.04 15 18 C14.34 18 13.68 18 13 18 C13 17.34 13 16.68 13 16 C10.03 16 7.06 16 4 16 C4 15.34 4 14.68 4 14 C2.68 14 1.36 14 0 14 C0 12.35 0 10.7 0 9 C-0.66 9 -1.32 9 -2 9 C-2 7.68 -2 6.36 -2 5 C-1.34 5 -0.68 5 0 5 C0 3.35 0 1.7 0 0 Z " fill="#525252" transform="translate(162,142)"/>
<path d="M0 0 C5.94 0 11.88 0 18 0 C18 0.66 18 1.32 18 2 C13.05 2 8.1 2 3 2 C3 8.93 3 15.86 3 23 C24.45 23 45.9 23 68 23 C68 23.33 68 23.66 68 24 C45.56 24 23.12 24 0 24 C0 16.08 0 8.16 0 0 Z " fill="#E3E3E3" transform="translate(186,79)"/>
<path d="M0 0 C0.33 0 0.66 0 1 0 C1 29.37 1 58.74 1 89 C0.01 88.67 -0.98 88.34 -2 88 C-1.34 88 -0.68 88 0 88 C0 67.54 0 47.08 0 26 C-0.66 26 -1.32 26 -2 26 C-2 25.34 -2 24.68 -2 24 C-12.23 24 -22.46 24 -33 24 C-33 23.34 -33 22.68 -33 22 C-22.44 21.67 -11.88 21.34 -1 21 C-0.67 14.07 -0.34 7.14 0 0 Z " fill="#1C1C1C" transform="translate(77,149)"/>
<path d="M0 0 C3.29164829 -0.02895225 6.58326399 -0.0467823 9.875 -0.0625 C10.81214844 -0.07087891 11.74929687 -0.07925781 12.71484375 -0.08789062 C14.05869141 -0.09272461 14.05869141 -0.09272461 15.4296875 -0.09765625 C16.67081299 -0.10551147 16.67081299 -0.10551147 17.93701172 -0.11352539 C20 0 20 0 22 1 C22 2.32 22 3.64 22 5 C22.66 5 23.32 5 24 5 C24 5.66 24 6.32 24 7 C24.99 7 25.98 7 27 7 C27 7.66 27 8.32 27 9 C27.66 9 28.32 9 29 9 C29 9.66 29 10.32 29 11 C29.66 11 30.32 11 31 11 C31 12.65 31 14.3 31 16 C29.68 15.67 28.36 15.34 27 15 C27 14.34 27 13.68 27 13 C26.34 13 25.68 13 25 13 C25 12.34 25 11.68 25 11 C24.34 11 23.68 11 23 11 C22.67 9.68 22.34 8.36 22 7 C21.34 7 20.68 7 20 7 C20 6.34 20 5.68 20 5 C13.4 5 6.8 5 0 5 C0 3.35 0 1.7 0 0 Z " fill="#313131" transform="translate(144,131)"/>
<path d="M0 0 C20.79 0 41.58 0 63 0 C63.33 10.23 63.66 20.46 64 31 C63.34 31 62.68 31 62 31 C57.52538021 22.05076043 61 11.00555401 61 1 C41.53 1.33 22.06 1.66 2 2 C1.67 10.91 1.34 19.82 1 29 C0.67 29 0.34 29 0 29 C0 19.43 0 9.86 0 0 Z " fill="#F1F1F1" transform="translate(118,243)"/>
<path d="M0 0 C4.29 0 8.58 0 13 0 C13 0.66 13 1.32 13 2 C10.03 2 7.06 2 4 2 C4 2.66 4 3.32 4 4 C3.34 4 2.68 4 2 4 C2 6.97 2 9.94 2 13 C7.61 13 13.22 13 19 13 C19 17.95 19 22.9 19 28 C18.67 28 18.34 28 18 28 C17.505 21.565 17.505 21.565 17 15 C15.02 15 13.04 15 11 15 C11 15.66 11 16.32 11 17 C7.37 17 3.74 17 0 17 C0 16.34 0 15.68 0 15 C-0.66 15 -1.32 15 -2 15 C-2 10.71 -2 6.42 -2 2 C-1.34 2 -0.68 2 0 2 C0 1.34 0 0.68 0 0 Z " fill="#3B3B3B" transform="translate(114,158)"/>
<path d="M0 0 C5.61 0 11.22 0 17 0 C17 7.92 17 15.84 17 24 C-5.77 24 -28.54 24 -52 24 C-52 23.67 -52 23.34 -52 23 C-29.89 23 -7.78 23 15 23 C15 16.07 15 9.14 15 2 C10.05 2 5.1 2 0 2 C0 1.34 0 0.68 0 0 Z " fill="#E8E8E8" transform="translate(94,79)"/>
<path d="M0 0 C11.55 0 23.1 0 35 0 C35 1.32 35 2.64 35 4 C23.45 4 11.9 4 0 4 C0 2.68 0 1.36 0 0 Z " fill="#515151" transform="translate(131,92)"/>
<path d="M0 0 C4.29 0 8.58 0 13 0 C13 1.32 13 2.64 13 4 C12.34 4 11.68 4 11 4 C11 8.29 11 12.58 11 17 C10.01 17 9.02 17 8 17 C8 14.36 8 11.72 8 9 C5.36 9 2.72 9 0 9 C0 6.03 0 3.06 0 0 Z " fill="#3C3C3C" transform="translate(158,59)"/>
<path d="M0 0 C0.66 0 1.32 0 2 0 C2 5.94 2 11.88 2 18 C1.34 18 0.68 18 0 18 C0 18.66 0 19.32 0 20 C-4.29 20 -8.58 20 -13 20 C-13 14.72 -13 9.44 -13 4 C-12.34 4 -11.68 4 -11 4 C-11 8.29 -11 12.58 -11 17 C-7.37 17 -3.74 17 0 17 C0 15.68 0 14.36 0 13 C-1.32 13 -2.64 13 -4 13 C-4 13.66 -4 14.32 -4 15 C-4.66 15 -5.32 15 -6 15 C-6 13.02 -6 11.04 -6 9 C-4.02 9 -2.04 9 0 9 C0 6.03 0 3.06 0 0 Z " fill="#555555" transform="translate(140,59)"/>
<path d="M0 0 C9.9 0 19.8 0 30 0 C30 0.99 30 1.98 30 3 C31.65 2.67 33.3 2.34 35 2 C35 2.66 35 3.32 35 4 C23.45 4 11.9 4 0 4 C0 2.68 0 1.36 0 0 Z " fill="#444444" transform="translate(44,237)"/>
<path d="M0 0 C0.33 0 0.66 0 1 0 C1 5.94 1 11.88 1 18 C5.29 18 9.58 18 14 18 C14 18.66 14 19.32 14 20 C9.71 20 5.42 20 1 20 C1 21.98 1 23.96 1 26 C-3.29 26 -7.58 26 -12 26 C-12 24.02 -12 22.04 -12 20 C-8.04 20 -4.08 20 0 20 C0 13.4 0 6.8 0 0 Z " fill="#909090" transform="translate(155,59)"/>
<path d="M0 0 C0.66 0 1.32 0 2 0 C2 10.56 2 21.12 2 32 C1.34 32 0.68 32 0 32 C0 31.34 0 30.68 0 30 C-0.66 30 -1.32 30 -2 30 C-2 20.76 -2 11.52 -2 2 C-1.34 2 -0.68 2 0 2 C0 1.34 0 0.68 0 0 Z " fill="#4C4C4C" transform="translate(254,239)"/>
<path d="M0 0 C2.64 0 5.28 0 8 0 C8.33 0.99 8.66 1.98 9 3 C9.66 3 10.32 3 11 3 C11.02693575 5.12493141 11.04636628 7.24995912 11.0625 9.375 C11.07410156 10.55835938 11.08570313 11.74171875 11.09765625 12.9609375 C11 16 11 16 10 18 C9.34 18 8.68 18 8 18 C7.67 16.68 7.34 15.36 7 14 C4.69 14 2.38 14 0 14 C0 11.69 0 9.38 0 7 C0.66 7 1.32 7 2 7 C2 6.34 2 5.68 2 5 C3.32 5 4.64 5 6 5 C6 5.66 6 6.32 6 7 C6.66 7 7.32 7 8 7 C8 5.35 8 3.7 8 2 C5.36 1.67 2.72 1.34 0 1 C0 0.67 0 0.34 0 0 Z " fill="#747474" transform="translate(147,155)"/>
<path d="M0 0 C10.89 0 21.78 0 33 0 C33 8.58 33 17.16 33 26 C32.34 26 31.68 26 31 26 C31 18.08 31 10.16 31 2 C20.77 2 10.54 2 0 2 C0 1.34 0 0.68 0 0 Z " fill="#BABABA" transform="translate(219,241)"/>
<path d="M0 0 C10.89 0 21.78 0 33 0 C33 0.66 33 1.32 33 2 C22.77 2 12.54 2 2 2 C2 9.92 2 17.84 2 26 C1.34 26 0.68 26 0 26 C0 17.42 0 8.84 0 0 Z " fill="#B6B6B6" transform="translate(46,241)"/>
<path d="M0 0 C24.75 0 49.5 0 75 0 C75 0.66 75 1.32 75 2 C51.24 1.67 27.48 1.34 3 1 C3 1.66 3 2.32 3 3 C2.34 3 1.68 3 1 3 C1 12.24 1 21.48 1 31 C0.67 31 0.34 31 0 31 C0 20.77 0 10.54 0 0 Z " fill="#9E9E9E" transform="translate(111,236)"/>
<path d="M0 0 C1.32 0 2.64 0 4 0 C4 0.99 4 1.98 4 3 C2.02 3 0.04 3 -2 3 C-2 34.02 -2 65.04 -2 97 C-2.33 97 -2.66 97 -3 97 C-3 65.65 -3 34.3 -3 2 C-2.01 2 -1.02 2 0 2 C0 1.34 0 0.68 0 0 Z " fill="#ECECEC" transform="translate(219,144)"/>
<path d="M0 0 C4.62 0 9.24 0 14 0 C14 2.31 14 4.62 14 7 C8.06 7 2.12 7 -4 7 C-4 6.01 -4 5.02 -4 4 C-2.68 4 -1.36 4 0 4 C0 2.68 0 1.36 0 0 Z " fill="#6C6C6C" transform="translate(98,72)"/>
<path d="M0 0 C1.65 0 3.3 0 5 0 C5 0.66 5 1.32 5 2 C5.66 2 6.32 2 7 2 C7 4.31 7 6.62 7 9 C6.34 9 5.68 9 5 9 C5 8.34 5 7.68 5 7 C2.69 7 0.38 7 -2 7 C-2 7.66 -2 8.32 -2 9 C-2.66 9 -3.32 9 -4 9 C-4 9.66 -4 10.32 -4 11 C-6.64 11 -9.28 11 -12 11 C-12 10.34 -12 9.68 -12 9 C-10.02 9 -8.04 9 -6 9 C-6 7.35 -6 5.7 -6 4 C-4.68 4 -3.36 4 -2 4 C-2 3.34 -2 2.68 -2 2 C-1.34 2 -0.68 2 0 2 C0 1.34 0 0.68 0 0 Z " fill="#4A4A4A" transform="translate(155,138)"/>
<path d="M0 0 C10.89 0 21.78 0 33 0 C33 0.33 33 0.66 33 1 C32.09644775 1.02505615 31.19289551 1.0501123 30.26196289 1.07592773 C26.9203572 1.17087317 23.57893748 1.27011621 20.23754883 1.37231445 C18.7893576 1.4157163 17.34111346 1.45738744 15.89282227 1.49731445 C13.81510441 1.55489062 11.73765427 1.61862028 9.66015625 1.68359375 C8.40855713 1.72025146 7.15695801 1.75690918 5.86743164 1.79467773 C3.10369496 1.67803906 3.10369496 1.67803906 2 3 C1.87709282 4.65644366 1.82216092 6.31798993 1.79467773 7.97875977 C1.77473251 9.03978409 1.75478729 10.10080841 1.73423767 11.19398499 C1.71752518 12.348134 1.70081268 13.50228302 1.68359375 14.69140625 C1.66281265 15.86638168 1.64203156 17.04135712 1.62062073 18.25193787 C1.55499876 22.02206324 1.4961817 25.79226082 1.4375 29.5625 C1.3943268 32.11133573 1.35071292 34.66016403 1.30664062 37.20898438 C1.19930455 43.47257892 1.0975621 49.73624601 1 56 C0.67 56 0.34 56 0 56 C0 37.52 0 19.04 0 0 Z " fill="#EBEBEB" transform="translate(224,175)"/>
<path d="M0 0 C0 2.31 0 4.62 0 7 C-0.99 7 -1.98 7 -3 7 C-3 5.68 -3 4.36 -3 3 C-14.55 3 -26.1 3 -38 3 C-38 2.34 -38 1.68 -38 1 C-33.07040958 0.85703617 -28.14080336 0.71463436 -23.21118164 0.57275391 C-21.53409384 0.52440601 -19.85701046 0.4759044 -18.17993164 0.42724609 C-15.76970548 0.35734312 -13.35946396 0.2879925 -10.94921875 0.21875 C-10.19912033 0.19687622 -9.44902191 0.17500244 -8.67619324 0.15246582 C-5.78283704 0.06977176 -2.89472012 0 0 0 Z " fill="#AFAFAF" transform="translate(169,89)"/>
<path d="M0 0 C4.29 0 8.58 0 13 0 C13 1.32 13 2.64 13 4 C14.65 4.33 16.3 4.66 18 5 C18 5.66 18 6.32 18 7 C12.06 7 6.12 7 0 7 C0 4.69 0 2.38 0 0 Z " fill="#727272" transform="translate(186,72)"/>
<path d="M0 0 C2.97 0 5.94 0 9 0 C9.33 1.32 9.66 2.64 10 4 C7.36 4 4.72 4 2 4 C2 4.66 2 5.32 2 6 C1.34 6 0.68 6 0 6 C0 8.97 0 11.94 0 15 C-0.99 15 -1.98 15 -3 15 C-4.18306728 12.63386544 -4.13354608 11.13219264 -4.125 8.5 C-4.12757812 7.7059375 -4.13015625 6.911875 -4.1328125 6.09375 C-4 4 -4 4 -3 2 C-2.01 2 -1.02 2 0 2 C0 1.34 0 0.68 0 0 Z " fill="#3F3F3F" transform="translate(125,134)"/>
<path d="M0 0 C0.66 0 1.32 0 2 0 C2 9.9 2 19.8 2 30 C1.01 30 0.02 30 -1 30 C-1.02465746 25.8882744 -1.04283959 21.77657722 -1.05493164 17.66479492 C-1.0599708 16.26504772 -1.06680216 14.8653058 -1.07543945 13.46557617 C-1.0875232 11.45754223 -1.09269807 9.44947043 -1.09765625 7.44140625 C-1.10289307 6.23170166 -1.10812988 5.02199707 -1.11352539 3.77563477 C-1 1 -1 1 0 0 Z " fill="#D3D3D3" transform="translate(110,42)"/>
<path d="M0 0 C0.66 0 1.32 0 2 0 C2 0.66 2 1.32 2 2 C2.66 2 3.32 2 4 2 C4 5.63 4 9.26 4 13 C3.01 13 2.02 13 1 13 C1 13.66 1 14.32 1 15 C-2.96 15 -6.92 15 -11 15 C-11 14.34 -11 13.68 -11 13 C-10.34 13 -9.68 13 -9 13 C-9 12.34 -9 11.68 -9 11 C-4.545 10.01 -4.545 10.01 0 9 C0 6.03 0 3.06 0 0 Z " fill="#494949" transform="translate(178,158)"/>
<path d="M0 0 C2.25 -0.25 2.25 -0.25 5 0 C7.1875 1.9375 7.1875 1.9375 9 4 C9.66 4.33 10.32 4.66 11 5 C11 8.63 11 12.26 11 16 C10.34 16 9.68 16 9 16 C9 13.03 9 10.06 9 7 C8.34 7 7.68 7 7 7 C7 6.34 7 5.68 7 5 C6.34 5 5.68 5 5 5 C5.33 5.66 5.66 6.32 6 7 C6.04022391 9.3329866 6.04320247 11.66706666 6 14 C4.68 14.33 3.36 14.66 2 15 C2 14.34 2 13.68 2 13 C2.66 13 3.32 13 4 13 C4 11.02 4 9.04 4 7 C3.34 7 2.68 7 2 7 C2 6.34 2 5.68 2 5 C-0.97 5 -3.94 5 -7 5 C-7 4.34 -7 3.68 -7 3 C-4.03 3 -1.06 3 2 3 C1.34 2.67 0.68 2.34 0 2 C0 1.34 0 0.68 0 0 Z " fill="#868686" transform="translate(173,153)"/>
<path d="M0 0 C0.66 0 1.32 0 2 0 C2 1.32 2 2.64 2 4 C13.55 4 25.1 4 37 4 C37 4.66 37 5.32 37 6 C24.79 6 12.58 6 0 6 C0 4.02 0 2.04 0 0 Z " fill="#BBBBBB" transform="translate(129,92)"/>
<path d="M0 0 C3.63 0 7.26 0 11 0 C11 0.66 11 1.32 11 2 C9.02 2 7.04 2 5 2 C5 3.98 5 5.96 5 8 C5.66 8 6.32 8 7 8 C7 7.34 7 6.68 7 6 C8.32 6 9.64 6 11 6 C11 7.32 11 8.64 11 10 C7.37 10 3.74 10 0 10 C0 6.7 0 3.4 0 0 Z " fill="#222222" transform="translate(129,66)"/>
<path d="M0 0 C6.27 0 12.54 0 19 0 C19 0.66 19 1.32 19 2 C14.05 2 9.1 2 4 2 C4 7.61 4 13.22 4 19 C3.34 19 2.68 19 2 19 C2 14.71 2 10.42 2 6 C1.34 6 0.68 6 0 6 C0 4.02 0 2.04 0 0 Z " fill="#BEBEBE" transform="translate(123,57)"/>
<path d="M0 0 C0.66 0 1.32 0 2 0 C2 10.23 2 20.46 2 31 C0.35 30.67 -1.3 30.34 -3 30 C-2.67 28.02 -2.34 26.04 -2 24 C-1.34 24 -0.68 24 0 24 C0 16.08 0 8.16 0 0 Z " fill="#272727" transform="translate(114,48)"/>
<path d="M0 0 C0.99 0.33 1.98 0.66 3 1 C3 13.21 3 25.42 3 38 C2.34 38 1.68 38 1 38 C-0.58645357 34.82709287 -0.12078213 31.41174616 -0.09765625 27.9296875 C-0.0962413 27.13345978 -0.09482635 26.33723206 -0.09336853 25.51687622 C-0.08776345 22.9695462 -0.07521014 20.42230353 -0.0625 17.875 C-0.05748565 16.14974085 -0.05292263 14.42448033 -0.04882812 12.69921875 C-0.03779237 8.46611209 -0.02052436 4.23307086 0 0 Z " fill="#D2D2D2" transform="translate(39,236)"/>
<path d="M0 0 C0.66 0 1.32 0 2 0 C3.3260274 5.42465753 3.3260274 5.42465753 1.9375 7.875 C-0.75900247 9.44071111 -2.94130459 9.20391303 -6 9 C-6 9.66 -6 10.32 -6 11 C-6.99 11 -7.98 11 -9 11 C-9 10.34 -9 9.68 -9 9 C-9.66 9 -10.32 9 -11 9 C-11 8.34 -11 7.68 -11 7 C-11.66 6.67 -12.32 6.34 -13 6 C-12.34 6 -11.68 6 -11 6 C-11 4.68 -11 3.36 -11 2 C-10.01 2 -9.02 2 -8 2 C-8 2.66 -8 3.32 -8 4 C-7.34 4 -6.68 4 -6 4 C-6 4.66 -6 5.32 -6 6 C-4.02 6 -2.04 6 0 6 C0 4.02 0 2.04 0 0 Z " fill="#545454" transform="translate(166,182)"/>
<path d="M0 0 C3.63 0 7.26 0 11 0 C11 0.66 11 1.32 11 2 C7.7 2 4.4 2 1 2 C1 3.98 1 5.96 1 8 C5.95 8 10.9 8 16 8 C16 8.33 16 8.66 16 9 C13.03 9 10.06 9 7 9 C7 9.66 7 10.32 7 11 C4.03 11 1.06 11 -2 11 C-2 8.03 -2 5.06 -2 2 C-1.34 2 -0.68 2 0 2 C0 1.34 0 0.68 0 0 Z " fill="#B4B4B4" transform="translate(118,160)"/>
<path d="M0 0 C0.99 0 1.98 0 3 0 C3 0.66 3 1.32 3 2 C4.98 2 6.96 2 9 2 C9 3.32 9 4.64 9 6 C7.68 6 6.36 6 5 6 C5 6.99 5 7.98 5 9 C2.69 8.67 0.38 8.34 -2 8 C-2 7.34 -2 6.68 -2 6 C-2.66 6 -3.32 6 -4 6 C-4 4.68 -4 3.36 -4 2 C-3.01 2 -2.02 2 -1 2 C-0.67 1.34 -0.34 0.68 0 0 Z " fill="#E7E7E7" transform="translate(144,136)"/>
<path d="M0 0 C6.75 -0.125 6.75 -0.125 9 1 C9 2.65 9 4.3 9 6 C8.34 6 7.68 6 7 6 C7 5.34 7 4.68 7 4 C5.68 4 4.36 4 3 4 C3 4.66 3 5.32 3 6 C2.01 6 1.02 6 0 6 C0 6.66 0 7.32 0 8 C-0.66 8 -1.32 8 -2 8 C-2.33 9.32 -2.66 10.64 -3 12 C-3 11.34 -3 10.68 -3 10 C-3.66 10 -4.32 10 -5 10 C-4.67 8.02 -4.34 6.04 -4 4 C-3.34 4 -2.68 4 -2 4 C-1.34 2.68 -0.68 1.36 0 0 Z " fill="#4F4F4F" transform="translate(146,156)"/>
<path d="M0 0 C0.66 0 1.32 0 2 0 C2 1.32 2 2.64 2 4 C2.66 4 3.32 4 4 4 C4 4.99 4 5.98 4 7 C3.34 7 2.68 7 2 7 C2 24.49 2 41.98 2 60 C1.67 60 1.34 60 1 60 C0.67 40.2 0.34 20.4 0 0 Z " fill="#4C4C4C" transform="translate(42,105)"/>
<path d="M0 0 C1.98 0 3.96 0 6 0 C6 5.28 6 10.56 6 16 C11.79199672 16.13043257 11.79199672 16.13043257 17 15 C17 14.34 17 13.68 17 13 C17.66 13 18.32 13 19 13 C19 13.99 19 14.98 19 16 C15.5980513 18.09350689 12.94727588 18.17942163 9 18 C9 18.66 9 19.32 9 20 C8.01 20 7.02 20 6 20 C6 19.34 6 18.68 6 18 C5.34 18 4.68 18 4 18 C4 17.01 4 16.02 4 15 C2.68 15 1.36 15 0 15 C0 14.34 0 13.68 0 13 C1.32 13 2.64 13 4 13 C4 9.37 4 5.74 4 2 C2.68 2 1.36 2 0 2 C0 1.34 0 0.68 0 0 Z " fill="#9E9E9E" transform="translate(125,173)"/>
<path d="M0 0 C21.45 0 42.9 0 65 0 C65 0.33 65 0.66 65 1 C44.87 1 24.74 1 4 1 C4 1.66 4 2.32 4 3 C2.68 3 1.36 3 0 3 C0 2.01 0 1.02 0 0 Z " fill="#323232" transform="translate(44,106)"/>
<path d="M0 0 C0.66 0 1.32 0 2 0 C2 1.65 2 3.3 2 5 C2.66 5 3.32 5 4 5 C4 5.66 4 6.32 4 7 C4.66 7 5.32 7 6 7 C6 7.66 6 8.32 6 9 C6.66 9 7.32 9 8 9 C8 9.66 8 10.32 8 11 C6.68 11 5.36 11 4 11 C4 10.34 4 9.68 4 9 C2.68 9 1.36 9 0 9 C0 10.32 0 11.64 0 13 C0.66 13 1.32 13 2 13 C2 13.99 2 14.98 2 16 C2.66 16 3.32 16 4 16 C4 16.66 4 17.32 4 18 C1 18 1 18 -1.1875 16.4375 C-3.60192567 13.19051375 -3.3037572 10.94884357 -3 7 C-2.01 7 -1.02 7 0 7 C0 4.69 0 2.38 0 0 Z " fill="#9B9B9B" transform="translate(123,188)"/>
<path d="M0 0 C1.34888732 0.00015905 2.69778075 0.00584927 4.04663086 0.01586914 C5.10991859 0.01799156 5.10991859 0.01799156 6.19468689 0.02015686 C8.46699173 0.02577096 10.73919936 0.03832576 13.01147461 0.05102539 C14.54858257 0.05603858 16.08569206 0.0606018 17.62280273 0.06469727 C21.39823103 0.07574497 25.17358632 0.09301898 28.94897461 0.11352539 C28.94897461 0.44352539 28.94897461 0.77352539 28.94897461 1.11352539 C19.04897461 1.11352539 9.14897461 1.11352539 -1.05102539 1.11352539 C-1.05102539 1.77352539 -1.05102539 2.43352539 -1.05102539 3.11352539 C-1.71102539 3.11352539 -2.37102539 3.11352539 -3.05102539 3.11352539 C-3.05102539 13.67352539 -3.05102539 24.23352539 -3.05102539 35.11352539 C-3.38102539 35.11352539 -3.71102539 35.11352539 -4.05102539 35.11352539 C-4.07567729 30.28971737 -4.09386232 25.46594572 -4.10595703 20.64208984 C-4.11099713 18.99983075 -4.11782917 17.35757616 -4.12646484 15.71533203 C-4.13854465 13.3597706 -4.14425678 11.0042683 -4.14868164 8.64868164 C-4.15384293 7.91013443 -4.15900421 7.17158722 -4.1643219 6.41065979 C-4.16451789 4.64454451 -4.11297258 2.87855393 -4.05102539 1.11352539 C-3.05102539 0.11352539 -3.05102539 0.11352539 0 0 Z " fill="#999999" transform="translate(45.051025390625,235.886474609375)"/>
<path d="M0 0 C0.33 0 0.66 0 1 0 C1 8.58 1 17.16 1 26 C4.96 26 8.92 26 13 26 C12.67 26.99 12.34 27.98 12 29 C8.37 29 4.74 29 1 29 C-0.4783226 26.04335481 -0.06032783 23.25770263 0 20 C-0.66 20 -1.32 20 -2 20 C-2 19.34 -2 18.68 -2 18 C-1.34 18 -0.68 18 0 18 C0 12.06 0 6.12 0 0 Z " fill="#B1B1B1" transform="translate(142,59)"/>
<path d="M0 0 C0.66 0 1.32 0 2 0 C2.33 10.23 2.66 20.46 3 31 C2.34 31 1.68 31 1 31 C-0.43509221 28.12981559 -0.11158506 25.66456277 -0.09765625 22.4609375 C-0.09443359 21.15898437 -0.09121094 19.85703125 -0.08789062 18.515625 C-0.07953466 17.13541601 -0.07106971 15.75520768 -0.0625 14.375 C-0.05748501 12.98698074 -0.0529221 11.59895978 -0.04882812 10.2109375 C-0.03700976 6.80724868 -0.02053434 3.40364561 0 0 Z " fill="#D6D6D6" transform="translate(179,243)"/>
<path d="M0 0 C4.95 0 9.9 0 15 0 C15 3.63 15 7.26 15 11 C14.34 11 13.68 11 13 11 C12.67 8.36 12.34 5.72 12 3 C8.04 3 4.08 3 0 3 C0 2.01 0 1.02 0 0 Z " fill="#CFCFCF" transform="translate(114,175)"/>
<path d="M0 0 C1.32 0 2.64 0 4 0 C4 15.84 4 31.68 4 48 C3.67 48 3.34 48 3 48 C2.67 33.15 2.34 18.3 2 3 C1.34 3 0.68 3 0 3 C0 2.01 0 1.02 0 0 Z " fill="#191919" transform="translate(199,26)"/>
<path d="M0 0 C1.32 0 2.64 0 4 0 C4 0.99 4 1.98 4 3 C4.66 3 5.32 3 6 3 C6 3.66 6 4.32 6 5 C6.99 5 7.98 5 9 5 C9 5.66 9 6.32 9 7 C10.32 7 11.64 7 13 7 C13 7.66 13 8.32 13 9 C10.03 9 7.06 9 4 9 C4 8.34 4 7.68 4 7 C3.34 7 2.68 7 2 7 C2 6.34 2 5.68 2 5 C1.34 5 0.68 5 0 5 C0 3.35 0 1.7 0 0 Z " fill="#4B4B4B" transform="translate(125,188)"/>
<path d="M0 0 C0.33 0 0.66 0 1 0 C1.33 14.85 1.66 29.7 2 45 C0.68 45 -0.64 45 -2 45 C-2 43.68 -2 42.36 -2 41 C-1.34 41 -0.68 41 0 41 C0 27.47 0 13.94 0 0 Z " fill="#393939" transform="translate(201,31)"/>
<path d="M0 0 C0.66 0 1.32 0 2 0 C2 4.62 2 9.24 2 14 C5.63 14 9.26 14 13 14 C13 14.66 13 15.32 13 16 C8.71 16 4.42 16 0 16 C0 10.72 0 5.44 0 0 Z " fill="#7A7A7A" transform="translate(127,63)"/>
<path d="M0 0 C1.32 0 2.64 0 4 0 C4 0.66 4 1.32 4 2 C3.34 2 2.68 2 2 2 C2 8.93 2 15.86 2 23 C1.34 23.33 0.68 23.66 0 24 C0 16.08 0 8.16 0 0 Z " fill="#5A5A5A" transform="translate(75,147)"/>
<path d="M0 0 C1.32 0 2.64 0 4 0 C4 2.97 4 5.94 4 9 C2.02 9 0.04 9 -2 9 C-2 6.69 -2 4.38 -2 2 C-1.34 2 -0.68 2 0 2 C0 1.34 0 0.68 0 0 Z " fill="#ACACAC" transform="translate(149,160)"/>
<path d="M0 0 C1.32 0 2.64 0 4 0 C4 7.26 4 14.52 4 22 C3.34 22 2.68 22 2 22 C2 15.4 2 8.8 2 2 C1.34 2 0.68 2 0 2 C0 1.34 0 0.68 0 0 Z " fill="#5F5F5F" transform="translate(219,147)"/>
<path d="M0 0 C0.99 0 1.98 0 3 0 C3 0.66 3 1.32 3 2 C4.98 2 6.96 2 9 2 C9 1.34 9 0.68 9 0 C9.66 0 10.32 0 11 0 C10.979375 0.886875 10.95875 1.77375 10.9375 2.6875 C10.99286219 5.62169631 11.3305734 8.15493696 12 11 C11.67 10.34 11.34 9.68 11 9 C10.34 9 9.68 9 9 9 C9 8.01 9 7.02 9 6 C8.34 6 7.68 6 7 6 C7 5.34 7 4.68 7 4 C5.02 4 3.04 4 1 4 C0.67 2.68 0.34 1.36 0 0 Z " fill="#DCDCDC" transform="translate(144,173)"/>
<path d="M0 0 C0.66 0 1.32 0 2 0 C1.67 1.98 1.34 3.96 1 6 C1.66 6 2.32 6 3 6 C3.33 5.34 3.66 4.68 4 4 C4.66 4 5.32 4 6 4 C6.33 3.34 6.66 2.68 7 2 C7 4.31 7 6.62 7 9 C6.34 9 5.68 9 5 9 C5.33 10.32 5.66 11.64 6 13 C5.34 13 4.68 13 4 13 C4 12.34 4 11.68 4 11 C3.34 11 2.68 11 2 11 C2 10.34 2 9.68 2 9 C1.34 9 0.68 9 0 9 C0 6.03 0 3.06 0 0 Z " fill="#767676" transform="translate(140,160)"/>
<path d="M0 0 C3.63 0 7.26 0 11 0 C11 0.33 11 0.66 11 1 C8.36 1 5.72 1 3 1 C3 1.99 3 2.98 3 4 C7.95 3.67 12.9 3.34 18 3 C18 3.66 18 4.32 18 5 C12.06 5 6.12 5 0 5 C0 3.35 0 1.7 0 0 Z " fill="#787878" transform="translate(144,131)"/>
<path d="M0 0 C1.32 0 2.64 0 4 0 C4 0.99 4 1.98 4 3 C2.02 3 0.04 3 -2 3 C-2 12.24 -2 21.48 -2 31 C-2.33 31 -2.66 31 -3 31 C-3 21.43 -3 11.86 -3 2 C-2.01 2 -1.02 2 0 2 C0 1.34 0 0.68 0 0 Z " fill="#E2E2E2" transform="translate(219,144)"/>
<path d="M0 0 C5.61 0 11.22 0 17 0 C17 1.98 17 3.96 17 6 C16.34 6 15.68 6 15 6 C15 4.68 15 3.36 15 2 C10.05 2 5.1 2 0 2 C0 1.34 0 0.68 0 0 Z " fill="#9E9E9E" transform="translate(156,57)"/>
<path d="M0 0 C0.33 1.32 0.66 2.64 1 4 C1.66 4 2.32 4 3 4 C3 6.97 3 9.94 3 13 C2.01 13 1.02 13 0 13 C-1.18306728 10.63386544 -1.13354608 9.13219264 -1.125 6.5 C-1.12757812 5.7059375 -1.13015625 4.911875 -1.1328125 4.09375 C-1 2 -1 2 0 0 Z " fill="#464646" transform="translate(122,136)"/>
<path d="M0 0 C4.29 0 8.58 0 13 0 C13 0.66 13 1.32 13 2 C9.37 2 5.74 2 2 2 C1.67 3.65 1.34 5.3 1 7 C0.67 7.66 0.34 8.32 0 9 C-0.66 8.67 -1.32 8.34 -2 8 C-1.34 5.36 -0.68 2.72 0 0 Z " fill="#E7E7E7" transform="translate(156,79)"/>
<path d="M0 0 C0.99 0 1.98 0 3 0 C3 6.27 3 12.54 3 19 C4.98 19.33 6.96 19.66 9 20 C5.98968256 20.93423645 5.13349732 21.04449911 2 20 C1.34 13.4 0.68 6.8 0 0 Z " fill="#E9E9E9" transform="translate(142,57)"/>
<path d="M0 0 C1.32 0 2.64 0 4 0 C4 0.99 4 1.98 4 3 C5.32 3 6.64 3 8 3 C8 4.32 8 5.64 8 7 C6.02 7 4.04 7 2 7 C2 6.01 2 5.02 2 4 C1.34 4 0.68 4 0 4 C0 2.68 0 1.36 0 0 Z " fill="#464646" transform="translate(123,197)"/>
<path d="M0 0 C0.66 0 1.32 0 2 0 C2 0.66 2 1.32 2 2 C2.66 2 3.32 2 4 2 C4 2.66 4 3.32 4 4 C4.66 4 5.32 4 6 4 C6 5.65 6 7.3 6 9 C4.68 8.67 3.36 8.34 2 8 C2 7.34 2 6.68 2 6 C1.34 6 0.68 6 0 6 C0 5.34 0 4.68 0 4 C-0.66 4 -1.32 4 -2 4 C-2 3.34 -2 2.68 -2 2 C-1.34 2 -0.68 2 0 2 C0 1.34 0 0.68 0 0 Z " fill="#4B4B4B" transform="translate(169,138)"/>
<path d="M0 0 C0.99 0 1.98 0 3 0 C3 0.99 3 1.98 3 3 C2.34 3 1.68 3 1 3 C1 12.24 1 21.48 1 31 C0.67 31 0.34 31 0 31 C0 20.77 0 10.54 0 0 Z " fill="#AFAFAF" transform="translate(111,236)"/>
<path d="M0 0 C1.98 0 3.96 0 6 0 C6 0.66 6 1.32 6 2 C7.32 2 8.64 2 10 2 C10 3.98 10 5.96 10 8 C9.34 8 8.68 8 8 8 C8 7.34 8 6.68 8 6 C7.34 6 6.68 6 6 6 C6 5.34 6 4.68 6 4 C5.34 4 4.68 4 4 4 C4 3.34 4 2.68 4 2 C2.68 2 1.36 2 0 2 C0 1.34 0 0.68 0 0 Z " fill="#3E3E3E" transform="translate(145,180)"/>
<path d="M0 0 C3.70816341 -0.2833062 7.30074348 -0.4412957 11 0 C13.25 2.25 13.25 2.25 14 5 C13.6875 7.3125 13.6875 7.3125 13 9 C13 8.34 13 7.68 13 7 C12.34 7 11.68 7 11 7 C11 5.68 11 4.36 11 3 C7.37 2.67 3.74 2.34 0 2 C0 1.34 0 0.68 0 0 Z " fill="#A1A1A1" transform="translate(155,129)"/>
<path d="M0 0 C2.97 0 5.94 0 9 0 C9 1.32 9 2.64 9 4 C6.03 4 3.06 4 0 4 C0 2.68 0 1.36 0 0 Z " fill="#393939" transform="translate(144,81)"/>
<path d="M0 0 C3.96 0 7.92 0 12 0 C12 1.98 12 3.96 12 6 C11.34 6 10.68 6 10 6 C10 4.68 10 3.36 10 2 C7.03 2 4.06 2 1 2 C0.67 3.32 0.34 4.64 0 6 C0 4.02 0 2.04 0 0 Z " fill="#7D7D7D" transform="translate(143,79)"/>
<path d="M0 0 C3.3 0 6.6 0 10 0 C10 3.3 10 6.6 10 10 C9.34 10 8.68 10 8 10 C8 7.36 8 4.72 8 2 C5.36 2 2.72 2 0 2 C0 1.34 0 0.68 0 0 Z " fill="#1F1F1F" transform="translate(158,66)"/>
<path d="M0 0 C0.66 0 1.32 0 2 0 C2 5.28 2 10.56 2 16 C0.68 16 -0.64 16 -2 16 C-2 15.34 -2 14.68 -2 14 C-1.34 14 -0.68 14 0 14 C0 9.38 0 4.76 0 0 Z " fill="#D4D4D4" transform="translate(171,63)"/>
<path d="M0 0 C3.3 0 6.6 0 10 0 C10 4.95 10 9.9 10 15 C9.67 15 9.34 15 9 15 C8.67 10.71 8.34 6.42 8 2 C5.36 2 2.72 2 0 2 C0 1.34 0 0.68 0 0 Z " fill="#252525" transform="translate(123,171)"/>
<path d="M0 0 C0.99 0 1.98 0 3 0 C3 0.66 3 1.32 3 2 C2.34 2 1.68 2 1 2 C1 6.29 1 10.58 1 15 C1.66 15 2.32 15 3 15 C3 15.66 3 16.32 3 17 C2.01 17 1.02 17 0 17 C0 15.02 0 13.04 0 11 C-0.66 11 -1.32 11 -2 11 C-2 9.35 -2 7.7 -2 6 C-1.34 6 -0.68 6 0 6 C0 4.02 0 2.04 0 0 Z " fill="#D4D4D4" transform="translate(111,158)"/>
<path d="M0 0 C0.66 0 1.32 0 2 0 C2 4.29 2 8.58 2 13 C2.66 13 3.32 13 4 13 C4 13.66 4 14.32 4 15 C2.68 15 1.36 15 0 15 C0 10.05 0 5.1 0 0 Z " fill="#848484" transform="translate(134,171)"/>
<path d="M0 0 C5.75 -0.125 5.75 -0.125 8 1 C8 2.65 8 4.3 8 6 C7.34 6 6.68 6 6 6 C6 5.34 6 4.68 6 4 C4.02 4 2.04 4 0 4 C0 2.68 0 1.36 0 0 Z " fill="#333333" transform="translate(147,156)"/>
<path d="M0 0 C4.95 0 9.9 0 15 0 C15 0.66 15 1.32 15 2 C12.69 2 10.38 2 8 2 C8 2.66 8 3.32 8 4 C7.34 4 6.68 4 6 4 C6 3.34 6 2.68 6 2 C4.02 2 2.04 2 0 2 C0 1.34 0 0.68 0 0 Z " fill="#C5C5C5" transform="translate(147,136)"/>
<path d="M0 0 C4.29 0 8.58 0 13 0 C13 1.98 13 3.96 13 6 C12.34 6 11.68 6 11 6 C11 4.68 11 3.36 11 2 C7.37 2 3.74 2 0 2 C0 1.34 0 0.68 0 0 Z " fill="#E7E7E7" transform="translate(129,79)"/>
<path d="M0 0 C0.66 0 1.32 0 2 0 C2 1.98 2 3.96 2 6 C2.66 6 3.32 6 4 6 C4 5.34 4 4.68 4 4 C5.32 4 6.64 4 8 4 C8 5.32 8 6.64 8 8 C5.69 8 3.38 8 1 8 C-0.35439668 5.29120665 -0.06501451 2.99066732 0 0 Z " fill="#393939" transform="translate(132,68)"/>
<path d="M0 0 C2.31 0 4.62 0 7 0 C7 0.66 7 1.32 7 2 C7.66 2 8.32 2 9 2 C9 2.99 9 3.98 9 5 C8.34 5 7.68 5 7 5 C7 4.34 7 3.68 7 3 C4.36 3 1.72 3 -1 3 C-1 3.66 -1 4.32 -1 5 C-1.99 4.67 -2.98 4.34 -4 4 C-3.34 4 -2.68 4 -2 4 C-2 3.34 -2 2.68 -2 2 C-1.34 2 -0.68 2 0 2 C0 1.34 0 0.68 0 0 Z " fill="#858585" transform="translate(144,177)"/>
<path d="M0 0 C1.65 0 3.3 0 5 0 C5 0.66 5 1.32 5 2 C5.66 2 6.32 2 7 2 C7 2.66 7 3.32 7 4 C3.37 4 -0.26 4 -4 4 C-4 3.34 -4 2.68 -4 2 C-2.68 2 -1.36 2 0 2 C0 1.34 0 0.68 0 0 Z " fill="#444444" transform="translate(118,171)"/>
<path d="M0 0 C0.66 0 1.32 0 2 0 C2.625 2.875 2.625 2.875 3 6 C1 8 1 8 -2.625 8.125 C-3.73875 8.08375 -4.8525 8.0425 -6 8 C-6 7.34 -6 6.68 -6 6 C-4.02 6 -2.04 6 0 6 C0 4.02 0 2.04 0 0 Z " fill="#9F9F9F" transform="translate(166,182)"/>
<path d="M0 0 C2.125 0.9375 2.125 0.9375 4 2 C3.34 2 2.68 2 2 2 C2 2.66 2 3.32 2 4 C1.34 4 0.68 4 0 4 C0 4.66 0 5.32 0 6 C-2.64 6 -5.28 6 -8 6 C-8 5.34 -8 4.68 -8 4 C-6.02 4 -4.04 4 -2 4 C-2 3.01 -2 2.02 -2 1 C-1.34 0.67 -0.68 0.34 0 0 Z " fill="#313131" transform="translate(151,143)"/>
<path d="M0 0 C2.31 0 4.62 0 7 0 C7 0.66 7 1.32 7 2 C7.66 2 8.32 2 9 2 C9 2.99 9 3.98 9 5 C9.66 5 10.32 5 11 5 C11 5.66 11 6.32 11 7 C9.68 6.67 8.36 6.34 7 6 C7 5.34 7 4.68 7 4 C6.34 4 5.68 4 5 4 C5 3.34 5 2.68 5 2 C3.35 2 1.7 2 0 2 C0 1.34 0 0.68 0 0 Z " fill="#BCBCBC" transform="translate(144,184)"/>
<path d="M0 0 C0.66 0 1.32 0 2 0 C2 2.31 2 4.62 2 7 C2.66 7 3.32 7 4 7 C4 7.66 4 8.32 4 9 C3.34 9 2.68 9 2 9 C2 9.66 2 10.32 2 11 C0.68 11 -0.64 11 -2 11 C-2 10.34 -2 9.68 -2 9 C-1.34 9 -0.68 9 0 9 C0 6.03 0 3.06 0 0 Z " fill="#787878" transform="translate(125,140)"/>
<path d="M0 0 C0 1.32 0 2.64 0 4 C-0.99 4 -1.98 4 -3 4 C-3.33 3.34 -3.66 2.68 -4 2 C-4.33 2.66 -4.66 3.32 -5 4 C-6.32 4 -7.64 4 -9 4 C-9 3.34 -9 2.68 -9 2 C-8.34 2 -7.68 2 -7 2 C-7 1.34 -7 0.68 -7 0 C-4.3333581 -1.33332095 -2.83319697 -0.67102033 0 0 Z " fill="#B8B8B8" transform="translate(160,145)"/>
<path d="M0 0 C0.66 0 1.32 0 2 0 C2 0.66 2 1.32 2 2 C3.32 2.33 4.64 2.66 6 3 C6 2.01 6 1.02 6 0 C6.99 0 7.98 0 9 0 C9 1.65 9 3.3 9 5 C6.69 5 4.38 5 2 5 C1.34 3.35 0.68 1.7 0 0 Z " fill="#B1B1B1" transform="translate(169,144)"/>
<path d="M0 0 C3.3 0 6.6 0 10 0 C10 0.66 10 1.32 10 2 C7.69 2.33 5.38 2.66 3 3 C2.67 3.99 2.34 4.98 2 6 C1.34 6 0.68 6 0 6 C0 4.02 0 2.04 0 0 Z " fill="#2F2F2F" transform="translate(160,60)"/>
<path d="M0 0 C0.66 0 1.32 0 2 0 C2 3.63 2 7.26 2 11 C1.34 11 0.68 11 0 11 C0 10.01 0 9.02 0 8 C-0.66 8 -1.32 8 -2 8 C-2 6.02 -2 4.04 -2 2 C-1.34 2 -0.68 2 0 2 C0 1.34 0 0.68 0 0 Z " fill="#808080" transform="translate(164,171)"/>
<path d="M0 0 C2.97 0 5.94 0 9 0 C9 0.99 9 1.98 9 3 C6.03 3 3.06 3 0 3 C0 2.01 0 1.02 0 0 Z " fill="#C4C4C4" transform="translate(125,131)"/>
<path d="M0 0 C0.66 0 1.32 0 2 0 C2 1.32 2 2.64 2 4 C2.66 4 3.32 4 4 4 C4.33 5.32 4.66 6.64 5 8 C4.01 8 3.02 8 2 8 C2 7.34 2 6.68 2 6 C1.34 6 0.68 6 0 6 C0 5.34 0 4.68 0 4 C-0.66 4 -1.32 4 -2 4 C-2 3.34 -2 2.68 -2 2 C-1.34 2 -0.68 2 0 2 C0 1.34 0 0.68 0 0 Z " fill="#3B3B3B" transform="translate(164,132)"/>
<path d="M0 0 C2 3.75 2 3.75 2 6 C2.99 6 3.98 6 5 6 C5 6.99 5 7.98 5 9 C5.66 9 6.32 9 7 9 C7 9.66 7 10.32 7 11 C4 11 4 11 1.8125 9.4375 C-0.60192567 6.19051375 -0.3037572 3.94884357 0 0 Z " fill="#C2C2C2" transform="translate(120,195)"/>
<path d="M0 0 C1.98 0 3.96 0 6 0 C6 0.99 6 1.98 6 3 C4.68 3 3.36 3 2 3 C2 3.99 2 4.98 2 6 C1.34 6 0.68 6 0 6 C0 4.02 0 2.04 0 0 Z " fill="#B6B6B6" transform="translate(169,173)"/>
<path d="M0 0 C1.32 0 2.64 0 4 0 C4 1.98 4 3.96 4 6 C2.68 6 1.36 6 0 6 C0 4.02 0 2.04 0 0 Z " fill="#E8E8E8" transform="translate(147,162)"/>
<path d="M0 0 C1.32 0 2.64 0 4 0 C4 1.98 4 3.96 4 6 C2.68 6 1.36 6 0 6 C0 4.02 0 2.04 0 0 Z " fill="#505050" transform="translate(160,68)"/>
<path d="M0 0 C1.32 0 2.64 0 4 0 C4 1.98 4 3.96 4 6 C2.68 6 1.36 6 0 6 C0 4.02 0 2.04 0 0 Z " fill="#C3C3C3" transform="translate(123,57)"/>
<path d="M0 0 C1.45922693 0.11409593 2.91740598 0.24165544 4.375 0.375 C5.59316406 0.47941406 5.59316406 0.47941406 6.8359375 0.5859375 C9 1 9 1 11 3 C9.54176788 3.0270043 8.08339325 3.04639787 6.625 3.0625 C5.81289062 3.07410156 5.00078125 3.08570313 4.1640625 3.09765625 C2 3 2 3 0 2 C0 1.34 0 0.68 0 0 Z " fill="#313131" transform="translate(166,154)"/>
<path d="M0 0 C0.99 0 1.98 0 3 0 C3 0.66 3 1.32 3 2 C3.66 2 4.32 2 5 2 C5 2.66 5 3.32 5 4 C3.68 4 2.36 4 1 4 C1.33 4.99 1.66 5.98 2 7 C1.34 7 0.68 7 0 7 C0 6.34 0 5.68 0 5 C-0.66 4.67 -1.32 4.34 -2 4 C-1.34 4 -0.68 4 0 4 C0 2.68 0 1.36 0 0 Z " fill="#727272" transform="translate(155,184)"/>
<path d="M0 0 C0.66 0 1.32 0 2 0 C2 2.31 2 4.62 2 7 C1.34 7 0.68 7 0 7 C0 7.66 0 8.32 0 9 C-0.66 9 -1.32 9 -2 9 C-2 7.68 -2 6.36 -2 5 C-1.34 5 -0.68 5 0 5 C0 3.35 0 1.7 0 0 Z " fill="#606060" transform="translate(162,142)"/>
<path d="M0 0 C0.66 0 1.32 0 2 0 C2 3.3 2 6.6 2 10 C1.34 10 0.68 10 0 10 C-0.19412181 8.52168779 -0.38012131 7.04230684 -0.5625 5.5625 C-0.66691406 4.73878906 -0.77132812 3.91507813 -0.87890625 3.06640625 C-0.91886719 2.38449219 -0.95882812 1.70257813 -1 1 C-0.67 0.67 -0.34 0.34 0 0 Z " fill="#E3E3E3" transform="translate(127,176)"/>
<path d="M0 0 C0.99 0 1.98 0 3 0 C3 2.31 3 4.62 3 7 C2.01 7 1.02 7 0 7 C0 4.69 0 2.38 0 0 Z " fill="#C2C2C2" transform="translate(166,89)"/>
<path d="M0 0 C0.66 0 1.32 0 2 0 C2 0.66 2 1.32 2 2 C2.66 2 3.32 2 4 2 C4.125 4.875 4.125 4.875 4 8 C3.34 8.66 2.68 9.32 2 10 C1.34 6.7 0.68 3.4 0 0 Z " fill="#292929" transform="translate(178,158)"/>
<path d="M0 0 C0.33 0 0.66 0 1 0 C1 2.97 1 5.94 1 9 C-0.65 9 -2.3 9 -4 9 C-4 8.34 -4 7.68 -4 7 C-3.01 6.34 -2.02 5.68 -1 5 C-0.27034634 2.43717258 -0.27034634 2.43717258 0 0 Z " fill="#A4A4A4" transform="translate(133,151)"/>
<path d="M0 0 C2.5 1.375 2.5 1.375 5 3 C5 3.66 5 4.32 5 5 C4.34 5 3.68 5 3 5 C2.34 6.32 1.68 7.64 1 9 C0.67 6.03 0.34 3.06 0 0 Z " fill="#D7D7D7" transform="translate(165,142)"/>
<path d="M0 0 C0.99 0 1.98 0 3 0 C3 0.66 3 1.32 3 2 C2.34 2 1.68 2 1 2 C1 3.32 1 4.64 1 6 C0.34 6 -0.32 6 -1 6 C-1 5.34 -1 4.68 -1 4 C-1.99 4 -2.98 4 -4 4 C-4 3.34 -4 2.68 -4 2 C-2.68 2 -1.36 2 0 2 C0 1.34 0 0.68 0 0 Z " fill="#737373" transform="translate(135,136)"/>
<path d="M0 0 C0.66 0 1.32 0 2 0 C3.04449911 3.13349732 2.93423645 3.98968256 2 7 C1.34 7 0.68 7 0 7 C0 5.68 0 4.36 0 3 C-1.32 2.67 -2.64 2.34 -4 2 C-2.68 2 -1.36 2 0 2 C0 1.34 0 0.68 0 0 Z " fill="#797979" transform="translate(131,197)"/>
<path d="M0 0 C1.32 0 2.64 0 4 0 C4.33 1.32 4.66 2.64 5 4 C6.32 4.33 7.64 4.66 9 5 C6.69 4.67 4.38 4.34 2 4 C2 3.34 2 2.68 2 2 C1.34 2 0.68 2 0 2 C0 1.34 0 0.68 0 0 Z " fill="#A7A7A7" transform="translate(140,140)"/>
<path d="M0 0 C1.98 0 3.96 0 6 0 C6 0.99 6 1.98 6 3 C4.02 3 2.04 3 0 3 C0 2.01 0 1.02 0 0 Z " fill="#C2C2C2" transform="translate(169,166)"/>
<path d="M0 0 C1.32 0 2.64 0 4 0 C4 0.66 4 1.32 4 2 C3.34 2 2.68 2 2 2 C2 3.65 2 5.3 2 7 C1.34 7 0.68 7 0 7 C0 4.69 0 2.38 0 0 Z " fill="#525252" transform="translate(127,149)"/>
<path d="M0 0 C2.31 0 4.62 0 7 0 C7 1.32 7 2.64 7 4 C6.34 4 5.68 4 5 4 C5 3.34 5 2.68 5 2 C3.35 2 1.7 2 0 2 C0 1.34 0 0.68 0 0 Z " fill="#0F0F0F" transform="translate(177,44)"/>
<path d="M0 0 C0.66 0 1.32 0 2 0 C2 0.66 2 1.32 2 2 C1.34 2 0.68 2 0 2 C0 2.66 0 3.32 0 4 C0.66 4 1.32 4 2 4 C2 4.66 2 5.32 2 6 C1.01 6 0.02 6 -1 6 C-1.33 6.66 -1.66 7.32 -2 8 C-1.125 1.125 -1.125 1.125 0 0 Z " fill="#505050" transform="translate(167,169)"/>
<path d="M0 0 C2.64 0 5.28 0 8 0 C7.67 0.66 7.34 1.32 7 2 C4.67843403 2.40729228 2.3431213 2.74438677 0 3 C0 2.01 0 1.02 0 0 Z " fill="#3E3E3E" transform="translate(147,132)"/>
</svg>
