<?xml version="1.0" encoding="UTF-8"?>
<svg version="1.1" xmlns="http://www.w3.org/2000/svg" width="300" height="300">
<path d="M0 0 C99 0 198 0 300 0 C300 99 300 198 300 300 C201 300 102 300 0 300 C0 201 0 102 0 0 Z " fill="#FEFEFE" transform="translate(0,0)"/>
<path d="M0 0 C36.96 0 73.92 0 112 0 C112 18.15 112 36.3 112 55 C111.34 55 110.68 55 110 55 C110 55.66 110 56.32 110 57 C105.05 57 100.1 57 95 57 C95 64.26 95 71.52 95 79 C117.11 79 139.22 79 162 79 C162 79.66 162 80.32 162 81 C162.66 81 163.32 81 164 81 C164 104.1 164 127.2 164 151 C152.78 151 141.56 151 130 151 C130 171.13 130 191.26 130 212 C140.4412655 211.92085685 140.4412655 211.92085685 150.88232422 211.81982422 C152.82389404 211.81233154 152.82389404 211.81233154 154.8046875 211.8046875 C155.48539307 211.79445557 156.16609863 211.78422363 156.86743164 211.77368164 C158.57995007 211.77304431 160.29187236 211.87744494 162 212 C164 214 164 214 164.22705078 217.34814453 C164.22673375 218.77640633 164.21541361 220.20469212 164.1953125 221.6328125 C164.1924826 222.38464813 164.18965271 223.13648376 164.18673706 223.91110229 C164.17552874 226.31589578 164.15042352 228.72031881 164.125 231.125 C164.11497102 232.75390088 164.10584503 234.38280758 164.09765625 236.01171875 C164.07558735 240.00795556 164.04105351 244.00391494 164 248 C163.34 248 162.68 248 162 248 C162 248.66 162 249.32 162 250 C137.58 250 113.16 250 88 250 C88 239.11 88 228.22 88 217 C66.22 217 44.44 217 22 217 C22 227.89 22 238.78 22 250 C-1.76 250 -25.52 250 -50 250 C-50 249.34 -50 248.68 -50 248 C-50.66 248 -51.32 248 -52 248 C-52 236.45 -52 224.9 -52 213 C-41.44 212.67 -30.88 212.34 -20 212 C-19.67 191.87 -19.34 171.74 -19 151 C-29.23 151 -39.46 151 -50 151 C-50 150.34 -50 149.68 -50 149 C-50.66 149 -51.32 149 -52 149 C-52 126.56 -52 104.12 -52 81 C-51.34 81 -50.68 81 -50 81 C-50 80.34 -50 79.68 -50 79 C-27.89 79 -5.78 79 17 79 C17 71.08 17 63.16 17 55 C11.39 55 5.78 55 0 55 C0 36.85 0 18.7 0 0 Z " fill="#FCFCFC" transform="translate(94,24)"/>
<path d="M0 0 C36.96 0 73.92 0 112 0 C112 18.15 112 36.3 112 55 C111.34 55 110.68 55 110 55 C110 55.66 110 56.32 110 57 C105.05 57 100.1 57 95 57 C95 64.26 95 71.52 95 79 C117.11 79 139.22 79 162 79 C162 79.66 162 80.32 162 81 C162.66 81 163.32 81 164 81 C164 104.1 164 127.2 164 151 C152.78 151 141.56 151 130 151 C130 171.13 130 191.26 130 212 C140.4412655 211.92085685 140.4412655 211.92085685 150.88232422 211.81982422 C152.82389404 211.81233154 152.82389404 211.81233154 154.8046875 211.8046875 C155.48539307 211.79445557 156.16609863 211.78422363 156.86743164 211.77368164 C158.57995007 211.77304431 160.29187236 211.87744494 162 212 C164 214 164 214 164.22705078 217.34814453 C164.22673375 218.77640633 164.21541361 220.20469212 164.1953125 221.6328125 C164.1924826 222.38464813 164.18965271 223.13648376 164.18673706 223.91110229 C164.17552874 226.31589578 164.15042352 228.72031881 164.125 231.125 C164.11497102 232.75390088 164.10584503 234.38280758 164.09765625 236.01171875 C164.07558735 240.00795556 164.04105351 244.00391494 164 248 C163.34 248 162.68 248 162 248 C162 248.66 162 249.32 162 250 C137.58 250 113.16 250 88 250 C88 239.11 88 228.22 88 217 C66.22 217 44.44 217 22 217 C22 227.89 22 238.78 22 250 C-1.76 250 -25.52 250 -50 250 C-50 249.34 -50 248.68 -50 248 C-50.66 248 -51.32 248 -52 248 C-52 236.45 -52 224.9 -52 213 C-41.44 212.67 -30.88 212.34 -20 212 C-19.67 191.87 -19.34 171.74 -19 151 C-29.23 151 -39.46 151 -50 151 C-50 150.34 -50 149.68 -50 149 C-50.66 149 -51.32 149 -52 149 C-52 126.56 -52 104.12 -52 81 C-51.34 81 -50.68 81 -50 81 C-50 80.34 -50 79.68 -50 79 C-27.89 79 -5.78 79 17 79 C17 71.08 17 63.16 17 55 C11.39 55 5.78 55 0 55 C0 36.85 0 18.7 0 0 Z M24 24 C24 43.47 24 62.94 24 83 C23.34 83 22.68 83 22 83 C22 83.99 22 84.98 22 86 C-0.44 86 -22.88 86 -46 86 C-45.67 104.48 -45.34 122.96 -45 142 C-44.34 142 -43.68 142 -43 142 C-43 142.66 -43 143.32 -43 144 C-35.41 144 -27.82 144 -20 144 C-20 137.07 -20 130.14 -20 123 C-17.69 123 -15.38 123 -13 123 C-13 154.02 -13 185.04 -13 217 C-13.66 217 -14.32 217 -15 217 C-15 217.66 -15 218.32 -15 219 C-25.23 219 -35.46 219 -46 219 C-46 227.58 -46 236.16 -46 245 C-25.21 245 -4.42 245 17 245 C17 234.11 17 223.22 17 212 C41.75 212 66.5 212 92 212 C92 212.66 92 213.32 92 214 C92.66 214 93.32 214 94 214 C94 223.57 94 233.14 94 243 C115.12 243 136.24 243 158 243 C158 234.42 158 225.84 158 217 C147.11 217 136.22 217 125 217 C125 185.98 125 154.96 125 123 C126.65 123 128.3 123 130 123 C130 129.93 130 136.86 130 144 C138.91 144 147.82 144 157 144 C157.33 124.86 157.66 105.72 158 86 C134.57 86 111.14 86 87 86 C87 65.54 87 45.08 87 24 C66.21 24 45.42 24 24 24 Z " fill="#4A4A4A" transform="translate(94,24)"/>
<path d="M0 0 C26.04398686 -0.08021762 26.04398686 -0.08021762 37.12890625 -0.09765625 C44.6984334 -0.10962084 52.26791225 -0.12378879 59.83740234 -0.15087891 C65.93873372 -0.17257852 72.04001333 -0.18456258 78.14138031 -0.18975449 C80.47143113 -0.19345541 82.80147905 -0.20068221 85.13150787 -0.21146011 C88.39014351 -0.2259366 91.64856404 -0.22797954 94.90722656 -0.22705078 C95.874673 -0.23424133 96.84211945 -0.24143188 97.83888245 -0.24884033 C99.1723597 -0.24471634 99.1723597 -0.24471634 100.53277588 -0.24050903 C101.30339481 -0.24235262 102.07401375 -0.24419621 102.86798477 -0.24609566 C105 -0 105 -0 109 2 C109 18.5 109 35 109 52 C108.01 51.67 107.02 51.34 106 51 C106.33 50.67 106.66 50.34 107 50 C107 35.15 107 20.3 107 5 C73.34 5 39.68 5 5 5 C5 19.85 5 34.7 5 50 C9.29 50 13.58 50 18 50 C18 40.1 18 30.2 18 20 C41.76 20 65.52 20 90 20 C90 20.66 90 21.32 90 22 C67.56 22 45.12 22 22 22 C22 43.12 22 64.24 22 86 C-12.65 86.495 -12.65 86.495 -48 87 C-48 106.14 -48 125.28 -48 145 C-47.34 145 -46.68 145 -46 145 C-46 145.66 -46 146.32 -46 147 C-37.09 147 -28.18 147 -19 147 C-19 146.34 -19 145.68 -19 145 C-18.34 145 -17.68 145 -17 145 C-17 138.4 -17 131.8 -17 125 C-16.34 125 -15.68 125 -15 125 C-15 154.7 -15 184.4 -15 215 C-16.32 215 -17.64 215 -19 215 C-18.67 214.01 -18.34 213.02 -18 212 C-17.88308759 210.02220816 -17.82327004 208.04085245 -17.79467773 206.05981445 C-17.77473251 204.83877518 -17.75478729 203.6177359 -17.73423767 202.35969543 C-17.71752518 201.04087875 -17.70081268 199.72206207 -17.68359375 198.36328125 C-17.6630174 196.99992756 -17.64202075 195.63658015 -17.62062073 194.27323914 C-17.5654703 190.68778578 -17.51603013 187.10227552 -17.46777344 183.51672363 C-17.41750701 179.85680089 -17.3618999 176.19695958 -17.30664062 172.53710938 C-17.19864016 165.35813538 -17.09956283 158.17911586 -17 151 C-27.89 151 -38.78 151 -50 151 C-50 150.34 -50 149.68 -50 149 C-50.66 149 -51.32 149 -52 149 C-52 126.56 -52 104.12 -52 81 C-51.34 81 -50.68 81 -50 81 C-50 80.34 -50 79.68 -50 79 C-27.89 79 -5.78 79 17 79 C17 71.08 17 63.16 17 55 C11.39 55 5.78 55 0 55 C0 36.85 0 18.7 0 0 Z " fill="#4F4F4F" transform="translate(94,24)"/>
<path d="M0 0 C33 0 66 0 100 0 C100 14.19 100 28.38 100 43 C96.37 43 92.74 43 89 43 C89 33.76 89 24.52 89 15 C88.34 15 87.68 15 87 15 C87 14.34 87 13.68 87 13 C63.24 13 39.48 13 15 13 C15 13.66 15 14.32 15 15 C14.34 15 13.68 15 13 15 C13 24.9 13 34.8 13 45 C8.71 45 4.42 45 0 45 C0 30.15 0 15.3 0 0 Z " fill="#FBFBFB" transform="translate(99,29)"/>
<path d="M0 0 C2.31 0 4.62 0 7 0 C7 18.15 7 36.3 7 55 C6.34 55 5.68 55 5 55 C5 55.66 5 56.32 5 57 C0.05 57 -4.9 57 -10 57 C-10 64.26 -10 71.52 -10 79 C12.11 79 34.22 79 57 79 C57 79.66 57 80.32 57 81 C34.56 81 12.12 81 -11 81 C-11 80.34 -11 79.68 -11 79 C-12.32 79 -13.64 79 -15 79 C-15 80.98 -15 82.96 -15 85 C8.1 85 31.2 85 55 85 C55 104.8 55 124.6 55 145 C54.34 145 53.68 145 53 145 C53 145.66 53 146.32 53 147 C43.43 147 33.86 147 24 147 C24 139.08 24 131.16 24 123 C24.33 123 24.66 123 25 123 C25 129.93 25 136.86 25 144 C33.91 144 42.82 144 52 144 C51.98839844 139.98070312 51.97679687 135.96140625 51.96484375 131.8203125 C51.95841492 128.61990897 51.95299136 125.41950726 51.94824982 122.21910095 C51.94296438 118.83827422 51.9358987 115.45747247 51.92456055 112.07666016 C51.91247564 108.19953741 51.90676737 104.3224506 51.90234375 100.4453125 C51.89718246 99.23070343 51.89202118 98.01609436 51.88670349 96.76467896 C51.88662796 95.64366791 51.88655243 94.52265686 51.88647461 93.36767578 C51.884254 92.37728302 51.88203339 91.38689026 51.87974548 90.3664856 C52 88 52 88 53 86 C29.57 86 6.14 86 -18 86 C-18 65.54 -18 45.08 -18 24 C-38.79 24 -59.58 24 -81 24 C-81 43.47 -81 62.94 -81 83 C-81.66 83 -82.32 83 -83 83 C-83 62.87 -83 42.74 -83 22 C-60.56 22 -38.12 22 -15 22 C-15 21.34 -15 20.68 -15 20 C-38.1 20 -61.2 20 -85 20 C-85 19.34 -85 18.68 -85 18 C-61.24 18 -37.48 18 -13 18 C-13 18.66 -13 19.32 -13 20 C-12.34 20 -11.68 20 -11 20 C-11 29.24 -11 38.48 -11 48 C-7.37 48 -3.74 48 0 48 C0 33.81 0 19.62 0 5 C0.66 5 1.32 5 2 5 C3.15007105 7.30014211 3.12670485 8.60115768 3.12939453 11.15844727 C3.13254669 12.01596085 3.13569885 12.87347443 3.13894653 13.75697327 C3.13591019 15.14764259 3.13591019 15.14764259 3.1328125 16.56640625 C3.13376923 17.51563461 3.13472595 18.46486298 3.13571167 19.44285583 C3.1363928 21.451081 3.13454319 23.45930835 3.13037109 25.4675293 C3.12501601 28.55327255 3.1303214 31.63887063 3.13671875 34.72460938 C3.13605807 36.67187532 3.13477713 38.61914118 3.1328125 40.56640625 C3.13483673 41.49554337 3.13686096 42.42468048 3.13894653 43.38197327 C3.13421829 44.6635154 3.13421829 44.6635154 3.12939453 45.97094727 C3.12859894 46.72658463 3.12780334 47.48222198 3.12698364 48.26075745 C3 50 3 50 2 51 C2.66 51.33 3.32 51.66 4 52 C3.93318031 44.91550729 3.8434464 37.83157433 3.73754883 30.74755859 C3.70423335 28.3361679 3.67622232 25.92469798 3.65356445 23.51318359 C3.62014028 20.05271542 3.56783047 16.59297773 3.51171875 13.1328125 C3.50532883 12.04944611 3.4989389 10.96607971 3.49235535 9.84988403 C3.47256119 8.8489975 3.45276703 7.84811096 3.43237305 6.81689453 C3.42126999 5.93309113 3.41016693 5.04928772 3.39872742 4.13870239 C3.26714737 3.4329306 3.13556732 2.72715881 3 2 C2.01 1.34 1.02 0.68 0 0 Z " fill="#6A6A6A" transform="translate(199,24)"/>
<path d="M0 0 C0.99 0.33 1.98 0.66 3 1 C3 18.82 3 36.64 3 55 C3.66 55 4.32 55 5 55 C5 55.66 5 56.32 5 57 C12.59 57 20.18 57 28 57 C28 50.07 28 43.14 28 36 C30.31 36 32.62 36 35 36 C35 67.02 35 98.04 35 130 C34.34 130 33.68 130 33 130 C33 130.66 33 131.32 33 132 C22.77 132 12.54 132 2 132 C2 139.92 2 147.84 2 156 C1.34 156 0.68 156 0 156 C0 147.42 0 138.84 0 130 C0.66 130 1.32 130 2 130 C2 129.34 2 128.68 2 128 C0.68 128 -0.64 128 -2 128 C-2 138.89 -2 149.78 -2 161 C-2.66 161 -3.32 161 -4 161 C-4 149.45 -4 137.9 -4 126 C6.56 125.67 17.12 125.34 28 125 C28.33 104.87 28.66 84.74 29 64 C29.66 64 30.32 64 31 64 C31.04632389 71.90158503 31.0818694 79.80311339 31.10362434 87.70480061 C31.1140652 91.37380581 31.1282298 95.04271816 31.15087891 98.71166992 C31.17259669 102.25187786 31.18456636 105.79199644 31.18975449 109.33226585 C31.19525273 111.34143905 31.21086735 113.35057626 31.22659302 115.35969543 C31.22681961 117.19125435 31.22681961 117.19125435 31.22705078 119.05981445 C31.231492 120.13681107 31.23593323 121.21380768 31.24050903 122.32344055 C31 125 31 125 29 128 C30.32 128 31.64 128 33 128 C33 98.3 33 68.6 33 38 C32.34 38 31.68 38 31 38 C31 44.6 31 51.2 31 58 C30.34 58 29.68 58 29 58 C29 58.66 29 59.32 29 60 C20.09 60 11.18 60 2 60 C2 59.34 2 58.68 2 58 C1.34 58 0.68 58 0 58 C0 38.86 0 19.72 0 0 Z " fill="#5F5F5F" transform="translate(46,111)"/>
<path d="M0 0 C1.32 0 2.64 0 4 0 C4 0.66 4 1.32 4 2 C26.44 2 48.88 2 72 2 C72 24.44 72 46.88 72 70 C61.11 70 50.22 70 39 70 C39.33 91.78 39.66 113.56 40 136 C38.35 136 36.7 136 35 136 C35 105.64 35 75.28 35 44 C36.32 44 37.64 44 39 44 C39 51.92 39 59.84 39 68 C48.57 68 58.14 68 68 68 C68 67.34 68 66.68 68 66 C68.66 66 69.32 66 70 66 C70 46.2 70 26.4 70 6 C46.9 6 23.8 6 0 6 C0 4.02 0 2.04 0 0 Z " fill="#343434" transform="translate(184,103)"/>
<path d="M0 0 C5.61 0 11.22 0 17 0 C17 2.31 17 4.62 17 7 C17.99 7 18.98 7 20 7 C20 10.63 20 14.26 20 18 C20.66 18 21.32 18 22 18 C22 18.66 22 19.32 22 20 C23.98 20 25.96 20 28 20 C28 19.34 28 18.68 28 18 C28.66 18 29.32 18 30 18 C29.95875 16.700625 29.9175 15.40125 29.875 14.0625 C29.85931317 9.12114934 30.78612467 4.77963412 32 0 C37.28 0 42.56 0 48 0 C48 1.32 48 2.64 48 4 C44.37 4.33 40.74 4.66 37 5 C37 6.98 37 8.96 37 11 C39.31 11 41.62 11 44 11 C44 10.34 44 9.68 44 9 C45.32 9 46.64 9 48 9 C48 12.63 48 16.26 48 20 C42.39 20 36.78 20 31 20 C31 22.97 31 25.94 31 29 C27.04 29 23.08 29 19 29 C19 28.34 19 27.68 19 27 C18.34 27 17.68 27 17 27 C17 24.69 17 22.38 17 20 C11.39 20 5.78 20 0 20 C0 13.4 0 6.8 0 0 Z " fill="#A8A8A8" transform="translate(125,59)"/>
<path d="M0 0 C26.04398686 -0.08021762 26.04398686 -0.08021762 37.12890625 -0.09765625 C44.6984334 -0.10962084 52.26791225 -0.12378879 59.83740234 -0.15087891 C65.93873372 -0.17257852 72.04001333 -0.18456258 78.14138031 -0.18975449 C80.47143113 -0.19345541 82.80147905 -0.20068221 85.13150787 -0.21146011 C88.39014351 -0.2259366 91.64856404 -0.22797954 94.90722656 -0.22705078 C95.874673 -0.23424133 96.84211945 -0.24143188 97.83888245 -0.24884033 C99.1723597 -0.24471634 99.1723597 -0.24471634 100.53277588 -0.24050903 C101.30339481 -0.24235262 102.07401375 -0.24419621 102.86798477 -0.24609566 C105 0 105 0 109 2 C109 18.5 109 35 109 52 C107.515 51.505 107.515 51.505 106 51 C106.33 50.67 106.66 50.34 107 50 C107 35.15 107 20.3 107 5 C73.01 4.67 39.02 4.34 4 4 C4 19.84 4 35.68 4 52 C2.68 52 1.36 52 0 52 C0 34.84 0 17.68 0 0 Z " fill="#363636" transform="translate(94,24)"/>
<path d="M0 0 C21.78 0 43.56 0 66 0 C66 20.13 66 40.26 66 61 C66.66 61 67.32 61 68 61 C68 61.66 68 62.32 68 63 C91.1 63 114.2 63 138 63 C138 82.8 138 102.6 138 123 C137.34 123 136.68 123 136 123 C136 123.66 136 124.32 136 125 C126.43 125 116.86 125 107 125 C107 117.08 107 109.16 107 101 C107.33 101 107.66 101 108 101 C108 107.93 108 114.86 108 122 C116.91 122 125.82 122 135 122 C134.98839844 117.98070312 134.97679687 113.96140625 134.96484375 109.8203125 C134.95841492 106.61990897 134.95299136 103.41950726 134.94824982 100.21910095 C134.94296438 96.83827422 134.9358987 93.45747247 134.92456055 90.07666016 C134.91247564 86.19953741 134.90676737 82.3224506 134.90234375 78.4453125 C134.89718246 77.23070343 134.89202118 76.01609436 134.88670349 74.76467896 C134.88662796 73.64366791 134.88655243 72.52265686 134.88647461 71.36767578 C134.884254 70.37728302 134.88203339 69.38689026 134.87974548 68.3664856 C135 66 135 66 136 64 C112.57 64 89.14 64 65 64 C65 43.54 65 23.08 65 2 C44.21 2 23.42 2 2 2 C2 21.47 2 40.94 2 61 C1.34 61 0.68 61 0 61 C0 40.87 0 20.74 0 0 Z " fill="#979797" transform="translate(116,46)"/>
<path d="M0 0 C2.97 0 5.94 0 9 0 C9 0.66 9 1.32 9 2 C11.31 2 13.62 2 16 2 C16 2.66 16 3.32 16 4 C16.66 4 17.32 4 18 4 C18 6.97 18 9.94 18 13 C18.66 13 19.32 13 20 13 C20 15.97 20 18.94 20 22 C22.31 22 24.62 22 27 22 C27.125 28.75 27.125 28.75 26 31 C24.02 31 22.04 31 20 31 C20 32.32 20 33.64 20 35 C17.69 35 15.38 35 13 35 C12.75 29.375 12.75 29.375 15 26 C13.02 26 11.04 26 9 26 C9 25.34 9 24.68 9 24 C7.68 24 6.36 24 5 24 C5 23.34 5 22.68 5 22 C4.01 22 3.02 22 2 22 C2 21.34 2 20.68 2 20 C1.34 20 0.68 20 0 20 C0 19.34 0 18.68 0 18 C-1.32 18 -2.64 18 -4 18 C-4 15.69 -4 13.38 -4 11 C-3.34 11 -2.68 11 -2 11 C-2 10.34 -2 9.68 -2 9 C-1.34 9 -0.68 9 0 9 C0 6.03 0 3.06 0 0 Z " fill="#A5A5A5" transform="translate(142,151)"/>
<path d="M0 0 C0.66 0 1.32 0 2 0 C2 23.1 2 46.2 2 70 C-9.22 70 -20.44 70 -32 70 C-32 90.13 -32 110.26 -32 131 C-21.5587345 130.92085685 -21.5587345 130.92085685 -11.11767578 130.81982422 C-9.17610596 130.81233154 -9.17610596 130.81233154 -7.1953125 130.8046875 C-6.51460693 130.79445557 -5.83390137 130.78422363 -5.13256836 130.77368164 C-3.42004993 130.77304431 -1.70812764 130.87744494 0 131 C2 133 2 133 2.22705078 136.34814453 C2.22673375 137.77640633 2.21541361 139.20469212 2.1953125 140.6328125 C2.1924826 141.38464813 2.18965271 142.13648376 2.18673706 142.91110229 C2.17552874 145.31589578 2.15042352 147.72031881 2.125 150.125 C2.11497102 151.75390088 2.10584503 153.38280758 2.09765625 155.01171875 C2.07558735 159.00795556 2.04105351 163.00391494 2 167 C1.34 167 0.68 167 0 167 C0 156.77 0 146.54 0 136 C-0.66 136 -1.32 136 -2 136 C-2 144.58 -2 153.16 -2 162 C-2.66 162 -3.32 162 -4 162 C-4 153.42 -4 144.84 -4 136 C-14.89 136 -25.78 136 -37 136 C-37 135.34 -37 134.68 -37 134 C-35.35 134 -33.7 134 -32 134 C-32.33 133.34 -32.66 132.68 -33 132 C-33.09152672 129.96769104 -33.11751434 127.93231422 -33.11352539 125.89794922 C-33.11344986 124.61677216 -33.11337433 123.33559509 -33.11329651 122.01559448 C-33.10818948 120.61195843 -33.10297348 119.20832277 -33.09765625 117.8046875 C-33.09579146 116.37265065 -33.09436784 114.94061316 -33.09336853 113.50857544 C-33.08954819 109.73726646 -33.07972202 105.96599593 -33.06866455 102.19470215 C-33.05664277 97.67094212 -33.05204589 93.14716925 -33.04621124 88.62339783 C-33.03651001 81.74890514 -33.0173501 74.87449682 -33 68 C-22.11 68 -11.22 68 0 68 C0 45.56 0 23.12 0 0 Z " fill="#919191" transform="translate(256,105)"/>
<path d="M0 0 C1.32 0 2.64 0 4 0 C4 0.66 4 1.32 4 2 C3.34 2 2.68 2 2 2 C2 10.58 2 19.16 2 28 C2.66 28 3.32 28 4 28 C4 28.66 4 29.32 4 30 C24.79 30 45.58 30 67 30 C67 29.34 67 28.68 67 28 C67.99 28 68.98 28 70 28 C70 18.76 70 9.52 70 0 C70.66 0 71.32 0 72 0 C72 11.55 72 23.1 72 35 C48.24 35 24.48 35 0 35 C0 23.45 0 11.9 0 0 Z " fill="#595959" transform="translate(44,239)"/>
<path d="M0 0 C23.76 0 47.52 0 72 0 C72 0.66 72 1.32 72 2 C49.56 2 27.12 2 4 2 C4 22.13 4 42.26 4 63 C-16.13 63 -36.26 63 -57 63 C-57 62.67 -57 62.34 -57 62 C-38.52 61.67 -20.04 61.34 -1 61 C-0.67 40.87 -0.34 20.74 0 0 Z " fill="#363636" transform="translate(112,44)"/>
<path d="M0 0 C33.33 0 66.66 0 101 0 C101 0.33 101 0.66 101 1 C68 1 35 1 1 1 C1 15.85 1 30.7 1 46 C5.29 46 9.58 46 14 46 C14 56.23 14 66.46 14 77 C-8.44 77 -30.88 77 -54 77 C-54 76.34 -54 75.68 -54 75 C-31.89 75 -9.78 75 13 75 C13 67.08 13 59.16 13 51 C7.39 51 1.78 51 -4 51 C-4 50.01 -4 49.02 -4 48 C-2.68 48 -1.36 48 0 48 C0 32.16 0 16.32 0 0 Z " fill="#959595" transform="translate(98,28)"/>
<path d="M0 0 C5.28 0 10.56 0 16 0 C16 1.32 16 2.64 16 4 C12.37 4.33 8.74 4.66 5 5 C5 6.98 5 8.96 5 11 C7.31 11 9.62 11 12 11 C12 10.34 12 9.68 12 9 C13.32 9 14.64 9 16 9 C16 12.63 16 16.26 16 20 C10.39 20 4.78 20 -1 20 C-1 21.98 -1 23.96 -1 26 C-4.96 26 -8.92 26 -13 26 C-13 24.02 -13 22.04 -13 20 C-10.03 20 -7.06 20 -4 20 C-4 19.34 -4 18.68 -4 18 C-3.34 18 -2.68 18 -2 18 C-2.061875 16.0509375 -2.061875 16.0509375 -2.125 14.0625 C-2.14068683 9.12114934 -1.21387533 4.77963412 0 0 Z " fill="#8B8B8B" transform="translate(157,59)"/>
<path d="M0 0 C33 0 66 0 100 0 C100 0.66 100 1.32 100 2 C67.66 2 35.32 2 2 2 C2 15.53 2 29.06 2 43 C5.3 43 8.6 43 12 43 C12 33.76 12 24.52 12 15 C12.33 15 12.66 15 13 15 C13 24.9 13 34.8 13 45 C8.71 45 4.42 45 0 45 C0 30.15 0 15.3 0 0 Z " fill="#CDCDCD" transform="translate(99,29)"/>
<path d="M0 0 C34.65 0 69.3 0 105 0 C105 0.33 105 0.66 105 1 C55.5 1.495 55.5 1.495 5 2 C4.67 18.5 4.34 35 4 52 C2.68 52 1.36 52 0 52 C0 34.84 0 17.68 0 0 Z " fill="#3F3F3F" transform="translate(94,24)"/>
<path d="M0 0 C24.75 0 49.5 0 75 0 C75 0.66 75 1.32 75 2 C75.66 2 76.32 2 77 2 C77 11.57 77 21.14 77 31 C98.12 31 119.24 31 141 31 C141 31.66 141 32.32 141 33 C119.22 33 97.44 33 75 33 C75 23.1 75 13.2 75 3 C74.34 3 73.68 3 73 3 C73 2.34 73 1.68 73 1 C49.24 1 25.48 1 1 1 C1 10.9 1 20.8 1 31 C0.67 31 0.34 31 0 31 C0 20.77 0 10.54 0 0 Z " fill="#A1A1A1" transform="translate(111,236)"/>
<path d="M0 0 C1.32 0 2.64 0 4 0 C4 0.66 4 1.32 4 2 C26.44 2 48.88 2 72 2 C72 2.99 72 3.98 72 5 C69.10085089 6.44957456 66.585717 6.11932924 63.34716797 6.11352539 C62.32260498 6.11374443 62.32260498 6.11374443 61.27734375 6.1139679 C59.0155929 6.11327023 56.753924 6.10548465 54.4921875 6.09765625 C52.92562912 6.09579155 51.35907016 6.09436789 49.79251099 6.09336853 C45.66610102 6.08954743 41.53972616 6.0797206 37.41333008 6.06866455 C33.20394363 6.0584417 28.99455153 6.05386903 24.78515625 6.04882812 C16.52342138 6.03809798 8.26171505 6.02102642 0 6 C0 4.02 0 2.04 0 0 Z " fill="#4D4D4D" transform="translate(184,103)"/>
<path d="M0 0 C0.66 0 1.32 0 2 0 C2 10.23 2 20.46 2 31 C-21.76 31 -45.52 31 -70 31 C-70 29.35 -70 27.7 -70 26 C-69.34 26 -68.68 26 -68 26 C-68 26.66 -68 27.32 -68 28 C-46.22 28 -24.44 28 -2 28 C-2 27.34 -2 26.68 -2 26 C-1.34 26 -0.68 26 0 26 C0 17.42 0 8.84 0 0 Z " fill="#343434" transform="translate(254,241)"/>
<path d="M0 0 C0.99 0.33 1.98 0.66 3 1 C3 18.82 3 36.64 3 55 C3.66 55 4.32 55 5 55 C5 55.66 5 56.32 5 57 C12.59 57 20.18 57 28 57 C28 50.07 28 43.14 28 36 C28.33 36 28.66 36 29 36 C29 43.92 29 51.84 29 60 C20.09 60 11.18 60 2 60 C2 59.34 2 58.68 2 58 C1.34 58 0.68 58 0 58 C0 38.86 0 19.72 0 0 Z " fill="#B0B0B0" transform="translate(46,111)"/>
<path d="M0 0 C2.97 0 5.94 0 9 0 C9 1.32 9 2.64 9 4 C11.97 4.495 11.97 4.495 15 5 C15 7.64 15 10.28 15 13 C14.34 13 13.68 13 13 13 C13 11.68 13 10.36 13 9 C12.34 9 11.68 9 11 9 C11 8.34 11 7.68 11 7 C9.68 7 8.36 7 7 7 C7 7.66 7 8.32 7 9 C6.34 9 5.68 9 5 9 C5 9.66 5 10.32 5 11 C4.34 11 3.68 11 3 11 C3 12.32 3 13.64 3 15 C4.98 15.66 6.96 16.32 9 17 C9 17.99 9 18.98 9 20 C11.31 20 13.62 20 16 20 C16 18.02 16 16.04 16 14 C16.66 14.33 17.32 14.66 18 15 C18 17.31 18 19.62 18 22 C17.34 22 16.68 22 16 22 C16 22.66 16 23.32 16 24 C12.37 24 8.74 24 5 24 C5 23.34 5 22.68 5 22 C4.01 22 3.02 22 2 22 C2 21.34 2 20.68 2 20 C1.34 20 0.68 20 0 20 C0 19.34 0 18.68 0 18 C-1.32 18 -2.64 18 -4 18 C-4 15.69 -4 13.38 -4 11 C-3.34 11 -2.68 11 -2 11 C-2 10.34 -2 9.68 -2 9 C-1.34 9 -0.68 9 0 9 C0 6.03 0 3.06 0 0 Z " fill="#6C6C6C" transform="translate(142,151)"/>
<path d="M0 0 C4.68139254 -0.02465288 9.36274759 -0.04283739 14.04418945 -0.05493164 C15.63794614 -0.05997157 17.23169819 -0.0668035 18.82543945 -0.07543945 C21.11150253 -0.08751999 23.39750467 -0.09323155 25.68359375 -0.09765625 C26.7586039 -0.10539818 26.7586039 -0.10539818 27.85533142 -0.11329651 C29.57063672 -0.11349263 31.28581266 -0.06192007 33 0 C34 1 34 1 34.11352539 4.23461914 C34.11336631 5.66814126 34.10767407 7.10166912 34.09765625 8.53515625 C34.0962413 9.28840683 34.09482635 10.04165741 34.09336853 10.81773376 C34.08775376 13.2326956 34.07519883 15.64756601 34.0625 18.0625 C34.0574869 19.69596221 34.05292366 21.32942586 34.04882812 22.96289062 C34.03777954 26.97529585 34.02050506 30.98763241 34 35 C33.34 35 32.68 35 32 35 C32 24.77 32 14.54 32 4 C31.34 4 30.68 4 30 4 C30 12.58 30 21.16 30 30 C29.34 30 28.68 30 28 30 C28 21.42 28 12.84 28 4 C17.11 4 6.22 4 -5 4 C-5 3.34 -5 2.68 -5 2 C-3.35 2 -1.7 2 0 2 C0 1.34 0 0.68 0 0 Z " fill="#616161" transform="translate(224,237)"/>
<path d="M0 0 C0.66 0 1.32 0 2 0 C2 29.7 2 59.4 2 90 C0.68 90 -0.64 90 -2 90 C-1.505 88.515 -1.505 88.515 -1 87 C-0.88308759 85.02220816 -0.82327004 83.04085245 -0.79467773 81.05981445 C-0.77473251 79.83877518 -0.75478729 78.6177359 -0.73423767 77.35969543 C-0.71752518 76.04087875 -0.70081268 74.72206207 -0.68359375 73.36328125 C-0.6630174 71.99992756 -0.64202075 70.63658015 -0.62062073 69.27323914 C-0.5654703 65.68778578 -0.51603013 62.10227552 -0.46777344 58.51672363 C-0.41750701 54.8568008 -0.36184781 51.19696043 -0.30664062 47.53710938 C-0.19914506 40.35814279 -0.0976811 33.17910755 0 26 C-0.99 26 -1.98 26 -3 26 C-3 25.34 -3 24.68 -3 24 C-12.24 24 -21.48 24 -31 24 C-31 23.34 -31 22.68 -31 22 C-21.43 22 -11.86 22 -2 22 C-2 21.34 -2 20.68 -2 20 C-1.34 20 -0.68 20 0 20 C0 13.4 0 6.8 0 0 Z " fill="#363636" transform="translate(77,149)"/>
<path d="M0 0 C20.79 0 41.58 0 63 0 C63 19.8 63 39.6 63 60 C62.34 60 61.68 60 61 60 C61 40.53 61 21.06 61 1 C46.6759375 1.2165625 46.6759375 1.2165625 32.0625 1.4375 C29.04359619 1.48060303 26.02469238 1.52370605 22.91430664 1.56811523 C20.5379169 1.60621888 18.16153296 1.64468635 15.78515625 1.68359375 C13.91434387 1.7083075 13.91434387 1.7083075 12.0057373 1.73352051 C10.23958069 1.76379333 10.23958069 1.76379333 8.43774414 1.79467773 C7.40960098 1.81022202 6.38145782 1.8257663 5.32215881 1.84178162 C3.03914647 1.74171871 3.03914647 1.74171871 2 3 C1.87669912 4.8096774 1.82209817 6.62407837 1.79467773 8.43774414 C1.77473251 9.59887222 1.75478729 10.76000031 1.73423767 11.95631409 C1.71752518 13.219832 1.70081268 14.48334991 1.68359375 15.78515625 C1.66281265 17.07111191 1.64203156 18.35706757 1.62062073 19.68199158 C1.56533824 23.10635904 1.51595639 26.5307875 1.46777344 29.95526123 C1.41760335 33.44744314 1.3618939 36.9395361 1.30664062 40.43164062 C1.1989836 47.28768333 1.09755551 54.14380633 1 61 C0.01 61 -0.98 61 -2 61 C-2 60.34 -2 59.68 -2 59 C-1.34 59 -0.68 59 0 59 C0 39.53 0 20.06 0 0 Z " fill="#E5E5E5" transform="translate(118,48)"/>
<path d="M0 0 C5.94 0 11.88 0 18 0 C18 0.66 18 1.32 18 2 C13.05 2 8.1 2 3 2 C3 9.26 3 16.52 3 24 C25.11 24 47.22 24 70 24 C70 24.66 70 25.32 70 26 C47.56 26 25.12 26 2 26 C2 25.34 2 24.68 2 24 C1.34 24 0.68 24 0 24 C0 16.08 0 8.16 0 0 Z " fill="#A2A2A2" transform="translate(186,79)"/>
<path d="M0 0 C1.98 0 3.96 0 6 0 C6 31.02 6 62.04 6 94 C5.34 94 4.68 94 4 94 C4 63.64 4 33.28 4 2 C3.34 2 2.68 2 2 2 C2 8.6 2 15.2 2 22 C1.34 22 0.68 22 0 22 C0 14.74 0 7.48 0 0 Z " fill="#838383" transform="translate(75,147)"/>
<path d="M0 0 C21.78 0 43.56 0 66 0 C66 9.9 66 19.8 66 30 C65.67 30 65.34 30 65 30 C65 20.76 65 11.52 65 2 C44.21 2 23.42 2 2 2 C2 11.24 2 20.48 2 30 C1.34 30 0.68 30 0 30 C0 20.1 0 10.2 0 0 Z " fill="#B5B5B5" transform="translate(116,241)"/>
<path d="M0 0 C8.79697608 -0.06951618 17.59385758 -0.12281935 26.39104843 -0.15543652 C30.47596693 -0.17109129 34.56069748 -0.19232591 38.64550781 -0.22631836 C42.58772885 -0.25891886 46.52976913 -0.27685443 50.47211456 -0.28463173 C51.97602433 -0.29017403 53.47992422 -0.30099685 54.98375702 -0.31719017 C57.09062566 -0.33897434 59.19674776 -0.34196662 61.30371094 -0.34057617 C62.50284119 -0.34723801 63.70197144 -0.35389984 64.93743896 -0.36076355 C68 0 68 0 72 3 C48.24 3 24.48 3 0 3 C0 3.66 0 4.32 0 5 C-0.66 5 -1.32 5 -2 5 C-2 4.01 -2 3.02 -2 2 C-1.34 2 -0.68 2 0 2 C0 1.34 0 0.68 0 0 Z " fill="#E5E5E5" transform="translate(114,39)"/>
<path d="M0 0 C0 0.99 0 1.98 0 3 C-1.32 3 -2.64 3 -4 3 C-4 34.02 -4 65.04 -4 97 C-4.66 97 -5.32 97 -6 97 C-6 65.32 -6 33.64 -6 1 C-4 0 -4 0 0 0 Z " fill="#B6B6B6" transform="translate(223,144)"/>
<path d="M0 0 C0.99 0 1.98 0 3 0 C3 22.44 3 44.88 3 68 C2.01 68 1.02 68 0 68 C0 45.56 0 23.12 0 0 Z " fill="#D8D8D8" transform="translate(39,105)"/>
<path d="M0 0 C22.44 0 44.88 0 68 0 C68 0.99 68 1.98 68 3 C45.56 3 23.12 3 0 3 C0 2.01 0 1.02 0 0 Z " fill="#7A7A7A" transform="translate(48,107)"/>
<path d="M0 0 C0.66 0 1.32 0 2 0 C2 21.45 2 42.9 2 65 C-8.89 65 -19.78 65 -31 65 C-31 64.34 -31 63.68 -31 63 C-21.43 63 -11.86 63 -2 63 C-2 62.34 -2 61.68 -2 61 C-1.34 61 -0.68 61 0 61 C0 40.87 0 20.74 0 0 Z " fill="#181818" transform="translate(254,108)"/>
<path d="M0 0 C0.66 0 1.32 0 2 0 C2 0.66 2 1.32 2 2 C2.66 2 3.32 2 4 2 C4 2.66 4 3.32 4 4 C6.31 4 8.62 4 11 4 C11 3.34 11 2.68 11 2 C12.65 2 14.3 2 16 2 C17.49297212 4.98594424 17.11755228 7.70853624 17 11 C16.67 11.66 16.34 12.32 16 13 C10.06 13 4.12 13 -2 13 C-2 9.37 -2 5.74 -2 2 C-1.34 2 -0.68 2 0 2 C0 1.34 0 0.68 0 0 Z " fill="#838383" transform="translate(127,66)"/>
<path d="M0 0 C0.33 0 0.66 0 1 0 C1.02312764 7.93613787 1.04091723 15.87226176 1.05181217 23.80842495 C1.05704008 27.49314498 1.06413605 31.17784203 1.07543945 34.86254883 C1.08627162 38.41570831 1.09227753 41.96884563 1.09487724 45.52202034 C1.0967309 46.88045666 1.10035038 48.23889171 1.10573006 49.59731865 C1.11294475 51.49382223 1.11340809 53.39034793 1.11352539 55.28686523 C1.115746 56.36830307 1.11796661 57.44974091 1.12025452 58.56394958 C1 61 1 61 0 62 C-2.37541051 62.08838648 -4.7223358 62.11537523 -7.09765625 62.09765625 C-8.39453369 62.09515869 -9.69141113 62.09266113 -11.02758789 62.09008789 C-12.68910889 62.08098389 -14.35062988 62.07187988 -16.0625 62.0625 C-21.321875 62.041875 -26.58125 62.02125 -32 62 C-32 73.22 -32 84.44 -32 96 C-32.33 96 -32.66 96 -33 96 C-33.0493651 91.05209823 -33.08570269 86.10433917 -33.10986328 81.15625 C-33.11993317 79.47230534 -33.13358988 77.78837821 -33.15087891 76.10449219 C-33.17508426 73.68680499 -33.18647296 71.26934857 -33.1953125 68.8515625 C-33.20563507 68.0963028 -33.21595764 67.34104309 -33.22659302 66.56289673 C-33.22699318 64.7070602 -33.12222716 62.8518072 -33 61 C-31 59 -31 59 -27.92724609 58.77294922 C-26.63898926 58.78342285 -25.35073242 58.79389648 -24.0234375 58.8046875 C-22.76966309 58.80968262 -21.51588867 58.81467773 -20.22412109 58.81982422 C-17.82380615 58.84713623 -17.82380615 58.84713623 -15.375 58.875 C-10.30125 58.91625 -5.2275 58.9575 0 59 C0 39.53 0 20.06 0 0 Z " fill="#C7C7C7" transform="translate(74,175)"/>
<path d="M0 0 C0.33 0 0.66 0 1 0 C1 19.47 1 38.94 1 59 C-8.57 59 -18.14 59 -28 59 C-28 51.08 -28 43.16 -28 35 C-27.67 35 -27.34 35 -27 35 C-27 41.93 -27 48.86 -27 56 C-18.09 56 -9.18 56 0 56 C0 37.52 0 19.04 0 0 Z " fill="#BBBBBB" transform="translate(251,112)"/>
<path d="M0 0 C20.79 0 41.58 0 63 0 C63.33 10.23 63.66 20.46 64 31 C63.34 31 62.68 31 62 31 C57.52538021 22.05076043 61 11.00555401 61 1 C41.2 1 21.4 1 1 1 C1 10.57 1 20.14 1 30 C0.01 30.33 -0.98 30.66 -2 31 C-2 30.01 -2 29.02 -2 28 C-1.34 28 -0.68 28 0 28 C0 18.76 0 9.52 0 0 Z " fill="#F2F2F2" transform="translate(118,243)"/>
<path d="M0 0 C36.63 0.495 36.63 0.495 74 1 C74 1.66 74 2.32 74 3 C49.58 3 25.16 3 0 3 C0 2.01 0 1.02 0 0 Z " fill="#868686" transform="translate(182,271)"/>
<path d="M0 0 C23.1 0 46.2 0 70 0 C70 0.66 70 1.32 70 2 C47.56 2 25.12 2 2 2 C2 3.32 2 4.64 2 6 C1.34 6 0.68 6 0 6 C0 4.02 0 2.04 0 0 Z " fill="#141414" transform="translate(114,44)"/>
<path d="M0 0 C11.88 0 23.76 0 36 0 C35.67 1.32 35.34 2.64 35 4 C23.45 4 11.9 4 0 4 C0 2.68 0 1.36 0 0 Z " fill="#525252" transform="translate(132,92)"/>
<path d="M0 0 C0.66 0 1.32 0 2 0 C2 10.56 2 21.12 2 32 C-21.1 32 -44.2 32 -68 32 C-68 31.67 -68 31.34 -68 31 C-46.22 31 -24.44 31 -2 31 C-2 30.01 -2 29.02 -2 28 C-1.34 28 -0.68 28 0 28 C0 18.76 0 9.52 0 0 Z " fill="#0F0F0F" transform="translate(114,239)"/>
<path d="M0 0 C0.66 0 1.32 0 2 0 C2 8.58 2 17.16 2 26 C0.35 26 -1.3 26 -3 26 C-3 25.34 -3 24.68 -3 24 C-12.24 24 -21.48 24 -31 24 C-31 23.34 -31 22.68 -31 22 C-21.43 22 -11.86 22 -2 22 C-2 21.34 -2 20.68 -2 20 C-1.34 20 -0.68 20 0 20 C0 13.4 0 6.8 0 0 Z " fill="#1E1E1E" transform="translate(77,149)"/>
<path d="M0 0 C0.66 0 1.32 0 2 0 C2 0.66 2 1.32 2 2 C4.97 2 7.94 2 11 2 C11 1.34 11 0.68 11 0 C12.32 0 13.64 0 15 0 C15 2.97 15 5.94 15 9 C10.05 9 5.1 9 0 9 C0 6.03 0 3.06 0 0 Z " fill="#2D2D2D" transform="translate(158,68)"/>
<path d="M0 0 C10.89 0 21.78 0 33 0 C33 0.66 33 1.32 33 2 C22.77 2 12.54 2 2 2 C2 9.92 2 17.84 2 26 C1.34 26 0.68 26 0 26 C0 17.42 0 8.84 0 0 Z " fill="#A4A4A4" transform="translate(46,241)"/>
<path d="M0 0 C1.98 0 3.96 0 6 0 C6 9.24 6 18.48 6 28 C5.34 28 4.68 28 4 28 C4 19.42 4 10.84 4 2 C3.34 2 2.68 2 2 2 C2 8.6 2 15.2 2 22 C1.34 22 0.68 22 0 22 C0 14.74 0 7.48 0 0 Z " fill="#787878" transform="translate(75,147)"/>
<path d="M0 0 C5.94 0 11.88 0 18 0 C18 0.66 18 1.32 18 2 C13.05 2 8.1 2 3 2 C3 9.26 3 16.52 3 24 C2.01 24 1.02 24 0 24 C0 16.08 0 8.16 0 0 Z " fill="#C1C1C1" transform="translate(186,79)"/>
<path d="M0 0 C1.32 0 2.64 0 4 0 C4 7.92 4 15.84 4 24 C3.34 24 2.68 24 2 24 C2 24.66 2 25.32 2 26 C1.34 26 0.68 26 0 26 C0 17.42 0 8.84 0 0 Z " fill="#171717" transform="translate(219,147)"/>
<path d="M0 0 C1.32 0 2.64 0 4 0 C4 2.97 4 5.94 4 9 C-0.95 9 -5.9 9 -11 9 C-11 6.69 -11 4.38 -11 2 C-10.34 2 -9.68 2 -9 2 C-9 2.66 -9 3.32 -9 4 C-6.03 4 -3.06 4 0 4 C0 2.68 0 1.36 0 0 Z " fill="#121212" transform="translate(138,68)"/>
<path d="M0 0 C4.95 0 9.9 0 15 0 C15 0.99 15 1.98 15 3 C15.66 3 16.32 3 17 3 C17 6.63 17 10.26 17 14 C16.34 14 15.68 14 15 14 C15 11.03 15 8.06 15 5 C13.68 5 12.36 5 11 5 C11 5.66 11 6.32 11 7 C8.69 7 6.38 7 4 7 C4 5.02 4 3.04 4 1 C2.68 0.67 1.36 0.34 0 0 Z " fill="#B4B4B4" transform="translate(158,63)"/>
<path d="M0 0 C0.66 0 1.32 0 2 0 C2 9.24 2 18.48 2 28 C5.63 28 9.26 28 13 28 C13 28.99 13 29.98 13 31 C11.20841511 31.02696365 9.41671527 31.04637917 7.625 31.0625 C6.62726563 31.07410156 5.62953125 31.08570312 4.6015625 31.09765625 C2 31 2 31 0 30 C0 20.1 0 10.2 0 0 Z " fill="#A2A2A2" transform="translate(186,44)"/>
<path d="M0 0 C12.54 0 25.08 0 38 0 C38 2.97 38 5.94 38 9 C25.46 9 12.92 9 0 9 C0 8.67 0 8.34 0 8 C17.325 7.505 17.325 7.505 35 7 C35.66 5.68 36.32 4.36 37 3 C36.34 3 35.68 3 35 3 C35 2.34 35 1.68 35 1 C23.45 1 11.9 1 0 1 C0 0.67 0 0.34 0 0 Z " fill="#C9C9C9" transform="translate(131,89)"/>
<path d="M0 0 C1.32 0 2.64 0 4 0 C4 0.66 4 1.32 4 2 C4.66 2 5.32 2 6 2 C6 5.3 6 8.6 6 12 C2.51329166 10.8905928 -0.77484237 9.73662334 -4 8 C-4 6.68 -4 5.36 -4 4 C-3.34 4 -2.68 4 -2 4 C-2 3.34 -2 2.68 -2 2 C-1.34 2 -0.68 2 0 2 C0 1.34 0 0.68 0 0 Z " fill="#C0C0C0" transform="translate(149,158)"/>
<path d="M0 0 C0.33 0.66 0.66 1.32 1 2 C5.29 2 9.58 2 14 2 C14 3.65 14 5.3 14 7 C8.06 7 2.12 7 -4 7 C-4 6.01 -4 5.02 -4 4 C-2.68 4 -1.36 4 0 4 C0 2.68 0 1.36 0 0 Z " fill="#606060" transform="translate(98,72)"/>
<path d="M0 0 C1.0528418 0.01353516 1.0528418 0.01353516 2.12695312 0.02734375 C3.85561525 0.05086296 5.58410145 0.08673287 7.3125 0.125 C7.3125 1.445 7.3125 2.765 7.3125 4.125 C2.0325 4.125 -3.2475 4.125 -8.6875 4.125 C-8.6875 6.435 -8.6875 8.745 -8.6875 11.125 C-9.3475 11.785 -10.0075 12.445 -10.6875 13.125 C-10.76836147 11.33406809 -10.82662702 9.54210372 -10.875 7.75 C-10.90980469 6.75226562 -10.94460937 5.75453125 -10.98046875 4.7265625 C-10.83544922 3.43878906 -10.83544922 3.43878906 -10.6875 2.125 C-7.00662647 -0.32891569 -4.24394412 -0.10302759 0 0 Z " fill="#C8C8C8" transform="translate(165.6875,54.875)"/>
<path d="M0 0 C0.66 0 1.32 0 2 0 C2 0.66 2 1.32 2 2 C35.66 2.495 35.66 2.495 70 3 C70 3.33 70 3.66 70 4 C46.9 4 23.8 4 0 4 C0 2.68 0 1.36 0 0 Z " fill="#121212" transform="translate(184,267)"/>
<path d="M0 0 C0.99 0 1.98 0 3 0 C3 3.63 3 7.26 3 11 C3.66 11 4.32 11 5 11 C5 11.66 5 12.32 5 13 C4.01 13 3.02 13 2 13 C2 14.98 2 16.96 2 19 C5.96 19 9.92 19 14 19 C14 19.99 14 20.98 14 22 C10.04 22 6.08 22 2 22 C2 21.34 2 20.68 2 20 C1.34 20 0.68 20 0 20 C-0.125 13.25 -0.125 13.25 1 11 C1.1421988 7.16063232 1.17754676 3.67983361 0 0 Z " fill="#BDBDBD" transform="translate(142,66)"/>
<path d="M0 0 C1.98 0 3.96 0 6 0 C6 0.66 6 1.32 6 2 C8.97 2.495 8.97 2.495 12 3 C12 5.64 12 8.28 12 11 C11.34 11 10.68 11 10 11 C10 9.68 10 8.36 10 7 C9.34 7 8.68 7 8 7 C8 6.34 8 5.68 8 5 C6.68 5 5.36 5 4 5 C4 5.66 4 6.32 4 7 C2.68 7 1.36 7 0 7 C0 4.69 0 2.38 0 0 Z " fill="#363636" transform="translate(145,153)"/>
<path d="M0 0 C0.66 0 1.32 0 2 0 C2 10.56 2 21.12 2 32 C1.34 32 0.68 32 0 32 C0 31.34 0 30.68 0 30 C-0.66 30 -1.32 30 -2 30 C-2 29.34 -2 28.68 -2 28 C-1.34 28 -0.68 28 0 28 C0 18.76 0 9.52 0 0 Z " fill="#212121" transform="translate(114,239)"/>
<path d="M0 0 C0.33 0 0.66 0 1 0 C1 19.47 1 38.94 1 59 C1.66 59 2.32 59 3 59 C3 59.99 3 60.98 3 62 C2.01 62 1.02 62 0 62 C0 41.54 0 21.08 0 0 Z " fill="#B9B9B9" transform="translate(181,48)"/>
<path d="M0 0 C1.98 0 3.96 0 6 0 C5.125 4.75 5.125 4.75 4 7 C2.68 7 1.36 7 0 7 C0 7.66 0 8.32 0 9 C-1.98 9 -3.96 9 -6 9 C-5.34 7.35 -4.68 5.7 -4 4 C-3.34 4 -2.68 4 -2 4 C-2 3.34 -2 2.68 -2 2 C-1.34 2 -0.68 2 0 2 C0 1.34 0 0.68 0 0 Z " fill="#595959" transform="translate(162,175)"/>
<path d="M0 0 C1.32 0 2.64 0 4 0 C4 16.5 4 33 4 50 C3.01 49.67 2.02 49.34 1 49 C1.495 48.505 1.495 48.505 2 48 C2.0928726 46.58774954 2.11746772 45.17091066 2.11352539 43.75561523 C2.11344986 42.85475693 2.11337433 41.95389862 2.11329651 41.02574158 C2.10813522 40.04658279 2.10297394 39.06742401 2.09765625 38.05859375 C2.0962413 37.06118668 2.09482635 36.0637796 2.09336853 35.03614807 C2.08775114 31.83656876 2.07519571 28.63705831 2.0625 25.4375 C2.05748724 23.27408955 2.05292395 21.11067801 2.04882812 18.94726562 C2.03777607 13.63148675 2.02102104 8.31574829 2 3 C1.34 3 0.68 3 0 3 C0 2.01 0 1.02 0 0 Z " fill="#262626" transform="translate(199,26)"/>
<path d="M0 0 C0.66 0 1.32 0 2 0 C2.33 10.23 2.66 20.46 3 31 C2.34 31 1.68 31 1 31 C-0.43509221 28.12981559 -0.11158506 25.66456277 -0.09765625 22.4609375 C-0.09443359 21.15898437 -0.09121094 19.85703125 -0.08789062 18.515625 C-0.07953466 17.13541601 -0.07106971 15.75520768 -0.0625 14.375 C-0.05748501 12.98698074 -0.0529221 11.59895978 -0.04882812 10.2109375 C-0.03700976 6.80724868 -0.02053434 3.40364561 0 0 Z " fill="#E2E2E2" transform="translate(179,243)"/>
<path d="M0 0 C0.66 0.33 1.32 0.66 2 1 C2 3.31 2 5.62 2 8 C1.34 8 0.68 8 0 8 C0 8.66 0 9.32 0 10 C-2.31 10 -4.62 10 -7 10 C-7 9.34 -7 8.68 -7 8 C-7.66 8 -8.32 8 -9 8 C-9 7.34 -9 6.68 -9 6 C-10.32 6 -11.64 6 -13 6 C-13 5.01 -13 4.02 -13 3 C-10.03 3.495 -10.03 3.495 -7 4 C-7 4.66 -7 5.32 -7 6 C-4.69 6 -2.38 6 0 6 C0 4.02 0 2.04 0 0 Z " fill="#373737" transform="translate(158,165)"/>
<path d="M0 0 C4.95 0 9.9 0 15 0 C15 1.32 15 2.64 15 4 C10.05 4 5.1 4 0 4 C0 2.68 0 1.36 0 0 Z " fill="#4B4B4B" transform="translate(127,59)"/>
<path d="M0 0 C0.66 0 1.32 0 2 0 C2 1.98 2 3.96 2 6 C3.32 6 4.64 6 6 6 C6 5.34 6 4.68 6 4 C10.75 4.75 10.75 4.75 13 7 C10.03 6.505 10.03 6.505 7 6 C7 6.99 7 7.98 7 9 C8.32 9 9.64 9 11 9 C11 9.66 11 10.32 11 11 C11.66 11 12.32 11 13 11 C13 11.66 13 12.32 13 13 C11.68 13 10.36 13 9 13 C9 12.34 9 11.68 9 11 C8.01 11 7.02 11 6 11 C6 10.34 6 9.68 6 9 C5.34 9 4.68 9 4 9 C4 8.34 4 7.68 4 7 C2.68 7 1.36 7 0 7 C0 4.69 0 2.38 0 0 Z " fill="#777777" transform="translate(138,162)"/>
<path d="M0 0 C2.97 0 5.94 0 9 0 C9 1.98 9 3.96 9 6 C6.69 6 4.38 6 2 6 C2 5.34 2 4.68 2 4 C1.34 4 0.68 4 0 4 C0 2.68 0 1.36 0 0 Z " fill="#DCDCDC" transform="translate(129,64)"/>
<path d="M0 0 C0.66 0 1.32 0 2 0 C2 7.26 2 14.52 2 22 C0.68 22 -0.64 22 -2 22 C-2 21.34 -2 20.68 -2 20 C-1.34 20 -0.68 20 0 20 C0 13.4 0 6.8 0 0 Z " fill="#363636" transform="translate(77,149)"/>
<path d="M0 0 C1.32 0 2.64 0 4 0 C4 7.26 4 14.52 4 22 C3.34 22 2.68 22 2 22 C2 15.4 2 8.8 2 2 C1.34 2 0.68 2 0 2 C0 1.34 0 0.68 0 0 Z " fill="#595959" transform="translate(219,147)"/>
<path d="M0 0 C0.66 0 1.32 0 2 0 C2 0.66 2 1.32 2 2 C2.66 2 3.32 2 4 2 C4 2.66 4 3.32 4 4 C6.31 4 8.62 4 11 4 C11 4.66 11 5.32 11 6 C8.03 6 5.06 6 2 6 C2 5.34 2 4.68 2 4 C1.34 4 0.68 4 0 4 C0 6.31 0 8.62 0 11 C-0.66 11 -1.32 11 -2 11 C-2 8.03 -2 5.06 -2 2 C-1.34 2 -0.68 2 0 2 C0 1.34 0 0.68 0 0 Z " fill="#535353" transform="translate(127,66)"/>
<path d="M0 0 C12.54 0 25.08 0 38 0 C38 0.99 38 1.98 38 3 C37.01 3 36.02 3 35 3 C35 2.34 35 1.68 35 1 C23.45 1 11.9 1 0 1 C0 0.67 0 0.34 0 0 Z " fill="#E2E2E2" transform="translate(131,89)"/>
<path d="M0 0 C4.95 0 9.9 0 15 0 C15 0.66 15 1.32 15 2 C12.11584117 3.44207941 9.58278472 3.09394887 6.375 3.0625 C5.18648437 3.05347656 3.99796875 3.04445312 2.7734375 3.03515625 C1.85820312 3.02355469 0.94296875 3.01195312 0 3 C0 2.01 0 1.02 0 0 Z " fill="#414141" transform="translate(158,59)"/>
<path d="M0 0 C5.61 0 11.22 0 17 0 C17 0.66 17 1.32 17 2 C12.05 2 7.1 2 2 2 C2 3.32 2 4.64 2 6 C1.34 6 0.68 6 0 6 C0 4.02 0 2.04 0 0 Z " fill="#E2E2E2" transform="translate(156,79)"/>
<path d="M0 0 C2.31 0 4.62 0 7 0 C7 1.98 7 3.96 7 6 C4.69 6 2.38 6 0 6 C0 4.02 0 2.04 0 0 Z " fill="#E7E7E7" transform="translate(162,64)"/>
<path d="M0 0 C5.61 0 11.22 0 17 0 C17 1.98 17 3.96 17 6 C16.34 6 15.68 6 15 6 C15 4.68 15 3.36 15 2 C10.05 2 5.1 2 0 2 C0 1.34 0 0.68 0 0 Z " fill="#ABABAB" transform="translate(127,57)"/>
<path d="M0 0 C3.3 0 6.6 0 10 0 C10 1.32 10 2.64 10 4 C6.7 4 3.4 4 0 4 C0 2.68 0 1.36 0 0 Z " fill="#3B3B3B" transform="translate(145,81)"/>
<path d="M0 0 C1.32 0 2.64 0 4 0 C4 2.97 4 5.94 4 9 C-0.95 9 -5.9 9 -11 9 C-11 8.67 -11 8.34 -11 8 C-6.71 8 -2.42 8 2 8 C2 6.68 2 5.36 2 4 C1.34 4 0.68 4 0 4 C0 2.68 0 1.36 0 0 Z " fill="#323232" transform="translate(138,68)"/>
<path d="M0 0 C1.32 0 2.64 0 4 0 C4 0.66 4 1.32 4 2 C4.66 2 5.32 2 6 2 C6 5.3 6 8.6 6 12 C4.68 11.34 3.36 10.68 2 10 C2.66 10 3.32 10 4 10 C4 8.68 4 7.36 4 6 C3.34 6 2.68 6 2 6 C2 4.68 2 3.36 2 2 C1.34 2 0.68 2 0 2 C0 1.34 0 0.68 0 0 Z " fill="#B4B4B4" transform="translate(149,158)"/>
<path d="M0 0 C1.32 0 2.64 0 4 0 C4 2.64 4 5.28 4 8 C3.34 8 2.68 8 2 8 C2 6.68 2 5.36 2 4 C-0.97 4 -3.94 4 -7 4 C-7 3.34 -7 2.68 -7 2 C-4.69 2 -2.38 2 0 2 C0 1.34 0 0.68 0 0 Z " fill="#515151" transform="translate(169,68)"/>
<path d="M0 0 C4.29 0 8.58 0 13 0 C13 0.99 13 1.98 13 3 C11.20841511 3.02696365 9.41671527 3.04637917 7.625 3.0625 C6.62726563 3.07410156 5.62953125 3.08570312 4.6015625 3.09765625 C2 3 2 3 0 2 C0 1.34 0 0.68 0 0 Z " fill="#858585" transform="translate(186,72)"/>
<path d="M0 0 C0.33 0 0.66 0 1 0 C1 9.9 1 19.8 1 30 C0.01 30.33 -0.98 30.66 -2 31 C-2 30.01 -2 29.02 -2 28 C-1.34 28 -0.68 28 0 28 C0 18.76 0 9.52 0 0 Z " fill="#EAEAEA" transform="translate(118,243)"/>
<path d="M0 0 C0 1.32 0 2.64 0 4 C-3.63 4 -7.26 4 -11 4 C-11 3.01 -11 2.02 -11 1 C-9.54182203 0.83197949 -8.0834516 0.66562857 -6.625 0.5 C-5.81289062 0.4071875 -5.00078125 0.314375 -4.1640625 0.21875 C-2 0 -2 0 0 0 Z " fill="#0F0F0F" transform="translate(171,72)"/>
<path d="M0 0 C0.99 0 1.98 0 3 0 C3 3.63 3 7.26 3 11 C3.66 11 4.32 11 5 11 C5 11.66 5 12.32 5 13 C4.01 13 3.02 13 2 13 C2 14.98 2 16.96 2 19 C1.67 19 1.34 19 1 19 C1.01160156 17.96359375 1.02320313 16.9271875 1.03515625 15.859375 C1.04453837 14.48958514 1.05363812 13.11979332 1.0625 11.75 C1.07087891 11.06808594 1.07925781 10.38617188 1.08789062 9.68359375 C1.10428392 6.30657446 1.05628768 3.22708361 0 0 Z " fill="#C5C5C5" transform="translate(142,66)"/>
<path d="M0 0 C1.32 0 2.64 0 4 0 C4 3.63 4 7.26 4 11 C3.34 11 2.68 11 2 11 C2 8.03 2 5.06 2 2 C1.34 2 0.68 2 0 2 C0 1.34 0 0.68 0 0 Z " fill="#949494" transform="translate(171,66)"/>
<path d="M0 0 C1.32 0 2.64 0 4 0 C4 1.98 4 3.96 4 6 C2.68 6 1.36 6 0 6 C0 4.02 0 2.04 0 0 Z " fill="#1F1F1F" transform="translate(140,162)"/>
<path d="M0 0 C1.98 0 3.96 0 6 0 C6 1.32 6 2.64 6 4 C4.02 4 2.04 4 0 4 C0 2.68 0 1.36 0 0 Z " fill="#F6F6F6" transform="translate(132,64)"/>
<path d="M0 0 C2.31 0.66 4.62 1.32 7 2 C7 2.66 7 3.32 7 4 C7.66 4 8.32 4 9 4 C9 4.66 9 5.32 9 6 C7.68 6 6.36 6 5 6 C5 5.34 5 4.68 5 4 C4.01 4 3.02 4 2 4 C2 3.34 2 2.68 2 2 C1.34 2 0.68 2 0 2 C0 1.34 0 0.68 0 0 Z " fill="#AFAFAF" transform="translate(142,169)"/>
<path d="M0 0 C1.32 0 2.64 0 4 0 C4 1.32 4 2.64 4 4 C3.34 4 2.68 4 2 4 C2 4.99 2 5.98 2 7 C1.34 7 0.68 7 0 7 C0 4.69 0 2.38 0 0 Z " fill="#181818" transform="translate(145,153)"/>
<path d="M0 0 C0.66 0 1.32 0 2 0 C2 0.66 2 1.32 2 2 C4.31 2 6.62 2 9 2 C9 2.66 9 3.32 9 4 C6.03 4 3.06 4 0 4 C0 2.68 0 1.36 0 0 Z " fill="#7D7D7D" transform="translate(129,68)"/>
<path d="M0 0 C0.66 0 1.32 0 2 0 C2 1.65 2 3.3 2 5 C2.66 5 3.32 5 4 5 C4 5.66 4 6.32 4 7 C3.34 7 2.68 7 2 7 C2 7.66 2 8.32 2 9 C1.34 9 0.68 9 0 9 C0 6.03 0 3.06 0 0 Z " fill="#AFAFAF" transform="translate(125,59)"/>
<path d="M0 0 C0.99 0 1.98 0 3 0 C2.88590407 1.45922693 2.75834456 2.91740598 2.625 4.375 C2.55539063 5.18710937 2.48578125 5.99921875 2.4140625 6.8359375 C2 9 2 9 0 11 C0 7.37 0 3.74 0 0 Z " fill="#D9D9D9" transform="translate(155,57)"/>
<path d="M0 0 C0.66 0 1.32 0 2 0 C2 1.32 2 2.64 2 4 C2.66 4 3.32 4 4 4 C4 5.32 4 6.64 4 8 C3.34 8 2.68 8 2 8 C2 7.34 2 6.68 2 6 C1.34 6 0.68 6 0 6 C0 4.02 0 2.04 0 0 Z " fill="#F6F6F6" transform="translate(149,160)"/>
<path d="M0 0 C1.98 0 3.96 0 6 0 C6 0.99 6 1.98 6 3 C3.69 3 1.38 3 -1 3 C-0.67 2.01 -0.34 1.02 0 0 Z " fill="#DCDCDC" transform="translate(75,144)"/>
<path d="M0 0 C1.98 0 3.96 0 6 0 C5.67 1.65 5.34 3.3 5 5 C4.67 4.01 4.34 3.02 4 2 C2.68 2 1.36 2 0 2 C0 1.34 0 0.68 0 0 Z " fill="#7F7F7F" transform="translate(162,175)"/>
</svg>
