<?xml version="1.0" encoding="UTF-8"?>
<svg version="1.1" xmlns="http://www.w3.org/2000/svg" width="300" height="300">
<path d="M0 0 C99 0 198 0 300 0 C300 99 300 198 300 300 C201 300 102 300 0 300 C0 201 0 102 0 0 Z " fill="#FDFDFD" transform="translate(0,0)"/>
<path d="M0 0 C36.96 0 73.92 0 112 0 C112 18.15 112 36.3 112 55 C106.06 55 100.12 55 94 55 C94 63.58 94 72.16 94 81 C117.1 81 140.2 81 164 81 C164 103.44 164 125.88 164 149 C163.34 149 162.68 149 162 149 C162 149.99 162 150.98 162 152 C152.1 152 142.2 152 132 152 C132 171.8 132 191.6 132 212 C142.89 212 153.78 212 165 212 C166.53297297 215.06594594 166.12131455 218.27111853 166.09765625 221.6328125 C166.09553383 222.76056595 166.09553383 222.76056595 166.09336853 223.91110229 C166.08776465 226.3157751 166.07521157 228.72035527 166.0625 231.125 C166.0574855 232.75390491 166.0529225 234.38281127 166.04882812 236.01171875 C166.03779397 240.00784827 166.02052679 244.00390842 166 248 C165.34 248 164.68 248 164 248 C164 248.66 164 249.32 164 250 C139.58 250 115.16 250 90 250 C89.67 239.11 89.34 228.22 89 217 C67.55 217 46.1 217 24 217 C24 227.89 24 238.78 24 250 C-1.41 250 -26.82 250 -53 250 C-53 215 -53 215 -52 213 C-40.78 212.67 -29.56 212.34 -18 212 C-17.67 191.87 -17.34 171.74 -17 151 C-28.88 151 -40.76 151 -53 151 C-53 127.9 -53 104.8 -53 81 C-52.01 81 -51.02 81 -50 81 C-50 80.34 -50 79.68 -50 79 C-27.56 79 -5.12 79 18 79 C18 71.08 18 63.16 18 55 C12.72 55 7.44 55 2 55 C2 54.34 2 53.68 2 53 C1.34 53 0.68 53 0 53 C0 35.51 0 18.02 0 0 Z " fill="#FBFBFB" transform="translate(92,24)"/>
<path d="M0 0 C36.3 0 72.6 0 110 0 C110 18.15 110 36.3 110 55 C104.06 55 98.12 55 92 55 C92 63.58 92 72.16 92 81 C115.1 81 138.2 81 162 81 C162 103.44 162 125.88 162 149 C161.34 149 160.68 149 160 149 C160 149.99 160 150.98 160 152 C150.1 152 140.2 152 130 152 C130 171.8 130 191.6 130 212 C140.89 212 151.78 212 163 212 C164.53297297 215.06594594 164.12131455 218.27111853 164.09765625 221.6328125 C164.09553383 222.76056595 164.09553383 222.76056595 164.09336853 223.91110229 C164.08776465 226.3157751 164.07521157 228.72035527 164.0625 231.125 C164.0574855 232.75390491 164.0529225 234.38281127 164.04882812 236.01171875 C164.03779397 240.00784827 164.02052679 244.00390842 164 248 C163.34 248 162.68 248 162 248 C162 248.66 162 249.32 162 250 C137.58 250 113.16 250 88 250 C87.67 239.11 87.34 228.22 87 217 C65.55 217 44.1 217 22 217 C22 227.89 22 238.78 22 250 C-3.41 250 -28.82 250 -55 250 C-55 215 -55 215 -54 213 C-42.78 212.67 -31.56 212.34 -20 212 C-20 191.21 -20 170.42 -20 149 C-30.56 149 -41.12 149 -52 149 C-52 127.22 -52 105.44 -52 83 C-51.34 83 -50.68 83 -50 83 C-50.33 103.46 -50.66 123.92 -51 145 C-50.01 145 -49.02 145 -48 145 C-48 145.66 -48 146.32 -48 147 C-38.76 147 -29.52 147 -20 147 C-19.67 139.74 -19.34 132.48 -19 125 C-18.01 125 -17.02 125 -16 125 C-15.95373209 136.56960037 -15.91815908 148.13917885 -15.89637566 159.70885277 C-15.8859226 165.08067458 -15.87173571 170.45243327 -15.84912109 175.82421875 C-15.82744689 181.00483448 -15.81544285 186.18538935 -15.81024551 191.36604691 C-15.80653998 193.34607527 -15.79930438 195.32610018 -15.78853989 197.30610275 C-15.77409698 200.07181846 -15.77201902 202.83728021 -15.77294922 205.60302734 C-15.76575867 206.42805252 -15.75856812 207.2530777 -15.75115967 208.10310364 C-15.77189568 213.77189568 -15.77189568 213.77189568 -18 216 C-20.43176397 216.24501495 -22.75864884 216.37324921 -25.1953125 216.4140625 C-25.90275604 216.43342865 -26.61019958 216.4527948 -27.33908081 216.4727478 C-29.60093085 216.53257652 -31.8628317 216.57894101 -34.125 216.625 C-35.6575744 216.66317686 -37.19012728 216.70222842 -38.72265625 216.7421875 C-42.48165947 216.83992973 -46.24043068 216.91946808 -50 217 C-50 225.58 -50 234.16 -50 243 C-28.22 243 -6.44 243 16 243 C16 233.76 16 224.52 16 215 C16.66 214.01 17.32 213.02 18 212 C20.96044922 211.63250732 20.96044922 211.63250732 24.8046875 211.64355469 C25.85369232 211.64048813 25.85369232 211.64048813 26.92388916 211.63735962 C29.24118998 211.63434552 31.55778347 211.65284687 33.875 211.671875 C35.48160628 211.6749317 37.0882152 211.6768085 38.69482422 211.67755127 C42.06423054 211.68215829 45.43339838 211.69659905 48.80273438 211.71875 C53.12734394 211.74703271 57.45176549 211.75796106 61.77645874 211.7624321 C65.09466442 211.76658417 68.41283187 211.77639987 71.73101807 211.78830719 C73.32586358 211.79401497 74.92071277 211.798772 76.51556396 211.80257416 C78.74221283 211.80943025 80.96871146 211.82305954 83.1953125 211.83886719 C85.09821045 211.84910919 85.09821045 211.84910919 87.03955078 211.85955811 C90 212 90 212 92 213 C92 222.9 92 232.8 92 243 C112.79 243 133.58 243 155 243 C155 235.08 155 227.16 155 219 C145.1 219 135.2 219 125 219 C125 218.34 125 217.68 125 217 C124.34 217 123.68 217 123 217 C123 185.98 123 154.96 123 123 C124.32 123 125.64 123 127 123 C127 130.92 127 138.84 127 147 C136.57 147 146.14 147 156 147 C156 146.34 156 145.68 156 145 C156.66 145 157.32 145 158 145 C158 125.53 158 106.06 158 86 C157.34 86 156.68 86 156 86 C156 85.01 156 84.02 156 83 C133.56 83 111.12 83 88 83 C88 62.87 88 42.74 88 22 C65.56 22 43.12 22 20 22 C20 21.34 20 20.68 20 20 C43.76 20 67.52 20 92 20 C92 29.24 92 38.48 92 48 C96.62 48 101.24 48 106 48 C105.67 33.81 105.34 19.62 105 5 C91.8485067 4.97745121 78.69702614 4.95908621 65.54551792 4.94818783 C59.43943631 4.94295844 53.33336856 4.9358598 47.22729492 4.92456055 C41.33994853 4.91373363 35.45261551 4.90772358 29.56525993 4.90512276 C27.31367723 4.90326815 25.06209531 4.89964687 22.81051826 4.89426994 C19.66866573 4.88706211 16.52686917 4.88600895 13.38500977 4.88647461 C12.44418045 4.88287933 11.50335114 4.87928406 10.53401184 4.87557983 C6.44382529 4.46306285 6.44382529 4.46306285 3 6 C2.87778475 7.44184293 2.82227242 8.88943144 2.79467773 10.33618164 C2.77473251 11.2570607 2.75478729 12.17793976 2.73423767 13.12672424 C2.70916893 14.62827309 2.70916893 14.62827309 2.68359375 16.16015625 C2.66281265 17.17975937 2.64203156 18.19936249 2.62062073 19.24986267 C2.55501148 22.52067048 2.49618766 25.79156137 2.4375 29.0625 C2.39432558 31.27409728 2.35071166 33.48568603 2.30664062 35.69726562 C2.1993186 41.13142151 2.09757377 46.56566082 2 52 C1.34 52 0.68 52 0 52 C0 34.84 0 17.68 0 0 Z " fill="#444444" transform="translate(94,24)"/>
<path d="M0 0 C0.66 0 1.32 0 2 0 C2 17.16 2 34.32 2 52 C2.66 52 3.32 52 4 52 C3.99555878 51.42814972 3.99111755 50.85629944 3.98654175 50.26712036 C3.94239049 44.33028658 3.91216788 38.39349922 3.89013672 32.45654297 C3.88006175 30.23907579 3.86640141 28.02162195 3.84912109 25.80419922 C3.82493837 22.62203688 3.81353203 19.44004976 3.8046875 16.2578125 C3.79436493 15.26194122 3.78404236 14.26606995 3.77340698 13.24002075 C3.77318039 11.85881546 3.77318039 11.85881546 3.77294922 10.44970703 C3.768508 9.6369632 3.76406677 8.82421936 3.75949097 7.98684692 C4 6 4 6 6 4 C7.82065678 3.75111103 7.82065678 3.75111103 10.06813049 3.75276184 C10.91926422 3.74856735 11.77039795 3.74437286 12.64732361 3.74005127 C13.5829866 3.74567078 14.5186496 3.75129028 15.48266602 3.75708008 C16.4664624 3.75518173 17.45025879 3.75328339 18.46386719 3.75132751 C21.72729369 3.74761202 24.99049941 3.75833426 28.25390625 3.76953125 C30.51309686 3.77072263 32.77228797 3.7711763 35.03147888 3.7709198 C39.77028496 3.77248596 44.50901563 3.78078631 49.24780273 3.79418945 C55.33695537 3.81118916 61.42602512 3.8150036 67.51519871 3.81424427 C72.18101296 3.81451554 76.84680892 3.81998972 81.51261711 3.82724571 C83.75861408 3.83043864 86.00461314 3.83240123 88.25061226 3.83313942 C91.38268733 3.83529585 94.51467258 3.84402463 97.64672852 3.85473633 C98.58441574 3.85428314 99.52210297 3.85382996 100.48820496 3.85336304 C106.88552622 3.88552622 106.88552622 3.88552622 108 5 C108.09268999 6.35094982 108.11747326 7.70667091 108.11352539 9.06079102 C108.11344986 9.92160782 108.11337433 10.78242462 108.11329651 11.66932678 C108.10813522 12.60473801 108.10297394 13.54014923 108.09765625 14.50390625 C108.09553383 15.93342873 108.09553383 15.93342873 108.09336853 17.39183044 C108.08775152 20.44875165 108.07519616 23.50560077 108.0625 26.5625 C108.05748719 28.62955624 108.05292391 30.69661362 108.04882812 32.76367188 C108.03777656 37.84247588 108.02050055 42.9212257 108 48 C103.38 48 98.76 48 94 48 C94 38.76 94 29.52 94 20 C70.24 20 46.48 20 22 20 C22 20.66 22 21.32 22 22 C44.44 22 66.88 22 90 22 C90 42.13 90 62.26 90 83 C112.44 83 134.88 83 158 83 C158 83.99 158 84.98 158 86 C158.66 86 159.32 86 160 86 C160 105.47 160 124.94 160 145 C159.34 145 158.68 145 158 145 C158 145.66 158 146.32 158 147 C148.43 147 138.86 147 129 147 C129 139.08 129 131.16 129 123 C129.99 123 130.98 123 132 123 C132 129.93 132 136.86 132 144 C140.25 144 148.5 144 157 144 C157 124.86 157 105.72 157 86 C149.77996094 86.01740234 149.77996094 86.01740234 142.4140625 86.03515625 C139.36979032 86.04026409 136.32552341 86.04507794 133.28125 86.04882812 C128.44627794 86.05481239 123.61132477 86.06190162 118.77636719 86.07543945 C114.879559 86.08628254 110.98277105 86.09227987 107.08594894 86.09487724 C105.59715837 86.09672892 104.10836893 86.10034463 102.61958694 86.10573006 C100.53884715 86.11295934 98.45819168 86.11399014 96.37744141 86.11352539 C95.19163483 86.115746 94.00582825 86.11796661 92.78408813 86.12025452 C90 86 90 86 88 85 C88 64.87 88 44.74 88 24 C66.88 24 45.76 24 24 24 C24 44.13 24 64.26 24 85 C21.14429301 86.4278535 18.72285644 86.11941486 15.53076172 86.11352539 C14.53545944 86.11374443 14.53545944 86.11374443 13.52005005 86.1139679 C11.32322947 86.11327031 9.1264933 86.10548514 6.9296875 86.09765625 C5.40796963 86.09579152 3.88625116 86.09436788 2.36453247 86.09336853 C-1.64351047 86.08954767 -5.65151726 86.07972104 -9.6595459 86.06866455 C-14.46697747 86.05664419 -19.27442111 86.05204614 -24.0818634 86.04621124 C-31.38793409 86.03650907 -38.69392543 86.01734952 -46 86 C-46 105.14 -46 124.28 -46 144 C-37.42 144 -28.84 144 -20 144 C-20 137.07 -20 130.14 -20 123 C-17.69 123 -15.38 123 -13 123 C-13 154.68 -13 186.36 -13 219 C-23.89 219 -34.78 219 -46 219 C-46 226.92 -46 234.84 -46 243 C-46.66 243 -47.32 243 -48 243 C-48 234.42 -48 225.84 -48 217 C-45.10624961 215.55312481 -42.50659049 215.79764005 -39.27734375 215.71875 C-38.61666397 215.70034058 -37.95598419 215.68193115 -37.27528381 215.66296387 C-34.44467507 215.58420172 -31.61382829 215.51640048 -28.78295898 215.44775391 C-26.71846352 215.3961356 -24.65417941 215.33885482 -22.58984375 215.28125 C-21.35097412 215.25095703 -20.11210449 215.22066406 -18.83569336 215.18945312 C-16.09975671 215.3192224 -16.09975671 215.3192224 -15 214 C-14.87481177 211.23143133 -14.81391795 208.48658874 -14.79467773 205.71655273 C-14.78477814 204.84833893 -14.77487854 203.98012512 -14.76467896 203.08560181 C-14.73296632 200.20162733 -14.70826812 197.31763635 -14.68359375 194.43359375 C-14.66303264 192.43961649 -14.6420364 190.44564368 -14.62062073 188.45167542 C-14.56531293 183.19259224 -14.5159422 177.93346917 -14.46777344 172.67431641 C-14.41762182 167.31213818 -14.36190274 161.95001819 -14.30664062 156.58789062 C-14.19895262 146.05864345 -14.09753144 135.5293458 -14 125 C-14.99 125 -15.98 125 -17 125 C-16.99476318 125.59538574 -16.98952637 126.19077148 -16.98413086 126.80419922 C-16.96338001 129.49445547 -16.95034593 132.18469489 -16.9375 134.875 C-16.92912109 135.81214844 -16.92074219 136.74929687 -16.91210938 137.71484375 C-16.90888672 138.61074219 -16.90566406 139.50664062 -16.90234375 140.4296875 C-16.89710693 141.25710449 -16.89187012 142.08452148 -16.88647461 142.93701172 C-17 145 -17 145 -18 147 C-27.24 147 -36.48 147 -46 147 C-46 146.34 -46 145.68 -46 145 C-46.99 145 -47.98 145 -49 145 C-49.02316372 137.35917524 -49.04093569 129.71835412 -49.05181217 122.07750225 C-49.05703216 118.52960152 -49.0641138 114.9817248 -49.07543945 111.43383789 C-49.08837663 107.35562916 -49.09323552 103.27744567 -49.09765625 99.19921875 C-49.10281754 97.92414963 -49.10797882 96.64908051 -49.11329651 95.33537292 C-49.11337204 94.15437515 -49.11344757 92.97337738 -49.11352539 91.7565918 C-49.11685631 90.19439156 -49.11685631 90.19439156 -49.12025452 88.60063171 C-49 86 -49 86 -48 83 C-48.66 83 -49.32 83 -50 83 C-50 104.78 -50 126.56 -50 149 C-39.44 149 -28.88 149 -18 149 C-18 149.66 -18 150.32 -18 151 C-29.55 151 -41.1 151 -53 151 C-53 127.9 -53 104.8 -53 81 C-52.01 81 -51.02 81 -50 81 C-50 80.34 -50 79.68 -50 79 C-27.56 79 -5.12 79 18 79 C18 71.08 18 63.16 18 55 C12.72 55 7.44 55 2 55 C2 54.34 2 53.68 2 53 C1.34 53 0.68 53 0 53 C0 35.51 0 18.02 0 0 Z " fill="#5C5C5C" transform="translate(92,24)"/>
<path d="M0 0 C2.31 0 4.62 0 7 0 C7 0.66 7 1.32 7 2 C8.65 2 10.3 2 12 2 C12.66 3.65 13.32 5.3 14 7 C14.66 7 15.32 7 16 7 C16 8.32 16 9.64 16 11 C16.66 11 17.32 11 18 11 C18 12.32 18 13.64 18 15 C18.66 15 19.32 15 20 15 C20 15.99 20 16.98 20 18 C20.66 18 21.32 18 22 18 C22 18.66 22 19.32 22 20 C22.66 20 23.32 20 24 20 C24 20.66 24 21.32 24 22 C24.99 22 25.98 22 27 22 C27 21.34 27 20.68 27 20 C27.66 20 28.32 20 29 20 C29 18.35 29 16.7 29 15 C29.66 15 30.32 15 31 15 C31 14.34 31 13.68 31 13 C31.66 13 32.32 13 33 13 C33 12.34 33 11.68 33 11 C33.66 11 34.32 11 35 11 C35 10.34 35 9.68 35 9 C36.65 9 38.3 9 40 9 C40 8.34 40 7.68 40 7 C42.64 7 45.28 7 48 7 C48 7.66 48 8.32 48 9 C48.99 9 49.98 9 51 9 C51 14.94 51 20.88 51 27 C52.32 26.67 53.64 26.34 55 26 C55 25.34 55 24.68 55 24 C58.63 24 62.26 24 66 24 C66 25.32 66 26.64 66 28 C66.66 28 67.32 28 68 28 C68 30.31 68 32.62 68 35 C67.34 35 66.68 35 66 35 C66 35.66 66 36.32 66 37 C65.34 37 64.68 37 64 37 C64 37.99 64 38.98 64 40 C63.34 40 62.68 40 62 40 C62 40.66 62 41.32 62 42 C61.34 42 60.68 42 60 42 C60 43.32 60 44.64 60 46 C60.66 46 61.32 46 62 46 C62 46.66 62 47.32 62 48 C62.66 48 63.32 48 64 48 C64 49.65 64 51.3 64 53 C65.65 53 67.3 53 69 53 C69.495 55.97 69.495 55.97 70 59 C70.66 59 71.32 59 72 59 C72.33 57.68 72.66 56.36 73 55 C75.31 55 77.62 55 80 55 C80.495 59.455 80.495 59.455 81 64 C82.65 64 84.3 64 86 64 C86.43695709 69.33087655 86.43695709 69.33087655 86 72 C83.59140121 74.02829372 82.16955691 75 79 75 C79 76.32 79 77.64 79 79 C77.02 79 75.04 79 73 79 C73 77.68 73 76.36 73 75 C72.01 75 71.02 75 70 75 C70 75.66 70 76.32 70 77 C68.02 77 66.04 77 64 77 C64 74.03 64 71.06 64 68 C61.03 68 58.06 68 55 68 C55 67.34 55 66.68 55 66 C53.68 66 52.36 66 51 66 C51 65.34 51 64.68 51 64 C49.35 64 47.7 64 46 64 C46 63.34 46 62.68 46 62 C44.02 61.34 42.04 60.68 40 60 C40 61.32 40 62.64 40 64 C40.66 64 41.32 64 42 64 C42 69.61 42 75.22 42 81 C40.68 81 39.36 81 38 81 C37.34 82.32 36.68 83.64 36 85 C29.25 84.125 29.25 84.125 27 83 C27 82.34 27 81.68 27 81 C26.34 81 25.68 81 25 81 C24.67 79.68 24.34 78.36 24 77 C23.34 77 22.68 77 22 77 C22 75.35 22 73.7 22 72 C21.34 72 20.68 72 20 72 C20 71.34 20 70.68 20 70 C19.34 70 18.68 70 18 70 C18 68.02 18 66.04 18 64 C17.34 64 16.68 64 16 64 C16 62.68 16 61.36 16 60 C15.37996094 60.144375 14.75992188 60.28875 14.12109375 60.4375 C5.98053166 62.14381869 -1.71993943 62.20113507 -10 62 C-10 63.98 -10 65.96 -10 68 C-12.31 68 -14.62 68 -17 68 C-17 67.34 -17 66.68 -17 66 C-17.66 66 -18.32 66 -19 66 C-22.4887612 61.70614007 -22.26854022 58.28129105 -22 53 C-20.35 53 -18.7 53 -17 53 C-17 53.66 -17 54.32 -17 55 C-16.34 55 -15.68 55 -15 55 C-15 56.32 -15 57.64 -15 59 C-14.34 59 -13.68 59 -13 59 C-13 59.66 -13 60.32 -13 61 C-11.515 60.505 -11.515 60.505 -10 60 C-10.165 59.319375 -10.33 58.63875 -10.5 57.9375 C-11.07089059 54.5835178 -11.06659023 51.39610195 -11 48 C-10.34 48 -9.68 48 -9 48 C-9 47.34 -9 46.68 -9 46 C-8.01 46 -7.02 46 -6 46 C-6 45.34 -6 44.68 -6 44 C-5.34 44 -4.68 44 -4 44 C-4 43.34 -4 42.68 -4 42 C-3.34 42 -2.68 42 -2 42 C-2 41.01 -2 40.02 -2 39 C-1.34 39 -0.68 39 0 39 C0 37.68 0 36.36 0 35 C0.66 35 1.32 35 2 35 C1.67 33.9275 1.34 32.855 1 31.75 C0 28 0 28 0 24 C-0.66 24 -1.32 24 -2 24 C-2 22.68 -2 21.36 -2 20 C-2.66 20 -3.32 20 -4 20 C-4 15.05 -4 10.1 -4 5 C-3.34 5 -2.68 5 -2 5 C-2 4.01 -2 3.02 -2 2 C-1.34 2 -0.68 2 0 2 C0 1.34 0 0.68 0 0 Z " fill="#575757" transform="translate(120,129)"/>
<path d="M0 0 C32.34 0 64.68 0 98 0 C98 0.66 98 1.32 98 2 C98.66 2 99.32 2 100 2 C100 15.53 100 29.06 100 43 C95.71 43 91.42 43 87 43 C87 33.76 87 24.52 87 15 C86.34 15 85.68 15 85 15 C85 14.34 85 13.68 85 13 C60.25 13 35.5 13 10 13 C10 22.9 10 32.8 10 43 C6.37 43 2.74 43 -1 43 C-1.02467332 37.19759432 -1.04284724 31.39521902 -1.05493164 25.59277344 C-1.0599681 23.61783313 -1.06679751 21.64289657 -1.07543945 19.66796875 C-1.08753508 16.83332395 -1.0932351 13.99872834 -1.09765625 11.1640625 C-1.10281754 10.27756012 -1.10797882 9.39105774 -1.11329651 8.47769165 C-1.11387171 2.22774341 -1.11387171 2.22774341 0 0 Z " fill="#F5F5F5" transform="translate(99,29)"/>
<path d="M0 0 C36.3 0 72.6 0 110 0 C110 18.15 110 36.3 110 55 C104.06 55 98.12 55 92 55 C92 63.58 92 72.16 92 81 C115.1 81 138.2 81 162 81 C162 103.44 162 125.88 162 149 C161.34 149 160.68 149 160 149 C160 149.66 160 150.32 160 151 C149.11 151 138.22 151 127 151 C127 172.12 127 193.24 127 215 C126.34 215 125.68 215 125 215 C125 184.64 125 154.28 125 123 C125.66 123 126.32 123 127 123 C127 130.92 127 138.84 127 147 C136.57 147 146.14 147 156 147 C156 146.34 156 145.68 156 145 C156.66 145 157.32 145 158 145 C158 125.53 158 106.06 158 86 C157.34 86 156.68 86 156 86 C156 85.01 156 84.02 156 83 C133.56 83 111.12 83 88 83 C88 62.87 88 42.74 88 22 C65.56 22 43.12 22 20 22 C20 21.34 20 20.68 20 20 C43.76 20 67.52 20 92 20 C92 29.24 92 38.48 92 48 C96.62 48 101.24 48 106 48 C105.67 33.81 105.34 19.62 105 5 C91.8485067 4.97745121 78.69702614 4.95908621 65.54551792 4.94818783 C59.43943631 4.94295844 53.33336856 4.9358598 47.22729492 4.92456055 C41.33994853 4.91373363 35.45261551 4.90772358 29.56525993 4.90512276 C27.31367723 4.90326815 25.06209531 4.89964687 22.81051826 4.89426994 C19.66866573 4.88706211 16.52686917 4.88600895 13.38500977 4.88647461 C12.44418045 4.88287933 11.50335114 4.87928406 10.53401184 4.87557983 C6.44382529 4.46306285 6.44382529 4.46306285 3 6 C2.87778475 7.44184293 2.82227242 8.88943144 2.79467773 10.33618164 C2.77473251 11.2570607 2.75478729 12.17793976 2.73423767 13.12672424 C2.71752518 14.12775681 2.70081268 15.12878937 2.68359375 16.16015625 C2.66281265 17.17975937 2.64203156 18.19936249 2.62062073 19.24986267 C2.55501148 22.52067048 2.49618766 25.79156137 2.4375 29.0625 C2.39432558 31.27409728 2.35071166 33.48568603 2.30664062 35.69726562 C2.1993186 41.13142151 2.09757377 46.56566082 2 52 C1.34 52 0.68 52 0 52 C0 34.84 0 17.68 0 0 Z " fill="#525252" transform="translate(94,24)"/>
<path d="M0 0 C2.31 0 4.62 0 7 0 C7 0.66 7 1.32 7 2 C8.65 2 10.3 2 12 2 C12.66 3.65 13.32 5.3 14 7 C14.66 7 15.32 7 16 7 C16 8.32 16 9.64 16 11 C16.66 11 17.32 11 18 11 C18 12.32 18 13.64 18 15 C18.66 15 19.32 15 20 15 C20 15.99 20 16.98 20 18 C20.66 18 21.32 18 22 18 C22 18.66 22 19.32 22 20 C22.66 20 23.32 20 24 20 C24 20.66 24 21.32 24 22 C24.99 22 25.98 22 27 22 C27 21.34 27 20.68 27 20 C27.66 20 28.32 20 29 20 C29 18.35 29 16.7 29 15 C29.66 15 30.32 15 31 15 C31 14.34 31 13.68 31 13 C31.66 13 32.32 13 33 13 C33 12.34 33 11.68 33 11 C33.66 11 34.32 11 35 11 C35 10.34 35 9.68 35 9 C36.65 9 38.3 9 40 9 C40 8.34 40 7.68 40 7 C42.64 7 45.28 7 48 7 C48 7.66 48 8.32 48 9 C48.99 9 49.98 9 51 9 C51 14.94 51 20.88 51 27 C52.32 26.67 53.64 26.34 55 26 C55 25.34 55 24.68 55 24 C58.63 24 62.26 24 66 24 C66 25.32 66 26.64 66 28 C66.66 28 67.32 28 68 28 C68 30.31 68 32.62 68 35 C67.34 35 66.68 35 66 35 C66 35.66 66 36.32 66 37 C65.34 37 64.68 37 64 37 C64 37.99 64 38.98 64 40 C63.34 40 62.68 40 62 40 C62 40.66 62 41.32 62 42 C60.35 42 58.7 42 57 42 C57 43.32 57 44.64 57 46 C55.68 46 54.36 46 53 46 C53 44.02 53 42.04 53 40 C53.66 40 54.32 40 55 40 C55 39.01 55 38.02 55 37 C56.32 37 57.64 37 59 37 C59 36.34 59 35.68 59 35 C59.99 35 60.98 35 62 35 C62 34.34 62 33.68 62 33 C62.66 33 63.32 33 64 33 C64 31.68 64 30.36 64 29 C61.69 29 59.38 29 57 29 C57 29.66 57 30.32 57 31 C56.34 31 55.68 31 55 31 C55 31.66 55 32.32 55 33 C53.68 33 52.36 33 51 33 C51 33.66 51 34.32 51 35 C49.35 35 47.7 35 46 35 C46 34.34 46 33.68 46 33 C45.34 33 44.68 33 44 33 C44 30.03 44 27.06 44 24 C44.66 24 45.32 24 46 24 C46 19.71 46 15.42 46 11 C44.02 11 42.04 11 40 11 C40 11.99 40 12.98 40 14 C39.34 14 38.68 14 38 14 C38 14.66 38 15.32 38 16 C37.34 16 36.68 16 36 16 C35.67 17.32 35.34 18.64 35 20 C34.34 20 33.68 20 33 20 C33 20.66 33 21.32 33 22 C32.34 22 31.68 22 31 22 C31 23.32 31 24.64 31 26 C33.475 26.99 33.475 26.99 36 28 C36 31.63 36 35.26 36 39 C37.32 39 38.64 39 40 39 C40 41.31 40 43.62 40 46 C38.68 46 37.36 46 36 46 C36.020625 47.11375 36.04125 48.2275 36.0625 49.375 C36 53 36 53 35 55 C33.02 55 31.04 55 29 55 C29 53.35 29 51.7 29 50 C28.34 50 27.68 50 27 50 C27 49.34 27 48.68 27 48 C25.68 47.67 24.36 47.34 23 47 C23.33 46.01 23.66 45.02 24 44 C25.65 44 27.3 44 29 44 C29 44.66 29 45.32 29 46 C30.32 46 31.64 46 33 46 C33 44.68 33 43.36 33 42 C30.03 42 27.06 42 24 42 C23.67 40.35 23.34 38.7 23 37 C21.35 37 19.7 37 18 37 C18 37.99 18 38.98 18 40 C17.34 40 16.68 40 16 40 C16 37.03 16 34.06 16 31 C18.97 31 21.94 31 25 31 C24.505 29.02 24.505 29.02 24 27 C23.34 26.67 22.68 26.34 22 26 C22 25.34 22 24.68 22 24 C21.34 24 20.68 24 20 24 C20 23.34 20 22.68 20 22 C19.34 22 18.68 22 18 22 C18 21.34 18 20.68 18 20 C17.34 20 16.68 20 16 20 C16 18.68 16 17.36 16 16 C15.360625 15.731875 14.72125 15.46375 14.0625 15.1875 C12 14 12 14 11 11 C10.34 11 9.68 11 9 11 C9 10.34 9 9.68 9 9 C8.34 9 7.68 9 7 9 C7 8.34 7 7.68 7 7 C5.02 7 3.04 7 1 7 C1.33 8.216875 1.66 9.43375 2 10.6875 C2.80322213 13.87210604 3.20641973 16.6972843 3 20 C3.66 20 4.32 20 5 20 C5 21.32 5 22.64 5 24 C5.66 24 6.32 24 7 24 C7 24.99 7 25.98 7 27 C7.66 27 8.32 27 9 27 C9 30.3 9 33.6 9 37 C8.34 37 7.68 37 7 37 C7 37.99 7 38.98 7 40 C6.34 40 5.68 40 5 40 C5 40.66 5 41.32 5 42 C4.34 42 3.68 42 3 42 C3 42.66 3 43.32 3 44 C2.01 44 1.02 44 0 44 C0 44.66 0 45.32 0 46 C-0.66 46 -1.32 46 -2 46 C-2 46.66 -2 47.32 -2 48 C-2.66 48 -3.32 48 -4 48 C-4 50.97 -4 53.94 -4 57 C-3.34 57 -2.68 57 -2 57 C-2 57.66 -2 58.32 -2 59 C-4.31 59 -6.62 59 -9 59 C-11.32590854 55.36576791 -11.16265833 52.22911669 -11 48 C-10.34 48 -9.68 48 -9 48 C-9 47.34 -9 46.68 -9 46 C-8.01 46 -7.02 46 -6 46 C-6 45.34 -6 44.68 -6 44 C-5.34 44 -4.68 44 -4 44 C-4 43.34 -4 42.68 -4 42 C-3.34 42 -2.68 42 -2 42 C-2 41.01 -2 40.02 -2 39 C-1.34 39 -0.68 39 0 39 C0 37.68 0 36.36 0 35 C0.66 35 1.32 35 2 35 C1.67 33.9275 1.34 32.855 1 31.75 C0 28 0 28 0 24 C-0.66 24 -1.32 24 -2 24 C-2 22.68 -2 21.36 -2 20 C-2.66 20 -3.32 20 -4 20 C-4 15.05 -4 10.1 -4 5 C-3.34 5 -2.68 5 -2 5 C-2 4.01 -2 3.02 -2 2 C-1.34 2 -0.68 2 0 2 C0 1.34 0 0.68 0 0 Z " fill="#4D4D4D" transform="translate(120,129)"/>
<path d="M0 0 C1.98 0 3.96 0 6 0 C6 0.66 6 1.32 6 2 C6.66 2 7.32 2 8 2 C8 2.66 8 3.32 8 4 C8.66 4 9.32 4 10 4 C12.625 6.25 12.625 6.25 15 9 C15 10.32 15 11.64 15 13 C15.66 13 16.32 13 17 13 C17 13.66 17 14.32 17 15 C17.66 15 18.32 15 19 15 C19 15.66 19 16.32 19 17 C19.66 17 20.32 17 21 17 C21 17.66 21 18.32 21 19 C21.99 19.33 22.98 19.66 24 20 C24 21.32 24 22.64 24 24 C21.03 24 18.06 24 15 24 C15 26.97 15 29.94 15 33 C15.66 33 16.32 33 17 33 C17 32.01 17 31.02 17 30 C18.65 30 20.3 30 22 30 C22.495 32.475 22.495 32.475 23 35 C25.97 35 28.94 35 32 35 C32 36.32 32 37.64 32 39 C30.68 39 29.36 39 28 39 C28 38.34 28 37.68 28 37 C26.35 37 24.7 37 23 37 C23 37.99 23 38.98 23 40 C23.99 40.33 24.98 40.66 26 41 C26 41.66 26 42.32 26 43 C26.66 43 27.32 43 28 43 C28 44.65 28 46.3 28 48 C29.32 48 30.64 48 32 48 C32 50.97 32 53.94 32 57 C32.66 57 33.32 57 34 57 C34 61.95 34 66.9 34 72 C32.68 72 31.36 72 30 72 C30 71.34 30 70.68 30 70 C29.34 70 28.68 70 28 70 C28 69.34 28 68.68 28 68 C26.7934375 67.814375 26.7934375 67.814375 25.5625 67.625 C24.716875 67.41875 23.87125 67.2125 23 67 C22.67 66.34 22.34 65.68 22 65 C21.01 65 20.02 65 19 65 C19 64.34 19 63.68 19 63 C18.34 63 17.68 63 17 63 C17 61.02 17 59.04 17 57 C16.34 57 15.68 57 15 57 C15 55.68 15 54.36 15 53 C14.37996094 53.144375 13.75992188 53.28875 13.12109375 53.4375 C4.98053166 55.14381869 -2.71993943 55.20113507 -11 55 C-11 56.98 -11 58.96 -11 61 C-13.31 61 -15.62 61 -18 61 C-18 60.34 -18 59.68 -18 59 C-18.66 59 -19.32 59 -20 59 C-23.4887612 54.70614007 -23.26854022 51.28129105 -23 46 C-21.35 46 -19.7 46 -18 46 C-18 46.66 -18 47.32 -18 48 C-17.34 48 -16.68 48 -16 48 C-16 49.32 -16 50.64 -16 52 C-15.34 52 -14.68 52 -14 52 C-14 52.66 -14 53.32 -14 54 C-13.2265625 53.505 -13.2265625 53.505 -12.4375 53 C-9.21973488 51.67989123 -6.4429472 51.86757895 -3 52 C-3 51.34 -3 50.68 -3 50 C-3.66 50 -4.32 50 -5 50 C-5 47.03 -5 44.06 -5 41 C-4.34 41 -3.68 41 -3 41 C-3 40.34 -3 39.68 -3 39 C-2.34 39 -1.68 39 -1 39 C-1 38.34 -1 37.68 -1 37 C-0.01 37 0.98 37 2 37 C2 36.34 2 35.68 2 35 C2.66 35 3.32 35 4 35 C4 34.34 4 33.68 4 33 C4.66 33 5.32 33 6 33 C6 32.01 6 31.02 6 30 C6.66 30 7.32 30 8 30 C8 26.7 8 23.4 8 20 C7.34 20 6.68 20 6 20 C6 19.01 6 18.02 6 17 C5.34 17 4.68 17 4 17 C4 15.68 4 14.36 4 13 C3.34 13 2.68 13 2 13 C0.54815522 8.46298506 -0.23509196 4.81938524 0 0 Z " fill="#626262" transform="translate(121,136)"/>
<path d="M0 0 C0.66 0 1.32 0 2 0 C2 30.36 2 60.72 2 92 C2.66 92 3.32 92 4 92 C4 70.88 4 49.76 4 28 C14.89 28 25.78 28 37 28 C37 28.33 37 28.66 37 29 C27.1 29 17.2 29 7 29 C7 48.8 7 68.6 7 89 C17.89 89 28.78 89 40 89 C41.53297297 92.06594594 41.12131455 95.27111853 41.09765625 98.6328125 C41.0962413 99.38464813 41.09482635 100.13648376 41.09336853 100.91110229 C41.08776465 103.3157751 41.07521157 105.72035527 41.0625 108.125 C41.0574855 109.75390491 41.0529225 111.38281127 41.04882812 113.01171875 C41.03779397 117.00784827 41.02052679 121.00390842 41 125 C40.34 125 39.68 125 39 125 C39 125.66 39 126.32 39 127 C14.58 127 -9.84 127 -35 127 C-35 126.34 -35 125.68 -35 125 C-11.24 125 12.52 125 37 125 C37 115.43 37 105.86 37 96 C36.34 96 35.68 96 35 96 C35 103.92 35 111.84 35 120 C34.34 120 33.68 120 33 120 C33 120.66 33 121.32 33 122 C11.88 122 -9.24 122 -31 122 C-31 121.34 -31 120.68 -31 120 C-10.21 120 10.58 120 32 120 C32 112.08 32 104.16 32 96 C22.1 96 12.2 96 2 96 C2 95.34 2 94.68 2 94 C1.34 94 0.68 94 0 94 C0 62.98 0 31.96 0 0 Z " fill="#616161" transform="translate(217,147)"/>
<path d="M0 0 C4.95 0 9.9 0 15 0 C15 1.65 15 3.3 15 5 C15.99 5 16.98 5 18 5 C18.33 10.94 18.66 16.88 19 23 C19.99 23.33 20.98 23.66 22 24 C22 24.99 22 25.98 22 27 C22.66 27 23.32 27 24 27 C24 26.01 24 25.02 24 24 C25.32 23.67 26.64 23.34 28 23 C28 19.37 28 15.74 28 12 C28.66 12 29.32 12 30 12 C29.979375 10.88625 29.95875 9.7725 29.9375 8.625 C30 5 30 5 31 3 C35.95 3 40.9 3 46 3 C46 3.66 46 4.32 46 5 C46.66 5 47.32 5 48 5 C48 6.32 48 7.64 48 9 C47.34 9 46.68 9 46 9 C46 13.62 46 18.24 46 23 C45.34 23 44.68 23 44 23 C44 23.66 44 24.32 44 25 C39.71 25 35.42 25 31 25 C31.04125 26.258125 31.0825 27.51625 31.125 28.8125 C31.2390374 32.29064073 31.05925681 32.91111478 29 36 C26.1796875 36.29296875 26.1796875 36.29296875 22.875 36.1875 C21.23144531 36.14689453 21.23144531 36.14689453 19.5546875 36.10546875 C18.29011719 36.05326172 18.29011719 36.05326172 17 36 C17 35.01 17 34.02 17 33 C16.34 33 15.68 33 15 33 C15 30.36 15 27.72 15 25 C10.71 25 6.42 25 2 25 C2 24.01 2 23.02 2 22 C1.34 22 0.68 22 0 22 C0 14.74 0 7.48 0 0 Z " fill="#B4B4B4" transform="translate(125,52)"/>
<path d="M0 0 C36.3 0 72.6 0 110 0 C110 18.15 110 36.3 110 55 C104.06 55 98.12 55 92 55 C92 62.92 92 70.84 92 79 C91.34 79 90.68 79 90 79 C90 59.53 90 40.06 90 20 C90.66 20 91.32 20 92 20 C92 29.24 92 38.48 92 48 C96.62 48 101.24 48 106 48 C105.67 33.81 105.34 19.62 105 5 C91.8485067 4.97745121 78.69702614 4.95908621 65.54551792 4.94818783 C59.43943631 4.94295844 53.33336856 4.9358598 47.22729492 4.92456055 C41.33994853 4.91373363 35.45261551 4.90772358 29.56525993 4.90512276 C27.31367723 4.90326815 25.06209531 4.89964687 22.81051826 4.89426994 C19.66866573 4.88706211 16.52686917 4.88600895 13.38500977 4.88647461 C12.44418045 4.88287933 11.50335114 4.87928406 10.53401184 4.87557983 C6.44382529 4.46306285 6.44382529 4.46306285 3 6 C2.87778475 7.44184293 2.82227242 8.88943144 2.79467773 10.33618164 C2.77473251 11.2570607 2.75478729 12.17793976 2.73423767 13.12672424 C2.71752518 14.12775681 2.70081268 15.12878937 2.68359375 16.16015625 C2.66281265 17.17975937 2.64203156 18.19936249 2.62062073 19.24986267 C2.55501148 22.52067048 2.49618766 25.79156137 2.4375 29.0625 C2.39432558 31.27409728 2.35071166 33.48568603 2.30664062 35.69726562 C2.1993186 41.13142151 2.09757377 46.56566082 2 52 C1.34 52 0.68 52 0 52 C0 34.84 0 17.68 0 0 Z " fill="#353535" transform="translate(94,24)"/>
<path d="M0 0 C0.66 0 1.32 0 2 0 C2 17.16 2 34.32 2 52 C2.66 52 3.32 52 4 52 C3.99555878 51.42814972 3.99111755 50.85629944 3.98654175 50.26712036 C3.94239049 44.33028658 3.91216788 38.39349922 3.89013672 32.45654297 C3.88006175 30.23907579 3.86640141 28.02162195 3.84912109 25.80419922 C3.82493837 22.62203688 3.81353203 19.44004976 3.8046875 16.2578125 C3.79436493 15.26194122 3.78404236 14.26606995 3.77340698 13.24002075 C3.77318039 11.85881546 3.77318039 11.85881546 3.77294922 10.44970703 C3.768508 9.6369632 3.76406677 8.82421936 3.75949097 7.98684692 C4 6 4 6 6 4 C7.82065678 3.75111103 7.82065678 3.75111103 10.06813049 3.75276184 C10.91926422 3.74856735 11.77039795 3.74437286 12.64732361 3.74005127 C13.5829866 3.74567078 14.5186496 3.75129028 15.48266602 3.75708008 C16.4664624 3.75518173 17.45025879 3.75328339 18.46386719 3.75132751 C21.72729369 3.74761202 24.99049941 3.75833426 28.25390625 3.76953125 C30.51309686 3.77072263 32.77228797 3.7711763 35.03147888 3.7709198 C39.77028496 3.77248596 44.50901563 3.78078631 49.24780273 3.79418945 C55.33695537 3.81118916 61.42602512 3.8150036 67.51519871 3.81424427 C72.18101296 3.81451554 76.84680892 3.81998972 81.51261711 3.82724571 C83.75861408 3.83043864 86.00461314 3.83240123 88.25061226 3.83313942 C91.38268733 3.83529585 94.51467258 3.84402463 97.64672852 3.85473633 C98.58441574 3.85428314 99.52210297 3.85382996 100.48820496 3.85336304 C106.88552622 3.88552622 106.88552622 3.88552622 108 5 C108.09268999 6.35094982 108.11747326 7.70667091 108.11352539 9.06079102 C108.11344986 9.92160782 108.11337433 10.78242462 108.11329651 11.66932678 C108.10813522 12.60473801 108.10297394 13.54014923 108.09765625 14.50390625 C108.09553383 15.93342873 108.09553383 15.93342873 108.09336853 17.39183044 C108.08775152 20.44875165 108.07519616 23.50560077 108.0625 26.5625 C108.05748719 28.62955624 108.05292391 30.69661362 108.04882812 32.76367188 C108.03777656 37.84247588 108.02050055 42.9212257 108 48 C107.67 48 107.34 48 107 48 C107 34.47 107 20.94 107 7 C106.34 7 105.68 7 105 7 C105 6.34 105 5.68 105 5 C72.66 5 40.32 5 7 5 C6.67 19.19 6.34 33.38 6 48 C9.63 48 13.26 48 17 48 C17 38.1 17 28.2 17 18 C41.75 18 66.5 18 92 18 C92 18.66 92 19.32 92 20 C68.24 20 44.48 20 20 20 C20 29.9 20 39.8 20 50 C19.67 50.99 19.34 51.98 19 53 C19.33 53.66 19.66 54.32 20 55 C20.09654864 56.78961105 20.13075451 58.58278765 20.1328125 60.375 C20.13410156 61.44234375 20.13539062 62.5096875 20.13671875 63.609375 C20.13285156 64.72828125 20.12898438 65.8471875 20.125 67 C20.12886719 68.11890625 20.13273437 69.2378125 20.13671875 70.390625 C20.13542969 71.45796875 20.13414063 72.5253125 20.1328125 73.625 C20.13168457 74.60726562 20.13055664 75.58953125 20.12939453 76.6015625 C20 79 20 79 19 81 C-3.77 81 -26.54 81 -50 81 C-50 80.34 -50 79.68 -50 79 C-27.56 79 -5.12 79 18 79 C18 71.08 18 63.16 18 55 C12.72 55 7.44 55 2 55 C2 54.34 2 53.68 2 53 C1.34 53 0.68 53 0 53 C0 35.51 0 18.02 0 0 Z " fill="#868686" transform="translate(92,24)"/>
<path d="M0 0 C0.66 0 1.32 0 2 0 C1.67 20.46 1.34 40.92 1 62 C1.99 62 2.98 62 4 62 C4 62.66 4 63.32 4 64 C13.24 64 22.48 64 32 64 C32.33 56.74 32.66 49.48 33 42 C33.99 42 34.98 42 36 42 C36.04626791 53.56960037 36.08184092 65.13917885 36.10362434 76.70885277 C36.1140774 82.08067458 36.12826429 87.45243327 36.15087891 92.82421875 C36.17255311 98.00483448 36.18455715 103.18538935 36.18975449 108.36604691 C36.19346002 110.34607527 36.20069562 112.32610018 36.21146011 114.30610275 C36.22590302 117.07181846 36.22798098 119.83728021 36.22705078 122.60302734 C36.23424133 123.42805252 36.24143188 124.2530777 36.24884033 125.10310364 C36.22810432 130.77189568 36.22810432 130.77189568 34 133 C31.56823603 133.24501495 29.24135116 133.37324921 26.8046875 133.4140625 C26.09724396 133.43342865 25.38980042 133.4527948 24.66091919 133.4727478 C22.39906915 133.53257652 20.1371683 133.57894101 17.875 133.625 C16.3424256 133.66317686 14.80987272 133.70222842 13.27734375 133.7421875 C9.51834053 133.83992973 5.75956932 133.91946808 2 134 C2 142.58 2 151.16 2 160 C2.66 160 3.32 160 4 160 C4 160.66 4 161.32 4 162 C25.45 162 46.9 162 69 162 C69 161.34 69 160.68 69 160 C69.99 160 70.98 160 72 160 C72 161.65 72 163.3 72 165 C62.62964062 165.02312504 53.25929099 165.04091591 43.88890934 165.05181217 C39.53831541 165.05704065 35.18774093 165.06413765 30.8371582 165.07543945 C26.64209742 165.08626959 22.44705541 165.0922771 18.25198174 165.09487724 C16.64793032 165.09673126 15.04387997 165.10035144 13.4398365 165.10573006 C11.20083485 165.11294219 8.9619117 165.11399087 6.72290039 165.11352539 C5.44604874 165.115746 4.16919708 165.11796661 2.85365295 165.12025452 C-0 165 -0 165 -1 164 C-1.10081087 161.64768301 -1.13972939 159.32538053 -1.1328125 156.97265625 C-1.13376923 156.26854111 -1.13472595 155.56442596 -1.13571167 154.838974 C-1.13639341 153.34683137 -1.13453952 151.85468579 -1.13037109 150.36254883 C-1.12503063 148.07561582 -1.1303121 145.78887992 -1.13671875 143.50195312 C-1.13605781 142.05468707 -1.13477632 140.60742113 -1.1328125 139.16015625 C-1.13584885 138.13040428 -1.13584885 138.13040428 -1.13894653 137.07984924 C-1.11495764 132.22991527 -1.11495764 132.22991527 0 130 C10.56 129.67 21.12 129.34 32 129 C32 108.21 32 87.42 32 66 C21.44 66 10.88 66 0 66 C0 44.22 0 22.44 0 0 Z " fill="#363636" transform="translate(42,107)"/>
<path d="M0 0 C21.78 0 43.56 0 66 0 C66 20.13 66 40.26 66 61 C88.44 61 110.88 61 134 61 C134 61.99 134 62.98 134 64 C134.66 64 135.32 64 136 64 C136 83.47 136 102.94 136 123 C135.34 123 134.68 123 134 123 C134 123.66 134 124.32 134 125 C124.43 125 114.86 125 105 125 C105 117.08 105 109.16 105 101 C105.99 101 106.98 101 108 101 C108 107.93 108 114.86 108 122 C116.25 122 124.5 122 133 122 C133 102.86 133 83.72 133 64 C125.77996094 64.01740234 125.77996094 64.01740234 118.4140625 64.03515625 C115.36979032 64.04026409 112.32552341 64.04507794 109.28125 64.04882812 C104.44627794 64.05481239 99.61132477 64.06190162 94.77636719 64.07543945 C90.879559 64.08628254 86.98277105 64.09227987 83.08594894 64.09487724 C81.59715837 64.09672892 80.10836893 64.10034463 78.61958694 64.10573006 C76.53884715 64.11295934 74.45819168 64.11399014 72.37744141 64.11352539 C71.19163483 64.115746 70.00582825 64.11796661 68.78408813 64.12025452 C66 64 66 64 64 63 C64 42.87 64 22.74 64 2 C42.88 2 21.76 2 0 2 C0 1.34 0 0.68 0 0 Z " fill="#7F7F7F" transform="translate(116,46)"/>
<path d="M0 0 C1.98 0 3.96 0 6 0 C6 4.29 6 8.58 6 13 C5.34 13 4.68 13 4 13 C4 15.97 4 18.94 4 22 C4.66 22 5.32 22 6 22 C6 22.66 6 23.32 6 24 C7.65 24 9.3 24 11 24 C11 23.34 11 22.68 11 22 C12.32 22 13.64 22 15 22 C15 21.34 15 20.68 15 20 C15.66 20 16.32 20 17 20 C17 19.34 17 18.68 17 18 C19.31 18 21.62 18 24 18 C24 19.32 24 20.64 24 22 C23.34 22 22.68 22 22 22 C22 22.66 22 23.32 22 24 C21.01 24 20.02 24 19 24 C19 24.66 19 25.32 19 26 C17.68 26 16.36 26 15 26 C15 26.99 15 27.98 15 29 C14.34 29 13.68 29 13 29 C13 31.64 13 34.28 13 37 C13.66 37 14.32 37 15 37 C15 37.99 15 38.98 15 40 C15.66 40 16.32 40 17 40 C17 40.66 17 41.32 17 42 C17.99 42 18.98 42 20 42 C20.38133299 43.9914056 20.71325582 45.99279077 21 48 C20.67 48.33 20.34 48.66 20 49 C17.97591245 48.90997602 15.95455713 48.75358962 13.9375 48.5625 C12.83277344 48.46066406 11.72804687 48.35882813 10.58984375 48.25390625 C9.73519531 48.17011719 8.88054687 48.08632812 8 48 C8 47.34 8 46.68 8 46 C7.34 46 6.68 46 6 46 C6 45.34 6 44.68 6 44 C4.68 44 3.36 44 2 44 C2 43.34 2 42.68 2 42 C0.68 41.67 -0.64 41.34 -2 41 C-2 39.02 -2 37.04 -2 35 C-1.34 35 -0.68 35 0 35 C0 32.69 0 30.38 0 28 C-1.32 28 -2.64 28 -4 28 C-4.02578125 27.22914063 -4.0515625 26.45828125 -4.078125 25.6640625 C-4.13484375 24.66117188 -4.1915625 23.65828125 -4.25 22.625 C-4.29640625 21.62726563 -4.3428125 20.62953125 -4.390625 19.6015625 C-4.72160885 16.8473523 -4.72160885 16.8473523 -7.046875 15.6484375 C-7.69140625 15.43445313 -8.3359375 15.22046875 -9 15 C-9 13.68 -9 12.36 -9 11 C-8.34 11 -7.68 11 -7 11 C-7 10.34 -7 9.68 -7 9 C-6.34 9 -5.68 9 -5 9 C-4.67 7.68 -4.34 6.36 -4 5 C-3.34 5 -2.68 5 -2 5 C-2 4.34 -2 3.68 -2 3 C-1.34 3 -0.68 3 0 3 C0 2.01 0 1.02 0 0 Z " fill="#EEEEEE" transform="translate(160,140)"/>
<path d="M0 0 C1.98 0 3.96 0 6 0 C6 0.66 6 1.32 6 2 C6.66 2 7.32 2 8 2 C8 2.66 8 3.32 8 4 C8.66 4 9.32 4 10 4 C12.625 6.25 12.625 6.25 15 9 C15 10.32 15 11.64 15 13 C15.66 13 16.32 13 17 13 C17 13.66 17 14.32 17 15 C17.66 15 18.32 15 19 15 C19 15.66 19 16.32 19 17 C19.66 17 20.32 17 21 17 C21 17.66 21 18.32 21 19 C21.99 19.33 22.98 19.66 24 20 C24 21.32 24 22.64 24 24 C21.03 24 18.06 24 15 24 C15 24.66 15 25.32 15 26 C14.34 26 13.68 26 13 26 C13.01160156 26.70125 13.02320313 27.4025 13.03515625 28.125 C13.08971184 33.86113102 12.85618377 39.32778253 12 45 C10.02 45.495 10.02 45.495 8 46 C8 46.66 8 47.32 8 48 C3.71 48 -0.58 48 -5 48 C-5 45.69 -5 43.38 -5 41 C-4.34 41 -3.68 41 -3 41 C-3 40.34 -3 39.68 -3 39 C-2.34 39 -1.68 39 -1 39 C-1 38.34 -1 37.68 -1 37 C-0.01 37 0.98 37 2 37 C2 36.34 2 35.68 2 35 C2.66 35 3.32 35 4 35 C4 34.34 4 33.68 4 33 C4.66 33 5.32 33 6 33 C6 32.01 6 31.02 6 30 C6.66 30 7.32 30 8 30 C8 26.7 8 23.4 8 20 C7.34 20 6.68 20 6 20 C6 19.01 6 18.02 6 17 C5.34 17 4.68 17 4 17 C4 15.68 4 14.36 4 13 C3.34 13 2.68 13 2 13 C0.54815522 8.46298506 -0.23509196 4.81938524 0 0 Z " fill="#EDEDED" transform="translate(121,136)"/>
<path d="M0 0 C0.66 0 1.32 0 2 0 C2 18.81 2 37.62 2 57 C10.58 57 19.16 57 28 57 C28 50.07 28 43.14 28 36 C30.31 36 32.62 36 35 36 C35 67.68 35 99.36 35 132 C24.11 132 13.22 132 2 132 C2 139.92 2 147.84 2 156 C1.34 156 0.68 156 0 156 C0 147.42 0 138.84 0 130 C2.89375039 128.55312481 5.49340951 128.79764005 8.72265625 128.71875 C9.38333603 128.70034058 10.04401581 128.68193115 10.72471619 128.66296387 C13.55532493 128.58420172 16.38617171 128.51640048 19.21704102 128.44775391 C21.28153648 128.3961356 23.34582059 128.33885482 25.41015625 128.28125 C26.64902588 128.25095703 27.88789551 128.22066406 29.16430664 128.18945312 C31.90024329 128.3192224 31.90024329 128.3192224 33 127 C33.12518823 124.23143133 33.18608205 121.48658874 33.20532227 118.71655273 C33.21522186 117.84833893 33.22512146 116.98012512 33.23532104 116.08560181 C33.26703368 113.20162733 33.29173188 110.31763635 33.31640625 107.43359375 C33.33696736 105.43961649 33.3579636 103.44564368 33.37937927 101.45167542 C33.43468707 96.19259224 33.4840578 90.93346917 33.53222656 85.67431641 C33.58237818 80.31213818 33.63809726 74.95001819 33.69335938 69.58789062 C33.80104738 59.05864345 33.90246856 48.5293458 34 38 C33.01 38 32.02 38 31 38 C31.00785522 38.89307861 31.00785522 38.89307861 31.01586914 39.80419922 C31.03661999 42.49445547 31.04965407 45.18469489 31.0625 47.875 C31.07087891 48.81214844 31.07925781 49.74929687 31.08789062 50.71484375 C31.09272461 52.05869141 31.09272461 52.05869141 31.09765625 53.4296875 C31.10551147 54.67081299 31.10551147 54.67081299 31.11352539 55.93701172 C31 58 31 58 30 60 C20.76 60 11.52 60 2 60 C2 59.34 2 58.68 2 58 C1.34 58 0.68 58 0 58 C0 38.86 0 19.72 0 0 Z " fill="#565656" transform="translate(44,111)"/>
<path d="M0 0 C10.89 0 21.78 0 33 0 C33 0.33 33 0.66 33 1 C23.1 1 13.2 1 3 1 C3 20.8 3 40.6 3 61 C13.89 61 24.78 61 36 61 C37.53297297 64.06594594 37.12131455 67.27111853 37.09765625 70.6328125 C37.0962413 71.38464813 37.09482635 72.13648376 37.09336853 72.91110229 C37.08776465 75.3157751 37.07521157 77.72035527 37.0625 80.125 C37.0574855 81.75390491 37.0529225 83.38281127 37.04882812 85.01171875 C37.03779397 89.00784827 37.02052679 93.00390842 37 97 C36.34 97 35.68 97 35 97 C35 97.66 35 98.32 35 99 C10.58 99 -13.84 99 -39 99 C-39 98.34 -39 97.68 -39 97 C-14.58 96.67 9.84 96.34 35 96 C35 84.78 35 73.56 35 62 C24.22971128 62.03957286 24.22971128 62.03957286 13.45947266 62.09008789 C12.11100341 62.09300802 10.76253328 62.09555635 9.4140625 62.09765625 C8.71176514 62.10277222 8.00946777 62.10788818 7.28588867 62.11315918 C2.2281436 62.1140718 2.2281436 62.1140718 0 61 C0 40.87 0 20.74 0 0 Z " fill="#A9A9A9" transform="translate(221,175)"/>
<path d="M0 0 C22.44 0 44.88 0 68 0 C68 9.24 68 18.48 68 28 C68.66 28 69.32 28 70 28 C70 28.66 70 29.32 70 30 C91.12 30 112.24 30 134 30 C134 29.34 134 28.68 134 28 C134.66 28 135.32 28 136 28 C136 20.08 136 12.16 136 4 C136.66 4 137.32 4 138 4 C138 13.57 138 23.14 138 33 C114.24 33 90.48 33 66 33 C65.67 22.77 65.34 12.54 65 2 C43.55 1.67 22.1 1.34 0 1 C0 0.67 0 0.34 0 0 Z " fill="#343434" transform="translate(116,239)"/>
<path d="M0 0 C0.99 0 1.98 0 3 0 C3.33 1.98 3.66 3.96 4 6 C4.66 6 5.32 6 6 6 C6.33 4.68 6.66 3.36 7 2 C9.31 2 11.62 2 14 2 C14.33 4.97 14.66 7.94 15 11 C16.65 11 18.3 11 20 11 C20.43695709 16.33087655 20.43695709 16.33087655 20 19 C17.59140121 21.02829372 16.16955691 22 13 22 C13 23.32 13 24.64 13 26 C11.02 26 9.04 26 7 26 C7 24.68 7 23.36 7 22 C6.01 22 5.02 22 4 22 C4 22.66 4 23.32 4 24 C2.02 24 0.04 24 -2 24 C-2 21.03 -2 18.06 -2 15 C-4.97 15 -7.94 15 -11 15 C-11 14.34 -11 13.68 -11 13 C-8.03 13 -5.06 13 -2 13 C-2 11.35 -2 9.7 -2 8 C-1.34 8 -0.68 8 0 8 C0 5.36 0 2.72 0 0 Z " fill="#EAEAEA" transform="translate(186,182)"/>
<path d="M0 0 C2.96044922 -0.36749268 2.96044922 -0.36749268 6.8046875 -0.35644531 C7.50402405 -0.35848969 8.2033606 -0.36053406 8.92388916 -0.36264038 C11.24118998 -0.36565448 13.55778347 -0.34715313 15.875 -0.328125 C17.48160628 -0.3250683 19.0882152 -0.3231915 20.69482422 -0.32244873 C24.06423054 -0.31784171 27.43339838 -0.30340095 30.80273438 -0.28125 C35.12734394 -0.25296729 39.45176549 -0.24203894 43.77645874 -0.2375679 C47.09466442 -0.23341583 50.41283187 -0.22360013 53.73101807 -0.21169281 C55.32586358 -0.20598503 56.92071277 -0.201228 58.51556396 -0.19742584 C60.74221283 -0.19056975 62.96871146 -0.17694046 65.1953125 -0.16113281 C67.09821045 -0.15089081 67.09821045 -0.15089081 69.03955078 -0.14044189 C72 0 72 0 74 1 C74 10.9 74 20.8 74 31 C73.34 31 72.68 31 72 31 C72 21.43 72 11.86 72 2 C36.36 2.495 36.36 2.495 0 3 C0 12.24 0 21.48 0 31 C-0.33 31.66 -0.66 32.32 -1 33 C-22.45 33 -43.9 33 -66 33 C-66 32.34 -66 31.68 -66 31 C-44.88 31 -23.76 31 -2 31 C-2 21.76 -2 12.52 -2 3 C-1.34 2.01 -0.68 1.02 0 0 Z " fill="#8C8C8C" transform="translate(112,236)"/>
<path d="M0 0 C10.23 0 20.46 0 31 0 C30.67 0.66 30.34 1.32 30 2 C21.42 2 12.84 2 4 2 C4 2.66 4 3.32 4 4 C3.34 4 2.68 4 2 4 C2 12.58 2 21.16 2 30 C2.66 30 3.32 30 4 30 C4 30.66 4 31.32 4 32 C25.45 32 46.9 32 69 32 C69 31.34 69 30.68 69 30 C69.99 30 70.98 30 72 30 C72 31.65 72 33.3 72 35 C62.62964062 35.02312504 53.25929099 35.04091591 43.88890934 35.05181217 C39.53831541 35.05704065 35.18774093 35.06413765 30.8371582 35.07543945 C26.64209742 35.08626959 22.44705541 35.0922771 18.25198174 35.09487724 C16.64793032 35.09673126 15.04387997 35.10035144 13.4398365 35.10573006 C11.20083485 35.11294219 8.9619117 35.11399087 6.72290039 35.11352539 C5.44604874 35.115746 4.16919708 35.11796661 2.85365295 35.12025452 C0 35 0 35 -1 34 C-1.10081087 31.64768301 -1.13972939 29.32538053 -1.1328125 26.97265625 C-1.13376923 26.26854111 -1.13472595 25.56442596 -1.13571167 24.838974 C-1.13639341 23.34683137 -1.13453952 21.85468579 -1.13037109 20.36254883 C-1.12503063 18.07561582 -1.1303121 15.78887992 -1.13671875 13.50195312 C-1.13605781 12.05468707 -1.13477632 10.60742113 -1.1328125 9.16015625 C-1.13483673 8.47365494 -1.13686096 7.78715363 -1.13894653 7.07984924 C-1.11495764 2.22991527 -1.11495764 2.22991527 0 0 Z " fill="#393939" transform="translate(42,237)"/>
<path d="M0 0 C1.99954746 -0.04254356 4.00041636 -0.04080783 6 0 C7 1 7 1 7.09765625 3.50390625 C7.08605469 4.51324219 7.07445312 5.52257812 7.0625 6.5625 C7.05347656 7.57441406 7.04445312 8.58632812 7.03515625 9.62890625 C7.02355469 10.41136719 7.01195312 11.19382813 7 12 C8.32 12 9.64 12 11 12 C11 14.31 11 16.62 11 19 C9.68 19 8.36 19 7 19 C7.020625 20.11375 7.04125 21.2275 7.0625 22.375 C7 26 7 26 6 28 C4.02 28 2.04 28 0 28 C0 26.35 0 24.7 0 23 C-0.66 23 -1.32 23 -2 23 C-2 22.34 -2 21.68 -2 21 C-3.32 20.67 -4.64 20.34 -6 20 C-5.67 19.01 -5.34 18.02 -5 17 C-3.35 17 -1.7 17 0 17 C0 17.66 0 18.32 0 19 C1.32 19 2.64 19 4 19 C4 17.68 4 16.36 4 15 C1.03 15 -1.94 15 -5 15 C-5.33 13.35 -5.66 11.7 -6 10 C-7.65 10 -9.3 10 -11 10 C-11 10.99 -11 11.98 -11 13 C-11.66 13 -12.32 13 -13 13 C-13 10.69 -13 8.38 -13 6 C-9.37 6 -5.74 6 -2 6 C-1.34 4.02 -0.68 2.04 0 0 Z " fill="#242424" transform="translate(149,156)"/>
<path d="M0 0 C0.99 0 1.98 0 3 0 C3 1.32 3 2.64 3 4 C3.66 4 4.32 4 5 4 C5 4.66 5 5.32 5 6 C5.66 6 6.32 6 7 6 C7 7.65 7 9.3 7 11 C7.66 11 8.32 11 9 11 C9 13.64 9 16.28 9 19 C8.34 19 7.68 19 7 19 C7 20.65 7 22.3 7 24 C2.71 24 -1.58 24 -6 24 C-6 23.34 -6 22.68 -6 22 C-7.65 22 -9.3 22 -11 22 C-11 21.34 -11 20.68 -11 20 C-12.98 19.34 -14.96 18.68 -17 18 C-17 19.32 -17 20.64 -17 22 C-16.34 22 -15.68 22 -15 22 C-15 27.61 -15 33.22 -15 39 C-15.66 39 -16.32 39 -17 39 C-17 34.05 -17 29.1 -17 24 C-17.66 24 -18.32 24 -19 24 C-19 21.69 -19 19.38 -19 17 C-16.36 17 -13.72 17 -11 17 C-11 16.34 -11 15.68 -11 15 C-10.34 15 -9.68 15 -9 15 C-9 15.66 -9 16.32 -9 17 C-5.04 17 -1.08 17 3 17 C3 15.02 3 13.04 3 11 C2.01 11 1.02 11 0 11 C0 10.34 0 9.68 0 9 C-0.66 9 -1.32 9 -2 9 C-2 8.01 -2 7.02 -2 6 C-2.66 6 -3.32 6 -4 6 C-4 5.34 -4 4.68 -4 4 C-2.68 4 -1.36 4 0 4 C0 2.68 0 1.36 0 0 Z " fill="#595959" transform="translate(177,171)"/>
<path d="M0 0 C0.66 0 1.32 0 2 0 C2 18.15 2 36.3 2 55 C-3.94 55 -9.88 55 -16 55 C-16 62.92 -16 70.84 -16 79 C-16.66 79 -17.32 79 -18 79 C-18 59.53 -18 40.06 -18 20 C-17.34 20 -16.68 20 -16 20 C-16 29.24 -16 38.48 -16 48 C-11.71 48 -7.42 48 -3 48 C-3 49.32 -3 50.64 -3 52 C-2.01 52 -1.02 52 0 52 C0 34.84 0 17.68 0 0 Z " fill="#7A7A7A" transform="translate(202,24)"/>
<path d="M0 0 C24.75 0 49.5 0 75 0 C75 0.66 75 1.32 75 2 C51.24 2 27.48 2 3 2 C3 11.9 3 21.8 3 32 C2 33 2 33 -0.94140625 33.09765625 C-2.13636719 33.08605469 -3.33132812 33.07445312 -4.5625 33.0625 C-6.35880859 33.04896484 -6.35880859 33.04896484 -8.19140625 33.03515625 C-9.11824219 33.02355469 -10.04507813 33.01195312 -11 33 C-11 32.01 -11 31.02 -11 30 C-7.37 30 -3.74 30 0 30 C0 20.1 0 10.2 0 0 Z " fill="#7F7F7F" transform="translate(109,42)"/>
<path d="M0 0 C0.99 0 1.98 0 3 0 C3 22.44 3 44.88 3 68 C13.56 68 24.12 68 35 68 C35 68.66 35 69.32 35 70 C23.45 70 11.9 70 0 70 C0 46.9 0 23.8 0 0 Z " fill="#7D7D7D" transform="translate(39,105)"/>
<path d="M0 0 C1.98 0 3.96 0 6 0 C6 4.29 6 8.58 6 13 C5.34 13 4.68 13 4 13 C4 16.63 4 20.26 4 24 C3.34 24 2.68 24 2 24 C2 26.97 2 29.94 2 33 C1.34 33 0.68 33 0 33 C0 31.35 0 29.7 0 28 C-1.32 28 -2.64 28 -4 28 C-4.02578125 27.22914063 -4.0515625 26.45828125 -4.078125 25.6640625 C-4.13484375 24.66117188 -4.1915625 23.65828125 -4.25 22.625 C-4.29640625 21.62726563 -4.3428125 20.62953125 -4.390625 19.6015625 C-4.72160885 16.8473523 -4.72160885 16.8473523 -7.046875 15.6484375 C-7.69140625 15.43445313 -8.3359375 15.22046875 -9 15 C-9 13.68 -9 12.36 -9 11 C-8.34 11 -7.68 11 -7 11 C-7 10.34 -7 9.68 -7 9 C-6.34 9 -5.68 9 -5 9 C-4.67 7.68 -4.34 6.36 -4 5 C-3.34 5 -2.68 5 -2 5 C-2 4.34 -2 3.68 -2 3 C-1.34 3 -0.68 3 0 3 C0 2.01 0 1.02 0 0 Z " fill="#F4F4F4" transform="translate(160,140)"/>
<path d="M0 0 C10.23 0 20.46 0 31 0 C31 0.66 31 1.32 31 2 C31.66 2 32.32 2 33 2 C33 9.92 33 17.84 33 26 C32.34 26 31.68 26 31 26 C31 26.66 31 27.32 31 28 C9.88 28 -11.24 28 -33 28 C-33 27.34 -33 26.68 -33 26 C-12.21 26 8.58 26 30 26 C30 18.08 30 10.16 30 2 C20.1 2 10.2 2 0 2 C0 1.34 0 0.68 0 0 Z " fill="#A2A2A2" transform="translate(219,241)"/>
<path d="M0 0 C23.1 0 46.2 0 70 0 C70 20.13 70 40.26 70 61 C69.34 61 68.68 61 68 61 C68 41.53 68 22.06 68 2 C45.56 2 23.12 2 0 2 C0 1.34 0 0.68 0 0 Z " fill="#141414" transform="translate(114,44)"/>
<path d="M0 0 C35.64 0 71.28 0 108 0 C109.20327997 2.40655995 109.12685623 3.91443786 109.12939453 6.6015625 C109.13254669 7.55595215 109.13569885 8.5103418 109.13894653 9.49365234 C109.13591019 11.04366943 109.13591019 11.04366943 109.1328125 12.625 C109.13376923 13.68283691 109.13472595 14.74067383 109.13571167 15.83056641 C109.13639301 18.06998758 109.13454193 20.30941073 109.13037109 22.54882812 C109.12502222 25.98572201 109.13031767 29.4224852 109.13671875 32.859375 C109.13605796 35.03125029 109.13477678 37.2031255 109.1328125 39.375 C109.13483673 40.40834473 109.13686096 41.44168945 109.13894653 42.50634766 C109.13421829 43.93793213 109.13421829 43.93793213 109.12939453 45.3984375 C109.12859894 46.24067871 109.12780334 47.08291992 109.12698364 47.95068359 C109 50 109 50 108 52 C107.01 52 106.02 52 105 52 C105.11795349 45.70104178 105.24277634 39.40224618 105.37231445 33.10351562 C105.41555396 30.96194524 105.45723656 28.82034282 105.49731445 26.67871094 C105.55528371 23.59560504 105.61890079 20.51265876 105.68359375 17.4296875 C105.70030624 16.47633514 105.71701874 15.52298279 105.73423767 14.54074097 C105.75418289 13.64026031 105.77412811 12.73977966 105.79467773 11.81201172 C105.81022202 11.02591522 105.8257663 10.23981873 105.84178162 9.42990112 C106.02607586 6.59952966 106.53370445 3.7977733 107 1 C71.69 1.33 36.38 1.66 0 2 C0 1.34 0 0.68 0 0 Z " fill="#3F3F3F" transform="translate(94,24)"/>
<path d="M0 0 C0.66 0 1.32 0 2 0 C2 0.66 2 1.32 2 2 C2.66 2 3.32 2 4 2 C4 22.13 4 42.26 4 63 C2.35 63 0.7 63 -1 63 C-0.99476318 62.17274414 -0.98952637 61.34548828 -0.98413086 60.49316406 C-0.96334531 56.74545043 -0.95033476 52.99774894 -0.9375 49.25 C-0.92912109 47.94804688 -0.92074219 46.64609375 -0.91210938 45.3046875 C-0.90888672 44.05429688 -0.90566406 42.80390625 -0.90234375 41.515625 C-0.89710693 40.36352539 -0.89187012 39.21142578 -0.88647461 38.02441406 C-0.98229719 35.47161796 -1.36289625 33.44457466 -2 31 C-1.67 30.67 -1.34 30.34 -1 30 C-0.84126045 27.78312006 -0.74866163 25.56144702 -0.68359375 23.33984375 C-0.66281265 22.67537735 -0.64203156 22.01091095 -0.62062073 21.3263092 C-0.55506342 19.19681457 -0.49621215 17.06719332 -0.4375 14.9375 C-0.39432061 13.49673153 -0.35070651 12.05597601 -0.30664062 10.61523438 C-0.19937607 7.0769596 -0.09812629 3.53854131 0 0 Z " fill="#414141" transform="translate(112,44)"/>
<path d="M0 0 C0 0.99 0 1.98 0 3 C-22.44 3 -44.88 3 -68 3 C-68 21.48 -68 39.96 -68 59 C-68.66 59 -69.32 59 -70 59 C-70 39.86 -70 20.72 -70 1 C-53.10973474 0.75043408 -53.10973474 0.75043408 -45.92578125 0.64453125 C-41.01839067 0.57218773 -36.11100058 0.49981171 -31.20361328 0.42724609 C-27.24845439 0.36876309 -23.29329342 0.31042256 -19.33813095 0.25218201 C-17.82701416 0.22990524 -16.31589813 0.2075766 -14.80478287 0.18519592 C-12.69293665 0.15392675 -10.58108783 0.12283982 -8.46923828 0.09179688 C-6.66388107 0.06514954 -6.66388107 0.06514954 -4.822052 0.03796387 C-3.21479695 0.01634215 -1.60740048 0 0 0 Z " fill="#E5E5E5" transform="translate(116,109)"/>
<path d="M0 0 C11.55 0 23.1 0 35 0 C35.02094515 7.92890315 35.04098329 15.85770665 35.05175018 23.78661346 C35.05704002 27.47860391 35.06411374 31.17057155 35.07543945 34.86254883 C35.08627162 38.41570831 35.09227753 41.96884563 35.09487724 45.52202034 C35.0967309 46.88045666 35.10035038 48.23889171 35.10573006 49.59731865 C35.11294475 51.49382223 35.11340809 53.39034793 35.11352539 55.28686523 C35.115746 56.36830307 35.11796661 57.44974091 35.12025452 58.56394958 C35 61 35 61 34 62 C31.6243148 62.0883967 29.27791326 62.11530305 26.90234375 62.09765625 C25.83905602 62.09553383 25.83905602 62.09553383 24.75428772 62.09336853 C22.48198288 62.08775443 20.20977525 62.07519963 17.9375 62.0625 C16.40039204 62.05748681 14.86328255 62.05292359 13.32617188 62.04882812 C9.55074358 62.03778042 5.77538829 62.02050641 2 62 C2 61.67 2 61.34 2 61 C11.9 61 21.8 61 32 61 C32 41.2 32 21.4 32 1 C21.44 1 10.88 1 0 1 C0 0.67 0 0.34 0 0 Z " fill="#BDBDBD" transform="translate(40,175)"/>
<path d="M0 0 C0.66 0 1.32 0 2 0 C2 18.81 2 37.62 2 57 C10.58 57 19.16 57 28 57 C28 50.07 28 43.14 28 36 C28.66 36 29.32 36 30 36 C30 43.92 30 51.84 30 60 C20.76 60 11.52 60 2 60 C2 59.34 2 58.68 2 58 C1.34 58 0.68 58 0 58 C0 38.86 0 19.72 0 0 Z " fill="#A2A2A2" transform="translate(44,111)"/>
<path d="M0 0 C21.12 0 42.24 0 64 0 C64 19.47 64 38.94 64 59 C63.67 59 63.34 59 63 59 C62.98969254 58.30064835 62.97938507 57.60129669 62.96876526 56.88075256 C62.87094968 50.30286337 62.76845843 43.7250658 62.66066074 37.14733219 C62.60540198 33.76532878 62.55197744 30.38331676 62.50268555 27.0012207 C62.44599054 23.11660573 62.38142415 19.23214122 62.31640625 15.34765625 C62.29969376 14.12788589 62.28298126 12.90811554 62.26576233 11.65138245 C62.2358445 9.96975258 62.2358445 9.96975258 62.20532227 8.25415039 C62.18977798 7.26153702 62.1742337 6.26892365 62.15821838 5.24623108 C62.24881556 3.03025703 62.24881556 3.03025703 61 2 C59.18944975 1.90623947 57.37522799 1.8825589 55.56225586 1.88647461 C54.40112778 1.88655014 53.23999969 1.88662567 52.04368591 1.88670349 C50.780168 1.89186478 49.51665009 1.89702606 48.21484375 1.90234375 C46.28591026 1.90446617 46.28591026 1.90446617 44.31800842 1.90663147 C40.89356557 1.91045582 37.46916491 1.92028538 34.04473877 1.93133545 C30.55261822 1.94155136 27.06049067 1.94618418 23.56835938 1.95117188 C16.71220228 1.96137753 9.85616115 1.98094923 3 2 C2.67 20.81 2.34 39.62 2 59 C1.34 59 0.68 59 0 59 C0 39.53 0 20.06 0 0 Z " fill="#DFDFDF" transform="translate(116,48)"/>
<path d="M0 0 C1.65 0 3.3 0 5 0 C5 0.66 5 1.32 5 2 C5.66 2 6.32 2 7 2 C7 2.66 7 3.32 7 4 C8.32 4 9.64 4 11 4 C11 6.97 11 9.94 11 13 C11.66 13 12.32 13 13 13 C13 17.95 13 22.9 13 28 C11.68 28 10.36 28 9 28 C9 27.34 9 26.68 9 26 C8.34 26 7.68 26 7 26 C7 25.34 7 24.68 7 24 C6.34 24 5.68 24 5 24 C5 22.35 5 20.7 5 19 C4.34 19 3.68 19 3 19 C0.99134292 12.49577707 -0.38614349 6.8218683 0 0 Z " fill="#E8E8E8" transform="translate(142,180)"/>
<path d="M0 0 C4.95 0 9.9 0 15 0 C15 1.65 15 3.3 15 5 C15.99 5 16.98 5 18 5 C17.67 10.94 17.34 16.88 17 23 C16.34 23 15.68 23 15 23 C15 19.37 15 15.74 15 12 C10.71 12 6.42 12 2 12 C2 15.3 2 18.6 2 22 C1.34 22 0.68 22 0 22 C0 14.74 0 7.48 0 0 Z " fill="#909090" transform="translate(125,52)"/>
<path d="M0 0 C1.65 0 3.3 0 5 0 C5 0.66 5 1.32 5 2 C5.66 2 6.32 2 7 2 C7 3.32 7 4.64 7 6 C7.66 6 8.32 6 9 6 C9 6.66 9 7.32 9 8 C9.515625 7.67 10.03125 7.34 10.5625 7 C13.78026512 5.67989123 16.5570528 5.86757895 20 6 C20 5.34 20 4.68 20 4 C19.34 4 18.68 4 18 4 C18 3.34 18 2.68 18 2 C20.97 2 23.94 2 27 2 C27 3.32 27 4.64 27 6 C28.98 6 30.96 6 33 6 C33 5.34 33 4.68 33 4 C35.31 4 37.62 4 40 4 C40 6.31 40 8.62 40 11 C39.34 11 38.68 11 38 11 C38 9.68 38 8.36 38 7 C37.37996094 7.144375 36.75992188 7.28875 36.12109375 7.4375 C27.98053166 9.14381869 20.28006057 9.20113507 12 9 C12 10.98 12 12.96 12 15 C9.69 15 7.38 15 5 15 C5 14.34 5 13.68 5 13 C4.34 13 3.68 13 3 13 C-0.4887612 8.70614007 -0.26854022 5.28129105 0 0 Z " fill="#787878" transform="translate(98,182)"/>
<path d="M0 0 C0.66 0 1.32 0 2 0 C2 11.22 2 22.44 2 34 C26.42 34 50.84 34 76 34 C76 34.99 76 35.98 76 37 C50.59 37 25.18 37 -1 37 C-1 2 -1 2 0 0 Z " fill="#8C8C8C" transform="translate(40,237)"/>
<path d="M0 0 C0.33 1.32 0.66 2.64 1 4 C1.99 4 2.98 4 4 4 C4 4.66 4 5.32 4 6 C4.66 6 5.32 6 6 6 C6 6.99 6 7.98 6 9 C6.66 9 7.32 9 8 9 C8 12.3 8 15.6 8 19 C7.34 19 6.68 19 6 19 C6 19.99 6 20.98 6 22 C5.34 22 4.68 22 4 22 C4 22.66 4 23.32 4 24 C3.34 24 2.68 24 2 24 C2 24.66 2 25.32 2 26 C1.01 26 0.02 26 -1 26 C-1 26.66 -1 27.32 -1 28 C-1.66 28 -2.32 28 -3 28 C-3 28.66 -3 29.32 -3 30 C-3.66 30 -4.32 30 -5 30 C-5 32.97 -5 35.94 -5 39 C-4.34 39 -3.68 39 -3 39 C-3 39.66 -3 40.32 -3 41 C-5.31 41 -7.62 41 -10 41 C-12.32590854 37.36576791 -12.16265833 34.22911669 -12 30 C-11.34 30 -10.68 30 -10 30 C-10 29.34 -10 28.68 -10 28 C-9.01 28 -8.02 28 -7 28 C-7 27.34 -7 26.68 -7 26 C-6.34 26 -5.68 26 -5 26 C-5 25.34 -5 24.68 -5 24 C-4.34 24 -3.68 24 -3 24 C-3 23.34 -3 22.68 -3 22 C-2.01 22 -1.02 22 0 22 C0.66 20.35 1.32 18.7 2 17 C2.66 17 3.32 17 4 17 C4 15.68 4 14.36 4 13 C3.34 13 2.68 13 2 13 C2 10.69 2 8.38 2 6 C1.34 6 0.68 6 0 6 C0 4.02 0 2.04 0 0 Z " fill="#5C5C5C" transform="translate(121,147)"/>
<path d="M0 0 C0.33 0 0.66 0 1 0 C1 1.65 1 3.3 1 5 C1.99 5 2.98 5 4 5 C3.67 8.96 3.34 12.92 3 17 C1.68 17.33 0.36 17.66 -1 18 C-1 18.66 -1 19.32 -1 20 C-5.29 20 -9.58 20 -14 20 C-14 17.69 -14 15.38 -14 13 C-13.34 13 -12.68 13 -12 13 C-12 12.34 -12 11.68 -12 11 C-11.34 11 -10.68 11 -10 11 C-10 10.34 -10 9.68 -10 9 C-9.01 9 -8.02 9 -7 9 C-7 8.34 -7 7.68 -7 7 C-6.34 7 -5.68 7 -5 7 C-5 6.34 -5 5.68 -5 5 C-3.35 5 -1.7 5 0 5 C0 3.35 0 1.7 0 0 Z " fill="#EFEFEF" transform="translate(130,164)"/>
<path d="M0 0 C0.33 0 0.66 0 1 0 C1 19.47 1 38.94 1 59 C-8.57 59 -18.14 59 -28 59 C-28 51.08 -28 43.16 -28 35 C-27.01 35 -26.02 35 -25 35 C-25 41.93 -25 48.86 -25 56 C-16.75 56 -8.5 56 0 56 C0 37.52 0 19.04 0 0 Z " fill="#D0D0D0" transform="translate(249,112)"/>
<path d="M0 0 C1.28087494 0.00007553 2.56174988 0.00015106 3.88143921 0.00022888 C5.26422159 0.00533434 6.64700358 0.01055031 8.02978516 0.01586914 C9.45610504 0.01773622 10.88242558 0.01915875 12.30874634 0.02015686 C16.04711708 0.02395924 19.78544844 0.03376987 23.52380371 0.04486084 C27.34480253 0.05512415 31.16580776 0.05966499 34.98681641 0.06469727 C42.47251136 0.07539436 49.95817397 0.09244316 57.44384766 0.11352539 C57.44384766 0.77352539 57.44384766 1.43352539 57.44384766 2.11352539 C58.43384766 2.60852539 58.43384766 2.60852539 59.44384766 3.11352539 C35.68384766 3.11352539 11.92384766 3.11352539 -12.55615234 3.11352539 C-12.55615234 2.45352539 -12.55615234 1.79352539 -12.55615234 1.11352539 C-8.31356158 0.30619001 -4.316113 -0.00852987 0 0 Z " fill="#E6E6E6" transform="translate(124.55615234375,38.886474609375)"/>
<path d="M0 0 C2.31 0 4.62 0 7 0 C7.33 1.65 7.66 3.3 8 5 C9.98 5 11.96 5 14 5 C14 9.29 14 13.58 14 18 C11.69 18 9.38 18 7 18 C7 14.37 7 10.74 7 7 C6.34 7 5.68 7 5 7 C5 7.66 5 8.32 5 9 C4.34 9 3.68 9 3 9 C3 11.31 3 13.62 3 16 C1.35 16 -0.3 16 -2 16 C-2 11.38 -2 6.76 -2 2 C-1.34 2 -0.68 2 0 2 C0 1.34 0 0.68 0 0 Z " fill="#CBCBCB" transform="translate(98,120)"/>
<path d="M0 0 C0.66 0 1.32 0 2 0 C2 31.02 2 62.04 2 94 C1.34 94 0.68 94 0 94 C-0.15531622 84.54946678 -0.30345982 75.09885407 -0.4429636 65.64807415 C-0.50798629 61.25758991 -0.57528916 56.86716764 -0.64819336 52.47680664 C-0.71873321 48.22338349 -0.78277438 43.96990364 -0.84269524 39.71631813 C-0.86638675 38.11036567 -0.89224596 36.50444336 -0.92053413 34.89856529 C-1.12413187 23.22229716 -0.73956448 11.65435202 0 0 Z " fill="#DEDEDE" transform="translate(215,147)"/>
<path d="M0 0 C0.66 0 1.32 0 2 0 C2 3.63 2 7.26 2 11 C1.34 11 0.68 11 0 11 C0 12.32 0 13.64 0 15 C1.32 15 2.64 15 4 15 C4 13.68 4 12.36 4 11 C4.99 11 5.98 11 7 11 C7 10.34 7 9.68 7 9 C8.32 9 9.64 9 11 9 C11.3125 11.8125 11.3125 11.8125 11 15 C8.61107499 16.88599343 7.08148442 18 4 18 C4 19.32 4 20.64 4 22 C2.02 22 0.04 22 -2 22 C-2 20.68 -2 19.36 -2 18 C-4.31 18 -6.62 18 -9 18 C-9 16.35 -9 14.7 -9 13 C-8.34 13 -7.68 13 -7 13 C-7 12.34 -7 11.68 -7 11 C-6.34 11 -5.68 11 -5 11 C-4.01 8.03 -3.02 5.06 -2 2 C-1.34 2 -0.68 2 0 2 C0 1.34 0 0.68 0 0 Z " fill="#878787" transform="translate(195,186)"/>
<path d="M0 0 C8.83155316 -0.02314123 17.66309594 -0.0409242 26.49467278 -0.05181217 C30.59525496 -0.05703709 34.69581645 -0.06412768 38.79638672 -0.07543945 C42.75154957 -0.08628218 46.70669248 -0.09227979 50.66186905 -0.09487724 C52.17298827 -0.09672898 53.68410637 -0.10034482 55.19521713 -0.10573006 C57.30708958 -0.11295886 59.41887895 -0.11399016 61.53076172 -0.11352539 C62.73433319 -0.115746 63.93790466 -0.11796661 65.177948 -0.12025452 C68 0 68 0 70 1 C70 20.47 70 39.94 70 60 C69.34 60 68.68 60 68 60 C67.67 40.53 67.34 21.06 67 1 C44.89 1 22.78 1 0 1 C0 0.67 0 0.34 0 0 Z " fill="#909090" transform="translate(182,109)"/>
<path d="M0 0 C0.66 0 1.32 0 2 0 C3.09545481 19.28769026 2.97249308 38.47425582 2.60510254 57.77526855 C2.53290249 61.65152185 2.4690111 65.52791266 2.40429688 69.40429688 C2.27739024 76.93635038 2.14171307 84.46820891 2 92 C1.34 92 0.68 92 0 92 C0 61.64 0 31.28 0 0 Z " fill="#1A1A1A" transform="translate(219,147)"/>
<path d="M0 0 C0 0.66 0 1.32 0 2 C0.66 2 1.32 2 2 2 C2 4.31 2 6.62 2 9 C1.34 9 0.68 9 0 9 C0 9.66 0 10.32 0 11 C-0.66 11 -1.32 11 -2 11 C-2 11.99 -2 12.98 -2 14 C-2.66 14 -3.32 14 -4 14 C-4 14.66 -4 15.32 -4 16 C-5.65 16 -7.3 16 -9 16 C-9 17.32 -9 18.64 -9 20 C-10.32 20 -11.64 20 -13 20 C-13 18.02 -13 16.04 -13 14 C-12.34 14 -11.68 14 -11 14 C-11 13.01 -11 12.02 -11 11 C-9.68 11 -8.36 11 -7 11 C-7 10.34 -7 9.68 -7 9 C-6.01 9 -5.02 9 -4 9 C-4 8.34 -4 7.68 -4 7 C-3.34 7 -2.68 7 -2 7 C-2 5.68 -2 4.36 -2 3 C-4.31 3 -6.62 3 -9 3 C-9 3.66 -9 4.32 -9 5 C-9.66 5 -10.32 5 -11 5 C-11 5.66 -11 6.32 -11 7 C-13.64 7 -16.28 7 -19 7 C-19 5.68 -19 4.36 -19 3 C-17.783125 2.71125 -16.56625 2.4225 -15.3125 2.125 C-12.82051954 1.51623852 -10.72424152 0.87525212 -8.375 -0.1875 C-5.29214101 -1.24216228 -3.12971316 -0.72784027 0 0 Z " fill="#363636" transform="translate(186,155)"/>
<path d="M0 0 C21.12 0 42.24 0 64 0 C64 9.24 64 18.48 64 28 C64.66 28 65.32 28 66 28 C66 28.99 66 29.98 66 31 C65.01 31 64.02 31 63 31 C63 21.43 63 11.86 63 2 C33.3 1.505 33.3 1.505 3 1 C2.67 10.24 2.34 19.48 2 29 C1.34 29 0.68 29 0 29 C0 19.43 0 9.86 0 0 Z " fill="#EDEDED" transform="translate(116,243)"/>
<path d="M0 0 C0.66 0 1.32 0 2 0 C2 0.66 2 1.32 2 2 C24.44 2 46.88 2 70 2 C70 3.32 70 4.64 70 6 C68.68 6 67.36 6 66 6 C66 5.34 66 4.68 66 4 C43.56 4 21.12 4 -2 4 C-2 3.34 -2 2.68 -2 2 C-1.34 2 -0.68 2 0 2 C0 1.34 0 0.68 0 0 Z " fill="#383838" transform="translate(184,103)"/>
<path d="M0 0 C0.66 0 1.32 0 2 0 C1.67 20.46 1.34 40.92 1 62 C1.99 62 2.98 62 4 62 C4 62.66 4 63.32 4 64 C14.23 64 24.46 64 35 64 C35 65.32 35 66.64 35 68 C34.01 68 33.02 68 32 68 C32 67.34 32 66.68 32 66 C21.44 66 10.88 66 0 66 C0 44.22 0 22.44 0 0 Z " fill="#2E2E2E" transform="translate(42,107)"/>
<path d="M0 0 C0.66 0 1.32 0 2 0 C2.17683508 8.83136422 2.34279915 17.66284553 2.49477577 26.49467278 C2.56568392 30.59536793 2.6403762 34.69592221 2.72363281 38.79638672 C2.80379883 42.75142586 2.87413417 46.70652746 2.93757248 50.66186905 C2.96355384 52.17305092 2.99311463 53.68417551 3.02626419 55.19521713 C3.07199001 57.307027 3.10513718 59.41867981 3.13525391 61.53076172 C3.15746002 62.73433319 3.17966614 63.93790466 3.20254517 65.177948 C3 68 3 68 1 70 C0.01 70 -0.98 70 -2 70 C-2 69.34 -2 68.68 -2 68 C-1.34 68 -0.68 68 0 68 C0 45.56 0 23.12 0 0 Z " fill="#DADADA" transform="translate(256,105)"/>
<path d="M0 0 C12.21 0 24.42 0 37 0 C37 1.32 37 2.64 37 4 C24.79 4 12.58 4 0 4 C0 2.68 0 1.36 0 0 Z " fill="#505050" transform="translate(129,92)"/>
<path d="M0 0 C4.29 0 8.58 0 13 0 C13 3.63 13 7.26 13 11 C2.25 11.125 2.25 11.125 0 10 C0 6.7 0 3.4 0 0 Z " fill="#4C4C4C" transform="translate(127,64)"/>
<path d="M0 0 C0.66 0 1.32 0 2 0 C2 0.66 2 1.32 2 2 C7.28 2 12.56 2 18 2 C18 9.92 18 17.84 18 26 C-4.44 26 -26.88 26 -50 26 C-50 26.66 -50 27.32 -50 28 C-50.99 28 -51.98 28 -53 28 C-53 27.34 -53 26.68 -53 26 C-50.14429301 24.5721465 -47.72285644 24.88058514 -44.53076172 24.88647461 C-43.53545944 24.88625557 -43.53545944 24.88625557 -42.52005005 24.8860321 C-40.32322947 24.88672969 -38.1264933 24.89451486 -35.9296875 24.90234375 C-34.40796963 24.90420848 -32.88625116 24.90563212 -31.36453247 24.90663147 C-27.35648953 24.91045233 -23.34848274 24.92027896 -19.3404541 24.93133545 C-15.25171396 24.94155882 -11.16296799 24.94613108 -7.07421875 24.95117188 C0.95053928 24.9619016 8.97526098 24.97949493 17 25 C17 18.07 17 11.14 17 4 C11.39 4 5.78 4 0 4 C0 2.68 0 1.36 0 0 Z " fill="#EBEBEB" transform="translate(92,77)"/>
<path d="M0 0 C22.44 0 44.88 0 68 0 C68 9.9 68 19.8 68 30 C67.34 30 66.68 30 66 30 C65.67 20.76 65.34 11.52 65 2 C43.55 1.67 22.1 1.34 0 1 C0 0.67 0 0.34 0 0 Z " fill="#282828" transform="translate(116,239)"/>
<path d="M0 0 C5.94 0 11.88 0 18 0 C18 0.66 18 1.32 18 2 C12.72 2 7.44 2 2 2 C1.97316303 5.14588944 1.95324098 8.29155271 1.9375 11.4375 C1.92912109 12.33533203 1.92074219 13.23316406 1.91210938 14.15820312 C1.90888672 15.01220703 1.90566406 15.86621094 1.90234375 16.74609375 C1.89710693 17.53685303 1.89187012 18.3276123 1.88647461 19.14233398 C1.79504091 21.01592689 1.79504091 21.01592689 3 22 C5.02414991 22.12375169 7.05257737 22.17797311 9.08032227 22.20532227 C11.03223228 22.2352401 11.03223228 22.2352401 13.02357483 22.26576233 C14.4545174 22.28274799 15.88546125 22.29962675 17.31640625 22.31640625 C18.7722992 22.33696906 20.22818609 22.35796534 21.68406677 22.37937927 C25.52272647 22.43466961 29.36144065 22.48404802 33.20019531 22.53222656 C37.11463288 22.58239091 41.02899096 22.63810336 44.94335938 22.69335938 C52.62883901 22.80102603 60.31438457 22.90245193 68 23 C68 23.33 68 23.66 68 24 C45.56 24 23.12 24 0 24 C0 16.08 0 8.16 0 0 Z " fill="#EDEDED" transform="translate(186,79)"/>
<path d="M0 0 C1.65 0 3.3 0 5 0 C5 2.31 5 4.62 5 7 C5.66 7 6.32 7 7 7 C7 11.29 7 15.58 7 20 C4.69 20 2.38 20 0 20 C0 13.4 0 6.8 0 0 Z " fill="#878787" transform="translate(140,118)"/>
<path d="M0 0 C11.55 0 23.1 0 35 0 C35 0.66 35 1.32 35 2 C24.11 2 13.22 2 2 2 C2 9.92 2 17.84 2 26 C1.34 26 0.68 26 0 26 C0 17.42 0 8.84 0 0 Z " fill="#A2A2A2" transform="translate(44,241)"/>
<path d="M0 0 C0.66 0 1.32 0 2 0 C2.33 3.3 2.66 6.6 3 10 C3.33 7.36 3.66 4.72 4 2 C4.33 2 4.66 2 5 2 C7.28571429 10.42857143 7.28571429 10.42857143 7 15 C7.66 15 8.32 15 9 15 C9 15.66 9 16.32 9 17 C8.01 17 7.02 17 6 17 C5.67 17.66 5.34 18.32 5 19 C5.66 19 6.32 19 7 19 C7 21.31 7 23.62 7 26 C7.66 26 8.32 26 9 26 C9 27.32 9 28.64 9 30 C8.34 30 7.68 30 7 30 C6.01 32.475 6.01 32.475 5 35 C4.01 34.67 3.02 34.34 2 34 C2.66 34 3.32 34 4 34 C4 32.68 4 31.36 4 30 C4.66 30 5.32 30 6 30 C5.505 28.39125 5.505 28.39125 5 26.75 C4 23 4 23 4 19 C3.34 19 2.68 19 2 19 C2 17.68 2 16.36 2 15 C1.34 15 0.68 15 0 15 C0 10.05 0 5.1 0 0 Z " fill="#767676" transform="translate(116,134)"/>
<path d="M0 0 C0.99 0 1.98 0 3 0 C3 0.66 3 1.32 3 2 C3.66 2 4.32 2 5 2 C5 4.64 5 7.28 5 10 C4.34 10 3.68 10 3 10 C3 11.65 3 13.3 3 15 C-1.29 15 -5.58 15 -10 15 C-10 14.01 -10 13.02 -10 12 C-11.32 11.34 -12.64 10.68 -14 10 C-14 9.67 -14 9.34 -14 9 C-9.38 9 -4.76 9 0 9 C0 6.03 0 3.06 0 0 Z " fill="#616161" transform="translate(181,180)"/>
<path d="M0 0 C1.32 0 2.64 0 4 0 C4 1.32 4 2.64 4 4 C3.34 4 2.68 4 2 4 C2 4.66 2 5.32 2 6 C1.34 6 0.68 6 0 6 C0 8.97 0 11.94 0 15 C0.66 15 1.32 15 2 15 C2 15.66 2 16.32 2 17 C-0.31 17 -2.62 17 -5 17 C-7.32590854 13.36576791 -7.16265833 10.22911669 -7 6 C-6.34 6 -5.68 6 -5 6 C-5 5.34 -5 4.68 -5 4 C-4.01 4 -3.02 4 -2 4 C-2 3.34 -2 2.68 -2 2 C-1.34 2 -0.68 2 0 2 C0 1.34 0 0.68 0 0 Z " fill="#626262" transform="translate(116,171)"/>
<path d="M0 0 C1.65 0 3.3 0 5 0 C4.51486435 0.84531281 4.51486435 0.84531281 4.01992798 1.70770264 C2.89966058 4.22551375 2.72635681 5.93435366 2.68115234 8.67675781 C2.66128265 9.59741028 2.64141296 10.51806274 2.62094116 11.46661377 C2.60938995 12.45216248 2.59783875 13.43771118 2.5859375 14.453125 C2.56657135 15.46848328 2.5472052 16.48384155 2.5272522 17.52996826 C2.46751901 20.76989365 2.42109572 24.00985468 2.375 27.25 C2.33681449 29.44793208 2.29776242 31.64584928 2.2578125 33.84375 C2.16182265 39.22903456 2.07675677 44.61440883 2 50 C1.34 50 0.68 50 0 50 C0 33.5 0 17 0 0 Z " fill="#191919" transform="translate(94,26)"/>
<path d="M0 0 C3.96 0 7.92 0 12 0 C12 2.97 12 5.94 12 9 C8.04 9 4.08 9 0 9 C0 6.03 0 3.06 0 0 Z " fill="#181818" transform="translate(156,66)"/>
<path d="M0 0 C0.99 0 1.98 0 3 0 C3 0.66 3 1.32 3 2 C4.32 2 5.64 2 7 2 C7 2.66 7 3.32 7 4 C5.68 4 4.36 4 3 4 C3.020625 5.11375 3.04125 6.2275 3.0625 7.375 C3 11 3 11 2 13 C0.02 13 -1.96 13 -4 13 C-4 11.35 -4 9.7 -4 8 C-4.66 8 -5.32 8 -6 8 C-6 7.34 -6 6.68 -6 6 C-7.32 5.67 -8.64 5.34 -10 5 C-9.67 4.01 -9.34 3.02 -9 2 C-7.35 2 -5.7 2 -4 2 C-4 2.66 -4 3.32 -4 4 C-2.68 4 -1.36 4 0 4 C0 2.68 0 1.36 0 0 Z " fill="#393939" transform="translate(153,171)"/>
<path d="M0 0 C3.96 0 7.92 0 12 0 C12.33 1.32 12.66 2.64 13 4 C14.32 4 15.64 4 17 4 C17 5.65 17 7.3 17 9 C15.68 9 14.36 9 13 9 C13 8.34 13 7.68 13 7 C9.04 7 5.08 7 1 7 C0.67 4.69 0.34 2.38 0 0 Z " fill="#1F1F1F" transform="translate(143,164)"/>
<path d="M0 0 C0.66 0 1.32 0 2 0 C2 7.26 2 14.52 2 22 C10.91 22 19.82 22 29 22 C29 22.66 29 23.32 29 24 C19.43 24 9.86 24 0 24 C0 16.08 0 8.16 0 0 Z " fill="#909090" transform="translate(221,147)"/>
<path d="M0 0 C0.66 0 1.32 0 2 0 C2 3.96 2 7.92 2 12 C6.62 12 11.24 12 16 12 C16 12.33 16 12.66 16 13 C11.71 13 7.42 13 3 13 C3.04125 14.258125 3.0825 15.51625 3.125 16.8125 C3.2390374 20.29064073 3.05925681 20.91111478 1 24 C-1.8203125 24.29296875 -1.8203125 24.29296875 -5.125 24.1875 C-6.22070312 24.16042969 -7.31640625 24.13335937 -8.4453125 24.10546875 C-9.70988281 24.05326172 -9.70988281 24.05326172 -11 24 C-10.67 23.34 -10.34 22.68 -10 22 C-6.7 22 -3.4 22 0 22 C0 19.69 0 17.38 0 15 C-1.32 15 -2.64 15 -4 15 C-4 14.01 -4 13.02 -4 12 C-2.68 11.67 -1.36 11.34 0 11 C0 7.37 0 3.74 0 0 Z " fill="#A7A7A7" transform="translate(153,64)"/>
<path d="M0 0 C0 2.64 0 5.28 0 8 C-0.66 8 -1.32 8 -2 8 C-2 10.31 -2 12.62 -2 15 C-3.65 15 -5.3 15 -7 15 C-7 10.38 -7 5.76 -7 1 C-4 0 -4 0 0 0 Z " fill="#848484" transform="translate(103,121)"/>
<path d="M0 0 C1.65 0 3.3 0 5 0 C5 0.66 5 1.32 5 2 C5.66 2 6.32 2 7 2 C7 4.31 7 6.62 7 9 C7.66 9 8.32 9 9 9 C9 10.32 9 11.64 9 13 C6.1875 13.3125 6.1875 13.3125 3 13 C0.24386182 10.06011927 -0.16677466 7.57695599 -0.1875 3.6875 C-0.125625 2.470625 -0.06375 1.25375 0 0 Z " fill="#505050" transform="translate(98,182)"/>
<path d="M0 0 C2.31 0 4.62 0 7 0 C7.33 2.97 7.66 5.94 8 9 C9.65 9 11.3 9 13 9 C13 9.66 13 10.32 13 11 C11.68 11 10.36 11 9 11 C9 11.66 9 12.32 9 13 C8.01 13 7.02 13 6 13 C6 14.32 6 15.64 6 17 C4.68 17 3.36 17 2 17 C2 15.68 2 14.36 2 13 C2.66 13 3.32 13 4 13 C4 9.37 4 5.74 4 2 C3.34 2 2.68 2 2 2 C2 2.66 2 3.32 2 4 C1.34 4 0.68 4 0 4 C0 2.68 0 1.36 0 0 Z " fill="#D9D9D9" transform="translate(193,184)"/>
<path d="M0 0 C0.66 0 1.32 0 2 0 C2 0.66 2 1.32 2 2 C2.66 2 3.32 2 4 2 C4 4.97 4 7.94 4 11 C1.03 11 -1.94 11 -5 11 C-5 11.66 -5 12.32 -5 13 C-6.98 13 -8.96 13 -11 13 C-11 11.68 -11 10.36 -11 9 C-8.36 9 -5.72 9 -3 9 C-3 8.34 -3 7.68 -3 7 C-2.01 7 -1.02 7 0 7 C0 4.69 0 2.38 0 0 Z " fill="#393939" transform="translate(136,175)"/>
<path d="M0 0 C3.3 0 6.6 0 10 0 C10 1.32 10 2.64 10 4 C7.36 4 4.72 4 2 4 C2.165 5.258125 2.33 6.51625 2.5 7.8125 C3.11073012 13.2144509 3.09133564 18.57060338 3 24 C2.67 24 2.34 24 2 24 C0.15467286 18.52940419 -0.25309068 13.81180072 -0.125 8.0625 C-0.11597656 7.28326172 -0.10695312 6.50402344 -0.09765625 5.70117188 C-0.07433691 3.80064553 -0.03847586 1.90027992 0 0 Z " fill="#282828" transform="translate(156,184)"/>
<path d="M0 0 C0.66 0 1.32 0 2 0 C2 1.32 2 2.64 2 4 C1.34 4 0.68 4 0 4 C0 4.66 0 5.32 0 6 C-0.66 6 -1.32 6 -2 6 C-1.34 7.03125 -0.68 8.0625 0 9.125 C1.97282726 12.53576826 2.38827665 15.0201643 2 19 C2.66 19 3.32 19 4 19 C4 19.66 4 20.32 4 21 C4.66 21 5.32 21 6 21 C6 23.31 6 25.62 6 28 C5.34 28 4.68 28 4 28 C4 26.35 4 24.7 4 23 C2.68 23 1.36 23 0 23 C-0.02578125 22.22914063 -0.0515625 21.45828125 -0.078125 20.6640625 C-0.13484375 19.66117188 -0.1915625 18.65828125 -0.25 17.625 C-0.29640625 16.62726563 -0.3428125 15.62953125 -0.390625 14.6015625 C-0.72160885 11.8473523 -0.72160885 11.8473523 -3.046875 10.6484375 C-3.69140625 10.43445313 -4.3359375 10.22046875 -5 10 C-5 8.68 -5 7.36 -5 6 C-4.34 6 -3.68 6 -3 6 C-3 5.34 -3 4.68 -3 4 C-2.34 4 -1.68 4 -1 4 C-0.67 2.68 -0.34 1.36 0 0 Z " fill="#C4C4C4" transform="translate(156,145)"/>
<path d="M0 0 C4.95 0 9.9 0 15 0 C15 1.65 15 3.3 15 5 C10.05 5 5.1 5 0 5 C0 3.35 0 1.7 0 0 Z " fill="#C1C1C1" transform="translate(125,52)"/>
<path d="M0 0 C0.66 0 1.32 0 2 0 C2 3.63 2 7.26 2 11 C1.34 11 0.68 11 0 11 C0 11.66 0 12.32 0 13 C-0.66 13 -1.32 13 -2 13 C-2 13.66 -2 14.32 -2 15 C-2.99 15 -3.98 15 -5 15 C-5 15.66 -5 16.32 -5 17 C-5.66 16.67 -6.32 16.34 -7 16 C-5.35 11.38 -3.7 6.76 -2 2 C-1.34 2 -0.68 2 0 2 C0 1.34 0 0.68 0 0 Z " fill="#545454" transform="translate(195,186)"/>
<path d="M0 0 C11.22 0 22.44 0 34 0 C34 1.32 34 2.64 34 4 C33.01 4 32.02 4 31 4 C31 3.34 31 2.68 31 2 C20.77 2 10.54 2 0 2 C0 1.34 0 0.68 0 0 Z " fill="#1C1C1C" transform="translate(43,171)"/>
<path d="M0 0 C0.66 0 1.32 0 2 0 C2 1.98 2 3.96 2 6 C3.32 6.33 4.64 6.66 6 7 C6 7.66 6 8.32 6 9 C4.02 9 2.04 9 0 9 C0 16.92 0 24.84 0 33 C-0.33 33 -0.66 33 -1 33 C-1 28.05 -1 23.1 -1 18 C-1.66 18 -2.32 18 -3 18 C-3 15.03 -3 12.06 -3 9 C-2.34 9 -1.68 9 -1 9 C-0.67 6.03 -0.34 3.06 0 0 Z " fill="#838383" transform="translate(156,175)"/>
<path d="M0 0 C1.093125 0.00257812 2.18625 0.00515625 3.3125 0.0078125 C4.405625 0.00523438 5.49875 0.00265625 6.625 0 C9.3125 0.1328125 9.3125 0.1328125 10.3125 1.1328125 C10.45605117 5.13501903 10.35466403 9.12722933 10.3125 13.1328125 C5.6925 13.1328125 1.0725 13.1328125 -3.6875 13.1328125 C-3.78515625 3.85546875 -3.78515625 3.85546875 -3.6875 1.1328125 C-2.6875 0.1328125 -2.6875 0.1328125 0 0 Z M-2.6875 3.1328125 C-2.6875 6.1028125 -2.6875 9.0728125 -2.6875 12.1328125 C1.2725 12.1328125 5.2325 12.1328125 9.3125 12.1328125 C9.3125 9.1628125 9.3125 6.1928125 9.3125 3.1328125 C5.3525 3.1328125 1.3925 3.1328125 -2.6875 3.1328125 Z " fill="#696969" transform="translate(158.6875,62.8671875)"/>
<path d="M0 0 C8.57142857 -0.28571429 8.57142857 -0.28571429 12 2 C12 3.32 12 4.64 12 6 C10.68 6 9.36 6 8 6 C8 5.34 8 4.68 8 4 C5.69 4 3.38 4 1 4 C1 7.63 1 11.26 1 15 C-1.18085057 11.72872414 -1.24887859 10.72623277 -1.1875 6.9375 C-1.18105469 6.05964844 -1.17460938 5.18179688 -1.16796875 4.27734375 C-1 2 -1 2 0 0 Z " fill="#404040" transform="translate(119,132)"/>
<path d="M0 0 C0.66 0 1.32 0 2 0 C2 0.99 2 1.98 2 3 C5.96 3 9.92 3 14 3 C14.33 4.32 14.66 5.64 15 7 C9.39 7 3.78 7 -2 7 C-2 6.01 -2 5.02 -2 4 C-1.34 4 -0.68 4 0 4 C0 2.68 0 1.36 0 0 Z " fill="#585858" transform="translate(96,72)"/>
<path d="M0 0 C0.33 0 0.66 0 1 0 C1.02465622 4.25414623 1.04283899 8.50825498 1.05493164 12.76245117 C1.05997101 14.21070073 1.06680253 15.65894517 1.07543945 17.10717773 C1.08752247 19.18474588 1.09323211 21.26224697 1.09765625 23.33984375 C1.10289307 24.59144287 1.10812988 25.84304199 1.11352539 27.13256836 C1 30 1 30 0 31 C-2.18639453 31.07258946 -4.37500389 31.08373783 -6.5625 31.0625 C-8.35880859 31.04896484 -8.35880859 31.04896484 -10.19140625 31.03515625 C-11.11824219 31.02355469 -12.04507813 31.01195313 -13 31 C-13 30.01 -13 29.02 -13 28 C-8.71 28 -4.42 28 0 28 C0 18.76 0 9.52 0 0 Z " fill="#808080" transform="translate(111,44)"/>
<path d="M0 0 C0.66 0 1.32 0 2 0 C2 6.6 2 13.2 2 20 C1.01 20 0.02 20 -1 20 C-1 20.66 -1 21.32 -1 22 C-2.32 22 -3.64 22 -5 22 C-5 21.34 -5 20.68 -5 20 C-3.68 19.67 -2.36 19.34 -1 19 C-1.01160156 17.79601562 -1.02320313 16.59203125 -1.03515625 15.3515625 C-1.04453434 13.77604321 -1.05363452 12.20052225 -1.0625 10.625 C-1.07087891 9.8309375 -1.07925781 9.036875 -1.08789062 8.21875 C-1.11328125 2.2265625 -1.11328125 2.2265625 0 0 Z " fill="#7E7E7E" transform="translate(134,162)"/>
<path d="M0 0 C0.66 0 1.32 0 2 0 C2 0.66 2 1.32 2 2 C7.28 2 12.56 2 18 2 C18 9.92 18 17.84 18 26 C17.67 26 17.34 26 17 26 C17 18.74 17 11.48 17 4 C11.39 4 5.78 4 0 4 C0 2.68 0 1.36 0 0 Z " fill="#DEDEDE" transform="translate(92,77)"/>
<path d="M0 0 C4.95 0 9.9 0 15 0 C15 1.32 15 2.64 15 4 C9.72 4 4.44 4 -1 4 C-0.67 2.68 -0.34 1.36 0 0 Z " fill="#585858" transform="translate(156,55)"/>
<path d="M0 0 C0.99 0 1.98 0 3 0 C2.67 9.9 2.34 19.8 2 30 C1.34 30 0.68 30 0 30 C0 20.1 0 10.2 0 0 Z " fill="#C3C3C3" transform="translate(109,42)"/>
<path d="M0 0 C0.99 0 1.98 0 3 0 C3 0.99 3 1.98 3 3 C3.66 3.66 4.32 4.32 5 5 C4.34 5 3.68 5 3 5 C3 5.66 3 6.32 3 7 C1.35 7 -0.3 7 -2 7 C-2 8.32 -2 9.64 -2 11 C-3.32 11 -4.64 11 -6 11 C-6 9.02 -6 7.04 -6 5 C-5.34 5 -4.68 5 -4 5 C-4 4.01 -4 3.02 -4 2 C-2.68 2 -1.36 2 0 2 C0 1.34 0 0.68 0 0 Z " fill="#3E3E3E" transform="translate(179,164)"/>
<path d="M0 0 C1.65 0 3.3 0 5 0 C5 0.66 5 1.32 5 2 C5.66 2 6.32 2 7 2 C7 2.99 7 3.98 7 5 C7.66 5 8.32 5 9 5 C9 6.98 9 8.96 9 11 C7.68 11 6.36 11 5 11 C5 9.68 5 8.36 5 7 C4.01 7 3.02 7 2 7 C2 6.34 2 5.68 2 5 C1.34 5 0.68 5 0 5 C0 3.35 0 1.7 0 0 Z " fill="#3B3B3B" transform="translate(188,142)"/>
<path d="M0 0 C5.37514905 -0.04935509 10.75016685 -0.08569802 16.12548828 -0.10986328 C17.95493873 -0.11993484 19.78437303 -0.13359276 21.61376953 -0.15087891 C24.23994934 -0.17507677 26.86591675 -0.18647132 29.4921875 -0.1953125 C30.72350906 -0.21079636 30.72350906 -0.21079636 31.97970581 -0.22659302 C33.98789142 -0.22699184 35.99555382 -0.1224954 38 0 C40 2 40 2 40.125 4.625 C40.08375 5.40875 40.0425 6.1925 40 7 C39.01 7.33 38.02 7.66 37 8 C37 5.69 37 3.38 37 1 C25.45 1 13.9 1 2 1 C2 1.66 2 2.32 2 3 C1.34 3 0.68 3 0 3 C0 2.01 0 1.02 0 0 Z " fill="#E3E3E3" transform="translate(129,89)"/>
<path d="M0 0 C5.94 0 11.88 0 18 0 C18 0.66 18 1.32 18 2 C12.72 2 7.44 2 2 2 C2 9.26 2 16.52 2 24 C1.34 24 0.68 24 0 24 C0 16.08 0 8.16 0 0 Z " fill="#E6E6E6" transform="translate(186,79)"/>
<path d="M0 0 C4.95 0 9.9 0 15 0 C15 1.32 15 2.64 15 4 C10.05 4 5.1 4 0 4 C0 2.68 0 1.36 0 0 Z " fill="#5B5B5B" transform="translate(125,57)"/>
<path d="M0 0 C3.3 0 6.6 0 10 0 C10 1.98 10 3.96 10 6 C7.03 6 4.06 6 1 6 C0.67 4.02 0.34 2.04 0 0 Z " fill="#494949" transform="translate(143,79)"/>
<path d="M0 0 C2.97 0 5.94 0 9 0 C9 0.66 9 1.32 9 2 C6.69 2 4.38 2 2 2 C2 2.66 2 3.32 2 4 C4.31 4 6.62 4 9 4 C9 5.32 9 6.64 9 8 C6.03 8 3.06 8 0 8 C0 5.36 0 2.72 0 0 Z " fill="#222222" transform="translate(129,66)"/>
<path d="M0 0 C0.66 0 1.32 0 2 0 C2 5.94 2 11.88 2 18 C3.32 17.67 4.64 17.34 6 17 C6 16.34 6 15.68 6 15 C9.63 15 13.26 15 17 15 C17 15.66 17 16.32 17 17 C16.09507812 17.07347656 16.09507812 17.07347656 15.171875 17.1484375 C14.37265625 17.22320312 13.5734375 17.29796875 12.75 17.375 C11.96109375 17.44460937 11.1721875 17.51421875 10.359375 17.5859375 C7.97917099 17.88541588 7.97917099 17.88541588 5.953125 19.0390625 C4 20 4 20 0 20 C0 13.4 0 6.8 0 0 Z " fill="#959595" transform="translate(169,138)"/>
<path d="M0 0 C1.32 0 2.64 0 4 0 C3.67 3.63 3.34 7.26 3 11 C1.35 11 -0.3 11 -2 11 C-2 8.03 -2 5.06 -2 2 C-1.34 2 -0.68 2 0 2 C0 1.34 0 0.68 0 0 Z " fill="#5B5B5B" transform="translate(107,127)"/>
<path d="M0 0 C1.98 0 3.96 0 6 0 C6 0.66 6 1.32 6 2 C4.68 1.67 3.36 1.34 2 1 C2 2.32 2 3.64 2 5 C2.66 5 3.32 5 4 5 C4 10.61 4 16.22 4 22 C3.34 22 2.68 22 2 22 C2 17.05 2 12.1 2 7 C1.34 7 0.68 7 0 7 C0 4.69 0 2.38 0 0 Z " fill="#ACACAC" transform="translate(158,188)"/>
<path d="M0 0 C2.97 0 5.94 0 9 0 C9 2.97 9 5.94 9 9 C8.34 9 7.68 9 7 9 C7 6.69 7 4.38 7 2 C5.35 2 3.7 2 2 2 C2 5.63 2 9.26 2 13 C1.34 13 0.68 13 0 13 C0 8.71 0 4.42 0 0 Z " fill="#BDBDBD" transform="translate(138,116)"/>
<path d="M0 0 C1.32 0 2.64 0 4 0 C4.3125 2.8125 4.3125 2.8125 4 6 C1.61107499 7.88599343 0.08148442 9 -3 9 C-3 9.66 -3 10.32 -3 11 C-4.32 11 -5.64 11 -7 11 C-7 9.68 -7 8.36 -7 7 C-5.35 6.67 -3.7 6.34 -2 6 C-1.34 4.02 -0.68 2.04 0 0 Z " fill="#565656" transform="translate(202,195)"/>
<path d="M0 0 C2.31 0 4.62 0 7 0 C7 0.66 7 1.32 7 2 C8.65 2 10.3 2 12 2 C12.66 3.65 13.32 5.3 14 7 C14.66 7 15.32 7 16 7 C16 7.66 16 8.32 16 9 C15.01 9 14.02 9 13 9 C13 8.34 13 7.68 13 7 C12.34 7 11.68 7 11 7 C11 6.34 11 5.68 11 5 C5.06 4.01 5.06 4.01 -1 3 C-1.33 3.66 -1.66 4.32 -2 5 C-2 4.01 -2 3.02 -2 2 C-1.34 2 -0.68 2 0 2 C0 1.34 0 0.68 0 0 Z " fill="#797979" transform="translate(120,129)"/>
<path d="M0 0 C4.95 0 9.9 0 15 0 C15.33 0.66 15.66 1.32 16 2 C11.05 2 6.1 2 1 2 C0.67 4.97 0.34 7.94 0 11 C-0.66 11 -1.32 11 -2 11 C-2 8.03 -2 5.06 -2 2 C-1.34 2 -0.68 2 0 2 C0 1.34 0 0.68 0 0 Z " fill="#DEDEDE" transform="translate(155,53)"/>
<path d="M0 0 C0.66 0 1.32 0 2 0 C2 1.32 2 2.64 2 4 C-1.26225174 4.97403725 -4.22738661 5.13415799 -7.625 5.125 C-9.06746094 5.12886719 -9.06746094 5.12886719 -10.5390625 5.1328125 C-13 5 -13 5 -15 4 C-15 3.34 -15 2.68 -15 2 C-10.05 2 -5.1 2 0 2 C0 1.34 0 0.68 0 0 Z " fill="#9C9C9C" transform="translate(171,57)"/>
<path d="M0 0 C0.66 0 1.32 0 2 0 C2 0.66 2 1.32 2 2 C2.598125 1.67 3.19625 1.34 3.8125 1 C6 0 6 0 9 0 C9 0.66 9 1.32 9 2 C9.66 2.33 10.32 2.66 11 3 C9.02 3 7.04 3 5 3 C5 4.98 5 6.96 5 9 C2.69 9 0.38 9 -2 9 C-2 8.34 -2 7.68 -2 7 C-0.68 7 0.64 7 2 7 C2 5.68 2 4.36 2 3 C1.34 3 0.68 3 0 3 C0 2.01 0 1.02 0 0 Z " fill="#D6D6D6" transform="translate(105,188)"/>
<path d="M0 0 C0.66 0 1.32 0 2 0 C2.04241723 2.33294775 2.04092937 4.66702567 2 7 C1 8 1 8 -1.94140625 8.09765625 C-3.73384766 8.08025391 -3.73384766 8.08025391 -5.5625 8.0625 C-7.35880859 8.04896484 -7.35880859 8.04896484 -9.19140625 8.03515625 C-10.11824219 8.02355469 -11.04507813 8.01195312 -12 8 C-11.01 8.99 -10.02 9.98 -9 11 C-10.65 11 -12.3 11 -14 11 C-14 10.34 -14 9.68 -14 9 C-14.66 9 -15.32 9 -16 9 C-16 8.01 -16 7.02 -16 6 C-15.34 6 -14.68 6 -14 6 C-14 5.34 -14 4.68 -14 4 C-13.34 4 -12.68 4 -12 4 C-12 4.66 -12 5.32 -12 6 C-8.04 6 -4.08 6 0 6 C0 4.02 0 2.04 0 0 Z " fill="#848484" transform="translate(180,182)"/>
<path d="M0 0 C0 1.98 0 3.96 0 6 C0.66 6 1.32 6 2 6 C2 6.66 2 7.32 2 8 C2.66 8 3.32 8 4 8 C4 8.66 4 9.32 4 10 C1.69 10 -0.62 10 -3 10 C-4.4783226 7.04335481 -4.06032783 4.25770263 -4 1 C-2 0 -2 0 0 0 Z " fill="#515151" transform="translate(114,178)"/>
<path d="M0 0 C1.65 0 3.3 0 5 0 C5 0.66 5 1.32 5 2 C5.66 2 6.32 2 7 2 C7 2.66 7 3.32 7 4 C5.68 4 4.36 4 3 4 C3 7.63 3 11.26 3 15 C-0.2605096 11.7394904 -0.05467405 8.10916255 -0.0625 3.6875 C-0.041875 2.470625 -0.02125 1.25375 0 0 Z " fill="#C8C8C8" transform="translate(142,180)"/>
<path d="M0 0 C2.64 0 5.28 0 8 0 C8 1.98 8 3.96 8 6 C7.67 5.34 7.34 4.68 7 4 C4.69 4 2.38 4 0 4 C0 4.66 0 5.32 0 6 C-1.32 6 -2.64 6 -4 6 C-3.67 4.68 -3.34 3.36 -3 2 C-2.01 2 -1.02 2 0 2 C0 1.34 0 0.68 0 0 Z " fill="#3E3E3E" transform="translate(160,136)"/>
<path d="M0 0 C2.64 0 5.28 0 8 0 C8 0.66 8 1.32 8 2 C6.68 2 5.36 2 4 2 C4 3.32 4 4.64 4 6 C6.64 6 9.28 6 12 6 C12 6.33 12 6.66 12 7 C8.04 7 4.08 7 0 7 C0 4.69 0 2.38 0 0 Z " fill="#3E3E3E" transform="translate(156,68)"/>
<path d="M0 0 C0.99 0 1.98 0 3 0 C3 0.66 3 1.32 3 2 C3.66 2 4.32 2 5 2 C5 4.64 5 7.28 5 10 C4.34 10 3.68 10 3 10 C3 10.66 3 11.32 3 12 C1.68 11.67 0.36 11.34 -1 11 C-0.34 11 0.32 11 1 11 C0.67 7.37 0.34 3.74 0 0 Z " fill="#363636" transform="translate(181,180)"/>
<path d="M0 0 C4.29 0 8.58 0 13 0 C13 1.32 13 2.64 13 4 C11.68 4 10.36 4 9 4 C9 3.34 9 2.68 9 2 C7.35 2 5.7 2 4 2 C4 2.66 4 3.32 4 4 C2.68 4 1.36 4 0 4 C0 2.68 0 1.36 0 0 Z " fill="#999999" transform="translate(140,171)"/>
<path d="M0 0 C1.65 0 3.3 0 5 0 C5 1.65 5 3.3 5 5 C6.32 5 7.64 5 9 5 C9 6.32 9 7.64 9 9 C7.68 9 6.36 9 5 9 C5 8.01 5 7.02 5 6 C4.34 6 3.68 6 3 6 C3 5.34 3 4.68 3 4 C1.68 3.67 0.36 3.34 -1 3 C-0.67 2.01 -0.34 1.02 0 0 Z " fill="#2D2D2D" transform="translate(144,173)"/>
<path d="M0 0 C0.66 0 1.32 0 2 0 C2 2.97 2 5.94 2 9 C-1.63 9 -5.26 9 -9 9 C-9 8.67 -9 8.34 -9 8 C-6.03 8 -3.06 8 0 8 C0 6.68 0 5.36 0 4 C-2.31 4 -4.62 4 -7 4 C-7 3.34 -7 2.68 -7 2 C-4.69 2 -2.38 2 0 2 C0 1.34 0 0.68 0 0 Z " fill="#3E3E3E" transform="translate(138,66)"/>
<path d="M0 0 C0.99 0 1.98 0 3 0 C3 5.61 3 11.22 3 17 C2.34 17 1.68 17 1 17 C0.67 11.39 0.34 5.78 0 0 Z " fill="#4B4B4B" transform="translate(141,119)"/>
<path d="M0 0 C0.33 0 0.66 0 1 0 C1 9.24 1 18.48 1 28 C1.66 28 2.32 28 3 28 C3 28.99 3 29.98 3 31 C2.01 31 1.02 31 0 31 C0 20.77 0 10.54 0 0 Z " fill="#C7C7C7" transform="translate(179,243)"/>
<path d="M0 0 C0.99 0 1.98 0 3 0 C3.0270043 1.45823212 3.04639787 2.91660675 3.0625 4.375 C3.07410156 5.18710938 3.08570313 5.99921875 3.09765625 6.8359375 C3 9 3 9 2 11 C0.68 11 -0.64 11 -2 11 C-2 10.01 -2 9.02 -2 8 C-1.34 8 -0.68 8 0 8 C0 5.36 0 2.72 0 0 Z " fill="#BCBCBC" transform="translate(186,182)"/>
<path d="M0 0 C0.66 0.33 1.32 0.66 2 1 C2 4.3 2 7.6 2 11 C1.34 11 0.68 11 0 11 C0 12.32 0 13.64 0 15 C1.32 15 2.64 15 4 15 C4 15.66 4 16.32 4 17 C2.35 17 0.7 17 -1 17 C-0.67 11.39 -0.34 5.78 0 0 Z " fill="#454545" transform="translate(167,147)"/>
<path d="M0 0 C1.65 0 3.3 0 5 0 C5 0.66 5 1.32 5 2 C3.68 2 2.36 2 1 2 C1.33 3.98 1.66 5.96 2 8 C4.97 8 7.94 8 11 8 C9 10 9 10 7.08984375 10.23046875 C1.11111111 10.11111111 1.11111111 10.11111111 0 9 C-0.07179964 7.48071962 -0.08392007 5.95832518 -0.0625 4.4375 C-0.05347656 3.61121094 -0.04445312 2.78492187 -0.03515625 1.93359375 C-0.02355469 1.29550781 -0.01195312 0.65742187 0 0 Z " fill="#919191" transform="translate(142,77)"/>
<path d="M0 0 C3.63 0.33 7.26 0.66 11 1 C11 1.33 11 1.66 11 2 C6.545 2.495 6.545 2.495 2 3 C2 6.3 2 9.6 2 13 C1.34 13 0.68 13 0 13 C0 8.71 0 4.42 0 0 Z " fill="#B6B6B6" transform="translate(125,61)"/>
<path d="M0 0 C0.66 0 1.32 0 2 0 C2 0.66 2 1.32 2 2 C2.99 2 3.98 2 5 2 C4.67 4.31 4.34 6.62 4 9 C2.02 9 0.04 9 -2 9 C-2 8.01 -2 7.02 -2 6 C-1.34 6 -0.68 6 0 6 C0 4.02 0 2.04 0 0 Z " fill="#DADADA" transform="translate(129,160)"/>
<path d="M0 0 C1.32 0 2.64 0 4 0 C4 0.66 4 1.32 4 2 C4.66 2 5.32 2 6 2 C6 2.66 6 3.32 6 4 C6.99 4.33 7.98 4.66 9 5 C8.01 5.33 7.02 5.66 6 6 C6 6.66 6 7.32 6 8 C5.34 8 4.68 8 4 8 C4 7.34 4 6.68 4 6 C3.34 6 2.68 6 2 6 C2 5.34 2 4.68 2 4 C1.34 4 0.68 4 0 4 C0 2.68 0 1.36 0 0 Z " fill="#464646" transform="translate(138,147)"/>
<path d="M0 0 C1.98 0 3.96 0 6 0 C6 4.29 6 8.58 6 13 C5.34 13 4.68 13 4 13 C4 9.37 4 5.74 4 2 C2.68 2 1.36 2 0 2 C0 1.34 0 0.68 0 0 Z " fill="#A7A7A7" transform="translate(160,140)"/>
<path d="M0 0 C1.65 0 3.3 0 5 0 C5 0.66 5 1.32 5 2 C4.34 2 3.68 2 3 2 C2.34 4.97 1.68 7.94 1 11 C0.34 11 -0.32 11 -1 11 C-1.0270043 9.54176788 -1.04639787 8.08339325 -1.0625 6.625 C-1.07410156 5.81289062 -1.08570312 5.00078125 -1.09765625 4.1640625 C-1 2 -1 2 0 0 Z " fill="#3B3B3B" transform="translate(98,123)"/>
<path d="M0 0 C0.99 0.33 1.98 0.66 3 1 C3 3.97 3 6.94 3 10 C2.67 9.34 2.34 8.68 2 8 C0.02 8 -1.96 8 -4 8 C-4 7.34 -4 6.68 -4 6 C-2.68 6 -1.36 6 0 6 C0 4.02 0 2.04 0 0 Z " fill="#575757" transform="translate(153,156)"/>
<path d="M0 0 C0.99 0 1.98 0 3 0 C3 2.31 3 4.62 3 7 C-0.63 7 -4.26 7 -8 7 C-8 6.34 -8 5.68 -8 5 C-5.03 5 -2.06 5 1 5 C0.67 3.35 0.34 1.7 0 0 Z " fill="#8C8C8C" transform="translate(144,155)"/>
<path d="M0 0 C1.98 0 3.96 0 6 0 C6.05399736 1.45792884 6.09279177 2.91642712 6.125 4.375 C6.14820313 5.18710938 6.17140625 5.99921875 6.1953125 6.8359375 C6 9 6 9 4 11 C4 8.03 4 5.06 4 2 C3.34 2 2.68 2 2 2 C2 2.66 2 3.32 2 4 C1.34 4 0.68 4 0 4 C0 2.68 0 1.36 0 0 Z " fill="#A8A8A8" transform="translate(193,184)"/>
<path d="M0 0 C2.64 0 5.28 0 8 0 C8 1.32 8 2.64 8 4 C5.36 4 2.72 4 0 4 C0 2.68 0 1.36 0 0 Z " fill="#2B2B2B" transform="translate(167,158)"/>
<path d="M0 0 C1.65 0 3.3 0 5 0 C5 0.66 5 1.32 5 2 C3.68 2 2.36 2 1 2 C1.33 3.65 1.66 5.3 2 7 C2.99 7.33 3.98 7.66 5 8 C5 9.65 5 11.3 5 13 C4.34 13 3.68 13 3 13 C-0.4887612 8.70614007 -0.26854022 5.28129105 0 0 Z " fill="#979797" transform="translate(98,182)"/>
<path d="M0 0 C0.66 0 1.32 0 2 0 C2 1.65 2 3.3 2 5 C2.66 5 3.32 5 4 5 C4.33 6.32 4.66 7.64 5 9 C5.66 9 6.32 9 7 9 C7 9.66 7 10.32 7 11 C6.01 11 5.02 11 4 11 C4 10.34 4 9.68 4 9 C3.34 9 2.68 9 2 9 C2 8.34 2 7.68 2 7 C1.34 7 0.68 7 0 7 C0 4.69 0 2.38 0 0 Z " fill="#CCCCCC" transform="translate(140,201)"/>
<path d="M0 0 C0.99 0.33 1.98 0.66 3 1 C3.05391993 2.79133978 3.09275571 4.58313899 3.125 6.375 C3.14820313 7.37273437 3.17140625 8.37046875 3.1953125 9.3984375 C3 12 3 12 1 14 C0.01 14 -0.98 14 -2 14 C-2 13.01 -2 12.02 -2 11 C-1.34 11 -0.68 11 0 11 C0 10.34 0 9.68 0 9 C0.66 9 1.32 9 2 9 C2 6.69 2 4.38 2 2 C1.34 2 0.68 2 0 2 C0 1.34 0 0.68 0 0 Z " fill="#BDBDBD" transform="translate(186,155)"/>
<path d="M0 0 C0.33 0 0.66 0 1 0 C1.25 7.625 1.25 7.625 -1 11 C-3.8203125 11.29296875 -3.8203125 11.29296875 -7.125 11.1875 C-8.76855469 11.14689453 -8.76855469 11.14689453 -10.4453125 11.10546875 C-11.28835937 11.07066406 -12.13140625 11.03585938 -13 11 C-12.67 10.34 -12.34 9.68 -12 9 C-8.7 9 -5.4 9 -2 9 C-2 8.01 -2 7.02 -2 6 C-1.34 6 -0.68 6 0 6 C0 4.02 0 2.04 0 0 Z " fill="#CCCCCC" transform="translate(155,77)"/>
<path d="M0 0 C0.33 0 0.66 0 1 0 C1.88021369 6.71162938 2.11381955 13.23405981 2 20 C1.67 20 1.34 20 1 20 C-1.657623 13.27777713 -0.78767638 7.07844318 0 0 Z " fill="#484848" transform="translate(157,188)"/>
<path d="M0 0 C2.31 0 4.62 0 7 0 C7 2.31 7 4.62 7 7 C6.34 7 5.68 7 5 7 C5 5.68 5 4.36 5 3 C3.35 3 1.7 3 0 3 C0 2.01 0 1.02 0 0 Z " fill="#B3B3B3" transform="translate(131,186)"/>
<path d="M0 0 C1.65 0 3.3 0 5 0 C5 0.66 5 1.32 5 2 C5.66 2 6.32 2 7 2 C6.67 2.99 6.34 3.98 6 5 C6 4.34 6 3.68 6 3 C5.01 3 4.02 3 3 3 C3.33 4.32 3.66 5.64 4 7 C3.34 7 2.68 7 2 7 C2 6.34 2 5.68 2 5 C1.34 5 0.68 5 0 5 C0 3.35 0 1.7 0 0 Z " fill="#676767" transform="translate(188,142)"/>
<path d="M0 0 C0.66 0 1.32 0 2 0 C1.67 1.32 1.34 2.64 1 4 C2.32 4.33 3.64 4.66 5 5 C4.34 5 3.68 5 3 5 C3 5.66 3 6.32 3 7 C2.34 7 1.68 7 1 7 C0.67 7.66 0.34 8.32 0 9 C0 7.68 0 6.36 0 5 C-1.32 5.33 -2.64 5.66 -4 6 C-4 5.34 -4 4.68 -4 4 C-3.34 4 -2.68 4 -2 4 C-2 3.34 -2 2.68 -2 2 C-1.34 2 -0.68 2 0 2 C0 1.34 0 0.68 0 0 Z " fill="#707070" transform="translate(155,138)"/>
<path d="M0 0 C0.66 0 1.32 0 2 0 C2 3.63 2 7.26 2 11 C1.34 11 0.68 11 0 11 C0 9.02 0 7.04 0 5 C-0.66 5 -1.32 5 -2 5 C-2 4.01 -2 3.02 -2 2 C-1.34 2 -0.68 2 0 2 C0 1.34 0 0.68 0 0 Z " fill="#4A4A4A" transform="translate(140,184)"/>
<path d="M0 0 C0.66 0 1.32 0 2 0 C2 0.66 2 1.32 2 2 C2.66 2 3.32 2 4 2 C4 2.99 4 3.98 4 5 C3.34 5 2.68 5 2 5 C2 6.32 2 7.64 2 9 C0.68 9 -0.64 9 -2 9 C-2 8.34 -2 7.68 -2 7 C-1.34 7 -0.68 7 0 7 C0 4.69 0 2.38 0 0 Z " fill="#202020" transform="translate(136,175)"/>
<path d="M0 0 C0.99 0 1.98 0 3 0 C3 0.99 3 1.98 3 3 C4.98 3 6.96 3 9 3 C9 3.66 9 4.32 9 5 C8.34 5 7.68 5 7 5 C7 5.66 7 6.32 7 7 C6.01 7 5.02 7 4 7 C4 6.34 4 5.68 4 5 C3.34 5 2.68 5 2 5 C2 4.34 2 3.68 2 3 C1.34 3 0.68 3 0 3 C0 2.01 0 1.02 0 0 Z " fill="#B7B7B7" transform="translate(140,144)"/>
<path d="M0 0 C2.31 0 4.62 0 7 0 C7 1.32 7 2.64 7 4 C4.69 4 2.38 4 0 4 C0 2.68 0 1.36 0 0 Z " fill="#343434" transform="translate(144,81)"/>
<path d="M0 0 C2.97 0 5.94 0 9 0 C9 0.66 9 1.32 9 2 C6.69 2 4.38 2 2 2 C2.33 3.32 2.66 4.64 3 6 C2.01 6 1.02 6 0 6 C0 4.02 0 2.04 0 0 Z " fill="#161616" transform="translate(129,66)"/>
<path d="M0 0 C0.99 0 1.98 0 3 0 C3 1.32 3 2.64 3 4 C2.34 4 1.68 4 1 4 C1 4.66 1 5.32 1 6 C0.01 6 -0.98 6 -2 6 C-2 6.66 -2 7.32 -2 8 C-2.66 7.67 -3.32 7.34 -4 7 C-3.34 5.35 -2.68 3.7 -2 2 C-1.34 2 -0.68 2 0 2 C0 1.34 0 0.68 0 0 Z " fill="#323232" transform="translate(192,195)"/>
<path d="M0 0 C0.99 0 1.98 0 3 0 C3 0.66 3 1.32 3 2 C4.32 2 5.64 2 7 2 C7 2.66 7 3.32 7 4 C5.68 4 4.36 4 3 4 C3 6.31 3 8.62 3 11 C2.67 11 2.34 11 2 11 C2 8.69 2 6.38 2 4 C1.34 4 0.68 4 0 4 C0 2.68 0 1.36 0 0 Z " fill="#505050" transform="translate(153,171)"/>
<path d="M0 0 C0.66 0 1.32 0 2 0 C2 1.32 2 2.64 2 4 C-0.36613456 5.18306728 -1.86780736 5.13354608 -4.5 5.125 C-5.2940625 5.12757813 -6.088125 5.13015625 -6.90625 5.1328125 C-9 5 -9 5 -11 4 C-11 3.34 -11 2.68 -11 2 C-8.03 2.33 -5.06 2.66 -2 3 C-1.34 2.01 -0.68 1.02 0 0 Z " fill="#BBBBBB" transform="translate(158,210)"/>
<path d="M0 0 C1.98 0 3.96 0 6 0 C6 0.99 6 1.98 6 3 C6.66 3.33 7.32 3.66 8 4 C6.02 4.33 4.04 4.66 2 5 C2 4.01 2 3.02 2 2 C1.34 2 0.68 2 0 2 C0 1.34 0 0.68 0 0 Z " fill="#0C0C0C" transform="translate(143,164)"/>
<path d="M0 0 C0.33 0.66 0.66 1.32 1 2 C1.66 2 2.32 2 3 2 C3 3.32 3 4.64 3 6 C2.34 6 1.68 6 1 6 C0.34 7.65 -0.32 9.3 -1 11 C-1.99 10.67 -2.98 10.34 -4 10 C-3.34 10 -2.68 10 -2 10 C-2 8.68 -2 7.36 -2 6 C-1.34 6 -0.68 6 0 6 C0 4.02 0 2.04 0 0 Z " fill="#A0A0A0" transform="translate(122,158)"/>
<path d="M0 0 C2.31 0 4.62 0 7 0 C7 1.32 7 2.64 7 4 C6.34 4 5.68 4 5 4 C5 3.34 5 2.68 5 2 C4.01 2 3.02 2 2 2 C2 2.66 2 3.32 2 4 C0.68 4 -0.64 4 -2 4 C-2 3.34 -2 2.68 -2 2 C-1.34 2 -0.68 2 0 2 C0 1.34 0 0.68 0 0 Z " fill="#ADADAD" transform="translate(177,158)"/>
<path d="M0 0 C0.33 0 0.66 0 1 0 C0.67 4.29 0.34 8.58 0 13 C-0.66 13 -1.32 13 -2 13 C-2 10.03 -2 7.06 -2 4 C-1.34 4 -0.68 4 0 4 C0 2.68 0 1.36 0 0 Z " fill="#565656" transform="translate(166,149)"/>
<path d="M0 0 C0.66 0 1.32 0 2 0 C2 1.32 2 2.64 2 4 C1.34 4 0.68 4 0 4 C0 6.31 0 8.62 0 11 C-0.99 10.67 -1.98 10.34 -3 10 C-1.125 2.25 -1.125 2.25 0 0 Z " fill="#9A9A9A" transform="translate(101,125)"/>
<path d="M0 0 C0.99 0 1.98 0 3 0 C3 0.66 3 1.32 3 2 C5.31 2 7.62 2 10 2 C9.67 2.66 9.34 3.32 9 4 C6.03 4 3.06 4 0 4 C0 2.68 0 1.36 0 0 Z " fill="#707070" transform="translate(129,92)"/>
<path d="M0 0 C1.32 0 2.64 0 4 0 C4 1.32 4 2.64 4 4 C1.36 4 -1.28 4 -4 4 C-4 3.34 -4 2.68 -4 2 C-2.68 2 -1.36 2 0 2 C0 1.34 0 0.68 0 0 Z " fill="#4E4E4E" transform="translate(162,184)"/>
<path d="M0 0 C0.66 0 1.32 0 2 0 C2 2.64 2 5.28 2 8 C1.34 8 0.68 8 0 8 C0 8.66 0 9.32 0 10 C-0.66 10 -1.32 10 -2 10 C-2 8.68 -2 7.36 -2 6 C-1.34 6 -0.68 6 0 6 C0 4.02 0 2.04 0 0 Z " fill="#363636" transform="translate(125,158)"/>
<path d="M0 0 C0.66 0 1.32 0 2 0 C2 2.31 2 4.62 2 7 C-0.97 6.505 -0.97 6.505 -4 6 C-4 5.34 -4 4.68 -4 4 C-2.68 4 -1.36 4 0 4 C0 2.68 0 1.36 0 0 Z " fill="#BCBCBC" transform="translate(197,149)"/>
<path d="M0 0 C2 0 2 0 4.6875 2.25 C7 5 7 5 6.8125 7.3125 C6.4103125 8.1478125 6.4103125 8.1478125 6 9 C6 8.34 6 7.68 6 7 C5.01 7 4.02 7 3 7 C3 6.34 3 5.68 3 5 C2.34 5 1.68 5 1 5 C0.67 3.35 0.34 1.7 0 0 Z " fill="#BFBFBF" transform="translate(129,140)"/>
<path d="M0 0 C1.32 0 2.64 0 4 0 C4 0.66 4 1.32 4 2 C5.32 2 6.64 2 8 2 C8 2.66 8 3.32 8 4 C5.36 4 2.72 4 0 4 C0 2.68 0 1.36 0 0 Z " fill="#222222" transform="translate(160,70)"/>
<path d="M0 0 C0.66 0 1.32 0 2 0 C2 1.65 2 3.3 2 5 C3.32 5 4.64 5 6 5 C6 5.66 6 6.32 6 7 C4.02 7 2.04 7 0 7 C0 4.69 0 2.38 0 0 Z " fill="#BDBDBD" transform="translate(184,199)"/>
<path d="M0 0 C1.98 0 3.96 0 6 0 C6 2.31 6 4.62 6 7 C5.34 7 4.68 7 4 7 C4 5.35 4 3.7 4 2 C2.68 2 1.36 2 0 2 C0 1.34 0 0.68 0 0 Z " fill="#808080" transform="translate(156,166)"/>
<path d="M0 0 C0.99 0 1.98 0 3 0 C3 0.99 3 1.98 3 3 C0 5 0 5 -4 5 C-4 4.01 -4 3.02 -4 2 C-2.68 2 -1.36 2 0 2 C0 1.34 0 0.68 0 0 Z " fill="#878787" transform="translate(179,164)"/>
<path d="M0 0 C2 2 2 2 2.125 5.125 C2.08375 6.07375 2.0425 7.0225 2 8 C2.66 8 3.32 8 4 8 C4 8.66 4 9.32 4 10 C2.68 10 1.36 10 0 10 C0 6.7 0 3.4 0 0 Z " fill="#CDCDCD" transform="translate(156,156)"/>
<path d="M0 0 C0.99 0 1.98 0 3 0 C3.66 1.65 4.32 3.3 5 5 C5.66 5 6.32 5 7 5 C7 5.66 7 6.32 7 7 C6.01 7 5.02 7 4 7 C4 6.34 4 5.68 4 5 C3.34 5 2.68 5 2 5 C2 4.34 2 3.68 2 3 C1.34 3 0.68 3 0 3 C0 2.01 0 1.02 0 0 Z " fill="#B5B5B5" transform="translate(129,131)"/>
<path d="M0 0 C3.875 0.875 3.875 0.875 5 2 C5.04063832 3.66617115 5.042721 5.33388095 5 7 C4.01 7.33 3.02 7.66 2 8 C2 5.69 2 3.38 2 1 C1.34 0.67 0.68 0.34 0 0 Z " fill="#DADADA" transform="translate(164,89)"/>
<path d="M0 0 C0.99 0 1.98 0 3 0 C2.67 2.31 2.34 4.62 2 7 C0.68 6.67 -0.64 6.34 -2 6 C-2 5.34 -2 4.68 -2 4 C-1.34 4 -0.68 4 0 4 C0 2.68 0 1.36 0 0 Z " fill="#C7C7C7" transform="translate(140,57)"/>
<path d="M0 0 C0.99 0 1.98 0 3 0 C3 0.66 3 1.32 3 2 C3.66 2 4.32 2 5 2 C5 3.98 5 5.96 5 8 C4.34 8 3.68 8 3 8 C3 6.68 3 5.36 3 4 C2.34 4 1.68 4 1 4 C0.67 2.68 0.34 1.36 0 0 Z " fill="#222222" transform="translate(181,180)"/>
<path d="M0 0 C0.66 0 1.32 0 2 0 C2 2.31 2 4.62 2 7 C1.01 7 0.02 7 -1 7 C-1.625 5.1875 -1.625 5.1875 -2 3 C-1.34 2.01 -0.68 1.02 0 0 Z " fill="#222222" transform="translate(112,72)"/>
<path d="M0 0 C0.99 0 1.98 0 3 0 C3 1.32 3 2.64 3 4 C0.69 4 -1.62 4 -4 4 C-4 3.34 -4 2.68 -4 2 C-2.68 2 -1.36 2 0 2 C0 1.34 0 0.68 0 0 Z " fill="#E7E7E7" transform="translate(190,204)"/>
<path d="M0 0 C0.66 0 1.32 0 2 0 C2 1.98 2 3.96 2 6 C0.02 6 -1.96 6 -4 6 C-4 5.34 -4 4.68 -4 4 C-2.68 4 -1.36 4 0 4 C0 2.68 0 1.36 0 0 Z " fill="#9B9B9B" transform="translate(107,191)"/>
<path d="M0 0 C1.32 0 2.64 0 4 0 C4 0.66 4 1.32 4 2 C4.66 2 5.32 2 6 2 C6 2.66 6 3.32 6 4 C4.02 4 2.04 4 0 4 C0 2.68 0 1.36 0 0 Z " fill="#4C4C4C" transform="translate(125,184)"/>
<path d="M0 0 C0.99 0 1.98 0 3 0 C3 2.97 3 5.94 3 9 C2.34 9 1.68 9 1 9 C0.67 6.03 0.34 3.06 0 0 Z " fill="#D6D6D6" transform="translate(144,116)"/>
<path d="M0 0 C3.3 0 6.6 0 10 0 C8.02 0.99 8.02 0.99 6 2 C6 2.99 6 3.98 6 5 C5.34 5 4.68 5 4 5 C4 4.01 4 3.02 4 2 C2.68 1.67 1.36 1.34 0 1 C0 0.67 0 0.34 0 0 Z " fill="#DCDCDC" transform="translate(143,74)"/>
<path d="M0 0 C0.99 0 1.98 0 3 0 C2.67 2.97 2.34 5.94 2 9 C1.34 9 0.68 9 0 9 C0 6.03 0 3.06 0 0 Z " fill="#D8D8D8" transform="translate(153,55)"/>
<path d="M0 0 C0.66 0 1.32 0 2 0 C2 0.66 2 1.32 2 2 C2.66 2 3.32 2 4 2 C4 2.66 4 3.32 4 4 C2.68 4 1.36 4 0 4 C0 4.66 0 5.32 0 6 C-0.66 6 -1.32 6 -2 6 C-1.49396008 3.83125748 -1.00016187 2.00032373 0 0 Z " fill="#6B6B6B" transform="translate(147,204)"/>
<path d="M0 0 C0.66 0 1.32 0 2 0 C1.814375 0.78375 1.62875 1.5675 1.4375 2.375 C0.74037734 4.97089775 0.74037734 4.97089775 2 7 C0.68 7 -0.64 7 -2 7 C-2 5.35 -2 3.7 -2 2 C-1.34 2 -0.68 2 0 2 C0 1.34 0 0.68 0 0 Z " fill="#6B6B6B" transform="translate(188,197)"/>
<path d="M0 0 C0.33 0 0.66 0 1 0 C1.0270043 1.45823212 1.04639787 2.91660675 1.0625 4.375 C1.07410156 5.18710938 1.08570313 5.99921875 1.09765625 6.8359375 C1 9 1 9 0 11 C-1.32 11 -2.64 11 -4 11 C-4 10.34 -4 9.68 -4 9 C-2.68 8.67 -1.36 8.34 0 8 C0 5.36 0 2.72 0 0 Z " fill="#9D9D9D" transform="translate(133,173)"/>
<path d="M0 0 C0.33 1.32 0.66 2.64 1 4 C1.66 4 2.32 4 3 4 C3 4.66 3 5.32 3 6 C3.66 6 4.32 6 5 6 C5 6.66 5 7.32 5 8 C3.35 7.67 1.7 7.34 0 7 C-1.125 2.25 -1.125 2.25 0 0 Z " fill="#878787" transform="translate(179,171)"/>
<path d="M0 0 C3.63 0 7.26 0 11 0 C10.67 0.99 10.34 1.98 10 3 C10 2.34 10 1.68 10 1 C7.36 1 4.72 1 2 1 C2 1.66 2 2.32 2 3 C1.01 3 0.02 3 -1 3 C-0.67 2.01 -0.34 1.02 0 0 Z " fill="#B5B5B5" transform="translate(158,135)"/>
<path d="M0 0 C-0.33 1.32 -0.66 2.64 -1 4 C-2.98 4 -4.96 4 -7 4 C-3.375 0 -3.375 0 0 0 Z " fill="#2D2D2D" transform="translate(77,236)"/>
<path d="M0 0 C0.99 0 1.98 0 3 0 C3.33 1.65 3.66 3.3 4 5 C2.68 5 1.36 5 0 5 C0 3.35 0 1.7 0 0 Z " fill="#636363" transform="translate(140,166)"/>
<path d="M0 0 C0 1.32 0 2.64 0 4 C-1.65 4 -3.3 4 -5 4 C-5.33 3.01 -5.66 2.02 -6 1 C-3.92446352 0.4465236 -2.15634036 0 0 0 Z " fill="#1E1E1E" transform="translate(149,151)"/>
<path d="M0 0 C1.98 0 3.96 0 6 0 C6 0.99 6 1.98 6 3 C4.02 3 2.04 3 0 3 C0 2.01 0 1.02 0 0 Z " fill="#D9D9D9" transform="translate(217,144)"/>
<path d="M0 0 C1.65 0 3.3 0 5 0 C5 0.66 5 1.32 5 2 C4.34 2 3.68 2 3 2 C3 2.66 3 3.32 3 4 C1.68 4 0.36 4 -1 4 C-0.67 2.68 -0.34 1.36 0 0 Z " fill="#2E2E2E" transform="translate(157,138)"/>
<path d="M0 0 C1.32 0 2.64 0 4 0 C4 0.66 4 1.32 4 2 C5.32 2 6.64 2 8 2 C8 2.66 8 3.32 8 4 C5.125 3.6875 5.125 3.6875 2 3 C1.34 2.01 0.68 1.02 0 0 Z " fill="#3C3C3C" transform="translate(167,189)"/>
<path d="M0 0 C1.22589844 0.15275391 1.22589844 0.15275391 2.4765625 0.30859375 C3.41628906 0.43427734 3.41628906 0.43427734 4.375 0.5625 C4.375 0.8925 4.375 1.2225 4.375 1.5625 C2.065 1.5625 -0.245 1.5625 -2.625 1.5625 C-2.625 2.2225 -2.625 2.8825 -2.625 3.5625 C-3.285 3.5625 -3.945 3.5625 -4.625 3.5625 C-4.625 2.9025 -4.625 2.2425 -4.625 1.5625 C-5.285 1.2325 -5.945 0.9025 -6.625 0.5625 C-4.10446405 -0.69776798 -2.7707902 -0.35624445 0 0 Z " fill="#3C3C3C" transform="translate(179.625,156.4375)"/>
</svg>
