<?xml version="1.0" encoding="UTF-8"?>
<svg version="1.1" xmlns="http://www.w3.org/2000/svg" width="300" height="300">
<path d="M0 0 C99 0 198 0 300 0 C300 99 300 198 300 300 C201 300 102 300 0 300 C0 201 0 102 0 0 Z " fill="#FEFEFE" transform="translate(0,0)"/>
<path d="M0 0 C36.96 0 73.92 0 112 0 C112 18.15 112 36.3 112 55 C111.34 55 110.68 55 110 55 C110 55.66 110 56.32 110 57 C105.05 57 100.1 57 95 57 C95 64.26 95 71.52 95 79 C117.11 79 139.22 79 162 79 C162 79.66 162 80.32 162 81 C162.66 81 163.32 81 164 81 C164 103.44 164 125.88 164 149 C163.34 149 162.68 149 162 149 C162 149.66 162 150.32 162 151 C151.11 151 140.22 151 129 151 C129 171.46 129 191.92 129 213 C140.55 213 152.1 213 164 213 C164 225.21 164 237.42 164 250 C138.59 250 113.18 250 87 250 C87 239.77 87 229.54 87 219 C66.21 219 45.42 219 24 219 C24 228.24 24 237.48 24 247 C23.34 247 22.68 247 22 247 C22 247.99 22 248.98 22 250 C-2.42 250 -26.84 250 -52 250 C-52 237.79 -52 225.58 -52 213 C-49.02640551 211.51320275 -46.33700821 211.88887395 -43.0234375 211.90234375 C-41.76966309 211.90484131 -40.51588867 211.90733887 -39.22412109 211.90991211 C-37.62391113 211.91901611 -36.02370117 211.92812012 -34.375 211.9375 C-29.30125 211.958125 -24.2275 211.97875 -19 212 C-19 191.87 -19 171.74 -19 151 C-29.89 151 -40.78 151 -52 151 C-52 127.9 -52 104.8 -52 81 C-51.34 81 -50.68 81 -50 81 C-50 80.34 -50 79.68 -50 79 C-27.56 79 -5.12 79 18 79 C18 71.08 18 63.16 18 55 C12.06 55 6.12 55 0 55 C0 36.85 0 18.7 0 0 Z " fill="#FBFBFB" transform="translate(94,24)"/>
<path d="M0 0 C36.96 0 73.92 0 112 0 C112 18.15 112 36.3 112 55 C111.34 55 110.68 55 110 55 C110 55.66 110 56.32 110 57 C105.05 57 100.1 57 95 57 C95 64.26 95 71.52 95 79 C117.11 79 139.22 79 162 79 C162 79.66 162 80.32 162 81 C162.66 81 163.32 81 164 81 C164 103.44 164 125.88 164 149 C163.34 149 162.68 149 162 149 C162 149.66 162 150.32 162 151 C151.11 151 140.22 151 129 151 C129 171.46 129 191.92 129 213 C140.55 213 152.1 213 164 213 C164 225.21 164 237.42 164 250 C138.59 250 113.18 250 87 250 C87 239.77 87 229.54 87 219 C66.21 219 45.42 219 24 219 C24 228.24 24 237.48 24 247 C23.34 247 22.68 247 22 247 C22 247.99 22 248.98 22 250 C-2.42 250 -26.84 250 -52 250 C-52 237.79 -52 225.58 -52 213 C-49.02640551 211.51320275 -46.33700821 211.88887395 -43.0234375 211.90234375 C-41.76966309 211.90484131 -40.51588867 211.90733887 -39.22412109 211.90991211 C-37.62391113 211.91901611 -36.02370117 211.92812012 -34.375 211.9375 C-29.30125 211.958125 -24.2275 211.97875 -19 212 C-19 191.87 -19 171.74 -19 151 C-29.89 151 -40.78 151 -52 151 C-52 127.9 -52 104.8 -52 81 C-51.34 81 -50.68 81 -50 81 C-50 80.34 -50 79.68 -50 79 C-27.56 79 -5.12 79 18 79 C18 71.08 18 63.16 18 55 C12.06 55 6.12 55 0 55 C0 36.85 0 18.7 0 0 Z M27 49 C23.69191956 60.57828156 24.41498075 72.96555814 24 85 C-10.65 85.495 -10.65 85.495 -46 86 C-46 105.47 -46 124.94 -46 145 C-37.09 145 -28.18 145 -19 145 C-19 137.74 -19 130.48 -19 123 C-17.02 123 -15.04 123 -13 123 C-13 154.02 -13 185.04 -13 217 C-23.89 217 -34.78 217 -46 217 C-46 226.24 -46 235.48 -46 245 C-24.88 245 -3.76 245 18 245 C18 234.44 18 223.88 18 213 C42.42 212.67 66.84 212.34 92 212 C92 212.66 92 213.32 92 214 C92.66 214 93.32 214 94 214 C94 223.57 94 233.14 94 243 C115.78 243 137.56 243 160 243 C160 234.42 160 225.84 160 217 C148.45 217 136.9 217 125 217 C125 185.98 125 154.96 125 123 C126.65 123 128.3 123 130 123 C130 130.26 130 137.52 130 145 C139.24 145 148.48 145 158 145 C158 125.53 158 106.06 158 86 C134.57 86 111.14 86 87 86 C86.02531337 82.10125347 85.79849008 78.83308289 85.68359375 74.828125 C85.66281265 74.1457074 85.64203156 73.46328979 85.62062073 72.76019287 C85.55547948 70.59022644 85.49640596 68.42014376 85.4375 66.25 C85.39428103 64.77472779 85.35066568 63.29946713 85.30664062 61.82421875 C85.19983482 58.21626834 85.09846847 54.60818867 85 51 C83.68 51.66 82.36 52.32 81 53 C81 53.66 81 54.32 81 55 C75.06 55 69.12 55 63 55 C62.67 57.97 62.34 60.94 62 64 C59.03 64 56.06 64 53 64 C53 63.34 53 62.68 53 62 C52.525625 61.54625 52.05125 61.0925 51.5625 60.625 C50 59 50 59 49 55 C43.72 55 38.44 55 33 55 C33 54.34 33 53.68 33 53 C32.01 52.505 32.01 52.505 31 52 C30.505 50.515 30.505 50.515 30 49 C29.01 49 28.02 49 27 49 Z " fill="#424242" transform="translate(94,24)"/>
<path d="M0 0 C36.3 0 72.6 0 110 0 C110 18.15 110 36.3 110 55 C109.34 55 108.68 55 108 55 C108 55.66 108 56.32 108 57 C103.05 57 98.1 57 93 57 C93 64.26 93 71.52 93 79 C115.11 79 137.22 79 160 79 C160 79.66 160 80.32 160 81 C160.66 81 161.32 81 162 81 C162 103.44 162 125.88 162 149 C161.34 149 160.68 149 160 149 C160 149.66 160 150.32 160 151 C149.11 151 138.22 151 127 151 C127 171.46 127 191.92 127 213 C137.89 213 148.78 213 160 213 C160 224.55 160 236.1 160 248 C136.24 248 112.48 248 88 248 C88 246.35 88 244.7 88 243 C88.66 243 89.32 243 90 243 C90 243.66 90 244.32 90 245 C111.78 245 133.56 245 156 245 C156 244.34 156 243.68 156 243 C156.66 243 157.32 243 158 243 C158 234.42 158 225.84 158 217 C146.45 217 134.9 217 123 217 C123 185.98 123 154.96 123 123 C124.65 123 126.3 123 128 123 C128 130.26 128 137.52 128 145 C137.24 145 146.48 145 156 145 C156 125.2 156 105.4 156 85 C133.56 85 111.12 85 88 85 C88 84.34 88 83.68 88 83 C87.34 83 86.68 83 86 83 C86 62.87 86 42.74 86 22 C64.88 22 43.76 22 22 22 C22 22.66 22 23.32 22 24 C21.34 24 20.68 24 20 24 C20 42.81 20 61.62 20 81 C19.34 81 18.68 81 18 81 C18 60.21 18 39.42 18 18 C41.76 18 65.52 18 90 18 C90 28.56 90 39.12 90 50 C94.95 50.33 99.9 50.66 105 51 C105 35.82 105 20.64 105 5 C71.34 5 37.68 5 3 5 C2.67 20.51 2.34 36.02 2 52 C1.01 51.67 0.02 51.34 -1 51 C-1.02532087 44.21900224 -1.04285457 37.43801663 -1.05493164 30.65698242 C-1.05996551 28.3493606 -1.06679305 26.04174197 -1.07543945 23.73413086 C-1.08754635 20.42040214 -1.09323773 17.10671552 -1.09765625 13.79296875 C-1.10281754 12.7585112 -1.10797882 11.72405365 -1.11329651 10.6582489 C-1.11337204 9.6974794 -1.11344757 8.7367099 -1.11352539 7.74682617 C-1.115746 6.90077316 -1.11796661 6.05472015 -1.12025452 5.18302917 C-1 3 -1 3 0 0 Z " fill="#656565" transform="translate(96,24)"/>
<path d="M0 0 C21.12 0 42.24 0 64 0 C64 20.13 64 40.26 64 61 C64.66 61 65.32 61 66 61 C66 61.66 66 62.32 66 63 C88.44 63 110.88 63 134 63 C134 63.33 134 63.66 134 64 C110.57 64 87.14 64 63 64 C60.89755168 59.79510336 60.70333773 57.66461747 60.5859375 53.046875 C60.55688828 52.05654266 60.55688828 52.05654266 60.5272522 51.04620361 C60.46770651 48.94759847 60.42117278 46.84893772 60.375 44.75 C60.33679706 43.3228934 60.29774398 41.89580928 60.2578125 40.46875 C60.1620267 36.97937309 60.07790358 33.48982714 60 30 C59.01 30.33 58.02 30.66 57 31 C57 31.66 57 32.32 57 33 C51.06 33 45.12 33 39 33 C39 35.31 39 37.62 39 40 C38.505 40.99 38.505 40.99 38 42 C35.03 42 32.06 42 29 42 C29 41.34 29 40.68 29 40 C27.515 39.505 27.515 39.505 26 39 C25.505 36.03 25.505 36.03 25 33 C19.72 33 14.44 33 9 33 C9 32.34 9 31.68 9 31 C7.515 30.505 7.515 30.505 6 30 C6 29.01 6 28.02 6 27 C5.01 27 4.02 27 3 27 C3.020625 27.969375 3.04125 28.93875 3.0625 29.9375 C3 33 3 33 2 34 C1.85361067 36.13245482 1.77254188 38.26945337 1.71875 40.40625 C1.68136719 41.70691406 1.64398438 43.00757813 1.60546875 44.34765625 C1.5697606 45.7317567 1.53461129 47.11587168 1.5 48.5 C1.43253065 51.19814351 1.35879127 53.89584869 1.28125 56.59375 C1.25095703 57.79708984 1.22066406 59.00042969 1.18945312 60.24023438 C1 63 1 63 0 64 C-2.17805719 64.09429342 -4.3592128 64.11742538 -6.53930664 64.11352539 C-7.22220261 64.11367142 -7.90509857 64.11381744 -8.60868835 64.1139679 C-10.87587614 64.11326876 -13.14298274 64.1054764 -15.41015625 64.09765625 C-16.97814387 64.09579207 -18.54613207 64.09436817 -20.11412048 64.09336853 C-24.24876503 64.08954334 -28.38337466 64.07971306 -32.51800537 64.06866455 C-36.73400398 64.05845044 -40.95000822 64.05387091 -45.16601562 64.04882812 C-53.44402647 64.03809079 -61.7220089 64.02101436 -70 64 C-70 63.67 -70 63.34 -70 63 C-47.56 63 -25.12 63 -2 63 C-2 62.34 -2 61.68 -2 61 C-1.34 61 -0.68 61 0 61 C0 40.87 0 20.74 0 0 Z " fill="#F3F3F3" transform="translate(118,46)"/>
<path d="M0 0 C33 0 66 0 100 0 C100 15.18 100 30.36 100 46 C87 46 87 46 85 45 C85 34.44 85 23.88 85 13 C61.24 13 37.48 13 13 13 C13 13.66 13 14.32 13 15 C12.34 15 11.68 15 11 15 C11 24.9 11 34.8 11 45 C6.71 45 2.42 45 -2 45 C-2 30.81 -2 16.62 -2 2 C-1.34 2 -0.68 2 0 2 C0 1.34 0 0.68 0 0 Z " fill="#FCFCFC" transform="translate(101,29)"/>
<path d="M0 0 C0 1.98 0 3.96 0 6 C-2.31 6 -4.62 6 -7 6 C-7 6.66 -7 7.32 -7 8 C-7.66 8.33 -8.32 8.66 -9 9 C-6.525 9.495 -6.525 9.495 -4 10 C-4 10.66 -4 11.32 -4 12 C-3.34 12 -2.68 12 -2 12 C-2 12.99 -2 13.98 -2 15 C-1.34 15 -0.68 15 0 15 C0 16.32 0 17.64 0 19 C2.97 19 5.94 19 9 19 C9 19.66 9 20.32 9 21 C9.66 21 10.32 21 11 21 C11 21.66 11 22.32 11 23 C11.66 23 12.32 23 13 23 C13 25.31 13 27.62 13 30 C11.68 30 10.36 30 9 30 C9 30.66 9 31.32 9 32 C8.34 32 7.68 32 7 32 C5.95785309 36.61507774 5.95785309 36.61507774 7 41 C7.07033769 42.87379605 7.0843022 44.75001102 7.0625 46.625 C7.05347656 47.62789062 7.04445312 48.63078125 7.03515625 49.6640625 C7.02355469 50.43492187 7.01195312 51.20578125 7 52 C6.01 52 5.02 52 4 52 C4 52.66 4 53.32 4 54 C3.34 54 2.68 54 2 54 C2 54.66 2 55.32 2 56 C-0.97 56 -3.94 56 -7 56 C-7 55.34 -7 54.68 -7 54 C-7.66 54 -8.32 54 -9 54 C-9 53.34 -9 52.68 -9 52 C-9.66 52 -10.32 52 -11 52 C-11 51.34 -11 50.68 -11 50 C-12.32 50 -13.64 50 -15 50 C-15 49.01 -15 48.02 -15 47 C-18.465 46.505 -18.465 46.505 -22 46 C-22 46.66 -22 47.32 -22 48 C-23.45823212 48.0270043 -24.91660675 48.04639787 -26.375 48.0625 C-27.59316406 48.07990234 -27.59316406 48.07990234 -28.8359375 48.09765625 C-31 48 -31 48 -33 47 C-33 44.36 -33 41.72 -33 39 C-32.34 39 -31.68 39 -31 39 C-31 36.03 -31 33.06 -31 30 C-32.32 30 -33.64 30 -35 30 C-35 26.37 -35 22.74 -35 19 C-36.98 19 -38.96 19 -41 19 C-41.33 16.69 -41.66 14.38 -42 12 C-41.34 12 -40.68 12 -40 12 C-40 11.34 -40 10.68 -40 10 C-33.4 10 -26.8 10 -20 10 C-20 9.34 -20 8.68 -20 8 C-19.34 8 -18.68 8 -18 8 C-18 7.34 -18 6.68 -18 6 C-17.01 6 -16.02 6 -15 6 C-15 5.01 -15 4.02 -15 3 C-9.63999211 0.74315457 -5.8022175 -0.36263859 0 0 Z " fill="#5C5C5C" transform="translate(162,132)"/>
<path d="M0 0 C0.66 0 1.32 0 2 0 C2 16.83 2 33.66 2 51 C2.99 51.495 2.99 51.495 4 52 C3.99777939 51.41340103 3.99555878 50.82680206 3.99327087 50.22242737 C3.9712179 44.13974616 3.95609336 38.05707623 3.94506836 31.97436523 C3.94002675 29.70157409 3.93319363 27.4287862 3.92456055 25.15600586 C3.91248739 21.89696449 3.90677013 18.63796583 3.90234375 15.37890625 C3.89718246 14.35599991 3.89202118 13.33309357 3.88670349 12.27919006 C3.88662796 11.33829025 3.88655243 10.39739044 3.88647461 9.42797852 C3.884254 8.59524918 3.88203339 7.76251984 3.87974548 6.90455627 C4 5 4 5 5 4 C8.1050725 3.90466347 11.18786458 3.87448874 14.29321289 3.88647461 C15.26871597 3.88632858 16.24421906 3.88618256 17.24928284 3.8860321 C20.49042953 3.88673167 23.73151954 3.89452609 26.97265625 3.90234375 C29.21325143 3.90420778 31.45384702 3.90563175 33.69444275 3.90663147 C39.6045951 3.91045787 45.51472305 3.9202892 51.42486572 3.93133545 C57.45055817 3.94154694 63.47625453 3.94612853 69.50195312 3.95117188 C81.33464616 3.96191136 93.16732106 3.97898924 105 4 C105 4.33 105 4.66 105 5 C72.66 5 40.32 5 7 5 C7 5.66 7 6.32 7 7 C6.34 7 5.68 7 5 7 C5 21.19 5 35.38 5 50 C9.29 50 13.58 50 18 50 C18 40.1 18 30.2 18 20 C18.66 20 19.32 20 20 20 C20 40.13 20 60.26 20 81 C20.66 81 21.32 81 22 81 C22 62.19 22 43.38 22 24 C22.66 24 23.32 24 24 24 C24 43.47 24 62.94 24 83 C23.34 83 22.68 83 22 83 C22 83.66 22 84.32 22 85 C-0.44 85 -22.88 85 -46 85 C-46 105.46 -46 125.92 -46 147 C-30.63288818 149.13507774 -30.63288818 149.13507774 -18 145 C-17.84344973 143.51361008 -17.74933057 142.02050873 -17.68359375 140.52734375 C-17.62075195 139.17866211 -17.62075195 139.17866211 -17.55664062 137.80273438 C-17.51732422 136.85720703 -17.47800781 135.91167969 -17.4375 134.9375 C-17.37272461 133.5134082 -17.37272461 133.5134082 -17.30664062 132.06054688 C-17.20020724 129.70718647 -17.09818992 127.35371646 -17 125 C-16.34 125 -15.68 125 -15 125 C-15 154.7 -15 184.4 -15 215 C-15.66 215 -16.32 215 -17 215 C-17 193.88 -17 172.76 -17 151 C-28.55 151 -40.1 151 -52 151 C-52 127.9 -52 104.8 -52 81 C-51.34 81 -50.68 81 -50 81 C-50 80.34 -50 79.68 -50 79 C-27.56 79 -5.12 79 18 79 C18 71.08 18 63.16 18 55 C12.06 55 6.12 55 0 55 C0 36.85 0 18.7 0 0 Z " fill="#6E6E6E" transform="translate(94,24)"/>
<path d="M0 0 C5.61 0 11.22 0 17 0 C17 0.66 17 1.32 17 2 C17.66 2 18.32 2 19 2 C19 7.61 19 13.22 19 19 C18.34 19 17.68 19 17 19 C17 19.99 17 20.98 17 22 C11.72 22 6.44 22 1 22 C1 24.31 1 26.62 1 29 C0.67 29.66 0.34 30.32 0 31 C-2.97 31 -5.94 31 -9 31 C-9 30.34 -9 29.68 -9 29 C-9.99 28.67 -10.98 28.34 -12 28 C-12.33 26.02 -12.66 24.04 -13 22 C-18.28 22 -23.56 22 -29 22 C-29 21.34 -29 20.68 -29 20 C-29.66 20 -30.32 20 -31 20 C-31 14.06 -31 8.12 -31 2 C-24.73 2 -18.46 2 -12 2 C-12 8.6 -12 15.2 -12 22 C-9.03 22 -6.06 22 -3 22 C-3 21.34 -3 20.68 -3 20 C-2.34 20 -1.68 20 -1 20 C-1.01160156 18.72382812 -1.02320313 17.44765625 -1.03515625 16.1328125 C-1.04453417 14.46354313 -1.05363437 12.79427217 -1.0625 11.125 C-1.07087891 10.28324219 -1.07925781 9.44148438 -1.08789062 8.57421875 C-1.09272461 7.36572266 -1.09272461 7.36572266 -1.09765625 6.1328125 C-1.10551147 5.01737061 -1.10551147 5.01737061 -1.11352539 3.87939453 C-1 2 -1 2 0 0 Z " fill="#A7A7A7" transform="translate(156,57)"/>
<path d="M0 0 C1.98 0 3.96 0 6 0 C6 31.02 6 62.04 6 94 C-4.89 94 -15.78 94 -27 94 C-27 102.58 -27 111.16 -27 120 C-27.66 120 -28.32 120 -29 120 C-29 112.08 -29 104.16 -29 96 C-29.66 96 -30.32 96 -31 96 C-31 105.57 -31 115.14 -31 125 C-7.24 125 16.52 125 41 125 C41 125.66 41 126.32 41 127 C16.58 127 -7.84 127 -33 127 C-33 114.79 -33 102.58 -33 90 C-30.02640551 88.51320275 -27.33700821 88.88887395 -24.0234375 88.90234375 C-22.76966309 88.90484131 -21.51588867 88.90733887 -20.22412109 88.90991211 C-18.62391113 88.91901611 -17.02370117 88.92812012 -15.375 88.9375 C-10.30125 88.958125 -5.2275 88.97875 0 89 C0 68.87 0 48.74 0 28 C0.66 28 1.32 28 2 28 C2 49.12 2 70.24 2 92 C2.66 92 3.32 92 4 92 C4 62.3 4 32.6 4 2 C3.34 2 2.68 2 2 2 C2.01571045 2.89307861 2.01571045 2.89307861 2.03173828 3.80419922 C2.07323949 6.49442343 2.09930704 9.18458037 2.125 11.875 C2.14175781 12.81214844 2.15851563 13.74929687 2.17578125 14.71484375 C2.18544922 16.05869141 2.18544922 16.05869141 2.1953125 17.4296875 C2.21102295 18.67081299 2.21102295 18.67081299 2.22705078 19.93701172 C2 22 2 22 0 24 C-2.70556641 24.22705078 -2.70556641 24.22705078 -6.1015625 24.1953125 C-7.91914062 24.18564453 -7.91914062 24.18564453 -9.7734375 24.17578125 C-11.04445313 24.15902344 -12.31546875 24.14226562 -13.625 24.125 C-14.90375 24.11597656 -16.1825 24.10695312 -17.5 24.09765625 C-20.66685167 24.07402303 -23.83333424 24.04107629 -27 24 C-27 23.34 -27 22.68 -27 22 C-18.09 22 -9.18 22 0 22 C0 14.74 0 7.48 0 0 Z " fill="#767676" transform="translate(75,147)"/>
<path d="M0 0 C1.32 0 2.64 0 4 0 C4 7.92 4 15.84 4 24 C14.23 24 24.46 24 35 24 C35 24.66 35 25.32 35 26 C25.43 26 15.86 26 6 26 C6 26.66 6 27.32 6 28 C5.34 28 4.68 28 4 28 C4 48.46 4 68.92 4 90 C14.89 90 25.78 90 37 90 C37 101.55 37 113.1 37 125 C13.24 125 -10.52 125 -35 125 C-35 123.35 -35 121.7 -35 120 C-34.34 120 -33.68 120 -33 120 C-33 120.66 -33 121.32 -33 122 C-11.22 122 10.56 122 33 122 C33 121.34 33 120.68 33 120 C33.66 120 34.32 120 35 120 C35 111.42 35 102.84 35 94 C23.45 94 11.9 94 0 94 C0 62.98 0 31.96 0 0 Z " fill="#3D3D3D" transform="translate(219,147)"/>
<path d="M0 0 C0.66 0 1.32 0 2 0 C2 22.44 2 44.88 2 68 C1.34 68 0.68 68 0 68 C0 68.66 0 69.32 0 70 C-10.23 70 -20.46 70 -31 70 C-31 69.34 -31 68.68 -31 68 C-21.43 68 -11.86 68 -2 68 C-2 67.34 -2 66.68 -2 66 C-12.23 66 -22.46 66 -33 66 C-33 58.08 -33 50.16 -33 42 C-32.67 42 -32.34 42 -32 42 C-32 49.26 -32 56.52 -32 64 C-22.76 64 -13.52 64 -4 64 C-4 44.53 -4 25.06 -4 5 C-3.34 5 -2.68 5 -2 5 C-2 4.01 -2 3.02 -2 2 C-1.34 2 -0.68 2 0 2 C0 1.34 0 0.68 0 0 Z " fill="#6A6A6A" transform="translate(256,105)"/>
<path d="M0 0 C21.12 0 42.24 0 64 0 C64 20.13 64 40.26 64 61 C64.66 61 65.32 61 66 61 C66 61.66 66 62.32 66 63 C88.44 63 110.88 63 134 63 C134 63.33 134 63.66 134 64 C110.57 64 87.14 64 63 64 C61.96733518 60.90200554 61.84490475 58.67740727 61.79467773 55.42700195 C61.77449585 54.27010864 61.75431396 53.11321533 61.73352051 51.92126465 C61.70880676 50.09818787 61.70880676 50.09818787 61.68359375 48.23828125 C61.66494263 47.12078491 61.6462915 46.00328857 61.6270752 44.85192871 C61.55870821 40.67220059 61.49860377 36.49234062 61.4375 32.3125 C61.293125 22.969375 61.14875 13.62625 61 4 C41.53 4 22.06 4 2 4 C1.71060328 23.3718711 1.71060328 23.3718711 1.43188477 42.74389648 C1.39378123 45.16130174 1.35531377 47.5787013 1.31640625 49.99609375 C1.29993042 51.2648938 1.28345459 52.53369385 1.26647949 53.84094238 C1.24629761 55.03868286 1.22611572 56.23642334 1.20532227 57.47045898 C1.18977798 58.51636703 1.1742337 59.56227509 1.15821838 60.63987732 C1 63 1 63 0 64 C-2.17805719 64.09429342 -4.3592128 64.11742538 -6.53930664 64.11352539 C-7.22220261 64.11367142 -7.90509857 64.11381744 -8.60868835 64.1139679 C-10.87587614 64.11326876 -13.14298274 64.1054764 -15.41015625 64.09765625 C-16.97814387 64.09579207 -18.54613207 64.09436817 -20.11412048 64.09336853 C-24.24876503 64.08954334 -28.38337466 64.07971306 -32.51800537 64.06866455 C-36.73400398 64.05845044 -40.95000822 64.05387091 -45.16601562 64.04882812 C-53.44402647 64.03809079 -61.7220089 64.02101436 -70 64 C-70 63.67 -70 63.34 -70 63 C-47.56 63 -25.12 63 -2 63 C-2 62.34 -2 61.68 -2 61 C-1.34 61 -0.68 61 0 61 C0 40.87 0 20.74 0 0 Z " fill="#B5B5B5" transform="translate(118,46)"/>
<path d="M0 0 C1.15674555 0.00081715 1.15674555 0.00081715 2.3368597 0.00165081 C3.22165005 -0.00254368 4.10644039 -0.00673817 5.01804256 -0.01105976 C5.99110851 -0.00544025 6.96417446 0.00017925 7.96672726 0.00596905 C8.98953793 0.0040707 10.01234859 0.00217236 11.06615353 0.00021648 C14.45943941 -0.0034994 17.85251302 0.00722382 21.24577999 0.01842022 C23.5946516 0.01961158 25.94352369 0.02006527 28.29239559 0.01980877 C33.21951426 0.021375 38.14656042 0.02967586 43.07366085 0.04307842 C49.40494934 0.06007777 55.7361581 0.06389258 62.06746674 0.06313324 C66.91857324 0.06340451 71.76966215 0.0688786 76.62076283 0.07613468 C78.95607463 0.07932773 81.29138844 0.08129023 83.62670231 0.08202839 C86.88330806 0.08418471 90.13982741 0.09291326 93.39641476 0.1036253 C94.85905003 0.10294552 94.85905003 0.10294552 96.35123348 0.10225201 C97.233204 0.10651699 98.11517452 0.11078197 99.02387142 0.1151762 C100.18005144 0.11768997 100.18005144 0.11768997 101.35958862 0.12025452 C103.11687374 0.24888897 103.11687374 0.24888897 104.11687374 1.24888897 C104.2101409 2.81435945 104.23432956 4.38401669 104.23039913 5.95225811 C104.23028584 7.45370121 104.23028584 7.45370121 104.23017025 8.98547649 C104.22500896 10.07400417 104.21984768 11.16253185 104.21452999 12.28404522 C104.21311504 13.39243252 104.2117001 14.50081982 104.21024227 15.64279461 C104.20462407 19.19901966 104.19206849 22.7551828 104.17937374 26.31138897 C104.17436109 28.71568494 104.16979777 31.11998189 104.16570187 33.52427959 C104.15464873 39.43250401 104.13789291 45.34069207 104.11687374 51.24888897 C103.78687374 51.24888897 103.45687374 51.24888897 103.11687374 51.24888897 C103.11687374 35.73888897 103.11687374 20.22888897 103.11687374 4.24888897 C69.12687374 4.24888897 35.13687374 4.24888897 0.11687374 4.24888897 C-0.21312626 19.75888897 -0.54312626 35.26888897 -0.88312626 51.24888897 C-1.87312626 50.91888897 -2.86312626 50.58888897 -3.88312626 50.24888897 C-3.93371566 43.44960478 -3.96881293 36.65036887 -3.99298954 29.85093975 C-4.00306518 27.53646818 -4.01672601 25.22200938 -4.03400517 22.90758038 C-4.0581849 19.58642204 -4.06959356 16.26543156 -4.07843876 12.94420147 C-4.08876133 11.90458263 -4.0990839 10.8649638 -4.10971928 9.79384136 C-4.10987034 8.83299633 -4.1100214 7.8721513 -4.11017704 6.88218975 C-4.11461826 6.03391613 -4.11905949 5.18564251 -4.12363529 4.31166363 C-3.79436282 1.48759129 -2.85759426 0.37768242 0 0 Z " fill="#313131" transform="translate(98.8831262588501,24.751111030578613)"/>
<path d="M0 0 C0.66 0 1.32 0 2 0 C2 12.21 2 24.42 2 37 C-23.41 37 -48.82 37 -75 37 C-75 26.77 -75 16.54 -75 6 C-95.79 6 -116.58 6 -138 6 C-138 15.24 -138 24.48 -138 34 C-138.66 34 -139.32 34 -140 34 C-140 24.1 -140 14.2 -140 4 C-118.22 4 -96.44 4 -74 4 C-74 4.66 -74 5.32 -74 6 C-73.34 6 -72.68 6 -72 6 C-72 15.57 -72 25.14 -72 35 C-48.24 35 -24.48 35 0 35 C0 23.45 0 11.9 0 0 Z " fill="#7C7C7C" transform="translate(256,237)"/>
<path d="M0 0 C0 1.98 0 3.96 0 6 C-2.31 6 -4.62 6 -7 6 C-7 6.66 -7 7.32 -7 8 C-7.66 8.33 -8.32 8.66 -9 9 C-6.525 9.495 -6.525 9.495 -4 10 C-4 10.66 -4 11.32 -4 12 C-3.34 12 -2.68 12 -2 12 C-2 12.99 -2 13.98 -2 15 C-1.34 15 -0.68 15 0 15 C0 16.32 0 17.64 0 19 C2.97 19 5.94 19 9 19 C9 19.66 9 20.32 9 21 C5.37 21 1.74 21 -2 21 C-2.66 18.36 -3.32 15.72 -4 13 C-6.31 13 -8.62 13 -11 13 C-11 13.66 -11 14.32 -11 15 C-11.66 15 -12.32 15 -13 15 C-13 15.66 -13 16.32 -13 17 C-13.66 17 -14.32 17 -15 17 C-15 17.66 -15 18.32 -15 19 C-20.94 19 -26.88 19 -33 19 C-33 19.66 -33 20.32 -33 21 C-33.66 21 -34.32 21 -35 21 C-35 20.34 -35 19.68 -35 19 C-36.98 19 -38.96 19 -41 19 C-41.33 16.69 -41.66 14.38 -42 12 C-41.34 12 -40.68 12 -40 12 C-40 11.34 -40 10.68 -40 10 C-33.4 10 -26.8 10 -20 10 C-20 9.34 -20 8.68 -20 8 C-19.34 8 -18.68 8 -18 8 C-18 7.34 -18 6.68 -18 6 C-17.01 6 -16.02 6 -15 6 C-15 5.01 -15 4.02 -15 3 C-9.63999211 0.74315457 -5.8022175 -0.36263859 0 0 Z " fill="#D3D3D3" transform="translate(162,132)"/>
<path d="M0 0 C6.27 0 12.54 0 19 0 C19 6.6 19 13.2 19 20 C22.63 20 26.26 20 30 20 C30 21.98 30 23.96 30 26 C26.37 26 22.74 26 19 26 C18.67 24.02 18.34 22.04 18 20 C12.72 20 7.44 20 2 20 C2 19.34 2 18.68 2 18 C1.34 18 0.68 18 0 18 C0 12.06 0 6.12 0 0 Z " fill="#A1A1A1" transform="translate(125,59)"/>
<path d="M0 0 C0.66 0 1.32 0 2 0 C2 16.83 2 33.66 2 51 C2.66 51.33 3.32 51.66 4 52 C3.99777939 51.41340103 3.99555878 50.82680206 3.99327087 50.22242737 C3.9712179 44.13974616 3.95609336 38.05707623 3.94506836 31.97436523 C3.94002675 29.70157409 3.93319363 27.4287862 3.92456055 25.15600586 C3.91248739 21.89696449 3.90677013 18.63796583 3.90234375 15.37890625 C3.89718246 14.35599991 3.89202118 13.33309357 3.88670349 12.27919006 C3.88662796 11.33829025 3.88655243 10.39739044 3.88647461 9.42797852 C3.884254 8.59524918 3.88203339 7.76251984 3.87974548 6.90455627 C4 5 4 5 5 4 C8.1050725 3.90466347 11.18786458 3.87448874 14.29321289 3.88647461 C15.26871597 3.88632858 16.24421906 3.88618256 17.24928284 3.8860321 C20.49042953 3.88673167 23.73151954 3.89452609 26.97265625 3.90234375 C29.21325143 3.90420778 31.45384702 3.90563175 33.69444275 3.90663147 C39.6045951 3.91045787 45.51472305 3.9202892 51.42486572 3.93133545 C57.45055817 3.94154694 63.47625453 3.94612853 69.50195312 3.95117188 C81.33464616 3.96191136 93.16732106 3.97898924 105 4 C105 4.33 105 4.66 105 5 C72.66 5 40.32 5 7 5 C7 5.66 7 6.32 7 7 C6.34 7 5.68 7 5 7 C5 21.19 5 35.38 5 50 C9.29 50 13.58 50 18 50 C18 40.1 18 30.2 18 20 C18.66 20 19.32 20 20 20 C20 39.47 20 58.94 20 79 C19.34 79 18.68 79 18 79 C18 71.08 18 63.16 18 55 C12.06 55 6.12 55 0 55 C0 36.85 0 18.7 0 0 Z " fill="#727272" transform="translate(94,24)"/>
<path d="M0 0 C0.70254913 -0.00014603 1.40509827 -0.00029205 2.12893677 -0.0004425 C4.45561795 0.00025525 6.78221949 0.0080412 9.10888672 0.01586914 C10.72028561 0.01773381 12.33168506 0.01915748 13.94308472 0.02015686 C18.18786174 0.02397819 22.43260464 0.03380521 26.67736816 0.04486084 C31.0074009 0.05508321 35.33743915 0.05965625 39.66748047 0.06469727 C48.16619406 0.07542781 56.6648799 0.09249964 65.16357422 0.11352539 C65.16357422 0.77352539 65.16357422 1.43352539 65.16357422 2.11352539 C65.82357422 2.11352539 66.48357422 2.11352539 67.16357422 2.11352539 C67.16357422 11.68352539 67.16357422 21.25352539 67.16357422 31.11352539 C88.28357422 31.11352539 109.40357422 31.11352539 131.16357422 31.11352539 C131.16357422 31.77352539 131.16357422 32.43352539 131.16357422 33.11352539 C109.38357422 33.11352539 87.60357422 33.11352539 65.16357422 33.11352539 C65.16357422 23.21352539 65.16357422 13.31352539 65.16357422 3.11352539 C41.40357422 2.78352539 17.64357422 2.45352539 -6.83642578 2.11352539 C-6.83642578 11.68352539 -6.83642578 21.25352539 -6.83642578 31.11352539 C-7.49642578 31.11352539 -8.15642578 31.11352539 -8.83642578 31.11352539 C-8.83642578 21.21352539 -8.83642578 11.31352539 -8.83642578 1.11352539 C-5.89395851 -0.35770825 -3.28457556 -0.00572226 0 0 Z " fill="#7D7D7D" transform="translate(120.83642578125,235.886474609375)"/>
<path d="M0 0 C33 0 66 0 100 0 C100 15.18 100 30.36 100 46 C87 46 87 46 85 45 C85 35.1 85 25.2 85 15 C85.66 15 86.32 15 87 15 C87 24.24 87 33.48 87 43 C90.63 43 94.26 43 98 43 C98 29.47 98 15.94 98 2 C65.66 2 33.32 2 0 2 C0 1.34 0 0.68 0 0 Z " fill="#D0D0D0" transform="translate(101,29)"/>
<path d="M0 0 C0.66 0 1.32 0 2 0 C2 18.15 2 36.3 2 55 C1.34 55 0.68 55 0 55 C0 55.66 0 56.32 0 57 C-4.95 57 -9.9 57 -15 57 C-15 64.26 -15 71.52 -15 79 C7.11 79 29.22 79 52 79 C52 79.66 52 80.32 52 81 C29.56 81 7.12 81 -16 81 C-16 80.34 -16 79.68 -16 79 C-16.66 79 -17.32 79 -18 79 C-18 71.08 -18 63.16 -18 55 C-14 53 -14 53 0 53 C0 35.51 0 18.02 0 0 Z " fill="#A2A2A2" transform="translate(204,24)"/>
<path d="M0 0 C1.32 0 2.64 0 4 0 C4 0.66 4 1.32 4 2 C5.32 2 6.64 2 8 2 C8 2.66 8 3.32 8 4 C8.66 4 9.32 4 10 4 C10 6.97 10 9.94 10 13 C14.62 13 19.24 13 24 13 C24 13.66 24 14.32 24 15 C25.32 15 26.64 15 28 15 C28 16.32 28 17.64 28 19 C28.66 19 29.32 19 30 19 C30 21.31 30 23.62 30 26 C25.78121808 26.19622241 22.82989106 25.80230168 19 24 C19 23.01 19 22.02 19 21 C18.34 21 17.68 21 17 21 C17 20.34 17 19.68 17 19 C15.68 19 14.36 19 13 19 C13 18.34 13 17.68 13 17 C10.03 17 7.06 17 4 17 C4 17.66 4 18.32 4 19 C3.34 19 2.68 19 2 19 C2 17.68 2 16.36 2 15 C2.66 15 3.32 15 4 15 C4 11.37 4 7.74 4 4 C2.68 4 1.36 4 0 4 C0 2.68 0 1.36 0 0 Z " fill="#F0F0F0" transform="translate(134,156)"/>
<path d="M0 0 C1.65 0 3.3 0 5 0 C5.66 2.64 6.32 5.28 7 8 C10.3 8.33 13.6 8.66 17 9 C17 9.66 17 10.32 17 11 C16.34 11 15.68 11 15 11 C15 11.66 15 12.32 15 13 C13.68 13 12.36 13 11 13 C11 13.66 11 14.32 11 15 C10.34 15 9.68 15 9 15 C9 17.31 9 19.62 9 22 C8.34 22 7.68 22 7 22 C7 21.34 7 20.68 7 20 C2.38 20 -2.24 20 -7 20 C-8.125 14.375 -8.125 14.375 -7 11 C-7.66 11 -8.32 11 -9 11 C-9 10.34 -9 9.68 -9 9 C-6.69 9 -4.38 9 -2 9 C-2 8.01 -2 7.02 -2 6 C-1.34 6 -0.68 6 0 6 C0 4.02 0 2.04 0 0 Z " fill="#BEBEBE" transform="translate(151,149)"/>
<path d="M0 0 C23.1 0 46.2 0 70 0 C70 0.66 70 1.32 70 2 C48.22 2 26.44 2 4 2 C4 2.66 4 3.32 4 4 C3.34 4 2.68 4 2 4 C2 22.81 2 41.62 2 61 C1.34 61 0.68 61 0 61 C0 40.87 0 20.74 0 0 Z " fill="#131313" transform="translate(114,44)"/>
<path d="M0 0 C0.66 0 1.32 0 2 0 C2 29.7 2 59.4 2 90 C1.34 90 0.68 90 0 90 C0 68.88 0 47.76 0 26 C-0.99 26 -1.98 26 -3 26 C-3 25.34 -3 24.68 -3 24 C-12.24 24 -21.48 24 -31 24 C-31 23.34 -31 22.68 -31 22 C-30.12674072 21.97494385 -29.25348145 21.9498877 -28.35375977 21.92407227 C-25.12397448 21.82912291 -21.89435846 21.72987971 -18.66479492 21.62768555 C-17.26510801 21.58428566 -15.86536641 21.54261436 -14.46557617 21.50268555 C-12.45738505 21.44510555 -10.44938851 21.38086 -8.44140625 21.31640625 C-7.23170166 21.27974854 -6.02199707 21.24309082 -4.77563477 21.20532227 C-2.09294544 21.31061734 -2.09294544 21.31061734 -1 20 C-0.84344973 18.51361008 -0.74933057 17.02050873 -0.68359375 15.52734375 C-0.64169922 14.62822266 -0.59980469 13.72910156 -0.55664062 12.80273438 C-0.51732422 11.85720703 -0.47800781 10.91167969 -0.4375 9.9375 C-0.39431641 8.98810547 -0.35113281 8.03871094 -0.30664062 7.06054688 C-0.20020724 4.70718647 -0.09818992 2.35371646 0 0 Z " fill="#232323" transform="translate(77,149)"/>
<path d="M0 0 C0.66 0 1.32 0 2 0 C1.67 0.99 1.34 1.98 1 3 C-9.23 3 -19.46 3 -30 3 C-30 22.8 -30 42.6 -30 63 C-20.1 63 -10.2 63 0 63 C0 63.33 0 63.66 0 64 C-10.89 64 -21.78 64 -33 64 C-33 43.54 -33 23.08 -33 2 C-22.11 2 -11.22 2 0 2 C0 1.34 0 0.68 0 0 Z " fill="#C0C0C0" transform="translate(256,173)"/>
<path d="M0 0 C35.64 0 71.28 0 108 0 C108 17.49 108 34.98 108 53 C103.38 53.33 98.76 53.66 94 54 C92.68 54.33 91.36 54.66 90 55 C90 53.35 90 51.7 90 50 C94.95 50.33 99.9 50.66 105 51 C104.99476318 49.62223389 104.98952637 48.24446777 104.98413086 46.82495117 C104.96605095 41.72046557 104.954557 36.61598282 104.94506836 31.51147461 C104.940035 29.30085779 104.93320783 27.09024431 104.92456055 24.87963867 C104.91245141 21.704907 104.90676175 18.53021928 104.90234375 15.35546875 C104.89460182 13.86940376 104.89460182 13.86940376 104.88670349 12.35331726 C104.88662796 11.43258926 104.88655243 10.51186127 104.88647461 9.56323242 C104.884254 8.7527092 104.88203339 7.94218597 104.87974548 7.10710144 C105 5 105 5 106 2 C71.02 2 36.04 2 0 2 C0 1.34 0 0.68 0 0 Z " fill="#4A4A4A" transform="translate(96,24)"/>
<path d="M0 0 C0.66 0 1.32 0 2 0 C2 7.26 2 14.52 2 22 C12.23 22 22.46 22 33 22 C33 22.66 33 23.32 33 24 C23.43 24 13.86 24 4 24 C4 24.66 4 25.32 4 26 C3.34 26 2.68 26 2 26 C2 47.12 2 68.24 2 90 C1.34 90 0.68 90 0 90 C0 60.3 0 30.6 0 0 Z " fill="#202020" transform="translate(221,149)"/>
<path d="M0 0 C22.44 0 44.88 0 68 0 C68 0.66 68 1.32 68 2 C45.89 2 23.78 2 1 2 C1 19.82 1 37.64 1 56 C1.66 56 2.32 56 3 56 C3 56.66 3 57.32 3 58 C10.59 58 18.18 58 26 58 C26 51.07 26 44.14 26 37 C26.33 37 26.66 37 27 37 C27 44.26 27 51.52 27 59 C18.09 59 9.18 59 0 59 C0 39.53 0 20.06 0 0 Z " fill="#E0E0E0" transform="translate(48,110)"/>
<path d="M0 0 C1.98 0 3.96 0 6 0 C6 3.63 6 7.26 6 11 C5.34 11 4.68 11 4 11 C4 12.32 4 13.64 4 15 C4.66 15 5.32 15 6 15 C6 14.34 6 13.68 6 13 C8.97 13 11.94 13 15 13 C15 13.66 15 14.32 15 15 C16.32 15 17.64 15 19 15 C19 15.66 19 16.32 19 17 C19.66 17 20.32 17 21 17 C21 18.65 21 20.3 21 22 C21.99 22 22.98 22 24 22 C24 22.66 24 23.32 24 24 C25.98 24 27.96 24 30 24 C30 24.66 30 25.32 30 26 C27.03 26 24.06 26 21 26 C21 25.34 21 24.68 21 24 C20.34 24 19.68 24 19 24 C19 23.34 19 22.68 19 22 C17.68 22 16.36 22 15 22 C15 21.01 15 20.02 15 19 C12.69 18.67 10.38 18.34 8 18 C8 18.66 8 19.32 8 20 C5.03 20 2.06 20 -1 20 C-1.25108696 13.47173913 -1.25108696 13.47173913 0.03125 11.0625 C1.23282938 8.50429874 1.03245054 7.02066369 0.625 4.25 C0.51414063 3.45078125 0.40328125 2.6515625 0.2890625 1.828125 C0.19367188 1.22484375 0.09828125 0.6215625 0 0 Z " fill="#6C6C6C" transform="translate(132,160)"/>
<path d="M0 0 C21.78 0 43.56 0 66 0 C66 10.56 66 21.12 66 32 C66.66 32.33 67.32 32.66 68 33 C67.01 33 66.02 33 65 33 C65 22.77 65 12.54 65 2 C44.21 2 23.42 2 2 2 C2 11.24 2 20.48 2 30 C1.34 30 0.68 30 0 30 C0 20.1 0 10.2 0 0 Z " fill="#A8A8A8" transform="translate(116,241)"/>
<path d="M0 0 C0 1.98 0 3.96 0 6 C-3.63 6 -7.26 6 -11 6 C-11 7.32 -11 8.64 -11 10 C-12.32 10 -13.64 10 -15 10 C-15 10.66 -15 11.32 -15 12 C-21.78743178 14.81552726 -27.68889006 15.3689719 -35 15 C-35 15.66 -35 16.32 -35 17 C-36.65 17 -38.3 17 -40 17 C-39.67 15.35 -39.34 13.7 -39 12 C-37.68 12 -36.36 12 -35 12 C-35 11.34 -35 10.68 -35 10 C-30.05 10 -25.1 10 -20 10 C-20 9.34 -20 8.68 -20 8 C-19.34 8 -18.68 8 -18 8 C-18 7.34 -18 6.68 -18 6 C-17.01 6 -16.02 6 -15 6 C-15 5.01 -15 4.02 -15 3 C-9.63999211 0.74315457 -5.8022175 -0.36263859 0 0 Z " fill="#5B5B5B" transform="translate(162,132)"/>
<path d="M0 0 C5.94 0 11.88 0 18 0 C18 0.66 18 1.32 18 2 C18.66 2 19.32 2 20 2 C20 1.34 20 0.68 20 0 C20.66 0 21.32 0 22 0 C22 1.32 22 2.64 22 4 C21.34 4 20.68 4 20 4 C20 4.99 20 5.98 20 7 C16.37 7 12.74 7 9 7 C9 6.34 9 5.68 9 5 C7.68 5 6.36 5 5 5 C5 6.32 5 7.64 5 9 C4.34 9 3.68 9 3 9 C3.5259375 9.7734375 3.5259375 9.7734375 4.0625 10.5625 C6.15548081 16.00425011 3.43642431 22.54158761 2 28 C1.34 28 0.68 28 0 28 C0 25.36 0 22.72 0 20 C0.66 20 1.32 20 2 20 C2 17.03 2 14.06 2 11 C0.68 11 -0.64 11 -2 11 C-2 8.03 -2 5.06 -2 2 C-1.34 2 -0.68 2 0 2 C0 1.34 0 0.68 0 0 Z " fill="#6F6F6F" transform="translate(129,151)"/>
<path d="M0 0 C1.77537895 0.00999275 1.77537895 0.00999275 3.58662415 0.02018738 C4.24055145 0.0197493 4.89447876 0.01931122 5.56822205 0.01885986 C7.72741158 0.02094816 9.8858224 0.04427967 12.0448761 0.0677948 C13.54274064 0.07339064 15.04061067 0.0776608 16.53848267 0.08065796 C20.47924481 0.09210775 24.4196748 0.12157577 28.36030579 0.1547699 C32.38206997 0.18546807 36.40388787 0.19916273 40.42573547 0.21427917 C48.31586179 0.24644562 56.20571824 0.29764327 64.09565735 0.36076355 C64.09565735 1.02076355 64.09565735 1.68076355 64.09565735 2.36076355 C65.08565735 2.85576355 65.08565735 2.85576355 66.09565735 3.36076355 C42.33565735 3.36076355 18.57565735 3.36076355 -5.90434265 3.36076355 C-2.90434265 0.36076355 -2.90434265 0.36076355 0 0 Z " fill="#E6E6E6" transform="translate(119.90434265136719,38.63923645019531)"/>
<path d="M0 0 C0.99 0 1.98 0 3 0 C3 22.44 3 44.88 3 68 C2.01 68 1.02 68 0 68 C0 45.56 0 23.12 0 0 Z " fill="#DBDBDB" transform="translate(39,105)"/>
<path d="M0 0 C0.66 0 1.32 0 2 0 C2 7.92 2 15.84 2 24 C2.66 24 3.32 24 4 24 C4 24.66 4 25.32 4 26 C4.79291443 25.99333817 5.58582886 25.98667633 6.402771 25.97981262 C13.87730776 25.91968736 21.35172718 25.87401855 28.82644272 25.84456348 C32.66923087 25.82891121 36.5118191 25.80768127 40.35449219 25.77368164 C44.06329563 25.74107205 47.77190684 25.72314369 51.48084259 25.71536827 C52.89543941 25.70982759 54.31002578 25.69900788 55.72454071 25.68280983 C57.70655548 25.66101699 59.6887639 25.65977444 61.67089844 25.65942383 C62.79896912 25.65276199 63.92703979 25.64610016 65.08929443 25.63923645 C68 26 68 26 72 29 C48.24 29 24.48 29 0 29 C0 19.43 0 9.86 0 0 Z " fill="#404040" transform="translate(44,243)"/>
<path d="M0 0 C0.66 0 1.32 0 2 0 C2 9.57 2 19.14 2 29 C23.12 29 44.24 29 66 29 C66 29.66 66 30.32 66 31 C44.22 31 22.44 31 0 31 C0 20.77 0 10.54 0 0 Z " fill="#9F9F9F" transform="translate(186,238)"/>
<path d="M0 0 C4.95 0 9.9 0 15 0 C15 3.63 15 7.26 15 11 C12.40483479 12.29758261 10.45816973 12.13269102 7.5625 12.125 C6.59441406 12.12757812 5.62632812 12.13015625 4.62890625 12.1328125 C2 12 2 12 -1 11 C-1.0270043 9.54176788 -1.04639787 8.08339325 -1.0625 6.625 C-1.07410156 5.81289062 -1.08570313 5.00078125 -1.09765625 4.1640625 C-1 2 -1 2 0 0 Z " fill="#363636" transform="translate(158,66)"/>
<path d="M0 0 C0.66 0 1.32 0 2 0 C2 15.18 2 30.36 2 46 C-11 46 -11 46 -13 45 C-13 35.1 -13 25.2 -13 15 C-12.34 15 -11.68 15 -11 15 C-11 24.24 -11 33.48 -11 43 C-7.37 43 -3.74 43 0 43 C0 28.81 0 14.62 0 0 Z " fill="#A7A7A7" transform="translate(199,29)"/>
<path d="M0 0 C4.95 0 9.9 0 15 0 C15 3.63 15 7.26 15 11 C10.05 11 5.1 11 0 11 C0 7.37 0 3.74 0 0 Z " fill="#3B3B3B" transform="translate(127,66)"/>
<path d="M0 0 C1.2065625 0.0309375 1.2065625 0.0309375 2.4375 0.0625 C2.4375 0.7225 2.4375 1.3825 2.4375 2.0625 C1.4475 2.5575 1.4475 2.5575 0.4375 3.0625 C0.1075 18.5725 -0.2225 34.0825 -0.5625 50.0625 C-1.5525 49.7325 -2.5425 49.4025 -3.5625 49.0625 C-3.5877689 42.24488106 -3.60533244 35.42727411 -3.61743164 28.60961914 C-3.62247333 26.28832549 -3.62930651 23.96703503 -3.63793945 21.64575195 C-3.65001225 18.31721205 -3.65572979 14.98871398 -3.66015625 11.66015625 C-3.66531754 10.61537613 -3.67047882 9.57059601 -3.67579651 8.49415588 C-3.67587204 7.53323532 -3.67594757 6.57231476 -3.67602539 5.58227539 C-3.678246 4.73178116 -3.68046661 3.88128693 -3.68275452 3.00502014 C-3.4961709 -0.00894099 -3.03628441 0.07405572 0 0 Z " fill="#282828" transform="translate(98.5625,25.9375)"/>
<path d="M0 0 C20.79 0 41.58 0 63 0 C63 8.91 63 17.82 63 27 C62.34 27 61.68 27 61 27 C61 18.42 61 9.84 61 1 C41.53 1.33 22.06 1.66 2 2 C1.67 11.57 1.34 21.14 1 31 C0.01 31 -0.98 31 -2 31 C-2 30.01 -2 29.02 -2 28 C-1.34 28 -0.68 28 0 28 C0 18.76 0 9.52 0 0 Z " fill="#F1F1F1" transform="translate(118,243)"/>
<path d="M0 0 C0.66 0 1.32 0 2 0 C2 0.66 2 1.32 2 2 C24.44 2 46.88 2 70 2 C70 2.66 70 3.32 70 4 C69.34 4 68.68 4 68 4 C68 4.99 68 5.98 68 7 C67.34 7 66.68 7 66 7 C66 6.01 66 5.02 66 4 C65.20264435 4.00222061 64.4052887 4.00444122 63.58377075 4.00672913 C56.07916042 4.02674418 48.57456297 4.04198035 41.06993294 4.05181217 C37.2114867 4.05703667 33.35306247 4.06412649 29.49462891 4.07543945 C25.7728847 4.08628368 22.0511617 4.09228011 18.32940292 4.09487724 C16.90759828 4.09672871 15.48579483 4.10034403 14.06399918 4.10573006 C12.0766945 4.11296072 10.08936861 4.11340823 8.10205078 4.11352539 C6.40328293 4.11685631 6.40328293 4.11685631 4.67019653 4.12025452 C2 4 2 4 0 3 C0 2.01 0 1.02 0 0 Z " fill="#3A3A3A" transform="translate(186,103)"/>
<path d="M0 0 C0.93147858 0.00359528 1.86295715 0.00719055 2.82266235 0.01089478 C3.79816544 0.01074875 4.77366852 0.01060272 5.7787323 0.01045227 C9.01987899 0.01115184 12.260969 0.01894626 15.50210571 0.02676392 C17.74270089 0.02862794 19.98329648 0.03005192 22.22389221 0.03105164 C28.13404456 0.03487804 34.04417251 0.04470936 39.95431519 0.05575562 C45.98000763 0.06596711 52.005704 0.07054869 58.03140259 0.07559204 C69.86409563 0.08633152 81.69677052 0.10340941 93.52944946 0.12442017 C93.52944946 0.45442017 93.52944946 0.78442017 93.52944946 1.12442017 C61.18944946 1.12442017 28.84944946 1.12442017 -4.47055054 1.12442017 C-4.47055054 1.78442017 -4.47055054 2.44442017 -4.47055054 3.12442017 C-5.13055054 3.12442017 -5.79055054 3.12442017 -6.47055054 3.12442017 C-6.47055054 16.65442017 -6.47055054 30.18442017 -6.47055054 44.12442017 C-6.80055054 44.12442017 -7.13055054 44.12442017 -7.47055054 44.12442017 C-7.49519567 38.01887306 -7.51338424 31.91335466 -7.52548218 25.80776978 C-7.53052342 23.72898861 -7.53735628 21.650211 -7.54598999 19.57144165 C-7.55806476 16.59039431 -7.56378078 13.60939367 -7.56820679 10.62832642 C-7.57594872 9.22520958 -7.57594872 9.22520958 -7.58384705 7.79374695 C-7.58392258 6.93293015 -7.58399811 6.07211334 -7.58407593 5.18521118 C-7.58629654 4.42354141 -7.58851715 3.66187164 -7.59080505 2.87712097 C-7.29857852 -1.3820595 -3.38610135 0.00552303 0 0 Z " fill="#7B7B7B" transform="translate(105.47055053710938,27.875579833984375)"/>
<path d="M0 0 C12.21 0 24.42 0 37 0 C36.67 1.32 36.34 2.64 36 4 C24.12 4 12.24 4 0 4 C0 2.68 0 1.36 0 0 Z " fill="#505050" transform="translate(131,92)"/>
<path d="M0 0 C5.61 0 11.22 0 17 0 C17 0.66 17 1.32 17 2 C11.72 2 6.44 2 1 2 C1.185625 3.299375 1.37125 4.59875 1.5625 5.9375 C2.11884037 10.80547826 1.69149428 15.15954005 1 20 C6.28 20 11.56 20 17 20 C17 20.66 17 21.32 17 22 C11.72 22 6.44 22 1 22 C1 24.31 1 26.62 1 29 C0.67 29.66 0.34 30.32 0 31 C-2.97 31 -5.94 31 -9 31 C-9 30.34 -9 29.68 -9 29 C-9.66 28.67 -10.32 28.34 -11 28 C-7.7 28 -4.4 28 -1 28 C-1 26.02 -1 24.04 -1 22 C-1.66 22 -2.32 22 -3 22 C-3 21.34 -3 20.68 -3 20 C-2.34 20 -1.68 20 -1 20 C-1.01160156 18.72382812 -1.02320313 17.44765625 -1.03515625 16.1328125 C-1.04453417 14.46354313 -1.05363437 12.79427217 -1.0625 11.125 C-1.07087891 10.28324219 -1.07925781 9.44148438 -1.08789062 8.57421875 C-1.09111328 7.76855469 -1.09433594 6.96289062 -1.09765625 6.1328125 C-1.10289307 5.38918457 -1.10812988 4.64555664 -1.11352539 3.87939453 C-1 2 -1 2 0 0 Z " fill="#A6A6A6" transform="translate(156,57)"/>
<path d="M0 0 C1.32 0 2.64 0 4 0 C4 0.66 4 1.32 4 2 C3.34 2 2.68 2 2 2 C2 11.9 2 21.8 2 32 C-21.1 32 -44.2 32 -68 32 C-68 31.67 -68 31.34 -68 31 C-46.22 31 -24.44 31 -2 31 C-2 30.01 -2 29.02 -2 28 C-1.34 28 -0.68 28 0 28 C0 18.76 0 9.52 0 0 Z " fill="#121212" transform="translate(114,239)"/>
<path d="M0 0 C0.66 0 1.32 0 2 0 C2 18.15 2 36.3 2 55 C-3.61 55 -9.22 55 -15 55 C-14.67 54.34 -14.34 53.68 -14 53 C-9.38 53 -4.76 53 0 53 C0 35.51 0 18.02 0 0 Z " fill="#808080" transform="translate(204,24)"/>
<path d="M0 0 C2.31 0 4.62 0 7 0 C8.76462683 3.08809695 9 4.23312136 9 8 C13.29 8 17.58 8 22 8 C22 10.31 22 12.62 22 15 C21.34 15 20.68 15 20 15 C20 14.34 20 13.68 20 13 C18.50146484 12.92652344 18.50146484 12.92652344 16.97265625 12.8515625 C15.03712891 12.73941406 15.03712891 12.73941406 13.0625 12.625 C11.77472656 12.55539063 10.48695313 12.48578125 9.16015625 12.4140625 C7.59587891 12.20910156 7.59587891 12.20910156 6 12 C4.64560332 9.29120665 4.93498549 6.99066732 5 4 C3.35 4 1.7 4 0 4 C0 4.66 0 5.32 0 6 C-0.66 6 -1.32 6 -2 6 C-2 6.66 -2 7.32 -2 8 C-2.66 8 -3.32 8 -4 8 C-4 6.68 -4 5.36 -4 4 C-3.34 4 -2.68 4 -2 4 C-2 3.34 -2 2.68 -2 2 C-1.34 2 -0.68 2 0 2 C0 1.34 0 0.68 0 0 Z " fill="#3A3A3A" transform="translate(151,145)"/>
<path d="M0 0 C0.66 0 1.32 0 2 0 C2 13.53 2 27.06 2 41 C5.3 41 8.6 41 12 41 C12 31.76 12 22.52 12 13 C12.33 13 12.66 13 13 13 C13 22.9 13 32.8 13 43 C8.71 43 4.42 43 0 43 C0 28.81 0 14.62 0 0 Z " fill="#C8C8C8" transform="translate(99,31)"/>
<path d="M0 0 C1.32 0 2.64 0 4 0 C4 0.66 4 1.32 4 2 C5.32 2 6.64 2 8 2 C8 2.66 8 3.32 8 4 C8.66 4 9.32 4 10 4 C10 6.97 10 9.94 10 13 C12.97 13 15.94 13 19 13 C19 13.66 19 14.32 19 15 C17.02 15 15.04 15 13 15 C13 15.66 13 16.32 13 17 C10.03 17 7.06 17 4 17 C4 17.66 4 18.32 4 19 C3.34 19 2.68 19 2 19 C2 17.68 2 16.36 2 15 C2.66 15 3.32 15 4 15 C4 11.37 4 7.74 4 4 C2.68 4 1.36 4 0 4 C0 2.68 0 1.36 0 0 Z " fill="#D1D1D1" transform="translate(134,156)"/>
<path d="M0 0 C0.66 0 1.32 0 2 0 C2 4.29 2 8.58 2 13 C5.63 13 9.26 13 13 13 C13 14.98 13 16.96 13 19 C9.37 19 5.74 19 2 19 C1.67 17.02 1.34 15.04 1 13 C-4.28 13 -9.56 13 -15 13 C-15 12.34 -15 11.68 -15 11 C-10.05 11 -5.1 11 0 11 C0 7.37 0 3.74 0 0 Z " fill="#808080" transform="translate(142,66)"/>
<path d="M0 0 C1.32 0 2.64 0 4 0 C4 1.32 4 2.64 4 4 C3.34 4 2.68 4 2 4 C2 4.99 2 5.98 2 7 C1.34 7 0.68 7 0 7 C0 7.66 0 8.32 0 9 C-0.66 9 -1.32 9 -2 9 C-2 9.66 -2 10.32 -2 11 C-7.28 11 -12.56 11 -18 11 C-18 9.68 -18 8.36 -18 7 C-15.03 7 -12.06 7 -9 7 C-9 6.34 -9 5.68 -9 5 C-6.02588876 3.76078698 -3.14737182 2.69941596 0 2 C0 1.34 0 0.68 0 0 Z " fill="#727272" transform="translate(171,186)"/>
<path d="M0 0 C11.55 0 23.1 0 35 0 C35 8.58 35 17.16 35 26 C34.34 26 33.68 26 33 26 C33 18.08 33 10.16 33 2 C22.11 2 11.22 2 0 2 C0 1.34 0 0.68 0 0 Z " fill="#A2A2A2" transform="translate(219,241)"/>
<path d="M0 0 C2.64 0 5.28 0 8 0 C8.33 1.98 8.66 3.96 9 6 C8.34 6 7.68 6 7 6 C6.67 6.99 6.34 7.98 6 9 C2.37 9 -1.26 9 -5 9 C-6 4 -6 4 -5 2 C-3.35 2 -1.7 2 0 2 C0 1.34 0 0.68 0 0 Z " fill="#626262" transform="translate(149,160)"/>
<path d="M0 0 C1.32 0 2.64 0 4 0 C4 0.66 4 1.32 4 2 C3.01 2.495 3.01 2.495 2 3 C4.475 3.495 4.475 3.495 7 4 C7 4.66 7 5.32 7 6 C7.66 6 8.32 6 9 6 C9 6.99 9 7.98 9 9 C9.66 9 10.32 9 11 9 C11 10.32 11 11.64 11 13 C13.97 13 16.94 13 20 13 C20 13.66 20 14.32 20 15 C16.37 15 12.74 15 9 15 C8.34 12.36 7.68 9.72 7 7 C4.69 7 2.38 7 0 7 C0 7.66 0 8.32 0 9 C-0.66 9 -1.32 9 -2 9 C-2 9.66 -2 10.32 -2 11 C-2.66 11 -3.32 11 -4 11 C-4 10.01 -4 9.02 -4 8 C-4.66 7.67 -5.32 7.34 -6 7 C-6 7.66 -6 8.32 -6 9 C-8.31 9 -10.62 9 -13 9 C-10.23776722 6.23776722 -7.79293383 6.42143709 -4 6 C-4 5.34 -4 4.68 -4 4 C-2.68 4 -1.36 4 0 4 C0 2.68 0 1.36 0 0 Z " fill="#8E8E8E" transform="translate(151,138)"/>
<path d="M0 0 C0.99 0.33 1.98 0.66 3 1 C2.34 1 1.68 1 1 1 C1 12.55 1 24.1 1 36 C0.01 36 -0.98 36 -2 36 C-2.04944066 31.35524041 -2.08573863 26.71063404 -2.10986328 22.06567383 C-2.11992041 20.48556856 -2.13356785 18.9054819 -2.15087891 17.32543945 C-2.17514022 15.0541525 -2.18648582 12.78311164 -2.1953125 10.51171875 C-2.20563507 9.80536789 -2.21595764 9.09901703 -2.22659302 8.3712616 C-2.22743775 4.67802208 -2.10720523 3.16080784 0 0 Z " fill="#DBDBDB" transform="translate(41,236)"/>
<path d="M0 0 C0.66 0 1.32 0 2 0 C2 2.97 2 5.94 2 9 C4.31 9 6.62 9 9 9 C9 11.31 9 13.62 9 16 C8.01 16 7.02 16 6 16 C6 16.66 6 17.32 6 18 C5.34 18 4.68 18 4 18 C4 17.01 4 16.02 4 15 C4.66 15 5.32 15 6 15 C6 13.68 6 12.36 6 11 C4.68 11 3.36 11 2 11 C2 11.66 2 12.32 2 13 C-2.13678968 15.02570752 -5.1323532 15.11860283 -9.6875 14.6875 C-10.82574219 14.58824219 -11.96398437 14.48898438 -13.13671875 14.38671875 C-16 14 -16 14 -18 13 C-18 11.68 -18 10.36 -18 9 C-17.34 9 -16.68 9 -16 9 C-16 9.66 -16 10.32 -16 11 C-15.34 11 -14.68 11 -14 11 C-14 11.66 -14 12.32 -14 13 C-11.03 13 -8.06 13 -5 13 C-5 12.34 -5 11.68 -5 11 C-4.34 11 -3.68 11 -3 11 C-3 10.34 -3 9.68 -3 9 C-2.01 9 -1.02 9 0 9 C0 6.03 0 3.06 0 0 Z " fill="#B6B6B6" transform="translate(169,175)"/>
<path d="M0 0 C5.94 0 11.88 0 18 0 C18 0.66 18 1.32 18 2 C13.05 2 8.1 2 3 2 C3 9.26 3 16.52 3 24 C2.01 24 1.02 24 0 24 C0 16.08 0 8.16 0 0 Z " fill="#C2C2C2" transform="translate(186,79)"/>
<path d="M0 0 C0.66 0 1.32 0 2 0 C2 1.32 2 2.64 2 4 C4.31 4 6.62 4 9 4 C7.68 4.33 6.36 4.66 5 5 C5 6.32 5 7.64 5 9 C4.34 9 3.68 9 3 9 C3.5259375 9.7734375 3.5259375 9.7734375 4.0625 10.5625 C6.15548081 16.00425011 3.43642431 22.54158761 2 28 C1.34 28 0.68 28 0 28 C0 25.36 0 22.72 0 20 C0.66 20 1.32 20 2 20 C2 17.03 2 14.06 2 11 C0.68 11 -0.64 11 -2 11 C-2 8.03 -2 5.06 -2 2 C-1.34 2 -0.68 2 0 2 C0 1.34 0 0.68 0 0 Z " fill="#6A6A6A" transform="translate(129,151)"/>
<path d="M0 0 C1.98 0 3.96 0 6 0 C6 3.63 6 7.26 6 11 C5.34 11 4.68 11 4 11 C4 13.31 4 15.62 4 18 C4.66 18.33 5.32 18.66 6 19 C3.69 19 1.38 19 -1 19 C-1.25158831 13.46505718 -1.25158831 13.46505718 0.03125 11.09375 C1.22344611 8.51706808 1.03434789 7.03356564 0.625 4.25 C0.51414063 3.45078125 0.40328125 2.6515625 0.2890625 1.828125 C0.19367188 1.22484375 0.09828125 0.6215625 0 0 Z " fill="#414141" transform="translate(132,160)"/>
<path d="M0 0 C0.66 0 1.32 0 2 0 C2 17.49 2 34.98 2 53 C6.95 53 11.9 53 17 53 C17 53.66 17 54.32 17 55 C11.39 55 5.78 55 0 55 C0 36.85 0 18.7 0 0 Z " fill="#626262" transform="translate(94,24)"/>
<path d="M0 0 C0.99 0 1.98 0 3 0 C3 4 3 4 2.02416992 5.74536133 C-1.24040846 7.7688408 -4.6798592 7.24866003 -8.38671875 7.07421875 C-9.20372757 7.04777786 -10.02073639 7.02133698 -10.86250305 6.99409485 C-13.47157907 6.90633415 -16.07926267 6.79718662 -18.6875 6.6875 C-20.45633034 6.62424082 -22.22521109 6.56237477 -23.99414062 6.50195312 C-28.33017754 6.35079406 -32.66508727 6.18045018 -37 6 C-37 5.34 -37 4.68 -37 4 C-25.12 4 -13.24 4 -1 4 C-0.67 2.68 -0.34 1.36 0 0 Z " fill="#BDBDBD" transform="translate(168,92)"/>
<path d="M0 0 C0.33 0 0.66 0 1 0 C1 1.98 1 3.96 1 6 C1.66 6 2.32 6 3 6 C3 6.66 3 7.32 3 8 C3.66 8 4.32 8 5 8 C5 6.02 5 4.04 5 2 C7.31 2 9.62 2 12 2 C12 3.65 12 5.3 12 7 C13.32 7.66 14.64 8.32 16 9 C13.40483479 10.29758261 11.45816973 10.13269102 8.5625 10.125 C7.59441406 10.12757812 6.62632812 10.13015625 5.62890625 10.1328125 C3 10 3 10 0 9 C0 6.03 0 3.06 0 0 Z " fill="#3C3C3C" transform="translate(157,68)"/>
<path d="M0 0 C0.66 0 1.32 0 2 0 C2 0.66 2 1.32 2 2 C35.66 2.495 35.66 2.495 70 3 C70 3.33 70 3.66 70 4 C46.9 4 23.8 4 0 4 C0 2.68 0 1.36 0 0 Z " fill="#111111" transform="translate(184,267)"/>
<path d="M0 0 C0 0.66 0 1.32 0 2 C-5.64399358 4.44064587 -10.97751478 4.19289099 -17 4 C-17 4.66 -17 5.32 -17 6 C-18.65 6 -20.3 6 -22 6 C-21.67 4.35 -21.34 2.7 -21 1 C-13.98194143 -0.10087193 -7.09434233 -0.09733092 0 0 Z " fill="#242424" transform="translate(144,143)"/>
<path d="M0 0 C0.66 0 1.32 0 2 0 C2 0.66 2 1.32 2 2 C2.66 2 3.32 2 4 2 C4 2.66 4 3.32 4 4 C-18.44 4 -40.88 4 -64 4 C-64 3.67 -64 3.34 -64 3 C-43.21 2.67 -22.42 2.34 -1 2 C-0.67 1.34 -0.34 0.68 0 0 Z " fill="#313131" transform="translate(112,103)"/>
<path d="M0 0 C4.95 0 9.9 0 15 0 C15 2.64 15 5.28 15 8 C14.34 8 13.68 8 13 8 C13 6.68 13 5.36 13 4 C9.37 4 5.74 4 2 4 C2 5.32 2 6.64 2 8 C1.34 8 0.68 8 0 8 C0 5.36 0 2.72 0 0 Z " fill="#2F2F2F" transform="translate(127,66)"/>
<path d="M0 0 C0.99 0 1.98 0 3 0 C3 0.66 3 1.32 3 2 C3.99 2.33 4.98 2.66 6 3 C5.67 3.33 5.34 3.66 5 4 C4.76636119 5.84891946 4.58696365 7.70488031 4.4375 9.5625 C4.35371094 10.57441406 4.26992187 11.58632812 4.18359375 12.62890625 C4.12300781 13.41136719 4.06242188 14.19382813 4 15 C3.34 15 2.68 15 2 15 C2 14.34 2 13.68 2 13 C1.34 13 0.68 13 0 13 C0 11.68 0 10.36 0 9 C-0.66 9 -1.32 9 -2 9 C-2 6.69 -2 4.38 -2 2 C-1.34 2 -0.68 2 0 2 C0 1.34 0 0.68 0 0 Z " fill="#585858" transform="translate(162,162)"/>
<path d="M0 0 C0.33 0 0.66 0 1 0 C1 19.47 1 38.94 1 59 C1.66 59 2.32 59 3 59 C3 59.99 3 60.98 3 62 C2.01 62 1.02 62 0 62 C0 41.54 0 21.08 0 0 Z " fill="#CACACA" transform="translate(181,48)"/>
<path d="M0 0 C0.33 0 0.66 0 1 0 C1 20.13 1 40.26 1 61 C-0.485 61.495 -0.485 61.495 -2 62 C-2 61.01 -2 60.02 -2 59 C-1.34 59 -0.68 59 0 59 C0 39.53 0 20.06 0 0 Z " fill="#D7D7D7" transform="translate(118,48)"/>
<path d="M0 0 C1.32 0 2.64 0 4 0 C4 9.24 4 18.48 4 28 C3.34 28 2.68 28 2 28 C2 20.08 2 12.16 2 4 C1.34 4 0.68 4 0 4 C0 2.68 0 1.36 0 0 Z " fill="#313131" transform="translate(182,239)"/>
<path d="M0 0 C0 1.98 0 3.96 0 6 C-2.31 6 -4.62 6 -7 6 C-7 5.34 -7 4.68 -7 4 C-8.98 4 -10.96 4 -13 4 C-13 4.66 -13 5.32 -13 6 C-13.66 6 -14.32 6 -15 6 C-15 5.01 -15 4.02 -15 3 C-9.63999211 0.74315457 -5.8022175 -0.36263859 0 0 Z " fill="#636363" transform="translate(162,132)"/>
<path d="M0 0 C1.32 0 2.64 0 4 0 C4 9.24 4 18.48 4 28 C3.34 28 2.68 28 2 28 C2 19.42 2 10.84 2 2 C1.34 2 0.68 2 0 2 C0 1.34 0 0.68 0 0 Z " fill="#696969" transform="translate(77,147)"/>
<path d="M0 0 C4.95 0 9.9 0 15 0 C15 1.32 15 2.64 15 4 C10.05 4 5.1 4 0 4 C0 2.68 0 1.36 0 0 Z " fill="#4A4A4A" transform="translate(127,59)"/>
<path d="M0 0 C0.66 0 1.32 0 2 0 C2 9.24 2 18.48 2 28 C1.34 28 0.68 28 0 28 C0 20.08 0 12.16 0 4 C-0.66 4 -1.32 4 -2 4 C-2 3.34 -2 2.68 -2 2 C-1.34 2 -0.68 2 0 2 C0 1.34 0 0.68 0 0 Z " fill="#313131" transform="translate(184,44)"/>
<path d="M0 0 C1.32 0 2.64 0 4 0 C4 1.32 4 2.64 4 4 C3.34 4 2.68 4 2 4 C2 4.99 2 5.98 2 7 C1.34 7 0.68 7 0 7 C0 7.66 0 8.32 0 9 C-2.31 9 -4.62 9 -7 9 C-7 8.34 -7 7.68 -7 7 C-6.34 7 -5.68 7 -5 7 C-4.67 5.68 -4.34 4.36 -4 3 C-2.68 2.67 -1.36 2.34 0 2 C0 1.34 0 0.68 0 0 Z " fill="#565656" transform="translate(171,186)"/>
<path d="M0 0 C0.66 0 1.32 0 2 0 C2 2.31 2 4.62 2 7 C0.68 7 -0.64 7 -2 7 C-2 7.66 -2 8.32 -2 9 C-3.98 9 -5.96 9 -8 9 C-7.67 7.68 -7.34 6.36 -7 5 C-6.34 5 -5.68 5 -5 5 C-5 4.34 -5 3.68 -5 3 C-8.3 3 -11.6 3 -15 3 C-15 2.67 -15 2.34 -15 2 C-13.20841511 1.97303635 -11.41671527 1.95362083 -9.625 1.9375 C-8.62726563 1.92589844 -7.62953125 1.91429687 -6.6015625 1.90234375 C-4 2 -4 2 -2 3 C-2 3.66 -2 4.32 -2 5 C-1.34 5 -0.68 5 0 5 C0 3.35 0 1.7 0 0 Z " fill="#5F5F5F" transform="translate(173,155)"/>
<path d="M0 0 C2.31 0 4.62 0 7 0 C7 0.66 7 1.32 7 2 C11.455 2.99 11.455 2.99 16 4 C16 4.66 16 5.32 16 6 C10.36718401 6.2396943 5.45461169 5.38529821 0 4 C0 5.65 0 7.3 0 9 C-0.33 9 -0.66 9 -1 9 C-1.125 2.25 -1.125 2.25 0 0 Z " fill="#2C2C2C" transform="translate(131,151)"/>
<path d="M0 0 C2.64 0 5.28 0 8 0 C8 1.32 8 2.64 8 4 C7.34 4 6.68 4 6 4 C6 4.66 6 5.32 6 6 C0.25 6.125 0.25 6.125 -2 5 C-2 4.01 -2 3.02 -2 2 C-1.34 2 -0.68 2 0 2 C0 1.34 0 0.68 0 0 Z " fill="#111111" transform="translate(147,162)"/>
<path d="M0 0 C12.54 0 25.08 0 38 0 C38 0.99 38 1.98 38 3 C37.01 3 36.02 3 35 3 C35 2.34 35 1.68 35 1 C24.11 1 13.22 1 2 1 C2 1.66 2 2.32 2 3 C1.34 3 0.68 3 0 3 C0 2.01 0 1.02 0 0 Z " fill="#E0E0E0" transform="translate(131,89)"/>
<path d="M0 0 C0.66 0 1.32 0 2 0 C2 0.66 2 1.32 2 2 C2.66 2 3.32 2 4 2 C4 2.66 4 3.32 4 4 C6.97 4 9.94 4 13 4 C13 3.34 13 2.68 13 2 C13.66 2 14.32 2 15 2 C15 1.34 15 0.68 15 0 C15.99 0 16.98 0 18 0 C17.625 2.4375 17.625 2.4375 17 5 C14.08681871 6.45659065 11.72311884 5.88883937 8.5 5.625 C7.3346875 5.53476563 6.169375 5.44453125 4.96875 5.3515625 C2 5 2 5 0 4 C0 2.68 0 1.36 0 0 Z " fill="#CBCBCB" transform="translate(151,184)"/>
<path d="M0 0 C4.95 0 9.9 0 15 0 C15 0.99 15 1.98 15 3 C12.87506859 3.02693575 10.75004088 3.04636628 8.625 3.0625 C7.44164062 3.07410156 6.25828125 3.08570312 5.0390625 3.09765625 C2 3 2 3 0 2 C0 1.34 0 0.68 0 0 Z " fill="#7F7F7F" transform="translate(186,72)"/>
<path d="M0 0 C1.32 0.33 2.64 0.66 4 1 C4 1.99 4 2.98 4 4 C4.99 4 5.98 4 7 4 C7 4.66 7 5.32 7 6 C8.98 6 10.96 6 13 6 C13 6.66 13 7.32 13 8 C10.03 8 7.06 8 4 8 C4 7.34 4 6.68 4 6 C3.34 6 2.68 6 2 6 C2 5.34 2 4.68 2 4 C1.34 4 0.68 4 0 4 C0 2.68 0 1.36 0 0 Z " fill="#393939" transform="translate(149,178)"/>
<path d="M0 0 C0 0.99 0 1.98 0 3 C0.165 3.825 0.33 4.65 0.5 5.5 C1.19141507 10.33990547 1.07815512 15.11964664 1 20 C0.34 20 -0.32 20 -1 20 C-0.67 17.69 -0.34 15.38 0 13 C-0.66 13 -1.32 13 -2 13 C-2.05391993 11.20866022 -2.09275571 9.41686101 -2.125 7.625 C-2.14820313 6.62726563 -2.17140625 5.62953125 -2.1953125 4.6015625 C-2 2 -2 2 0 0 Z M-4 13 C-3.34 13 -2.68 13 -2 13 C-2.33 14.65 -2.66 16.3 -3 18 C-3.33 18 -3.66 18 -4 18 C-4 16.35 -4 14.7 -4 13 Z " fill="#808080" transform="translate(168,164)"/>
<path d="M0 0 C0.99 0.33 1.98 0.66 3 1 C2.67 2.65 2.34 4.3 2 6 C-0.97 6 -3.94 6 -7 6 C-7 4.68 -7 3.36 -7 2 C-4.69 2 -2.38 2 0 2 C0 1.34 0 0.68 0 0 Z " fill="#E0E0E0" transform="translate(145,145)"/>
<path d="M0 0 C4.95 0 9.9 0 15 0 C15 0.66 15 1.32 15 2 C12.39080172 3.30459914 10.41057385 3.1326594 7.5 3.125 C6.5203125 3.12757812 5.540625 3.13015625 4.53125 3.1328125 C2 3 2 3 0 2 C0 1.34 0 0.68 0 0 Z " fill="#3F3F3F" transform="translate(158,59)"/>
<path d="M0 0 C1.98 0 3.96 0 6 0 C6 1.32 6 2.64 6 4 C4.02 4 2.04 4 0 4 C0 4.66 0 5.32 0 6 C-0.66 6 -1.32 6 -2 6 C-2 6.66 -2 7.32 -2 8 C-2.66 8 -3.32 8 -4 8 C-4 6.68 -4 5.36 -4 4 C-3.34 4 -2.68 4 -2 4 C-2 3.34 -2 2.68 -2 2 C-1.34 2 -0.68 2 0 2 C0 1.34 0 0.68 0 0 Z " fill="#2C2C2C" transform="translate(151,145)"/>
<path d="M0 0 C3.3 0 6.6 0 10 0 C10 1.32 10 2.64 10 4 C6.7 4 3.4 4 0 4 C0 2.68 0 1.36 0 0 Z " fill="#3E3E3E" transform="translate(145,81)"/>
<path d="M0 0 C0.33 0 0.66 0 1 0 C1 1.98 1 3.96 1 6 C1.66 6 2.32 6 3 6 C3 6.66 3 7.32 3 8 C7.29 8 11.58 8 16 8 C14 10 14 10 11.50390625 10.23046875 C10.53324219 10.21628906 9.56257812 10.20210937 8.5625 10.1875 C7.11037109 10.17783203 7.11037109 10.17783203 5.62890625 10.16796875 C3 10 3 10 0 9 C0 6.03 0 3.06 0 0 Z " fill="#595959" transform="translate(157,68)"/>
<path d="M0 0 C0.33 0 0.66 0 1 0 C1 10.23 1 20.46 1 31 C0.01 31 -0.98 31 -2 31 C-2 30.01 -2 29.02 -2 28 C-1.34 28 -0.68 28 0 28 C0 18.76 0 9.52 0 0 Z " fill="#D7D7D7" transform="translate(118,243)"/>
<path d="M0 0 C0.66 0 1.32 0 2 0 C2 2.31 2 4.62 2 7 C-2.21878192 7.19622241 -5.17010894 6.80230168 -9 5 C-9 4.01 -9 3.02 -9 2 C-8.34 2 -7.68 2 -7 2 C-7 2.66 -7 3.32 -7 4 C-4.69 4 -2.38 4 0 4 C0 2.68 0 1.36 0 0 Z " fill="#CBCBCB" transform="translate(162,175)"/>
<path d="M0 0 C0.99 0 1.98 0 3 0 C2.35812082 5.13503344 1.31727753 9.9943454 0 15 C-0.66 15 -1.32 15 -2 15 C-2 12.36 -2 9.72 -2 7 C-1.34 7 -0.68 7 0 7 C0 4.69 0 2.38 0 0 Z " fill="#989898" transform="translate(131,164)"/>
<path d="M0 0 C2.97 0 5.94 0 9 0 C9 1.32 9 2.64 9 4 C6.03 4 3.06 4 0 4 C0 2.68 0 1.36 0 0 Z " fill="#464646" transform="translate(138,173)"/>
<path d="M0 0 C1.32 0 2.64 0 4 0 C4 0.66 4 1.32 4 2 C5.32 2 6.64 2 8 2 C8 2.66 8 3.32 8 4 C8.66 4 9.32 4 10 4 C10 4.66 10 5.32 10 6 C8.02 6 6.04 6 4 6 C4 5.34 4 4.68 4 4 C2.68 4 1.36 4 0 4 C0 2.68 0 1.36 0 0 Z " fill="#E4E4E4" transform="translate(134,156)"/>
<path d="M0 0 C3.63 0 7.26 0 11 0 C11 1.32 11 2.64 11 4 C8.69 4 6.38 4 4 4 C4 3.34 4 2.68 4 2 C2.68 2 1.36 2 0 2 C0 1.34 0 0.68 0 0 Z " fill="#B7B7B7" transform="translate(127,147)"/>
<path d="M0 0 C4.29 0.33 8.58 0.66 13 1 C13 1.66 13 2.32 13 3 C12.09507812 3.09087891 12.09507812 3.09087891 11.171875 3.18359375 C9.97304687 3.30927734 9.97304687 3.30927734 8.75 3.4375 C7.96109375 3.51871094 7.1721875 3.59992188 6.359375 3.68359375 C4.17635361 3.97634993 2.1226818 4.42064419 0 5 C0 3.35 0 1.7 0 0 Z " fill="#464646" transform="translate(186,74)"/>
<path d="M0 0 C4.95 0 9.9 0 15 0 C15 0.99 15 1.98 15 3 C10.05 3 5.1 3 0 3 C0 2.01 0 1.02 0 0 Z " fill="#7B7B7B" transform="translate(158,61)"/>
<path d="M0 0 C0.66 0 1.32 0 2 0 C2 1.98 2 3.96 2 6 C2.66 6 3.32 6 4 6 C4 7.98 4 9.96 4 12 C3.34 12 2.68 12 2 12 C2 11.34 2 10.68 2 10 C1.34 10 0.68 10 0 10 C0 6.7 0 3.4 0 0 Z " fill="#3C3C3C" transform="translate(162,165)"/>
<path d="M0 0 C0.66 0 1.32 0 2 0 C2 1.32 2 2.64 2 4 C4.97 4 7.94 4 11 4 C11 4.66 11 5.32 11 6 C7.37 6 3.74 6 0 6 C0 4.02 0 2.04 0 0 Z " fill="#BABABA" transform="translate(160,147)"/>
<path d="M0 0 C3.96 0 7.92 0 12 0 C11.67 0.99 11.34 1.98 11 3 C8.03 3 5.06 3 2 3 C2 2.34 2 1.68 2 1 C1.34 0.67 0.68 0.34 0 0 Z " fill="#B5B5B5" transform="translate(145,85)"/>
<path d="M0 0 C1.32 0 2.64 0 4 0 C4 0.66 4 1.32 4 2 C3.01 2.495 3.01 2.495 2 3 C3.65 3.33 5.3 3.66 7 4 C7 4.66 7 5.32 7 6 C4.03 6 1.06 6 -2 6 C-2 5.34 -2 4.68 -2 4 C-1.34 4 -0.68 4 0 4 C0 2.68 0 1.36 0 0 Z " fill="#B8B8B8" transform="translate(151,138)"/>
<path d="M0 0 C1.32 0 2.64 0 4 0 C4 2.31 4 4.62 4 7 C2.68 7 1.36 7 0 7 C0 4.69 0 2.38 0 0 Z " fill="#E5E5E5" transform="translate(151,151)"/>
<path d="M0 0 C2.62386487 3.06117568 3 3.73173127 3 8 C2.34 8 1.68 8 1 8 C0.67 9.32 0.34 10.64 0 12 C-1.31157516 9.37684968 -0.89649988 7.76966564 -0.5625 4.875 C-0.46066406 3.96492187 -0.35882813 3.05484375 -0.25390625 2.1171875 C-0.17011719 1.41851562 -0.08632812 0.71984375 0 0 Z " fill="#4F4F4F" transform="translate(157,145)"/>
<path d="M0 0 C0.99 0 1.98 0 3 0 C3 2.31 3 4.62 3 7 C2.01 7 1.02 7 0 7 C0 7.66 0 8.32 0 9 C-0.66 9 -1.32 9 -2 9 C-2 8.01 -2 7.02 -2 6 C-1.34 6 -0.68 6 0 6 C0 4.02 0 2.04 0 0 Z " fill="#D5D5D5" transform="translate(175,184)"/>
<path d="M0 0 C1.98 0 3.96 0 6 0 C6 1.98 6 3.96 6 6 C5.34 6 4.68 6 4 6 C4 5.34 4 4.68 4 4 C2.68 4 1.36 4 0 4 C0 2.68 0 1.36 0 0 Z " fill="#A3A3A3" transform="translate(138,162)"/>
<path d="M0 0 C0 1.98 0 3.96 0 6 C-0.66 6 -1.32 6 -2 6 C-2 4.68 -2 3.36 -2 2 C-4.97 2 -7.94 2 -11 2 C-6.78370866 -0.10814567 -4.60209225 -0.17700355 0 0 Z " fill="#ACACAC" transform="translate(162,132)"/>
<path d="M0 0 C1.32 0 2.64 0 4 0 C4 1.98 4 3.96 4 6 C2.35 6 0.7 6 -1 6 C-0.67 4.02 -0.34 2.04 0 0 Z " fill="#2F2F2F" transform="translate(169,70)"/>
<path d="M0 0 C-3.85905949 1.92952974 -6.26132535 3.12483821 -10.625 3.0625 C-11.85089844 3.04896484 -11.85089844 3.04896484 -13.1015625 3.03515625 C-14.04128906 3.01775391 -14.04128906 3.01775391 -15 3 C-15 2.67 -15 2.34 -15 2 C-9.87080814 -0.10428384 -5.4389165 -0.21755666 0 0 Z " fill="#494949" transform="translate(144,144)"/>
<path d="M0 0 C0.66 0 1.32 0 2 0 C2 0.66 2 1.32 2 2 C2.66 2 3.32 2 4 2 C4 3.98 4 5.96 4 8 C3.34 8 2.68 8 2 8 C2 7.34 2 6.68 2 6 C1.34 6 0.68 6 0 6 C0 4.02 0 2.04 0 0 Z " fill="#2A2A2A" transform="translate(158,68)"/>
<path d="M0 0 C0.99 0 1.98 0 3 0 C2.67 5.61 2.34 11.22 2 17 C1.67 17 1.34 17 1 17 C0.67 11.39 0.34 5.78 0 0 Z " fill="#161616" transform="translate(76,171)"/>
<path d="M0 0 C1.65 0 3.3 0 5 0 C5 0.66 5 1.32 5 2 C4.34 2 3.68 2 3 2 C3 2.66 3 3.32 3 4 C2.01 4 1.02 4 0 4 C0 5.65 0 7.3 0 9 C-0.33 9 -0.66 9 -1 9 C-1.125 2.25 -1.125 2.25 0 0 Z " fill="#252525" transform="translate(131,151)"/>
<path d="M0 0 C0.33 0 0.66 0 1 0 C1 2.31 1 4.62 1 7 C1.66 7.33 2.32 7.66 3 8 C0.69 8 -1.62 8 -4 8 C-4 7.34 -4 6.68 -4 6 C-3.01 6 -2.02 6 -1 6 C-0.67 4.02 -0.34 2.04 0 0 Z " fill="#4D4D4D" transform="translate(135,171)"/>
<path d="M0 0 C1.65 0 3.3 0 5 0 C4.34 1.32 3.68 2.64 3 4 C1.02 4 -0.96 4 -3 4 C-2.67 3.34 -2.34 2.68 -2 2 C-1.34 2 -0.68 2 0 2 C0 1.34 0 0.68 0 0 Z " fill="#E4E4E4" transform="translate(155,138)"/>
<path d="M0 0 C0.99 0 1.98 0 3 0 C3 0.66 3 1.32 3 2 C4.65 2 6.3 2 8 2 C7.67 2.66 7.34 3.32 7 4 C4.69 4 2.38 4 0 4 C0 2.68 0 1.36 0 0 Z " fill="#717171" transform="translate(131,92)"/>
<path d="M0 0 C4.455 0.99 4.455 0.99 9 2 C9 2.66 9 3.32 9 4 C7.02 4 5.04 4 3 4 C3 3.34 3 2.68 3 2 C2.01 2 1.02 2 0 2 C0 1.34 0 0.68 0 0 Z " fill="#828282" transform="translate(153,180)"/>
<path d="M0 0 C1.65 0 3.3 0 5 0 C5 0.66 5 1.32 5 2 C5.66 2 6.32 2 7 2 C7 2.66 7 3.32 7 4 C5.35 4 3.7 4 2 4 C2 3.34 2 2.68 2 2 C1.34 2 0.68 2 0 2 C0 1.34 0 0.68 0 0 Z " fill="#A7A7A7" transform="translate(142,158)"/>
<path d="M0 0 C1.98 0.495 1.98 0.495 4 1 C3.34 1 2.68 1 2 1 C2 1.66 2 2.32 2 3 C2.66 3 3.32 3 4 3 C4 3.66 4 4.32 4 5 C2.35 5 0.7 5 -1 5 C-0.67 3.35 -0.34 1.7 0 0 Z " fill="#5E5E5E" transform="translate(123,144)"/>
<path d="M0 0 C1.98 0 3.96 0 6 0 C6 0.66 6 1.32 6 2 C4.68 2 3.36 2 2 2 C2 2.66 2 3.32 2 4 C0.68 4 -0.64 4 -2 4 C-2 3.34 -2 2.68 -2 2 C-1.34 2 -0.68 2 0 2 C0 1.34 0 0.68 0 0 Z " fill="#202020" transform="translate(149,136)"/>
<path d="M0 0 C2.64 0 5.28 0 8 0 C6.68 0.33 5.36 0.66 4 1 C4 1.66 4 2.32 4 3 C1.69 3 -0.62 3 -3 3 C-2.01 2.67 -1.02 2.34 0 2 C0 1.34 0 0.68 0 0 Z " fill="#C8C8C8" transform="translate(158,190)"/>
<path d="M0 0 C1.98 0 3.96 0 6 0 C6 0.99 6 1.98 6 3 C4.02 3 2.04 3 0 3 C0 2.01 0 1.02 0 0 Z " fill="#D8D8D8" transform="translate(75,144)"/>
<path d="M0 0 C0.66 0 1.32 0 2 0 C2.33 1.98 2.66 3.96 3 6 C1.35 6 -0.3 6 -2 6 C-2 5.34 -2 4.68 -2 4 C-1.34 4 -0.68 4 0 4 C0 2.68 0 1.36 0 0 Z " fill="#2C2C2C" transform="translate(129,70)"/>
</svg>
