<?xml version="1.0" encoding="UTF-8"?>
<svg version="1.1" xmlns="http://www.w3.org/2000/svg" width="300" height="300">
<path d="M0 0 C99 0 198 0 300 0 C300 99 300 198 300 300 C201 300 102 300 0 300 C0 201 0 102 0 0 Z " fill="#FDFDFD" transform="translate(0,0)"/>
<path d="M0 0 C36.3 0 72.6 0 110 0 C110 0.66 110 1.32 110 2 C110.66 2 111.32 2 112 2 C112 18.83 112 35.66 112 53 C111.34 53 110.68 53 110 53 C110 53.66 110 54.32 110 55 C105.05 55 100.1 55 95 55 C95 62.92 95 70.84 95 79 C117.77 79 140.54 79 164 79 C164 102.1 164 125.2 164 149 C163.34 149 162.68 149 162 149 C162 149.66 162 150.32 162 151 C151.44 151 140.88 151 130 151 C130 171.13 130 191.26 130 212 C141.55 212 153.1 212 165 212 C165.0309375 220.5696875 165.0309375 220.5696875 165.0625 229.3125 C165.071604 231.11243408 165.08070801 232.91236816 165.09008789 234.7668457 C165.09300874 236.19482346 165.0955569 237.62280205 165.09765625 239.05078125 C165.10277222 239.79114624 165.10788818 240.53151123 165.11315918 241.29431152 C165.11369951 244.46984417 165.01203336 246.96389992 164 250 C139.58 250 115.16 250 90 250 C90 239.11 90 228.22 90 217 C67.56 217 45.12 217 22 217 C22 227.89 22 238.78 22 250 C-1.76 250 -25.52 250 -50 250 C-50 237.46 -50 224.92 -50 212 C-39.44 212 -28.88 212 -18 212 C-18 191.87 -18 171.74 -18 151 C-29.22 151 -40.44 151 -52 151 C-52 127.9 -52 104.8 -52 81 C-28.9 81 -5.8 81 18 81 C18 72.42 18 63.84 18 55 C12.72 55 7.44 55 2 55 C2 54.34 2 53.68 2 53 C1.34 53 0.68 53 0 53 C0 35.51 0 18.02 0 0 Z " fill="#FCFCFC" transform="translate(94,24)"/>
<path d="M0 0 C36.3 0 72.6 0 110 0 C110 0.66 110 1.32 110 2 C110.66 2 111.32 2 112 2 C112 18.83 112 35.66 112 53 C111.34 53 110.68 53 110 53 C110 53.66 110 54.32 110 55 C105.05 55 100.1 55 95 55 C95 62.92 95 70.84 95 79 C117.77 79 140.54 79 164 79 C164 102.1 164 125.2 164 149 C163.34 149 162.68 149 162 149 C162 149.66 162 150.32 162 151 C151.44 151 140.88 151 130 151 C130 171.13 130 191.26 130 212 C141.55 212 153.1 212 165 212 C165.0309375 220.5696875 165.0309375 220.5696875 165.0625 229.3125 C165.071604 231.11243408 165.08070801 232.91236816 165.09008789 234.7668457 C165.09300874 236.19482346 165.0955569 237.62280205 165.09765625 239.05078125 C165.10277222 239.79114624 165.10788818 240.53151123 165.11315918 241.29431152 C165.11369951 244.46984417 165.01203336 246.96389992 164 250 C139.58 250 115.16 250 90 250 C90 239.11 90 228.22 90 217 C67.56 217 45.12 217 22 217 C22 227.89 22 238.78 22 250 C-1.76 250 -25.52 250 -50 250 C-50 237.46 -50 224.92 -50 212 C-39.44 212 -28.88 212 -18 212 C-18 191.87 -18 171.74 -18 151 C-29.22 151 -40.44 151 -52 151 C-52 127.9 -52 104.8 -52 81 C-28.9 81 -5.8 81 18 81 C18 72.42 18 63.84 18 55 C12.72 55 7.44 55 2 55 C2 54.34 2 53.68 2 53 C1.34 53 0.68 53 0 53 C0 35.51 0 18.02 0 0 Z M24 22 C24 22.66 24 23.32 24 24 C23.34 24 22.68 24 22 24 C22 44.13 22 64.26 22 85 C-0.44 85 -22.88 85 -46 85 C-46 105.46 -46 125.92 -46 147 C-36.43 147 -26.86 147 -17 147 C-17 139.74 -17 132.48 -17 125 C-15.68 125 -14.36 125 -13 125 C-13 155.36 -13 185.72 -13 217 C-23.89 217 -34.78 217 -46 217 C-46 226.24 -46 235.48 -46 245 C-24.88 245 -3.76 245 18 245 C18 234.44 18 223.88 18 213 C43.08 213 68.16 213 94 213 C94.33 222.9 94.66 232.8 95 243 C116.45 243 137.9 243 160 243 C160 234.42 160 225.84 160 217 C148.45 217 136.9 217 125 217 C125 185.98 125 154.96 125 123 C126.32 123 127.64 123 129 123 C129 130.92 129 138.84 129 147 C139.23 147 149.46 147 160 147 C160 126.54 160 106.08 160 85 C136.9 85 113.8 85 90 85 C90 64.87 90 44.74 90 24 C89.34 24 88.68 24 88 24 C88 23.34 88 22.68 88 22 C66.88 22 45.76 22 24 22 Z " fill="#3E3E3E" transform="translate(94,24)"/>
<path d="M0 0 C36.3 0 72.6 0 110 0 C110 17.16 110 34.32 110 52 C109.34 52 108.68 52 108 52 C107.67 36.49 107.34 20.98 107 5 C73.34 5 39.68 5 5 5 C5 19.85 5 34.7 5 50 C9.29 50 13.58 50 18 50 C18 40.1 18 30.2 18 20 C42.42 20 66.84 20 92 20 C92 20.66 92 21.32 92 22 C69.56 22 47.12 22 24 22 C24 22.66 24 23.32 24 24 C23.34 24 22.68 24 22 24 C22 44.13 22 64.26 22 85 C-0.44 85 -22.88 85 -46 85 C-46 105.46 -46 125.92 -46 147 C-36.43 147 -26.86 147 -17 147 C-17 139.74 -17 132.48 -17 125 C-15.68 125 -14.36 125 -13 125 C-13 155.36 -13 185.72 -13 217 C-23.23 217 -33.46 217 -44 217 C-44 216.67 -44 216.34 -44 216 C-34.43 216 -24.86 216 -15 216 C-15 214.68 -15 213.36 -15 212 C-15.66 212 -16.32 212 -17 212 C-17 191.21 -17 170.42 -17 149 C-27.89 149 -38.78 149 -50 149 C-50 126.56 -50 104.12 -50 81 C-27.56 81 -5.12 81 18 81 C18 72.42 18 63.84 18 55 C12.72 55 7.44 55 2 55 C2 54.34 2 53.68 2 53 C1.34 53 0.68 53 0 53 C0 35.51 0 18.02 0 0 Z " fill="#4D4D4D" transform="translate(94,24)"/>
<path d="M0 0 C24.87637486 -0.04010881 24.87637486 -0.04010881 35.44921875 -0.04882812 C42.67432384 -0.05481474 49.8994163 -0.06191022 57.12451172 -0.07543945 C62.94702417 -0.08627454 68.76952308 -0.09227816 74.59204483 -0.09487724 C76.81768126 -0.09673037 79.04331691 -0.10034883 81.2689476 -0.10573006 C84.37706882 -0.1129487 87.48513352 -0.11399059 90.59326172 -0.11352539 C91.98508667 -0.1189183 91.98508667 -0.1189183 93.4050293 -0.12442017 C94.6712764 -0.12235817 94.6712764 -0.12235817 95.96310425 -0.12025452 C96.69869505 -0.12117631 97.43428585 -0.1220981 98.19216728 -0.12304783 C100 0 100 0 102 1 C102 15.52 102 30.04 102 45 C99.63386544 46.18306728 98.13219264 46.13354608 95.5 46.125 C94.7059375 46.12757812 93.911875 46.13015625 93.09375 46.1328125 C91 46 91 46 89 45 C89 34.44 89 23.88 89 13 C64.58 13 40.16 13 15 13 C15 13.66 15 14.32 15 15 C14.34 15 13.68 15 13 15 C13 24.9 13 34.8 13 45 C8.71 45 4.42 45 0 45 C0 30.15 0 15.3 0 0 Z " fill="#FBFBFB" transform="translate(99,29)"/>
<path d="M0 0 C36.3 0 72.6 0 110 0 C110 17.16 110 34.32 110 52 C109.34 52 108.68 52 108 52 C107.67 36.49 107.34 20.98 107 5 C73.34 5 39.68 5 5 5 C5 19.85 5 34.7 5 50 C9.29 50 13.58 50 18 50 C18 40.1 18 30.2 18 20 C18.66 20 19.32 20 20 20 C20 39.47 20 58.94 20 79 C19.34 79 18.68 79 18 79 C18 71.08 18 63.16 18 55 C12.72 55 7.44 55 2 55 C2 54.34 2 53.68 2 53 C1.34 53 0.68 53 0 53 C0 35.51 0 18.02 0 0 Z " fill="#5A5A5A" transform="translate(94,24)"/>
<path d="M0 0 C21.12 0 42.24 0 64 0 C64 0.66 64 1.32 64 2 C64.66 2 65.32 2 66 2 C66 22.13 66 42.26 66 63 C89.1 63 112.2 63 136 63 C136 83.46 136 103.92 136 125 C125.77 125 115.54 125 105 125 C105 117.08 105 109.16 105 101 C105.99 101 106.98 101 108 101 C108 107.93 108 114.86 108 122 C116.58 122 125.16 122 134 122 C134 102.86 134 83.72 134 64 C128.95847656 64.01160156 123.91695312 64.02320312 118.72265625 64.03515625 C115.5371081 64.04026313 112.35156496 64.04507691 109.16601562 64.04882812 C104.10488848 64.05481611 99.04377936 64.06191521 93.98266602 64.07543945 C89.90431457 64.08626991 85.82598243 64.09227717 81.74761772 64.09487724 C80.18822361 64.09673121 78.6288306 64.10035127 77.06944466 64.10573006 C74.89270838 64.11294262 72.71605286 64.11399085 70.53930664 64.11352539 C68.67732384 64.11685631 68.67732384 64.11685631 66.77772522 64.12025452 C64 64 64 64 63 63 C62.90618698 61.15881971 62.88256046 59.31402359 62.88647461 57.47045898 C62.88659546 56.27271851 62.88671631 55.07497803 62.88684082 53.84094238 C62.89195679 52.57214233 62.89707275 51.30334229 62.90234375 49.99609375 C62.90335083 48.83726685 62.90435791 47.67843994 62.90539551 46.48449707 C62.91064673 42.13548805 62.92460784 37.78649308 62.9375 33.4375 C62.958125 23.723125 62.97875 14.00875 63 4 C42.54 4 22.08 4 1 4 C1 23.47 1 42.94 1 63 C0.01 63 -0.98 63 -2 63 C-2 42.87 -2 22.74 -2 2 C-1.34 2 -0.68 2 0 2 C0 1.34 0 0.68 0 0 Z " fill="#AEAEAE" transform="translate(118,46)"/>
<path d="M0 0 C5.61 0 11.22 0 17 0 C17 2.64 17 5.28 17 8 C17.33 8.99 17.66 9.98 18 11 C18.06740865 12.56118428 18.08514456 14.1250252 18.0625 15.6875 C18.05347656 16.49574219 18.04445312 17.30398437 18.03515625 18.13671875 C18.02355469 18.75160156 18.01195312 19.36648437 18 20 C19.32 20 20.64 20 22 20 C22 20.66 22 21.32 22 22 C24.64 22 27.28 22 30 22 C29.98839844 21.22914062 29.97679687 20.45828125 29.96484375 19.6640625 C29.95582031 18.66117188 29.94679687 17.65828125 29.9375 16.625 C29.92589844 15.62726563 29.91429687 14.62953125 29.90234375 13.6015625 C30 11 30 11 31 9 C32.32 9 33.64 9 35 9 C35 10.98 35 12.96 35 15 C37.31 15 39.62 15 42 15 C42 12.36 42 9.72 42 7 C38.37 7 34.74 7 31 7 C31 4.69 31 2.38 31 0 C36.61 0 42.22 0 48 0 C48 7.26 48 14.52 48 22 C42.39 22 36.78 22 31 22 C31 23.98 31 25.96 31 28 C30.34 28 29.68 28 29 28 C29 28.99 29 29.98 29 31 C25.04 31 21.08 31 17 31 C17 28.03 17 25.06 17 22 C11.39 22 5.78 22 0 22 C0 21.34 0 20.68 0 20 C-0.66 20 -1.32 20 -2 20 C-2 14.06 -2 8.12 -2 2 C-1.34 2 -0.68 2 0 2 C0 1.34 0 0.68 0 0 Z " fill="#ABABAB" transform="translate(127,57)"/>
<path d="M0 0 C0.66 0 1.32 0 2 0 C2 16.83 2 33.66 2 51 C1.34 51 0.68 51 0 51 C0 51.66 0 52.32 0 53 C-4.95 53 -9.9 53 -15 53 C-15 60.92 -15 68.84 -15 77 C7.77 77 30.54 77 54 77 C54 77.66 54 78.32 54 79 C30.9 79 7.8 79 -16 79 C-16 78.34 -16 77.68 -16 77 C-17.32 77 -18.64 77 -20 77 C-20 58.85 -20 40.7 -20 22 C-20.66 22 -21.32 22 -22 22 C-22 21.34 -22 20.68 -22 20 C-20.68 20 -19.36 20 -18 20 C-18 19.34 -18 18.68 -18 18 C-41.76 18 -65.52 18 -90 18 C-90 17.34 -90 16.68 -90 16 C-65.58 16 -41.16 16 -16 16 C-16 26.56 -16 37.12 -16 48 C-11.71 48 -7.42 48 -3 48 C-3 33.48 -3 18.96 -3 4 C-36 3.67 -69 3.34 -103 3 C-103 2.67 -103 2.34 -103 2 C-89.9788936 1.976879 -76.95779205 1.95908616 -63.93666935 1.94818783 C-57.89112183 1.94295847 -51.8455883 1.93585986 -45.80004883 1.92456055 C-39.97105712 1.91373355 -34.14207891 1.90772357 -28.31307793 1.90512276 C-26.0838239 1.90326817 -23.85457065 1.89964692 -21.62532234 1.89426994 C-18.51460266 1.88706201 -15.40393951 1.88600895 -12.29321289 1.88647461 C-11.36173431 1.88287933 -10.43025574 1.87928406 -9.47055054 1.87557983 C-3.11405216 1.88594784 -3.11405216 1.88594784 -2 3 C-1.90695982 4.47354348 -1.88253735 5.95150591 -1.88647461 7.42797852 C-1.88658791 8.83932823 -1.88658791 8.83932823 -1.88670349 10.27919006 C-1.89186478 11.30209641 -1.89702606 12.32500275 -1.90234375 13.37890625 C-1.9037587 14.42070541 -1.90517365 15.46250458 -1.90663147 16.53587341 C-1.9122492 19.87811094 -1.9248047 23.22028257 -1.9375 26.5625 C-1.94251272 28.82226466 -1.94707602 31.08203037 -1.95117188 33.34179688 C-1.96222439 38.89455391 -1.97897976 44.44727225 -2 50 C-1.34 50 -0.68 50 0 50 C0 33.5 0 17 0 0 Z " fill="#767676" transform="translate(204,26)"/>
<path d="M0 0 C0.66 0 1.32 0 2 0 C2 22.44 2 44.88 2 68 C12.89 68 23.78 68 35 68 C35 88.79 35 109.58 35 131 C35.66 131 36.32 131 37 131 C37 132.32 37 133.64 37 135 C21.655 135.495 21.655 135.495 6 136 C6 145.24 6 154.48 6 164 C5.34 164 4.68 164 4 164 C4 164.66 4 165.32 4 166 C27.1 166 50.2 166 74 166 C74 166.99 74 167.98 74 169 C50.24 169 26.48 169 2 169 C2 156.46 2 143.92 2 131 C12.56 131 23.12 131 34 131 C34 110.87 34 90.74 34 70 C22.78 70 11.56 70 0 70 C0 46.9 0 23.8 0 0 Z " fill="#5B5B5B" transform="translate(42,105)"/>
<path d="M0 0 C1.32 0 2.64 0 4 0 C4 0.66 4 1.32 4 2 C27.1 2 50.2 2 74 2 C74 24.44 74 46.88 74 70 C72.68 70 71.36 70 70 70 C70 48.88 70 27.76 70 6 C46.9 6 23.8 6 0 6 C0 4.02 0 2.04 0 0 Z " fill="#444444" transform="translate(184,103)"/>
<path d="M0 0 C9.09232417 -0.02256591 18.18462983 -0.04092375 27.27697563 -0.05181217 C31.49862582 -0.05703728 35.72025591 -0.06412822 39.94189453 -0.07543945 C44.01376672 -0.0862815 48.08561953 -0.09227964 52.15750504 -0.09487724 C53.71328156 -0.09672911 55.26905698 -0.10034518 56.82482529 -0.10573006 C58.99896307 -0.11295795 61.17302016 -0.1139902 63.34716797 -0.11352539 C64.58626923 -0.115746 65.82537048 -0.11796661 67.10202026 -0.12025452 C70 0 70 0 72 1 C72 10.24 72 19.48 72 29 C72.66 29 73.32 29 74 29 C74 29.66 74 30.32 74 31 C73.34 31 72.68 31 72 31 C72 31.66 72 32.32 72 33 C71.34 33 70.68 33 70 33 C70 23.1 70 13.2 70 3 C47.56 3 25.12 3 2 3 C2 12.9 2 22.8 2 33 C-21.1 33 -44.2 33 -68 33 C-68 32.34 -68 31.68 -68 31 C-46.22 31 -24.44 31 -2 31 C-2 30.34 -2 29.68 -2 29 C-1.34 29 -0.68 29 0 29 C0 19.43 0 9.86 0 0 Z " fill="#414141" transform="translate(114,238)"/>
<path d="M0 0 C1.32295578 -0.00422974 1.32295578 -0.00422974 2.67263794 -0.00854492 C3.64772812 -0.00652069 4.6228183 -0.00449646 5.62745667 -0.00241089 C6.64851501 -0.00416321 7.66957336 -0.00591553 8.72157288 -0.00772095 C12.11542941 -0.01214204 15.50923432 -0.00920035 18.90309143 -0.00582886 C21.25099701 -0.00650187 23.59890252 -0.00747188 25.94680786 -0.00872803 C30.8756832 -0.01020539 35.80454045 -0.0080494 40.7334137 -0.00338745 C47.06350617 0.00230672 53.39355621 -0.00096696 59.72364712 -0.00695992 C64.57479168 -0.01056715 69.42592613 -0.00942613 74.277071 -0.00683212 C76.61155769 -0.00616314 78.94604529 -0.00699027 81.28053093 -0.00931168 C84.53942688 -0.01184051 87.79825341 -0.00799415 91.05714417 -0.00241089 C92.03021011 -0.00443512 93.00327606 -0.00645935 94.00582886 -0.00854492 C94.8906192 -0.0057251 95.77540955 -0.00290527 96.68701172 0 C97.84375727 0.00056554 97.84375727 0.00056554 99.02387142 0.0011425 C100.90699768 0.12698364 100.90699768 0.12698364 102.90699768 1.12698364 C102.90699768 17.62698364 102.90699768 34.12698364 102.90699768 51.12698364 C102.24699768 51.12698364 101.58699768 51.12698364 100.90699768 51.12698364 C100.57699768 35.61698364 100.24699768 20.10698364 99.90699768 4.12698364 C66.24699768 4.12698364 32.58699768 4.12698364 -2.09300232 4.12698364 C-2.42300232 19.63698364 -2.75300232 35.14698364 -3.09300232 51.12698364 C-3.42300232 51.12698364 -3.75300232 51.12698364 -4.09300232 51.12698364 C-4.26082119 44.02467582 -4.42078596 36.92222287 -4.57518005 29.8196106 C-4.62868953 27.40127516 -4.68402545 24.98297945 -4.74119568 22.56472778 C-4.82285774 19.09728566 -4.89804102 15.6297557 -4.97190857 12.16213989 C-5.01246117 10.52934837 -5.01246117 10.52934837 -5.05383301 8.86357117 C-5.07392929 7.8626091 -5.09402557 6.86164703 -5.11473083 5.83035278 C-5.13471634 4.94432877 -5.15470184 4.05830475 -5.17529297 3.14543152 C-5.02496029 -0.54197023 -3.21551977 0.00157285 0 0 Z " fill="#373737" transform="translate(101.09300231933594,24.873016357421875)"/>
<path d="M0 0 C24.87637486 -0.04010881 24.87637486 -0.04010881 35.44921875 -0.04882812 C42.67432384 -0.05481474 49.8994163 -0.06191022 57.12451172 -0.07543945 C62.94702417 -0.08627454 68.76952308 -0.09227816 74.59204483 -0.09487724 C76.81768126 -0.09673037 79.04331691 -0.10034883 81.2689476 -0.10573006 C84.37706882 -0.1129487 87.48513352 -0.11399059 90.59326172 -0.11352539 C91.98508667 -0.1189183 91.98508667 -0.1189183 93.4050293 -0.12442017 C94.6712764 -0.12235817 94.6712764 -0.12235817 95.96310425 -0.12025452 C96.69869505 -0.12117631 97.43428585 -0.1220981 98.19216728 -0.12304783 C100 0 100 0 102 1 C102 15.52 102 30.04 102 45 C99.63386544 46.18306728 98.13219264 46.13354608 95.5 46.125 C94.7059375 46.12757812 93.911875 46.13015625 93.09375 46.1328125 C91 46 91 46 89 45 C89 35.1 89 25.2 89 15 C89.33 15 89.66 15 90 15 C90 24.24 90 33.48 90 43 C93.3 43 96.6 43 100 43 C100 29.47 100 15.94 100 2 C67.66 2 35.32 2 2 2 C2 15.53 2 29.06 2 43 C5.63 43 9.26 43 13 43 C13 43.66 13 44.32 13 45 C8.71 45 4.42 45 0 45 C0 30.15 0 15.3 0 0 Z " fill="#D0D0D0" transform="translate(99,29)"/>
<path d="M0 0 C22.44 0 44.88 0 68 0 C68 0.33 68 0.66 68 1 C46.22 1.33 24.44 1.66 2 2 C2 20.81 2 39.62 2 59 C10.25 59 18.5 59 27 59 C27 52.07 27 45.14 27 38 C29.64 38 32.28 38 35 38 C35 69.02 35 100.04 35 132 C34.34 132 33.68 132 33 132 C33 101.64 33 71.28 33 40 C31.68 40 30.36 40 29 40 C29 47.26 29 54.52 29 62 C19.43 62 9.86 62 0 62 C0 41.54 0 21.08 0 0 Z " fill="#B1B1B1" transform="translate(48,109)"/>
<path d="M0 0 C0.69773026 -0.0049649 1.39546051 -0.00992981 2.11433411 -0.01504517 C4.42657449 -0.02967177 6.73874631 -0.03646906 9.05102539 -0.04199219 C10.65523786 -0.04774258 12.2594503 -0.05350033 13.86366272 -0.05926514 C17.2287732 -0.06977609 20.59385978 -0.07561835 23.95898438 -0.07910156 C28.27463044 -0.08459104 32.58996176 -0.10862811 36.905509 -0.13707352 C40.21945627 -0.15567925 43.53332736 -0.16090435 46.84732246 -0.16243744 C48.43857103 -0.16546844 50.02981811 -0.17351201 51.62101555 -0.18662262 C53.84524517 -0.20364298 56.06870076 -0.20181335 58.29296875 -0.1953125 C59.55934677 -0.19895813 60.82572479 -0.20260376 62.13047791 -0.20635986 C65.21118164 0.16113281 65.21118164 0.16113281 68.21118164 3.16113281 C68.21118164 12.40113281 68.21118164 21.64113281 68.21118164 31.16113281 C89.00118164 31.16113281 109.79118164 31.16113281 131.21118164 31.16113281 C131.21118164 31.82113281 131.21118164 32.48113281 131.21118164 33.16113281 C110.09118164 33.16113281 88.97118164 33.16113281 67.21118164 33.16113281 C67.21118164 32.50113281 67.21118164 31.84113281 67.21118164 31.16113281 C66.55118164 31.16113281 65.89118164 31.16113281 65.21118164 31.16113281 C65.21118164 21.92113281 65.21118164 12.68113281 65.21118164 3.16113281 C41.45118164 2.83113281 17.69118164 2.50113281 -6.78881836 2.16113281 C-6.78881836 11.73113281 -6.78881836 21.30113281 -6.78881836 31.16113281 C-7.44881836 31.16113281 -8.10881836 31.16113281 -8.78881836 31.16113281 C-8.78881836 21.26113281 -8.78881836 11.36113281 -8.78881836 1.16113281 C-5.86228928 -0.30213173 -3.26796997 0.01763118 0 0 Z " fill="#868686" transform="translate(120.788818359375,235.8388671875)"/>
<path d="M0 0 C0.33 0 0.66 0 1 0 C1 20.13 1 40.26 1 61 C12.55 61 24.1 61 36 61 C36.020625 66.713125 36.04125 72.42625 36.0625 78.3125 C36.071604 80.11243408 36.08070801 81.91236816 36.09008789 83.7668457 C36.09300874 85.19482346 36.0955569 86.62280205 36.09765625 88.05078125 C36.10277222 88.79114624 36.10788818 89.53151123 36.11315918 90.29431152 C36.11369951 93.46984417 36.01203336 95.96389992 35 99 C10.58 99 -13.84 99 -39 99 C-39 98.01 -39 97.02 -39 96 C-15.24 96 8.52 96 33 96 C33 84.78 33 73.56 33 62 C22.11 62 11.22 62 0 62 C0 41.54 0 21.08 0 0 Z " fill="#7C7C7C" transform="translate(223,175)"/>
<path d="M0 0 C5.61 0 11.22 0 17 0 C17 7.26 17 14.52 17 22 C11.39 22 5.78 22 0 22 C0 23.98 0 25.96 0 28 C-2.64458379 29.32229189 -4.67761301 29.09677194 -7.625 29.0625 C-8.62789062 29.05347656 -9.63078125 29.04445313 -10.6640625 29.03515625 C-11.43492187 29.02355469 -12.20578125 29.01195313 -13 29 C-13 26.69 -13 24.38 -13 22 C-9.04 22 -5.08 22 -1 22 C-1.020625 20.22625 -1.04125 18.4525 -1.0625 16.625 C-1.125 11.25 -1.125 11.25 0 9 C1.32 9 2.64 9 4 9 C4 10.98 4 12.96 4 15 C6.31 15 8.62 15 11 15 C11 12.36 11 9.72 11 7 C7.37 7 3.74 7 0 7 C0 4.69 0 2.38 0 0 Z " fill="#535353" transform="translate(158,57)"/>
<path d="M0 0 C1.32 0 2.64 0 4 0 C4 30.36 4 60.72 4 92 C-6.23 92 -16.46 92 -27 92 C-27 91.67 -27 91.34 -27 91 C-17.43 91 -7.86 91 2 91 C2 89.68 2 88.36 2 87 C1.34 87 0.68 87 0 87 C0 66.87 0 46.74 0 26 C0.66 26 1.32 26 2 26 C2 24.02 2 22.04 2 20 C1.34 20 0.68 20 0 20 C0 13.4 0 6.8 0 0 Z " fill="#515151" transform="translate(77,149)"/>
<path d="M0 0 C0.33 0 0.66 0 1 0 C1 1.65 1 3.3 1 5 C1.66 5 2.32 5 3 5 C3.06948076 13.16233476 3.12280118 21.32454617 3.15543652 29.48710346 C3.1710991 33.2772344 3.19234778 37.06716316 3.22631836 40.85717773 C3.2588913 44.51410601 3.27684855 48.1708397 3.28463173 51.82790184 C3.29017901 53.22378796 3.3010115 54.61966331 3.31719017 56.01546669 C3.33893429 57.9689459 3.34022515 59.92262051 3.34057617 61.8762207 C3.34723801 62.9887471 3.35389984 64.1012735 3.36076355 65.24751282 C3 68 3 68 1.67112732 69.85670471 C-1.02954046 71.70435612 -3.59535099 71.42479814 -6.8203125 71.4765625 C-7.47957733 71.49214203 -8.13884216 71.50772156 -8.81808472 71.52377319 C-10.9203782 71.57124906 -13.02233997 71.59904717 -15.125 71.625 C-17.23456871 71.66146287 -19.34394816 71.70203106 -21.45333862 71.74765015 C-23.36213251 71.78733322 -25.27116326 71.81508129 -27.18017578 71.84228516 C-29.9024956 71.68032358 -29.9024956 71.68032358 -31 73 C-31.12330088 74.8096774 -31.17790183 76.62407837 -31.20532227 78.43774414 C-31.22526749 79.59887222 -31.24521271 80.76000031 -31.26576233 81.95631409 C-31.28247482 83.219832 -31.29918732 84.48334991 -31.31640625 85.78515625 C-31.3475779 87.71408974 -31.3475779 87.71408974 -31.37937927 89.68199158 C-31.43466176 93.10635904 -31.48404361 96.5307875 -31.53222656 99.95526123 C-31.58239665 103.44744314 -31.6381061 106.9395361 -31.69335938 110.43164062 C-31.8010164 117.28768333 -31.90244449 124.14380633 -32 131 C-32.66 131 -33.32 131 -34 131 C-34 110.87 -34 90.74 -34 70 C-23.44 70 -12.88 70 -2 70 C-2 69.34 -2 68.68 -2 68 C-1.34 68 -0.68 68 0 68 C0 45.56 0 23.12 0 0 Z " fill="#DFDFDF" transform="translate(258,105)"/>
<path d="M0 0 C0.66 0 1.32 0 2 0 C2 1.32 2 2.64 2 4 C2.66 4 3.32 4 4 4 C4 24.46 4 44.92 4 66 C13.57 66 23.14 66 33 66 C33 65.34 33 64.68 33 64 C33.66 64 34.32 64 35 64 C35 65.98 35 67.96 35 70 C34.34 70 33.68 70 33 70 C33 69.34 33 68.68 33 68 C22.11 68 11.22 68 0 68 C0 45.56 0 23.12 0 0 Z " fill="#454545" transform="translate(44,105)"/>
<path d="M0 0 C0.66 0 1.32 0 2 0 C2 22.44 2 44.88 2 68 C12.89 68 23.78 68 35 68 C35 89.12 35 110.24 35 132 C24.11 132 13.22 132 2 132 C2 131.67 2 131.34 2 131 C12.56 131 23.12 131 34 131 C34 110.87 34 90.74 34 70 C22.78 70 11.56 70 0 70 C0 46.9 0 23.8 0 0 Z " fill="#999999" transform="translate(42,105)"/>
<path d="M0 0 C23.76 0 47.52 0 72 0 C72 0.66 72 1.32 72 2 C49.56 2 27.12 2 4 2 C4 2.66 4 3.32 4 4 C3.34 4 2.68 4 2 4 C2 23.47 2 42.94 2 63 C1.34 63 0.68 63 0 63 C0 42.21 0 21.42 0 0 Z " fill="#131313" transform="translate(114,44)"/>
<path d="M0 0 C10.23 0 20.46 0 31 0 C31 0.66 31 1.32 31 2 C21.43 2 11.86 2 2 2 C2.33 2.66 2.66 3.32 3 4 C3 11.26 3 18.52 3 26 C23.13 26 43.26 26 64 26 C64 26.66 64 27.32 64 28 C42.88 28 21.76 28 0 28 C0 18.76 0 9.52 0 0 Z " fill="#B5B5B5" transform="translate(48,241)"/>
<path d="M0 0 C22.44 0 44.88 0 68 0 C68 9.9 68 19.8 68 30 C67.34 30 66.68 30 66 30 C66 20.76 66 11.52 66 2 C44.88 2 23.76 2 2 2 C2 11.24 2 20.48 2 30 C1.34 30 0.68 30 0 30 C0 20.1 0 10.2 0 0 Z " fill="#A0A0A0" transform="translate(116,241)"/>
<path d="M0 0 C1.32 0 2.64 0 4 0 C4 0.66 4 1.32 4 2 C3.34 2 2.68 2 2 2 C2 32.03 2 62.06 2 93 C12.23 93 22.46 93 33 93 C33 93.33 33 93.66 33 94 C22.11 94 11.22 94 0 94 C0 62.98 0 31.96 0 0 Z " fill="#4E4E4E" transform="translate(219,147)"/>
<path d="M0 0 C10.56 0 21.12 0 32 0 C32 20.13 32 40.26 32 61 C21.44 61 10.88 61 0 61 C0 60.34 0 59.68 0 59 C9.9 59 19.8 59 30 59 C30 40.19 30 21.38 30 2 C20.76 2 11.52 2 2 2 C1.34 1.34 0.68 0.68 0 0 Z " fill="#DFDFDF" transform="translate(44,175)"/>
<path d="M0 0 C1.32 0 2.64 0 4 0 C4 0.66 4 1.32 4 2 C3.34 2 2.68 2 2 2 C2 11.9 2 21.8 2 32 C-21.1 32 -44.2 32 -68 32 C-68 31.34 -68 30.68 -68 30 C-46.22 30 -24.44 30 -2 30 C-2 29.34 -2 28.68 -2 28 C-1.34 28 -0.68 28 0 28 C0 18.76 0 9.52 0 0 Z " fill="#212121" transform="translate(114,239)"/>
<path d="M0 0 C1.77537895 0.00999275 1.77537895 0.00999275 3.58662415 0.02018738 C4.24055145 0.0197493 4.89447876 0.01931122 5.56822205 0.01885986 C7.72741158 0.02094816 9.8858224 0.04427967 12.0448761 0.0677948 C13.54274064 0.07339064 15.04061067 0.0776608 16.53848267 0.08065796 C20.47924481 0.09210775 24.4196748 0.12157577 28.36030579 0.1547699 C32.38206997 0.18546807 36.40388787 0.19916273 40.42573547 0.21427917 C48.31586179 0.24644562 56.20571824 0.29764327 64.09565735 0.36076355 C64.09565735 1.02076355 64.09565735 1.68076355 64.09565735 2.36076355 C65.08565735 2.85576355 65.08565735 2.85576355 66.09565735 3.36076355 C42.33565735 3.36076355 18.57565735 3.36076355 -5.90434265 3.36076355 C-2.90434265 0.36076355 -2.90434265 0.36076355 0 0 Z " fill="#E6E6E6" transform="translate(119.90434265136719,38.63923645019531)"/>
<path d="M0 0 C0.66 0 1.32 0 2 0 C2 10.56 2 21.12 2 32 C-21.1 32 -44.2 32 -68 32 C-68 31.34 -68 30.68 -68 30 C-46.22 30 -24.44 30 -2 30 C-2 29.34 -2 28.68 -2 28 C-1.34 28 -0.68 28 0 28 C0 18.76 0 9.52 0 0 Z " fill="#232323" transform="translate(254,239)"/>
<path d="M0 0 C0.66 0 1.32 0 2 0 C2 19.47 2 38.94 2 59 C1.34 59 0.68 59 0 59 C0 51.08 0 43.16 0 35 C-5.28 35 -10.56 35 -16 35 C-16 34.34 -16 33.68 -16 33 C-14.35 33 -12.7 33 -11 33 C-11 32.01 -11 31.02 -11 30 C-7.37 30 -3.74 30 0 30 C0 20.1 0 10.2 0 0 Z " fill="#727272" transform="translate(112,44)"/>
<path d="M0 0 C0.66 0 1.32 0 2 0 C2 0.99 2 1.98 2 3 C1.09644775 3.02505615 0.19289551 3.0501123 -0.73803711 3.07592773 C-4.0796428 3.17087317 -7.42106252 3.27011621 -10.76245117 3.37231445 C-12.2106424 3.4157163 -13.65888654 3.45738744 -15.10717773 3.49731445 C-17.18489559 3.55489062 -19.26234573 3.61862028 -21.33984375 3.68359375 C-22.59144287 3.72025146 -23.84304199 3.75690918 -25.13256836 3.79467773 C-27.89630504 3.67803906 -27.89630504 3.67803906 -29 5 C-29.12330088 6.8096774 -29.17790183 8.62407837 -29.20532227 10.43774414 C-29.22526749 11.59887222 -29.24521271 12.76000031 -29.26576233 13.95631409 C-29.28247482 15.219832 -29.29918732 16.48334991 -29.31640625 17.78515625 C-29.33718735 19.07111191 -29.35796844 20.35706757 -29.37937927 21.68199158 C-29.43466176 25.10635904 -29.48404361 28.5307875 -29.53222656 31.95526123 C-29.58239665 35.44744314 -29.6381061 38.9395361 -29.69335938 42.43164062 C-29.8010164 49.28768333 -29.90244449 56.14380633 -30 63 C-30.66 63 -31.32 63 -32 63 C-32 42.87 -32 22.74 -32 2 C-21.44 2 -10.88 2 0 2 C0 1.34 0 0.68 0 0 Z " fill="#D5D5D5" transform="translate(256,173)"/>
<path d="M0 0 C12.54 0 25.08 0 38 0 C38 1.32 38 2.64 38 4 C25.46 4 12.92 4 0 4 C0 2.68 0 1.36 0 0 Z " fill="#505050" transform="translate(131,92)"/>
<path d="M0 0 C1.65 0 3.3 0 5 0 C5 0.66 5 1.32 5 2 C8.63 2 12.26 2 16 2 C16 4.31 16 6.62 16 9 C15.01 9 14.02 9 13 9 C13 9.66 13 10.32 13 11 C11.02090602 11.02686553 9.04171029 11.04633375 7.0625 11.0625 C5.96035156 11.07410156 4.85820312 11.08570313 3.72265625 11.09765625 C1 11 1 11 0 10 C-0.07205511 8.31391034 -0.08386068 6.62499341 -0.0625 4.9375 C-0.05347656 4.01839844 -0.04445312 3.09929687 -0.03515625 2.15234375 C-0.02355469 1.44207031 -0.01195312 0.73179687 0 0 Z " fill="#8D8D8D" transform="translate(144,164)"/>
<path d="M0 0 C0.66 0 1.32 0 2 0 C2 14.52 2 29.04 2 44 C-0.36613456 45.18306728 -1.86780736 45.13354608 -4.5 45.125 C-5.2940625 45.12757812 -6.088125 45.13015625 -6.90625 45.1328125 C-9 45 -9 45 -11 44 C-11 34.1 -11 24.2 -11 14 C-10.67 14 -10.34 14 -10 14 C-10 23.24 -10 32.48 -10 42 C-6.7 42 -3.4 42 0 42 C0 28.14 0 14.28 0 0 Z " fill="#C5C5C5" transform="translate(199,30)"/>
<path d="M0 0 C5.61 0 11.22 0 17 0 C17 2.97 17 5.94 17 9 C15.68 9 14.36 9 13 9 C13 10.98 13 12.96 13 15 C12.34 15 11.68 15 11 15 C11 12.36 11 9.72 11 7 C7.37 7 3.74 7 0 7 C0 4.69 0 2.38 0 0 Z " fill="#A5A5A5" transform="translate(158,57)"/>
<path d="M0 0 C21.12 0 42.24 0 64 0 C64 9.24 64 18.48 64 28 C64.66 28 65.32 28 66 28 C66 28.99 66 29.98 66 31 C65.34 31 64.68 31 64 31 C59.52538021 22.05076043 63 11.00555401 63 1 C42.87 1.33 22.74 1.66 2 2 C1.67 11.57 1.34 21.14 1 31 C0.01 31 -0.98 31 -2 31 C-2 30.01 -2 29.02 -2 28 C-1.34 28 -0.68 28 0 28 C0 18.76 0 9.52 0 0 Z " fill="#EBEBEB" transform="translate(118,243)"/>
<path d="M0 0 C0.66 0 1.32 0 2 0 C2.66 2.64 3.32 5.28 4 8 C6.31 8 8.62 8 11 8 C11 7.34 11 6.68 11 6 C11.66 6 12.32 6 13 6 C13 4.68 13 3.36 13 2 C13.99 2 14.98 2 16 2 C16.0270043 3.45823212 16.04639787 4.91660675 16.0625 6.375 C16.07410156 7.18710938 16.08570313 7.99921875 16.09765625 8.8359375 C16 11 16 11 15 13 C10.05 13 5.1 13 0 13 C0 8.71 0 4.42 0 0 Z " fill="#515151" transform="translate(127,66)"/>
<path d="M0 0 C0.33 0 0.66 0 1 0 C1 2.97 1 5.94 1 9 C6.61 9 12.22 9 18 9 C18 9.66 18 10.32 18 11 C12.39 11 6.78 11 1 11 C1 12.98 1 14.96 1 17 C-1.64458379 18.32229189 -3.67761301 18.09677194 -6.625 18.0625 C-7.62789062 18.05347656 -8.63078125 18.04445313 -9.6640625 18.03515625 C-10.43492187 18.02355469 -11.20578125 18.01195313 -12 18 C-12 15.69 -12 13.38 -12 11 C-8.04 11 -4.08 11 0 11 C0 7.37 0 3.74 0 0 Z " fill="#8B8B8B" transform="translate(157,68)"/>
<path d="M0 0 C1.32 0 2.64 0 4 0 C4 18.15 4 36.3 4 55 C2.68 55 1.36 55 0 55 C0 54.34 0 53.68 0 53 C0.66 53 1.32 53 2 53 C2 36.17 2 19.34 2 2 C1.34 2 0.68 2 0 2 C0 1.34 0 0.68 0 0 Z " fill="#C8C8C8" transform="translate(204,24)"/>
<path d="M0 0 C10.89 0 21.78 0 33 0 C33 8.58 33 17.16 33 26 C32.34 26 31.68 26 31 26 C31 18.08 31 10.16 31 2 C20.77 2 10.54 2 0 2 C0 1.34 0 0.68 0 0 Z " fill="#B8B8B8" transform="translate(221,241)"/>
<path d="M0 0 C0.66 0 1.32 0 2 0 C2 14.19 2 28.38 2 43 C5.63 43 9.26 43 13 43 C13 43.66 13 44.32 13 45 C8.71 45 4.42 45 0 45 C0 30.15 0 15.3 0 0 Z " fill="#B1B1B1" transform="translate(99,29)"/>
<path d="M0 0 C0.66 0 1.32 0 2 0 C2 1.65 2 3.3 2 5 C5.63 5 9.26 5 13 5 C13 7.64 13 10.28 13 13 C10.69 13 8.38 13 6 13 C6 11.02 6 9.04 6 7 C4.68 7 3.36 7 2 7 C1.67 11.29 1.34 15.58 1 20 C-0.32 20 -1.64 20 -3 20 C-3 19.01 -3 18.02 -3 17 C-2.34 17 -1.68 17 -1 17 C-1 13.7 -1 10.4 -1 7 C-0.34 7 0.32 7 1 7 C0.67 4.69 0.34 2.38 0 0 Z " fill="#EDEDED" transform="translate(156,59)"/>
<path d="M0 0 C0.66 0 1.32 0 2 0 C2 1.98 2 3.96 2 6 C1.34 6 0.68 6 0 6 C0 5.34 0 4.68 0 4 C-10.23 4 -20.46 4 -31 4 C-31 3.34 -31 2.68 -31 2 C-20.77 2 -10.54 2 0 2 C0 1.34 0 0.68 0 0 Z " fill="#1C1C1C" transform="translate(77,169)"/>
<path d="M0 0 C0.33 1.32 0.66 2.64 1 4 C1.66 4 2.32 4 3 4 C3 4.99 3 5.98 3 7 C-2.28 7 -7.56 7 -13 7 C-13 5.35 -13 3.7 -13 2 C-8.71 2 -4.42 2 0 2 C0 1.34 0 0.68 0 0 Z " fill="#585858" transform="translate(201,72)"/>
<path d="M0 0 C5.28 0 10.56 0 16 0 C16 1.32 16 2.64 16 4 C10.72 4 5.44 4 0 4 C0 2.68 0 1.36 0 0 Z " fill="#4C4C4C" transform="translate(127,59)"/>
<path d="M0 0 C0.33 0 0.66 0 1 0 C1 9.24 1 18.48 1 28 C4.96 28 8.92 28 13 28 C13 28.66 13 29.32 13 30 C10.63386544 31.18306728 9.13219264 31.13354608 6.5 31.125 C5.7059375 31.12757812 4.911875 31.13015625 4.09375 31.1328125 C2 31 2 31 0 30 C0 20.1 0 10.2 0 0 Z " fill="#989898" transform="translate(188,44)"/>
<path d="M0 0 C0.66 0 1.32 0 2 0 C2 7.92 2 15.84 2 24 C2.66 24 3.32 24 4 24 C4 24.66 4 25.32 4 26 C3.34 26 2.68 26 2 26 C2 26.66 2 27.32 2 28 C1.34 28 0.68 28 0 28 C0 18.76 0 9.52 0 0 Z " fill="#3C3C3C" transform="translate(184,243)"/>
<path d="M0 0 C4.95 0 9.9 0 15 0 C15 1.32 15 2.64 15 4 C10.05 4 5.1 4 0 4 C0 2.68 0 1.36 0 0 Z " fill="#4F4F4F" transform="translate(158,59)"/>
<path d="M0 0 C0.33 0 0.66 0 1 0 C1 2.97 1 5.94 1 9 C2.32 9 3.64 9 5 9 C5 9.66 5 10.32 5 11 C3.68 11 2.36 11 1 11 C1 13.31 1 15.62 1 18 C4.63 18 8.26 18 12 18 C12 18.66 12 19.32 12 20 C8.04 20 4.08 20 0 20 C0 17.03 0 14.06 0 11 C-0.66 11 -1.32 11 -2 11 C-2 10.34 -2 9.68 -2 9 C-1.34 9 -0.68 9 0 9 C0 6.03 0 3.06 0 0 Z " fill="#C0C0C0" transform="translate(144,68)"/>
<path d="M0 0 C0.66 0 1.32 0 2 0 C2 1.65 2 3.3 2 5 C3.32 5 4.64 5 6 5 C6 5.66 6 6.32 6 7 C4.68 7 3.36 7 2 7 C1.67 11.29 1.34 15.58 1 20 C-0.32 20 -1.64 20 -3 20 C-3 19.01 -3 18.02 -3 17 C-2.34 17 -1.68 17 -1 17 C-1 13.7 -1 10.4 -1 7 C-0.34 7 0.32 7 1 7 C0.67 4.69 0.34 2.38 0 0 Z " fill="#D2D2D2" transform="translate(156,59)"/>
<path d="M0 0 C1.32 0 2.64 0 4 0 C4 0.66 4 1.32 4 2 C6.64 2 9.28 2 12 2 C12 3.32 12 4.64 12 6 C8.7 6 5.4 6 2 6 C2 5.34 2 4.68 2 4 C1.34 4 0.68 4 0 4 C0 2.68 0 1.36 0 0 Z " fill="#1D1D1D" transform="translate(145,167)"/>
<path d="M0 0 C0.66 0 1.32 0 2 0 C2 0.99 2 1.98 2 3 C2.99 3 3.98 3 5 3 C5 3.66 5 4.32 5 5 C14.24 5 23.48 5 33 5 C33 5.66 33 6.32 33 7 C22.11 6.67 11.22 6.34 0 6 C0 4.02 0 2.04 0 0 Z " fill="#323232" transform="translate(221,234)"/>
<path d="M0 0 C0 1.32 0 2.64 0 4 C-16.335 4.495 -16.335 4.495 -33 5 C-33 4.34 -33 3.68 -33 3 C-23.76 3 -14.52 3 -5 3 C-5 2.34 -5 1.68 -5 1 C-2 0 -2 0 0 0 Z " fill="#313131" transform="translate(79,236)"/>
<path d="M0 0 C1.98 0 3.96 0 6 0 C6 2.64 6 5.28 6 8 C4.02 8 2.04 8 0 8 C0 5.36 0 2.72 0 0 Z " fill="#F7F7F7" transform="translate(132,64)"/>
<path d="M0 0 C5.61 0 11.22 0 17 0 C17 1.98 17 3.96 17 6 C16.34 6 15.68 6 15 6 C15 4.68 15 3.36 15 2 C10.05 2 5.1 2 0 2 C0 1.34 0 0.68 0 0 Z " fill="#E7E7E7" transform="translate(127,79)"/>
<path d="M0 0 C3.3 0 6.6 0 10 0 C10 1.32 10 2.64 10 4 C6.7 4 3.4 4 0 4 C0 2.68 0 1.36 0 0 Z " fill="#393939" transform="translate(145,81)"/>
<path d="M0 0 C2.97 0.495 2.97 0.495 6 1 C6 4.96 6 8.92 6 13 C5.67 13 5.34 13 5 13 C5 10.03 5 7.06 5 4 C4.01 4 3.02 4 2 4 C2 5.32 2 6.64 2 8 C1.34 8 0.68 8 0 8 C0 5.36 0 2.72 0 0 Z " fill="#A1A1A1" transform="translate(138,64)"/>
<path d="M0 0 C1.65 0 3.3 0 5 0 C5 0.99 5 1.98 5 3 C3.02 3 1.04 3 -1 3 C-1 9.93 -1 16.86 -1 24 C-1.33 24 -1.66 24 -2 24 C-2 16.74 -2 9.48 -2 2 C-1.34 2 -0.68 2 0 2 C0 1.34 0 0.68 0 0 Z " fill="#E1E1E1" transform="translate(76,144)"/>
<path d="M0 0 C1.32 0 2.64 0 4 0 C4 2.64 4 5.28 4 8 C3.34 8 2.68 8 2 8 C2 8.66 2 9.32 2 10 C0.68 9.67 -0.64 9.34 -2 9 C-1.34 9 -0.68 9 0 9 C0 6.03 0 3.06 0 0 Z " fill="#4F4F4F" transform="translate(171,66)"/>
<path d="M0 0 C0.33 0 0.66 0 1 0 C1 10.23 1 20.46 1 31 C0.01 31 -0.98 31 -2 31 C-2 30.01 -2 29.02 -2 28 C-1.34 28 -0.68 28 0 28 C0 18.76 0 9.52 0 0 Z " fill="#D8D8D8" transform="translate(118,243)"/>
<path d="M0 0 C1.32 0 2.64 0 4 0 C4 3.3 4 6.6 4 10 C3.34 10 2.68 10 2 10 C-0.4294516 6.3558226 -0.16179575 4.28758728 0 0 Z " fill="#474747" transform="translate(158,66)"/>
<path d="M0 0 C0.66 0 1.32 0 2 0 C3.31626692 3.61973402 4 6.09567131 4 10 C2.68 10 1.36 10 0 10 C0 6.7 0 3.4 0 0 Z " fill="#2F2F2F" transform="translate(127,66)"/>
<path d="M0 0 C2.97 0 5.94 0 9 0 C9 0.99 9 1.98 9 3 C6.03 3 3.06 3 0 3 C0 2.01 0 1.02 0 0 Z " fill="#757575" transform="translate(162,72)"/>
<path d="M0 0 C1.98 0 3.96 0 6 0 C6 0.66 6 1.32 6 2 C4.68 2 3.36 2 2 2 C2 3.98 2 5.96 2 8 C1.34 8 0.68 8 0 8 C0 5.36 0 2.72 0 0 Z " fill="#BFBFBF" transform="translate(169,64)"/>
<path d="M0 0 C2.97 0 5.94 0 9 0 C9 2.31 9 4.62 9 7 C8.34 7 7.68 7 7 7 C6.67 5.35 6.34 3.7 6 2 C3.03 1.505 3.03 1.505 0 1 C0 0.67 0 0.34 0 0 Z " fill="#C1C1C1" transform="translate(151,166)"/>
<path d="M0 0 C0.99 0 1.98 0 3 0 C3 0.66 3 1.32 3 2 C4.32 2 5.64 2 7 2 C7 2.66 7 3.32 7 4 C4.69 4 2.38 4 0 4 C0 2.68 0 1.36 0 0 Z " fill="#737373" transform="translate(131,92)"/>
<path d="M0 0 C1.32 0 2.64 0 4 0 C4 1.65 4 3.3 4 5 C2.68 5 1.36 5 0 5 C0 3.35 0 1.7 0 0 Z " fill="#232323" transform="translate(184,74)"/>
</svg>
