<?xml version="1.0" encoding="UTF-8"?>
<svg version="1.1" xmlns="http://www.w3.org/2000/svg" width="300" height="300">
<path d="M0 0 C99 0 198 0 300 0 C300 99 300 198 300 300 C201 300 102 300 0 300 C0 201 0 102 0 0 Z " fill="#FDFDFD" transform="translate(0,0)"/>
<path d="M0 0 C36.96 0 73.92 0 112 0 C112 17.49 112 34.98 112 53 C111.34 53 110.68 53 110 53 C110 53.66 110 54.32 110 55 C104.72 55 99.44 55 94 55 C94.33 63.91 94.66 72.82 95 82 C118.1 82 141.2 82 165 82 C165 105.1 165 128.2 165 152 C153.45 152 141.9 152 130 152 C130 172.46 130 192.92 130 214 C141.55 214 153.1 214 165 214 C165 226.21 165 238.42 165 251 C140.25 251 115.5 251 90 251 C90 250.34 90 249.68 90 249 C89.34 249 88.68 249 88 249 C88 239.1 88 229.2 88 219 C66.88 219 45.76 219 24 219 C24 229.89 24 240.78 24 252 C-0.75 252 -25.5 252 -51 252 C-51 239.46 -51 226.92 -51 214 C-40.11 214 -29.22 214 -18 214 C-18 193.54 -18 173.08 -18 152 C-28.89 152 -39.78 152 -51 152 C-51 128.24 -51 104.48 -51 80 C-27.9 80 -4.8 80 19 80 C19 71.75 19 63.5 19 55 C12.73 55 6.46 55 0 55 C0 36.85 0 18.7 0 0 Z " fill="#FCFCFC" transform="translate(93,23)"/>
<path d="M0 0 C36.96 0 73.92 0 112 0 C112 17.49 112 34.98 112 53 C111.34 53 110.68 53 110 53 C110 53.66 110 54.32 110 55 C104.72 55 99.44 55 94 55 C94.33 63.91 94.66 72.82 95 82 C118.1 82 141.2 82 165 82 C165 105.1 165 128.2 165 152 C153.45 152 141.9 152 130 152 C130 172.46 130 192.92 130 214 C141.55 214 153.1 214 165 214 C165 226.21 165 238.42 165 251 C140.25 251 115.5 251 90 251 C90 250.34 90 249.68 90 249 C89.34 249 88.68 249 88 249 C88 239.1 88 229.2 88 219 C66.88 219 45.76 219 24 219 C24 229.89 24 240.78 24 252 C-0.75 252 -25.5 252 -51 252 C-51 239.46 -51 226.92 -51 214 C-40.11 214 -29.22 214 -18 214 C-18 193.54 -18 173.08 -18 152 C-28.89 152 -39.78 152 -51 152 C-51 128.24 -51 104.48 -51 80 C-27.9 80 -4.8 80 19 80 C19 71.75 19 63.5 19 55 C12.73 55 6.46 55 0 55 C0 36.85 0 18.7 0 0 Z M24 24 C24 45.12 24 66.24 24 88 C19.10285156 87.98839844 14.20570312 87.97679687 9.16015625 87.96484375 C6.06575389 87.95973685 2.9713567 87.95492306 -0.12304688 87.95117188 C-5.03931756 87.94518399 -9.95556969 87.93808516 -14.87182617 87.92456055 C-18.83346828 87.91372975 -22.79509052 87.90772276 -26.75674629 87.90512276 C-28.27148311 87.90326886 -29.78621879 87.8996489 -31.30094719 87.89426994 C-33.41541813 87.88705693 -35.52980594 87.88600917 -37.64428711 87.88647461 C-38.85007919 87.884254 -40.05587128 87.88203339 -41.29820251 87.87974548 C-43.91674401 87.69175539 -43.91674401 87.69175539 -45 89 C-45.09365006 90.7492872 -45.11744438 92.50236254 -45.11352539 94.25415039 C-45.11344986 95.37523697 -45.11337433 96.49632355 -45.11329651 97.65138245 C-45.10813522 98.8711528 -45.10297394 100.09092316 -45.09765625 101.34765625 C-45.0962413 102.58921982 -45.09482635 103.83078339 -45.09336853 105.10997009 C-45.08870591 108.41605491 -45.07971497 111.72207146 -45.06866455 115.02813721 C-45.05844827 118.3996115 -45.05387045 121.77109283 -45.04882812 125.14257812 C-45.03777395 131.76174018 -45.0204966 138.38086071 -45 145 C-37.08 145 -29.16 145 -21 145 C-19.82573736 142.65147472 -19.88491827 141.26225935 -19.90234375 138.6484375 C-19.90556641 137.79765625 -19.90878906 136.946875 -19.91210938 136.0703125 C-19.92048828 135.18085938 -19.92886719 134.29140625 -19.9375 133.375 C-19.94201172 132.4778125 -19.94652344 131.580625 -19.95117188 130.65625 C-19.96297409 128.43743352 -19.97943845 126.21874982 -20 124 C-19.34 124 -18.68 124 -18 124 C-18 123.01 -18 122.02 -18 121 C-16.35 121 -14.7 121 -13 121 C-11.66406049 125.00781852 -11.82209836 128.88046174 -11.79467773 133.0612793 C-11.78477814 133.98830658 -11.77487854 134.91533386 -11.76467896 135.87045288 C-11.73306064 138.93834875 -11.70830514 142.00626011 -11.68359375 145.07421875 C-11.66302452 147.19985866 -11.64202805 149.32549447 -11.62062073 151.4511261 C-11.56539694 157.04884529 -11.51598897 162.64660141 -11.46777344 168.24438477 C-11.41756069 173.95527437 -11.36187344 179.66611026 -11.30664062 185.37695312 C-11.19905527 196.58458955 -11.09761109 207.79227258 -11 219 C-11.99 219 -12.98 219 -14 219 C-14 219.66 -14 220.32 -14 221 C-23.9 221 -33.8 221 -44 221 C-44 228.92 -44 236.84 -44 245 C-23.21 245 -2.42 245 19 245 C19 234.77 19 224.54 19 214 C44.08 214 69.16 214 95 214 C95 224.23 95 234.46 95 245 C115.79 245 136.58 245 158 245 C158 237.08 158 229.16 158 221 C147.77 221 137.54 221 127 221 C127 220.34 127 219.68 127 219 C126.34 219 125.68 219 125 219 C125.495 171.975 125.495 171.975 126 124 C127.32 123.34 128.64 122.68 130 122 C130 129.92 130 137.84 130 146 C130.66 146 131.32 146 132 146 C132 146.66 132 147.32 132 148 C141.57 148 151.14 148 161 148 C161 127.54 161 107.08 161 86 C137.57 86 114.14 86 90 86 C90 85.34 90 84.68 90 84 C89.34 84 88.68 84 88 84 C88 64.2 88 44.4 88 24 C66.88 24 45.76 24 24 24 Z " fill="#555555" transform="translate(93,23)"/>
<path d="M0 0 C1.80535721 0.00666183 1.80535721 0.00666183 3.64718628 0.01345825 C4.31072113 0.0131662 4.97425598 0.01287415 5.65789795 0.01257324 C7.85481772 0.01396847 10.05139985 0.02953836 12.2482605 0.04519653 C13.76997696 0.04892599 15.29169581 0.05177328 16.81341553 0.05377197 C20.82150891 0.0614138 24.8294577 0.0810669 28.8374939 0.10317993 C32.92621911 0.12362659 37.01496766 0.13277116 41.10372925 0.14285278 C49.12853524 0.16431236 57.15322364 0.19845483 65.177948 0.24050903 C65.177948 0.90050903 65.177948 1.56050903 65.177948 2.24050903 C42.737948 2.57050903 20.297948 2.90050903 -2.822052 3.24050903 C-3.152052 21.72050903 -3.482052 40.20050903 -3.822052 59.24050903 C4.097948 59.24050903 12.017948 59.24050903 20.177948 59.24050903 C20.507948 52.31050903 20.837948 45.38050903 21.177948 38.24050903 C21.837948 38.24050903 22.497948 38.24050903 23.177948 38.24050903 C23.177948 37.25050903 23.177948 36.26050903 23.177948 35.24050903 C25.552948 35.05300903 25.552948 35.05300903 28.177948 35.24050903 C30.83439292 39.22517642 30.44288391 42.67828985 30.40499878 47.30178833 C30.40529083 48.22881561 30.40558289 49.1558429 30.40588379 50.11096191 C30.40448904 53.17897867 30.38892093 56.24675339 30.3732605 59.31472778 C30.36953089 61.44036222 30.36668367 63.56599837 30.36468506 65.69163513 C30.35704454 71.28943621 30.3373924 76.88713369 30.3152771 82.4848938 C30.29482773 88.19573566 30.28568528 93.90659424 30.27560425 99.61746216 C30.25414695 110.82518999 30.2200059 122.0328409 30.177948 133.24050903 C29.187948 133.24050903 28.197948 133.24050903 27.177948 133.24050903 C27.177948 133.90050903 27.177948 134.56050903 27.177948 135.24050903 C17.277948 135.24050903 7.377948 135.24050903 -2.822052 135.24050903 C-2.822052 143.16050903 -2.822052 151.08050903 -2.822052 159.24050903 C17.967948 159.24050903 38.757948 159.24050903 60.177948 159.24050903 C60.177948 149.01050903 60.177948 138.78050903 60.177948 128.24050903 C85.257948 128.24050903 110.337948 128.24050903 136.177948 128.24050903 C136.177948 138.47050903 136.177948 148.70050903 136.177948 159.24050903 C156.967948 159.24050903 177.757948 159.24050903 199.177948 159.24050903 C199.177948 151.32050903 199.177948 143.40050903 199.177948 135.24050903 C188.947948 135.24050903 178.717948 135.24050903 168.177948 135.24050903 C168.177948 134.58050903 168.177948 133.92050903 168.177948 133.24050903 C167.517948 133.24050903 166.857948 133.24050903 166.177948 133.24050903 C166.13168304 120.88860472 166.09610859 108.53672089 166.07432365 96.1847477 C166.06386995 90.44972303 166.04968188 84.71475748 166.02706909 78.97976685 C166.0053972 73.44902335 165.99339134 67.91833684 165.98819351 62.38755417 C165.98448756 60.27355425 165.97725117 58.15955758 165.96648788 56.04558182 C165.95204808 53.09307269 165.94996689 50.14080148 165.95089722 47.18826294 C165.94370667 46.30713333 165.93651611 45.42600372 165.92910767 44.51817322 C165.94984368 38.46861336 165.94984368 38.46861336 168.177948 36.24050903 C169.167948 36.24050903 170.157948 36.24050903 171.177948 36.24050903 C171.177948 44.16050903 171.177948 52.08050903 171.177948 60.24050903 C171.837948 60.24050903 172.497948 60.24050903 173.177948 60.24050903 C173.177948 60.90050903 173.177948 61.56050903 173.177948 62.24050903 C172.187948 62.24050903 171.197948 62.24050903 170.177948 62.24050903 C169.847948 84.68050903 169.517948 107.12050903 169.177948 130.24050903 C169.837948 130.24050903 170.497948 130.24050903 171.177948 130.24050903 C171.177948 129.58050903 171.177948 128.92050903 171.177948 128.24050903 C182.727948 128.24050903 194.277948 128.24050903 206.177948 128.24050903 C206.177948 140.45050903 206.177948 152.66050903 206.177948 165.24050903 C181.427948 165.24050903 156.677948 165.24050903 131.177948 165.24050903 C131.177948 164.58050903 131.177948 163.92050903 131.177948 163.24050903 C130.517948 163.24050903 129.857948 163.24050903 129.177948 163.24050903 C129.177948 153.34050903 129.177948 143.44050903 129.177948 133.24050903 C108.057948 133.24050903 86.937948 133.24050903 65.177948 133.24050903 C65.177948 144.13050903 65.177948 155.02050903 65.177948 166.24050903 C40.427948 166.24050903 15.677948 166.24050903 -9.822052 166.24050903 C-9.822052 153.70050903 -9.822052 141.16050903 -9.822052 128.24050903 C1.067948 128.24050903 11.957948 128.24050903 23.177948 128.24050903 C23.177948 128.57050903 23.177948 128.90050903 23.177948 129.24050903 C12.947948 129.24050903 2.717948 129.24050903 -7.822052 129.24050903 C-7.822052 131.22050903 -7.822052 133.20050903 -7.822052 135.24050903 C-7.162052 135.24050903 -6.502052 135.24050903 -5.822052 135.24050903 C-5.822052 134.25050903 -5.822052 133.26050903 -5.822052 132.24050903 C5.067948 132.24050903 15.957948 132.24050903 27.177948 132.24050903 C27.177948 101.88050903 27.177948 71.52050903 27.177948 40.24050903 C25.857948 40.24050903 24.537948 40.24050903 23.177948 40.24050903 C23.177948 46.84050903 23.177948 53.44050903 23.177948 60.24050903 C13.937948 60.24050903 4.697948 60.24050903 -4.822052 60.24050903 C-4.86396449 52.7195454 -4.9040377 45.1990034 -4.92555237 37.67802429 C-4.93612391 34.17585262 -4.95025622 30.67377738 -4.97293091 27.17166138 C-4.99877153 23.15553847 -5.00851666 19.13951807 -5.0173645 15.12332153 C-5.02768707 13.8649649 -5.03800964 12.60660828 -5.04864502 11.31011963 C-5.04879608 10.14906708 -5.04894714 8.98801453 -5.04910278 7.79177856 C-5.05354401 6.76585602 -5.05798523 5.73993347 -5.06256104 4.68292236 C-4.69936175 0.99456704 -3.62913829 0.30929286 0 0 Z " fill="#5A5A5A" transform="translate(51.822052001953125,108.75949096679688)"/>
<path d="M0 0 C34.32 0 68.64 0 104 0 C104 14.52 104 29.04 104 44 C99.71 44 95.42 44 91 44 C91 34.43 91 24.86 91 15 C90.01 15 89.02 15 88 15 C88 14.34 88 13.68 88 13 C64.24 13 40.48 13 16 13 C15.67 23.23 15.34 33.46 15 44 C10.05 44 5.1 44 0 44 C0 29.48 0 14.96 0 0 Z " fill="#FAFAFA" transform="translate(97,28)"/>
<path d="M0 0 C0.33 0 0.66 0 1 0 C1 19.8 1 39.6 1 60 C-6.34572266 60.09087891 -6.34572266 60.09087891 -13.83984375 60.18359375 C-16.93425403 60.22406797 -20.02865506 60.26483087 -23.12304688 60.30664062 C-28.03927548 60.37303833 -32.95550217 60.43834147 -37.87182617 60.49731445 C-41.83353126 60.54490313 -45.79514718 60.59724367 -49.75674629 60.65294075 C-51.27145747 60.67338931 -52.78619312 60.69209817 -54.30094719 60.70907402 C-56.41548426 60.73306299 -58.52985135 60.7631245 -60.64428711 60.79467773 C-61.85007919 60.81022202 -63.05587128 60.8257663 -64.29820251 60.84178162 C-66.91634376 60.69482383 -66.91634376 60.69482383 -68 62 C-68.12330088 63.8096774 -68.17790183 65.62407837 -68.20532227 67.43774414 C-68.22526749 68.59887222 -68.24521271 69.76000031 -68.26576233 70.95631409 C-68.28247482 72.219832 -68.29918732 73.48334991 -68.31640625 74.78515625 C-68.33718735 76.07111191 -68.35796844 77.35706757 -68.37937927 78.68199158 C-68.43466176 82.10635904 -68.48404361 85.5307875 -68.53222656 88.95526123 C-68.58239665 92.44744304 -68.63805236 95.93953702 -68.69335938 99.43164062 C-68.80153764 106.28769359 -68.90051197 113.14379328 -69 120 C-59.76 120 -50.52 120 -41 120 C-41 113.4 -41 106.8 -41 100 C-39.68 100 -38.36 100 -37 100 C-37 130.36 -37 160.72 -37 192 C-47.89 192 -58.78 192 -70 192 C-70 192.99 -70 193.98 -70 195 C-70.66 195 -71.32 195 -72 195 C-72 193.02 -72 191.04 -72 189 C-61.77 189 -51.54 189 -41 189 C-41 168.21 -41 147.42 -41 126 C-51.89 126 -62.78 126 -74 126 C-74 102.24 -74 78.48 -74 54 C-50.9 54 -27.8 54 -4 54 C-4 54.66 -4 55.32 -4 56 C-26.44 56 -48.88 56 -72 56 C-72 57.98 -72 59.96 -72 62 C-71.34 62 -70.68 62 -70 62 C-69.67 60.68 -69.34 59.36 -69 58 C-46.23 58 -23.46 58 0 58 C0 38.86 0 19.72 0 0 Z " fill="#696969" transform="translate(116,49)"/>
<path d="M0 0 C1.80535721 0.00666183 1.80535721 0.00666183 3.64718628 0.01345825 C4.31072113 0.0131662 4.97425598 0.01287415 5.65789795 0.01257324 C7.85481772 0.01396847 10.05139985 0.02953836 12.2482605 0.04519653 C13.76997696 0.04892599 15.29169581 0.05177328 16.81341553 0.05377197 C20.82150891 0.0614138 24.8294577 0.0810669 28.8374939 0.10317993 C32.92621911 0.12362659 37.01496766 0.13277116 41.10372925 0.14285278 C49.12853524 0.16431236 57.15322364 0.19845483 65.177948 0.24050903 C65.177948 0.90050903 65.177948 1.56050903 65.177948 2.24050903 C42.737948 2.57050903 20.297948 2.90050903 -2.822052 3.24050903 C-3.152052 21.72050903 -3.482052 40.20050903 -3.822052 59.24050903 C4.097948 59.24050903 12.017948 59.24050903 20.177948 59.24050903 C20.507948 52.31050903 20.837948 45.38050903 21.177948 38.24050903 C21.837948 38.24050903 22.497948 38.24050903 23.177948 38.24050903 C23.177948 37.25050903 23.177948 36.26050903 23.177948 35.24050903 C25.552948 35.05300903 25.552948 35.05300903 28.177948 35.24050903 C30.83439292 39.22517642 30.44288391 42.67828985 30.40499878 47.30178833 C30.40529083 48.22881561 30.40558289 49.1558429 30.40588379 50.11096191 C30.40448904 53.17897867 30.38892093 56.24675339 30.3732605 59.31472778 C30.36953089 61.44036222 30.36668367 63.56599837 30.36468506 65.69163513 C30.35704454 71.28943621 30.3373924 76.88713369 30.3152771 82.4848938 C30.29482773 88.19573566 30.28568528 93.90659424 30.27560425 99.61746216 C30.25414695 110.82518999 30.2200059 122.0328409 30.177948 133.24050903 C29.187948 133.24050903 28.197948 133.24050903 27.177948 133.24050903 C27.177948 133.90050903 27.177948 134.56050903 27.177948 135.24050903 C17.277948 135.24050903 7.377948 135.24050903 -2.822052 135.24050903 C-2.822052 143.16050903 -2.822052 151.08050903 -2.822052 159.24050903 C17.967948 159.24050903 38.757948 159.24050903 60.177948 159.24050903 C60.177948 159.90050903 60.177948 160.56050903 60.177948 161.24050903 C39.057948 161.24050903 17.937948 161.24050903 -3.822052 161.24050903 C-3.822052 160.58050903 -3.822052 159.92050903 -3.822052 159.24050903 C-5.142052 159.24050903 -6.462052 159.24050903 -7.822052 159.24050903 C-7.822052 160.89050903 -7.822052 162.54050903 -7.822052 164.24050903 C16.267948 163.91050903 40.357948 163.58050903 65.177948 163.24050903 C65.177948 164.23050903 65.177948 165.22050903 65.177948 166.24050903 C40.427948 166.24050903 15.677948 166.24050903 -9.822052 166.24050903 C-9.822052 153.70050903 -9.822052 141.16050903 -9.822052 128.24050903 C1.067948 128.24050903 11.957948 128.24050903 23.177948 128.24050903 C23.177948 128.57050903 23.177948 128.90050903 23.177948 129.24050903 C12.947948 129.24050903 2.717948 129.24050903 -7.822052 129.24050903 C-7.822052 131.22050903 -7.822052 133.20050903 -7.822052 135.24050903 C-7.162052 135.24050903 -6.502052 135.24050903 -5.822052 135.24050903 C-5.822052 134.25050903 -5.822052 133.26050903 -5.822052 132.24050903 C5.067948 132.24050903 15.957948 132.24050903 27.177948 132.24050903 C27.177948 101.88050903 27.177948 71.52050903 27.177948 40.24050903 C25.857948 40.24050903 24.537948 40.24050903 23.177948 40.24050903 C23.177948 46.84050903 23.177948 53.44050903 23.177948 60.24050903 C13.937948 60.24050903 4.697948 60.24050903 -4.822052 60.24050903 C-4.86396449 52.7195454 -4.9040377 45.1990034 -4.92555237 37.67802429 C-4.93612391 34.17585262 -4.95025622 30.67377738 -4.97293091 27.17166138 C-4.99877153 23.15553847 -5.00851666 19.13951807 -5.0173645 15.12332153 C-5.02768707 13.8649649 -5.03800964 12.60660828 -5.04864502 11.31011963 C-5.04879608 10.14906708 -5.04894714 8.98801453 -5.04910278 7.79177856 C-5.05354401 6.76585602 -5.05798523 5.73993347 -5.06256104 4.68292236 C-4.69936175 0.99456704 -3.62913829 0.30929286 0 0 Z " fill="#8D8D8D" transform="translate(51.822052001953125,108.75949096679688)"/>
<path d="M0 0 C24.09 0 48.18 0 73 0 C73 0.66 73 1.32 73 2 C73.66 2 74.32 2 75 2 C75 12.23 75 22.46 75 33 C97.11 33 119.22 33 142 33 C142 32.34 142 31.68 142 31 C142.66 31 143.32 31 144 31 C144 32.32 144 33.64 144 35 C120.24 35 96.48 35 72 35 C71.67 24.77 71.34 14.54 71 4 C49.22 4 27.44 4 5 4 C5 14.23 5 24.46 5 35 C2.07917545 36.46041228 -0.48301369 36.11928796 -3.74462891 36.11352539 C-4.78382225 36.11374443 -4.78382225 36.11374443 -5.8440094 36.1139679 C-8.13822541 36.11327018 -10.43236064 36.10548442 -12.7265625 36.09765625 C-14.31554113 36.09579157 -15.90452034 36.0943679 -17.49349976 36.09336853 C-21.67909325 36.08954731 -25.86465213 36.07972039 -30.05023193 36.06866455 C-34.31994153 36.05844194 -38.5896567 36.05386909 -42.859375 36.04882812 C-51.23959923 36.03809778 -59.61979531 36.02102608 -68 36 C-68 34.35 -68 32.7 -68 31 C-66.68 31 -65.36 31 -64 31 C-64 31.66 -64 32.32 -64 33 C-42.88 33 -21.76 33 0 33 C0 22.11 0 11.22 0 0 Z " fill="#404040" transform="translate(112,237)"/>
<path d="M0 0 C36.3 0 72.6 0 110 0 C110 17.49 110 34.98 110 53 C108.68 53 107.36 53 106 53 C106 37.16 106 21.32 106 5 C71.68 5 37.36 5 2 5 C2 20.84 2 36.68 2 53 C1.34 53 0.68 53 0 53 C0 35.51 0 18.02 0 0 Z " fill="#3D3D3D" transform="translate(95,23)"/>
<path d="M0 0 C2.97 0 5.94 0 9 0 C9 1.32 9 2.64 9 4 C9.66 4 10.32 4 11 4 C11 4.66 11 5.32 11 6 C11.66 6 12.32 6 13 6 C13 6.66 13 7.32 13 8 C13.99 8.33 14.98 8.66 16 9 C16.495 11.97 16.495 11.97 17 15 C16.34 15 15.68 15 15 15 C15 15.66 15 16.32 15 17 C14.34 17 13.68 17 13 17 C13 17.66 13 18.32 13 19 C12.34 19 11.68 19 11 19 C11 22.63 11 26.26 11 30 C8.11584117 31.44207941 5.58278472 31.09394887 2.375 31.0625 C1.18648437 31.05347656 -0.00203125 31.04445312 -1.2265625 31.03515625 C-2.14179688 31.02355469 -3.05703125 31.01195312 -4 31 C-4 31.66 -4 32.32 -4 33 C-4.66 33 -5.32 33 -6 33 C-6 33.66 -6 34.32 -6 35 C-9.3 35 -12.6 35 -16 35 C-17.26264601 30.70700357 -16.62950412 28.12168689 -15 24 C-14.34 24 -13.68 24 -13 24 C-13 18.72 -13 13.44 -13 8 C-12.34 8 -11.68 8 -11 8 C-11 7.34 -11 6.68 -11 6 C-8.69 6 -6.38 6 -4 6 C-4 5.34 -4 4.68 -4 4 C-3.34 4 -2.68 4 -2 4 C-2 3.34 -2 2.68 -2 2 C-1.34 2 -0.68 2 0 2 C0 1.34 0 0.68 0 0 Z " fill="#353535" transform="translate(150,147)"/>
<path d="M0 0 C24.09 0 48.18 0 73 0 C73 23.1 73 46.2 73 70 C61.45 70 49.9 70 38 70 C38 91.12 38 112.24 38 134 C37.34 134 36.68 134 36 134 C36 104.3 36 74.6 36 44 C36.33 44 36.66 44 37 44 C37 51.26 37 58.52 37 66 C47.56 66 58.12 66 69 66 C69 45.54 69 25.08 69 4 C68.34 4 67.68 4 67 4 C67 3.34 67 2.68 67 2 C44.89 2 22.78 2 0 2 C0 1.34 0 0.68 0 0 Z " fill="#4B4B4B" transform="translate(185,105)"/>
<path d="M0 0 C6.27 0 12.54 0 19 0 C20.92572521 3.85145043 20.04883218 8.80043252 20 13 C23.96 13 27.92 13 32 13 C31.9690625 10.339375 31.9690625 10.339375 31.9375 7.625 C31.875 2.25 31.875 2.25 33 0 C34.32 0 35.64 0 37 0 C37 0.66 37 1.32 37 2 C41.29 2 45.58 2 50 2 C50 5.63 50 9.26 50 13 C44.39 13 38.78 13 33 13 C33 15.31 33 17.62 33 20 C32.01 20 31.02 20 30 20 C30 20.66 30 21.32 30 22 C26.37 22 22.74 22 19 22 C19 19.03 19 16.06 19 13 C13.39 13 7.78 13 2 13 C2 12.34 2 11.68 2 11 C1.34 11 0.68 11 0 11 C0 7.37 0 3.74 0 0 Z " fill="#888888" transform="translate(124,65)"/>
<path d="M0 0 C1.80535721 0.00666183 1.80535721 0.00666183 3.64718628 0.01345825 C4.31072113 0.0131662 4.97425598 0.01287415 5.65789795 0.01257324 C7.85481772 0.01396847 10.05139985 0.02953836 12.2482605 0.04519653 C13.76997696 0.04892599 15.29169581 0.05177328 16.81341553 0.05377197 C20.82150891 0.0614138 24.8294577 0.0810669 28.8374939 0.10317993 C32.92621911 0.12362659 37.01496766 0.13277116 41.10372925 0.14285278 C49.12853524 0.16431236 57.15322364 0.19845483 65.177948 0.24050903 C65.177948 0.90050903 65.177948 1.56050903 65.177948 2.24050903 C42.737948 2.57050903 20.297948 2.90050903 -2.822052 3.24050903 C-3.152052 21.72050903 -3.482052 40.20050903 -3.822052 59.24050903 C4.097948 59.24050903 12.017948 59.24050903 20.177948 59.24050903 C20.507948 52.31050903 20.837948 45.38050903 21.177948 38.24050903 C21.837948 38.24050903 22.497948 38.24050903 23.177948 38.24050903 C23.177948 37.25050903 23.177948 36.26050903 23.177948 35.24050903 C25.552948 35.05300903 25.552948 35.05300903 28.177948 35.24050903 C30.83439292 39.22517642 30.44288391 42.67828985 30.40499878 47.30178833 C30.40529083 48.22881561 30.40558289 49.1558429 30.40588379 50.11096191 C30.40448904 53.17897867 30.38892093 56.24675339 30.3732605 59.31472778 C30.36953089 61.44036222 30.36668367 63.56599837 30.36468506 65.69163513 C30.35704454 71.28943621 30.3373924 76.88713369 30.3152771 82.4848938 C30.29482773 88.19573566 30.28568528 93.90659424 30.27560425 99.61746216 C30.25414695 110.82518999 30.2200059 122.0328409 30.177948 133.24050903 C29.187948 133.24050903 28.197948 133.24050903 27.177948 133.24050903 C27.177948 102.55050903 27.177948 71.86050903 27.177948 40.24050903 C25.857948 40.24050903 24.537948 40.24050903 23.177948 40.24050903 C23.177948 46.84050903 23.177948 53.44050903 23.177948 60.24050903 C13.937948 60.24050903 4.697948 60.24050903 -4.822052 60.24050903 C-4.86396449 52.7195454 -4.9040377 45.1990034 -4.92555237 37.67802429 C-4.93612391 34.17585262 -4.95025622 30.67377738 -4.97293091 27.17166138 C-4.99877153 23.15553847 -5.00851666 19.13951807 -5.0173645 15.12332153 C-5.02768707 13.8649649 -5.03800964 12.60660828 -5.04864502 11.31011963 C-5.04879608 10.14906708 -5.04894714 8.98801453 -5.04910278 7.79177856 C-5.05354401 6.76585602 -5.05798523 5.73993347 -5.06256104 4.68292236 C-4.69936175 0.99456704 -3.62913829 0.30929286 0 0 Z " fill="#B0B0B0" transform="translate(51.822052001953125,108.75949096679688)"/>
<path d="M0 0 C1.32 0 2.64 0 4 0 C4 30.36 4 60.72 4 92 C-6.89 92 -17.78 92 -29 92 C-29 92.99 -29 93.98 -29 95 C-29.66 95 -30.32 95 -31 95 C-31 93.02 -31 91.04 -31 89 C-20.77 89 -10.54 89 0 89 C0 67.55 0 46.1 0 24 C-10.23 24 -20.46 24 -31 24 C-31 22.68 -31 21.36 -31 20 C-30.34 20 -29.68 20 -29 20 C-29 20.66 -29 21.32 -29 22 C-19.43 22 -9.86 22 0 22 C0 14.74 0 7.48 0 0 Z " fill="#474747" transform="translate(75,149)"/>
<path d="M0 0 C0.99 0 1.98 0 3 0 C3 0.66 3 1.32 3 2 C2.01 2 1.02 2 0 2 C-0.33 33.02 -0.66 64.04 -1 96 C10.55 96 22.1 96 34 96 C34 105.57 34 115.14 34 125 C11.89 125 -10.22 125 -33 125 C-33 114.77 -33 104.54 -33 94 C-33.66 94 -34.32 94 -35 94 C-35 93.34 -35 92.68 -35 92 C-34.01 92 -33.02 92 -32 92 C-32 102.23 -32 112.46 -32 123 C-11.21 123 9.58 123 31 123 C31 115.08 31 107.16 31 99 C20.77 99 10.54 99 0 99 C0 98.34 0 97.68 0 97 C-0.66 97 -1.32 97 -2 97 C-2.04626496 84.64809568 -2.08183941 72.29621186 -2.10362434 59.94423866 C-2.11407805 54.209214 -2.12826612 48.47424845 -2.15087891 42.73925781 C-2.1725508 37.20851431 -2.18455666 31.67782781 -2.18975449 26.14704514 C-2.19346043 24.03304522 -2.20069682 21.91904855 -2.21146011 19.80507278 C-2.22589992 16.85256365 -2.2279811 13.90029245 -2.22705078 10.94775391 C-2.23424133 10.0666243 -2.24143188 9.18549469 -2.24884033 8.27766418 C-2.22810432 2.22810432 -2.22810432 2.22810432 0 0 Z " fill="#939393" transform="translate(220,145)"/>
<path d="M0 0 C34.32 0 68.64 0 104 0 C104 14.52 104 29.04 104 44 C103.67 44 103.34 44 103 44 C103 30.14 103 16.28 103 2 C70 2 37 2 3 2 C3.33 15.53 3.66 29.06 4 43 C6.97 43 9.94 43 13 43 C13 33.76 13 24.52 13 15 C13.66 15 14.32 15 15 15 C15 24.57 15 34.14 15 44 C10.05 44 5.1 44 0 44 C0 29.48 0 14.96 0 0 Z " fill="#C2C2C2" transform="translate(97,28)"/>
<path d="M0 0 C0.66 0 1.32 0 2 0 C2 18.15 2 36.3 2 55 C-1.06381594 56.53190797 -4.26965866 56.10243613 -7.625 56.0625 C-10.05875 56.041875 -12.4925 56.02125 -15 56 C-15 63.59 -15 71.18 -15 79 C7.44 79 29.88 79 53 79 C53 79.99 53 80.98 53 82 C29.9 82 6.8 82 -17 82 C-18.3308911 79.33821779 -18.11268993 77.31260604 -18.09765625 74.3359375 C-18.09443359 73.21445313 -18.09121094 72.09296875 -18.08789062 70.9375 C-18.07951172 69.761875 -18.07113281 68.58625 -18.0625 67.375 C-18.05798828 66.19164063 -18.05347656 65.00828125 -18.04882812 63.7890625 C-18.03701478 60.85935361 -18.0190789 57.92967059 -18 55 C-12.72 55 -7.44 55 -2 55 C-2 54.34 -2 53.68 -2 53 C-1.34 53 -0.68 53 0 53 C0 35.51 0 18.02 0 0 Z " fill="#B6B6B6" transform="translate(205,23)"/>
<path d="M0 0 C23.43 0 46.86 0 71 0 C71 20.46 71 40.92 71 62 C61.43 62 51.86 62 42 62 C42 61.34 42 60.68 42 60 C41.34 60 40.68 60 40 60 C40 52.74 40 45.48 40 38 C40.66 38 41.32 38 42 38 C42 44.93 42 51.86 42 59 C50.91 59 59.82 59 69 59 C69 40.19 69 21.38 69 2 C46.23 2 23.46 2 0 2 C0 1.34 0 0.68 0 0 Z " fill="#BBBBBB" transform="translate(183,109)"/>
<path d="M0 0 C0.33 0 0.66 0 1 0 C1 19.8 1 39.6 1 60 C-6.34572266 60.09087891 -6.34572266 60.09087891 -13.83984375 60.18359375 C-16.93425403 60.22406797 -20.02865506 60.26483087 -23.12304688 60.30664062 C-28.03927548 60.37303833 -32.95550217 60.43834147 -37.87182617 60.49731445 C-41.83353126 60.54490313 -45.79514718 60.59724367 -49.75674629 60.65294075 C-51.27145747 60.67338931 -52.78619312 60.69209817 -54.30094719 60.70907402 C-56.41548426 60.73306299 -58.52985135 60.7631245 -60.64428711 60.79467773 C-61.85007919 60.81022202 -63.05587128 60.8257663 -64.29820251 60.84178162 C-66.91634376 60.69482383 -66.91634376 60.69482383 -68 62 C-68.12330088 63.8096774 -68.17790183 65.62407837 -68.20532227 67.43774414 C-68.22526749 68.59887222 -68.24521271 69.76000031 -68.26576233 70.95631409 C-68.28247482 72.219832 -68.29918732 73.48334991 -68.31640625 74.78515625 C-68.3475779 76.71408974 -68.3475779 76.71408974 -68.37937927 78.68199158 C-68.43466176 82.10635904 -68.48404361 85.5307875 -68.53222656 88.95526123 C-68.58239665 92.44744304 -68.63805236 95.93953702 -68.69335938 99.43164062 C-68.80153764 106.28769359 -68.90051197 113.14379328 -69 120 C-59.76 120 -50.52 120 -41 120 C-41 120.66 -41 121.32 -41 122 C-50.57 122 -60.14 122 -70 122 C-70.02095462 113.95808298 -70.04099182 105.91626451 -70.05175018 97.87434387 C-70.0570364 94.12959631 -70.06410353 90.38487128 -70.07543945 86.64013672 C-70.0862845 83.03510184 -70.09228028 79.43008884 -70.09487724 75.82503891 C-70.09672857 74.44789154 -70.1003436 73.07074541 -70.10573006 71.69360733 C-70.11296181 69.76856906 -70.11340824 67.84350888 -70.11352539 65.91845703 C-70.115746 64.82147491 -70.11796661 63.7244928 -70.12025452 62.5942688 C-70 60 -70 60 -69 58 C-46.23 58 -23.46 58 0 58 C0 38.86 0 19.72 0 0 Z " fill="#7C7C7C" transform="translate(116,49)"/>
<path d="M0 0 C21.78 0 43.56 0 66 0 C69.26938662 9.80815987 67 20.66129172 67 31 C91.42 31 115.84 31 141 31 C141 31.66 141 32.32 141 33 C116.25 33 91.5 33 66 33 C66 32.34 66 31.68 66 31 C65.34 31 64.68 31 64 31 C64 21.1 64 11.2 64 1 C42.88 1 21.76 1 0 1 C0 0.67 0 0.34 0 0 Z " fill="#707070" transform="translate(117,241)"/>
<path d="M0 0 C24.09 0 48.18 0 73 0 C73 0.66 73 1.32 73 2 C73.66 2 74.32 2 75 2 C75 11.57 75 21.14 75 31 C74.34 31 73.68 31 73 31 C73 21.76 73 12.52 73 3 C66.71195313 3.01740234 66.71195313 3.01740234 60.296875 3.03515625 C56.9223941 3.04160197 53.54791497 3.04701955 50.1734314 3.05175018 C46.6289544 3.05699751 43.08450192 3.06399173 39.54003906 3.07543945 C35.45898217 3.08853548 31.37795062 3.09326427 27.296875 3.09765625 C26.04638367 3.10281754 24.79589233 3.10797882 23.50750732 3.11329651 C21.70699921 3.11340981 21.70699921 3.11340981 19.87011719 3.11352539 C18.31124786 3.11685631 18.31124786 3.11685631 16.72088623 3.12025452 C11.47004451 2.9505537 6.23543612 2.43628634 1 2 C1 11.57 1 21.14 1 31 C0.67 31 0.34 31 0 31 C0 20.77 0 10.54 0 0 Z " fill="#5A5A5A" transform="translate(112,237)"/>
<path d="M0 0 C6.27 0 12.54 0 19 0 C20.11823815 2.23647631 20.19396061 3.64891529 20.31640625 6.1328125 C20.35830078 6.93847656 20.40019531 7.74414062 20.44335938 8.57421875 C20.48267578 9.41597656 20.52199219 10.25773437 20.5625 11.125 C20.60568359 11.97449219 20.64886719 12.82398437 20.69335938 13.69921875 C20.79954236 15.79928223 20.90028497 17.89961948 21 20 C23.97 20 26.94 20 30 20 C30 20.66 30 21.32 30 22 C26.37 22 22.74 22 19 22 C19 19.03 19 16.06 19 13 C13.39 13 7.78 13 2 13 C2 12.34 2 11.68 2 11 C1.34 11 0.68 11 0 11 C0 7.37 0 3.74 0 0 Z " fill="#969696" transform="translate(124,65)"/>
<path d="M0 0 C1.98 0 3.96 0 6 0 C6 0.66 6 1.32 6 2 C8.475 2.495 8.475 2.495 11 3 C11 4.98 11 6.96 11 9 C9.35 9 7.7 9 6 9 C5.67 11.97 5.34 14.94 5 18 C2.03 18 -0.94 18 -4 18 C-4 18.66 -4 19.32 -4 20 C-4.99 20 -5.98 20 -7 20 C-7 20.66 -7 21.32 -7 22 C-7.66 22 -8.32 22 -9 22 C-9 22.99 -9 23.98 -9 25 C-10.32 25 -11.64 25 -13 25 C-13 24.01 -13 23.02 -13 22 C-12.34 22 -11.68 22 -11 22 C-11 20.68 -11 19.36 -11 18 C-9.68 18 -8.36 18 -7 18 C-7 15.69 -7 13.38 -7 11 C-7.66 11 -8.32 11 -9 11 C-9 9.68 -9 8.36 -9 7 C-8.34 7 -7.68 7 -7 7 C-7 6.34 -7 5.68 -7 5 C-5.35 5 -3.7 5 -2 5 C-2 4.34 -2 3.68 -2 3 C-1.34 3 -0.68 3 0 3 C0 2.01 0 1.02 0 0 Z " fill="#E6E6E6" transform="translate(150,153)"/>
<path d="M0 0 C1.18613892 0.00785522 1.18613892 0.00785522 2.39624023 0.01586914 C3.67724609 0.02070312 3.67724609 0.02070312 4.98413086 0.02563477 C5.88196289 0.03401367 6.77979492 0.04239258 7.70483398 0.05102539 C8.6065332 0.05553711 9.50823242 0.06004883 10.43725586 0.06469727 C12.67230988 0.07652295 14.90733 0.09445901 17.14233398 0.11352539 C17.14233398 3.08352539 17.14233398 6.05352539 17.14233398 9.11352539 C18.13233398 9.11352539 19.12233398 9.11352539 20.14233398 9.11352539 C20.16929764 10.90511028 20.18871315 12.69681013 20.20483398 14.48852539 C20.21643555 15.48625977 20.22803711 16.48399414 20.23999023 17.51196289 C20.14233398 20.11352539 20.14233398 20.11352539 19.14233398 22.11352539 C18.48233398 22.11352539 17.82233398 22.11352539 17.14233398 22.11352539 C17.14233398 18.48352539 17.14233398 14.85352539 17.14233398 11.11352539 C12.85233398 11.11352539 8.56233398 11.11352539 4.14233398 11.11352539 C4.14233398 10.45352539 4.14233398 9.79352539 4.14233398 9.11352539 C2.82233398 9.11352539 1.50233398 9.11352539 0.14233398 9.11352539 C-0.18766602 13.40352539 -0.51766602 17.69352539 -0.85766602 22.11352539 C-2.17766602 22.11352539 -3.49766602 22.11352539 -4.85766602 22.11352539 C-4.85766602 21.45352539 -4.85766602 20.79352539 -4.85766602 20.11352539 C-4.19766602 20.11352539 -3.53766602 20.11352539 -2.85766602 20.11352539 C-2.85766602 16.48352539 -2.85766602 12.85352539 -2.85766602 9.11352539 C-2.19766602 9.11352539 -1.53766602 9.11352539 -0.85766602 9.11352539 C-0.85766602 8.45352539 -0.85766602 7.79352539 -0.85766602 7.11352539 C-1.51766602 7.11352539 -2.17766602 7.11352539 -2.85766602 7.11352539 C-2.90020958 5.11397793 -2.89847384 3.11310903 -2.85766602 1.11352539 C-1.85766602 0.11352539 -1.85766602 0.11352539 0 0 Z " fill="#E2E2E2" transform="translate(156.857666015625,55.886474609375)"/>
<path d="M0 0 C1.80535721 0.00666183 1.80535721 0.00666183 3.64718628 0.01345825 C4.31072113 0.0131662 4.97425598 0.01287415 5.65789795 0.01257324 C7.85481772 0.01396847 10.05139985 0.02953836 12.2482605 0.04519653 C13.76997696 0.04892599 15.29169581 0.05177328 16.81341553 0.05377197 C20.82150891 0.0614138 24.8294577 0.0810669 28.8374939 0.10317993 C32.92621911 0.12362659 37.01496766 0.13277116 41.10372925 0.14285278 C49.12853524 0.16431236 57.15322364 0.19845483 65.177948 0.24050903 C65.177948 0.90050903 65.177948 1.56050903 65.177948 2.24050903 C42.737948 2.57050903 20.297948 2.90050903 -2.822052 3.24050903 C-3.152052 21.72050903 -3.482052 40.20050903 -3.822052 59.24050903 C4.097948 59.24050903 12.017948 59.24050903 20.177948 59.24050903 C20.507948 52.31050903 20.837948 45.38050903 21.177948 38.24050903 C21.837948 38.24050903 22.497948 38.24050903 23.177948 38.24050903 C23.177948 45.50050903 23.177948 52.76050903 23.177948 60.24050903 C13.937948 60.24050903 4.697948 60.24050903 -4.822052 60.24050903 C-4.86396449 52.7195454 -4.9040377 45.1990034 -4.92555237 37.67802429 C-4.93612391 34.17585262 -4.95025622 30.67377738 -4.97293091 27.17166138 C-4.99877153 23.15553847 -5.00851666 19.13951807 -5.0173645 15.12332153 C-5.02768707 13.8649649 -5.03800964 12.60660828 -5.04864502 11.31011963 C-5.04879608 10.14906708 -5.04894714 8.98801453 -5.04910278 7.79177856 C-5.05354401 6.76585602 -5.05798523 5.73993347 -5.06256104 4.68292236 C-4.69936175 0.99456704 -3.62913829 0.30929286 0 0 Z " fill="#CCCCCC" transform="translate(51.822052001953125,108.75949096679688)"/>
<path d="M0 0 C0.66 0 1.32 0 2 0 C2 17.49 2 34.98 2 53 C2.66 53 3.32 53 4 53 C4 51.68 4 50.36 4 49 C8.95 49 13.9 49 19 49 C19 39.43 19 29.86 19 20 C19.33 20 19.66 20 20 20 C20 39.8 20 59.6 20 80 C19.67 80 19.34 80 19 80 C19 71.75 19 63.5 19 55 C12.73 55 6.46 55 0 55 C0 36.85 0 18.7 0 0 Z " fill="#727272" transform="translate(93,23)"/>
<path d="M0 0 C21.78 0 43.56 0 66 0 C66 20.46 66 40.92 66 62 C65.34 62 64.68 62 64 62 C64 42.2 64 22.4 64 2 C42.88 2 21.76 2 0 2 C0 1.34 0 0.68 0 0 Z " fill="#939393" transform="translate(117,45)"/>
<path d="M0 0 C0.33 0 0.66 0 1 0 C1 7.26 1 14.52 1 22 C11.56 22 22.12 22 33 22 C33 21.34 33 20.68 33 20 C33.66 20 34.32 20 35 20 C35 21.32 35 22.64 35 24 C24.77 24 14.54 24 4 24 C4 24.66 4 25.32 4 26 C3.34 26 2.68 26 2 26 C2 47.12 2 68.24 2 90 C1.34 90 0.68 90 0 90 C0 60.3 0 30.6 0 0 Z " fill="#202020" transform="translate(221,149)"/>
<path d="M0 0 C0.99 0 1.98 0 3 0 C3 0.66 3 1.32 3 2 C2.01 2 1.02 2 0 2 C-0.33 33.02 -0.66 64.04 -1 96 C10.22 96.33 21.44 96.66 33 97 C33 105.58 33 114.16 33 123 C32.34 123 31.68 123 31 123 C31 115.08 31 107.16 31 99 C20.77 99 10.54 99 0 99 C0 98.34 0 97.68 0 97 C-0.66 97 -1.32 97 -2 97 C-2.04626496 84.64809568 -2.08183941 72.29621186 -2.10362434 59.94423866 C-2.11407805 54.209214 -2.12826612 48.47424845 -2.15087891 42.73925781 C-2.1725508 37.20851431 -2.18455666 31.67782781 -2.18975449 26.14704514 C-2.19346043 24.03304522 -2.20069682 21.91904855 -2.21146011 19.80507278 C-2.22589992 16.85256365 -2.2279811 13.90029245 -2.22705078 10.94775391 C-2.23424133 10.0666243 -2.24143188 9.18549469 -2.24884033 8.27766418 C-2.22810432 2.22810432 -2.22810432 2.22810432 0 0 Z " fill="#BBBBBB" transform="translate(220,145)"/>
<path d="M0 0 C10.89 0 21.78 0 33 0 C33 20.46 33 40.92 33 62 C22.77 62 12.54 62 2 62 C2 61.34 2 60.68 2 60 C11.57 60 21.14 60 31 60 C31 40.53 31 21.06 31 1 C20.77 1 10.54 1 0 1 C0 0.67 0 0.34 0 0 Z " fill="#E0E0E0" transform="translate(42,175)"/>
<path d="M0 0 C12.54 0 25.08 0 38 0 C38 1.65 38 3.3 38 5 C25.46 5 12.92 5 0 5 C0 3.35 0 1.7 0 0 Z " fill="#535353" transform="translate(132,91)"/>
<path d="M0 0 C1.32 0 2.64 0 4 0 C4 8.58 4 17.16 4 26 C2.68 26.33 1.36 26.66 0 27 C0 26.01 0 25.02 0 24 C-10.23 24 -20.46 24 -31 24 C-31 22.68 -31 21.36 -31 20 C-30.34 20 -29.68 20 -29 20 C-29 20.66 -29 21.32 -29 22 C-19.43 22 -9.86 22 0 22 C0 14.74 0 7.48 0 0 Z " fill="#434343" transform="translate(75,149)"/>
<path d="M0 0 C23.43 0 46.86 0 71 0 C71 1.98 71 3.96 71 6 C70.34 6 69.68 6 69 6 C69 5.34 69 4.68 69 4 C68.34 4 67.68 4 67 4 C67 3.34 67 2.68 67 2 C44.89 2 22.78 2 0 2 C0 1.34 0 0.68 0 0 Z " fill="#313131" transform="translate(185,105)"/>
<path d="M0 0 C1.32 0 2.64 0 4 0 C4 0.66 4 1.32 4 2 C25.78 2 47.56 2 70 2 C70 2.66 70 3.32 70 4 C46.9 4 23.8 4 0 4 C0 2.68 0 1.36 0 0 Z " fill="#212121" transform="translate(44,268)"/>
<path d="M0 0 C0.66 0 1.32 0 2 0 C2 1.32 2 2.64 2 4 C-21.43 4 -44.86 4 -69 4 C-69 3.34 -69 2.68 -69 2 C-46.23 2 -23.46 2 0 2 C0 1.34 0 0.68 0 0 Z " fill="#202020" transform="translate(254,268)"/>
<path d="M0 0 C23.1 0 46.2 0 70 0 C70 1.32 70 2.64 70 4 C69.34 4 68.68 4 68 4 C68 3.34 68 2.68 68 2 C45.56 2 23.12 2 0 2 C0 1.34 0 0.68 0 0 Z " fill="#151515" transform="translate(115,43)"/>
<path d="M0 0 C1.98 0 3.96 0 6 0 C6 0.66 6 1.32 6 2 C5.34 2 4.68 2 4 2 C4 2.66 4 3.32 4 4 C3.34 4 2.68 4 2 4 C2 5.32 2 6.64 2 8 C2.66 8 3.32 8 4 8 C4 10.31 4 12.62 4 15 C2.68 15 1.36 15 0 15 C0 16.32 0 17.64 0 19 C-0.66 19 -1.32 19 -2 19 C-2 19.99 -2 20.98 -2 22 C-0.02 21.67 1.96 21.34 4 21 C4 21.99 4 22.98 4 24 C3.34 24 2.68 24 2 24 C2 24.66 2 25.32 2 26 C-0.31 26 -2.62 26 -5 26 C-6.26264601 21.70700357 -5.62950412 19.12168689 -4 15 C-3.34 15 -2.68 15 -2 15 C-2 10.71 -2 6.42 -2 2 C-1.34 2 -0.68 2 0 2 C0 1.34 0 0.68 0 0 Z " fill="#494949" transform="translate(139,156)"/>
<path d="M0 0 C2.97 0 5.94 0 9 0 C9 1.32 9 2.64 9 4 C9.66 4 10.32 4 11 4 C11 4.66 11 5.32 11 6 C11.66 6 12.32 6 13 6 C13.33 8.64 13.66 11.28 14 14 C13.67 13.01 13.34 12.02 13 11 C12.34 11 11.68 11 11 11 C11 10.34 11 9.68 11 9 C8.525 8.505 8.525 8.505 6 8 C6 7.34 6 6.68 6 6 C4.02 6 2.04 6 0 6 C0 6.99 0 7.98 0 9 C-0.66 9 -1.32 9 -2 9 C-2 9.66 -2 10.32 -2 11 C-2.99 11 -3.98 11 -5 11 C-5 10.34 -5 9.68 -5 9 C-6.98 9 -8.96 9 -11 9 C-11 9.66 -11 10.32 -11 11 C-11.66 11 -12.32 11 -13 11 C-13 10.01 -13 9.02 -13 8 C-12.34 8 -11.68 8 -11 8 C-11 7.34 -11 6.68 -11 6 C-8.69 6 -6.38 6 -4 6 C-4 5.34 -4 4.68 -4 4 C-3.34 4 -2.68 4 -2 4 C-2 3.34 -2 2.68 -2 2 C-1.34 2 -0.68 2 0 2 C0 1.34 0 0.68 0 0 Z " fill="#414141" transform="translate(150,147)"/>
<path d="M0 0 C3.63 0 7.26 0 11 0 C11 0.66 11 1.32 11 2 C11.66 2 12.32 2 13 2 C13 2.66 13 3.32 13 4 C13.66 4 14.32 4 15 4 C15 4.66 15 5.32 15 6 C16.32 6 17.64 6 19 6 C21.43425238 10.96993194 22.34615998 14.34605369 22 20 C20.35 20 18.7 20 17 20 C17 17.69 17 15.38 17 13 C16.34 13 15.68 13 15 13 C15 11.68 15 10.36 15 9 C13.68 8.67 12.36 8.34 11 8 C11 7.34 11 6.68 11 6 C10.01 6 9.02 6 8 6 C8 5.34 8 4.68 8 4 C5.36 4 2.72 4 0 4 C0 2.68 0 1.36 0 0 Z " fill="#464646" transform="translate(157,136)"/>
<path d="M0 0 C1.32 0 2.64 0 4 0 C4 2.97 4 5.94 4 9 C-1.61 9 -7.22 9 -13 9 C-13 6.69 -13 4.38 -13 2 C-9.87819599 1.03338637 -7.47916205 1.01011091 -4.25 1.4375 C-3.05117187 1.59025391 -3.05117187 1.59025391 -1.828125 1.74609375 C-1.22484375 1.82988281 -0.6215625 1.91367188 0 2 C0 1.34 0 0.68 0 0 Z " fill="#141414" transform="translate(170,67)"/>
<path d="M0 0 C1.65 0 3.3 0 5 0 C5 2.31 5 4.62 5 7 C5.66 7 6.32 7 7 7 C7 7.66 7 8.32 7 9 C7.66 9 8.32 9 9 9 C9 9.99 9 10.98 9 12 C11.31 12.66 13.62 13.32 16 14 C16 15.32 16 16.64 16 18 C13.69 18 11.38 18 9 18 C9 17.34 9 16.68 9 16 C7.68 16 6.36 16 5 16 C3.25 14.625 3.25 14.625 2 13 C2 12.34 2 11.68 2 11 C1.34 11 0.68 11 0 11 C0 7.37 0 3.74 0 0 Z " fill="#555555" transform="translate(119,175)"/>
<path d="M0 0 C0.66 0 1.32 0 2 0 C2 0.66 2 1.32 2 2 C2.66 2 3.32 2 4 2 C3.67 22.46 3.34 42.92 3 64 C2.67 64 2.34 64 2 64 C2 52.45 2 40.9 2 29 C1.34 29 0.68 29 0 29 C0 19.43 0 9.86 0 0 Z " fill="#393939" transform="translate(113,43)"/>
<path d="M0 0 C5.61 0 11.22 0 17 0 C17 2.31 17 4.62 17 7 C11.39 7 5.78 7 0 7 C0 4.69 0 2.38 0 0 Z " fill="#797979" transform="translate(126,56)"/>
<path d="M0 0 C0.99 0 1.98 0 3 0 C3 9.57 3 19.14 3 29 C7.29 29 11.58 29 16 29 C16 29.66 16 30.32 16 31 C10.72 31 5.44 31 0 31 C0 20.77 0 10.54 0 0 Z " fill="#757575" transform="translate(185,43)"/>
<path d="M0 0 C1.32 0 2.64 0 4 0 C4 0.66 4 1.32 4 2 C7.63 2 11.26 2 15 2 C15 4.31 15 6.62 15 9 C10.05 9 5.1 9 0 9 C0 6.03 0 3.06 0 0 Z " fill="#1D1D1D" transform="translate(126,67)"/>
<path d="M0 0 C0.99 0 1.98 0 3 0 C3 4.29 3 8.58 3 13 C2.34 13 1.68 13 1 13 C0.67 16.63 0.34 20.26 0 24 C1.65 24 3.3 24 5 24 C5 24.99 5 25.98 5 27 C3.68 27.33 2.36 27.66 1 28 C1.66 28.99 2.32 29.98 3 31 C3 32.32 3 33.64 3 35 C2.34 35 1.68 35 1 35 C1 33.68 1 32.36 1 31 C-0.175625 30.7834375 -0.175625 30.7834375 -1.375 30.5625 C-4 30 -4 30 -6 29 C-6 28.01 -6 27.02 -6 26 C-4.68 26 -3.36 26 -2 26 C-2 22.37 -2 18.74 -2 15 C-1.34 15 -0.68 15 0 15 C0 10.05 0 5.1 0 0 Z " fill="#BABABA" transform="translate(134,158)"/>
<path d="M0 0 C0.66 0 1.32 0 2 0 C2 10.23 2 20.46 2 31 C1.34 31 0.68 31 0 31 C0 29.68 0 28.36 0 27 C-0.66 27 -1.32 27 -2 27 C-2 19.08 -2 11.16 -2 3 C-1.34 3 -0.68 3 0 3 C0 2.01 0 1.02 0 0 Z " fill="#414141" transform="translate(256,241)"/>
<path d="M0 0 C12.54 0 25.08 0 38 0 C38 0.66 38 1.32 38 2 C26.12 2 14.24 2 2 2 C2 3.65 2 5.3 2 7 C1.34 7 0.68 7 0 7 C0 4.69 0 2.38 0 0 Z " fill="#BDBDBD" transform="translate(130,89)"/>
<path d="M0 0 C0.66 0 1.32 0 2 0 C2 0.66 2 1.32 2 2 C12.89 2 23.78 2 35 2 C34.67 3.65 34.34 5.3 34 7 C33.01 7 32.02 7 31 7 C31 6.01 31 5.02 31 4 C20.77 4 10.54 4 0 4 C0 2.68 0 1.36 0 0 Z " fill="#1E1E1E" transform="translate(44,169)"/>
<path d="M0 0 C1.05960938 0.00676758 1.05960938 0.00676758 2.140625 0.01367188 C3.88545275 0.02546125 5.630237 0.04339676 7.375 0.0625 C7.375 1.7125 7.375 3.3625 7.375 5.0625 C1.765 5.0625 -3.845 5.0625 -9.625 5.0625 C-9.625 3.7425 -9.625 2.4225 -9.625 1.0625 C-6.55966836 -0.47016582 -3.35745728 -0.04026471 0 0 Z " fill="#666666" transform="translate(166.625,57.9375)"/>
<path d="M0 0 C24.75 0 49.5 0 75 0 C75.495 1.485 75.495 1.485 76 3 C75.01 3 74.02 3 73 3 C73 2.34 73 1.68 73 1 C49.24 1 25.48 1 1 1 C0.67 1.66 0.34 2.32 0 3 C0 2.01 0 1.02 0 0 Z " fill="#D8D8D8" transform="translate(112,40)"/>
<path d="M0 0 C0.66 0 1.32 0 2 0 C2 7.26 2 14.52 2 22 C-6.58 22 -15.16 22 -24 22 C-24 21.67 -24 21.34 -24 21 C-16.41 21 -8.82 21 -1 21 C-0.67 14.07 -0.34 7.14 0 0 Z " fill="#E3E3E3" transform="translate(73,147)"/>
<path d="M0 0 C5.28 0 10.56 0 16 0 C16.125 10.75 16.125 10.75 15 13 C14.34 13 13.68 13 13 13 C13 9.37 13 5.74 13 2 C8.71 2 4.42 2 0 2 C0 1.34 0 0.68 0 0 Z " fill="#C1C1C1" transform="translate(161,65)"/>
<path d="M0 0 C10.89 0 21.78 0 33 0 C33 0.33 33 0.66 33 1 C32.09644775 1.02505615 31.19289551 1.0501123 30.26196289 1.07592773 C26.9203572 1.17087317 23.57893748 1.27011621 20.23754883 1.37231445 C18.7893576 1.4157163 17.34111346 1.45738744 15.89282227 1.49731445 C13.81510441 1.55489062 11.73765427 1.61862028 9.66015625 1.68359375 C8.40855713 1.72025146 7.15695801 1.75690918 5.86743164 1.79467773 C3.10369496 1.67803906 3.10369496 1.67803906 2 3 C1.84235595 4.77869726 1.74899323 6.56318476 1.68359375 8.34765625 C1.64169922 9.42724609 1.59980469 10.50683594 1.55664062 11.61914062 C1.51732422 12.75544922 1.47800781 13.89175781 1.4375 15.0625 C1.39431641 16.20267578 1.35113281 17.34285156 1.30664062 18.51757812 C1.20017161 21.34492195 1.09815793 24.17235738 1 27 C0.67 27 0.34 27 0 27 C0 18.09 0 9.18 0 0 Z " fill="#868686" transform="translate(46,241)"/>
<path d="M0 0 C0.91007813 0.00902344 1.82015625 0.01804687 2.7578125 0.02734375 C3.45648438 0.03894531 4.15515625 0.05054687 4.875 0.0625 C4.545 2.0425 4.215 4.0225 3.875 6.0625 C0.575 6.0625 -2.725 6.0625 -6.125 6.0625 C-6.455 4.4125 -6.785 2.7625 -7.125 1.0625 C-4.60024538 -0.19987731 -2.81299534 -0.03606404 0 0 Z " fill="#616161" transform="translate(151.125,78.9375)"/>
<path d="M0 0 C4.29 0 8.58 0 13 0 C13 0.66 13 1.32 13 2 C13.66 2 14.32 2 15 2 C15 2.66 15 3.32 15 4 C10.05 4 5.1 4 0 4 C0 2.68 0 1.36 0 0 Z " fill="#535353" transform="translate(188,74)"/>
<path d="M0 0 C6.27 0 12.54 0 19 0 C19 0.66 19 1.32 19 2 C13.39 2 7.78 2 2 2 C2 4.97 2 7.94 2 11 C1.34 11 0.68 11 0 11 C0 7.37 0 3.74 0 0 Z " fill="#AAAAAA" transform="translate(124,65)"/>
<path d="M0 0 C2.31 0 4.62 0 7 0 C7 0.99 7 1.98 7 3 C5.68 3.33 4.36 3.66 3 4 C3.99 5.485 3.99 5.485 5 7 C5 8.32 5 9.64 5 11 C4.34 11 3.68 11 3 11 C3 9.68 3 8.36 3 7 C1.824375 6.7834375 1.824375 6.7834375 0.625 6.5625 C-2 6 -2 6 -4 5 C-4 4.01 -4 3.02 -4 2 C-2.68 2 -1.36 2 0 2 C0 1.34 0 0.68 0 0 Z " fill="#D2D2D2" transform="translate(132,182)"/>
<path d="M0 0 C12.54 0 25.08 0 38 0 C38 1.65 38 3.3 38 5 C37.01 5 36.02 5 35 5 C35 3.68 35 2.36 35 1 C23.78 1 12.56 1 1 1 C0.67 2.32 0.34 3.64 0 5 C0 3.35 0 1.7 0 0 Z " fill="#868686" transform="translate(132,91)"/>
<path d="M0 0 C0 1.32 0 2.64 0 4 C-10.23 4 -20.46 4 -31 4 C-31 4.99 -31 5.98 -31 7 C-31.66 7 -32.32 7 -33 7 C-33 5.35 -33 3.7 -33 2 C-32.16750732 2.01047363 -31.33501465 2.02094727 -30.47729492 2.03173828 C-27.38550844 2.06584442 -24.29381792 2.09091076 -21.2019043 2.10986328 C-19.20680382 2.12485495 -17.21179054 2.15026731 -15.21679688 2.17578125 C-13.96318359 2.18222656 -12.70957031 2.18867188 -11.41796875 2.1953125 C-10.26063232 2.20578613 -9.1032959 2.21625977 -7.91088867 2.22705078 C-4.65178071 1.97283872 -3.12524804 0 0 0 Z " fill="#313131" transform="translate(77,237)"/>
<path d="M0 0 C1.32 0 2.64 0 4 0 C4 2.97 4 5.94 4 9 C3.34 9 2.68 9 2 9 C2 7.02 2 5.04 2 3 C-2.29 3 -6.58 3 -11 3 C-11 4.98 -11 6.96 -11 9 C-11.66 9 -12.32 9 -13 9 C-13 6.69 -13 4.38 -13 2 C-9.87819599 1.03338637 -7.47916205 1.01011091 -4.25 1.4375 C-3.05117187 1.59025391 -3.05117187 1.59025391 -1.828125 1.74609375 C-1.22484375 1.82988281 -0.6215625 1.91367188 0 2 C0 1.34 0 0.68 0 0 Z " fill="#3F3F3F" transform="translate(170,67)"/>
<path d="M0 0 C0.66 0 1.32 0 2 0 C2 3.3 2 6.6 2 10 C-0.88415883 11.44207941 -3.41721528 11.09394887 -6.625 11.0625 C-7.81351563 11.05347656 -9.00203125 11.04445312 -10.2265625 11.03515625 C-11.14179688 11.02355469 -12.05703125 11.01195312 -13 11 C-13 10.34 -13 9.68 -13 9 C-11.02 8.67 -9.04 8.34 -7 8 C-7 8.66 -7 9.32 -7 10 C-5.35 10 -3.7 10 -2 10 C-2 9.34 -2 8.68 -2 8 C-1.34 8 -0.68 8 0 8 C0 5.36 0 2.72 0 0 Z " fill="#989898" transform="translate(159,167)"/>
<path d="M0 0 C1.98 0 3.96 0 6 0 C6 0.66 6 1.32 6 2 C7.65 2.33 9.3 2.66 11 3 C11 4.98 11 6.96 11 9 C10.34 9 9.68 9 9 9 C9 7.35 9 5.7 9 4 C5.16774573 3.91087781 1.73437848 4.12132271 -2 5 C-2 4.34 -2 3.68 -2 3 C-1.34 3 -0.68 3 0 3 C0 2.01 0 1.02 0 0 Z " fill="#B9B9B9" transform="translate(150,153)"/>
<path d="M0 0 C0.66 0 1.32 0 2 0 C4.43425238 4.96993194 5.34615998 8.34605369 5 14 C3.35 14 1.7 14 0 14 C0 12.35 0 10.7 0 9 C0.66 9 1.32 9 2 9 C2 7.02 2 5.04 2 3 C1.34 3 0.68 3 0 3 C0 2.01 0 1.02 0 0 Z " fill="#757575" transform="translate(174,142)"/>
<path d="M0 0 C3.63 0 7.26 0 11 0 C11 1.32 11 2.64 11 4 C7.37 4 3.74 4 0 4 C0 2.68 0 1.36 0 0 Z " fill="#424242" transform="translate(157,136)"/>
<path d="M0 0 C5.61 0 11.22 0 17 0 C17 0.66 17 1.32 17 2 C12.05 2 7.1 2 2 2 C2 3.65 2 5.3 2 7 C1.34 7 0.68 7 0 7 C0 4.69 0 2.38 0 0 Z " fill="#E0E0E0" transform="translate(157,78)"/>
<path d="M0 0 C0.33 1.32 0.66 2.64 1 4 C4.465 3.505 4.465 3.505 8 3 C8 3.99 8 4.98 8 6 C7.34 6 6.68 6 6 6 C6 6.66 6 7.32 6 8 C3.69 8 1.38 8 -1 8 C-1.625 5.6875 -1.625 5.6875 -2 3 C-1.34 2.01 -0.68 1.02 0 0 Z " fill="#2D2D2D" transform="translate(135,174)"/>
<path d="M0 0 C5.61 0 11.22 0 17 0 C17 2.31 17 4.62 17 7 C16.34 7 15.68 7 15 7 C15 5.35 15 3.7 15 2 C14.08476562 2.02320312 13.16953125 2.04640625 12.2265625 2.0703125 C10.44378906 2.09738281 10.44378906 2.09738281 8.625 2.125 C6.84996094 2.15980469 6.84996094 2.15980469 5.0390625 2.1953125 C2 2 2 2 0 0 Z " fill="#DBDBDB" transform="translate(126,78)"/>
<path d="M0 0 C10.89 0 21.78 0 33 0 C33 1.32 33 2.64 33 4 C32.34 4 31.68 4 31 4 C31 3.34 31 2.68 31 2 C20.77 1.67 10.54 1.34 0 1 C0 0.67 0 0.34 0 0 Z " fill="#676767" transform="translate(225,237)"/>
<path d="M0 0 C1.65 0 3.3 0 5 0 C4.67 0.66 4.34 1.32 4 2 C3.34 1.67 2.68 1.34 2 1 C2.33 4.3 2.66 7.6 3 11 C3.66 11 4.32 11 5 11 C5 11.66 5 12.32 5 13 C5.66 13 6.32 13 7 13 C7 13.99 7 14.98 7 16 C5 16 5 16 3.375 14.625 C2 13 2 13 2 11 C1.34 11 0.68 11 0 11 C0 7.37 0 3.74 0 0 Z " fill="#878787" transform="translate(119,175)"/>
<path d="M0 0 C0.33 0 0.66 0 1 0 C1 2.31 1 4.62 1 7 C1.66 7 2.32 7 3 7 C3 7.66 3 8.32 3 9 C2.01 9 1.02 9 0 9 C0 9.66 0 10.32 0 11 C-0.66 11 -1.32 11 -2 11 C-2 11.99 -2 12.98 -2 14 C-3.32 14 -4.64 14 -6 14 C-6 13.01 -6 12.02 -6 11 C-5.34 11 -4.68 11 -4 11 C-4 9.68 -4 8.36 -4 7 C-2.68 7 -1.36 7 0 7 C0 4.69 0 2.38 0 0 Z " fill="#858585" transform="translate(143,164)"/>
<path d="M0 0 C4.29 0 8.58 0 13 0 C13 2.97 13 5.94 13 9 C12.34 9 11.68 9 11 9 C11 6.69 11 4.38 11 2 C7.37 2 3.74 2 0 2 C0 1.34 0 0.68 0 0 Z " fill="#5D5D5D" transform="translate(130,67)"/>
<path d="M0 0 C5.61 0 11.22 0 17 0 C17 0.66 17 1.32 17 2 C8.585 2.495 8.585 2.495 0 3 C-0.33 3.66 -0.66 4.32 -1 5 C-0.67 3.35 -0.34 1.7 0 0 Z " fill="#B0B0B0" transform="translate(157,56)"/>
<path d="M0 0 C0.99 0.33 1.98 0.66 3 1 C3 2.65 3 4.3 3 6 C3.66 6 4.32 6 5 6 C5 6.66 5 7.32 5 8 C5.66 8 6.32 8 7 8 C7 8.66 7 9.32 7 10 C5.02 10 3.04 10 1 10 C-0.60725635 6.78548731 -0.05748185 3.56387464 0 0 Z " fill="#444444" transform="translate(121,176)"/>
<path d="M0 0 C1.32 0 2.64 0 4 0 C5.23408207 2.46816414 5.20197579 4.24661201 5.25 7 C5.28867188 8.3303125 5.28867188 8.3303125 5.328125 9.6875 C5.21984375 10.450625 5.1115625 11.21375 5 12 C2 14 2 14 -0.1875 13.625 C-0.785625 13.41875 -1.38375 13.2125 -2 13 C-1.34 13 -0.68 13 0 13 C0 12.34 0 11.68 0 11 C0.66 11 1.32 11 2 11 C2 10.34 2 9.68 2 9 C2.66 9 3.32 9 4 9 C3.39816251 6.97954558 2.72693904 4.97888961 2 3 C1.34 2.67 0.68 2.34 0 2 C0 1.34 0 0.68 0 0 Z " fill="#C4C4C4" transform="translate(163,153)"/>
<path d="M0 0 C2.31 0 4.62 0 7 0 C7 0.66 7 1.32 7 2 C8.32 2.33 9.64 2.66 11 3 C10.34 3 9.68 3 9 3 C9 3.66 9 4.32 9 5 C8.01 5 7.02 5 6 5 C6 4.34 6 3.68 6 3 C4.02 3 2.04 3 0 3 C0 3.66 0 4.32 0 5 C-0.66 5 -1.32 5 -2 5 C-2 4.01 -2 3.02 -2 2 C-1.34 2 -0.68 2 0 2 C0 1.34 0 0.68 0 0 Z " fill="#767676" transform="translate(139,153)"/>
<path d="M0 0 C0.66 0 1.32 0 2 0 C2 0.66 2 1.32 2 2 C4.31 2 6.62 2 9 2 C8.67 3.32 8.34 4.64 8 6 C8 5.34 8 4.68 8 4 C6.02 4 4.04 4 2 4 C2 4.66 2 5.32 2 6 C0.68 6 -0.64 6 -2 6 C-2 4.68 -2 3.36 -2 2 C-1.34 2 -0.68 2 0 2 C0 1.34 0 0.68 0 0 Z " fill="#575757" transform="translate(148,149)"/>
<path d="M0 0 C3 1 3 1 5 3 C4.34 3 3.68 3 3 3 C3 4.32 3 5.64 3 7 C2.34 7 1.68 7 1 7 C1 7.66 1 8.32 1 9 C0.01 9 -0.98 9 -2 9 C-2 8.34 -2 7.68 -2 7 C-1.34 7 -0.68 7 0 7 C-0.66 6.34 -1.32 5.68 -2 5 C-2 4.01 -2 3.02 -2 2 C-1.34 2 -0.68 2 0 2 C0 1.34 0 0.68 0 0 Z " fill="#656565" transform="translate(143,173)"/>
<path d="M0 0 C0.33 0 0.66 0 1 0 C1.33 9.24 1.66 18.48 2 28 C1.67 27.34 1.34 26.68 1 26 C0.34 26 -0.32 26 -1 26 C-0.67 17.42 -0.34 8.84 0 0 Z " fill="#252525" transform="translate(113,244)"/>
<path d="M0 0 C1.98 0 3.96 0 6 0 C6 0.66 6 1.32 6 2 C5.34 2 4.68 2 4 2 C4 2.66 4 3.32 4 4 C2.68 4 1.36 4 0 4 C0 5.32 0 6.64 0 8 C-0.66 8 -1.32 8 -2 8 C-2 6.02 -2 4.04 -2 2 C-1.34 2 -0.68 2 0 2 C0 1.34 0 0.68 0 0 Z " fill="#292929" transform="translate(139,156)"/>
<path d="M0 0 C1.32 0 2.64 0 4 0 C4 0.66 4 1.32 4 2 C6.97 2 9.94 2 13 2 C13 2.66 13 3.32 13 4 C8.71 4 4.42 4 0 4 C0 2.68 0 1.36 0 0 Z " fill="#707070" transform="translate(157,65)"/>
<path d="M0 0 C0.99 0 1.98 0 3 0 C3 3.63 3 7.26 3 11 C3.66 11 4.32 11 5 11 C5 11.66 5 12.32 5 13 C3.68 13 2.36 13 1 13 C0.67 8.71 0.34 4.42 0 0 Z " fill="#DEDEDE" transform="translate(143,65)"/>
<path d="M0 0 C0.99 0.33 1.98 0.66 3 1 C3.33 2.98 3.66 4.96 4 7 C3.34 7 2.68 7 2 7 C2 7.66 2 8.32 2 9 C1.34 9 0.68 9 0 9 C0 8.34 0 7.68 0 7 C-0.66 7 -1.32 7 -2 7 C-2 5.68 -2 4.36 -2 3 C-1.34 3 -0.68 3 0 3 C0 2.01 0 1.02 0 0 Z " fill="#5B5B5B" transform="translate(163,155)"/>
<path d="M0 0 C0 1.65 0 3.3 0 5 C-2.97 5 -5.94 5 -9 5 C-9 4.34 -9 3.68 -9 3 C-2.25 0 -2.25 0 0 0 Z " fill="#0C0C0C" transform="translate(141,69)"/>
<path d="M0 0 C0.99 0 1.98 0 3 0 C3 0.66 3 1.32 3 2 C2.34 2 1.68 2 1 2 C1 4.97 1 7.94 1 11 C-0.65 11 -2.3 11 -4 11 C-4 10.34 -4 9.68 -4 9 C-3.01 9 -2.02 9 -1 9 C-1.020625 7.88625 -1.04125 6.7725 -1.0625 5.625 C-1 2 -1 2 0 0 Z " fill="#5F5F5F" transform="translate(156,162)"/>
<path d="M0 0 C0.66 0 1.32 0 2 0 C2 2.97 2 5.94 2 9 C-0.31 9 -2.62 9 -5 9 C-5 8.34 -5 7.68 -5 7 C-3.35 7 -1.7 7 0 7 C0 4.69 0 2.38 0 0 Z " fill="#C6C6C6" transform="translate(179,149)"/>
<path d="M0 0 C2.97 0 5.94 0 9 0 C9 0.99 9 1.98 9 3 C6.03 3 3.06 3 0 3 C0 2.01 0 1.02 0 0 Z " fill="#D8D8D8" transform="translate(150,144)"/>
<path d="M0 0 C3.63 0 7.26 0 11 0 C11 1.65 11 3.3 11 5 C10.34 5 9.68 5 9 5 C9 4.01 9 3.02 9 2 C7.329375 2.061875 7.329375 2.061875 5.625 2.125 C2 2 2 2 0 0 Z " fill="#333333" transform="translate(245,239)"/>
<path d="M0 0 C0.66 0 1.32 0 2 0 C2 0.66 2 1.32 2 2 C2.99 2 3.98 2 5 2 C5 3.32 5 4.64 5 6 C4.01 6 3.02 6 2 6 C1.67 6.66 1.34 7.32 1 8 C-0.35439668 5.29120665 -0.06501451 2.99066732 0 0 Z " fill="#292929" transform="translate(183,72)"/>
<path d="M0 0 C0.66 0 1.32 0 2 0 C2 3.63 2 7.26 2 11 C0.68 11 -0.64 11 -2 11 C-2 10.34 -2 9.68 -2 9 C-1.34 9 -0.68 9 0 9 C0 6.03 0 3.06 0 0 Z " fill="#CCCCCC" transform="translate(154,67)"/>
<path d="M0 0 C3.375 -0.1875 3.375 -0.1875 7 0 C9 3 9 3 9 7 C8.34 7 7.68 7 7 7 C7 5.68 7 4.36 7 3 C5.824375 2.814375 5.824375 2.814375 4.625 2.625 C2 2 2 2 0 0 Z " fill="#B4B4B4" transform="translate(128,186)"/>
<path d="M0 0 C2.64 0 5.28 0 8 0 C8 0.99 8 1.98 8 3 C5.36 3 2.72 3 0 3 C0 2.01 0 1.02 0 0 Z " fill="#353535" transform="translate(146,81)"/>
<path d="M0 0 C0.66 0 1.32 0 2 0 C2 0.66 2 1.32 2 2 C2.66 2 3.32 2 4 2 C4 2.66 4 3.32 4 4 C3.34 4 2.68 4 2 4 C2 4.66 2 5.32 2 6 C1.34 6 0.68 6 0 6 C0 5.34 0 4.68 0 4 C-0.99 4 -1.98 4 -3 4 C-3 3.34 -3 2.68 -3 2 C-2.01 2 -1.02 2 0 2 C0 1.34 0 0.68 0 0 Z " fill="#565656" transform="translate(168,138)"/>
<path d="M0 0 C2.97 0 5.94 0 9 0 C9 0.33 9 0.66 9 1 C7.02 1.33 5.04 1.66 3 2 C2.67 3.65 2.34 5.3 2 7 C1.34 7 0.68 7 0 7 C0 4.69 0 2.38 0 0 Z " fill="#D9D9D9" transform="translate(154,133)"/>
<path d="M0 0 C1.32 0 2.64 0 4 0 C4 0.66 4 1.32 4 2 C3.34 2 2.68 2 2 2 C2 4.31 2 6.62 2 9 C1.34 9 0.68 9 0 9 C0 6.03 0 3.06 0 0 Z " fill="#343434" transform="translate(126,67)"/>
<path d="M0 0 C1.32 0 2.64 0 4 0 C4.33 2.64 4.66 5.28 5 8 C4.67 7.01 4.34 6.02 4 5 C3.34 5 2.68 5 2 5 C2 4.34 2 3.68 2 3 C1.34 3 0.68 3 0 3 C0 2.01 0 1.02 0 0 Z " fill="#393939" transform="translate(159,153)"/>
<path d="M0 0 C0.99 0 1.98 0 3 0 C3 0.66 3 1.32 3 2 C4.32 2.33 5.64 2.66 7 3 C7 4.32 7 5.64 7 7 C6.34 7 5.68 7 5 7 C4.67 5.68 4.34 4.36 4 3 C2.68 2.67 1.36 2.34 0 2 C0 1.34 0 0.68 0 0 Z " fill="#C9C9C9" transform="translate(165,142)"/>
<path d="M0 0 C0.66 0 1.32 0 2 0 C2 2.31 2 4.62 2 7 C1.01 7 0.02 7 -1 7 C-1.04254356 5.00045254 -1.04080783 2.99958364 -1 1 C-0.67 0.67 -0.34 0.34 0 0 Z " fill="#E1E1E1" transform="translate(124,56)"/>
<path d="M0 0 C1.37432457 3.81756824 0.67975039 7.07255329 0 11 C-0.66 11 -1.32 11 -2 11 C-2 8.03 -2 5.06 -2 2 C-1.34 2 -0.68 2 0 2 C0 1.34 0 0.68 0 0 Z " fill="#838383" transform="translate(134,171)"/>
<path d="M0 0 C0.33 0.99 0.66 1.98 1 3 C0.34 3 -0.32 3 -1 3 C-1 3.66 -1 4.32 -1 5 C-1.66 5 -2.32 5 -3 5 C-3 4.34 -3 3.68 -3 3 C-3.66 3 -4.32 3 -5 3 C-5 2.34 -5 1.68 -5 1 C-3.35 0.67 -1.7 0.34 0 0 Z " fill="#3A3A3A" transform="translate(142,177)"/>
<path d="M0 0 C0.33 0 0.66 0 1 0 C1 2.31 1 4.62 1 7 C1.66 7 2.32 7 3 7 C3 7.66 3 8.32 3 9 C1.35 9 -0.3 9 -2 9 C-2 8.34 -2 7.68 -2 7 C-1.34 7 -0.68 7 0 7 C0 4.69 0 2.38 0 0 Z " fill="#B6B6B6" transform="translate(143,164)"/>
</svg>
